<?xml version="1.0" encoding="utf-8" ?><svg version="1.1" xmlns = 'http://www.w3.org/2000/svg'><defs><font id='web' horiz-adv-x="1000">
<font-face font-family="web" descent="-410" cap-height="1518" units-per-em="2048" bbox="-88,-549,2150,2034" x-height="1145" ascent="1638" />
<missing-glyph horiz-adv-x="1024" d="M 0 1434 L 1024 1434 L 1024 0 L 0 0 L 0 1434 Z M 102 102 L 922 102 L 922 1331 L 102 1331 L 102 102 Z" /><glyph horiz-adv-x="268" d="" unicode=" " />
<glyph horiz-adv-x="524" d="M 141 274 L 381 274 L 381 0 L 141 0 L 141 274 Z M 150 1518 L 377 1518 L 356 438 L 170 438 L 150 1518 Z" unicode="!" />
<glyph horiz-adv-x="762" d="M 113 1518 L 326 1518 L 315 903 L 125 903 L 113 1518 Z M 436 1518 L 649 1518 L 637 903 L 446 903 L 436 1518 Z" unicode="&#x22;" />
<glyph horiz-adv-x="965" d="M 186 446 L 66 446 L 66 643 L 209 643 L 229 836 L 66 836 L 66 1032 L 250 1032 L 303 1518 L 500 1518 L 446 1032 L 578 1032 L 633 1518 L 827 1518 L 772 1032 L 899 1032 L 899 836 L 752 836 L 731 643 L 899 643 L 899 446 L 709 446 L 659 0 L 465 0 L 514 446 L 381 446 L 334 0 L 137 0 L 186 446 Z M 545 625 L 573 854 L 414 854 L 387 625 L 545 625 Z" unicode="#" />
<glyph horiz-adv-x="799" d="M 305 1686 L 504 1686 L 504 1522 C 506 1522 509 1521 512 1521 C 536 1519 560 1517 582 1513 C 604 1509 627 1505 649 1499 C 671 1493 694 1487 719 1479 L 643 1296 C 615 1307 584 1316 550 1322 C 516 1328 478 1331 436 1331 C 386 1331 346 1318 318 1292 C 290 1266 276 1229 276 1182 C 276 1162 278 1144 282 1128 C 286 1112 294 1092 308 1070 C 321 1048 341 1019 367 985 C 393 951 427 906 471 850 C 520 786 561 732 595 688 C 629 644 656 604 677 568 C 698 532 713 496 723 462 C 732 427 737 387 737 342 C 737 292 729 247 714 205 C 698 163 675 126 644 96 C 613 65 574 41 527 24 C 519 21 512 18 504 16 L 504 -188 L 305 -188 L 305 -1 C 283 0 262 2 244 4 C 210 8 179 14 151 21 C 123 28 99 36 77 45 C 55 54 34 63 16 72 L 94 240 C 124 225 161 212 206 200 C 250 188 300 182 354 182 C 406 182 449 195 482 222 C 515 248 532 288 532 342 C 532 358 531 372 529 385 C 527 398 524 411 519 425 C 514 439 507 454 497 470 C 487 486 474 506 458 529 C 441 552 420 579 396 611 C 372 643 343 681 309 725 C 281 762 255 795 232 825 C 209 854 189 881 171 906 C 153 930 138 953 126 975 C 113 997 102 1019 94 1041 C 86 1063 80 1085 76 1109 C 72 1133 70 1159 70 1188 C 70 1233 76 1276 90 1317 C 103 1357 124 1393 153 1424 C 182 1454 219 1479 265 1497 C 277 1501 291 1506 305 1510 L 305 1686 Z" unicode="$" />
<glyph horiz-adv-x="1563" d="M 338 565 C 292 565 253 571 219 583 C 185 595 158 612 137 633 C 115 651 99 674 87 702 C 75 729 66 760 60 795 C 54 829 50 868 49 910 C 47 952 47 999 47 1049 C 47 1096 47 1140 49 1181 C 50 1222 53 1260 59 1294 C 64 1328 72 1359 82 1386 C 92 1413 107 1436 125 1456 C 148 1479 177 1498 212 1512 C 246 1526 288 1534 338 1534 C 387 1534 429 1526 464 1512 C 499 1498 528 1478 551 1454 C 569 1434 584 1410 595 1383 C 605 1356 613 1326 619 1292 C 624 1258 627 1220 629 1180 C 630 1139 631 1095 631 1049 C 631 999 630 953 628 911 C 626 869 623 830 617 796 C 611 761 602 730 590 703 C 578 675 561 652 541 633 C 518 612 490 595 457 583 C 423 571 384 565 338 565 Z M 1225 -12 C 1179 -12 1140 -5 1106 6 C 1072 18 1045 34 1024 53 C 1002 72 986 95 974 123 C 962 150 953 181 947 216 C 941 250 937 289 936 332 C 934 374 934 421 934 471 C 934 519 934 563 936 604 C 937 645 940 683 946 717 C 951 751 959 781 970 808 C 980 835 995 859 1014 879 C 1036 901 1065 919 1099 933 C 1133 947 1175 954 1225 954 C 1274 954 1316 947 1351 933 C 1386 919 1415 900 1438 877 C 1456 857 1471 833 1482 806 C 1492 778 1500 748 1506 714 C 1511 680 1514 642 1516 602 C 1517 561 1518 517 1518 471 C 1518 421 1517 374 1515 332 C 1513 290 1509 251 1503 217 C 1496 182 1486 151 1474 124 C 1462 96 1445 73 1425 55 C 1403 35 1376 19 1343 7 C 1310 -5 1271 -12 1225 -12 Z M 338 729 C 362 729 382 734 396 745 C 410 756 421 774 428 799 C 435 824 439 857 441 897 C 443 937 444 987 444 1047 C 444 1105 443 1154 441 1194 C 439 1234 435 1267 428 1292 C 421 1317 410 1335 396 1347 C 382 1358 362 1364 338 1364 C 312 1364 292 1358 278 1347 C 264 1335 253 1317 246 1292 C 239 1267 235 1234 233 1194 C 231 1154 231 1105 231 1047 C 231 987 231 937 233 897 C 235 857 239 824 246 799 C 253 774 264 756 278 745 C 292 734 312 729 338 729 Z M 1225 152 C 1249 152 1269 157 1283 168 C 1297 179 1307 197 1314 222 C 1321 246 1325 279 1327 319 C 1328 359 1329 408 1329 467 C 1329 525 1328 575 1327 615 C 1325 655 1321 688 1314 713 C 1307 738 1297 756 1283 767 C 1269 778 1249 784 1225 784 C 1199 784 1178 778 1164 767 C 1150 756 1139 738 1132 713 C 1125 688 1121 655 1120 615 C 1118 575 1118 525 1118 467 C 1118 408 1118 359 1120 319 C 1121 279 1125 246 1132 222 C 1139 197 1150 179 1164 168 C 1178 157 1199 152 1225 152 Z M 946 1518 L 1124 1518 L 618 0 L 438 0 L 946 1518 Z" unicode="%" />
<glyph horiz-adv-x="1069" d="M 440 -14 C 366 -14 303 -6 252 9 C 200 25 159 49 127 81 C 95 113 72 154 58 204 C 44 253 37 311 37 379 C 37 434 44 485 59 532 C 73 578 93 622 118 663 C 142 703 171 741 203 776 C 227 803 253 829 279 855 C 268 877 258 898 250 919 C 229 969 213 1017 203 1064 C 193 1110 188 1158 188 1208 C 188 1256 192 1299 200 1339 C 208 1379 223 1413 245 1441 C 267 1469 296 1492 333 1508 C 370 1524 417 1532 475 1532 C 529 1532 574 1524 610 1510 C 645 1495 673 1474 693 1447 C 713 1420 728 1387 736 1349 C 744 1311 748 1268 748 1221 C 748 1173 742 1129 730 1089 C 718 1048 702 1010 681 974 C 660 938 635 903 606 870 C 583 844 559 818 533 793 C 555 755 580 715 608 672 L 753 442 C 760 476 765 514 769 556 C 777 647 782 756 782 883 L 969 883 C 969 721 958 583 938 469 C 922 385 901 312 873 251 L 1032 0 L 795 0 L 746 79 C 724 61 701 47 677 35 C 611 2 532 -14 440 -14 Z M 370 688 C 354 669 340 650 326 632 C 308 608 293 584 281 558 C 269 532 259 505 252 477 C 245 448 242 417 242 385 C 242 348 245 316 251 288 C 257 260 267 236 282 218 C 297 199 318 185 344 176 C 370 166 404 162 444 162 C 515 162 573 175 617 203 C 629 211 640 220 652 230 L 444 567 C 417 609 392 650 370 688 Z M 526 1063 C 548 1109 559 1158 559 1212 C 559 1232 558 1251 557 1269 C 555 1287 552 1302 546 1314 C 540 1326 531 1336 520 1343 C 508 1350 493 1354 473 1354 C 451 1354 435 1350 423 1342 C 411 1334 401 1324 395 1310 C 389 1296 385 1280 383 1262 C 381 1243 381 1222 381 1200 C 381 1164 385 1128 394 1092 C 403 1056 417 1017 436 975 C 440 966 444 957 448 948 C 482 987 508 1025 526 1063 Z" unicode="&#x26;" />
<glyph horiz-adv-x="440" d="M 113 1518 L 328 1518 L 317 903 L 125 903 L 113 1518 Z" unicode="'" />
<glyph horiz-adv-x="670" d="M 395 -334 C 366 -295 336 -247 306 -190 C 275 -133 247 -65 221 12 C 195 90 174 180 158 281 C 141 382 133 496 133 623 C 133 741 141 850 158 950 C 174 1050 195 1141 221 1221 C 247 1301 275 1372 306 1432 C 336 1492 366 1542 395 1581 L 555 1485 C 531 1445 506 1400 481 1349 C 455 1297 432 1237 412 1168 C 392 1099 375 1020 362 930 C 348 840 342 738 342 623 C 342 507 349 404 363 313 C 377 221 394 141 416 71 C 437 1 460 -59 485 -110 C 510 -160 533 -202 555 -236 L 395 -334 Z" unicode="(" />
<glyph horiz-adv-x="670" d="M 115 -236 C 139 -197 163 -152 188 -101 C 213 -49 236 10 256 79 C 276 147 293 226 306 316 C 319 405 326 507 326 623 C 326 738 319 842 305 934 C 291 1026 273 1107 252 1177 C 231 1247 208 1308 184 1359 C 159 1409 136 1451 115 1485 L 272 1581 C 301 1542 331 1494 363 1437 C 394 1379 423 1311 449 1233 C 475 1155 496 1065 513 964 C 530 862 539 749 539 623 C 539 505 530 396 513 296 C 496 196 475 105 449 25 C 423 -55 394 -126 363 -186 C 331 -246 301 -295 272 -334 L 115 -236 Z" unicode=")" />
<glyph horiz-adv-x="821" d="M 342 961 L 152 805 L 53 956 L 283 1096 L 53 1239 L 152 1389 L 342 1233 L 326 1518 L 494 1518 L 479 1231 L 670 1391 L 770 1241 L 535 1096 L 770 954 L 672 805 L 479 963 L 494 676 L 326 676 L 342 961 Z" unicode="*" />
<glyph horiz-adv-x="926" d="M 358 651 L 123 651 L 123 848 L 358 848 L 358 1176 L 565 1176 L 565 848 L 803 848 L 803 651 L 565 651 L 565 324 L 358 324 L 358 651 Z" unicode="+" />
<glyph horiz-adv-x="391" d="M 78 -137 C 99 -123 116 -111 129 -102 C 142 -92 152 -83 159 -74 C 166 -65 171 -55 173 -44 C 175 -33 176 -18 176 0 L 78 0 L 78 279 L 313 279 L 313 8 C 313 -19 311 -44 307 -66 C 303 -88 296 -108 284 -128 C 272 -148 254 -167 232 -185 C 210 -203 180 -223 143 -244 L 78 -137 Z" unicode="," />
<glyph horiz-adv-x="547" d="M 53 758 L 494 758 L 494 561 L 53 561 L 53 758 Z" unicode="-" />
<glyph horiz-adv-x="391" d="M 78 279 L 313 279 L 313 0 L 78 0 L 78 279 Z" unicode="." />
<glyph horiz-adv-x="733" d="M 524 1518 L 733 1518 L 209 0 L 0 0 L 524 1518 Z" unicode="/" />
<glyph horiz-adv-x="932" d="M 467 -10 C 406 -10 354 -2 312 13 C 270 28 235 48 207 74 C 177 100 154 134 138 176 C 122 217 110 266 102 323 C 94 380 89 445 87 518 C 85 590 84 671 84 760 C 84 844 84 921 86 991 C 88 1061 92 1125 100 1181 C 108 1237 119 1287 134 1330 C 149 1372 170 1408 197 1436 C 225 1466 261 1489 305 1507 C 349 1525 403 1534 467 1534 C 531 1534 584 1525 627 1507 C 670 1489 706 1466 735 1438 C 762 1410 783 1374 799 1332 C 814 1289 825 1239 833 1183 C 841 1126 845 1062 847 992 C 849 921 850 844 850 760 C 850 671 849 590 847 518 C 845 446 839 381 831 325 C 823 268 810 219 794 178 C 777 136 754 102 725 76 C 697 49 662 28 620 13 C 578 -2 527 -10 467 -10 Z M 467 182 C 507 182 539 190 562 208 C 584 225 601 255 612 299 C 623 343 630 402 632 477 C 634 551 635 646 635 760 C 635 835 634 902 634 960 C 633 1018 631 1068 628 1111 C 624 1153 619 1189 612 1218 C 605 1246 595 1269 583 1287 C 571 1304 555 1316 536 1324 C 517 1331 494 1335 467 1335 C 439 1335 415 1331 396 1324 C 377 1316 361 1304 349 1287 C 336 1269 326 1246 319 1218 C 312 1189 307 1153 304 1111 C 300 1068 298 1018 298 960 C 297 902 297 835 297 760 C 297 646 298 551 300 477 C 302 402 308 343 319 299 C 330 255 347 225 370 208 C 393 190 425 182 467 182 Z" unicode="0" />
<glyph horiz-adv-x="541" d="M 203 1319 L 33 1319 L 33 1518 L 412 1518 L 412 0 L 203 0 L 203 1319 Z" unicode="1" />
<glyph horiz-adv-x="768" d="M 43 176 L 428 975 C 444 1009 458 1045 469 1083 C 479 1121 485 1158 485 1194 C 485 1214 482 1233 477 1251 C 472 1269 464 1284 452 1297 C 440 1310 425 1320 406 1328 C 386 1335 362 1339 334 1339 C 292 1339 253 1334 217 1326 C 181 1318 147 1306 115 1292 L 37 1473 C 78 1491 124 1505 176 1517 C 228 1528 287 1534 354 1534 C 417 1534 471 1527 515 1513 C 559 1499 594 1480 621 1454 C 648 1428 668 1396 680 1359 C 692 1321 698 1279 698 1233 C 698 1172 689 1114 671 1059 C 653 1003 630 945 602 885 L 264 186 L 694 186 L 694 0 L 43 0 L 43 176 Z" unicode="2" />
<glyph horiz-adv-x="750" d="M 326 -10 C 250 -10 188 -4 138 8 C 88 20 47 33 14 49 L 92 223 C 103 217 116 212 132 207 C 148 202 165 197 183 193 C 201 188 221 184 241 182 C 261 179 282 178 303 178 C 339 178 369 183 391 194 C 413 205 431 222 443 245 C 455 268 463 297 467 332 C 471 367 473 409 473 457 C 473 508 470 551 466 585 C 462 619 451 646 435 667 C 419 687 394 702 361 710 C 328 718 283 723 227 723 L 162 723 L 162 913 L 227 913 C 279 913 320 917 350 926 C 380 935 403 949 419 968 C 435 987 445 1011 449 1040 C 453 1069 455 1103 455 1143 C 455 1175 453 1203 450 1227 C 447 1251 440 1272 430 1289 C 419 1306 403 1319 383 1328 C 362 1336 334 1341 299 1341 C 268 1341 235 1337 199 1330 C 163 1323 131 1314 104 1303 L 27 1479 C 53 1491 92 1503 143 1515 C 193 1527 258 1534 336 1534 C 402 1534 456 1526 498 1511 C 540 1496 572 1474 596 1444 C 620 1414 636 1378 645 1334 C 654 1290 659 1240 659 1182 C 659 1136 657 1096 655 1060 C 653 1024 647 992 639 964 C 631 936 619 913 603 893 C 587 873 565 858 539 846 C 573 834 600 817 619 797 C 638 776 652 749 661 717 C 670 684 675 645 677 600 C 679 555 680 502 680 442 C 680 366 674 300 664 244 C 653 188 634 141 608 103 C 581 65 545 37 499 18 C 453 0 396 -10 326 -10 Z" unicode="3" />
<glyph horiz-adv-x="879" d="M 51 506 L 438 1518 L 649 1518 L 266 520 L 504 520 L 545 928 L 696 928 L 696 520 L 842 520 L 842 330 L 696 330 L 696 0 L 502 0 L 502 330 L 51 330 L 51 506 Z" unicode="4" />
<glyph horiz-adv-x="780" d="M 358 -10 C 315 -10 277 -8 245 -5 C 213 -1 184 2 158 8 C 132 14 108 20 87 28 C 66 36 46 44 27 53 L 104 225 C 129 215 161 204 201 194 C 240 183 287 178 342 178 C 378 178 407 183 429 193 C 451 203 468 220 480 245 C 492 270 501 304 505 346 C 509 388 512 441 512 506 C 512 569 510 621 507 661 C 503 701 496 733 486 756 C 476 778 461 794 442 802 C 422 810 397 815 365 815 C 333 815 305 810 283 802 C 261 793 241 782 225 770 L 74 817 L 94 1518 L 662 1518 L 662 1319 L 276 1319 L 268 977 C 285 986 307 994 335 1001 C 362 1008 396 1012 436 1012 C 498 1012 548 1003 586 986 C 623 968 652 940 672 900 C 692 860 705 808 711 744 C 717 679 721 599 721 504 C 721 409 716 329 707 264 C 698 198 681 145 655 105 C 629 64 592 35 544 17 C 496 -1 434 -10 358 -10 Z" unicode="5" />
<glyph horiz-adv-x="885" d="M 459 -10 C 398 -10 347 -2 305 13 C 263 28 227 49 199 76 C 171 101 149 132 133 169 C 117 205 106 247 98 293 C 90 339 85 391 83 447 C 81 503 80 563 80 627 L 80 799 C 80 873 81 941 84 1002 C 86 1063 92 1118 101 1167 C 110 1216 123 1259 139 1297 C 155 1334 177 1367 205 1395 C 225 1415 249 1433 275 1449 C 301 1465 331 1478 365 1488 C 399 1498 438 1505 482 1510 C 526 1515 575 1518 631 1518 L 705 1518 L 705 1319 L 631 1319 C 575 1319 528 1315 490 1308 C 452 1301 420 1291 395 1277 C 370 1263 351 1246 337 1226 C 323 1205 313 1181 307 1154 C 300 1127 296 1097 295 1063 C 293 1029 293 992 293 952 C 301 964 312 975 325 985 C 337 995 353 1004 372 1011 C 390 1018 413 1024 439 1028 C 465 1032 496 1034 532 1034 C 600 1034 654 1022 693 999 C 732 975 761 942 780 900 C 799 857 811 806 816 746 C 820 686 823 621 823 549 C 823 492 822 439 820 390 C 818 341 813 296 806 256 C 799 216 789 180 775 149 C 761 117 742 91 719 70 C 691 44 655 25 613 11 C 571 -3 519 -10 459 -10 Z M 463 174 C 497 174 525 180 545 193 C 565 205 580 226 590 255 C 600 283 607 321 610 368 C 612 415 614 473 614 541 C 614 594 612 640 609 678 C 606 716 600 747 590 771 C 580 795 565 813 546 825 C 526 836 501 842 469 842 C 443 842 419 838 398 831 C 377 824 359 810 345 789 C 330 767 319 737 311 698 C 303 659 299 607 299 543 C 299 473 300 414 303 367 C 305 320 312 282 323 254 C 334 225 351 204 373 192 C 395 180 425 174 463 174 Z" unicode="6" />
<glyph horiz-adv-x="698" d="M 455 1319 L 10 1319 L 10 1518 L 674 1518 L 674 1339 L 338 0 L 121 0 L 455 1319 Z" unicode="7" />
<glyph horiz-adv-x="887" d="M 442 -14 C 374 -14 317 -6 272 8 C 227 23 190 44 162 70 C 141 88 125 110 113 135 C 101 160 91 187 85 217 C 79 247 75 279 73 313 C 71 347 70 382 70 420 C 70 470 70 517 72 561 C 74 604 79 643 88 678 C 97 712 111 742 130 768 C 148 793 175 813 209 827 C 183 841 162 860 148 883 C 134 905 123 931 116 960 C 109 989 105 1021 104 1056 C 102 1091 102 1129 102 1169 C 102 1197 102 1224 104 1251 C 106 1277 109 1303 115 1327 C 120 1351 127 1373 137 1393 C 147 1413 160 1432 176 1448 C 200 1476 234 1497 278 1512 C 321 1526 376 1534 442 1534 C 508 1534 564 1526 609 1511 C 653 1495 687 1474 711 1448 C 727 1431 739 1412 749 1392 C 758 1372 765 1350 771 1326 C 776 1302 779 1277 781 1251 C 783 1224 784 1197 784 1169 C 784 1129 783 1091 781 1056 C 779 1020 775 988 768 959 C 761 930 750 904 736 882 C 722 860 702 841 676 827 C 710 813 736 793 755 768 C 774 743 788 713 797 679 C 806 644 812 605 814 561 C 816 517 817 470 817 420 C 817 382 816 346 814 312 C 812 278 808 246 802 216 C 796 186 786 158 774 133 C 761 108 744 86 723 68 C 694 42 657 21 612 7 C 567 -6 510 -14 442 -14 Z M 442 162 C 478 162 508 167 530 179 C 552 190 568 207 579 230 C 590 253 597 282 601 317 C 604 351 606 392 606 440 C 606 487 604 528 601 563 C 597 597 590 626 579 649 C 568 672 552 689 530 700 C 508 711 478 717 442 717 C 405 717 376 711 355 700 C 333 689 317 672 307 649 C 296 626 289 597 287 563 C 284 528 283 487 283 440 C 283 392 284 351 287 317 C 289 282 296 253 307 230 C 317 207 333 190 355 179 C 376 167 405 162 442 162 Z M 442 909 C 472 909 496 913 514 923 C 532 933 547 947 557 966 C 567 985 573 1008 577 1036 C 580 1064 582 1096 582 1133 C 582 1169 580 1201 577 1229 C 573 1257 567 1280 557 1298 C 547 1316 532 1330 514 1340 C 496 1349 472 1354 442 1354 C 412 1354 388 1349 370 1340 C 352 1330 338 1316 328 1298 C 318 1280 312 1257 309 1229 C 306 1201 305 1169 305 1133 C 305 1096 306 1064 309 1036 C 312 1008 318 985 328 966 C 338 947 352 933 370 923 C 388 913 412 909 442 909 Z" unicode="8" />
<glyph horiz-adv-x="885" d="M 190 195 L 266 195 C 320 195 367 198 405 205 C 443 212 474 223 499 237 C 524 251 543 268 557 289 C 571 310 581 334 588 362 C 594 390 598 421 600 455 C 601 489 602 527 602 569 C 593 557 582 546 570 536 C 557 526 541 518 523 511 C 504 504 481 499 455 495 C 429 491 398 489 362 489 C 293 489 239 500 201 524 C 162 547 133 580 114 623 C 95 665 83 716 79 776 C 74 836 72 902 72 975 C 72 1031 73 1083 75 1132 C 77 1180 81 1225 88 1265 C 95 1305 106 1341 120 1373 C 134 1404 152 1430 176 1452 C 204 1477 239 1497 281 1512 C 323 1526 375 1534 436 1534 C 496 1534 548 1526 590 1511 C 632 1495 667 1474 696 1446 C 724 1420 745 1388 761 1352 C 777 1316 789 1274 797 1228 C 805 1181 810 1130 812 1074 C 814 1018 815 959 815 895 L 815 725 C 815 650 813 582 811 520 C 808 458 802 403 794 353 C 785 303 772 259 756 221 C 740 183 718 150 692 123 C 670 101 646 83 620 68 C 594 52 563 40 529 30 C 495 20 456 12 413 7 C 369 2 320 0 266 0 L 190 0 L 190 195 Z M 426 674 C 452 674 475 677 496 684 C 517 691 535 705 550 727 C 564 748 576 778 584 817 C 592 856 596 908 596 973 C 596 1042 594 1100 592 1147 C 589 1194 582 1232 571 1261 C 560 1289 544 1310 522 1322 C 500 1334 471 1341 434 1341 C 398 1341 370 1334 350 1322 C 330 1309 314 1288 304 1260 C 294 1231 287 1193 285 1147 C 282 1101 281 1044 281 977 C 281 923 282 877 286 839 C 289 801 296 769 306 745 C 316 720 330 702 349 691 C 368 679 394 674 426 674 Z" unicode="9" />
<glyph horiz-adv-x="422" d="M 94 276 L 328 276 L 328 0 L 94 0 L 94 276 Z M 94 1145 L 328 1145 L 328 868 L 94 868 L 94 1145 Z" unicode=":" />
<glyph horiz-adv-x="422" d="M 96 -137 C 116 -123 133 -112 146 -103 C 159 -94 169 -85 176 -76 C 182 -67 187 -57 189 -45 C 191 -33 193 -18 193 0 L 94 0 L 94 276 L 328 276 L 328 8 C 328 -17 326 -41 322 -63 C 318 -85 311 -106 299 -126 C 287 -146 271 -165 249 -184 C 227 -203 197 -223 160 -244 L 96 -137 Z M 94 1145 L 328 1145 L 328 868 L 94 868 L 94 1145 Z" unicode=";" />
<glyph horiz-adv-x="926" d="M 160 668 L 160 817 L 725 1192 L 725 981 L 367 741 L 725 502 L 725 291 L 160 668 Z" unicode="&#x3C;" />
<glyph horiz-adv-x="926" d="M 129 641 L 799 641 L 799 444 L 129 444 L 129 641 Z M 129 1020 L 799 1020 L 799 823 L 129 823 L 129 1020 Z" unicode="=" />
<glyph horiz-adv-x="926" d="M 203 502 L 561 739 L 203 979 L 203 1192 L 766 815 L 766 664 L 203 291 L 203 502 Z" unicode="&#x3E;" />
<glyph horiz-adv-x="842" d="M 295 430 C 295 482 296 527 298 565 C 300 603 303 638 308 668 C 313 698 320 727 330 753 C 340 779 353 806 371 834 L 494 1049 C 507 1071 517 1095 524 1120 C 531 1145 535 1171 535 1198 C 535 1216 532 1234 527 1251 C 522 1268 514 1283 503 1296 C 491 1309 476 1319 457 1327 C 437 1335 413 1339 385 1339 C 366 1339 347 1337 327 1335 C 307 1332 288 1328 269 1324 C 249 1320 231 1315 213 1309 C 195 1303 180 1296 166 1290 L 86 1470 C 108 1479 130 1487 154 1495 C 177 1503 202 1509 228 1515 C 254 1521 283 1525 313 1529 C 343 1532 376 1534 412 1534 C 474 1534 527 1525 569 1508 C 611 1490 645 1467 671 1439 C 697 1411 715 1378 726 1342 C 737 1305 743 1267 743 1229 C 743 1183 736 1137 723 1093 C 709 1048 692 1009 672 977 L 555 770 C 543 748 533 727 525 707 C 517 687 512 664 508 638 C 504 612 501 583 499 550 C 497 516 496 476 496 430 L 295 430 Z M 276 252 L 512 252 L 512 0 L 276 0 L 276 252 Z" unicode="?" />
<glyph horiz-adv-x="1217" d="M 606 -311 C 516 -311 440 -301 379 -281 C 317 -261 267 -233 227 -195 C 187 -157 156 -112 135 -58 C 114 -4 99 56 89 124 C 79 192 73 267 72 349 C 70 430 70 517 70 610 C 70 702 70 789 72 871 C 73 953 79 1028 89 1096 C 99 1164 114 1226 135 1280 C 156 1334 187 1379 227 1417 C 267 1455 317 1484 379 1504 C 440 1524 516 1534 606 1534 C 696 1534 773 1524 835 1504 C 897 1484 949 1455 989 1417 C 1029 1379 1059 1334 1081 1280 C 1103 1226 1119 1164 1129 1096 C 1139 1028 1144 953 1146 871 C 1148 789 1149 702 1149 610 L 1149 334 C 1149 291 1145 255 1138 226 C 1131 196 1120 172 1105 154 C 1090 136 1071 122 1048 114 C 1024 106 997 102 965 102 C 932 102 904 103 882 107 C 860 111 841 116 827 124 C 813 131 802 140 794 151 C 786 162 780 175 776 190 C 756 160 728 137 692 123 C 656 109 605 102 541 102 C 505 102 473 107 445 119 C 417 130 393 145 375 164 C 355 184 340 209 329 239 C 318 269 310 302 305 340 C 299 378 296 419 295 463 C 293 507 293 554 293 604 C 293 656 293 705 295 750 C 296 795 300 836 306 873 C 312 910 321 943 333 972 C 345 1001 361 1026 383 1047 C 401 1064 423 1078 448 1088 C 472 1098 503 1104 541 1104 C 569 1104 594 1102 615 1100 C 636 1097 654 1093 670 1087 C 686 1081 699 1074 711 1065 C 723 1056 733 1046 743 1034 L 766 1096 L 903 1085 L 903 342 C 903 316 903 295 905 278 C 906 261 909 247 913 237 C 917 226 924 218 932 214 C 940 209 952 207 967 207 C 981 207 992 209 1000 215 C 1008 220 1015 228 1019 240 C 1023 251 1026 265 1028 282 C 1029 298 1030 318 1030 342 L 1030 610 C 1030 694 1029 772 1029 844 C 1029 916 1025 982 1018 1042 C 1011 1101 1000 1154 984 1200 C 968 1246 944 1285 913 1317 C 881 1348 841 1372 791 1388 C 741 1404 680 1413 606 1413 C 533 1413 472 1404 423 1388 C 374 1372 334 1348 303 1317 C 272 1285 248 1246 232 1200 C 216 1154 204 1101 198 1042 C 191 982 187 916 187 844 C 186 772 186 694 186 610 C 186 526 186 447 187 375 C 187 303 191 237 198 178 C 204 119 216 67 232 21 C 248 -25 272 -63 303 -94 C 334 -125 374 -149 423 -165 C 472 -181 533 -190 606 -190 L 928 -190 L 928 -311 L 606 -311 Z M 594 256 C 628 256 654 262 673 275 C 691 287 705 307 714 335 C 723 362 728 397 730 441 C 732 485 733 538 733 600 C 733 661 732 713 730 757 C 728 800 723 835 714 862 C 705 889 691 909 673 921 C 654 933 628 940 594 940 C 562 940 538 932 521 918 C 503 904 490 882 482 854 C 474 826 469 790 467 748 C 465 705 465 656 465 600 C 465 544 465 494 467 452 C 469 409 474 373 482 344 C 490 315 503 293 521 278 C 538 263 562 256 594 256 Z" unicode="@" />
<glyph horiz-adv-x="944" d="M 350 1522 L 592 1522 L 924 0 L 705 0 L 647 287 L 287 287 L 229 0 L 20 0 L 350 1522 Z M 602 481 L 504 973 L 467 1178 L 430 973 L 332 481 L 602 481 Z" unicode="A" />
<glyph horiz-adv-x="940" d="M 94 1518 L 475 1518 C 549 1518 610 1509 660 1493 C 709 1476 748 1451 778 1419 C 808 1387 829 1347 841 1299 C 853 1251 860 1197 860 1135 C 860 1092 857 1052 853 1016 C 849 980 841 947 831 918 C 820 889 805 864 786 843 C 767 822 743 806 715 795 C 749 785 776 768 798 746 C 819 723 836 695 848 663 C 860 630 868 592 872 550 C 876 508 879 462 879 412 C 879 344 871 285 856 234 C 841 182 818 139 786 105 C 754 70 713 44 663 26 C 613 8 554 0 485 0 L 94 0 L 94 1518 Z M 479 186 C 515 186 546 191 571 201 C 595 211 615 227 631 248 C 646 268 657 294 664 325 C 670 355 674 391 674 432 C 674 480 670 519 662 551 C 654 582 641 607 625 625 C 608 643 587 656 562 664 C 536 672 507 676 473 676 L 299 676 L 299 186 L 479 186 Z M 469 866 C 508 866 540 872 564 884 C 588 896 607 912 621 934 C 634 955 643 980 648 1009 C 652 1037 655 1068 655 1102 C 655 1139 651 1172 645 1200 C 639 1228 628 1251 614 1270 C 600 1289 581 1303 557 1313 C 533 1322 503 1327 467 1327 L 299 1327 L 299 866 L 469 866 Z" unicode="B" />
<glyph horiz-adv-x="786" d="M 494 -10 C 423 -10 363 -1 314 17 C 265 35 224 60 190 92 C 160 121 137 156 119 198 C 101 240 88 288 79 343 C 69 398 63 460 60 529 C 56 598 55 675 55 760 C 55 842 56 917 59 985 C 61 1053 67 1114 77 1169 C 86 1223 99 1271 116 1313 C 133 1355 156 1391 186 1421 C 218 1456 259 1483 309 1503 C 359 1522 420 1532 492 1532 C 520 1532 547 1531 571 1529 C 595 1527 617 1525 638 1521 C 659 1517 679 1513 698 1508 C 717 1502 736 1496 756 1489 L 680 1294 C 655 1303 627 1310 597 1316 C 567 1322 536 1325 504 1325 C 453 1325 412 1316 382 1298 C 351 1280 327 1249 311 1206 C 294 1162 283 1104 278 1031 C 272 958 270 866 270 756 C 270 646 272 554 278 482 C 283 409 294 351 311 308 C 327 264 351 234 382 216 C 412 198 453 190 504 190 C 542 190 575 193 603 200 C 631 207 659 217 688 229 L 764 41 C 745 33 726 26 707 20 C 688 14 668 8 646 4 C 624 0 601 -4 576 -6 C 551 -8 524 -10 494 -10 Z" unicode="C" />
<glyph horiz-adv-x="963" d="M 94 1518 L 442 1518 C 524 1518 594 1508 651 1489 C 707 1470 753 1442 788 1405 C 816 1375 838 1340 854 1299 C 870 1258 882 1211 890 1157 C 898 1103 903 1044 905 978 C 907 912 909 839 909 760 C 909 676 907 599 905 531 C 903 462 897 400 889 346 C 880 292 867 244 849 203 C 831 162 808 128 778 100 C 743 66 698 40 642 24 C 586 8 518 0 438 0 L 94 0 L 94 1518 Z M 444 186 C 502 186 548 194 581 212 C 614 229 639 259 655 303 C 671 346 682 404 686 478 C 690 552 692 645 692 758 C 692 831 691 896 689 953 C 687 1009 684 1059 679 1101 C 673 1143 665 1178 654 1206 C 643 1234 628 1257 610 1275 C 591 1292 568 1304 540 1312 C 512 1319 479 1323 440 1323 L 307 1323 L 307 186 L 444 186 Z" unicode="D" />
<glyph horiz-adv-x="825" d="M 94 1518 L 764 1518 L 764 1319 L 307 1319 L 307 874 L 743 874 L 743 676 L 307 676 L 307 195 L 764 195 L 764 0 L 94 0 L 94 1518 Z" unicode="E" />
<glyph horiz-adv-x="795" d="M 94 1518 L 760 1518 L 760 1319 L 307 1319 L 307 852 L 739 852 L 739 653 L 307 653 L 307 0 L 94 0 L 94 1518 Z" unicode="F" />
<glyph horiz-adv-x="913" d="M 465 -10 C 403 -10 350 -3 306 10 C 262 23 225 44 195 74 C 163 102 137 139 119 183 C 101 227 87 279 77 337 C 67 395 61 459 59 530 C 56 601 55 678 55 760 C 55 840 56 913 59 981 C 61 1048 67 1109 76 1164 C 85 1219 98 1268 115 1311 C 132 1353 155 1390 184 1421 C 200 1438 219 1453 240 1467 C 260 1481 284 1492 310 1502 C 336 1512 365 1519 397 1524 C 429 1529 464 1532 504 1532 C 574 1532 635 1525 689 1513 C 743 1500 786 1487 819 1473 L 731 1284 C 703 1296 671 1307 635 1315 C 599 1323 560 1327 516 1327 C 462 1327 418 1318 385 1300 C 352 1282 327 1251 309 1207 C 291 1163 280 1105 274 1032 C 268 958 266 866 266 756 C 266 649 268 559 272 486 C 276 412 285 353 300 308 C 314 262 335 230 363 210 C 390 190 427 180 475 180 C 516 180 549 186 574 198 C 598 210 617 231 630 262 C 643 293 652 335 656 387 C 660 439 662 506 662 588 L 662 688 L 430 688 L 430 883 L 870 883 L 870 637 C 870 559 868 489 864 428 C 860 367 854 314 845 268 C 836 222 824 182 809 150 C 793 118 774 91 752 70 C 720 40 681 20 634 8 C 587 -4 531 -10 465 -10 Z" unicode="G" />
<glyph horiz-adv-x="999" d="M 94 1518 L 307 1518 L 307 889 L 692 889 L 692 1518 L 905 1518 L 905 0 L 692 0 L 692 676 L 307 676 L 307 0 L 94 0 L 94 1518 Z" unicode="H" />
<glyph horiz-adv-x="426" d="M 106 1518 L 319 1518 L 319 0 L 106 0 L 106 1518 Z" unicode="I" />
<glyph horiz-adv-x="580" d="M 35 195 L 141 195 C 168 195 190 197 208 203 C 226 209 240 217 251 228 C 261 239 269 253 273 270 C 277 286 279 306 279 328 L 279 1518 L 494 1518 L 494 309 C 494 253 487 205 474 166 C 460 126 440 94 414 70 C 388 45 355 27 317 16 C 278 5 234 0 184 0 L 35 0 L 35 195 Z" unicode="J" />
<glyph horiz-adv-x="915" d="M 94 1518 L 305 1518 L 305 823 L 643 1518 L 866 1518 L 568 920 L 887 0 L 662 0 L 428 678 L 305 409 L 305 0 L 94 0 L 94 1518 Z" unicode="K" />
<glyph horiz-adv-x="766" d="M 94 1518 L 307 1518 L 307 195 L 745 195 L 745 0 L 94 0 L 94 1518 Z" unicode="L" />
<glyph horiz-adv-x="1192" d="M 94 1518 L 365 1518 L 545 684 L 596 424 L 645 682 L 831 1518 L 1098 1518 L 1098 0 L 895 0 L 895 1047 L 854 844 L 672 0 L 504 0 L 322 844 L 281 1055 L 281 0 L 94 0 L 94 1518 Z" unicode="M" />
<glyph horiz-adv-x="979" d="M 94 1518 L 315 1518 L 614 727 L 688 530 L 688 1518 L 885 1518 L 885 0 L 692 0 L 360 860 L 293 1040 L 293 0 L 94 0 L 94 1518 Z" unicode="N" />
<glyph horiz-adv-x="997" d="M 498 -10 C 427 -10 367 -1 318 17 C 268 35 227 60 193 92 C 160 123 134 160 116 204 C 98 248 84 297 75 353 C 66 409 60 471 58 539 C 56 607 55 680 55 760 C 55 838 56 910 58 976 C 60 1042 65 1103 74 1158 C 82 1213 95 1262 112 1306 C 128 1349 152 1387 182 1419 C 215 1454 257 1482 309 1503 C 360 1523 423 1534 498 1534 C 572 1534 634 1523 686 1503 C 738 1482 780 1455 813 1421 C 843 1389 866 1351 883 1307 C 900 1263 913 1214 922 1159 C 930 1104 936 1043 938 977 C 940 910 942 838 942 760 C 942 680 940 606 938 538 C 936 470 930 408 921 352 C 911 296 898 246 880 203 C 862 159 837 122 805 92 C 771 60 728 35 678 17 C 628 -1 568 -10 498 -10 Z M 498 186 C 550 186 591 195 621 215 C 651 235 673 267 689 312 C 704 357 714 416 718 489 C 722 561 725 650 725 756 C 725 861 722 950 718 1023 C 714 1096 704 1155 689 1201 C 673 1246 651 1279 621 1299 C 591 1319 550 1329 498 1329 C 446 1329 405 1319 375 1299 C 345 1279 322 1246 306 1201 C 290 1155 280 1096 276 1023 C 272 950 270 861 270 756 C 270 650 272 561 276 489 C 280 416 290 357 306 312 C 322 267 345 235 375 215 C 405 195 446 186 498 186 Z" unicode="O" />
<glyph horiz-adv-x="926" d="M 94 1518 L 459 1518 C 541 1518 609 1508 663 1489 C 717 1470 760 1441 792 1402 C 824 1362 846 1313 859 1253 C 872 1193 879 1122 879 1040 C 879 958 872 887 859 827 C 846 766 824 715 792 675 C 760 635 718 605 664 585 C 610 565 543 555 461 555 L 305 555 L 305 0 L 94 0 L 94 1518 Z M 459 750 C 500 750 534 755 562 765 C 589 775 611 791 627 814 C 643 836 655 866 662 903 C 668 939 672 984 672 1038 C 672 1092 668 1137 662 1174 C 655 1210 643 1240 627 1262 C 611 1284 589 1299 561 1309 C 533 1318 499 1323 457 1323 L 305 1323 L 305 750 L 459 750 Z" unicode="P" />
<glyph horiz-adv-x="995" d="M 645 -332 C 587 -332 540 -326 504 -314 C 468 -302 440 -281 420 -253 C 400 -225 386 -187 380 -140 C 374 -99 371 -50 372 7 C 352 11 334 17 318 23 C 268 41 227 67 193 100 C 160 130 134 167 116 210 C 98 252 84 301 75 356 C 66 411 60 472 58 540 C 56 607 55 680 55 760 C 55 838 56 910 58 976 C 60 1042 65 1103 74 1158 C 82 1213 95 1262 112 1306 C 128 1349 152 1387 182 1419 C 215 1454 257 1482 309 1503 C 360 1523 423 1534 498 1534 C 572 1534 634 1523 686 1503 C 738 1482 780 1455 813 1421 C 843 1389 866 1351 883 1307 C 900 1263 913 1214 922 1159 C 930 1104 936 1043 938 977 C 940 910 942 838 942 760 C 942 680 940 606 938 539 C 936 471 930 410 921 355 C 911 300 898 251 880 208 C 862 165 837 128 805 98 C 771 66 728 41 678 23 C 646 11 611 4 573 0 C 573 -24 574 -44 576 -61 C 578 -83 583 -101 591 -113 C 598 -125 608 -134 622 -138 C 636 -142 654 -145 678 -145 L 766 -145 L 766 -332 L 645 -332 Z M 498 182 C 550 182 591 192 621 212 C 651 232 673 264 689 309 C 704 354 714 413 718 486 C 722 559 725 648 725 754 C 725 860 722 949 718 1022 C 714 1095 704 1154 689 1200 C 673 1246 651 1279 621 1299 C 591 1319 550 1329 498 1329 C 446 1329 405 1319 375 1299 C 345 1279 322 1246 306 1200 C 290 1154 280 1095 276 1022 C 272 949 270 860 270 754 C 270 648 272 559 276 486 C 280 413 290 354 306 309 C 322 264 345 232 375 212 C 405 192 446 182 498 182 Z" unicode="Q" />
<glyph horiz-adv-x="930" d="M 94 1518 L 449 1518 C 529 1518 595 1509 649 1491 C 703 1473 746 1446 778 1409 C 810 1372 833 1325 847 1269 C 861 1212 868 1145 868 1067 C 868 995 861 930 849 874 C 836 817 814 768 782 728 C 752 689 712 658 662 635 L 860 0 L 641 0 L 463 589 L 451 588 L 303 588 L 303 0 L 94 0 L 94 1518 Z M 449 780 C 491 780 525 785 553 795 C 581 805 603 822 619 844 C 635 866 646 895 652 930 C 658 964 662 1006 662 1055 C 662 1103 658 1145 652 1179 C 646 1213 634 1241 618 1262 C 602 1283 580 1298 552 1308 C 524 1318 488 1323 446 1323 L 303 1323 L 303 780 L 449 780 Z" unicode="R" />
<glyph horiz-adv-x="817" d="M 377 -10 C 295 -10 226 -3 169 10 C 112 24 65 39 27 57 L 115 238 C 151 220 189 207 229 198 C 269 188 317 184 371 184 C 397 184 422 187 444 193 C 466 199 485 209 501 222 C 517 235 529 251 538 271 C 546 291 551 314 551 342 C 551 364 547 386 540 408 C 533 430 521 456 503 485 C 485 514 461 548 431 588 C 401 627 363 675 317 731 C 273 785 235 832 204 872 C 173 912 148 950 128 984 C 108 1018 94 1052 85 1085 C 76 1117 72 1153 72 1192 C 72 1237 78 1280 91 1322 C 104 1363 125 1399 154 1430 C 183 1461 221 1486 268 1504 C 315 1522 372 1532 440 1532 C 472 1532 501 1531 528 1529 C 555 1527 580 1525 604 1522 C 628 1518 650 1514 672 1509 C 694 1503 716 1497 739 1489 L 670 1296 C 640 1306 605 1315 567 1321 C 528 1327 487 1331 444 1331 C 388 1331 347 1318 320 1293 C 292 1267 279 1233 279 1190 C 279 1170 281 1152 285 1136 C 289 1120 299 1100 313 1078 C 327 1055 347 1027 373 993 C 399 959 435 916 479 862 C 515 817 548 777 576 741 C 604 705 629 673 650 644 C 670 614 687 587 701 562 C 715 537 726 513 734 489 C 742 465 748 441 752 417 C 756 392 758 366 758 338 C 758 288 750 241 736 199 C 721 157 698 120 667 89 C 636 58 597 34 549 16 C 501 -1 443 -10 377 -10 Z" unicode="S" />
<glyph horiz-adv-x="854" d="M 317 1319 L 18 1319 L 18 1518 L 834 1518 L 834 1319 L 535 1319 L 535 0 L 317 0 L 317 1319 Z" unicode="T" />
<glyph horiz-adv-x="981" d="M 489 -16 C 419 -16 359 -8 310 7 C 261 22 221 44 190 74 C 167 94 149 118 135 145 C 121 171 111 201 104 233 C 96 265 91 299 89 337 C 87 374 86 413 86 455 L 86 1518 L 301 1518 L 301 463 C 301 414 303 372 309 337 C 314 301 324 272 338 249 C 352 226 372 209 397 198 C 422 187 454 182 494 182 C 532 182 564 187 589 198 C 614 208 634 225 648 248 C 662 271 672 300 678 336 C 683 371 686 413 686 463 L 686 1518 L 895 1518 L 895 455 C 895 414 894 375 892 339 C 890 302 885 267 879 235 C 872 203 862 173 849 147 C 836 120 819 96 797 76 C 765 46 724 24 674 8 C 624 -8 562 -16 489 -16 Z" unicode="U" />
<glyph horiz-adv-x="940" d="M 25 1518 L 242 1518 L 426 633 L 473 383 L 520 629 L 705 1518 L 918 1518 L 586 -4 L 354 -4 L 25 1518 Z" unicode="V" />
<glyph horiz-adv-x="1372" d="M 45 1518 L 260 1518 L 385 754 L 422 512 L 461 752 L 606 1518 L 782 1518 L 928 752 L 967 512 L 1004 754 L 1130 1518 L 1327 1518 L 1073 -4 L 866 -4 L 729 711 L 688 954 L 645 711 L 508 -4 L 299 -4 L 45 1518 Z" unicode="W" />
<glyph horiz-adv-x="952" d="M 63 1518 L 289 1518 L 488 1039 L 672 1518 L 891 1518 L 595 783 L 922 0 L 698 0 L 463 560 L 246 0 L 27 0 L 356 816 L 63 1518 Z" unicode="X" />
<glyph horiz-adv-x="911" d="M 2 1518 L 227 1518 L 457 815 L 688 1518 L 907 1518 L 561 513 L 561 0 L 348 0 L 348 519 L 2 1518 Z" unicode="Y" />
<glyph horiz-adv-x="829" d="M 41 166 L 543 1319 L 61 1319 L 61 1518 L 772 1518 L 772 1335 L 276 195 L 788 195 L 788 0 L 41 0 L 41 166 Z" unicode="Z" />
<glyph horiz-adv-x="672" d="M 145 1563 L 557 1563 L 557 1374 L 354 1374 L 354 -133 L 561 -133 L 561 -311 L 145 -311 L 145 1563 Z" unicode="[" />
<glyph horiz-adv-x="733" d="M 0 1518 L 209 1518 L 733 0 L 524 0 L 0 1518 Z" unicode="\" />
<glyph horiz-adv-x="672" d="M 113 -133 L 319 -133 L 319 1374 L 115 1374 L 115 1563 L 528 1563 L 528 -311 L 113 -311 L 113 -133 Z" unicode="]" />
<glyph horiz-adv-x="750" d="M 270 1533 L 477 1533 L 672 1217 L 489 1217 L 373 1391 L 256 1217 L 76 1217 L 270 1533 Z" unicode="^" />
<glyph horiz-adv-x="575" d="M -47 -102 L 621 -102 L 621 -256 L -47 -256 L -47 -102 Z" unicode="_" />
<glyph horiz-adv-x="750" d="M 96 1561 L 336 1561 L 498 1245 L 311 1245 L 96 1561 Z" unicode="`" />
<glyph horiz-adv-x="825" d="M 317 -8 C 264 -8 220 0 185 14 C 149 29 121 52 100 82 C 79 112 64 151 56 198 C 47 245 43 301 43 365 C 43 447 51 514 68 567 C 84 620 111 662 148 693 C 184 724 231 746 288 758 C 345 770 414 776 496 776 L 516 776 C 515 802 514 826 513 847 C 511 872 505 893 497 910 C 489 926 476 938 460 946 C 443 954 420 958 391 958 C 371 958 351 957 331 955 C 311 953 291 950 272 946 C 252 942 234 938 217 934 C 200 929 185 924 172 920 L 102 1106 C 116 1111 134 1117 154 1123 C 174 1129 198 1134 224 1139 C 250 1144 278 1148 310 1152 C 342 1155 377 1157 416 1157 C 474 1157 523 1150 562 1137 C 601 1124 632 1105 655 1081 C 681 1053 698 1016 706 970 C 714 924 719 869 719 805 L 719 272 C 719 254 719 240 721 229 C 722 217 725 208 729 202 C 733 195 740 190 749 188 C 758 185 770 184 786 184 L 786 0 C 782 0 777 -1 770 -1 C 762 -1 754 -2 746 -2 L 705 -2 C 683 -2 664 0 649 2 C 633 5 620 10 609 16 C 598 22 589 29 582 39 C 574 49 568 60 563 74 C 551 62 539 50 525 40 C 511 30 494 21 475 14 C 455 7 433 2 407 -2 C 381 -6 351 -8 317 -8 Z M 380 595 C 345 589 317 578 297 562 C 277 546 262 523 254 494 C 246 465 242 427 242 381 C 242 343 243 311 246 284 C 249 257 255 235 263 218 C 271 200 283 187 298 179 C 313 170 333 166 358 166 C 394 166 423 172 445 185 C 466 197 482 214 492 235 C 502 256 509 280 512 307 C 514 334 516 362 516 391 L 516 604 L 510 604 C 458 604 414 601 380 595 Z" unicode="a" />
<glyph horiz-adv-x="854" d="M 518 -8 C 456 -8 404 -2 363 9 C 322 21 290 40 268 66 L 244 -6 L 80 6 L 80 1563 L 285 1563 L 285 1075 C 305 1103 335 1123 373 1137 C 411 1150 462 1157 526 1157 C 569 1157 606 1150 636 1137 C 666 1123 692 1106 713 1085 C 735 1061 753 1031 766 997 C 779 963 789 924 795 881 C 801 838 805 791 807 739 C 808 687 809 631 809 573 C 809 513 808 457 807 405 C 805 353 801 305 794 261 C 787 217 777 178 763 144 C 749 110 729 81 705 57 C 684 36 658 20 627 9 C 596 -2 560 -8 518 -8 Z M 453 178 C 489 178 516 186 536 202 C 556 218 570 242 580 274 C 589 306 595 346 597 394 C 599 442 600 499 600 565 C 600 629 599 686 597 736 C 595 785 589 826 580 859 C 570 891 556 916 536 933 C 516 949 489 958 453 958 C 413 958 382 950 360 936 C 338 922 321 899 310 868 C 299 836 292 796 289 746 C 286 696 285 636 285 565 C 285 494 286 434 289 385 C 292 336 299 296 310 266 C 321 235 338 213 360 199 C 382 185 413 178 453 178 Z" unicode="b" />
<glyph horiz-adv-x="627" d="M 397 -8 C 345 -8 300 -1 262 12 C 224 25 192 44 164 68 C 138 91 117 120 101 154 C 85 188 74 226 66 269 C 58 312 52 359 50 411 C 48 462 47 517 47 575 C 47 629 48 681 50 729 C 52 777 57 822 64 863 C 71 904 81 941 95 974 C 109 1007 127 1036 150 1061 C 178 1091 212 1114 253 1131 C 294 1148 344 1157 403 1157 C 426 1157 447 1156 465 1155 C 483 1153 499 1151 514 1149 C 528 1147 542 1144 554 1141 C 566 1138 578 1135 590 1133 L 532 940 C 516 945 498 949 480 952 C 462 954 442 956 422 956 C 386 956 358 949 337 936 C 315 922 299 900 287 870 C 275 840 268 800 264 751 C 260 701 258 641 258 569 C 258 496 260 435 264 385 C 268 335 275 294 287 263 C 299 232 315 210 337 196 C 359 182 388 176 424 176 C 444 176 464 178 484 182 C 503 186 520 192 535 199 L 594 20 C 580 15 565 11 551 8 C 537 4 522 1 506 0 C 490 -2 474 -4 456 -6 C 438 -7 418 -8 397 -8 Z" unicode="c" />
<glyph horiz-adv-x="858" d="M 332 -10 C 288 -10 252 -3 222 10 C 192 24 166 41 145 63 C 121 87 103 116 91 151 C 78 186 68 225 62 269 C 56 313 52 360 51 412 C 49 464 49 519 49 578 C 49 637 49 693 51 745 C 52 797 56 844 63 888 C 70 931 81 970 95 1004 C 109 1038 128 1068 154 1092 C 175 1111 201 1127 231 1139 C 261 1151 298 1157 340 1157 C 396 1157 443 1151 481 1139 C 519 1127 550 1109 573 1083 L 573 1563 L 778 1563 L 778 8 L 608 -2 L 598 78 C 574 46 540 24 494 10 C 448 -3 394 -10 332 -10 Z M 406 178 C 444 178 475 185 497 199 C 519 213 536 235 547 267 C 558 298 565 339 568 389 C 571 439 573 499 573 571 C 573 641 571 701 568 751 C 565 800 558 840 547 871 C 536 901 519 923 497 937 C 475 951 444 958 406 958 C 370 958 343 950 323 934 C 303 918 288 894 278 862 C 268 830 263 789 261 741 C 259 692 258 635 258 571 C 258 505 259 448 261 399 C 263 349 268 308 278 276 C 288 243 303 218 323 202 C 343 186 370 178 406 178 Z" unicode="d" />
<glyph horiz-adv-x="770" d="M 393 -10 C 345 -10 302 -3 262 9 C 222 22 189 42 164 68 C 138 92 118 120 103 154 C 87 188 75 226 67 269 C 59 311 53 358 51 410 C 48 461 47 516 47 575 C 47 633 48 687 50 737 C 52 786 57 831 65 871 C 73 911 84 947 98 979 C 112 1011 130 1039 154 1063 C 179 1091 212 1114 254 1131 C 295 1148 346 1157 406 1157 C 459 1157 504 1150 542 1137 C 579 1123 609 1103 633 1077 C 653 1053 670 1023 683 988 C 695 952 705 910 711 861 C 717 812 720 756 721 692 C 722 628 722 555 721 473 L 247 473 C 247 439 248 408 250 382 C 253 331 261 290 273 259 C 285 228 302 206 325 192 C 348 178 380 172 420 172 C 465 172 508 176 548 186 C 588 195 624 205 657 217 L 715 41 C 688 32 662 24 638 18 C 614 12 589 6 564 2 C 539 -1 513 -5 485 -7 C 457 -9 427 -10 393 -10 Z M 539 659 C 538 718 536 767 534 807 C 531 846 525 877 516 901 C 507 924 494 940 476 950 C 458 960 433 965 403 965 C 367 965 338 957 318 943 C 297 929 281 906 271 874 C 260 842 253 802 250 752 C 248 724 247 693 246 659 L 539 659 Z" unicode="e" />
<glyph horiz-adv-x="569" d="M 23 1145 L 160 1145 L 160 1278 C 160 1327 165 1370 177 1406 C 188 1442 206 1471 231 1495 C 256 1519 289 1536 329 1548 C 369 1559 417 1565 475 1565 L 523 1565 C 536 1565 547 1564 557 1563 L 557 1376 L 487 1376 C 461 1375 441 1372 425 1367 C 409 1362 397 1354 389 1344 C 380 1334 374 1321 371 1306 C 368 1291 367 1273 367 1253 L 367 1145 L 557 1145 L 557 958 L 367 958 L 367 0 L 160 0 L 160 958 L 23 958 L 23 1145 Z" unicode="f" />
<glyph horiz-adv-x="819" d="M 397 418 C 364 418 334 420 307 425 C 306 422 305 420 305 418 C 299 403 297 389 297 375 C 297 361 298 350 301 341 C 303 331 309 324 317 318 C 325 312 337 307 353 305 C 369 302 390 301 416 301 C 493 301 556 295 606 283 C 655 271 694 253 722 229 C 750 205 770 175 781 139 C 791 103 797 62 797 14 C 797 -48 789 -100 773 -143 C 757 -185 733 -220 701 -246 C 668 -272 627 -292 577 -304 C 527 -316 467 -322 399 -322 C 327 -322 267 -317 219 -307 C 170 -297 131 -281 101 -259 C 71 -237 49 -208 36 -174 C 22 -139 16 -97 16 -47 C 16 17 28 71 52 115 C 76 159 118 190 178 209 C 140 241 121 287 121 348 C 121 384 128 417 142 448 C 148 462 155 475 164 487 C 156 493 148 500 142 508 C 89 568 63 659 63 782 C 63 844 69 898 81 946 C 93 993 113 1032 140 1064 C 167 1096 202 1120 244 1136 C 286 1152 337 1161 397 1161 C 413 1161 431 1160 451 1158 L 471 1156 L 784 1206 L 784 1036 L 669 1036 C 685 1017 697 994 707 966 C 724 918 733 856 733 782 C 733 659 706 568 652 508 C 598 448 513 418 397 418 Z M 401 -168 C 435 -168 465 -165 489 -159 C 513 -153 533 -143 549 -130 C 564 -117 575 -100 582 -80 C 588 -60 592 -35 592 -6 C 592 20 588 41 582 59 C 576 77 565 91 550 101 C 535 111 515 119 491 124 C 466 128 435 131 399 131 C 360 131 329 127 305 120 C 281 112 263 102 251 88 C 238 74 229 58 225 40 C 221 22 219 2 219 -20 C 219 -44 221 -66 226 -85 C 230 -103 239 -119 252 -131 C 265 -143 284 -153 308 -159 C 332 -165 363 -168 401 -168 Z M 399 592 C 427 592 449 596 467 604 C 484 612 497 625 507 641 C 517 657 523 677 527 701 C 530 725 532 752 532 784 C 532 815 530 843 527 867 C 523 891 517 911 507 927 C 497 943 484 956 467 964 C 449 972 427 977 399 977 C 371 977 348 972 331 964 C 313 956 300 943 290 927 C 280 911 274 891 271 867 C 267 843 266 815 266 784 C 266 752 267 725 271 701 C 274 677 280 657 290 641 C 300 625 313 612 331 604 C 348 596 371 592 399 592 Z" unicode="g" />
<glyph horiz-adv-x="856" d="M 80 1563 L 285 1563 L 285 1079 C 304 1100 332 1118 368 1134 C 404 1149 454 1157 518 1157 C 570 1157 612 1150 643 1138 C 674 1125 699 1108 719 1087 C 745 1055 762 1015 770 967 C 778 919 782 865 782 803 L 782 0 L 575 0 L 575 733 C 575 777 573 814 570 843 C 566 872 560 895 550 912 C 540 929 527 941 511 948 C 494 954 472 958 446 958 C 409 958 380 952 359 940 C 337 928 321 911 310 888 C 299 865 292 837 289 803 C 286 769 285 731 285 688 L 285 0 L 80 0 L 80 1563 Z" unicode="h" />
<glyph horiz-adv-x="379" d="M 86 1145 L 293 1145 L 293 0 L 86 0 L 86 1145 Z M 86 1513 L 293 1513 L 293 1272 L 86 1272 L 86 1513 Z" unicode="i" />
<glyph horiz-adv-x="379" d="M 14 -129 C 30 -129 43 -127 53 -124 C 62 -121 69 -116 74 -109 C 79 -102 82 -92 84 -80 C 85 -68 86 -52 86 -33 L 86 1145 L 293 1145 L 293 -49 C 293 -101 288 -145 278 -179 C 268 -213 253 -239 231 -259 C 209 -278 180 -291 145 -299 C 109 -307 66 -311 14 -311 L 14 -129 Z M 86 1513 L 293 1513 L 293 1272 L 86 1272 L 86 1513 Z" unicode="j" />
<glyph horiz-adv-x="784" d="M 80 1563 L 281 1563 L 281 631 L 539 1145 L 750 1145 L 500 661 L 772 0 L 553 0 L 366 455 L 281 286 L 281 0 L 80 0 L 80 1563 Z" unicode="k" />
<glyph horiz-adv-x="438" d="M 348 -2 C 296 -2 253 2 219 11 C 185 19 158 34 138 54 C 118 74 105 101 97 135 C 89 168 86 210 86 260 L 86 1563 L 293 1563 L 293 285 C 293 263 293 246 295 233 C 296 220 300 210 306 203 C 312 195 320 190 332 188 C 344 185 360 184 381 184 L 389 184 L 389 0 C 385 -1 379 -2 369 -2 L 348 -2 Z" unicode="l" />
<glyph horiz-adv-x="1311" d="M 80 1133 L 250 1143 L 262 1075 C 270 1086 280 1097 293 1107 C 306 1117 322 1125 342 1133 C 361 1140 384 1146 411 1150 C 438 1154 470 1157 508 1157 C 540 1157 568 1155 592 1151 C 616 1147 636 1141 653 1133 C 670 1125 684 1115 696 1103 C 707 1091 717 1078 725 1063 C 742 1091 772 1114 816 1131 C 860 1148 916 1157 985 1157 C 1037 1157 1080 1150 1112 1138 C 1144 1125 1168 1107 1186 1085 C 1212 1053 1229 1013 1236 966 C 1243 919 1247 865 1247 803 L 1247 0 L 1040 0 L 1040 733 C 1040 778 1038 815 1035 845 C 1031 874 1025 897 1016 914 C 1007 930 995 942 980 948 C 964 954 944 958 920 958 C 886 958 858 953 838 943 C 818 933 802 919 792 899 C 781 879 774 855 771 825 C 767 795 766 761 766 721 L 766 0 L 559 0 L 559 733 C 559 778 557 815 554 845 C 550 874 544 897 535 914 C 526 930 514 942 498 948 C 482 954 462 958 438 958 C 402 958 373 952 353 941 C 333 929 318 912 308 890 C 298 867 291 839 289 805 C 286 771 285 732 285 688 L 285 0 L 80 0 L 80 1133 Z" unicode="m" />
<glyph horiz-adv-x="856" d="M 80 1133 L 250 1143 L 262 1075 C 278 1098 306 1117 345 1133 C 384 1149 438 1157 506 1157 C 563 1157 608 1150 641 1138 C 673 1125 699 1108 719 1087 C 745 1055 762 1015 770 967 C 778 919 782 865 782 803 L 782 0 L 575 0 L 575 733 C 575 778 573 815 569 845 C 565 874 559 897 550 914 C 540 930 527 942 510 948 C 493 954 472 958 446 958 C 410 958 381 952 360 941 C 339 929 323 912 312 890 C 300 867 293 839 290 805 C 286 771 285 732 285 688 L 285 0 L 80 0 L 80 1133 Z" unicode="n" />
<glyph horiz-adv-x="834" d="M 418 -10 C 357 -10 306 -2 265 13 C 224 28 190 49 162 76 C 136 100 115 128 100 162 C 85 195 74 232 66 274 C 58 316 52 362 50 412 C 48 462 47 515 47 573 C 47 629 48 682 50 731 C 52 780 56 825 64 867 C 72 908 83 945 97 978 C 111 1011 131 1040 156 1065 C 184 1093 219 1115 261 1132 C 303 1148 355 1157 418 1157 C 482 1157 535 1148 577 1131 C 619 1114 654 1091 682 1063 C 705 1038 724 1009 738 976 C 752 943 762 906 769 865 C 776 824 781 779 783 730 C 785 681 786 629 786 573 C 786 516 784 463 782 413 C 780 363 775 318 767 277 C 759 235 748 198 733 165 C 718 131 698 102 674 78 C 647 51 613 30 571 14 C 529 -2 478 -10 418 -10 Z M 418 176 C 456 176 485 183 507 198 C 528 213 544 236 554 268 C 564 299 571 339 574 389 C 576 438 578 497 578 567 C 578 636 576 695 574 745 C 571 794 564 834 554 866 C 544 898 528 921 507 936 C 485 950 456 958 418 958 C 379 958 349 950 327 936 C 305 921 289 898 278 866 C 267 834 260 794 258 745 C 255 695 254 636 254 567 C 254 497 255 438 258 389 C 260 339 267 299 278 268 C 289 236 305 213 327 198 C 349 183 379 176 418 176 Z" unicode="o" />
<glyph horiz-adv-x="858" d="M 80 1133 L 250 1143 L 262 1071 C 284 1102 318 1124 364 1137 C 409 1150 463 1157 526 1157 C 569 1157 606 1150 636 1137 C 666 1123 692 1106 713 1085 C 735 1061 753 1031 766 997 C 779 963 789 924 795 881 C 801 838 805 791 807 739 C 808 687 809 631 809 573 C 809 513 808 457 807 405 C 805 353 801 305 794 261 C 787 217 777 178 763 144 C 749 110 729 81 705 57 C 684 37 658 22 627 10 C 596 -2 560 -8 518 -8 C 462 -8 415 -2 377 9 C 338 21 307 40 285 68 L 285 -311 L 80 -311 L 80 1133 Z M 453 178 C 489 178 516 186 536 202 C 556 218 570 242 580 274 C 589 306 595 346 597 394 C 599 442 600 499 600 565 C 600 629 599 686 597 736 C 595 785 589 826 580 859 C 570 891 556 916 536 933 C 516 949 489 958 453 958 C 413 958 382 950 360 936 C 338 922 321 899 310 868 C 299 836 292 796 289 746 C 286 696 285 636 285 565 C 285 494 286 434 289 385 C 292 336 299 296 310 266 C 321 235 338 213 360 199 C 382 185 413 178 453 178 Z" unicode="p" />
<glyph horiz-adv-x="856" d="M 573 76 C 551 46 521 25 482 12 C 442 -1 392 -8 332 -8 C 288 -8 252 -2 222 9 C 192 21 166 37 145 59 C 121 83 103 112 91 148 C 78 183 68 223 62 267 C 56 311 52 359 51 411 C 49 463 49 519 49 578 C 49 637 49 693 51 745 C 52 797 56 844 63 888 C 70 931 81 970 95 1004 C 109 1038 128 1068 154 1092 C 175 1111 201 1127 231 1139 C 261 1151 298 1157 340 1157 C 402 1157 454 1151 495 1139 C 536 1127 568 1107 592 1079 L 614 1147 L 778 1137 L 778 -311 L 573 -311 L 573 76 Z M 406 178 C 444 178 475 185 497 199 C 519 213 536 235 547 267 C 558 298 565 339 568 389 C 571 439 573 499 573 571 C 573 641 571 701 568 751 C 565 800 558 840 547 871 C 536 901 519 923 497 937 C 475 951 444 958 406 958 C 370 958 343 950 323 934 C 303 918 288 894 278 862 C 268 830 263 789 261 741 C 259 692 258 635 258 571 C 258 505 259 448 261 399 C 263 349 268 308 278 276 C 288 243 303 218 323 202 C 343 186 370 178 406 178 Z" unicode="q" />
<glyph horiz-adv-x="516" d="M 80 1133 L 250 1143 L 264 1051 C 280 1076 308 1097 347 1115 C 386 1133 436 1143 496 1145 L 496 942 C 459 939 427 932 401 922 C 375 912 353 895 336 873 C 319 851 307 822 299 786 C 291 750 287 706 287 653 L 287 0 L 80 0 L 80 1133 Z" unicode="r" />
<glyph horiz-adv-x="692" d="M 336 -10 C 268 -10 208 -4 156 7 C 104 18 63 32 33 49 L 111 221 C 124 213 139 206 157 200 C 175 194 193 188 213 184 C 233 179 253 175 274 172 C 295 169 316 168 336 168 C 350 168 364 169 377 173 C 390 176 402 181 412 189 C 422 197 429 206 435 218 C 441 230 444 244 444 260 C 444 275 442 289 439 302 C 436 314 429 329 419 346 C 408 363 392 384 372 408 C 351 432 323 464 287 504 C 245 548 211 587 183 619 C 155 651 132 680 116 707 C 99 734 87 760 80 786 C 73 811 70 840 70 872 C 70 912 75 950 86 985 C 97 1020 115 1050 139 1076 C 163 1102 195 1122 234 1137 C 272 1151 319 1159 375 1159 C 411 1159 449 1157 489 1153 C 529 1149 572 1140 616 1126 L 553 938 C 525 946 496 953 464 959 C 432 964 404 967 381 967 C 341 967 312 958 294 942 C 275 925 266 902 266 872 C 266 859 267 847 270 836 C 273 825 280 812 290 797 C 300 782 315 763 335 741 C 354 719 380 690 412 655 C 454 608 490 568 520 535 C 549 502 573 471 591 443 C 609 415 621 387 629 359 C 637 331 641 300 641 266 C 641 225 635 188 623 154 C 611 120 592 91 567 67 C 542 43 510 24 472 10 C 434 -3 388 -10 336 -10 Z" unicode="s" />
<glyph horiz-adv-x="602" d="M 23 1145 L 162 1145 L 190 1391 L 358 1434 L 358 1145 L 549 1145 L 549 958 L 358 958 L 358 307 C 358 286 359 268 361 254 C 363 239 368 227 376 217 C 384 207 395 200 410 196 C 424 192 444 190 469 190 L 549 190 L 549 0 C 535 -1 518 -2 498 -2 L 442 -2 C 383 -2 335 3 298 14 C 260 24 231 41 210 65 C 188 88 174 118 166 155 C 158 192 154 237 154 291 L 154 958 L 23 958 L 23 1145 Z" unicode="t" />
<glyph horiz-adv-x="844" d="M 422 -10 C 360 -10 308 -3 267 11 C 226 25 192 44 166 68 C 147 84 132 102 120 122 C 108 142 99 164 92 188 C 85 212 80 237 78 265 C 75 293 74 322 74 354 L 74 1145 L 281 1145 L 281 377 C 281 343 282 313 286 288 C 290 262 297 241 307 225 C 317 208 332 196 351 188 C 369 180 394 176 424 176 C 454 176 478 180 496 188 C 514 196 529 208 540 224 C 550 240 557 261 561 287 C 565 313 567 343 567 379 L 567 1145 L 770 1145 L 770 356 C 770 294 764 239 752 192 C 740 145 718 106 684 74 C 657 49 623 29 581 13 C 539 -2 486 -10 422 -10 Z" unicode="u" />
<glyph horiz-adv-x="764" d="M 6 1145 L 223 1145 L 346 535 L 387 311 L 428 535 L 553 1145 L 756 1145 L 500 -2 L 262 -2 L 6 1145 Z" unicode="v" />
<glyph horiz-adv-x="1141" d="M 18 1145 L 225 1145 L 315 614 L 344 424 L 377 612 L 489 1145 L 668 1145 L 780 606 L 811 424 L 838 608 L 932 1145 L 1122 1145 L 911 -2 L 711 -2 L 604 526 L 571 713 L 539 526 L 436 -2 L 231 -2 L 18 1145 Z" unicode="w" />
<glyph horiz-adv-x="760" d="M 31 1145 L 250 1145 L 396 808 L 532 1145 L 731 1145 L 494 582 L 748 0 L 528 0 L 362 381 L 209 0 L 8 0 L 264 608 L 31 1145 Z" unicode="x" />
<glyph horiz-adv-x="752" d="M 6 1145 L 215 1145 L 338 565 L 381 333 L 420 565 L 539 1145 L 743 1145 L 446 -115 C 436 -155 423 -187 408 -213 C 393 -238 375 -258 353 -273 C 331 -287 306 -297 276 -303 C 246 -309 212 -312 174 -313 L 126 -313 C 117 -313 109 -312 101 -312 C 93 -312 87 -311 84 -311 L 84 -129 L 160 -129 C 178 -128 192 -127 204 -125 C 216 -123 225 -121 233 -117 C 240 -113 246 -108 250 -102 C 254 -96 257 -88 260 -78 L 278 0 L 6 1145 Z" unicode="y" />
<glyph horiz-adv-x="659" d="M 25 141 L 385 958 L 45 958 L 45 1145 L 623 1145 L 623 1001 L 258 172 L 635 172 L 635 0 L 25 0 L 25 141 Z" unicode="z" />
<glyph horiz-adv-x="721" d="M 442 -311 C 356 -311 293 -292 251 -254 C 209 -216 188 -154 188 -66 C 188 -46 189 -23 193 4 C 196 32 200 61 205 92 C 209 123 215 155 221 188 C 227 221 232 253 237 284 C 241 314 245 343 249 369 C 252 395 254 416 254 434 C 254 456 251 474 246 488 C 241 501 232 511 220 518 C 208 525 191 530 171 532 C 150 534 124 535 92 535 L 92 717 C 123 717 149 718 170 720 C 190 722 207 726 220 733 C 232 739 241 749 246 762 C 251 774 254 791 254 813 C 254 829 252 850 249 876 C 245 902 241 930 237 960 C 232 990 227 1021 221 1054 C 215 1086 209 1118 205 1149 C 200 1180 196 1209 193 1237 C 189 1265 188 1289 188 1309 C 188 1397 208 1462 249 1502 C 289 1542 354 1563 442 1563 L 608 1563 L 608 1374 L 522 1374 C 500 1374 482 1372 467 1369 C 452 1365 440 1359 430 1350 C 420 1341 412 1329 408 1314 C 403 1299 401 1280 401 1257 C 401 1232 404 1199 410 1159 C 416 1119 423 1076 431 1030 C 438 984 445 939 451 895 C 457 850 461 811 461 778 C 461 742 454 711 442 685 C 429 658 406 639 373 627 C 405 613 428 593 441 567 C 454 541 461 511 461 477 C 461 455 459 430 456 402 C 453 374 449 344 445 314 C 441 283 436 252 431 221 C 425 189 420 159 416 130 C 412 101 408 74 405 50 C 402 25 401 4 401 -12 C 401 -58 410 -89 430 -107 C 449 -124 480 -133 522 -133 L 608 -133 L 608 -311 L 442 -311 Z" unicode="{" />
<glyph horiz-adv-x="496" d="M 141 1563 L 350 1563 L 350 -311 L 141 -311 L 141 1563 Z" unicode="|" />
<glyph horiz-adv-x="721" d="M 111 -133 L 197 -133 C 240 -133 271 -124 290 -107 C 309 -89 319 -58 319 -12 C 319 4 317 25 314 50 C 311 74 307 101 303 130 C 298 159 293 189 288 221 C 283 252 278 283 274 314 C 269 344 265 374 262 402 C 259 430 258 455 258 477 C 258 511 264 541 278 567 C 291 593 314 613 346 627 C 313 639 290 658 277 684 C 264 710 258 742 258 778 C 258 811 261 850 267 895 C 273 939 280 984 288 1030 C 296 1076 303 1119 309 1159 C 315 1199 319 1232 319 1257 C 319 1280 316 1299 312 1314 C 307 1329 300 1341 290 1350 C 280 1359 267 1365 252 1369 C 236 1372 218 1374 197 1374 L 111 1374 L 111 1563 L 279 1563 C 366 1563 430 1543 471 1503 C 511 1463 532 1398 532 1309 C 532 1289 530 1265 527 1237 C 523 1209 519 1180 514 1149 C 509 1118 504 1086 498 1054 C 492 1021 487 990 482 960 C 477 930 473 902 470 876 C 466 850 465 829 465 813 C 465 791 467 774 473 762 C 478 749 487 739 500 733 C 512 726 529 722 550 720 C 571 718 597 717 629 717 L 629 535 C 597 535 570 534 549 532 C 527 530 510 525 498 518 C 486 511 477 501 472 488 C 467 474 465 456 465 434 C 465 416 466 395 470 369 C 473 343 477 314 482 284 C 487 253 492 221 498 188 C 504 155 509 123 514 92 C 519 61 523 32 527 4 C 530 -23 532 -46 532 -66 C 532 -154 511 -216 469 -254 C 427 -292 363 -311 279 -311 L 111 -311 L 111 -133 Z" unicode="}" />
<glyph horiz-adv-x="750" d="M 74 806 C 78 840 84 871 92 899 C 100 926 111 949 125 968 C 139 987 157 1002 179 1012 C 200 1022 226 1027 256 1027 C 274 1027 293 1023 313 1017 C 332 1010 350 1003 368 995 C 386 987 402 979 417 973 C 432 966 445 963 455 963 C 473 963 486 967 494 976 C 502 985 508 1004 512 1033 L 672 1010 C 668 975 661 944 653 917 C 645 889 634 866 620 848 C 606 829 588 815 567 805 C 546 795 521 791 492 791 C 472 791 453 794 434 801 C 414 807 396 815 378 823 C 360 831 344 838 329 845 C 313 851 301 855 291 855 C 273 855 260 850 252 840 C 244 830 237 811 233 783 L 74 806 Z" unicode="~" />
<glyph horiz-adv-x="268" d="" unicode="" />
<glyph horiz-adv-x="522" d="M 166 1079 L 354 1079 L 373 0 L 145 0 L 166 1079 Z M 143 1518 L 381 1518 L 381 1243 L 143 1243 L 143 1518 Z" unicode="" />
<glyph horiz-adv-x="715" d="M 309 1317 L 483 1317 L 483 1149 C 485 1149 488 1149 490 1149 C 508 1147 524 1146 539 1144 C 553 1142 567 1139 579 1137 C 591 1134 604 1131 616 1128 L 559 940 C 542 945 524 949 506 952 C 488 954 469 956 449 956 C 413 956 385 949 363 936 C 341 922 325 900 313 870 C 301 840 294 800 290 751 C 286 701 285 641 285 569 C 285 496 286 435 290 385 C 294 335 302 294 314 263 C 326 232 342 210 364 196 C 386 182 415 176 451 176 C 471 176 491 178 510 182 C 529 186 546 192 561 199 L 618 27 C 604 21 590 17 576 13 C 562 9 547 5 532 3 C 516 1 500 0 483 -2 L 483 -197 L 309 -197 L 309 9 C 301 11 294 14 288 16 C 250 30 218 48 190 72 C 164 95 143 123 128 157 C 112 191 101 229 93 271 C 85 313 79 360 77 411 C 75 462 74 517 74 575 C 74 629 75 681 77 729 C 79 777 84 821 91 861 C 98 901 108 938 122 971 C 135 1003 153 1032 176 1057 C 204 1087 238 1110 280 1126 C 289 1130 299 1133 309 1136 L 309 1317 Z" unicode="" />
<glyph horiz-adv-x="854" d="M 41 854 L 159 854 L 127 1143 C 121 1199 121 1252 129 1300 C 137 1348 153 1389 178 1424 C 203 1458 238 1485 282 1505 C 326 1524 382 1534 449 1534 C 512 1534 568 1529 617 1519 C 666 1509 710 1497 748 1483 L 676 1300 C 646 1311 612 1320 573 1327 C 533 1333 495 1337 457 1337 C 427 1337 402 1332 384 1322 C 365 1312 351 1298 341 1281 C 331 1263 326 1243 324 1220 C 322 1196 322 1171 326 1145 L 358 854 L 590 854 L 590 692 L 376 692 L 412 373 C 419 303 419 244 411 197 L 410 190 C 447 176 486 170 528 170 C 548 170 564 172 577 177 C 589 182 599 190 606 202 C 613 213 618 228 621 246 C 623 264 625 285 625 311 L 625 397 L 807 397 L 807 299 C 807 241 802 192 793 153 C 784 113 770 82 750 59 C 730 35 703 19 671 9 C 639 -1 599 -6 553 -6 C 477 -6 405 5 339 28 C 326 32 314 37 302 43 C 283 33 262 26 238 20 C 186 7 121 1 41 2 L 41 186 C 87 184 123 188 149 197 C 174 206 192 219 203 236 C 213 252 218 272 218 296 C 218 319 216 345 213 373 L 177 692 L 41 692 L 41 854 Z" unicode="" />
<glyph horiz-adv-x="1152" d="M 1056 392 L 940 284 L 740 500 C 692 468 636 452 572 452 C 510 452 456 468 408 500 L 208 284 L 92 392 L 300 608 C 281 634 268 660 262 686 C 255 711 252 742 252 780 C 252 812 255 842 262 870 C 268 898 281 925 300 952 L 92 1168 L 208 1276 L 408 1060 C 456 1092 510 1108 572 1108 C 636 1108 692 1092 740 1060 L 944 1276 L 1060 1156 L 852 952 C 870 925 883 898 890 872 C 896 845 900 814 900 780 C 900 716 882 658 848 608 L 1056 392 Z M 748 780 C 748 833 731 876 698 910 C 664 943 622 960 572 960 C 521 960 480 943 448 910 C 416 876 400 833 400 780 C 400 726 416 684 450 652 C 483 620 524 604 572 604 C 625 604 668 620 700 652 C 732 684 748 726 748 780 Z" unicode="" />
<glyph horiz-adv-x="866" d="M 96 326 L 334 326 L 334 420 L 96 420 L 96 596 L 329 596 L 23 1520 L 240 1520 L 434 825 L 629 1520 L 844 1520 L 532 596 L 770 596 L 770 420 L 532 420 L 532 326 L 770 326 L 770 150 L 532 150 L 532 0 L 334 0 L 334 150 L 96 150 L 96 326 Z" unicode="" />
<glyph horiz-adv-x="496" d="M 141 467 L 350 467 L 350 -311 L 141 -311 L 141 467 Z M 141 1563 L 350 1563 L 350 784 L 141 784 L 141 1563 Z" unicode="" />
<glyph horiz-adv-x="782" d="M 176 0 C 161 0 147 0 133 1 C 119 1 110 2 106 2 L 106 178 L 164 178 C 189 178 210 181 226 186 C 242 191 254 199 263 209 C 271 219 277 232 280 248 C 283 263 285 281 285 303 L 285 388 C 262 391 242 396 224 403 C 182 417 150 440 128 472 C 105 503 90 543 83 592 C 75 641 72 700 72 770 C 72 840 75 899 83 949 C 90 998 105 1038 128 1070 C 150 1101 182 1124 224 1139 C 242 1145 262 1150 285 1154 L 285 1251 C 285 1300 290 1343 300 1379 C 310 1415 326 1444 350 1468 C 374 1492 405 1509 444 1521 C 483 1532 532 1538 590 1538 L 631 1538 C 644 1538 653 1537 659 1536 L 659 1360 L 600 1360 C 574 1359 554 1356 538 1351 C 522 1346 509 1339 501 1329 C 492 1319 486 1306 483 1291 C 480 1275 479 1257 479 1237 L 479 1156 C 509 1152 535 1146 558 1139 C 600 1124 632 1101 655 1070 C 677 1038 692 998 700 949 C 707 899 711 840 711 770 C 711 700 707 641 700 592 C 692 543 677 503 655 472 C 632 440 600 417 558 403 C 535 395 509 389 479 386 L 479 287 C 479 238 474 196 464 160 C 454 124 437 94 413 70 C 389 46 358 29 320 17 C 281 5 233 0 176 0 Z M 391 545 C 419 545 442 548 460 554 C 478 560 492 571 503 587 C 513 603 521 626 525 655 C 529 684 532 722 532 768 C 532 813 529 850 525 879 C 521 908 513 931 502 947 C 491 963 477 975 459 981 C 441 987 418 991 391 991 C 364 991 342 987 324 981 C 306 975 292 963 282 947 C 271 931 263 908 259 879 C 254 850 252 813 252 768 C 252 722 254 684 258 655 C 262 626 270 603 281 587 C 291 571 305 560 323 554 C 341 548 363 545 391 545 Z" unicode="" />
<glyph horiz-adv-x="750" d="M 133 1468 L 313 1468 L 313 1245 L 133 1245 L 133 1468 Z M 434 1468 L 614 1468 L 614 1245 L 434 1245 L 434 1468 Z" unicode="" />
<glyph horiz-adv-x="1028" d="M 537 256 C 493 256 455 262 423 274 C 391 286 364 302 344 324 C 324 342 309 365 297 392 C 285 419 276 450 270 486 C 264 522 259 562 257 607 C 255 652 254 702 254 758 C 254 812 254 861 256 905 C 258 949 262 988 268 1024 C 274 1060 282 1091 294 1119 C 305 1146 320 1170 340 1190 C 361 1212 388 1230 420 1242 C 452 1254 491 1260 537 1260 C 574 1260 606 1257 632 1251 C 658 1245 685 1239 711 1231 L 657 1100 C 641 1106 623 1110 603 1114 C 583 1118 563 1120 543 1120 C 511 1120 485 1113 466 1101 C 447 1089 433 1068 423 1040 C 413 1011 407 973 405 927 C 402 880 401 822 401 754 C 401 686 402 628 405 582 C 407 536 413 498 423 470 C 433 442 447 421 466 409 C 485 397 511 391 543 391 C 567 391 589 393 608 398 C 626 402 645 409 664 418 L 717 291 C 693 280 667 271 639 265 C 611 259 577 256 537 256 Z M 514 -16 C 445 -16 386 -9 336 5 C 286 19 244 40 210 69 C 176 97 148 133 128 176 C 107 219 91 269 79 327 C 67 384 60 449 56 521 C 52 593 51 672 51 760 C 51 846 52 925 56 997 C 60 1069 67 1133 79 1191 C 90 1249 106 1299 127 1342 C 148 1385 176 1421 210 1450 C 244 1478 285 1500 335 1514 C 385 1528 444 1536 514 1536 C 582 1536 642 1528 692 1514 C 742 1500 784 1478 818 1450 C 852 1421 880 1385 901 1342 C 922 1299 938 1249 950 1191 C 962 1133 969 1069 973 997 C 977 925 979 846 979 760 C 979 673 977 593 973 521 C 969 449 962 384 950 327 C 938 269 922 219 901 176 C 880 133 852 97 818 69 C 784 40 742 19 692 5 C 642 -9 582 -16 514 -16 Z M 514 70 C 598 70 665 84 715 113 C 765 141 802 184 828 242 C 853 299 869 371 876 457 C 883 543 887 644 887 760 C 887 875 883 976 876 1062 C 869 1148 853 1219 828 1277 C 802 1334 765 1377 715 1405 C 665 1433 598 1448 514 1448 C 458 1448 409 1441 369 1429 C 329 1416 295 1397 267 1372 C 239 1346 217 1315 201 1277 C 184 1239 171 1194 162 1143 C 153 1092 147 1035 145 971 C 142 907 141 836 141 760 C 141 683 142 613 145 549 C 147 485 153 427 162 376 C 171 325 184 280 201 242 C 217 204 239 172 267 146 C 295 120 329 101 369 89 C 409 76 457 70 514 70 Z" unicode="" />
<glyph horiz-adv-x="762" d="M 303 586 C 261 586 225 592 197 604 C 169 616 146 634 128 659 C 110 683 98 714 91 752 C 83 790 80 835 80 887 C 80 953 86 1008 100 1051 C 113 1093 134 1127 163 1151 C 192 1175 230 1191 276 1200 C 322 1209 378 1214 444 1214 L 463 1214 C 462 1238 461 1260 460 1279 C 458 1299 454 1316 447 1330 C 440 1344 430 1354 417 1360 C 403 1366 385 1370 362 1370 C 329 1370 296 1367 264 1361 C 231 1355 204 1347 184 1339 L 127 1491 C 152 1501 185 1510 226 1520 C 267 1529 319 1534 381 1534 C 475 1534 541 1512 578 1470 C 598 1446 611 1417 618 1381 C 625 1345 629 1299 629 1245 L 629 815 C 629 801 629 789 630 779 C 631 769 633 762 637 756 C 640 750 645 746 653 744 C 660 742 670 741 682 741 L 682 592 C 679 591 675 590 669 590 C 663 590 656 590 650 590 L 616 590 C 578 590 549 596 530 610 C 511 624 500 646 496 678 C 486 664 476 651 465 640 C 454 628 441 619 426 611 C 411 603 394 596 374 592 C 354 588 330 586 303 586 Z M 115 467 L 645 467 L 645 313 L 115 313 L 115 467 Z M 354 1077 C 326 1073 303 1065 287 1053 C 271 1041 259 1022 252 998 C 245 974 242 941 242 901 C 242 871 243 845 245 823 C 247 801 252 784 259 770 C 265 756 275 745 287 739 C 299 732 316 729 336 729 C 365 729 388 734 405 744 C 422 754 435 767 443 783 C 451 799 457 817 459 838 C 461 858 463 879 463 901 L 463 1083 L 459 1083 C 417 1083 382 1081 354 1077 Z" unicode="" />
<glyph horiz-adv-x="965" d="M 98 571 L 291 1145 L 473 1145 L 295 571 L 473 0 L 291 0 L 98 571 Z M 463 571 L 653 1145 L 838 1145 L 659 571 L 838 0 L 653 0 L 463 571 Z" unicode="" />
<glyph horiz-adv-x="1536" d="M 1116 352 L 1116 728 L 212 728 L 212 920 L 1296 920 L 1296 352 L 1116 352 Z" unicode="" />
<glyph horiz-adv-x="547" d="M 53 758 L 494 758 L 494 561 L 53 561 L 53 758 Z" unicode="" />
<glyph horiz-adv-x="1028" d="M 514 -16 C 445 -16 386 -9 336 5 C 286 19 244 40 210 69 C 176 97 148 133 128 176 C 107 219 91 269 79 327 C 67 384 60 449 56 521 C 52 593 51 672 51 760 C 51 846 52 925 56 997 C 60 1069 67 1133 79 1191 C 90 1249 106 1299 127 1342 C 148 1385 176 1421 210 1450 C 244 1478 285 1500 335 1514 C 385 1528 444 1536 514 1536 C 582 1536 642 1528 692 1514 C 742 1500 784 1478 818 1450 C 852 1421 880 1385 901 1342 C 922 1299 938 1249 950 1191 C 962 1133 969 1069 973 997 C 977 925 979 846 979 760 C 979 673 977 593 973 521 C 969 449 962 384 950 327 C 938 269 922 219 901 176 C 880 133 852 97 818 69 C 784 40 742 19 692 5 C 642 -9 582 -16 514 -16 Z M 514 70 C 598 70 665 84 715 113 C 765 141 802 184 828 242 C 853 299 869 371 876 457 C 883 543 887 644 887 760 C 887 875 883 976 876 1062 C 869 1148 853 1219 828 1277 C 802 1334 765 1377 715 1405 C 665 1433 598 1448 514 1448 C 458 1448 409 1441 369 1429 C 329 1416 295 1397 267 1372 C 239 1346 217 1315 201 1277 C 184 1239 171 1194 162 1143 C 153 1092 147 1035 145 971 C 142 907 141 836 141 760 C 141 683 142 613 145 549 C 147 485 153 427 162 376 C 171 325 184 280 201 242 C 217 204 239 172 267 146 C 295 120 329 101 369 89 C 409 76 457 70 514 70 Z M 289 1229 L 508 1229 C 558 1229 600 1224 634 1214 C 667 1204 693 1187 713 1165 C 732 1143 746 1114 754 1079 C 762 1043 766 1000 766 950 C 766 905 762 865 755 831 C 747 796 734 766 716 742 C 697 717 671 697 639 683 C 638 683 637 682 637 682 L 758 289 L 618 289 L 506 657 L 422 657 L 422 289 L 289 289 L 289 1229 Z M 502 780 C 528 780 549 782 565 787 C 581 791 594 800 604 812 C 614 824 620 840 624 862 C 627 883 629 910 629 944 C 629 978 627 1005 623 1027 C 619 1048 613 1065 604 1077 C 594 1089 581 1097 565 1101 C 548 1105 526 1108 500 1108 L 422 1108 L 422 780 L 502 780 Z" unicode="" />
<glyph horiz-adv-x="750" d="M 111 1427 L 639 1427 L 639 1245 L 111 1245 L 111 1427 Z" unicode="" />
<glyph horiz-adv-x="729" d="M 365 567 C 293 567 238 578 198 601 C 158 624 129 657 110 699 C 90 741 78 791 74 851 C 70 910 68 976 68 1049 C 68 1121 70 1187 74 1247 C 78 1307 90 1358 110 1401 C 129 1443 158 1476 198 1499 C 238 1522 293 1534 365 1534 C 435 1534 490 1522 530 1499 C 570 1476 599 1443 619 1401 C 638 1358 650 1307 655 1247 C 659 1187 662 1121 662 1049 C 662 976 659 910 655 851 C 650 791 638 741 619 699 C 599 657 570 624 530 601 C 490 578 435 567 365 567 Z M 365 719 C 395 719 418 725 435 737 C 451 749 464 767 472 793 C 480 819 484 852 486 893 C 488 933 489 982 489 1040 C 489 1097 488 1146 486 1187 C 484 1228 480 1262 472 1288 C 464 1314 451 1333 435 1345 C 418 1357 395 1364 365 1364 C 335 1364 311 1357 294 1345 C 277 1333 265 1314 257 1288 C 249 1262 244 1228 242 1187 C 240 1146 240 1097 240 1040 C 240 982 240 933 242 893 C 244 852 249 819 257 793 C 265 767 277 749 294 737 C 311 725 335 719 365 719 Z" unicode="" />
<glyph horiz-adv-x="926" d="M 358 651 L 123 651 L 123 848 L 358 848 L 358 1176 L 565 1176 L 565 848 L 803 848 L 803 651 L 565 651 L 565 324 L 358 324 L 358 651 Z M 123 219 L 803 219 L 803 23 L 123 23 L 123 219 Z" unicode="" />
<glyph horiz-adv-x="647" d="M 88 707 L 332 1165 C 339 1179 345 1192 350 1204 C 355 1216 359 1227 362 1238 C 364 1248 366 1259 367 1269 C 368 1279 369 1291 369 1305 C 369 1328 362 1346 349 1358 C 336 1370 313 1376 279 1376 C 249 1376 224 1373 203 1368 C 182 1362 162 1355 143 1346 L 80 1487 C 105 1500 137 1510 175 1517 C 213 1524 255 1528 299 1528 C 385 1528 446 1512 484 1481 C 522 1450 541 1401 541 1335 C 541 1311 540 1290 538 1271 C 536 1251 532 1233 528 1216 C 524 1198 518 1181 512 1164 C 505 1147 497 1130 487 1112 L 272 707 L 541 707 L 541 559 L 88 559 L 88 707 Z" unicode="" />
<glyph horiz-adv-x="629" d="M 281 553 C 229 553 185 556 149 564 C 113 572 86 581 66 592 L 125 731 C 139 723 159 716 184 710 C 209 703 234 700 260 700 C 281 700 298 702 312 708 C 325 713 335 722 342 734 C 349 746 354 761 356 781 C 358 800 360 824 360 852 C 360 882 358 906 356 926 C 353 945 346 960 336 971 C 326 982 310 990 290 994 C 269 998 241 1001 205 1001 L 166 1001 L 166 1149 L 205 1149 C 237 1149 262 1151 281 1155 C 300 1159 315 1167 325 1177 C 335 1187 341 1200 345 1216 C 348 1232 350 1252 350 1276 C 350 1294 349 1310 347 1322 C 345 1334 340 1344 334 1352 C 328 1360 319 1365 307 1369 C 295 1372 279 1374 260 1374 C 240 1374 219 1371 196 1367 C 173 1363 153 1357 137 1350 L 76 1491 C 92 1499 118 1506 153 1513 C 188 1520 233 1524 287 1524 C 333 1524 371 1519 401 1511 C 431 1502 454 1489 471 1471 C 488 1453 500 1430 506 1402 C 512 1374 516 1341 516 1303 C 516 1275 515 1250 513 1228 C 511 1206 508 1186 503 1169 C 497 1151 490 1136 480 1124 C 470 1112 458 1102 442 1094 C 462 1086 479 1075 491 1061 C 503 1047 511 1030 517 1010 C 523 989 526 965 528 937 C 529 909 530 876 530 838 C 530 789 526 747 518 711 C 510 675 497 646 479 622 C 460 598 434 581 402 570 C 370 558 329 553 281 553 Z" unicode="" />
<glyph horiz-adv-x="750" d="M 414 1561 L 653 1561 L 436 1245 L 252 1245 L 414 1561 Z" unicode="" />
<glyph horiz-adv-x="848" d="M 80 1145 L 285 1145 L 285 377 C 285 343 286 313 290 288 C 294 262 301 241 312 225 C 322 208 337 196 356 188 C 375 180 400 176 430 176 C 460 176 484 180 502 188 C 520 196 535 208 545 224 C 555 240 561 261 565 287 C 569 313 571 343 571 379 L 571 1145 L 774 1145 L 774 356 C 774 294 768 240 757 192 C 745 144 722 105 688 74 C 662 49 630 29 592 13 C 554 -2 504 -10 444 -10 C 411 -10 380 -5 352 2 C 323 10 301 24 285 43 L 285 -311 L 80 -311 L 80 1145 Z" unicode="" />
<glyph horiz-adv-x="868" d="M 567 569 L 465 569 L 465 0 L 268 0 L 268 595 C 216 612 174 639 144 676 C 113 713 92 762 80 822 C 68 882 63 954 63 1040 C 63 1126 68 1199 80 1260 C 92 1320 113 1370 144 1408 C 175 1446 218 1473 272 1491 C 326 1509 395 1518 479 1518 L 760 1518 L 760 0 L 567 0 L 567 569 Z M 567 750 L 567 1327 L 473 1327 C 430 1327 395 1322 368 1314 C 340 1306 319 1291 303 1270 C 287 1248 275 1219 269 1182 C 263 1144 260 1096 260 1038 C 260 980 263 933 269 896 C 275 859 287 830 303 808 C 319 786 340 771 368 763 C 395 754 430 750 473 750 L 567 750 Z" unicode="" />
<glyph horiz-adv-x="391" d="M 78 852 L 313 852 L 313 569 L 78 569 L 78 852 Z" unicode="" />
<glyph horiz-adv-x="750" d="M 391 -444 C 373 -444 356 -443 341 -442 C 325 -441 311 -439 297 -437 C 283 -434 269 -431 255 -427 C 241 -423 226 -418 211 -412 L 254 -297 C 277 -305 297 -311 314 -315 C 331 -319 349 -322 369 -322 C 386 -322 400 -320 411 -318 C 422 -315 431 -310 437 -304 C 443 -297 447 -288 449 -278 C 451 -268 453 -255 453 -240 C 453 -223 451 -210 448 -200 C 444 -190 438 -182 430 -177 C 422 -171 411 -168 397 -167 C 383 -166 365 -166 344 -168 L 305 -135 L 334 37 L 455 37 L 432 -96 C 455 -95 476 -97 496 -101 C 515 -105 531 -112 545 -124 C 559 -135 569 -151 577 -172 C 584 -192 588 -219 588 -252 C 588 -289 584 -320 576 -345 C 568 -369 557 -389 541 -404 C 525 -418 504 -429 479 -435 C 454 -441 425 -444 391 -444 Z" unicode="" />
<glyph horiz-adv-x="514" d="M 188 1362 L 82 1362 L 82 1518 L 369 1518 L 369 559 L 188 559 L 188 1362 Z" unicode="" />
<glyph horiz-adv-x="766" d="M 383 584 C 335 584 293 590 259 603 C 225 615 196 632 174 653 C 153 672 137 695 125 722 C 113 749 104 780 98 814 C 92 848 88 885 86 926 C 84 967 84 1011 84 1059 C 84 1104 84 1147 86 1187 C 88 1227 92 1263 98 1297 C 104 1331 112 1361 124 1388 C 135 1415 150 1438 170 1458 C 192 1480 221 1499 255 1513 C 289 1527 331 1534 383 1534 C 435 1534 478 1526 512 1512 C 546 1498 575 1479 598 1456 C 617 1436 632 1412 644 1385 C 655 1358 664 1328 670 1295 C 676 1261 679 1225 681 1185 C 683 1145 684 1103 684 1059 C 684 1012 683 968 681 928 C 679 888 674 851 668 817 C 662 783 653 752 641 725 C 629 698 612 675 592 655 C 570 633 543 616 509 603 C 475 590 433 584 383 584 Z M 383 737 C 413 737 437 743 455 755 C 472 767 485 785 493 811 C 501 836 507 869 509 909 C 511 949 512 997 512 1053 C 512 1109 511 1157 509 1197 C 507 1237 501 1269 493 1295 C 485 1321 472 1340 455 1352 C 437 1364 413 1370 383 1370 C 352 1370 328 1364 310 1352 C 292 1340 279 1321 271 1295 C 262 1269 257 1237 255 1197 C 253 1157 252 1109 252 1053 C 252 997 253 949 255 909 C 257 869 262 836 271 811 C 279 785 292 767 310 755 C 328 743 352 737 383 737 Z M 113 467 L 651 467 L 651 313 L 113 313 L 113 467 Z" unicode="" />
<glyph horiz-adv-x="965" d="M 309 571 L 129 1145 L 313 1145 L 504 571 L 313 0 L 129 0 L 309 571 Z M 672 571 L 492 1145 L 676 1145 L 866 571 L 676 0 L 492 0 L 672 571 Z" unicode="" />
<glyph horiz-adv-x="1264" d="M 762 1518 L 938 1518 L 430 0 L 256 0 L 762 1518 Z M 672 322 L 918 958 L 1087 958 L 846 330 L 963 330 L 999 551 L 1122 551 L 1122 330 L 1212 330 L 1212 180 L 1122 180 L 1122 0 L 961 0 L 961 180 L 672 180 L 672 322 Z M 164 1362 L 57 1362 L 57 1518 L 344 1518 L 344 559 L 164 559 L 164 1362 Z" unicode="" />
<glyph horiz-adv-x="1350" d="M 762 1518 L 938 1518 L 430 0 L 256 0 L 762 1518 Z M 164 1362 L 57 1362 L 57 1518 L 344 1518 L 344 559 L 164 559 L 164 1362 Z M 803 147 L 1047 606 C 1054 620 1060 633 1065 645 C 1069 657 1073 668 1076 679 C 1078 689 1080 700 1081 710 C 1082 720 1083 732 1083 745 C 1083 769 1076 787 1063 799 C 1050 811 1027 817 993 817 C 964 817 939 814 918 808 C 897 802 877 795 858 786 L 795 928 C 820 941 852 951 890 958 C 928 965 970 969 1014 969 C 1100 969 1161 953 1199 922 C 1236 891 1255 842 1255 776 C 1255 752 1254 731 1252 712 C 1250 692 1247 674 1243 657 C 1239 639 1233 622 1227 605 C 1220 588 1212 571 1202 553 L 987 147 L 1255 147 L 1255 0 L 803 0 L 803 147 Z" unicode="" />
<glyph horiz-adv-x="1376" d="M 874 1518 L 1051 1518 L 545 0 L 369 0 L 874 1518 Z M 270 553 C 220 553 176 556 140 564 C 104 572 75 581 55 592 L 115 731 C 121 727 130 724 140 720 C 150 716 162 713 174 710 C 186 707 198 705 211 703 C 224 701 237 700 250 700 C 271 700 288 702 302 708 C 315 713 325 722 332 734 C 339 746 344 761 346 781 C 348 800 350 824 350 852 C 350 882 348 906 346 926 C 343 945 337 960 327 971 C 317 982 301 990 281 994 C 261 998 233 1001 197 1001 L 156 1001 L 156 1149 L 197 1149 C 228 1149 253 1151 272 1155 C 290 1159 305 1167 315 1177 C 325 1187 331 1200 335 1216 C 338 1232 340 1252 340 1276 C 340 1294 339 1310 337 1322 C 335 1334 330 1344 324 1352 C 318 1360 309 1365 297 1369 C 285 1372 269 1374 250 1374 C 230 1374 209 1371 186 1367 C 163 1363 143 1357 127 1350 L 66 1491 C 82 1499 107 1506 143 1513 C 178 1520 222 1524 276 1524 C 322 1524 361 1519 391 1511 C 421 1502 444 1489 461 1471 C 478 1453 490 1430 496 1402 C 502 1374 506 1341 506 1303 C 506 1275 505 1250 503 1228 C 501 1206 498 1186 493 1169 C 487 1151 480 1136 470 1124 C 460 1112 448 1102 432 1094 C 452 1086 469 1075 481 1061 C 493 1047 501 1030 507 1010 C 513 989 516 965 518 937 C 519 909 520 876 520 838 C 520 789 516 747 508 711 C 500 675 487 646 468 622 C 449 598 424 581 392 570 C 360 558 319 553 270 553 Z M 782 322 L 1028 958 L 1198 958 L 954 330 L 1072 330 L 1110 551 L 1233 551 L 1233 330 L 1321 330 L 1321 180 L 1233 180 L 1233 0 L 1069 0 L 1069 180 L 782 180 L 782 322 Z" unicode="" />
<glyph horiz-adv-x="842" d="M 434 -16 C 370 -16 317 -7 275 9 C 233 26 199 49 173 78 C 147 106 129 139 118 175 C 107 211 102 249 102 289 C 102 311 103 334 107 358 C 111 381 116 403 122 425 C 128 447 136 467 144 487 C 152 507 162 525 172 541 L 291 748 C 303 770 313 791 321 812 C 328 832 334 855 338 881 C 342 906 344 935 345 968 C 346 1000 347 1040 348 1087 L 549 1087 C 548 1035 547 990 546 952 C 544 914 541 879 536 849 C 531 818 524 790 514 764 C 504 738 491 712 475 684 L 350 469 C 338 448 328 425 321 399 C 314 373 311 346 311 319 C 311 301 313 283 318 266 C 323 249 331 234 343 221 C 354 208 369 198 389 190 C 408 182 432 178 461 178 C 479 178 497 179 517 182 C 537 184 556 188 576 192 C 595 196 614 202 632 208 C 650 214 666 220 680 227 L 760 47 C 737 37 714 29 691 21 C 667 13 642 7 616 1 C 590 -4 562 -8 532 -11 C 502 -14 469 -16 434 -16 Z M 332 1518 L 567 1518 L 567 1266 L 332 1266 L 332 1518 Z" unicode="" />
<glyph horiz-adv-x="944" d="M 350 1522 L 592 1522 L 924 0 L 705 0 L 647 287 L 287 287 L 229 0 L 20 0 L 350 1522 Z M 602 481 L 504 973 L 467 1178 L 430 973 L 332 481 L 602 481 Z M 192 1903 L 432 1903 L 594 1587 L 407 1587 L 192 1903 Z" unicode="" />
<glyph horiz-adv-x="944" d="M 350 1522 L 592 1522 L 924 0 L 705 0 L 647 287 L 287 287 L 229 0 L 20 0 L 350 1522 Z M 602 481 L 504 973 L 467 1178 L 430 973 L 332 481 L 602 481 Z M 510 1903 L 749 1903 L 532 1587 L 348 1587 L 510 1903 Z" unicode="" />
<glyph horiz-adv-x="944" d="M 350 1522 L 592 1522 L 924 0 L 705 0 L 647 287 L 287 287 L 229 0 L 20 0 L 350 1522 Z M 602 481 L 504 973 L 467 1178 L 430 973 L 332 481 L 602 481 Z M 366 1903 L 573 1903 L 768 1587 L 585 1587 L 469 1761 L 352 1587 L 172 1587 L 366 1903 Z" unicode="" />
<glyph horiz-adv-x="944" d="M 350 1522 L 592 1522 L 924 0 L 705 0 L 647 287 L 287 287 L 229 0 L 20 0 L 350 1522 Z M 602 481 L 504 973 L 467 1178 L 430 973 L 332 481 L 602 481 Z M 170 1602 C 174 1636 180 1667 188 1695 C 196 1722 207 1745 221 1764 C 235 1783 253 1798 275 1808 C 296 1818 322 1823 352 1823 C 370 1823 389 1819 409 1813 C 428 1806 446 1799 464 1791 C 482 1783 498 1775 513 1769 C 528 1762 541 1759 551 1759 C 569 1759 582 1763 590 1772 C 598 1781 604 1800 608 1829 L 768 1806 C 764 1771 757 1740 749 1713 C 741 1685 730 1662 716 1644 C 702 1625 684 1611 663 1601 C 642 1591 617 1587 588 1587 C 568 1587 549 1590 530 1597 C 510 1603 492 1611 474 1619 C 456 1627 440 1634 425 1641 C 409 1647 397 1651 387 1651 C 369 1651 356 1646 348 1636 C 340 1626 333 1607 329 1579 L 170 1602 Z" unicode="" />
<glyph horiz-adv-x="944" d="M 350 1522 L 592 1522 L 924 0 L 705 0 L 647 287 L 287 287 L 229 0 L 20 0 L 350 1522 Z M 602 481 L 504 973 L 467 1178 L 430 973 L 332 481 L 602 481 Z M 229 1810 L 409 1810 L 409 1587 L 229 1587 L 229 1810 Z M 530 1810 L 710 1810 L 710 1587 L 530 1587 L 530 1810 Z" unicode="" />
<glyph horiz-adv-x="944" d="M 338 1462 C 316 1481 302 1507 296 1540 C 290 1572 287 1609 287 1649 C 287 1682 289 1713 293 1741 C 297 1769 305 1794 318 1814 C 331 1834 350 1850 374 1862 C 398 1874 429 1880 469 1880 C 508 1880 540 1874 564 1862 C 588 1850 607 1834 621 1814 C 634 1794 643 1769 648 1741 C 652 1713 655 1682 655 1649 C 655 1609 651 1573 645 1541 C 638 1509 624 1483 604 1464 L 924 0 L 705 0 L 647 287 L 287 287 L 229 0 L 20 0 L 338 1462 Z M 602 481 L 504 973 L 467 1178 L 430 973 L 332 481 L 602 481 Z M 469 1524 C 486 1524 500 1526 510 1532 C 520 1538 528 1546 534 1557 C 539 1567 542 1580 544 1596 C 546 1612 547 1629 547 1649 C 547 1669 546 1686 544 1702 C 542 1718 539 1731 534 1742 C 528 1753 520 1761 510 1767 C 500 1773 486 1776 469 1776 C 452 1776 439 1773 429 1767 C 419 1761 411 1753 406 1742 C 400 1731 397 1718 395 1702 C 393 1686 393 1669 393 1649 C 393 1629 393 1612 395 1596 C 397 1580 400 1567 406 1557 C 411 1546 419 1538 429 1532 C 439 1526 452 1524 469 1524 Z" unicode="" />
<glyph horiz-adv-x="1315" d="M 481 1518 L 1272 1518 L 1272 1319 L 819 1319 L 819 872 L 1247 872 L 1247 676 L 819 676 L 819 195 L 1274 195 L 1274 0 L 614 0 L 614 348 L 317 348 L 211 0 L 0 0 L 481 1518 Z M 614 530 L 614 1315 L 373 530 L 614 530 Z" unicode="" />
<glyph horiz-adv-x="786" d="M 494 -10 C 423 -10 363 -1 314 17 C 265 35 224 60 190 92 C 160 121 137 156 119 198 C 101 240 88 288 79 343 C 69 398 63 460 60 529 C 56 598 55 675 55 760 C 55 842 56 917 59 985 C 61 1053 67 1114 77 1169 C 86 1223 99 1271 116 1313 C 133 1355 156 1391 186 1421 C 218 1456 259 1483 309 1503 C 359 1522 420 1532 492 1532 C 520 1532 547 1531 571 1529 C 595 1527 617 1525 638 1521 C 659 1517 679 1513 698 1508 C 717 1502 736 1496 756 1489 L 680 1294 C 655 1303 627 1310 597 1316 C 567 1322 536 1325 504 1325 C 453 1325 412 1316 382 1298 C 351 1280 327 1249 311 1206 C 294 1162 283 1104 278 1031 C 272 958 270 866 270 756 C 270 646 272 554 278 482 C 283 409 294 351 311 308 C 327 264 351 234 382 216 C 412 198 453 190 504 190 C 542 190 575 193 603 200 C 631 207 659 217 688 229 L 764 41 C 745 33 726 26 707 20 C 688 14 668 8 646 4 C 624 0 601 -4 576 -6 C 551 -8 524 -10 494 -10 Z M 411 -444 C 393 -444 376 -443 361 -442 C 345 -441 331 -439 317 -437 C 303 -434 289 -431 275 -427 C 261 -423 246 -418 231 -412 L 274 -297 C 297 -305 317 -311 334 -315 C 351 -319 369 -322 389 -322 C 406 -322 420 -320 431 -318 C 442 -315 451 -310 457 -304 C 463 -297 467 -288 469 -278 C 471 -268 473 -255 473 -240 C 473 -223 471 -210 468 -200 C 464 -190 458 -182 450 -177 C 442 -171 431 -168 417 -167 C 403 -166 385 -166 364 -168 L 325 -135 L 354 37 L 475 37 L 452 -96 C 475 -95 496 -97 516 -101 C 535 -105 551 -112 565 -124 C 579 -135 589 -151 597 -172 C 604 -192 608 -219 608 -252 C 608 -289 604 -320 596 -345 C 588 -369 577 -389 561 -404 C 545 -418 524 -429 499 -435 C 474 -441 445 -444 411 -444 Z" unicode="" />
<glyph horiz-adv-x="825" d="M 94 1518 L 764 1518 L 764 1319 L 307 1319 L 307 874 L 743 874 L 743 676 L 307 676 L 307 195 L 764 195 L 764 0 L 94 0 L 94 1518 Z M 135 1903 L 375 1903 L 537 1587 L 350 1587 L 135 1903 Z" unicode="" />
<glyph horiz-adv-x="825" d="M 453 1903 L 692 1903 L 475 1587 L 291 1587 L 453 1903 Z M 94 1518 L 764 1518 L 764 1319 L 307 1319 L 307 874 L 743 874 L 743 676 L 307 676 L 307 195 L 764 195 L 764 0 L 94 0 L 94 1518 Z" unicode="" />
<glyph horiz-adv-x="825" d="M 309 1903 L 516 1903 L 711 1587 L 528 1587 L 412 1761 L 295 1587 L 115 1587 L 309 1903 Z M 94 1518 L 764 1518 L 764 1319 L 307 1319 L 307 874 L 743 874 L 743 676 L 307 676 L 307 195 L 764 195 L 764 0 L 94 0 L 94 1518 Z" unicode="" />
<glyph horiz-adv-x="825" d="M 172 1810 L 352 1810 L 352 1587 L 172 1587 L 172 1810 Z M 473 1810 L 653 1810 L 653 1587 L 473 1587 L 473 1810 Z M 94 1518 L 764 1518 L 764 1319 L 307 1319 L 307 874 L 743 874 L 743 676 L 307 676 L 307 195 L 764 195 L 764 0 L 94 0 L 94 1518 Z" unicode="" />
<glyph horiz-adv-x="426" d="M -66 1905 L 176 1905 L 307 1589 L 123 1589 L -66 1905 Z M 106 1518 L 319 1518 L 319 0 L 106 0 L 106 1518 Z" unicode="" />
<glyph horiz-adv-x="426" d="M 252 1905 L 492 1905 L 303 1589 L 119 1589 L 252 1905 Z M 106 1518 L 319 1518 L 319 0 L 106 0 L 106 1518 Z" unicode="" />
<glyph horiz-adv-x="426" d="M 109 1905 L 317 1905 L 498 1589 L 313 1589 L 211 1765 L 111 1589 L -70 1589 L 109 1905 Z M 106 1518 L 319 1518 L 319 0 L 106 0 L 106 1518 Z" unicode="" />
<glyph horiz-adv-x="426" d="M 106 1518 L 319 1518 L 319 0 L 106 0 L 106 1518 Z M -26 1810 L 154 1810 L 154 1587 L -26 1587 L -26 1810 Z M 275 1810 L 455 1810 L 455 1587 L 275 1587 L 275 1810 Z" unicode="" />
<glyph horiz-adv-x="963" d="M 4 860 L 94 860 L 94 1518 L 442 1518 C 524 1518 594 1508 651 1489 C 707 1470 753 1442 788 1405 C 816 1375 838 1340 854 1299 C 870 1258 882 1211 890 1157 C 898 1103 903 1044 905 978 C 907 912 909 839 909 760 C 909 676 907 599 905 531 C 903 462 897 400 889 346 C 880 292 867 244 849 203 C 831 162 808 128 778 100 C 743 66 698 40 642 24 C 586 8 518 0 438 0 L 94 0 L 94 680 L 4 680 L 4 860 Z M 444 186 C 502 186 548 194 581 212 C 614 229 639 259 655 303 C 671 346 682 404 686 478 C 690 552 692 645 692 758 C 692 831 691 896 689 953 C 687 1009 684 1059 679 1101 C 673 1143 665 1178 654 1206 C 643 1234 628 1257 610 1275 C 591 1292 568 1304 540 1312 C 512 1319 479 1323 440 1323 L 307 1323 L 307 860 L 489 860 L 489 680 L 307 680 L 307 186 L 444 186 Z" unicode="" />
<glyph horiz-adv-x="979" d="M 94 1518 L 315 1518 L 614 727 L 688 530 L 688 1518 L 885 1518 L 885 0 L 692 0 L 360 860 L 293 1040 L 293 0 L 94 0 L 94 1518 Z M 189 1602 C 193 1636 199 1667 207 1695 C 215 1722 226 1745 240 1764 C 254 1783 272 1798 294 1808 C 315 1818 341 1823 371 1823 C 389 1823 408 1819 428 1813 C 447 1806 465 1799 483 1791 C 501 1783 517 1775 532 1769 C 547 1762 560 1759 570 1759 C 588 1759 601 1763 609 1772 C 617 1781 623 1800 627 1829 L 787 1806 C 783 1771 776 1740 768 1713 C 760 1685 749 1662 735 1644 C 721 1625 703 1611 682 1601 C 661 1591 636 1587 607 1587 C 587 1587 568 1590 549 1597 C 529 1603 511 1611 493 1619 C 475 1627 459 1634 444 1641 C 428 1647 416 1651 406 1651 C 388 1651 375 1646 367 1636 C 359 1626 352 1607 348 1579 L 189 1602 Z" unicode="" />
<glyph horiz-adv-x="997" d="M 498 -10 C 427 -10 367 -1 318 17 C 268 35 227 60 193 92 C 160 123 134 160 116 204 C 98 248 84 297 75 353 C 66 409 60 471 58 539 C 56 607 55 680 55 760 C 55 838 56 910 58 976 C 60 1042 65 1103 74 1158 C 82 1213 95 1262 112 1306 C 128 1349 152 1387 182 1419 C 215 1454 257 1482 309 1503 C 360 1523 423 1534 498 1534 C 572 1534 634 1523 686 1503 C 738 1482 780 1455 813 1421 C 843 1389 866 1351 883 1307 C 900 1263 913 1214 922 1159 C 930 1104 936 1043 938 977 C 940 910 942 838 942 760 C 942 680 940 606 938 538 C 936 470 930 408 921 352 C 911 296 898 246 880 203 C 862 159 837 122 805 92 C 771 60 728 35 678 17 C 628 -1 568 -10 498 -10 Z M 498 186 C 550 186 591 195 621 215 C 651 235 673 267 689 312 C 704 357 714 416 718 489 C 722 561 725 650 725 756 C 725 861 722 950 718 1023 C 714 1096 704 1155 689 1201 C 673 1246 651 1279 621 1299 C 591 1319 550 1329 498 1329 C 446 1329 405 1319 375 1299 C 345 1279 322 1246 306 1201 C 290 1155 280 1096 276 1023 C 272 950 270 861 270 756 C 270 650 272 561 276 489 C 280 416 290 357 306 312 C 322 267 345 235 375 215 C 405 195 446 186 498 186 Z M 217 1903 L 457 1903 L 619 1587 L 432 1587 L 217 1903 Z" unicode="" />
<glyph horiz-adv-x="997" d="M 535 1903 L 774 1903 L 557 1587 L 373 1587 L 535 1903 Z M 498 -10 C 427 -10 367 -1 318 17 C 268 35 227 60 193 92 C 160 123 134 160 116 204 C 98 248 84 297 75 353 C 66 409 60 471 58 539 C 56 607 55 680 55 760 C 55 838 56 910 58 976 C 60 1042 65 1103 74 1158 C 82 1213 95 1262 112 1306 C 128 1349 152 1387 182 1419 C 215 1454 257 1482 309 1503 C 360 1523 423 1534 498 1534 C 572 1534 634 1523 686 1503 C 738 1482 780 1455 813 1421 C 843 1389 866 1351 883 1307 C 900 1263 913 1214 922 1159 C 930 1104 936 1043 938 977 C 940 910 942 838 942 760 C 942 680 940 606 938 538 C 936 470 930 408 921 352 C 911 296 898 246 880 203 C 862 159 837 122 805 92 C 771 60 728 35 678 17 C 628 -1 568 -10 498 -10 Z M 498 186 C 550 186 591 195 621 215 C 651 235 673 267 689 312 C 704 357 714 416 718 489 C 722 561 725 650 725 756 C 725 861 722 950 718 1023 C 714 1096 704 1155 689 1201 C 673 1246 651 1279 621 1299 C 591 1319 550 1329 498 1329 C 446 1329 405 1319 375 1299 C 345 1279 322 1246 306 1201 C 290 1155 280 1096 276 1023 C 272 950 270 861 270 756 C 270 650 272 561 276 489 C 280 416 290 357 306 312 C 322 267 345 235 375 215 C 405 195 446 186 498 186 Z" unicode="" />
<glyph horiz-adv-x="997" d="M 391 1903 L 598 1903 L 793 1587 L 610 1587 L 494 1761 L 377 1587 L 197 1587 L 391 1903 Z M 498 -10 C 427 -10 367 -1 318 17 C 268 35 227 60 193 92 C 160 123 134 160 116 204 C 98 248 84 297 75 353 C 66 409 60 471 58 539 C 56 607 55 680 55 760 C 55 838 56 910 58 976 C 60 1042 65 1103 74 1158 C 82 1213 95 1262 112 1306 C 128 1349 152 1387 182 1419 C 215 1454 257 1482 309 1503 C 360 1523 423 1534 498 1534 C 572 1534 634 1523 686 1503 C 738 1482 780 1455 813 1421 C 843 1389 866 1351 883 1307 C 900 1263 913 1214 922 1159 C 930 1104 936 1043 938 977 C 940 910 942 838 942 760 C 942 680 940 606 938 538 C 936 470 930 408 921 352 C 911 296 898 246 880 203 C 862 159 837 122 805 92 C 771 60 728 35 678 17 C 628 -1 568 -10 498 -10 Z M 498 186 C 550 186 591 195 621 215 C 651 235 673 267 689 312 C 704 357 714 416 718 489 C 722 561 725 650 725 756 C 725 861 722 950 718 1023 C 714 1096 704 1155 689 1201 C 673 1246 651 1279 621 1299 C 591 1319 550 1329 498 1329 C 446 1329 405 1319 375 1299 C 345 1279 322 1246 306 1201 C 290 1155 280 1096 276 1023 C 272 950 270 861 270 756 C 270 650 272 561 276 489 C 280 416 290 357 306 312 C 322 267 345 235 375 215 C 405 195 446 186 498 186 Z" unicode="" />
<glyph horiz-adv-x="997" d="M 498 -10 C 427 -10 367 -1 318 17 C 268 35 227 60 193 92 C 160 123 134 160 116 204 C 98 248 84 297 75 353 C 66 409 60 471 58 539 C 56 607 55 680 55 760 C 55 838 56 910 58 976 C 60 1042 65 1103 74 1158 C 82 1213 95 1262 112 1306 C 128 1349 152 1387 182 1419 C 215 1454 257 1482 309 1503 C 360 1523 423 1534 498 1534 C 572 1534 634 1523 686 1503 C 738 1482 780 1455 813 1421 C 843 1389 866 1351 883 1307 C 900 1263 913 1214 922 1159 C 930 1104 936 1043 938 977 C 940 910 942 838 942 760 C 942 680 940 606 938 538 C 936 470 930 408 921 352 C 911 296 898 246 880 203 C 862 159 837 122 805 92 C 771 60 728 35 678 17 C 628 -1 568 -10 498 -10 Z M 498 186 C 550 186 591 195 621 215 C 651 235 673 267 689 312 C 704 357 714 416 718 489 C 722 561 725 650 725 756 C 725 861 722 950 718 1023 C 714 1096 704 1155 689 1201 C 673 1246 651 1279 621 1299 C 591 1319 550 1329 498 1329 C 446 1329 405 1319 375 1299 C 345 1279 322 1246 306 1201 C 290 1155 280 1096 276 1023 C 272 950 270 861 270 756 C 270 650 272 561 276 489 C 280 416 290 357 306 312 C 322 267 345 235 375 215 C 405 195 446 186 498 186 Z M 195 1602 C 199 1636 205 1667 213 1695 C 221 1722 232 1745 246 1764 C 260 1783 278 1798 300 1808 C 321 1818 347 1823 377 1823 C 395 1823 414 1819 434 1813 C 453 1806 471 1799 489 1791 C 507 1783 523 1775 538 1769 C 553 1762 566 1759 576 1759 C 594 1759 607 1763 615 1772 C 623 1781 629 1800 633 1829 L 793 1806 C 789 1771 782 1740 774 1713 C 766 1685 755 1662 741 1644 C 727 1625 709 1611 688 1601 C 667 1591 642 1587 613 1587 C 593 1587 574 1590 555 1597 C 535 1603 517 1611 499 1619 C 481 1627 465 1634 450 1641 C 434 1647 422 1651 412 1651 C 394 1651 381 1646 373 1636 C 365 1626 358 1607 354 1579 L 195 1602 Z" unicode="" />
<glyph horiz-adv-x="997" d="M 254 1810 L 434 1810 L 434 1587 L 254 1587 L 254 1810 Z M 555 1810 L 735 1810 L 735 1587 L 555 1587 L 555 1810 Z M 498 -10 C 427 -10 367 -1 318 17 C 268 35 227 60 193 92 C 160 123 134 160 116 204 C 98 248 84 297 75 353 C 66 409 60 471 58 539 C 56 607 55 680 55 760 C 55 838 56 910 58 976 C 60 1042 65 1103 74 1158 C 82 1213 95 1262 112 1306 C 128 1349 152 1387 182 1419 C 215 1454 257 1482 309 1503 C 360 1523 423 1534 498 1534 C 572 1534 634 1523 686 1503 C 738 1482 780 1455 813 1421 C 843 1389 866 1351 883 1307 C 900 1263 913 1214 922 1159 C 930 1104 936 1043 938 977 C 940 910 942 838 942 760 C 942 680 940 606 938 538 C 936 470 930 408 921 352 C 911 296 898 246 880 203 C 862 159 837 122 805 92 C 771 60 728 35 678 17 C 628 -1 568 -10 498 -10 Z M 498 186 C 550 186 591 195 621 215 C 651 235 673 267 689 312 C 704 357 714 416 718 489 C 722 561 725 650 725 756 C 725 861 722 950 718 1023 C 714 1096 704 1155 689 1201 C 673 1246 651 1279 621 1299 C 591 1319 550 1329 498 1329 C 446 1329 405 1319 375 1299 C 345 1279 322 1246 306 1201 C 290 1155 280 1096 276 1023 C 272 950 270 861 270 756 C 270 650 272 561 276 489 C 280 416 290 357 306 312 C 322 267 345 235 375 215 C 405 195 446 186 498 186 Z" unicode="" />
<glyph horiz-adv-x="926" d="M 172 575 L 348 751 L 174 926 L 285 1040 L 461 864 L 637 1040 L 752 926 L 575 749 L 752 573 L 639 461 L 463 637 L 287 461 L 172 575 Z" unicode="" />
<glyph horiz-adv-x="997" d="M 498 -10 C 466 -10 436 -8 408 -4 L 389 -84 L 205 -84 L 239 56 C 222 66 207 78 193 92 C 160 123 134 160 116 204 C 98 248 84 297 75 353 C 66 409 60 471 58 539 C 56 607 55 680 55 760 C 55 838 56 910 58 976 C 60 1042 65 1103 74 1158 C 82 1213 95 1262 112 1306 C 128 1349 152 1387 182 1419 C 215 1454 257 1482 309 1503 C 360 1523 423 1534 498 1534 C 529 1534 559 1532 587 1528 L 606 1604 L 791 1604 L 758 1466 C 778 1452 797 1437 813 1421 C 843 1389 866 1351 883 1307 C 900 1263 913 1214 922 1159 C 930 1104 936 1043 938 977 C 940 910 942 838 942 760 C 942 680 940 606 938 538 C 936 470 930 408 921 352 C 911 296 898 246 880 203 C 862 159 837 122 805 92 C 771 60 728 35 678 17 C 628 -1 568 -10 498 -10 Z M 498 174 C 550 174 592 184 623 204 C 654 224 678 257 694 303 C 710 349 721 409 726 483 C 730 557 733 648 733 756 C 733 864 730 956 726 1031 C 721 1105 710 1165 694 1211 C 692 1215 691 1220 689 1224 L 439 178 C 457 175 476 174 498 174 Z M 498 1339 C 445 1339 403 1328 372 1308 C 341 1288 318 1255 302 1209 C 286 1163 275 1103 271 1029 C 266 955 264 864 264 756 C 264 646 266 554 271 480 C 275 406 286 346 302 301 L 305 293 L 553 1335 C 536 1337 518 1339 498 1339 Z" unicode="" />
<glyph horiz-adv-x="981" d="M 489 -16 C 419 -16 359 -8 310 7 C 261 22 221 44 190 74 C 167 94 149 118 135 145 C 121 171 111 201 104 233 C 96 265 91 299 89 337 C 87 374 86 413 86 455 L 86 1518 L 301 1518 L 301 463 C 301 414 303 372 309 337 C 314 301 324 272 338 249 C 352 226 372 209 397 198 C 422 187 454 182 494 182 C 532 182 564 187 589 198 C 614 208 634 225 648 248 C 662 271 672 300 678 336 C 683 371 686 413 686 463 L 686 1518 L 895 1518 L 895 455 C 895 414 894 375 892 339 C 890 302 885 267 879 235 C 872 203 862 173 849 147 C 836 120 819 96 797 76 C 765 46 724 24 674 8 C 624 -8 562 -16 489 -16 Z M 211 1903 L 451 1903 L 613 1587 L 426 1587 L 211 1903 Z" unicode="" />
<glyph horiz-adv-x="981" d="M 529 1903 L 768 1903 L 551 1587 L 367 1587 L 529 1903 Z M 489 -16 C 419 -16 359 -8 310 7 C 261 22 221 44 190 74 C 167 94 149 118 135 145 C 121 171 111 201 104 233 C 96 265 91 299 89 337 C 87 374 86 413 86 455 L 86 1518 L 301 1518 L 301 463 C 301 414 303 372 309 337 C 314 301 324 272 338 249 C 352 226 372 209 397 198 C 422 187 454 182 494 182 C 532 182 564 187 589 198 C 614 208 634 225 648 248 C 662 271 672 300 678 336 C 683 371 686 413 686 463 L 686 1518 L 895 1518 L 895 455 C 895 414 894 375 892 339 C 890 302 885 267 879 235 C 872 203 862 173 849 147 C 836 120 819 96 797 76 C 765 46 724 24 674 8 C 624 -8 562 -16 489 -16 Z" unicode="" />
<glyph horiz-adv-x="981" d="M 385 1903 L 592 1903 L 787 1587 L 604 1587 L 488 1761 L 371 1587 L 191 1587 L 385 1903 Z M 489 -16 C 419 -16 359 -8 310 7 C 261 22 221 44 190 74 C 167 94 149 118 135 145 C 121 171 111 201 104 233 C 96 265 91 299 89 337 C 87 374 86 413 86 455 L 86 1518 L 301 1518 L 301 463 C 301 414 303 372 309 337 C 314 301 324 272 338 249 C 352 226 372 209 397 198 C 422 187 454 182 494 182 C 532 182 564 187 589 198 C 614 208 634 225 648 248 C 662 271 672 300 678 336 C 683 371 686 413 686 463 L 686 1518 L 895 1518 L 895 455 C 895 414 894 375 892 339 C 890 302 885 267 879 235 C 872 203 862 173 849 147 C 836 120 819 96 797 76 C 765 46 724 24 674 8 C 624 -8 562 -16 489 -16 Z" unicode="" />
<glyph horiz-adv-x="981" d="M 248 1810 L 428 1810 L 428 1587 L 248 1587 L 248 1810 Z M 549 1810 L 729 1810 L 729 1587 L 549 1587 L 549 1810 Z M 489 -16 C 419 -16 359 -8 310 7 C 261 22 221 44 190 74 C 167 94 149 118 135 145 C 121 171 111 201 104 233 C 96 265 91 299 89 337 C 87 374 86 413 86 455 L 86 1518 L 301 1518 L 301 463 C 301 414 303 372 309 337 C 314 301 324 272 338 249 C 352 226 372 209 397 198 C 422 187 454 182 494 182 C 532 182 564 187 589 198 C 614 208 634 225 648 248 C 662 271 672 300 678 336 C 683 371 686 413 686 463 L 686 1518 L 895 1518 L 895 455 C 895 414 894 375 892 339 C 890 302 885 267 879 235 C 872 203 862 173 849 147 C 836 120 819 96 797 76 C 765 46 724 24 674 8 C 624 -8 562 -16 489 -16 Z" unicode="" />
<glyph horiz-adv-x="911" d="M 2 1518 L 227 1518 L 457 815 L 688 1518 L 907 1518 L 561 513 L 561 0 L 348 0 L 348 519 L 2 1518 Z M 494 1903 L 733 1903 L 516 1587 L 332 1587 L 494 1903 Z" unicode="" />
<glyph horiz-adv-x="926" d="M 94 1518 L 305 1518 L 305 1270 L 453 1270 C 537 1270 607 1260 661 1242 C 715 1224 758 1195 790 1157 C 821 1118 842 1069 854 1009 C 866 949 872 877 872 793 C 872 709 866 637 854 577 C 842 517 821 467 790 428 C 759 389 717 360 663 341 C 609 322 541 313 457 313 L 305 313 L 305 0 L 94 0 L 94 1518 Z M 455 506 C 497 506 532 510 560 519 C 587 528 609 544 625 566 C 641 588 652 617 658 653 C 664 689 668 735 668 791 C 668 847 664 893 658 929 C 652 965 641 994 625 1016 C 609 1038 587 1053 559 1062 C 531 1070 495 1075 453 1075 L 305 1075 L 305 506 L 455 506 Z" unicode="" />
<glyph horiz-adv-x="866" d="M 80 1212 C 80 1266 84 1316 94 1361 C 103 1406 121 1445 147 1477 C 173 1509 209 1534 255 1552 C 301 1570 360 1579 434 1579 C 506 1579 564 1570 608 1553 C 652 1536 687 1511 711 1477 C 735 1443 752 1402 760 1352 C 768 1302 772 1245 772 1180 C 772 1130 771 1086 770 1048 C 768 1010 765 977 759 949 C 753 921 743 898 730 880 C 717 861 699 846 676 836 C 710 826 736 811 756 792 C 776 772 791 746 801 714 C 811 682 817 642 819 595 C 821 548 823 492 823 428 C 823 339 816 267 803 211 C 790 155 768 112 738 81 C 708 49 668 28 618 17 C 568 5 507 0 434 0 L 371 0 L 371 184 L 434 184 C 470 184 501 187 526 195 C 550 202 570 216 585 236 C 600 256 611 283 617 318 C 623 352 627 397 627 453 C 627 507 624 550 620 584 C 615 618 606 644 592 663 C 578 681 559 694 534 701 C 508 707 475 711 434 711 L 403 711 L 403 893 L 434 893 C 468 893 494 897 514 907 C 534 916 549 930 559 950 C 569 969 575 993 578 1023 C 580 1053 582 1088 582 1130 C 582 1172 580 1209 578 1241 C 576 1273 570 1299 560 1320 C 550 1341 535 1357 515 1368 C 495 1378 468 1384 434 1384 C 399 1384 372 1378 352 1367 C 332 1356 317 1342 307 1324 C 297 1306 290 1285 288 1263 C 286 1240 285 1217 285 1194 L 285 0 L 80 0 L 80 1212 Z" unicode="" />
<glyph horiz-adv-x="825" d="M 317 -8 C 264 -8 220 0 185 14 C 149 29 121 52 100 82 C 79 112 64 151 56 198 C 47 245 43 301 43 365 C 43 447 51 514 68 567 C 84 620 111 662 148 693 C 184 724 231 746 288 758 C 345 770 414 776 496 776 L 516 776 C 515 802 514 826 513 847 C 511 872 505 893 497 910 C 489 926 476 938 460 946 C 443 954 420 958 391 958 C 371 958 351 957 331 955 C 311 953 291 950 272 946 C 252 942 234 938 217 934 C 200 929 185 924 172 920 L 102 1106 C 116 1111 134 1117 154 1123 C 174 1129 198 1134 224 1139 C 250 1144 278 1148 310 1152 C 342 1155 377 1157 416 1157 C 474 1157 523 1150 562 1137 C 601 1124 632 1105 655 1081 C 681 1053 698 1016 706 970 C 714 924 719 869 719 805 L 719 272 C 719 254 719 240 721 229 C 722 217 725 208 729 202 C 733 195 740 190 749 188 C 758 185 770 184 786 184 L 786 0 C 782 0 777 -1 770 -1 C 762 -1 754 -2 746 -2 L 705 -2 C 683 -2 664 0 649 2 C 633 5 620 10 609 16 C 598 22 589 29 582 39 C 574 49 568 60 563 74 C 551 62 539 50 525 40 C 511 30 494 21 475 14 C 455 7 433 2 407 -2 C 381 -6 351 -8 317 -8 Z M 380 595 C 345 589 317 578 297 562 C 277 546 262 523 254 494 C 246 465 242 427 242 381 C 242 343 243 311 246 284 C 249 257 255 235 263 218 C 271 200 283 187 298 179 C 313 170 333 166 358 166 C 394 166 423 172 445 185 C 466 197 482 214 492 235 C 502 256 509 280 512 307 C 514 334 516 362 516 391 L 516 604 L 510 604 C 458 604 414 601 380 595 Z M 133 1561 L 373 1561 L 535 1245 L 348 1245 L 133 1561 Z" unicode="" />
<glyph horiz-adv-x="825" d="M 317 -8 C 264 -8 220 0 185 14 C 149 29 121 52 100 82 C 79 112 64 151 56 198 C 47 245 43 301 43 365 C 43 447 51 514 68 567 C 84 620 111 662 148 693 C 184 724 231 746 288 758 C 345 770 414 776 496 776 L 516 776 C 515 802 514 826 513 847 C 511 872 505 893 497 910 C 489 926 476 938 460 946 C 443 954 420 958 391 958 C 371 958 351 957 331 955 C 311 953 291 950 272 946 C 252 942 234 938 217 934 C 200 929 185 924 172 920 L 102 1106 C 116 1111 134 1117 154 1123 C 174 1129 198 1134 224 1139 C 250 1144 278 1148 310 1152 C 342 1155 377 1157 416 1157 C 474 1157 523 1150 562 1137 C 601 1124 632 1105 655 1081 C 681 1053 698 1016 706 970 C 714 924 719 869 719 805 L 719 272 C 719 254 719 240 721 229 C 722 217 725 208 729 202 C 733 195 740 190 749 188 C 758 185 770 184 786 184 L 786 0 C 782 0 777 -1 770 -1 C 762 -1 754 -2 746 -2 L 705 -2 C 683 -2 664 0 649 2 C 633 5 620 10 609 16 C 598 22 589 29 582 39 C 574 49 568 60 563 74 C 551 62 539 50 525 40 C 511 30 494 21 475 14 C 455 7 433 2 407 -2 C 381 -6 351 -8 317 -8 Z M 380 595 C 345 589 317 578 297 562 C 277 546 262 523 254 494 C 246 465 242 427 242 381 C 242 343 243 311 246 284 C 249 257 255 235 263 218 C 271 200 283 187 298 179 C 313 170 333 166 358 166 C 394 166 423 172 445 185 C 466 197 482 214 492 235 C 502 256 509 280 512 307 C 514 334 516 362 516 391 L 516 604 L 510 604 C 458 604 414 601 380 595 Z M 451 1561 L 690 1561 L 473 1245 L 289 1245 L 451 1561 Z" unicode="" />
<glyph horiz-adv-x="825" d="M 317 -8 C 264 -8 220 0 185 14 C 149 29 121 52 100 82 C 79 112 64 151 56 198 C 47 245 43 301 43 365 C 43 447 51 514 68 567 C 84 620 111 662 148 693 C 184 724 231 746 288 758 C 345 770 414 776 496 776 L 516 776 C 515 802 514 826 513 847 C 511 872 505 893 497 910 C 489 926 476 938 460 946 C 443 954 420 958 391 958 C 371 958 351 957 331 955 C 311 953 291 950 272 946 C 252 942 234 938 217 934 C 200 929 185 924 172 920 L 102 1106 C 116 1111 134 1117 154 1123 C 174 1129 198 1134 224 1139 C 250 1144 278 1148 310 1152 C 342 1155 377 1157 416 1157 C 474 1157 523 1150 562 1137 C 601 1124 632 1105 655 1081 C 681 1053 698 1016 706 970 C 714 924 719 869 719 805 L 719 272 C 719 254 719 240 721 229 C 722 217 725 208 729 202 C 733 195 740 190 749 188 C 758 185 770 184 786 184 L 786 0 C 782 0 777 -1 770 -1 C 762 -1 754 -2 746 -2 L 705 -2 C 683 -2 664 0 649 2 C 633 5 620 10 609 16 C 598 22 589 29 582 39 C 574 49 568 60 563 74 C 551 62 539 50 525 40 C 511 30 494 21 475 14 C 455 7 433 2 407 -2 C 381 -6 351 -8 317 -8 Z M 380 595 C 345 589 317 578 297 562 C 277 546 262 523 254 494 C 246 465 242 427 242 381 C 242 343 243 311 246 284 C 249 257 255 235 263 218 C 271 200 283 187 298 179 C 313 170 333 166 358 166 C 394 166 423 172 445 185 C 466 197 482 214 492 235 C 502 256 509 280 512 307 C 514 334 516 362 516 391 L 516 604 L 510 604 C 458 604 414 601 380 595 Z M 307 1561 L 514 1561 L 709 1245 L 526 1245 L 410 1419 L 293 1245 L 113 1245 L 307 1561 Z" unicode="" />
<glyph horiz-adv-x="825" d="M 317 -8 C 264 -8 220 0 185 14 C 149 29 121 52 100 82 C 79 112 64 151 56 198 C 47 245 43 301 43 365 C 43 447 51 514 68 567 C 84 620 111 662 148 693 C 184 724 231 746 288 758 C 345 770 414 776 496 776 L 516 776 C 515 802 514 826 513 847 C 511 872 505 893 497 910 C 489 926 476 938 460 946 C 443 954 420 958 391 958 C 371 958 351 957 331 955 C 311 953 291 950 272 946 C 252 942 234 938 217 934 C 200 929 185 924 172 920 L 102 1106 C 116 1111 134 1117 154 1123 C 174 1129 198 1134 224 1139 C 250 1144 278 1148 310 1152 C 342 1155 377 1157 416 1157 C 474 1157 523 1150 562 1137 C 601 1124 632 1105 655 1081 C 681 1053 698 1016 706 970 C 714 924 719 869 719 805 L 719 272 C 719 254 719 240 721 229 C 722 217 725 208 729 202 C 733 195 740 190 749 188 C 758 185 770 184 786 184 L 786 0 C 782 0 777 -1 770 -1 C 762 -1 754 -2 746 -2 L 705 -2 C 683 -2 664 0 649 2 C 633 5 620 10 609 16 C 598 22 589 29 582 39 C 574 49 568 60 563 74 C 551 62 539 50 525 40 C 511 30 494 21 475 14 C 455 7 433 2 407 -2 C 381 -6 351 -8 317 -8 Z M 380 595 C 345 589 317 578 297 562 C 277 546 262 523 254 494 C 246 465 242 427 242 381 C 242 343 243 311 246 284 C 249 257 255 235 263 218 C 271 200 283 187 298 179 C 313 170 333 166 358 166 C 394 166 423 172 445 185 C 466 197 482 214 492 235 C 502 256 509 280 512 307 C 514 334 516 362 516 391 L 516 604 L 510 604 C 458 604 414 601 380 595 Z M 111 1260 C 115 1294 121 1325 129 1353 C 137 1380 148 1403 162 1422 C 176 1441 194 1456 216 1466 C 237 1476 263 1481 293 1481 C 311 1481 330 1477 350 1471 C 369 1464 387 1457 405 1449 C 423 1441 439 1433 454 1427 C 469 1420 482 1417 492 1417 C 510 1417 523 1421 531 1430 C 539 1439 545 1458 549 1487 L 709 1464 C 705 1429 698 1398 690 1371 C 682 1343 671 1320 657 1302 C 643 1283 625 1269 604 1259 C 583 1249 558 1245 529 1245 C 509 1245 490 1248 471 1255 C 451 1261 433 1269 415 1277 C 397 1285 381 1292 366 1299 C 350 1305 338 1309 328 1309 C 310 1309 297 1304 289 1294 C 281 1284 274 1265 270 1237 L 111 1260 Z" unicode="" />
<glyph horiz-adv-x="825" d="M 317 -8 C 264 -8 220 0 185 14 C 149 29 121 52 100 82 C 79 112 64 151 56 198 C 47 245 43 301 43 365 C 43 447 51 514 68 567 C 84 620 111 662 148 693 C 184 724 231 746 288 758 C 345 770 414 776 496 776 L 516 776 C 515 802 514 826 513 847 C 511 872 505 893 497 910 C 489 926 476 938 460 946 C 443 954 420 958 391 958 C 371 958 351 957 331 955 C 311 953 291 950 272 946 C 252 942 234 938 217 934 C 200 929 185 924 172 920 L 102 1106 C 116 1111 134 1117 154 1123 C 174 1129 198 1134 224 1139 C 250 1144 278 1148 310 1152 C 342 1155 377 1157 416 1157 C 474 1157 523 1150 562 1137 C 601 1124 632 1105 655 1081 C 681 1053 698 1016 706 970 C 714 924 719 869 719 805 L 719 272 C 719 254 719 240 721 229 C 722 217 725 208 729 202 C 733 195 740 190 749 188 C 758 185 770 184 786 184 L 786 0 C 782 0 777 -1 770 -1 C 762 -1 754 -2 746 -2 L 705 -2 C 683 -2 664 0 649 2 C 633 5 620 10 609 16 C 598 22 589 29 582 39 C 574 49 568 60 563 74 C 551 62 539 50 525 40 C 511 30 494 21 475 14 C 455 7 433 2 407 -2 C 381 -6 351 -8 317 -8 Z M 380 595 C 345 589 317 578 297 562 C 277 546 262 523 254 494 C 246 465 242 427 242 381 C 242 343 243 311 246 284 C 249 257 255 235 263 218 C 271 200 283 187 298 179 C 313 170 333 166 358 166 C 394 166 423 172 445 185 C 466 197 482 214 492 235 C 502 256 509 280 512 307 C 514 334 516 362 516 391 L 516 604 L 510 604 C 458 604 414 601 380 595 Z M 170 1468 L 350 1468 L 350 1245 L 170 1245 L 170 1468 Z M 471 1468 L 651 1468 L 651 1245 L 471 1245 L 471 1468 Z" unicode="" />
<glyph horiz-adv-x="825" d="M 317 -8 C 264 -8 220 0 185 14 C 149 29 121 52 100 82 C 79 112 64 151 56 198 C 47 245 43 301 43 365 C 43 447 51 514 68 567 C 84 620 111 662 148 693 C 184 724 231 746 288 758 C 345 770 414 776 496 776 L 516 776 C 515 802 514 826 513 847 C 511 872 505 893 497 910 C 489 926 476 938 460 946 C 443 954 420 958 391 958 C 371 958 351 957 331 955 C 311 953 291 950 272 946 C 252 942 234 938 217 934 C 200 929 185 924 172 920 L 102 1106 C 116 1111 134 1117 154 1123 C 174 1129 198 1134 224 1139 C 250 1144 278 1148 310 1152 C 342 1155 377 1157 416 1157 C 474 1157 523 1150 562 1137 C 601 1124 632 1105 655 1081 C 681 1053 698 1016 706 970 C 714 924 719 869 719 805 L 719 272 C 719 254 719 240 721 229 C 722 217 725 208 729 202 C 733 195 740 190 749 188 C 758 185 770 184 786 184 L 786 0 C 782 0 777 -1 770 -1 C 762 -1 754 -2 746 -2 L 705 -2 C 683 -2 664 0 649 2 C 633 5 620 10 609 16 C 598 22 589 29 582 39 C 574 49 568 60 563 74 C 551 62 539 50 525 40 C 511 30 494 21 475 14 C 455 7 433 2 407 -2 C 381 -6 351 -8 317 -8 Z M 380 595 C 345 589 317 578 297 562 C 277 546 262 523 254 494 C 246 465 242 427 242 381 C 242 343 243 311 246 284 C 249 257 255 235 263 218 C 271 200 283 187 298 179 C 313 170 333 166 358 166 C 394 166 423 172 445 185 C 466 197 482 214 492 235 C 502 256 509 280 512 307 C 514 334 516 362 516 391 L 516 604 L 510 604 C 458 604 414 601 380 595 Z M 410 1233 C 370 1233 339 1238 315 1250 C 291 1261 272 1277 259 1297 C 246 1317 237 1341 233 1369 C 229 1397 227 1427 227 1460 C 227 1493 229 1524 233 1552 C 237 1580 246 1605 259 1626 C 272 1646 291 1662 315 1674 C 339 1686 370 1692 410 1692 C 449 1692 481 1686 505 1674 C 529 1662 548 1646 562 1626 C 575 1605 584 1580 589 1552 C 593 1524 596 1493 596 1460 C 596 1427 593 1397 589 1369 C 584 1341 575 1317 562 1297 C 548 1277 529 1261 505 1250 C 481 1238 449 1233 410 1233 Z M 410 1335 C 427 1335 441 1337 451 1343 C 461 1349 469 1357 475 1368 C 480 1378 483 1391 485 1407 C 487 1423 488 1440 488 1460 C 488 1480 487 1497 485 1513 C 483 1529 480 1542 475 1553 C 469 1564 461 1572 451 1578 C 441 1584 427 1587 410 1587 C 393 1587 380 1584 370 1578 C 360 1572 352 1564 347 1553 C 341 1542 338 1529 336 1513 C 334 1497 334 1480 334 1460 C 334 1440 334 1423 336 1407 C 338 1391 341 1378 347 1368 C 352 1357 360 1349 370 1343 C 380 1337 393 1335 410 1335 Z" unicode="" />
<glyph horiz-adv-x="1237" d="M 862 -10 C 766 -10 693 16 643 68 C 624 85 608 105 596 127 C 586 108 575 92 564 78 C 547 57 527 40 504 27 C 480 14 453 5 423 0 C 392 -5 357 -8 317 -8 C 265 -8 222 0 187 14 C 152 29 124 52 103 82 C 81 112 66 151 57 198 C 47 245 43 301 43 365 C 43 447 51 514 68 568 C 84 621 111 663 148 694 C 184 724 231 746 288 758 C 345 770 414 776 496 776 L 516 776 C 515 802 514 826 513 847 C 511 872 505 893 497 910 C 489 926 476 938 460 946 C 443 954 420 958 391 958 C 371 958 351 957 331 955 C 311 953 291 950 272 946 C 252 942 234 938 217 934 C 200 929 185 924 172 920 L 102 1106 C 116 1111 134 1117 154 1123 C 174 1129 198 1134 224 1139 C 250 1144 278 1148 310 1152 C 342 1155 377 1157 416 1157 C 474 1157 521 1150 557 1137 C 593 1124 622 1105 645 1081 L 647 1079 C 670 1100 697 1117 728 1131 C 766 1148 814 1157 872 1157 C 978 1157 1054 1130 1102 1077 C 1122 1053 1139 1023 1152 988 C 1164 952 1174 910 1180 861 C 1186 812 1189 756 1190 692 C 1191 628 1191 555 1190 473 L 716 473 C 716 439 717 408 719 382 C 722 331 729 290 741 259 C 753 228 770 206 793 192 C 816 178 847 172 887 172 C 933 172 975 176 1015 186 C 1055 195 1092 205 1126 217 L 1184 41 C 1156 32 1130 24 1106 18 C 1082 12 1057 6 1032 2 C 1007 -1 981 -5 954 -7 C 926 -9 896 -10 862 -10 Z M 380 595 C 345 589 317 579 297 563 C 277 547 262 524 254 495 C 246 465 242 427 242 381 C 242 343 243 311 246 284 C 249 257 255 235 263 218 C 271 200 283 187 298 179 C 313 170 333 166 358 166 C 394 166 423 172 445 184 C 466 196 482 212 492 231 C 502 250 509 271 512 295 C 514 318 516 340 516 362 L 516 604 L 510 604 C 458 604 414 601 380 595 Z M 1008 659 C 1007 718 1005 767 1003 807 C 1000 846 994 877 985 901 C 975 924 962 940 944 950 C 926 960 901 965 870 965 C 834 965 806 957 786 943 C 765 929 749 906 739 874 C 729 842 722 802 719 752 C 717 724 716 693 715 659 L 1008 659 Z" unicode="" />
<glyph horiz-adv-x="627" d="M 397 -8 C 345 -8 300 -1 262 12 C 224 25 192 44 164 68 C 138 91 117 120 101 154 C 85 188 74 226 66 269 C 58 312 52 359 50 411 C 48 462 47 517 47 575 C 47 629 48 681 50 729 C 52 777 57 822 64 863 C 71 904 81 941 95 974 C 109 1007 127 1036 150 1061 C 178 1091 212 1114 253 1131 C 294 1148 344 1157 403 1157 C 426 1157 447 1156 465 1155 C 483 1153 499 1151 514 1149 C 528 1147 542 1144 554 1141 C 566 1138 578 1135 590 1133 L 532 940 C 516 945 498 949 480 952 C 462 954 442 956 422 956 C 386 956 358 949 337 936 C 315 922 299 900 287 870 C 275 840 268 800 264 751 C 260 701 258 641 258 569 C 258 496 260 435 264 385 C 268 335 275 294 287 263 C 299 232 315 210 337 196 C 359 182 388 176 424 176 C 444 176 464 178 484 182 C 503 186 520 192 535 199 L 594 20 C 580 15 565 11 551 8 C 537 4 522 1 506 0 C 490 -2 474 -4 456 -6 C 438 -7 418 -8 397 -8 Z M 342 -444 C 324 -444 307 -443 292 -442 C 276 -441 262 -439 248 -437 C 234 -434 220 -431 206 -427 C 192 -423 177 -418 162 -412 L 205 -297 C 228 -305 248 -311 265 -315 C 282 -319 300 -322 320 -322 C 337 -322 351 -320 362 -318 C 373 -315 382 -310 388 -304 C 394 -297 398 -288 400 -278 C 402 -268 404 -255 404 -240 C 404 -223 402 -210 399 -200 C 395 -190 389 -182 381 -177 C 373 -171 362 -168 348 -167 C 334 -166 316 -166 295 -168 L 256 -135 L 285 37 L 406 37 L 383 -96 C 406 -95 427 -97 447 -101 C 466 -105 482 -112 496 -124 C 510 -135 520 -151 528 -172 C 535 -192 539 -219 539 -252 C 539 -289 535 -320 527 -345 C 519 -369 508 -389 492 -404 C 476 -418 455 -429 430 -435 C 405 -441 376 -444 342 -444 Z" unicode="" />
<glyph horiz-adv-x="770" d="M 393 -10 C 345 -10 302 -3 262 9 C 222 22 189 42 164 68 C 138 92 118 120 103 154 C 87 188 75 226 67 269 C 59 311 53 358 51 410 C 48 461 47 516 47 575 C 47 633 48 687 50 737 C 52 786 57 831 65 871 C 73 911 84 947 98 979 C 112 1011 130 1039 154 1063 C 179 1091 212 1114 254 1131 C 295 1148 346 1157 406 1157 C 459 1157 504 1150 542 1137 C 579 1123 609 1103 633 1077 C 653 1053 670 1023 683 988 C 695 952 705 910 711 861 C 717 812 720 756 721 692 C 722 628 722 555 721 473 L 247 473 C 247 439 248 408 250 382 C 253 331 261 290 273 259 C 285 228 302 206 325 192 C 348 178 380 172 420 172 C 465 172 508 176 548 186 C 588 195 624 205 657 217 L 715 41 C 688 32 662 24 638 18 C 614 12 589 6 564 2 C 539 -1 513 -5 485 -7 C 457 -9 427 -10 393 -10 Z M 539 659 C 538 718 536 767 534 807 C 531 846 525 877 516 901 C 507 924 494 940 476 950 C 458 960 433 965 403 965 C 367 965 338 957 318 943 C 297 929 281 906 271 874 C 260 842 253 802 250 752 C 248 724 247 693 246 659 L 539 659 Z M 106 1561 L 346 1561 L 508 1245 L 321 1245 L 106 1561 Z" unicode="" />
<glyph horiz-adv-x="770" d="M 424 1561 L 663 1561 L 446 1245 L 262 1245 L 424 1561 Z M 393 -10 C 345 -10 302 -3 262 9 C 222 22 189 42 164 68 C 138 92 118 120 103 154 C 87 188 75 226 67 269 C 59 311 53 358 51 410 C 48 461 47 516 47 575 C 47 633 48 687 50 737 C 52 786 57 831 65 871 C 73 911 84 947 98 979 C 112 1011 130 1039 154 1063 C 179 1091 212 1114 254 1131 C 295 1148 346 1157 406 1157 C 459 1157 504 1150 542 1137 C 579 1123 609 1103 633 1077 C 653 1053 670 1023 683 988 C 695 952 705 910 711 861 C 717 812 720 756 721 692 C 722 628 722 555 721 473 L 247 473 C 247 439 248 408 250 382 C 253 331 261 290 273 259 C 285 228 302 206 325 192 C 348 178 380 172 420 172 C 465 172 508 176 548 186 C 588 195 624 205 657 217 L 715 41 C 688 32 662 24 638 18 C 614 12 589 6 564 2 C 539 -1 513 -5 485 -7 C 457 -9 427 -10 393 -10 Z M 539 659 C 538 718 536 767 534 807 C 531 846 525 877 516 901 C 507 924 494 940 476 950 C 458 960 433 965 403 965 C 367 965 338 957 318 943 C 297 929 281 906 271 874 C 260 842 253 802 250 752 C 248 724 247 693 246 659 L 539 659 Z" unicode="" />
<glyph horiz-adv-x="770" d="M 280 1561 L 487 1561 L 682 1245 L 499 1245 L 383 1419 L 266 1245 L 86 1245 L 280 1561 Z M 393 -10 C 345 -10 302 -3 262 9 C 222 22 189 42 164 68 C 138 92 118 120 103 154 C 87 188 75 226 67 269 C 59 311 53 358 51 410 C 48 461 47 516 47 575 C 47 633 48 687 50 737 C 52 786 57 831 65 871 C 73 911 84 947 98 979 C 112 1011 130 1039 154 1063 C 179 1091 212 1114 254 1131 C 295 1148 346 1157 406 1157 C 459 1157 504 1150 542 1137 C 579 1123 609 1103 633 1077 C 653 1053 670 1023 683 988 C 695 952 705 910 711 861 C 717 812 720 756 721 692 C 722 628 722 555 721 473 L 247 473 C 247 439 248 408 250 382 C 253 331 261 290 273 259 C 285 228 302 206 325 192 C 348 178 380 172 420 172 C 465 172 508 176 548 186 C 588 195 624 205 657 217 L 715 41 C 688 32 662 24 638 18 C 614 12 589 6 564 2 C 539 -1 513 -5 485 -7 C 457 -9 427 -10 393 -10 Z M 539 659 C 538 718 536 767 534 807 C 531 846 525 877 516 901 C 507 924 494 940 476 950 C 458 960 433 965 403 965 C 367 965 338 957 318 943 C 297 929 281 906 271 874 C 260 842 253 802 250 752 C 248 724 247 693 246 659 L 539 659 Z" unicode="" />
<glyph horiz-adv-x="770" d="M 143 1468 L 323 1468 L 323 1245 L 143 1245 L 143 1468 Z M 444 1468 L 624 1468 L 624 1245 L 444 1245 L 444 1468 Z M 393 -10 C 345 -10 302 -3 262 9 C 222 22 189 42 164 68 C 138 92 118 120 103 154 C 87 188 75 226 67 269 C 59 311 53 358 51 410 C 48 461 47 516 47 575 C 47 633 48 687 50 737 C 52 786 57 831 65 871 C 73 911 84 947 98 979 C 112 1011 130 1039 154 1063 C 179 1091 212 1114 254 1131 C 295 1148 346 1157 406 1157 C 459 1157 504 1150 542 1137 C 579 1123 609 1103 633 1077 C 653 1053 670 1023 683 988 C 695 952 705 910 711 861 C 717 812 720 756 721 692 C 722 628 722 555 721 473 L 247 473 C 247 439 248 408 250 382 C 253 331 261 290 273 259 C 285 228 302 206 325 192 C 348 178 380 172 420 172 C 465 172 508 176 548 186 C 588 195 624 205 657 217 L 715 41 C 688 32 662 24 638 18 C 614 12 589 6 564 2 C 539 -1 513 -5 485 -7 C 457 -9 427 -10 393 -10 Z M 539 659 C 538 718 536 767 534 807 C 531 846 525 877 516 901 C 507 924 494 940 476 950 C 458 960 433 965 403 965 C 367 965 338 957 318 943 C 297 929 281 906 271 874 C 260 842 253 802 250 752 C 248 724 247 693 246 659 L 539 659 Z" unicode="" />
<glyph horiz-adv-x="379" d="M -47 1561 L 193 1561 L 283 1245 L 98 1245 L -47 1561 Z M 86 1145 L 293 1145 L 293 0 L 86 0 L 86 1145 Z" unicode="" />
<glyph horiz-adv-x="379" d="M 186 1561 L 428 1561 L 279 1245 L 96 1245 L 186 1561 Z M 86 1145 L 293 1145 L 293 0 L 86 0 L 86 1145 Z" unicode="" />
<glyph horiz-adv-x="379" d="M 86 1561 L 293 1561 L 467 1245 L 285 1245 L 188 1419 L 92 1245 L -88 1245 L 86 1561 Z M 86 1145 L 293 1145 L 293 0 L 86 0 L 86 1145 Z" unicode="" />
<glyph horiz-adv-x="379" d="M -20 1468 L 145 1468 L 145 1245 L -20 1245 L -20 1468 Z M 236 1468 L 399 1468 L 399 1245 L 236 1245 L 236 1468 Z M 86 1145 L 293 1145 L 293 0 L 86 0 L 86 1145 Z" unicode="" />
<glyph horiz-adv-x="834" d="M 336 1360 L 436 1384 C 434 1388 432 1391 430 1395 C 410 1434 390 1470 369 1503 L 532 1581 C 564 1533 594 1483 621 1430 L 786 1470 L 786 1298 L 687 1274 C 699 1239 710 1204 720 1168 C 762 1010 784 837 786 649 L 786 573 C 786 514 784 459 782 409 C 780 359 775 313 767 272 C 759 230 747 193 733 161 C 718 128 698 100 674 78 C 615 19 530 -10 418 -10 C 359 -10 309 -2 267 13 C 225 28 190 49 162 76 C 137 98 117 125 102 157 C 87 189 75 225 67 266 C 59 307 53 353 51 405 C 48 456 47 513 47 575 C 47 628 47 678 49 725 C 51 772 55 815 62 855 C 68 895 78 930 91 962 C 104 994 122 1021 145 1044 C 171 1069 203 1088 241 1100 C 279 1112 325 1118 379 1118 C 417 1118 451 1113 482 1104 C 513 1095 537 1081 555 1063 C 548 1092 538 1125 526 1162 C 518 1184 511 1206 503 1229 L 336 1188 L 336 1360 Z M 418 176 C 456 176 485 183 507 197 C 528 211 544 234 554 264 C 564 294 571 333 574 381 C 576 428 578 485 578 551 C 578 616 576 672 574 720 C 571 767 564 806 554 836 C 544 866 528 889 507 904 C 485 918 456 926 418 926 C 379 926 349 918 327 904 C 305 889 289 866 278 836 C 267 806 260 767 258 720 C 255 672 254 616 254 551 C 254 485 255 428 258 381 C 260 333 267 294 278 264 C 289 234 305 211 327 197 C 349 183 379 176 418 176 Z" unicode="" />
<glyph horiz-adv-x="856" d="M 80 1133 L 250 1143 L 262 1075 C 278 1098 306 1117 345 1133 C 384 1149 438 1157 506 1157 C 563 1157 608 1150 641 1138 C 673 1125 699 1108 719 1087 C 745 1055 762 1015 770 967 C 778 919 782 865 782 803 L 782 0 L 575 0 L 575 733 C 575 778 573 815 569 845 C 565 874 559 897 550 914 C 540 930 527 942 510 948 C 493 954 472 958 446 958 C 410 958 381 952 360 941 C 339 929 323 912 312 890 C 300 867 293 839 290 805 C 286 771 285 732 285 688 L 285 0 L 80 0 L 80 1133 Z M 127 1260 C 131 1294 137 1325 145 1353 C 153 1380 164 1403 178 1422 C 192 1441 210 1456 232 1466 C 253 1476 279 1481 309 1481 C 327 1481 346 1477 366 1471 C 385 1464 403 1457 421 1449 C 439 1441 455 1433 470 1427 C 485 1420 498 1417 508 1417 C 526 1417 539 1421 547 1430 C 555 1439 561 1458 565 1487 L 725 1464 C 721 1429 714 1398 706 1371 C 698 1343 687 1320 673 1302 C 659 1283 641 1269 620 1259 C 599 1249 574 1245 545 1245 C 525 1245 506 1248 487 1255 C 467 1261 449 1269 431 1277 C 413 1285 397 1292 382 1299 C 366 1305 354 1309 344 1309 C 326 1309 313 1304 305 1294 C 297 1284 290 1265 286 1237 L 127 1260 Z" unicode="" />
<glyph horiz-adv-x="834" d="M 418 -10 C 357 -10 306 -2 265 13 C 224 28 190 49 162 76 C 136 100 115 128 100 162 C 85 195 74 232 66 274 C 58 316 52 362 50 412 C 48 462 47 515 47 573 C 47 629 48 682 50 731 C 52 780 56 825 64 867 C 72 908 83 945 97 978 C 111 1011 131 1040 156 1065 C 184 1093 219 1115 261 1132 C 303 1148 355 1157 418 1157 C 482 1157 535 1148 577 1131 C 619 1114 654 1091 682 1063 C 705 1038 724 1009 738 976 C 752 943 762 906 769 865 C 776 824 781 779 783 730 C 785 681 786 629 786 573 C 786 516 784 463 782 413 C 780 363 775 318 767 277 C 759 235 748 198 733 165 C 718 131 698 102 674 78 C 647 51 613 30 571 14 C 529 -2 478 -10 418 -10 Z M 418 176 C 456 176 485 183 507 198 C 528 213 544 236 554 268 C 564 299 571 339 574 389 C 576 438 578 497 578 567 C 578 636 576 695 574 745 C 571 794 564 834 554 866 C 544 898 528 921 507 936 C 485 950 456 958 418 958 C 379 958 349 950 327 936 C 305 921 289 898 278 866 C 267 834 260 794 258 745 C 255 695 254 636 254 567 C 254 497 255 438 258 389 C 260 339 267 299 278 268 C 289 236 305 213 327 198 C 349 183 379 176 418 176 Z M 137 1561 L 377 1561 L 539 1245 L 352 1245 L 137 1561 Z" unicode="" />
<glyph horiz-adv-x="834" d="M 455 1561 L 694 1561 L 477 1245 L 293 1245 L 455 1561 Z M 418 -10 C 357 -10 306 -2 265 13 C 224 28 190 49 162 76 C 136 100 115 128 100 162 C 85 195 74 232 66 274 C 58 316 52 362 50 412 C 48 462 47 515 47 573 C 47 629 48 682 50 731 C 52 780 56 825 64 867 C 72 908 83 945 97 978 C 111 1011 131 1040 156 1065 C 184 1093 219 1115 261 1132 C 303 1148 355 1157 418 1157 C 482 1157 535 1148 577 1131 C 619 1114 654 1091 682 1063 C 705 1038 724 1009 738 976 C 752 943 762 906 769 865 C 776 824 781 779 783 730 C 785 681 786 629 786 573 C 786 516 784 463 782 413 C 780 363 775 318 767 277 C 759 235 748 198 733 165 C 718 131 698 102 674 78 C 647 51 613 30 571 14 C 529 -2 478 -10 418 -10 Z M 418 176 C 456 176 485 183 507 198 C 528 213 544 236 554 268 C 564 299 571 339 574 389 C 576 438 578 497 578 567 C 578 636 576 695 574 745 C 571 794 564 834 554 866 C 544 898 528 921 507 936 C 485 950 456 958 418 958 C 379 958 349 950 327 936 C 305 921 289 898 278 866 C 267 834 260 794 258 745 C 255 695 254 636 254 567 C 254 497 255 438 258 389 C 260 339 267 299 278 268 C 289 236 305 213 327 198 C 349 183 379 176 418 176 Z" unicode="" />
<glyph horiz-adv-x="834" d="M 311 1561 L 518 1561 L 713 1245 L 530 1245 L 414 1419 L 297 1245 L 117 1245 L 311 1561 Z M 418 -10 C 357 -10 306 -2 265 13 C 224 28 190 49 162 76 C 136 100 115 128 100 162 C 85 195 74 232 66 274 C 58 316 52 362 50 412 C 48 462 47 515 47 573 C 47 629 48 682 50 731 C 52 780 56 825 64 867 C 72 908 83 945 97 978 C 111 1011 131 1040 156 1065 C 184 1093 219 1115 261 1132 C 303 1148 355 1157 418 1157 C 482 1157 535 1148 577 1131 C 619 1114 654 1091 682 1063 C 705 1038 724 1009 738 976 C 752 943 762 906 769 865 C 776 824 781 779 783 730 C 785 681 786 629 786 573 C 786 516 784 463 782 413 C 780 363 775 318 767 277 C 759 235 748 198 733 165 C 718 131 698 102 674 78 C 647 51 613 30 571 14 C 529 -2 478 -10 418 -10 Z M 418 176 C 456 176 485 183 507 198 C 528 213 544 236 554 268 C 564 299 571 339 574 389 C 576 438 578 497 578 567 C 578 636 576 695 574 745 C 571 794 564 834 554 866 C 544 898 528 921 507 936 C 485 950 456 958 418 958 C 379 958 349 950 327 936 C 305 921 289 898 278 866 C 267 834 260 794 258 745 C 255 695 254 636 254 567 C 254 497 255 438 258 389 C 260 339 267 299 278 268 C 289 236 305 213 327 198 C 349 183 379 176 418 176 Z" unicode="" />
<glyph horiz-adv-x="834" d="M 418 -10 C 357 -10 306 -2 265 13 C 224 28 190 49 162 76 C 136 100 115 128 100 162 C 85 195 74 232 66 274 C 58 316 52 362 50 412 C 48 462 47 515 47 573 C 47 629 48 682 50 731 C 52 780 56 825 64 867 C 72 908 83 945 97 978 C 111 1011 131 1040 156 1065 C 184 1093 219 1115 261 1132 C 303 1148 355 1157 418 1157 C 482 1157 535 1148 577 1131 C 619 1114 654 1091 682 1063 C 705 1038 724 1009 738 976 C 752 943 762 906 769 865 C 776 824 781 779 783 730 C 785 681 786 629 786 573 C 786 516 784 463 782 413 C 780 363 775 318 767 277 C 759 235 748 198 733 165 C 718 131 698 102 674 78 C 647 51 613 30 571 14 C 529 -2 478 -10 418 -10 Z M 418 176 C 456 176 485 183 507 198 C 528 213 544 236 554 268 C 564 299 571 339 574 389 C 576 438 578 497 578 567 C 578 636 576 695 574 745 C 571 794 564 834 554 866 C 544 898 528 921 507 936 C 485 950 456 958 418 958 C 379 958 349 950 327 936 C 305 921 289 898 278 866 C 267 834 260 794 258 745 C 255 695 254 636 254 567 C 254 497 255 438 258 389 C 260 339 267 299 278 268 C 289 236 305 213 327 198 C 349 183 379 176 418 176 Z M 115 1260 C 119 1294 125 1325 133 1353 C 141 1380 152 1403 166 1422 C 180 1441 198 1456 220 1466 C 241 1476 267 1481 297 1481 C 315 1481 334 1477 354 1471 C 373 1464 391 1457 409 1449 C 427 1441 443 1433 458 1427 C 473 1420 486 1417 496 1417 C 514 1417 527 1421 535 1430 C 543 1439 549 1458 553 1487 L 713 1464 C 709 1429 702 1398 694 1371 C 686 1343 675 1320 661 1302 C 647 1283 629 1269 608 1259 C 587 1249 562 1245 533 1245 C 513 1245 494 1248 475 1255 C 455 1261 437 1269 419 1277 C 401 1285 385 1292 370 1299 C 354 1305 342 1309 332 1309 C 314 1309 301 1304 293 1294 C 285 1284 278 1265 274 1237 L 115 1260 Z" unicode="" />
<glyph horiz-adv-x="834" d="M 174 1468 L 354 1468 L 354 1245 L 174 1245 L 174 1468 Z M 475 1468 L 655 1468 L 655 1245 L 475 1245 L 475 1468 Z M 418 -10 C 357 -10 306 -2 265 13 C 224 28 190 49 162 76 C 136 100 115 128 100 162 C 85 195 74 232 66 274 C 58 316 52 362 50 412 C 48 462 47 515 47 573 C 47 629 48 682 50 731 C 52 780 56 825 64 867 C 72 908 83 945 97 978 C 111 1011 131 1040 156 1065 C 184 1093 219 1115 261 1132 C 303 1148 355 1157 418 1157 C 482 1157 535 1148 577 1131 C 619 1114 654 1091 682 1063 C 705 1038 724 1009 738 976 C 752 943 762 906 769 865 C 776 824 781 779 783 730 C 785 681 786 629 786 573 C 786 516 784 463 782 413 C 780 363 775 318 767 277 C 759 235 748 198 733 165 C 718 131 698 102 674 78 C 647 51 613 30 571 14 C 529 -2 478 -10 418 -10 Z M 418 176 C 456 176 485 183 507 198 C 528 213 544 236 554 268 C 564 299 571 339 574 389 C 576 438 578 497 578 567 C 578 636 576 695 574 745 C 571 794 564 834 554 866 C 544 898 528 921 507 936 C 485 950 456 958 418 958 C 379 958 349 950 327 936 C 305 921 289 898 278 866 C 267 834 260 794 258 745 C 255 695 254 636 254 567 C 254 497 255 438 258 389 C 260 339 267 299 278 268 C 289 236 305 213 327 198 C 349 183 379 176 418 176 Z" unicode="" />
<glyph horiz-adv-x="926" d="M 360 516 L 567 516 L 567 311 L 360 311 L 360 516 Z M 123 848 L 803 848 L 803 651 L 123 651 L 123 848 Z M 360 1186 L 567 1186 L 567 981 L 360 981 L 360 1186 Z" unicode="" />
<glyph horiz-adv-x="834" d="M 418 -10 C 386 -10 357 -7 331 -3 L 307 -86 L 139 -86 L 181 59 C 174 64 168 70 162 76 C 136 100 115 128 100 162 C 85 195 74 232 66 274 C 58 316 52 362 50 412 C 48 462 47 515 47 573 C 47 629 48 682 50 731 C 52 780 56 825 64 867 C 72 908 83 945 97 978 C 111 1011 131 1040 156 1065 C 184 1093 219 1115 261 1132 C 303 1148 355 1157 418 1157 C 449 1157 478 1155 504 1151 L 528 1231 L 696 1231 L 653 1088 C 663 1080 672 1071 682 1063 C 705 1038 724 1009 738 976 C 752 943 762 906 769 865 C 776 824 781 779 783 730 C 785 681 786 629 786 573 C 786 516 784 463 782 413 C 780 363 775 318 767 277 C 759 235 748 198 733 165 C 718 131 698 102 674 78 C 647 51 613 30 571 14 C 529 -2 478 -10 418 -10 Z M 418 168 C 456 168 486 175 508 191 C 530 206 547 230 559 262 C 571 294 578 336 581 386 C 584 436 586 497 586 567 C 586 637 584 698 581 748 C 579 782 575 813 569 839 L 369 172 C 383 169 400 168 418 168 Z M 418 965 C 378 965 347 957 325 942 C 302 927 285 904 273 872 C 261 840 254 798 251 748 C 247 698 246 637 246 567 C 246 497 247 436 251 386 C 253 353 256 324 262 299 L 460 961 C 447 963 433 965 418 965 Z" unicode="" />
<glyph horiz-adv-x="844" d="M 422 -10 C 360 -10 308 -3 267 11 C 226 25 192 44 166 68 C 147 84 132 102 120 122 C 108 142 99 164 92 188 C 85 212 80 237 78 265 C 75 293 74 322 74 354 L 74 1145 L 281 1145 L 281 377 C 281 343 282 313 286 288 C 290 262 297 241 307 225 C 317 208 332 196 351 188 C 369 180 394 176 424 176 C 454 176 478 180 496 188 C 514 196 529 208 540 224 C 550 240 557 261 561 287 C 565 313 567 343 567 379 L 567 1145 L 770 1145 L 770 356 C 770 294 764 239 752 192 C 740 145 718 106 684 74 C 657 49 623 29 581 13 C 539 -2 486 -10 422 -10 Z M 143 1561 L 383 1561 L 545 1245 L 358 1245 L 143 1561 Z" unicode="" />
<glyph horiz-adv-x="844" d="M 461 1561 L 700 1561 L 483 1245 L 299 1245 L 461 1561 Z M 422 -10 C 360 -10 308 -3 267 11 C 226 25 192 44 166 68 C 147 84 132 102 120 122 C 108 142 99 164 92 188 C 85 212 80 237 78 265 C 75 293 74 322 74 354 L 74 1145 L 281 1145 L 281 377 C 281 343 282 313 286 288 C 290 262 297 241 307 225 C 317 208 332 196 351 188 C 369 180 394 176 424 176 C 454 176 478 180 496 188 C 514 196 529 208 540 224 C 550 240 557 261 561 287 C 565 313 567 343 567 379 L 567 1145 L 770 1145 L 770 356 C 770 294 764 239 752 192 C 740 145 718 106 684 74 C 657 49 623 29 581 13 C 539 -2 486 -10 422 -10 Z" unicode="" />
<glyph horiz-adv-x="844" d="M 317 1561 L 524 1561 L 719 1245 L 536 1245 L 420 1419 L 303 1245 L 123 1245 L 317 1561 Z M 422 -10 C 360 -10 308 -3 267 11 C 226 25 192 44 166 68 C 147 84 132 102 120 122 C 108 142 99 164 92 188 C 85 212 80 237 78 265 C 75 293 74 322 74 354 L 74 1145 L 281 1145 L 281 377 C 281 343 282 313 286 288 C 290 262 297 241 307 225 C 317 208 332 196 351 188 C 369 180 394 176 424 176 C 454 176 478 180 496 188 C 514 196 529 208 540 224 C 550 240 557 261 561 287 C 565 313 567 343 567 379 L 567 1145 L 770 1145 L 770 356 C 770 294 764 239 752 192 C 740 145 718 106 684 74 C 657 49 623 29 581 13 C 539 -2 486 -10 422 -10 Z" unicode="" />
<glyph horiz-adv-x="844" d="M 180 1468 L 360 1468 L 360 1245 L 180 1245 L 180 1468 Z M 481 1468 L 661 1468 L 661 1245 L 481 1245 L 481 1468 Z M 422 -10 C 360 -10 308 -3 267 11 C 226 25 192 44 166 68 C 147 84 132 102 120 122 C 108 142 99 164 92 188 C 85 212 80 237 78 265 C 75 293 74 322 74 354 L 74 1145 L 281 1145 L 281 377 C 281 343 282 313 286 288 C 290 262 297 241 307 225 C 317 208 332 196 351 188 C 369 180 394 176 424 176 C 454 176 478 180 496 188 C 514 196 529 208 540 224 C 550 240 557 261 561 287 C 565 313 567 343 567 379 L 567 1145 L 770 1145 L 770 356 C 770 294 764 239 752 192 C 740 145 718 106 684 74 C 657 49 623 29 581 13 C 539 -2 486 -10 422 -10 Z" unicode="" />
<glyph horiz-adv-x="752" d="M 6 1145 L 215 1145 L 338 565 L 381 333 L 420 565 L 539 1145 L 743 1145 L 446 -115 C 436 -155 423 -187 408 -213 C 393 -238 375 -258 353 -273 C 331 -287 306 -297 276 -303 C 246 -309 212 -312 174 -313 L 126 -313 C 117 -313 109 -312 101 -312 C 93 -312 87 -311 84 -311 L 84 -129 L 160 -129 C 178 -128 192 -127 204 -125 C 216 -123 225 -121 233 -117 C 240 -113 246 -108 250 -102 C 254 -96 257 -88 260 -78 L 278 0 L 6 1145 Z M 414 1561 L 653 1561 L 436 1245 L 252 1245 L 414 1561 Z" unicode="" />
<glyph horiz-adv-x="858" d="M 80 1563 L 285 1563 L 285 1077 C 309 1106 341 1127 381 1139 C 421 1151 469 1157 526 1157 C 569 1157 606 1150 636 1137 C 666 1123 692 1106 713 1085 C 735 1061 753 1031 766 997 C 779 963 789 924 795 881 C 801 838 805 791 807 739 C 808 687 809 631 809 573 C 809 513 808 457 807 405 C 805 353 801 305 794 261 C 787 217 777 178 763 144 C 749 110 729 81 705 57 C 684 37 658 22 627 10 C 596 -2 560 -8 518 -8 C 462 -8 415 -2 377 9 C 338 21 307 40 285 68 L 285 -311 L 80 -311 L 80 1563 Z M 453 178 C 489 178 516 186 536 202 C 556 218 570 242 580 274 C 589 306 595 346 597 394 C 599 442 600 499 600 565 C 600 629 599 686 597 736 C 595 785 589 826 580 859 C 570 891 556 916 536 933 C 516 949 489 958 453 958 C 413 958 382 950 360 936 C 338 922 321 899 310 868 C 299 836 292 796 289 746 C 286 696 285 636 285 565 C 285 494 286 434 289 385 C 292 336 299 296 310 266 C 321 235 338 213 360 199 C 382 185 413 178 453 178 Z" unicode="" />
<glyph horiz-adv-x="752" d="M 6 1145 L 215 1145 L 338 565 L 381 333 L 420 565 L 539 1145 L 743 1145 L 446 -115 C 436 -155 423 -187 408 -213 C 393 -238 375 -258 353 -273 C 331 -287 306 -297 276 -303 C 246 -309 212 -312 174 -313 L 126 -313 C 117 -313 109 -312 101 -312 C 93 -312 87 -311 84 -311 L 84 -129 L 160 -129 C 178 -128 192 -127 204 -125 C 216 -123 225 -121 233 -117 C 240 -113 246 -108 250 -102 C 254 -96 257 -88 260 -78 L 278 0 L 6 1145 Z M 133 1468 L 313 1468 L 313 1245 L 133 1245 L 133 1468 Z M 434 1468 L 614 1468 L 614 1245 L 434 1245 L 434 1468 Z" unicode="" />
<glyph horiz-adv-x="944" d="M 350 1522 L 592 1522 L 924 0 L 705 0 L 647 287 L 287 287 L 229 0 L 20 0 L 350 1522 Z M 602 481 L 504 973 L 467 1178 L 430 973 L 332 481 L 602 481 Z M 207 1769 L 735 1769 L 735 1587 L 207 1587 L 207 1769 Z" unicode="" />
<glyph horiz-adv-x="825" d="M 317 -8 C 264 -8 220 0 185 14 C 149 29 121 52 100 82 C 79 112 64 151 56 198 C 47 245 43 301 43 365 C 43 447 51 514 68 567 C 84 620 111 662 148 693 C 184 724 231 746 288 758 C 345 770 414 776 496 776 L 516 776 C 515 802 514 826 513 847 C 511 872 505 893 497 910 C 489 926 476 938 460 946 C 443 954 420 958 391 958 C 371 958 351 957 331 955 C 311 953 291 950 272 946 C 252 942 234 938 217 934 C 200 929 185 924 172 920 L 102 1106 C 116 1111 134 1117 154 1123 C 174 1129 198 1134 224 1139 C 250 1144 278 1148 310 1152 C 342 1155 377 1157 416 1157 C 474 1157 523 1150 562 1137 C 601 1124 632 1105 655 1081 C 681 1053 698 1016 706 970 C 714 924 719 869 719 805 L 719 272 C 719 254 719 240 721 229 C 722 217 725 208 729 202 C 733 195 740 190 749 188 C 758 185 770 184 786 184 L 786 0 C 782 0 777 -1 770 -1 C 762 -1 754 -2 746 -2 L 705 -2 C 683 -2 664 0 649 2 C 633 5 620 10 609 16 C 598 22 589 29 582 39 C 574 49 568 60 563 74 C 551 62 539 50 525 40 C 511 30 494 21 475 14 C 455 7 433 2 407 -2 C 381 -6 351 -8 317 -8 Z M 380 595 C 345 589 317 578 297 562 C 277 546 262 523 254 494 C 246 465 242 427 242 381 C 242 343 243 311 246 284 C 249 257 255 235 263 218 C 271 200 283 187 298 179 C 313 170 333 166 358 166 C 394 166 423 172 445 185 C 466 197 482 214 492 235 C 502 256 509 280 512 307 C 514 334 516 362 516 391 L 516 604 L 510 604 C 458 604 414 601 380 595 Z M 148 1427 L 676 1427 L 676 1245 L 148 1245 L 148 1427 Z" unicode="" />
<glyph horiz-adv-x="944" d="M 350 1522 L 592 1522 L 924 0 L 705 0 L 647 287 L 287 287 L 229 0 L 20 0 L 350 1522 Z M 602 481 L 504 973 L 467 1178 L 430 973 L 332 481 L 602 481 Z M 469 1577 C 419 1577 377 1583 345 1596 C 312 1608 285 1627 265 1652 C 245 1677 230 1708 220 1745 C 210 1781 204 1824 200 1872 L 352 1884 C 354 1860 358 1839 362 1821 C 366 1803 372 1787 380 1775 C 388 1762 400 1752 414 1745 C 428 1738 446 1735 469 1735 C 491 1735 510 1738 524 1745 C 538 1752 549 1762 557 1775 C 565 1787 572 1803 576 1821 C 580 1839 583 1860 585 1884 L 739 1872 C 735 1824 728 1781 718 1744 C 708 1707 693 1676 673 1652 C 653 1627 626 1608 593 1596 C 560 1583 519 1577 469 1577 Z" unicode="" />
<glyph horiz-adv-x="825" d="M 317 -8 C 264 -8 220 0 185 14 C 149 29 121 52 100 82 C 79 112 64 151 56 198 C 47 245 43 301 43 365 C 43 447 51 514 68 567 C 84 620 111 662 148 693 C 184 724 231 746 288 758 C 345 770 414 776 496 776 L 516 776 C 515 802 514 826 513 847 C 511 872 505 893 497 910 C 489 926 476 938 460 946 C 443 954 420 958 391 958 C 371 958 351 957 331 955 C 311 953 291 950 272 946 C 252 942 234 938 217 934 C 200 929 185 924 172 920 L 102 1106 C 116 1111 134 1117 154 1123 C 174 1129 198 1134 224 1139 C 250 1144 278 1148 310 1152 C 342 1155 377 1157 416 1157 C 474 1157 523 1150 562 1137 C 601 1124 632 1105 655 1081 C 681 1053 698 1016 706 970 C 714 924 719 869 719 805 L 719 272 C 719 254 719 240 721 229 C 722 217 725 208 729 202 C 733 195 740 190 749 188 C 758 185 770 184 786 184 L 786 0 C 782 0 777 -1 770 -1 C 762 -1 754 -2 746 -2 L 705 -2 C 683 -2 664 0 649 2 C 633 5 620 10 609 16 C 598 22 589 29 582 39 C 574 49 568 60 563 74 C 551 62 539 50 525 40 C 511 30 494 21 475 14 C 455 7 433 2 407 -2 C 381 -6 351 -8 317 -8 Z M 380 595 C 345 589 317 578 297 562 C 277 546 262 523 254 494 C 246 465 242 427 242 381 C 242 343 243 311 246 284 C 249 257 255 235 263 218 C 271 200 283 187 298 179 C 313 170 333 166 358 166 C 394 166 423 172 445 185 C 466 197 482 214 492 235 C 502 256 509 280 512 307 C 514 334 516 362 516 391 L 516 604 L 510 604 C 458 604 414 601 380 595 Z M 410 1235 C 360 1235 318 1241 286 1254 C 253 1266 226 1285 206 1310 C 186 1335 171 1366 161 1403 C 151 1439 145 1482 141 1530 L 293 1542 C 295 1518 299 1497 303 1479 C 307 1461 313 1445 321 1433 C 329 1420 341 1410 355 1403 C 369 1396 387 1393 410 1393 C 432 1393 451 1396 465 1403 C 479 1410 490 1420 498 1433 C 506 1445 513 1461 517 1479 C 521 1497 524 1518 526 1542 L 680 1530 C 676 1482 669 1439 659 1402 C 649 1365 634 1334 614 1310 C 594 1285 567 1266 534 1254 C 501 1241 460 1235 410 1235 Z" unicode="" />
<glyph horiz-adv-x="944" d="M 350 1522 L 592 1522 L 924 0 L 848 0 C 810 -38 779 -73 757 -105 C 734 -137 723 -173 723 -211 C 723 -241 728 -262 739 -273 C 750 -283 769 -289 795 -289 L 870 -289 L 870 -412 L 772 -412 C 736 -412 705 -408 681 -401 C 657 -394 637 -383 622 -369 C 607 -354 596 -335 590 -313 C 583 -290 580 -263 580 -233 C 580 -208 583 -184 591 -162 C 598 -139 607 -117 619 -97 C 630 -77 643 -58 658 -40 C 672 -22 687 -6 702 10 L 647 287 L 287 287 L 229 0 L 20 0 L 350 1522 Z M 602 481 L 504 973 L 467 1178 L 430 973 L 332 481 L 602 481 Z" unicode="" />
<glyph horiz-adv-x="825" d="M 317 -8 C 264 -8 220 0 185 14 C 149 29 121 52 100 82 C 79 112 64 151 56 198 C 47 245 43 301 43 365 C 43 447 51 514 68 567 C 84 620 111 662 148 693 C 184 724 231 746 288 758 C 345 770 414 776 496 776 L 516 776 C 515 807 513 834 511 857 C 508 879 502 898 494 913 C 486 928 473 939 457 947 C 441 954 419 958 391 958 C 371 958 351 957 331 955 C 311 953 291 950 272 946 C 252 942 234 938 217 934 C 200 929 185 924 172 920 L 102 1106 C 116 1111 134 1117 154 1123 C 174 1129 198 1134 224 1139 C 250 1144 278 1148 310 1152 C 342 1155 377 1157 416 1157 C 474 1157 523 1150 562 1137 C 601 1124 632 1105 655 1081 C 681 1053 698 1016 706 970 C 714 924 719 869 719 805 L 719 272 C 719 254 719 240 721 229 C 722 217 725 208 729 202 C 733 195 740 190 749 188 C 758 185 770 184 786 184 L 786 0 C 748 -38 717 -73 695 -105 C 673 -137 662 -173 662 -211 C 662 -241 667 -262 678 -273 C 689 -283 707 -289 733 -289 L 811 -289 L 811 -412 L 713 -412 C 677 -412 646 -408 622 -401 C 597 -394 577 -383 562 -369 C 547 -354 536 -335 530 -313 C 523 -290 520 -263 520 -233 C 520 -207 523 -182 530 -159 C 537 -136 546 -115 558 -95 C 569 -75 581 -57 595 -41 C 609 -24 623 -9 637 4 C 617 9 602 17 591 29 C 579 40 570 55 563 74 C 551 62 539 50 525 40 C 511 30 494 21 475 14 C 455 7 433 2 407 -2 C 381 -6 351 -8 317 -8 Z M 358 166 C 394 166 423 172 445 185 C 466 197 482 214 492 235 C 502 256 509 280 512 307 C 514 334 516 362 516 391 L 516 604 L 510 604 C 458 604 414 601 380 595 C 345 589 317 578 297 562 C 277 546 262 523 254 494 C 246 465 242 427 242 381 C 242 343 243 311 246 284 C 249 257 255 235 263 218 C 271 200 283 187 298 179 C 313 170 333 166 358 166 Z" unicode="" />
<glyph horiz-adv-x="786" d="M 432 1903 L 671 1903 L 454 1587 L 270 1587 L 432 1903 Z M 494 -10 C 423 -10 363 -1 314 17 C 265 35 224 60 190 92 C 160 121 137 156 119 198 C 101 240 88 288 79 343 C 69 398 63 460 60 529 C 56 598 55 675 55 760 C 55 842 56 917 59 985 C 61 1053 67 1114 77 1169 C 86 1223 99 1271 116 1313 C 133 1355 156 1391 186 1421 C 218 1456 259 1483 309 1503 C 359 1522 420 1532 492 1532 C 520 1532 547 1531 571 1529 C 595 1527 617 1525 638 1521 C 659 1517 679 1513 698 1508 C 717 1502 736 1496 756 1489 L 680 1294 C 655 1303 627 1310 597 1316 C 567 1322 536 1325 504 1325 C 453 1325 412 1316 382 1298 C 351 1280 327 1249 311 1206 C 294 1162 283 1104 278 1031 C 272 958 270 866 270 756 C 270 646 272 554 278 482 C 283 409 294 351 311 308 C 327 264 351 234 382 216 C 412 198 453 190 504 190 C 542 190 575 193 603 200 C 631 207 659 217 688 229 L 764 41 C 745 33 726 26 707 20 C 688 14 668 8 646 4 C 624 0 601 -4 576 -6 C 551 -8 524 -10 494 -10 Z" unicode="" />
<glyph horiz-adv-x="627" d="M 356 1561 L 595 1561 L 378 1245 L 194 1245 L 356 1561 Z M 397 -8 C 345 -8 300 -1 262 12 C 224 25 192 44 164 68 C 138 91 117 120 101 154 C 85 188 74 226 66 269 C 58 312 52 359 50 411 C 48 462 47 517 47 575 C 47 629 48 681 50 729 C 52 777 57 822 64 863 C 71 904 81 941 95 974 C 109 1007 127 1036 150 1061 C 178 1091 212 1114 253 1131 C 294 1148 344 1157 403 1157 C 426 1157 447 1156 465 1155 C 483 1153 499 1151 514 1149 C 528 1147 542 1144 554 1141 C 566 1138 578 1135 590 1133 L 532 940 C 516 945 498 949 480 952 C 462 954 442 956 422 956 C 386 956 358 949 337 936 C 315 922 299 900 287 870 C 275 840 268 800 264 751 C 260 701 258 641 258 569 C 258 496 260 435 264 385 C 268 335 275 294 287 263 C 299 232 315 210 337 196 C 359 182 388 176 424 176 C 444 176 464 178 484 182 C 503 186 520 192 535 199 L 594 20 C 580 15 565 11 551 8 C 537 4 522 1 506 0 C 490 -2 474 -4 456 -6 C 438 -7 418 -8 397 -8 Z" unicode="" />
<glyph horiz-adv-x="786" d="M 94 1903 L 278 1903 L 395 1726 L 512 1903 L 690 1903 L 495 1587 L 288 1587 L 94 1903 Z M 494 -10 C 423 -10 363 -1 314 17 C 265 35 224 60 190 92 C 160 121 137 156 119 198 C 101 240 88 288 79 343 C 69 398 63 460 60 529 C 56 598 55 675 55 760 C 55 842 56 917 59 985 C 61 1053 67 1114 77 1169 C 86 1223 99 1271 116 1313 C 133 1355 156 1391 186 1421 C 218 1456 259 1483 309 1503 C 359 1522 420 1532 492 1532 C 520 1532 547 1531 571 1529 C 595 1527 617 1525 638 1521 C 659 1517 679 1513 698 1508 C 717 1502 736 1496 756 1489 L 680 1294 C 655 1303 627 1310 597 1316 C 567 1322 536 1325 504 1325 C 453 1325 412 1316 382 1298 C 351 1280 327 1249 311 1206 C 294 1162 283 1104 278 1031 C 272 958 270 866 270 756 C 270 646 272 554 278 482 C 283 409 294 351 311 308 C 327 264 351 234 382 216 C 412 198 453 190 504 190 C 542 190 575 193 603 200 C 631 207 659 217 688 229 L 764 41 C 745 33 726 26 707 20 C 688 14 668 8 646 4 C 624 0 601 -4 576 -6 C 551 -8 524 -10 494 -10 Z" unicode="" />
<glyph horiz-adv-x="627" d="M 18 1561 L 202 1561 L 319 1384 L 436 1561 L 614 1561 L 419 1245 L 212 1245 L 18 1561 Z M 397 -8 C 345 -8 300 -1 262 12 C 224 25 192 44 164 68 C 138 91 117 120 101 154 C 85 188 74 226 66 269 C 58 312 52 359 50 411 C 48 462 47 517 47 575 C 47 629 48 681 50 729 C 52 777 57 822 64 863 C 71 904 81 941 95 974 C 109 1007 127 1036 150 1061 C 178 1091 212 1114 253 1131 C 294 1148 344 1157 403 1157 C 426 1157 447 1156 465 1155 C 483 1153 499 1151 514 1149 C 528 1147 542 1144 554 1141 C 566 1138 578 1135 590 1133 L 532 940 C 516 945 498 949 480 952 C 462 954 442 956 422 956 C 386 956 358 949 337 936 C 315 922 299 900 287 870 C 275 840 268 800 264 751 C 260 701 258 641 258 569 C 258 496 260 435 264 385 C 268 335 275 294 287 263 C 299 232 315 210 337 196 C 359 182 388 176 424 176 C 444 176 464 178 484 182 C 503 186 520 192 535 199 L 594 20 C 580 15 565 11 551 8 C 537 4 522 1 506 0 C 490 -2 474 -4 456 -6 C 438 -7 418 -8 397 -8 Z" unicode="" />
<glyph horiz-adv-x="963" d="M 180 1903 L 364 1903 L 481 1726 L 598 1903 L 776 1903 L 581 1587 L 374 1587 L 180 1903 Z M 94 1518 L 442 1518 C 524 1518 594 1508 651 1489 C 707 1470 753 1442 788 1405 C 816 1375 838 1340 854 1299 C 870 1258 882 1211 890 1157 C 898 1103 903 1044 905 978 C 907 912 909 839 909 760 C 909 676 907 599 905 531 C 903 462 897 400 889 346 C 880 292 867 244 849 203 C 831 162 808 128 778 100 C 743 66 698 40 642 24 C 586 8 518 0 438 0 L 94 0 L 94 1518 Z M 444 186 C 502 186 548 194 581 212 C 614 229 639 259 655 303 C 671 346 682 404 686 478 C 690 552 692 645 692 758 C 692 831 691 896 689 953 C 687 1009 684 1059 679 1101 C 673 1143 665 1178 654 1206 C 643 1234 628 1257 610 1275 C 591 1292 568 1304 540 1312 C 512 1319 479 1323 440 1323 L 307 1323 L 307 186 L 444 186 Z" unicode="" />
<glyph horiz-adv-x="1030" d="M 850 1214 C 870 1226 886 1237 898 1246 C 910 1254 919 1263 925 1271 C 931 1279 935 1289 937 1299 C 939 1309 940 1323 940 1341 L 850 1341 L 850 1563 L 1053 1563 L 1053 1366 C 1053 1338 1051 1313 1048 1292 C 1045 1270 1038 1251 1028 1233 C 1018 1215 1003 1197 983 1181 C 963 1165 937 1148 905 1130 L 850 1214 Z M 332 -10 C 288 -10 252 -3 222 10 C 192 24 166 41 145 63 C 121 87 103 116 91 151 C 78 186 68 225 62 269 C 56 313 52 360 51 412 C 49 464 49 519 49 578 C 49 637 49 693 51 745 C 52 797 56 844 63 888 C 70 931 81 970 95 1004 C 109 1038 128 1068 154 1092 C 175 1111 201 1127 231 1139 C 261 1151 298 1157 340 1157 C 396 1157 443 1151 481 1139 C 519 1127 550 1109 573 1083 L 573 1563 L 778 1563 L 778 8 L 608 -2 L 598 78 C 574 46 540 24 494 10 C 448 -3 394 -10 332 -10 Z M 406 178 C 444 178 475 185 497 199 C 519 213 536 235 547 267 C 558 298 565 339 568 389 C 571 439 573 499 573 571 C 573 641 571 701 568 751 C 565 800 558 840 547 871 C 536 901 519 923 497 937 C 475 951 444 958 406 958 C 370 958 343 950 323 934 C 303 918 288 894 278 862 C 268 830 263 789 261 741 C 259 692 258 635 258 571 C 258 505 259 448 261 399 C 263 349 268 308 278 276 C 288 243 303 218 323 202 C 343 186 370 178 406 178 Z" unicode="" />
<glyph horiz-adv-x="963" d="M 4 860 L 94 860 L 94 1518 L 442 1518 C 524 1518 594 1508 651 1489 C 707 1470 753 1442 788 1405 C 816 1375 838 1340 854 1299 C 870 1258 882 1211 890 1157 C 898 1103 903 1044 905 978 C 907 912 909 839 909 760 C 909 676 907 599 905 531 C 903 462 897 400 889 346 C 880 292 867 244 849 203 C 831 162 808 128 778 100 C 743 66 698 40 642 24 C 586 8 518 0 438 0 L 94 0 L 94 680 L 4 680 L 4 860 Z M 444 186 C 502 186 548 194 581 212 C 614 229 639 259 655 303 C 671 346 682 404 686 478 C 690 552 692 645 692 758 C 692 831 691 896 689 953 C 687 1009 684 1059 679 1101 C 673 1143 665 1178 654 1206 C 643 1234 628 1257 610 1275 C 591 1292 568 1304 540 1312 C 512 1319 479 1323 440 1323 L 307 1323 L 307 860 L 489 860 L 489 680 L 307 680 L 307 186 L 444 186 Z" unicode="" />
<glyph horiz-adv-x="858" d="M 332 -10 C 288 -10 252 -3 222 10 C 192 24 166 41 145 63 C 121 87 103 116 91 151 C 78 186 68 225 62 269 C 56 313 52 360 51 412 C 49 464 49 519 49 578 C 49 637 49 693 51 745 C 52 797 56 844 63 888 C 70 931 81 970 95 1004 C 109 1038 128 1068 154 1092 C 175 1111 201 1127 231 1139 C 261 1151 298 1157 340 1157 C 396 1157 443 1151 481 1139 C 519 1127 550 1109 573 1083 L 573 1255 L 418 1255 L 418 1432 L 573 1432 L 573 1563 L 778 1563 L 778 1432 L 858 1432 L 858 1255 L 778 1255 L 778 8 L 608 -2 L 598 78 C 574 46 540 24 494 10 C 448 -3 394 -10 332 -10 Z M 406 178 C 444 178 475 185 497 199 C 519 213 536 235 547 267 C 558 298 565 339 568 389 C 571 439 573 499 573 571 C 573 641 571 701 568 751 C 565 800 558 840 547 871 C 536 901 519 923 497 937 C 475 951 444 958 406 958 C 370 958 343 950 323 934 C 303 918 288 894 278 862 C 268 830 263 789 261 741 C 259 692 258 635 258 571 C 258 505 259 448 261 399 C 263 349 268 308 278 276 C 288 243 303 218 323 202 C 343 186 370 178 406 178 Z" unicode="" />
<glyph horiz-adv-x="825" d="M 94 1518 L 764 1518 L 764 1319 L 307 1319 L 307 874 L 743 874 L 743 676 L 307 676 L 307 195 L 764 195 L 764 0 L 94 0 L 94 1518 Z M 150 1769 L 678 1769 L 678 1587 L 150 1587 L 150 1769 Z" unicode="" />
<glyph horiz-adv-x="770" d="M 393 -10 C 345 -10 302 -3 262 9 C 222 22 189 42 164 68 C 138 92 118 120 103 154 C 87 188 75 226 67 269 C 59 311 53 358 51 410 C 48 461 47 516 47 575 C 47 633 48 687 50 737 C 52 786 57 831 65 871 C 73 911 84 947 98 979 C 112 1011 130 1039 154 1063 C 179 1091 212 1114 254 1131 C 295 1148 346 1157 406 1157 C 459 1157 504 1150 542 1137 C 579 1123 609 1103 633 1077 C 653 1053 670 1023 683 988 C 695 952 705 910 711 861 C 717 812 720 756 721 692 C 722 628 722 555 721 473 L 247 473 C 247 439 248 408 250 382 C 253 331 261 290 273 259 C 285 228 302 206 325 192 C 348 178 380 172 420 172 C 465 172 508 176 548 186 C 588 195 624 205 657 217 L 715 41 C 688 32 662 24 638 18 C 614 12 589 6 564 2 C 539 -1 513 -5 485 -7 C 457 -9 427 -10 393 -10 Z M 539 659 C 538 718 536 767 534 807 C 531 846 525 877 516 901 C 507 924 494 940 476 950 C 458 960 433 965 403 965 C 367 965 338 957 318 943 C 297 929 281 906 271 874 C 260 842 253 802 250 752 C 248 724 247 693 246 659 L 539 659 Z M 121 1427 L 649 1427 L 649 1245 L 121 1245 L 121 1427 Z" unicode="" />
<glyph horiz-adv-x="825" d="M 94 1518 L 764 1518 L 764 1319 L 307 1319 L 307 874 L 743 874 L 743 676 L 307 676 L 307 195 L 764 195 L 764 0 L 94 0 L 94 1518 Z M 309 1833 L 516 1833 L 516 1587 L 309 1587 L 309 1833 Z" unicode="" />
<glyph horiz-adv-x="770" d="M 393 -10 C 345 -10 302 -3 262 9 C 222 22 189 42 164 68 C 138 92 118 120 103 154 C 87 188 75 226 67 269 C 59 311 53 358 51 410 C 48 461 47 516 47 575 C 47 633 48 687 50 737 C 52 786 57 831 65 871 C 73 911 84 947 98 979 C 112 1011 130 1039 154 1063 C 179 1091 212 1114 254 1131 C 295 1148 346 1157 406 1157 C 459 1157 504 1150 542 1137 C 579 1123 609 1103 633 1077 C 653 1053 670 1023 683 988 C 695 952 705 910 711 861 C 717 812 720 756 721 692 C 722 628 722 555 721 473 L 247 473 C 247 439 248 408 250 382 C 253 331 261 290 273 259 C 285 228 302 206 325 192 C 348 178 380 172 420 172 C 465 172 508 176 548 186 C 588 195 624 205 657 217 L 715 41 C 688 32 662 24 638 18 C 614 12 589 6 564 2 C 539 -1 513 -5 485 -7 C 457 -9 427 -10 393 -10 Z M 539 659 C 538 718 536 767 534 807 C 531 846 525 877 516 901 C 507 924 494 940 476 950 C 458 960 433 965 403 965 C 367 965 338 957 318 943 C 297 929 281 906 271 874 C 260 842 253 802 250 752 C 248 724 247 693 246 659 L 539 659 Z M 280 1491 L 487 1491 L 487 1245 L 280 1245 L 280 1491 Z" unicode="" />
<glyph horiz-adv-x="825" d="M 94 1518 L 764 1518 L 764 1319 L 307 1319 L 307 874 L 743 874 L 743 676 L 307 676 L 307 195 L 764 195 L 764 0 L 694 0 C 665 -37 641 -73 621 -108 C 601 -142 592 -177 592 -211 C 592 -241 597 -262 609 -273 C 620 -283 638 -289 664 -289 L 741 -289 L 741 -412 L 643 -412 C 607 -412 576 -408 552 -401 C 527 -394 507 -383 492 -369 C 477 -354 466 -335 460 -313 C 454 -290 451 -263 451 -233 C 451 -208 454 -185 460 -163 C 466 -141 473 -121 483 -102 C 492 -82 503 -64 515 -47 C 527 -30 540 -14 553 0 L 94 0 L 94 1518 Z" unicode="" />
<glyph horiz-adv-x="770" d="M 393 -10 C 345 -10 302 -3 262 9 C 222 22 189 42 164 68 C 138 92 118 120 103 154 C 87 188 75 226 67 269 C 59 311 53 358 51 410 C 48 461 47 516 47 575 C 47 633 48 687 50 737 C 52 786 57 831 65 871 C 73 911 84 947 98 979 C 112 1011 130 1039 154 1063 C 179 1091 212 1114 254 1131 C 295 1148 346 1157 406 1157 C 459 1157 504 1150 542 1137 C 579 1123 609 1103 633 1077 C 653 1053 670 1023 683 988 C 695 952 705 910 711 861 C 717 812 720 756 721 692 C 722 628 722 555 721 473 L 246 473 C 246 417 249 369 255 331 C 260 293 269 262 282 238 C 294 214 312 197 334 187 C 356 177 384 172 420 172 C 465 172 508 176 548 186 C 588 195 624 205 657 217 L 715 41 C 698 35 682 30 667 26 C 651 21 637 17 623 14 C 591 -24 563 -62 541 -100 C 519 -138 508 -175 508 -211 C 508 -241 513 -262 525 -273 C 536 -283 554 -289 580 -289 L 657 -289 L 657 -412 L 559 -412 C 523 -412 492 -408 468 -401 C 443 -394 423 -383 408 -369 C 393 -354 382 -335 376 -313 C 370 -290 367 -263 367 -233 C 367 -210 369 -188 375 -167 C 380 -146 387 -126 396 -108 C 405 -90 415 -72 426 -56 C 437 -39 449 -23 461 -8 C 450 -9 439 -10 428 -10 L 393 -10 Z M 403 965 C 371 965 345 959 325 948 C 305 936 290 918 278 894 C 266 870 258 838 254 799 C 249 760 246 713 246 659 L 539 659 C 538 718 536 767 534 807 C 531 846 525 877 516 901 C 507 924 494 940 476 950 C 458 960 433 965 403 965 Z" unicode="" />
<glyph horiz-adv-x="825" d="M 115 1903 L 299 1903 L 416 1726 L 533 1903 L 711 1903 L 516 1587 L 309 1587 L 115 1903 Z M 94 1518 L 764 1518 L 764 1319 L 307 1319 L 307 874 L 743 874 L 743 676 L 307 676 L 307 195 L 764 195 L 764 0 L 94 0 L 94 1518 Z" unicode="" />
<glyph horiz-adv-x="770" d="M 86 1561 L 270 1561 L 387 1384 L 504 1561 L 682 1561 L 487 1245 L 280 1245 L 86 1561 Z M 393 -10 C 345 -10 302 -3 262 9 C 222 22 189 42 164 68 C 138 92 118 120 103 154 C 87 188 75 226 67 269 C 59 311 53 358 51 410 C 48 461 47 516 47 575 C 47 633 48 687 50 737 C 52 786 57 831 65 871 C 73 911 84 947 98 979 C 112 1011 130 1039 154 1063 C 179 1091 212 1114 254 1131 C 295 1148 346 1157 406 1157 C 459 1157 504 1150 542 1137 C 579 1123 609 1103 633 1077 C 653 1053 670 1023 683 988 C 695 952 705 910 711 861 C 717 812 720 756 721 692 C 722 628 722 555 721 473 L 247 473 C 247 439 248 408 250 382 C 253 331 261 290 273 259 C 285 228 302 206 325 192 C 348 178 380 172 420 172 C 465 172 508 176 548 186 C 588 195 624 205 657 217 L 715 41 C 688 32 662 24 638 18 C 614 12 589 6 564 2 C 539 -1 513 -5 485 -7 C 457 -9 427 -10 393 -10 Z M 539 659 C 538 718 536 767 534 807 C 531 846 525 877 516 901 C 507 924 494 940 476 950 C 458 960 433 965 403 965 C 367 965 338 957 318 943 C 297 929 281 906 271 874 C 260 842 253 802 250 752 C 248 724 247 693 246 659 L 539 659 Z" unicode="" />
<glyph horiz-adv-x="913" d="M 465 -10 C 403 -10 350 -3 306 10 C 262 23 225 44 195 74 C 163 102 137 139 119 183 C 101 227 87 279 77 337 C 67 395 61 459 59 530 C 56 601 55 678 55 760 C 55 840 56 913 59 981 C 61 1048 67 1109 76 1164 C 85 1219 98 1268 115 1311 C 132 1353 155 1390 184 1421 C 200 1438 219 1453 240 1467 C 260 1481 284 1492 310 1502 C 336 1512 365 1519 397 1524 C 429 1529 464 1532 504 1532 C 574 1532 635 1525 689 1513 C 743 1500 786 1487 819 1473 L 731 1284 C 703 1296 671 1307 635 1315 C 599 1323 560 1327 516 1327 C 462 1327 418 1318 385 1300 C 352 1282 327 1251 309 1207 C 291 1163 280 1105 274 1032 C 268 958 266 866 266 756 C 266 649 268 559 272 486 C 276 412 285 353 300 308 C 314 262 335 230 363 210 C 390 190 427 180 475 180 C 516 180 549 186 574 198 C 598 210 617 231 630 262 C 643 293 652 335 656 387 C 660 439 662 506 662 588 L 662 688 L 430 688 L 430 883 L 870 883 L 870 637 C 870 559 868 489 864 428 C 860 367 854 314 845 268 C 836 222 824 182 809 150 C 793 118 774 91 752 70 C 720 40 681 20 634 8 C 587 -4 531 -10 465 -10 Z M 453 1577 C 403 1577 361 1583 329 1596 C 296 1608 269 1627 249 1652 C 229 1677 214 1708 204 1745 C 194 1781 188 1824 184 1872 L 336 1884 C 338 1860 342 1839 346 1821 C 350 1803 356 1787 364 1775 C 372 1762 384 1752 398 1745 C 412 1738 430 1735 453 1735 C 475 1735 494 1738 508 1745 C 522 1752 533 1762 541 1775 C 549 1787 556 1803 560 1821 C 564 1839 567 1860 569 1884 L 723 1872 C 719 1824 712 1781 702 1744 C 692 1707 677 1676 657 1652 C 637 1627 610 1608 577 1596 C 544 1583 503 1577 453 1577 Z" unicode="" />
<glyph horiz-adv-x="819" d="M 397 418 C 364 418 334 420 307 425 C 306 422 305 420 305 418 C 299 403 297 389 297 375 C 297 361 298 350 301 341 C 303 331 309 324 317 318 C 325 312 337 307 353 305 C 369 302 390 301 416 301 C 493 301 556 295 606 283 C 655 271 694 253 722 229 C 750 205 770 175 781 139 C 791 103 797 62 797 14 C 797 -48 789 -100 773 -143 C 757 -185 733 -220 701 -246 C 668 -272 627 -292 577 -304 C 527 -316 467 -322 399 -322 C 327 -322 267 -317 219 -307 C 170 -297 131 -281 101 -259 C 71 -237 49 -208 36 -174 C 22 -139 16 -97 16 -47 C 16 17 28 71 52 115 C 76 159 118 190 178 209 C 140 241 121 287 121 348 C 121 384 128 417 142 448 C 148 462 155 475 164 487 C 156 493 148 500 142 508 C 89 568 63 659 63 782 C 63 844 69 898 81 946 C 93 993 113 1032 140 1064 C 167 1096 202 1120 244 1136 C 286 1152 337 1161 397 1161 C 413 1161 431 1160 451 1158 L 471 1156 L 784 1206 L 784 1036 L 669 1036 C 685 1017 697 994 707 966 C 724 918 733 856 733 782 C 733 659 706 568 652 508 C 598 448 513 418 397 418 Z M 401 -168 C 435 -168 465 -165 489 -159 C 513 -153 533 -143 549 -130 C 564 -117 575 -100 582 -80 C 588 -60 592 -35 592 -6 C 592 20 588 41 582 59 C 576 77 565 91 550 101 C 535 111 515 119 491 124 C 466 128 435 131 399 131 C 360 131 329 127 305 120 C 281 112 263 102 251 88 C 238 74 229 58 225 40 C 221 22 219 2 219 -20 C 219 -44 221 -66 226 -85 C 230 -103 239 -119 252 -131 C 265 -143 284 -153 308 -159 C 332 -165 363 -168 401 -168 Z M 399 592 C 427 592 449 596 467 604 C 484 612 497 625 507 641 C 517 657 523 677 527 701 C 530 725 532 752 532 784 C 532 815 530 843 527 867 C 523 891 517 911 507 927 C 497 943 484 956 467 964 C 449 972 427 977 399 977 C 371 977 348 972 331 964 C 313 956 300 943 290 927 C 280 911 274 891 271 867 C 267 843 266 815 266 784 C 266 752 267 725 271 701 C 274 677 280 657 290 641 C 300 625 313 612 331 604 C 348 596 371 592 399 592 Z M 406 1235 C 356 1235 314 1241 282 1254 C 249 1266 222 1285 202 1310 C 182 1335 167 1366 157 1403 C 147 1439 141 1482 137 1530 L 289 1542 C 291 1518 295 1497 299 1479 C 303 1461 309 1445 317 1433 C 325 1420 337 1410 351 1403 C 365 1396 383 1393 406 1393 C 428 1393 447 1396 461 1403 C 475 1410 486 1420 494 1433 C 502 1445 509 1461 513 1479 C 517 1497 520 1518 522 1542 L 676 1530 C 672 1482 665 1439 655 1402 C 645 1365 630 1334 610 1310 C 590 1285 563 1266 530 1254 C 497 1241 456 1235 406 1235 Z" unicode="" />
<glyph horiz-adv-x="913" d="M 348 -453 C 368 -440 384 -429 396 -421 C 408 -413 417 -404 423 -396 C 429 -388 433 -378 435 -368 C 437 -358 438 -344 438 -326 L 348 -326 L 348 -94 L 563 -94 L 563 -319 C 563 -345 561 -368 557 -388 C 553 -408 546 -426 535 -444 C 524 -462 508 -479 488 -496 C 468 -512 441 -530 407 -549 L 348 -453 Z M 465 -10 C 403 -10 350 -3 306 10 C 262 23 225 44 195 74 C 163 102 137 139 119 183 C 101 227 87 279 77 337 C 67 395 61 459 59 530 C 56 601 55 678 55 760 C 55 840 56 913 59 981 C 61 1048 67 1109 76 1164 C 85 1219 98 1268 115 1311 C 132 1353 155 1390 184 1421 C 200 1438 219 1453 240 1467 C 260 1481 284 1492 310 1502 C 336 1512 365 1519 397 1524 C 429 1529 464 1532 504 1532 C 574 1532 635 1525 689 1513 C 743 1500 786 1487 819 1473 L 731 1284 C 703 1296 671 1307 635 1315 C 599 1323 560 1327 516 1327 C 462 1327 418 1318 385 1300 C 352 1282 327 1251 309 1207 C 291 1163 280 1105 274 1032 C 268 958 266 866 266 756 C 266 649 268 559 272 486 C 276 412 285 353 300 308 C 314 262 335 230 363 210 C 390 190 427 180 475 180 C 516 180 549 186 574 198 C 598 210 617 231 630 262 C 643 293 652 335 656 387 C 660 439 662 506 662 588 L 662 688 L 430 688 L 430 883 L 870 883 L 870 637 C 870 559 868 489 864 428 C 860 367 854 314 845 268 C 836 222 824 182 809 150 C 793 118 774 91 752 70 C 720 40 681 20 634 8 C 587 -4 531 -10 465 -10 Z" unicode="" />
<glyph horiz-adv-x="819" d="M 301 1442 C 301 1471 302 1497 306 1519 C 310 1541 317 1561 329 1579 C 340 1597 356 1614 376 1630 C 396 1646 423 1663 457 1681 L 514 1593 C 494 1580 478 1569 466 1561 C 454 1552 444 1543 438 1535 C 431 1527 427 1517 425 1506 C 423 1495 422 1481 422 1464 L 512 1464 L 512 1245 L 301 1245 L 301 1442 Z M 397 418 C 364 418 334 420 307 425 C 306 422 305 420 305 418 C 299 403 297 389 297 375 C 297 361 298 350 301 341 C 303 331 309 324 317 318 C 325 312 337 307 353 305 C 369 302 390 301 416 301 C 493 301 556 295 606 283 C 655 271 694 253 722 229 C 750 205 770 175 781 139 C 791 103 797 62 797 14 C 797 -48 789 -100 773 -143 C 757 -185 733 -220 701 -246 C 668 -272 627 -292 577 -304 C 527 -316 467 -322 399 -322 C 327 -322 267 -317 219 -307 C 170 -297 131 -281 101 -259 C 71 -237 49 -208 36 -174 C 22 -139 16 -97 16 -47 C 16 17 28 71 52 115 C 76 159 118 190 178 209 C 140 241 121 287 121 348 C 121 384 128 417 142 448 C 148 462 155 475 164 487 C 156 493 148 500 142 508 C 89 568 63 659 63 782 C 63 844 69 898 81 946 C 93 993 113 1032 140 1064 C 167 1096 202 1120 244 1136 C 286 1152 337 1161 397 1161 C 413 1161 431 1160 451 1158 L 471 1156 L 784 1206 L 784 1036 L 669 1036 C 685 1017 697 994 707 966 C 724 918 733 856 733 782 C 733 659 706 568 652 508 C 598 448 513 418 397 418 Z M 401 -168 C 435 -168 465 -165 489 -159 C 513 -153 533 -143 549 -130 C 564 -117 575 -100 582 -80 C 588 -60 592 -35 592 -6 C 592 20 588 41 582 59 C 576 77 565 91 550 101 C 535 111 515 119 491 124 C 466 128 435 131 399 131 C 360 131 329 127 305 120 C 281 112 263 102 251 88 C 238 74 229 58 225 40 C 221 22 219 2 219 -20 C 219 -44 221 -66 226 -85 C 230 -103 239 -119 252 -131 C 265 -143 284 -153 308 -159 C 332 -165 363 -168 401 -168 Z M 399 592 C 427 592 449 596 467 604 C 484 612 497 625 507 641 C 517 657 523 677 527 701 C 530 725 532 752 532 784 C 532 815 530 843 527 867 C 523 891 517 911 507 927 C 497 943 484 956 467 964 C 449 972 427 977 399 977 C 371 977 348 972 331 964 C 313 956 300 943 290 927 C 280 911 274 891 271 867 C 267 843 266 815 266 784 C 266 752 267 725 271 701 C 274 677 280 657 290 641 C 300 625 313 612 331 604 C 348 596 371 592 399 592 Z" unicode="" />
<glyph horiz-adv-x="426" d="M 106 1518 L 319 1518 L 319 0 L 106 0 L 106 1518 Z M -48 1769 L 480 1769 L 480 1587 L -48 1587 L -48 1769 Z" unicode="" />
<glyph horiz-adv-x="379" d="M 86 1145 L 293 1145 L 293 0 L 86 0 L 86 1145 Z M -72 1427 L 456 1427 L 456 1245 L -72 1245 L -72 1427 Z" unicode="" />
<glyph horiz-adv-x="426" d="M 106 1518 L 319 1518 L 319 0 C 282 -38 253 -73 232 -105 C 211 -137 201 -173 201 -211 C 201 -241 206 -262 217 -273 C 228 -283 246 -289 272 -289 L 348 -289 L 348 -412 L 250 -412 C 214 -412 183 -408 159 -401 C 134 -394 114 -383 99 -369 C 84 -354 73 -335 67 -313 C 60 -290 57 -263 57 -233 C 57 -209 60 -186 67 -164 C 73 -142 82 -122 92 -102 C 102 -82 114 -64 127 -47 C 140 -30 153 -14 166 0 L 106 0 L 106 1518 Z" unicode="" />
<glyph horiz-adv-x="379" d="M 86 1145 L 293 1145 L 293 0 C 255 -38 226 -73 204 -105 C 182 -137 172 -173 172 -211 C 172 -241 178 -262 190 -273 C 202 -283 220 -289 246 -289 L 322 -289 L 322 -412 L 223 -412 C 187 -412 156 -408 132 -401 C 108 -394 88 -383 73 -369 C 58 -354 47 -335 41 -313 C 34 -290 31 -263 31 -233 C 31 -209 34 -186 40 -164 C 46 -142 55 -122 65 -102 C 75 -82 87 -64 100 -47 C 113 -30 126 -14 139 0 L 86 0 L 86 1145 Z M 86 1513 L 293 1513 L 293 1272 L 86 1272 L 86 1513 Z" unicode="" />
<glyph horiz-adv-x="426" d="M 106 1518 L 319 1518 L 319 0 L 106 0 L 106 1518 Z M 111 1833 L 318 1833 L 318 1587 L 111 1587 L 111 1833 Z" unicode="" />
<glyph horiz-adv-x="379" d="M 86 1145 L 293 1145 L 293 0 L 86 0 L 86 1145 Z" unicode="" />
<glyph horiz-adv-x="915" d="M 348 -453 C 368 -440 384 -429 396 -421 C 408 -413 417 -404 423 -396 C 429 -388 433 -378 435 -368 C 437 -358 438 -344 438 -326 L 348 -326 L 348 -94 L 563 -94 L 563 -319 C 563 -345 561 -368 557 -388 C 553 -408 546 -426 535 -444 C 524 -462 508 -479 488 -496 C 468 -512 441 -530 407 -549 L 348 -453 Z M 94 1518 L 305 1518 L 305 823 L 643 1518 L 866 1518 L 568 920 L 887 0 L 662 0 L 428 678 L 305 409 L 305 0 L 94 0 L 94 1518 Z" unicode="" />
<glyph horiz-adv-x="784" d="M 283 -453 C 303 -440 319 -429 331 -421 C 343 -413 352 -404 358 -396 C 364 -388 368 -378 370 -368 C 372 -358 373 -344 373 -326 L 283 -326 L 283 -94 L 498 -94 L 498 -319 C 498 -345 496 -368 492 -388 C 488 -408 481 -426 470 -444 C 459 -462 443 -479 423 -496 C 403 -512 376 -530 342 -549 L 283 -453 Z M 80 1563 L 281 1563 L 281 631 L 539 1145 L 750 1145 L 500 661 L 772 0 L 553 0 L 366 455 L 281 286 L 281 0 L 80 0 L 80 1563 Z" unicode="" />
<glyph horiz-adv-x="766" d="M 282 1903 L 521 1903 L 304 1587 L 120 1587 L 282 1903 Z M 94 1518 L 307 1518 L 307 195 L 745 195 L 745 0 L 94 0 L 94 1518 Z" unicode="" />
<glyph horiz-adv-x="438" d="M 263 1956 L 502 1956 L 285 1640 L 101 1640 L 263 1956 Z M 348 -2 C 296 -2 253 2 219 11 C 185 19 158 34 138 54 C 118 74 105 101 97 135 C 89 168 86 210 86 260 L 86 1563 L 293 1563 L 293 285 C 293 263 293 246 295 233 C 296 220 300 210 306 203 C 312 195 320 190 332 188 C 344 185 360 184 381 184 L 389 184 L 389 0 C 385 -1 379 -2 369 -2 L 348 -2 Z" unicode="" />
<glyph horiz-adv-x="766" d="M 274 -453 C 294 -440 310 -429 322 -421 C 334 -413 343 -404 349 -396 C 355 -388 359 -378 361 -368 C 363 -358 364 -344 364 -326 L 274 -326 L 274 -94 L 489 -94 L 489 -319 C 489 -345 487 -368 483 -388 C 479 -408 472 -426 461 -444 C 450 -462 434 -479 414 -496 C 394 -512 367 -530 333 -549 L 274 -453 Z M 94 1518 L 307 1518 L 307 195 L 745 195 L 745 0 L 94 0 L 94 1518 Z" unicode="" />
<glyph horiz-adv-x="438" d="M 111 -453 C 131 -440 147 -429 159 -421 C 171 -413 180 -404 186 -396 C 192 -388 196 -378 198 -368 C 200 -358 201 -344 201 -326 L 111 -326 L 111 -94 L 326 -94 L 326 -319 C 326 -345 324 -368 320 -388 C 316 -408 309 -426 298 -444 C 287 -462 271 -479 251 -496 C 231 -512 204 -530 170 -549 L 111 -453 Z M 348 -2 C 296 -2 253 2 219 11 C 185 19 158 34 138 54 C 118 74 105 101 97 135 C 89 168 86 210 86 260 L 86 1563 L 293 1563 L 293 285 C 293 263 293 246 295 233 C 296 220 300 210 306 203 C 312 195 320 190 332 188 C 344 185 360 184 381 184 L 389 184 L 389 0 C 385 -1 379 -2 369 -2 L 348 -2 Z" unicode="" />
<glyph horiz-adv-x="766" d="M 408 1214 C 428 1226 444 1237 456 1246 C 468 1254 477 1263 483 1271 C 489 1279 494 1289 496 1299 C 498 1309 500 1323 500 1341 L 408 1341 L 408 1563 L 610 1563 L 610 1366 C 610 1338 608 1313 605 1292 C 602 1270 595 1251 585 1233 C 575 1215 560 1197 541 1181 C 521 1165 495 1148 463 1130 L 408 1214 Z M 94 1518 L 307 1518 L 307 195 L 745 195 L 745 0 L 94 0 L 94 1518 Z" unicode="" />
<glyph horiz-adv-x="565" d="M 362 1214 C 382 1226 398 1237 410 1246 C 422 1254 432 1263 438 1271 C 444 1279 449 1289 451 1299 C 453 1309 455 1323 455 1341 L 365 1341 L 365 1563 L 567 1563 L 567 1366 C 567 1338 565 1313 562 1292 C 559 1270 552 1251 542 1233 C 532 1215 517 1197 497 1181 C 477 1165 451 1148 418 1130 L 362 1214 Z M 348 -2 C 296 -2 253 2 219 11 C 185 19 158 34 138 54 C 118 74 105 101 97 135 C 89 168 86 210 86 260 L 86 1563 L 293 1563 L 293 285 C 293 263 293 246 295 233 C 296 220 300 210 306 203 C 312 195 320 190 332 188 C 344 185 360 184 381 184 L 389 184 L 389 0 C 385 -1 379 -2 369 -2 L 348 -2 Z" unicode="" />
<glyph horiz-adv-x="766" d="M 4 793 L 94 821 L 94 1518 L 307 1518 L 307 888 L 489 946 L 489 764 L 307 706 L 307 195 L 745 195 L 745 0 L 94 0 L 94 638 L 4 610 L 4 793 Z" unicode="" />
<glyph horiz-adv-x="520" d="M 0 1006 L 127 1079 L 127 1563 L 334 1563 L 334 1197 L 481 1282 L 481 1098 L 334 1013 L 334 285 C 334 263 334 246 336 233 C 337 220 341 210 347 203 C 353 195 361 190 373 188 C 385 185 401 184 422 184 L 430 184 L 430 0 C 426 -1 420 -2 410 -2 L 389 -2 C 337 -2 294 2 260 11 C 226 19 199 34 179 54 C 159 74 146 101 138 135 C 130 168 127 210 127 260 L 127 894 L 0 821 L 0 1006 Z" unicode="" />
<glyph horiz-adv-x="979" d="M 529 1903 L 768 1903 L 551 1587 L 367 1587 L 529 1903 Z M 94 1518 L 315 1518 L 614 727 L 688 530 L 688 1518 L 885 1518 L 885 0 L 692 0 L 360 860 L 293 1040 L 293 0 L 94 0 L 94 1518 Z" unicode="" />
<glyph horiz-adv-x="856" d="M 467 1561 L 706 1561 L 489 1245 L 305 1245 L 467 1561 Z M 80 1133 L 250 1143 L 262 1075 C 278 1098 306 1117 345 1133 C 384 1149 438 1157 506 1157 C 563 1157 608 1150 641 1138 C 673 1125 699 1108 719 1087 C 745 1055 762 1015 770 967 C 778 919 782 865 782 803 L 782 0 L 575 0 L 575 733 C 575 778 573 815 569 845 C 565 874 559 897 550 914 C 540 930 527 942 510 948 C 493 954 472 958 446 958 C 410 958 381 952 360 941 C 339 929 323 912 312 890 C 300 867 293 839 290 805 C 286 771 285 732 285 688 L 285 0 L 80 0 L 80 1133 Z" unicode="" />
<glyph horiz-adv-x="979" d="M 381 -453 C 401 -440 417 -429 429 -421 C 441 -413 450 -404 456 -396 C 462 -388 466 -378 468 -368 C 470 -358 471 -344 471 -326 L 381 -326 L 381 -94 L 596 -94 L 596 -319 C 596 -345 594 -368 590 -388 C 586 -408 579 -426 568 -444 C 557 -462 541 -479 521 -496 C 501 -512 474 -530 440 -549 L 381 -453 Z M 94 1518 L 315 1518 L 614 727 L 688 530 L 688 1518 L 885 1518 L 885 0 L 692 0 L 360 860 L 293 1040 L 293 0 L 94 0 L 94 1518 Z" unicode="" />
<glyph horiz-adv-x="856" d="M 319 -453 C 339 -440 355 -429 367 -421 C 379 -413 388 -404 394 -396 C 400 -388 404 -378 406 -368 C 408 -358 409 -344 409 -326 L 319 -326 L 319 -94 L 534 -94 L 534 -319 C 534 -345 532 -368 528 -388 C 524 -408 517 -426 506 -444 C 495 -462 479 -479 459 -496 C 439 -512 412 -530 378 -549 L 319 -453 Z M 80 1133 L 250 1143 L 262 1075 C 278 1098 306 1117 345 1133 C 384 1149 438 1157 506 1157 C 563 1157 608 1150 641 1138 C 673 1125 699 1108 719 1087 C 745 1055 762 1015 770 967 C 778 919 782 865 782 803 L 782 0 L 575 0 L 575 733 C 575 778 573 815 569 845 C 565 874 559 897 550 914 C 540 930 527 942 510 948 C 493 954 472 958 446 958 C 410 958 381 952 360 941 C 339 929 323 912 312 890 C 300 867 293 839 290 805 C 286 771 285 732 285 688 L 285 0 L 80 0 L 80 1133 Z" unicode="" />
<glyph horiz-adv-x="979" d="M 191 1903 L 375 1903 L 492 1726 L 609 1903 L 787 1903 L 592 1587 L 385 1587 L 191 1903 Z M 94 1518 L 315 1518 L 614 727 L 688 530 L 688 1518 L 885 1518 L 885 0 L 692 0 L 360 860 L 293 1040 L 293 0 L 94 0 L 94 1518 Z" unicode="" />
<glyph horiz-adv-x="856" d="M 129 1561 L 313 1561 L 430 1384 L 547 1561 L 725 1561 L 530 1245 L 323 1245 L 129 1561 Z M 80 1133 L 250 1143 L 262 1075 C 278 1098 306 1117 345 1133 C 384 1149 438 1157 506 1157 C 563 1157 608 1150 641 1138 C 673 1125 699 1108 719 1087 C 745 1055 762 1015 770 967 C 778 919 782 865 782 803 L 782 0 L 575 0 L 575 733 C 575 778 573 815 569 845 C 565 874 559 897 550 914 C 540 930 527 942 510 948 C 493 954 472 958 446 958 C 410 958 381 952 360 941 C 339 929 323 912 312 890 C 300 867 293 839 290 805 C 286 771 285 732 285 688 L 285 0 L 80 0 L 80 1133 Z" unicode="" />
<glyph horiz-adv-x="997" d="M 232 1769 L 760 1769 L 760 1587 L 232 1587 L 232 1769 Z M 498 -10 C 427 -10 367 -1 318 17 C 268 35 227 60 193 92 C 160 123 134 160 116 204 C 98 248 84 297 75 353 C 66 409 60 471 58 539 C 56 607 55 680 55 760 C 55 838 56 910 58 976 C 60 1042 65 1103 74 1158 C 82 1213 95 1262 112 1306 C 128 1349 152 1387 182 1419 C 215 1454 257 1482 309 1503 C 360 1523 423 1534 498 1534 C 572 1534 634 1523 686 1503 C 738 1482 780 1455 813 1421 C 843 1389 866 1351 883 1307 C 900 1263 913 1214 922 1159 C 930 1104 936 1043 938 977 C 940 910 942 838 942 760 C 942 680 940 606 938 538 C 936 470 930 408 921 352 C 911 296 898 246 880 203 C 862 159 837 122 805 92 C 771 60 728 35 678 17 C 628 -1 568 -10 498 -10 Z M 498 186 C 550 186 591 195 621 215 C 651 235 673 267 689 312 C 704 357 714 416 718 489 C 722 561 725 650 725 756 C 725 861 722 950 718 1023 C 714 1096 704 1155 689 1201 C 673 1246 651 1279 621 1299 C 591 1319 550 1329 498 1329 C 446 1329 405 1319 375 1299 C 345 1279 322 1246 306 1201 C 290 1155 280 1096 276 1023 C 272 950 270 861 270 756 C 270 650 272 561 276 489 C 280 416 290 357 306 312 C 322 267 345 235 375 215 C 405 195 446 186 498 186 Z" unicode="" />
<glyph horiz-adv-x="834" d="M 152 1427 L 680 1427 L 680 1245 L 152 1245 L 152 1427 Z M 418 -10 C 357 -10 306 -2 265 13 C 224 28 190 49 162 76 C 136 100 115 128 100 162 C 85 195 74 232 66 274 C 58 316 52 362 50 412 C 48 462 47 515 47 573 C 47 629 48 682 50 731 C 52 780 56 825 64 867 C 72 908 83 945 97 978 C 111 1011 131 1040 156 1065 C 184 1093 219 1115 261 1132 C 303 1148 355 1157 418 1157 C 482 1157 535 1148 577 1131 C 619 1114 654 1091 682 1063 C 705 1038 724 1009 738 976 C 752 943 762 906 769 865 C 776 824 781 779 783 730 C 785 681 786 629 786 573 C 786 516 784 463 782 413 C 780 363 775 318 767 277 C 759 235 748 198 733 165 C 718 131 698 102 674 78 C 647 51 613 30 571 14 C 529 -2 478 -10 418 -10 Z M 418 176 C 456 176 485 183 507 198 C 528 213 544 236 554 268 C 564 299 571 339 574 389 C 576 438 578 497 578 567 C 578 636 576 695 574 745 C 571 794 564 834 554 866 C 544 898 528 921 507 936 C 485 950 456 958 418 958 C 379 958 349 950 327 936 C 305 921 289 898 278 866 C 267 834 260 794 258 745 C 255 695 254 636 254 567 C 254 497 255 438 258 389 C 260 339 267 299 278 268 C 289 236 305 213 327 198 C 349 183 379 176 418 176 Z" unicode="" />
<glyph horiz-adv-x="997" d="M 365 1913 L 565 1913 L 387 1587 L 242 1587 L 365 1913 Z M 678 1913 L 879 1913 L 701 1587 L 555 1587 L 678 1913 Z M 498 -10 C 427 -10 367 -1 318 17 C 268 35 227 60 193 92 C 160 123 134 160 116 204 C 98 248 84 297 75 353 C 66 409 60 471 58 539 C 56 607 55 680 55 760 C 55 838 56 910 58 976 C 60 1042 65 1103 74 1158 C 82 1213 95 1262 112 1306 C 128 1349 152 1387 182 1419 C 215 1454 257 1482 309 1503 C 360 1523 423 1534 498 1534 C 572 1534 634 1523 686 1503 C 738 1482 780 1455 813 1421 C 843 1389 866 1351 883 1307 C 900 1263 913 1214 922 1159 C 930 1104 936 1043 938 977 C 940 910 942 838 942 760 C 942 680 940 606 938 538 C 936 470 930 408 921 352 C 911 296 898 246 880 203 C 862 159 837 122 805 92 C 771 60 728 35 678 17 C 628 -1 568 -10 498 -10 Z M 498 186 C 550 186 591 195 621 215 C 651 235 673 267 689 312 C 704 357 714 416 718 489 C 722 561 725 650 725 756 C 725 861 722 950 718 1023 C 714 1096 704 1155 689 1201 C 673 1246 651 1279 621 1299 C 591 1319 550 1329 498 1329 C 446 1329 405 1319 375 1299 C 345 1279 322 1246 306 1201 C 290 1155 280 1096 276 1023 C 272 950 270 861 270 756 C 270 650 272 561 276 489 C 280 416 290 357 306 312 C 322 267 345 235 375 215 C 405 195 446 186 498 186 Z" unicode="" />
<glyph horiz-adv-x="834" d="M 285 1571 L 485 1571 L 307 1245 L 162 1245 L 285 1571 Z M 598 1571 L 799 1571 L 621 1245 L 475 1245 L 598 1571 Z M 418 -10 C 357 -10 306 -2 265 13 C 224 28 190 49 162 76 C 136 100 115 128 100 162 C 85 195 74 232 66 274 C 58 316 52 362 50 412 C 48 462 47 515 47 573 C 47 629 48 682 50 731 C 52 780 56 825 64 867 C 72 908 83 945 97 978 C 111 1011 131 1040 156 1065 C 184 1093 219 1115 261 1132 C 303 1148 355 1157 418 1157 C 482 1157 535 1148 577 1131 C 619 1114 654 1091 682 1063 C 705 1038 724 1009 738 976 C 752 943 762 906 769 865 C 776 824 781 779 783 730 C 785 681 786 629 786 573 C 786 516 784 463 782 413 C 780 363 775 318 767 277 C 759 235 748 198 733 165 C 718 131 698 102 674 78 C 647 51 613 30 571 14 C 529 -2 478 -10 418 -10 Z M 418 176 C 456 176 485 183 507 198 C 528 213 544 236 554 268 C 564 299 571 339 574 389 C 576 438 578 497 578 567 C 578 636 576 695 574 745 C 571 794 564 834 554 866 C 544 898 528 921 507 936 C 485 950 456 958 418 958 C 379 958 349 950 327 936 C 305 921 289 898 278 866 C 267 834 260 794 258 745 C 255 695 254 636 254 567 C 254 497 255 438 258 389 C 260 339 267 299 278 268 C 289 236 305 213 327 198 C 349 183 379 176 418 176 Z" unicode="" />
<glyph horiz-adv-x="1446" d="M 731 1518 L 1382 1518 L 1382 1319 L 928 1319 L 928 872 L 1364 872 L 1364 676 L 928 676 L 928 195 L 1382 195 L 1382 0 L 731 0 L 731 29 C 713 19 693 12 671 7 C 647 1 621 -3 593 -6 C 564 -8 532 -10 498 -10 C 427 -10 367 -1 318 17 C 268 35 227 60 193 92 C 160 123 134 160 116 204 C 98 248 84 297 75 353 C 66 409 60 471 58 539 C 56 607 55 680 55 760 C 55 838 56 910 58 976 C 60 1042 65 1103 74 1158 C 82 1213 95 1262 112 1306 C 128 1349 152 1387 182 1419 C 215 1454 257 1482 309 1503 C 360 1523 423 1534 498 1534 C 534 1534 567 1531 597 1527 C 627 1523 654 1516 678 1508 C 697 1501 715 1493 731 1484 L 731 1518 Z M 498 186 C 550 186 591 195 621 215 C 651 235 673 267 689 312 C 704 357 714 416 718 489 C 722 561 725 650 725 756 C 725 861 722 950 718 1023 C 714 1096 704 1155 689 1201 C 673 1246 651 1279 621 1299 C 591 1319 550 1329 498 1329 C 446 1329 405 1319 375 1299 C 345 1279 322 1246 306 1201 C 290 1155 280 1096 276 1023 C 272 950 270 861 270 756 C 270 650 272 561 276 489 C 280 416 290 357 306 312 C 322 267 345 235 375 215 C 405 195 446 186 498 186 Z" unicode="" />
<glyph horiz-adv-x="1300" d="M 418 -10 C 357 -10 306 -2 265 13 C 224 28 190 49 162 76 C 136 100 115 128 100 162 C 85 195 74 232 66 274 C 58 316 52 362 50 412 C 48 462 47 515 47 573 C 47 629 48 682 50 731 C 52 780 56 825 64 867 C 72 908 83 945 97 978 C 111 1011 131 1040 156 1065 C 184 1093 219 1115 261 1132 C 303 1148 355 1157 418 1157 C 481 1157 532 1148 571 1131 C 610 1114 644 1091 672 1063 L 682 1052 L 692 1063 C 720 1091 752 1114 790 1131 C 827 1148 875 1157 934 1157 C 1039 1157 1115 1130 1163 1077 C 1183 1053 1200 1023 1213 988 C 1225 952 1235 910 1241 861 C 1247 812 1250 756 1251 692 C 1252 628 1252 555 1251 473 L 777 473 C 777 439 779 408 781 382 C 784 331 791 290 803 259 C 815 228 832 206 855 192 C 877 178 908 172 948 172 C 994 172 1037 176 1077 186 C 1117 195 1154 205 1188 217 L 1245 41 C 1218 32 1193 24 1169 18 C 1145 12 1120 6 1095 2 C 1070 -1 1044 -5 1016 -7 C 988 -9 958 -10 924 -10 C 830 -10 757 16 705 68 C 696 76 688 85 680 95 C 674 89 669 83 664 78 C 650 64 635 52 619 42 C 603 31 585 22 565 14 C 545 6 523 0 499 -3 C 475 -7 448 -10 418 -10 Z M 418 176 C 456 176 485 183 507 198 C 528 213 544 236 554 268 C 564 299 571 339 574 389 C 576 438 578 497 578 567 C 578 636 576 695 574 745 C 571 794 564 834 554 866 C 544 898 528 921 507 936 C 485 950 456 958 418 958 C 379 958 349 950 327 936 C 305 921 289 898 278 866 C 267 834 260 794 258 745 C 255 695 254 636 254 567 C 254 497 255 438 258 389 C 260 339 267 299 278 268 C 289 236 305 213 327 198 C 349 183 379 176 418 176 Z M 1069 659 C 1068 718 1066 767 1064 807 C 1061 846 1055 877 1046 901 C 1037 924 1024 940 1006 950 C 988 960 964 965 934 965 C 898 965 869 957 849 943 C 828 929 812 906 801 874 C 790 842 783 802 780 752 C 778 724 777 693 776 659 L 1069 659 Z" unicode="" />
<glyph horiz-adv-x="930" d="M 502 1903 L 741 1903 L 524 1587 L 340 1587 L 502 1903 Z M 94 1518 L 449 1518 C 529 1518 595 1509 649 1491 C 703 1473 746 1446 778 1409 C 810 1372 833 1325 847 1269 C 861 1212 868 1145 868 1067 C 868 995 861 930 849 874 C 836 817 814 768 782 728 C 752 689 712 658 662 635 L 860 0 L 641 0 L 463 589 L 451 588 L 303 588 L 303 0 L 94 0 L 94 1518 Z M 449 780 C 491 780 525 785 553 795 C 581 805 603 822 619 844 C 635 866 646 895 652 930 C 658 964 662 1006 662 1055 C 662 1103 658 1145 652 1179 C 646 1213 634 1241 618 1262 C 602 1283 580 1298 552 1308 C 524 1318 488 1323 446 1323 L 303 1323 L 303 780 L 449 780 Z" unicode="" />
<glyph horiz-adv-x="516" d="M 300 1561 L 539 1561 L 322 1245 L 138 1245 L 300 1561 Z M 80 1133 L 250 1143 L 264 1051 C 280 1076 308 1097 347 1115 C 386 1133 436 1143 496 1145 L 496 942 C 459 939 427 932 401 922 C 375 912 353 895 336 873 C 319 851 307 822 299 786 C 291 750 287 706 287 653 L 287 0 L 80 0 L 80 1133 Z" unicode="" />
<glyph horiz-adv-x="930" d="M 356 -453 C 376 -440 392 -429 404 -421 C 416 -413 425 -404 431 -396 C 437 -388 441 -378 443 -368 C 445 -358 446 -344 446 -326 L 356 -326 L 356 -94 L 571 -94 L 571 -319 C 571 -345 569 -368 565 -388 C 561 -408 554 -426 543 -444 C 532 -462 516 -479 496 -496 C 476 -512 449 -530 415 -549 L 356 -453 Z M 94 1518 L 449 1518 C 529 1518 595 1509 649 1491 C 703 1473 746 1446 778 1409 C 810 1372 833 1325 847 1269 C 861 1212 868 1145 868 1067 C 868 995 861 930 849 874 C 836 817 814 768 782 728 C 752 689 712 658 662 635 L 860 0 L 641 0 L 463 589 L 451 588 L 303 588 L 303 0 L 94 0 L 94 1518 Z M 449 780 C 491 780 525 785 553 795 C 581 805 603 822 619 844 C 635 866 646 895 652 930 C 658 964 662 1006 662 1055 C 662 1103 658 1145 652 1179 C 646 1213 634 1241 618 1262 C 602 1283 580 1298 552 1308 C 524 1318 488 1323 446 1323 L 303 1323 L 303 780 L 449 780 Z" unicode="" />
<glyph horiz-adv-x="516" d="M 79 -453 C 99 -440 115 -429 127 -421 C 139 -413 148 -404 154 -396 C 160 -388 164 -378 166 -368 C 168 -358 169 -344 169 -326 L 79 -326 L 79 -94 L 294 -94 L 294 -319 C 294 -345 292 -368 288 -388 C 284 -408 277 -426 266 -444 C 255 -462 239 -479 219 -496 C 199 -512 172 -530 138 -549 L 79 -453 Z M 80 1133 L 250 1143 L 264 1051 C 280 1076 308 1097 347 1115 C 386 1133 436 1143 496 1145 L 496 942 C 459 939 427 932 401 922 C 375 912 353 895 336 873 C 319 851 307 822 299 786 C 291 750 287 706 287 653 L 287 0 L 80 0 L 80 1133 Z" unicode="" />
<glyph horiz-adv-x="930" d="M 164 1903 L 348 1903 L 465 1726 L 582 1903 L 760 1903 L 565 1587 L 358 1587 L 164 1903 Z M 94 1518 L 449 1518 C 529 1518 595 1509 649 1491 C 703 1473 746 1446 778 1409 C 810 1372 833 1325 847 1269 C 861 1212 868 1145 868 1067 C 868 995 861 930 849 874 C 836 817 814 768 782 728 C 752 689 712 658 662 635 L 860 0 L 641 0 L 463 589 L 451 588 L 303 588 L 303 0 L 94 0 L 94 1518 Z M 449 780 C 491 780 525 785 553 795 C 581 805 603 822 619 844 C 635 866 646 895 652 930 C 658 964 662 1006 662 1055 C 662 1103 658 1145 652 1179 C 646 1213 634 1241 618 1262 C 602 1283 580 1298 552 1308 C 524 1318 488 1323 446 1323 L 303 1323 L 303 780 L 449 780 Z" unicode="" />
<glyph horiz-adv-x="516" d="M -38 1561 L 146 1561 L 263 1384 L 380 1561 L 558 1561 L 363 1245 L 156 1245 L -38 1561 Z M 80 1133 L 250 1143 L 264 1051 C 280 1076 308 1097 347 1115 C 386 1133 436 1143 496 1145 L 496 942 C 459 939 427 932 401 922 C 375 912 353 895 336 873 C 319 851 307 822 299 786 C 291 750 287 706 287 653 L 287 0 L 80 0 L 80 1133 Z" unicode="" />
<glyph horiz-adv-x="817" d="M 447 1903 L 686 1903 L 469 1587 L 285 1587 L 447 1903 Z M 377 -10 C 295 -10 226 -3 169 10 C 112 24 65 39 27 57 L 115 238 C 151 220 189 207 229 198 C 269 188 317 184 371 184 C 397 184 422 187 444 193 C 466 199 485 209 501 222 C 517 235 529 251 538 271 C 546 291 551 314 551 342 C 551 364 547 386 540 408 C 533 430 521 456 503 485 C 485 514 461 548 431 588 C 401 627 363 675 317 731 C 273 785 235 832 204 872 C 173 912 148 950 128 984 C 108 1018 94 1052 85 1085 C 76 1117 72 1153 72 1192 C 72 1237 78 1280 91 1322 C 104 1363 125 1399 154 1430 C 183 1461 221 1486 268 1504 C 315 1522 372 1532 440 1532 C 472 1532 501 1531 528 1529 C 555 1527 580 1525 604 1522 C 628 1518 650 1514 672 1509 C 694 1503 716 1497 739 1489 L 670 1296 C 640 1306 605 1315 567 1321 C 528 1327 487 1331 444 1331 C 388 1331 347 1318 320 1293 C 292 1267 279 1233 279 1190 C 279 1170 281 1152 285 1136 C 289 1120 299 1100 313 1078 C 327 1055 347 1027 373 993 C 399 959 435 916 479 862 C 515 817 548 777 576 741 C 604 705 629 673 650 644 C 670 614 687 587 701 562 C 715 537 726 513 734 489 C 742 465 748 441 752 417 C 756 392 758 366 758 338 C 758 288 750 241 736 199 C 721 157 698 120 667 89 C 636 58 597 34 549 16 C 501 -1 443 -10 377 -10 Z" unicode="" />
<glyph horiz-adv-x="692" d="M 388 1561 L 627 1561 L 410 1245 L 226 1245 L 388 1561 Z M 336 -10 C 268 -10 208 -4 156 7 C 104 18 63 32 33 49 L 111 221 C 124 213 139 206 157 200 C 175 194 193 188 213 184 C 233 179 253 175 274 172 C 295 169 316 168 336 168 C 350 168 364 169 377 173 C 390 176 402 181 412 189 C 422 197 429 206 435 218 C 441 230 444 244 444 260 C 444 275 442 289 439 302 C 436 314 429 329 419 346 C 408 363 392 384 372 408 C 351 432 323 464 287 504 C 245 548 211 587 183 619 C 155 651 132 680 116 707 C 99 734 87 760 80 786 C 73 811 70 840 70 872 C 70 912 75 950 86 985 C 97 1020 115 1050 139 1076 C 163 1102 195 1122 234 1137 C 272 1151 319 1159 375 1159 C 411 1159 449 1157 489 1153 C 529 1149 572 1140 616 1126 L 553 938 C 525 946 496 953 464 959 C 432 964 404 967 381 967 C 341 967 312 958 294 942 C 275 925 266 902 266 872 C 266 859 267 847 270 836 C 273 825 280 812 290 797 C 300 782 315 763 335 741 C 354 719 380 690 412 655 C 454 608 490 568 520 535 C 549 502 573 471 591 443 C 609 415 621 387 629 359 C 637 331 641 300 641 266 C 641 225 635 188 623 154 C 611 120 592 91 567 67 C 542 43 510 24 472 10 C 434 -3 388 -10 336 -10 Z" unicode="" />
<glyph horiz-adv-x="817" d="M 377 -10 C 295 -10 226 -3 169 10 C 112 24 65 39 27 57 L 115 238 C 151 220 189 207 229 198 C 269 188 317 184 371 184 C 397 184 422 187 444 193 C 466 199 485 209 501 222 C 517 235 529 251 538 271 C 546 291 551 314 551 342 C 551 364 547 386 540 408 C 533 430 521 456 503 485 C 485 514 461 548 431 588 C 401 627 363 675 317 731 C 273 785 235 832 204 872 C 173 912 148 950 128 984 C 108 1018 94 1052 85 1085 C 76 1117 72 1153 72 1192 C 72 1237 78 1280 91 1322 C 104 1363 125 1399 154 1430 C 183 1461 221 1486 268 1504 C 315 1522 372 1532 440 1532 C 472 1532 501 1531 528 1529 C 555 1527 580 1525 604 1522 C 628 1518 650 1514 672 1509 C 694 1503 716 1497 739 1489 L 670 1296 C 640 1306 605 1315 567 1321 C 528 1327 487 1331 444 1331 C 388 1331 347 1318 320 1293 C 292 1267 279 1233 279 1190 C 279 1170 281 1152 285 1136 C 289 1120 299 1100 313 1078 C 327 1055 347 1027 373 993 C 399 959 435 916 479 862 C 515 817 548 777 576 741 C 604 705 629 673 650 644 C 670 614 687 587 701 562 C 715 537 726 513 734 489 C 742 465 748 441 752 417 C 756 392 758 366 758 338 C 758 288 750 241 736 199 C 721 157 698 120 667 89 C 636 58 597 34 549 16 C 501 -1 443 -10 377 -10 Z M 424 -444 C 406 -444 389 -443 374 -442 C 358 -441 344 -439 330 -437 C 316 -434 302 -431 288 -427 C 274 -423 259 -418 244 -412 L 287 -297 C 310 -305 330 -311 347 -315 C 364 -319 382 -322 402 -322 C 419 -322 433 -320 444 -318 C 455 -315 464 -310 470 -304 C 476 -297 480 -288 482 -278 C 484 -268 486 -255 486 -240 C 486 -223 484 -210 481 -200 C 477 -190 471 -182 463 -177 C 455 -171 444 -168 430 -167 C 416 -166 398 -166 377 -168 L 338 -135 L 367 37 L 488 37 L 465 -96 C 488 -95 509 -97 529 -101 C 548 -105 564 -112 578 -124 C 592 -135 602 -151 610 -172 C 617 -192 621 -219 621 -252 C 621 -289 617 -320 609 -345 C 601 -369 590 -389 574 -404 C 558 -418 537 -429 512 -435 C 487 -441 458 -444 424 -444 Z" unicode="" />
<glyph horiz-adv-x="692" d="M 336 -10 C 268 -10 208 -4 156 7 C 104 18 63 32 33 49 L 111 221 C 124 213 139 206 157 200 C 175 194 193 188 213 184 C 233 179 253 175 274 172 C 295 169 316 168 336 168 C 350 168 364 169 377 173 C 390 176 402 181 412 189 C 422 197 429 206 435 218 C 441 230 444 244 444 260 C 444 275 442 289 439 302 C 436 314 429 329 419 346 C 408 363 392 384 372 408 C 351 432 323 464 287 504 C 245 548 211 587 183 619 C 155 651 132 680 116 707 C 99 734 87 760 80 786 C 73 811 70 840 70 872 C 70 912 75 950 86 985 C 97 1020 115 1050 139 1076 C 163 1102 195 1122 234 1137 C 272 1151 319 1159 375 1159 C 411 1159 449 1157 489 1153 C 529 1149 572 1140 616 1126 L 553 938 C 525 946 496 953 464 959 C 432 964 404 967 381 967 C 341 967 312 958 294 942 C 275 925 266 902 266 872 C 266 859 267 847 270 836 C 273 825 280 812 290 797 C 300 782 315 763 335 741 C 354 719 380 690 412 655 C 454 608 490 568 520 535 C 549 502 573 471 591 443 C 609 415 621 387 629 359 C 637 331 641 300 641 266 C 641 225 635 188 623 154 C 611 120 592 91 567 67 C 542 43 510 24 472 10 C 434 -3 388 -10 336 -10 Z M 365 -444 C 347 -444 330 -443 315 -442 C 299 -441 285 -439 271 -437 C 257 -434 243 -431 229 -427 C 215 -423 200 -418 185 -412 L 228 -297 C 251 -305 271 -311 288 -315 C 305 -319 323 -322 343 -322 C 360 -322 374 -320 385 -318 C 396 -315 405 -310 411 -304 C 417 -297 421 -288 423 -278 C 425 -268 427 -255 427 -240 C 427 -223 425 -210 422 -200 C 418 -190 412 -182 404 -177 C 396 -171 385 -168 371 -167 C 357 -166 339 -166 318 -168 L 279 -135 L 308 37 L 429 37 L 406 -96 C 429 -95 450 -97 470 -101 C 489 -105 505 -112 519 -124 C 533 -135 543 -151 551 -172 C 558 -192 562 -219 562 -252 C 562 -289 558 -320 550 -345 C 542 -369 531 -389 515 -404 C 499 -418 478 -429 453 -435 C 428 -441 399 -444 365 -444 Z" unicode="" />
<glyph horiz-adv-x="817" d="M 109 1903 L 293 1903 L 410 1726 L 527 1903 L 705 1903 L 510 1587 L 303 1587 L 109 1903 Z M 377 -10 C 295 -10 226 -3 169 10 C 112 24 65 39 27 57 L 115 238 C 151 220 189 207 229 198 C 269 188 317 184 371 184 C 397 184 422 187 444 193 C 466 199 485 209 501 222 C 517 235 529 251 538 271 C 546 291 551 314 551 342 C 551 364 547 386 540 408 C 533 430 521 456 503 485 C 485 514 461 548 431 588 C 401 627 363 675 317 731 C 273 785 235 832 204 872 C 173 912 148 950 128 984 C 108 1018 94 1052 85 1085 C 76 1117 72 1153 72 1192 C 72 1237 78 1280 91 1322 C 104 1363 125 1399 154 1430 C 183 1461 221 1486 268 1504 C 315 1522 372 1532 440 1532 C 472 1532 501 1531 528 1529 C 555 1527 580 1525 604 1522 C 628 1518 650 1514 672 1509 C 694 1503 716 1497 739 1489 L 670 1296 C 640 1306 605 1315 567 1321 C 528 1327 487 1331 444 1331 C 388 1331 347 1318 320 1293 C 292 1267 279 1233 279 1190 C 279 1170 281 1152 285 1136 C 289 1120 299 1100 313 1078 C 327 1055 347 1027 373 993 C 399 959 435 916 479 862 C 515 817 548 777 576 741 C 604 705 629 673 650 644 C 670 614 687 587 701 562 C 715 537 726 513 734 489 C 742 465 748 441 752 417 C 756 392 758 366 758 338 C 758 288 750 241 736 199 C 721 157 698 120 667 89 C 636 58 597 34 549 16 C 501 -1 443 -10 377 -10 Z" unicode="" />
<glyph horiz-adv-x="692" d="M 50 1561 L 234 1561 L 351 1384 L 468 1561 L 646 1561 L 451 1245 L 244 1245 L 50 1561 Z M 336 -10 C 268 -10 208 -4 156 7 C 104 18 63 32 33 49 L 111 221 C 124 213 139 206 157 200 C 175 194 193 188 213 184 C 233 179 253 175 274 172 C 295 169 316 168 336 168 C 350 168 364 169 377 173 C 390 176 402 181 412 189 C 422 197 429 206 435 218 C 441 230 444 244 444 260 C 444 275 442 289 439 302 C 436 314 429 329 419 346 C 408 363 392 384 372 408 C 351 432 323 464 287 504 C 245 548 211 587 183 619 C 155 651 132 680 116 707 C 99 734 87 760 80 786 C 73 811 70 840 70 872 C 70 912 75 950 86 985 C 97 1020 115 1050 139 1076 C 163 1102 195 1122 234 1137 C 272 1151 319 1159 375 1159 C 411 1159 449 1157 489 1153 C 529 1149 572 1140 616 1126 L 553 938 C 525 946 496 953 464 959 C 432 964 404 967 381 967 C 341 967 312 958 294 942 C 275 925 266 902 266 872 C 266 859 267 847 270 836 C 273 825 280 812 290 797 C 300 782 315 763 335 741 C 354 719 380 690 412 655 C 454 608 490 568 520 535 C 549 502 573 471 591 443 C 609 415 621 387 629 359 C 637 331 641 300 641 266 C 641 225 635 188 623 154 C 611 120 592 91 567 67 C 542 43 510 24 472 10 C 434 -3 388 -10 336 -10 Z" unicode="" />
<glyph horiz-adv-x="854" d="M 319 -453 C 339 -440 355 -429 367 -421 C 379 -413 388 -404 394 -396 C 400 -388 404 -378 406 -368 C 408 -358 409 -344 409 -326 L 319 -326 L 319 -94 L 534 -94 L 534 -319 C 534 -345 532 -368 528 -388 C 524 -408 517 -426 506 -444 C 495 -462 479 -479 459 -496 C 439 -512 412 -530 378 -549 L 319 -453 Z M 317 1319 L 18 1319 L 18 1518 L 834 1518 L 834 1319 L 535 1319 L 535 0 L 317 0 L 317 1319 Z" unicode="" />
<glyph horiz-adv-x="602" d="M 170 -453 C 190 -440 206 -429 218 -421 C 230 -413 239 -404 245 -396 C 251 -388 255 -378 257 -368 C 259 -358 260 -344 260 -326 L 170 -326 L 170 -94 L 385 -94 L 385 -319 C 385 -345 383 -368 379 -388 C 375 -408 368 -426 357 -444 C 346 -462 330 -479 310 -496 C 290 -512 263 -530 229 -549 L 170 -453 Z M 23 1145 L 162 1145 L 190 1391 L 358 1434 L 358 1145 L 549 1145 L 549 958 L 358 958 L 358 307 C 358 286 359 268 361 254 C 363 239 368 227 376 217 C 384 207 395 200 410 196 C 424 192 444 190 469 190 L 549 190 L 549 0 C 535 -1 518 -2 498 -2 L 442 -2 C 383 -2 335 3 298 14 C 260 24 231 41 210 65 C 188 88 174 118 166 155 C 158 192 154 237 154 291 L 154 958 L 23 958 L 23 1145 Z" unicode="" />
<glyph horiz-adv-x="854" d="M 127 1903 L 311 1903 L 428 1726 L 545 1903 L 723 1903 L 528 1587 L 321 1587 L 127 1903 Z M 317 1319 L 18 1319 L 18 1518 L 834 1518 L 834 1319 L 535 1319 L 535 0 L 317 0 L 317 1319 Z" unicode="" />
<glyph horiz-adv-x="602" d="M 436 1374 C 456 1387 472 1398 484 1407 C 496 1415 505 1424 512 1432 C 518 1440 523 1450 525 1461 C 527 1471 528 1485 528 1503 L 438 1503 L 438 1724 L 639 1724 L 639 1526 C 639 1498 637 1473 634 1452 C 631 1431 625 1412 615 1394 C 605 1376 590 1358 570 1342 C 550 1326 523 1308 489 1290 L 436 1374 Z M 23 1145 L 162 1145 L 190 1391 L 358 1434 L 358 1145 L 549 1145 L 549 958 L 358 958 L 358 307 C 358 286 359 268 361 254 C 363 239 368 227 376 217 C 384 207 395 200 410 196 C 424 192 444 190 469 190 L 549 190 L 549 0 C 535 -1 518 -2 498 -2 L 442 -2 C 383 -2 335 3 298 14 C 260 24 231 41 210 65 C 188 88 174 118 166 155 C 158 192 154 237 154 291 L 154 958 L 23 958 L 23 1145 Z" unicode="" />
<glyph horiz-adv-x="981" d="M 489 -16 C 419 -16 359 -8 310 7 C 261 22 221 44 190 74 C 167 94 149 118 135 145 C 121 171 111 201 104 233 C 96 265 91 299 89 337 C 87 374 86 413 86 455 L 86 1518 L 301 1518 L 301 463 C 301 414 303 372 309 337 C 314 301 324 272 338 249 C 352 226 372 209 397 198 C 422 187 454 182 494 182 C 532 182 564 187 589 198 C 614 208 634 225 648 248 C 662 271 672 300 678 336 C 683 371 686 413 686 463 L 686 1518 L 895 1518 L 895 455 C 895 414 894 375 892 339 C 890 302 885 267 879 235 C 872 203 862 173 849 147 C 836 120 819 96 797 76 C 765 46 724 24 674 8 C 624 -8 562 -16 489 -16 Z M 226 1769 L 754 1769 L 754 1587 L 226 1587 L 226 1769 Z" unicode="" />
<glyph horiz-adv-x="844" d="M 422 -10 C 360 -10 308 -3 267 11 C 226 25 192 44 166 68 C 147 84 132 102 120 122 C 108 142 99 164 92 188 C 85 212 80 237 78 265 C 75 293 74 322 74 354 L 74 1145 L 281 1145 L 281 377 C 281 343 282 313 286 288 C 290 262 297 241 307 225 C 317 208 332 196 351 188 C 369 180 394 176 424 176 C 454 176 478 180 496 188 C 514 196 529 208 540 224 C 550 240 557 261 561 287 C 565 313 567 343 567 379 L 567 1145 L 770 1145 L 770 356 C 770 294 764 239 752 192 C 740 145 718 106 684 74 C 657 49 623 29 581 13 C 539 -2 486 -10 422 -10 Z M 158 1427 L 686 1427 L 686 1245 L 158 1245 L 158 1427 Z" unicode="" />
<glyph horiz-adv-x="981" d="M 488 1575 C 448 1575 417 1580 393 1592 C 369 1603 350 1619 337 1639 C 324 1659 315 1683 311 1711 C 307 1739 305 1769 305 1802 C 305 1835 307 1866 311 1894 C 315 1922 324 1947 337 1968 C 350 1988 369 2004 393 2016 C 417 2028 448 2034 488 2034 C 527 2034 559 2028 583 2016 C 607 2004 626 1988 640 1968 C 653 1947 662 1922 667 1894 C 671 1866 674 1835 674 1802 C 674 1769 671 1739 667 1711 C 662 1683 653 1659 640 1639 C 626 1619 607 1603 583 1592 C 559 1580 527 1575 488 1575 Z M 488 1677 C 505 1677 519 1679 529 1685 C 539 1691 547 1699 553 1710 C 558 1720 561 1733 563 1749 C 565 1765 566 1782 566 1802 C 566 1822 565 1839 563 1855 C 561 1871 558 1884 553 1895 C 547 1906 539 1914 529 1920 C 519 1926 505 1929 488 1929 C 471 1929 458 1926 448 1920 C 438 1914 430 1906 425 1895 C 419 1884 416 1871 414 1855 C 412 1839 412 1822 412 1802 C 412 1782 412 1765 414 1749 C 416 1733 419 1720 425 1710 C 430 1699 438 1691 448 1685 C 458 1679 471 1677 488 1677 Z M 489 -16 C 419 -16 359 -8 310 7 C 261 22 221 44 190 74 C 167 94 149 118 135 145 C 121 171 111 201 104 233 C 96 265 91 299 89 337 C 87 374 86 413 86 455 L 86 1518 L 301 1518 L 301 463 C 301 414 303 372 309 337 C 314 301 324 272 338 249 C 352 226 372 209 397 198 C 422 187 454 182 494 182 C 532 182 564 187 589 198 C 614 208 634 225 648 248 C 662 271 672 300 678 336 C 683 371 686 413 686 463 L 686 1518 L 895 1518 L 895 455 C 895 414 894 375 892 339 C 890 302 885 267 879 235 C 872 203 862 173 849 147 C 836 120 819 96 797 76 C 765 46 724 24 674 8 C 624 -8 562 -16 489 -16 Z" unicode="" />
<glyph horiz-adv-x="844" d="M 420 1233 C 380 1233 349 1238 325 1250 C 301 1261 282 1277 269 1297 C 256 1317 247 1341 243 1369 C 239 1397 237 1427 237 1460 C 237 1493 239 1524 243 1552 C 247 1580 256 1605 269 1626 C 282 1646 301 1662 325 1674 C 349 1686 380 1692 420 1692 C 459 1692 491 1686 515 1674 C 539 1662 558 1646 572 1626 C 585 1605 594 1580 599 1552 C 603 1524 606 1493 606 1460 C 606 1427 603 1397 599 1369 C 594 1341 585 1317 572 1297 C 558 1277 539 1261 515 1250 C 491 1238 459 1233 420 1233 Z M 420 1335 C 437 1335 451 1337 461 1343 C 471 1349 479 1357 485 1368 C 490 1378 493 1391 495 1407 C 497 1423 498 1440 498 1460 C 498 1480 497 1497 495 1513 C 493 1529 490 1542 485 1553 C 479 1564 471 1572 461 1578 C 451 1584 437 1587 420 1587 C 403 1587 390 1584 380 1578 C 370 1572 362 1564 357 1553 C 351 1542 348 1529 346 1513 C 344 1497 344 1480 344 1460 C 344 1440 344 1423 346 1407 C 348 1391 351 1378 357 1368 C 362 1357 370 1349 380 1343 C 390 1337 403 1335 420 1335 Z M 422 -10 C 360 -10 308 -3 267 11 C 226 25 192 44 166 68 C 147 84 132 102 120 122 C 108 142 99 164 92 188 C 85 212 80 237 78 265 C 75 293 74 322 74 354 L 74 1145 L 281 1145 L 281 377 C 281 343 282 313 286 288 C 290 262 297 241 307 225 C 317 208 332 196 351 188 C 369 180 394 176 424 176 C 454 176 478 180 496 188 C 514 196 529 208 540 224 C 550 240 557 261 561 287 C 565 313 567 343 567 379 L 567 1145 L 770 1145 L 770 356 C 770 294 764 239 752 192 C 740 145 718 106 684 74 C 657 49 623 29 581 13 C 539 -2 486 -10 422 -10 Z" unicode="" />
<glyph horiz-adv-x="981" d="M 489 -16 C 419 -16 359 -8 310 7 C 261 22 221 44 190 74 C 167 94 149 118 135 145 C 121 171 111 201 104 233 C 96 265 91 299 89 337 C 87 374 86 413 86 455 L 86 1518 L 301 1518 L 301 463 C 301 414 303 372 309 337 C 314 301 324 272 338 249 C 352 226 372 209 397 198 C 422 187 454 182 494 182 C 532 182 564 187 589 198 C 614 208 634 225 648 248 C 662 271 672 300 678 336 C 683 371 686 413 686 463 L 686 1518 L 895 1518 L 895 455 C 895 414 894 375 892 339 C 890 302 885 267 879 235 C 872 203 862 173 849 147 C 836 120 819 96 797 76 C 765 46 724 24 674 8 C 624 -8 562 -16 489 -16 Z M 359 1913 L 559 1913 L 381 1587 L 236 1587 L 359 1913 Z M 672 1913 L 873 1913 L 695 1587 L 549 1587 L 672 1913 Z" unicode="" />
<glyph horiz-adv-x="844" d="M 422 -10 C 360 -10 308 -3 267 11 C 226 25 192 44 166 68 C 147 84 132 102 120 122 C 108 142 99 164 92 188 C 85 212 80 237 78 265 C 75 293 74 322 74 354 L 74 1145 L 281 1145 L 281 377 C 281 343 282 313 286 288 C 290 262 297 241 307 225 C 317 208 332 196 351 188 C 369 180 394 176 424 176 C 454 176 478 180 496 188 C 514 196 529 208 540 224 C 550 240 557 261 561 287 C 565 313 567 343 567 379 L 567 1145 L 770 1145 L 770 356 C 770 294 764 239 752 192 C 740 145 718 106 684 74 C 657 49 623 29 581 13 C 539 -2 486 -10 422 -10 Z M 291 1571 L 491 1571 L 313 1245 L 168 1245 L 291 1571 Z M 604 1571 L 805 1571 L 627 1245 L 481 1245 L 604 1571 Z" unicode="" />
<glyph horiz-adv-x="981" d="M 516 -412 C 480 -412 449 -408 425 -401 C 400 -394 380 -383 365 -369 C 350 -354 339 -335 333 -313 C 327 -290 324 -263 324 -233 C 324 -210 326 -188 332 -168 C 337 -148 344 -128 352 -110 C 360 -92 370 -74 381 -58 C 392 -42 404 -26 416 -12 C 364 -8 319 1 283 16 C 246 31 215 50 190 74 C 167 94 149 118 135 145 C 121 171 111 201 104 233 C 96 265 91 299 89 337 C 87 374 86 413 86 455 L 86 1518 L 301 1518 L 301 463 C 301 414 303 372 309 337 C 314 301 324 272 338 249 C 352 226 372 209 397 198 C 422 187 454 182 494 182 C 532 182 564 187 589 198 C 614 208 634 225 648 248 C 662 271 672 300 678 336 C 683 371 686 413 686 463 L 686 1518 L 895 1518 L 895 455 C 895 414 894 375 892 339 C 890 302 885 267 879 235 C 872 203 862 173 849 147 C 836 120 819 96 797 76 C 771 51 738 31 699 16 C 660 1 613 -8 557 -12 C 530 -47 508 -81 491 -114 C 473 -146 465 -179 465 -211 C 465 -241 470 -262 482 -273 C 493 -283 511 -289 537 -289 L 614 -289 L 614 -412 L 516 -412 Z" unicode="" />
<glyph horiz-adv-x="844" d="M 449 -412 C 412 -412 381 -408 357 -401 C 332 -394 312 -383 297 -369 C 282 -354 271 -335 265 -313 C 259 -290 256 -263 256 -233 C 256 -209 258 -187 264 -166 C 269 -145 276 -125 285 -107 C 294 -88 304 -70 316 -54 C 328 -37 340 -21 352 -6 C 310 -2 273 6 243 19 C 213 32 187 48 166 68 C 147 84 132 102 120 122 C 108 142 99 164 92 188 C 85 212 80 237 78 265 C 75 293 74 322 74 354 L 74 1145 L 281 1145 L 281 377 C 281 343 282 313 286 288 C 290 262 297 241 307 225 C 317 208 332 196 351 188 C 369 180 394 176 424 176 C 454 176 478 180 496 188 C 514 196 529 208 540 224 C 550 240 557 261 561 287 C 565 313 567 343 567 379 L 567 1145 L 770 1145 L 770 356 C 770 294 764 239 752 192 C 740 145 718 106 684 74 C 662 54 637 37 607 23 C 577 9 540 0 496 -6 C 468 -42 444 -76 425 -110 C 406 -144 397 -177 397 -211 C 397 -241 402 -262 414 -273 C 426 -283 444 -289 469 -289 L 547 -289 L 547 -412 L 449 -412 Z" unicode="" />
<glyph horiz-adv-x="911" d="M 2 1518 L 227 1518 L 457 815 L 688 1518 L 907 1518 L 561 513 L 561 0 L 348 0 L 348 519 L 2 1518 Z M 213 1810 L 393 1810 L 393 1587 L 213 1587 L 213 1810 Z M 514 1810 L 694 1810 L 694 1587 L 514 1587 L 514 1810 Z" unicode="" />
<glyph horiz-adv-x="829" d="M 453 1903 L 692 1903 L 475 1587 L 291 1587 L 453 1903 Z M 41 166 L 543 1319 L 61 1319 L 61 1518 L 772 1518 L 772 1335 L 276 195 L 788 195 L 788 0 L 41 0 L 41 166 Z" unicode="" />
<glyph horiz-adv-x="659" d="M 370 1561 L 609 1561 L 392 1245 L 208 1245 L 370 1561 Z M 25 141 L 385 958 L 45 958 L 45 1145 L 623 1145 L 623 1001 L 258 172 L 635 172 L 635 0 L 25 0 L 25 141 Z" unicode="" />
<glyph horiz-adv-x="829" d="M 41 166 L 543 1319 L 61 1319 L 61 1518 L 772 1518 L 772 1335 L 276 195 L 788 195 L 788 0 L 41 0 L 41 166 Z M 309 1833 L 516 1833 L 516 1587 L 309 1587 L 309 1833 Z" unicode="" />
<glyph horiz-adv-x="659" d="M 25 141 L 385 958 L 45 958 L 45 1145 L 623 1145 L 623 1001 L 258 172 L 635 172 L 635 0 L 25 0 L 25 141 Z M 226 1491 L 433 1491 L 433 1245 L 226 1245 L 226 1491 Z" unicode="" />
<glyph horiz-adv-x="829" d="M 115 1903 L 299 1903 L 416 1726 L 533 1903 L 711 1903 L 516 1587 L 309 1587 L 115 1903 Z M 41 166 L 543 1319 L 61 1319 L 61 1518 L 772 1518 L 772 1335 L 276 195 L 788 195 L 788 0 L 41 0 L 41 166 Z" unicode="" />
<glyph horiz-adv-x="659" d="M 32 1561 L 216 1561 L 333 1384 L 450 1561 L 628 1561 L 433 1245 L 226 1245 L 32 1561 Z M 25 141 L 385 958 L 45 958 L 45 1145 L 623 1145 L 623 1001 L 258 172 L 635 172 L 635 0 L 25 0 L 25 141 Z" unicode="" />
<glyph horiz-adv-x="772" d="M 106 907 L 263 907 L 297 1231 C 301 1279 309 1322 321 1358 C 333 1394 351 1423 375 1447 C 399 1471 430 1488 468 1500 C 506 1512 554 1518 612 1518 C 627 1518 640 1517 651 1517 C 661 1516 672 1516 682 1516 L 682 1327 L 625 1327 C 599 1327 578 1324 563 1318 C 547 1312 535 1303 527 1291 C 519 1279 513 1265 509 1247 C 505 1229 502 1208 500 1184 L 471 907 L 682 907 L 682 733 L 452 733 L 342 -313 L 137 -313 L 245 733 L 106 733 L 106 907 Z" unicode="" />
<glyph horiz-adv-x="817" d="M 299 -453 C 319 -440 335 -429 347 -421 C 359 -413 368 -404 374 -396 C 380 -388 384 -378 386 -368 C 388 -358 389 -344 389 -326 L 299 -326 L 299 -94 L 514 -94 L 514 -319 C 514 -345 512 -368 508 -388 C 504 -408 497 -426 486 -444 C 475 -462 459 -479 439 -496 C 419 -512 392 -530 358 -549 L 299 -453 Z M 377 -10 C 295 -10 226 -3 169 10 C 112 24 65 39 27 57 L 115 238 C 151 220 189 207 229 198 C 269 188 317 184 371 184 C 397 184 422 187 444 193 C 466 199 485 209 501 222 C 517 235 529 251 538 271 C 546 291 551 314 551 342 C 551 364 547 386 540 408 C 533 430 521 456 503 485 C 485 514 461 548 431 588 C 401 627 363 675 317 731 C 273 785 235 832 204 872 C 173 912 148 950 128 984 C 108 1018 94 1052 85 1085 C 76 1117 72 1153 72 1192 C 72 1237 78 1280 91 1322 C 104 1363 125 1399 154 1430 C 183 1461 221 1486 268 1504 C 315 1522 372 1532 440 1532 C 472 1532 501 1531 528 1529 C 555 1527 580 1525 604 1522 C 628 1518 650 1514 672 1509 C 694 1503 716 1497 739 1489 L 670 1296 C 640 1306 605 1315 567 1321 C 528 1327 487 1331 444 1331 C 388 1331 347 1318 320 1293 C 292 1267 279 1233 279 1190 C 279 1170 281 1152 285 1136 C 289 1120 299 1100 313 1078 C 327 1055 347 1027 373 993 C 399 959 435 916 479 862 C 515 817 548 777 576 741 C 604 705 629 673 650 644 C 670 614 687 587 701 562 C 715 537 726 513 734 489 C 742 465 748 441 752 417 C 756 392 758 366 758 338 C 758 288 750 241 736 199 C 721 157 698 120 667 89 C 636 58 597 34 549 16 C 501 -1 443 -10 377 -10 Z" unicode="" />
</font>
</defs>
</svg>
