<?xml version="1.0" standalone="yes"?><svg version="1.1" xmlns = 'http://www.w3.org/2000/svg'><defs><font id='web' horiz-adv-x="1000">
<font-face font-family="web" descent="-410" cap-height="1518" units-per-em="2048" bbox="-154,-446,3109,2443" x-height="1120" ascent="1638" />
<missing-glyph horiz-adv-x="1024" d="" /><glyph horiz-adv-x="1407" d="M 117 664 L 1292 664 L 1292 567 L 117 567 L 117 664 Z" unicode="–" />
<glyph horiz-adv-x="1862" d="M 117 664 L 1747 664 L 1747 567 L 117 567 L 117 664 Z" unicode="—" />
<glyph horiz-adv-x="457" d="M 152 1266 C 152 1302 154 1332 158 1358 C 162 1384 170 1407 180 1427 C 190 1447 204 1464 222 1480 C 240 1495 262 1510 289 1526 L 324 1466 C 304 1455 288 1444 276 1434 C 263 1423 253 1411 246 1399 C 238 1387 233 1373 230 1357 C 226 1341 225 1323 225 1303 L 305 1303 L 305 1114 L 152 1114 L 152 1266 Z" unicode="‘" />
<glyph horiz-adv-x="457" d="M 133 1167 C 151 1177 167 1188 180 1198 C 192 1208 202 1220 210 1232 C 218 1244 223 1258 226 1274 C 229 1289 231 1307 231 1329 L 152 1329 L 152 1518 L 305 1518 L 305 1368 C 305 1332 302 1300 298 1274 C 294 1248 286 1225 276 1205 C 265 1185 251 1167 234 1152 C 216 1136 194 1122 168 1108 L 133 1167 Z" unicode="’" />
<glyph horiz-adv-x="457" d="M 133 -123 C 151 -112 167 -101 180 -91 C 192 -81 202 -69 210 -57 C 218 -44 223 -30 226 -14 C 229 2 231 21 231 43 L 152 43 L 152 229 L 305 229 L 305 78 C 305 43 302 13 298 -13 C 294 -39 286 -62 276 -82 C 265 -102 251 -121 234 -137 C 216 -153 194 -168 168 -182 L 133 -123 Z" unicode="‚" />
<glyph horiz-adv-x="786" d="M 152 1262 C 152 1297 154 1327 158 1353 C 162 1379 170 1401 180 1421 C 190 1440 204 1457 222 1473 C 239 1488 261 1503 287 1518 L 322 1458 C 303 1448 287 1437 275 1427 C 263 1417 253 1405 245 1393 C 237 1381 232 1367 229 1351 C 226 1335 225 1317 225 1296 L 303 1296 L 303 1112 L 152 1112 L 152 1262 Z M 483 1262 C 483 1297 485 1327 489 1353 C 493 1379 501 1401 511 1421 C 521 1440 535 1457 553 1473 C 570 1488 592 1503 618 1518 L 653 1458 C 635 1448 619 1437 607 1427 C 595 1417 585 1405 577 1393 C 569 1381 564 1367 561 1351 C 558 1335 557 1317 557 1296 L 635 1296 L 635 1112 L 483 1112 L 483 1262 Z" unicode="“" />
<glyph horiz-adv-x="786" d="M 133 1169 C 151 1179 167 1190 179 1200 C 191 1210 201 1222 209 1235 C 217 1247 222 1261 226 1277 C 229 1293 231 1311 231 1333 L 152 1333 L 152 1518 L 303 1518 L 303 1368 C 303 1332 301 1302 297 1276 C 293 1250 285 1228 275 1208 C 265 1188 251 1171 234 1156 C 216 1140 194 1126 168 1112 L 133 1169 Z M 465 1169 C 483 1179 499 1190 511 1200 C 523 1210 533 1222 541 1235 C 549 1247 554 1261 558 1277 C 561 1293 563 1311 563 1333 L 483 1333 L 483 1518 L 635 1518 L 635 1368 C 635 1332 632 1302 628 1276 C 624 1250 616 1228 606 1208 C 596 1188 582 1171 565 1156 C 547 1140 526 1126 500 1112 L 465 1169 Z" unicode="”" />
<glyph horiz-adv-x="786" d="M 133 -121 C 151 -111 167 -100 179 -90 C 191 -80 201 -68 209 -56 C 217 -44 222 -30 226 -14 C 229 2 231 21 231 43 L 152 43 L 152 227 L 303 227 L 303 78 C 303 43 301 13 297 -13 C 293 -39 285 -62 275 -82 C 265 -102 251 -119 234 -135 C 216 -151 194 -166 168 -180 L 133 -121 Z M 465 -121 C 483 -111 499 -100 511 -90 C 523 -80 533 -68 541 -56 C 549 -44 554 -30 558 -14 C 561 2 563 21 563 43 L 483 43 L 483 227 L 635 227 L 635 78 C 635 43 632 13 628 -13 C 624 -39 616 -62 606 -82 C 596 -102 582 -119 565 -135 C 547 -151 526 -166 500 -180 L 465 -121 Z" unicode="„" />
<glyph horiz-adv-x="494" d="" unicode=" " />
<glyph horiz-adv-x="707" d="M 276 178 L 430 178 L 430 0 L 276 0 L 276 178 Z M 295 1518 L 412 1518 L 399 397 L 309 397 L 295 1518 Z" unicode="!" />
<glyph horiz-adv-x="920" d="M 209 1518 L 315 1518 L 305 973 L 221 973 L 209 1518 Z M 604 1518 L 711 1518 L 700 973 L 614 973 L 604 1518 Z" unicode="&#x22;" />
<glyph horiz-adv-x="1466" d="M 395 485 L 141 485 L 141 582 L 414 582 L 483 950 L 141 950 L 141 1047 L 504 1047 L 594 1518 L 696 1518 L 604 1047 L 973 1047 L 1065 1518 L 1165 1518 L 1075 1047 L 1327 1047 L 1327 950 L 1055 950 L 985 582 L 1327 582 L 1327 485 L 967 485 L 872 0 L 772 0 L 864 485 L 498 485 L 403 0 L 301 0 L 395 485 Z M 887 578 L 961 954 L 582 954 L 510 578 L 887 578 Z" unicode="#" />
<glyph horiz-adv-x="1346" d="M 633 0 C 591 0 551 3 511 8 C 471 12 432 20 392 31 C 352 41 313 56 273 74 C 233 92 194 115 154 143 L 207 223 C 245 197 282 175 318 159 C 354 142 390 129 426 119 C 461 109 496 103 531 99 C 565 95 601 92 637 92 L 637 762 C 580 774 526 789 476 805 C 425 821 381 843 343 871 C 305 899 274 934 252 977 C 230 1020 219 1075 219 1141 C 219 1202 227 1256 243 1302 C 259 1348 283 1386 317 1417 C 350 1448 393 1472 445 1489 C 497 1505 560 1515 633 1518 L 633 1647 L 731 1647 L 731 1518 C 765 1516 798 1512 832 1507 C 866 1502 898 1495 930 1486 C 962 1477 992 1466 1021 1453 C 1049 1440 1076 1425 1100 1409 L 1047 1329 C 1007 1357 959 1378 903 1394 C 847 1410 789 1419 727 1423 L 727 838 C 768 828 808 817 847 806 C 885 795 921 782 955 768 C 989 753 1020 736 1048 716 C 1076 696 1101 673 1121 646 C 1141 618 1156 586 1167 550 C 1178 514 1184 472 1184 424 C 1184 290 1146 188 1072 117 C 998 45 884 6 731 0 L 731 -193 L 633 -193 L 633 0 Z M 1081 420 C 1081 472 1072 516 1056 551 C 1040 586 1016 615 986 639 C 955 663 918 682 874 698 C 830 713 781 727 727 741 L 727 92 C 849 98 939 128 996 183 C 1052 237 1081 316 1081 420 Z M 322 1145 C 322 1099 329 1061 343 1031 C 357 1000 378 974 405 952 C 432 930 465 912 504 898 C 543 883 587 870 637 858 L 637 1423 C 578 1421 529 1413 489 1401 C 449 1388 416 1370 392 1347 C 367 1323 349 1295 338 1261 C 327 1227 322 1189 322 1145 Z" unicode="$" />
<glyph horiz-adv-x="2185" d="M 483 598 C 411 598 351 609 302 633 C 253 657 213 690 183 732 C 153 774 131 823 118 881 C 104 939 98 1001 98 1069 C 98 1135 104 1197 118 1255 C 131 1313 153 1363 183 1406 C 213 1448 253 1482 302 1506 C 351 1530 411 1542 483 1542 C 553 1542 613 1530 662 1506 C 710 1482 750 1448 780 1406 C 810 1363 832 1313 846 1255 C 859 1197 866 1135 866 1069 C 866 1001 859 939 846 881 C 832 823 810 774 780 732 C 750 690 710 657 662 633 C 613 609 553 598 483 598 Z M 483 686 C 537 686 583 695 620 715 C 656 735 686 762 708 797 C 730 831 745 872 754 918 C 763 964 768 1015 768 1069 C 768 1123 763 1173 754 1219 C 745 1265 730 1306 708 1341 C 686 1375 656 1402 620 1422 C 583 1442 537 1452 483 1452 C 428 1452 382 1442 346 1422 C 309 1402 280 1375 258 1341 C 236 1307 220 1266 211 1220 C 201 1173 197 1123 197 1069 C 197 1015 201 964 210 918 C 219 872 235 831 257 797 C 279 762 308 735 345 715 C 381 695 427 686 483 686 Z M 1702 -23 C 1630 -23 1570 -11 1522 13 C 1473 37 1434 70 1404 112 C 1374 154 1352 204 1339 262 C 1325 320 1319 383 1319 451 C 1319 517 1325 579 1339 637 C 1352 695 1374 745 1404 788 C 1434 830 1473 864 1522 888 C 1570 912 1630 924 1702 924 C 1773 924 1833 912 1882 888 C 1930 864 1970 830 2000 788 C 2030 745 2051 695 2065 637 C 2078 579 2085 517 2085 451 C 2085 383 2078 320 2065 262 C 2051 204 2030 154 2000 112 C 1970 70 1930 37 1882 13 C 1833 -11 1773 -23 1702 -23 Z M 1702 68 C 1756 68 1802 77 1839 97 C 1875 117 1905 144 1927 179 C 1949 213 1964 254 1973 300 C 1982 346 1987 397 1987 451 C 1987 505 1982 555 1973 601 C 1964 647 1949 688 1927 723 C 1905 757 1875 784 1839 804 C 1802 824 1756 834 1702 834 C 1647 834 1601 824 1565 804 C 1528 784 1499 757 1477 723 C 1455 688 1439 647 1430 601 C 1421 555 1417 505 1417 451 C 1417 397 1421 346 1430 300 C 1439 254 1455 213 1477 179 C 1499 144 1528 117 1565 97 C 1601 77 1647 68 1702 68 Z M 1462 1520 L 1565 1520 L 719 0 L 618 0 L 1462 1520 Z" unicode="%" />
<glyph horiz-adv-x="1577" d="M 582 -23 C 490 -23 413 -14 352 4 C 291 22 242 48 205 83 C 168 118 142 162 127 214 C 111 266 104 327 104 397 C 104 453 113 505 131 551 C 149 597 174 638 204 676 C 234 713 268 747 308 778 C 347 808 388 837 430 864 C 403 932 382 998 368 1063 C 353 1128 346 1190 346 1249 C 346 1300 352 1344 366 1381 C 379 1418 398 1448 424 1472 C 449 1496 479 1513 515 1525 C 551 1536 591 1542 637 1542 C 729 1542 797 1518 841 1472 C 885 1426 907 1351 907 1249 C 907 1197 896 1152 876 1112 C 856 1072 829 1035 796 1002 C 763 969 726 938 684 910 C 642 881 599 853 555 825 C 594 741 641 660 695 581 C 749 502 809 431 877 367 C 899 344 922 323 944 305 C 966 286 986 269 1006 254 C 1032 286 1057 323 1079 365 C 1101 407 1121 453 1140 504 C 1159 555 1177 610 1195 670 C 1212 730 1229 794 1247 864 L 1341 842 C 1305 701 1268 577 1228 469 C 1188 361 1140 271 1083 199 C 1120 175 1155 156 1187 142 C 1219 128 1250 117 1279 111 C 1307 104 1334 100 1360 98 C 1385 96 1410 96 1434 96 L 1458 96 L 1458 0 L 1432 0 C 1400 0 1368 1 1336 3 C 1304 5 1271 11 1237 20 C 1203 28 1168 41 1132 57 C 1095 73 1056 95 1016 123 C 962 75 900 38 830 14 C 760 -10 677 -23 582 -23 Z M 582 70 C 658 70 725 79 783 97 C 841 115 892 144 936 182 C 915 198 893 217 870 237 C 847 257 824 279 801 303 C 731 371 667 445 610 527 C 553 609 505 693 465 780 C 430 756 397 731 366 705 C 334 679 307 650 284 619 C 260 588 242 554 228 518 C 214 481 207 441 207 397 C 207 345 211 298 221 258 C 231 218 249 184 277 156 C 305 128 343 106 392 92 C 440 77 504 70 582 70 Z M 446 1249 C 446 1197 452 1143 465 1085 C 478 1027 496 967 520 905 C 558 929 595 954 630 979 C 665 1004 696 1030 723 1058 C 749 1085 771 1114 787 1146 C 803 1177 811 1211 811 1249 C 811 1317 798 1367 772 1400 C 746 1433 701 1450 637 1450 C 509 1450 446 1383 446 1249 Z" unicode="&#x26;" />
<glyph horiz-adv-x="526" d="M 209 1520 L 315 1520 L 305 973 L 221 973 L 209 1520 Z" unicode="'" />
<glyph horiz-adv-x="948" d="M 684 -371 C 634 -330 584 -278 532 -216 C 480 -153 432 -80 390 2 C 347 84 312 177 285 279 C 257 381 244 492 244 612 C 244 730 257 840 285 943 C 312 1045 347 1139 390 1224 C 432 1308 480 1383 532 1447 C 584 1511 634 1564 684 1606 L 758 1544 C 712 1503 664 1453 616 1394 C 567 1334 523 1266 483 1188 C 443 1110 411 1023 386 927 C 360 831 348 726 348 612 C 348 536 354 465 366 397 C 378 329 394 265 414 205 C 434 145 458 90 485 38 C 512 -13 541 -60 571 -103 C 601 -146 633 -185 665 -219 C 697 -253 728 -283 758 -309 L 684 -371 L 684 -371 Z" unicode="(" />
<glyph horiz-adv-x="948" d="M 193 -309 C 238 -269 285 -219 333 -161 C 381 -103 424 -35 464 41 C 504 117 536 203 562 299 C 587 394 600 498 600 612 C 600 726 587 831 561 928 C 535 1024 503 1112 464 1191 C 424 1269 380 1338 332 1398 C 284 1457 237 1506 193 1544 L 264 1606 C 313 1564 364 1512 416 1449 C 468 1385 515 1312 558 1228 C 601 1144 636 1050 664 947 C 691 844 705 732 705 612 C 705 494 691 384 664 282 C 636 180 601 88 558 5 C 515 -77 468 -150 416 -214 C 364 -278 313 -330 264 -371 L 193 -309 Z" unicode=")" />
<glyph horiz-adv-x="1157" d="M 545 979 L 190 768 L 147 846 L 506 1042 L 147 1243 L 190 1321 L 545 1108 L 535 1520 L 623 1520 L 612 1108 L 967 1321 L 1010 1243 L 651 1042 L 1010 846 L 967 768 L 612 979 L 623 569 L 535 569 L 545 979 Z" unicode="*" />
<glyph horiz-adv-x="1409" d="M 651 674 L 225 674 L 225 772 L 651 772 L 651 1198 L 756 1198 L 756 772 L 1182 772 L 1182 674 L 756 674 L 756 248 L 651 248 L 651 674 Z" unicode="+" />
<glyph horiz-adv-x="457" d="M 133 -160 C 151 -149 167 -138 180 -128 C 192 -118 202 -107 210 -95 C 218 -83 223 -69 226 -54 C 229 -39 231 -21 231 0 L 152 0 L 152 180 L 305 180 L 305 37 C 305 1 302 -29 298 -55 C 294 -81 286 -103 276 -123 C 265 -143 251 -160 234 -175 C 216 -190 194 -205 168 -219 L 133 -160 Z" unicode="," />
<glyph horiz-adv-x="942" d="M 117 664 L 827 664 L 827 567 L 117 567 L 117 664 Z" unicode="-" />
<glyph horiz-adv-x="457" d="M 152 180 L 305 180 L 305 0 L 152 0 L 152 180 Z" unicode="." />
<glyph horiz-adv-x="963" d="M 852 1518 L 963 1518 L 111 0 L 0 0 L 852 1518 Z" unicode="/" />
<glyph horiz-adv-x="1466" d="M 733 -23 C 654 -23 585 -13 527 4 C 469 22 419 48 378 82 C 336 116 303 156 277 204 C 251 252 230 305 215 363 C 200 421 190 483 184 551 C 178 618 176 688 176 762 C 176 835 178 905 184 972 C 190 1039 200 1101 215 1159 C 230 1217 251 1269 277 1317 C 303 1364 336 1404 378 1438 C 419 1471 469 1497 527 1515 C 585 1533 654 1542 733 1542 C 811 1542 880 1533 938 1515 C 996 1497 1045 1471 1087 1438 C 1128 1404 1162 1364 1189 1317 C 1215 1269 1236 1217 1252 1159 C 1267 1101 1277 1039 1283 972 C 1289 905 1292 835 1292 762 C 1292 688 1289 618 1283 551 C 1277 483 1267 421 1252 363 C 1236 305 1215 252 1189 204 C 1162 156 1128 116 1087 82 C 1045 48 996 22 938 4 C 880 -13 811 -23 733 -23 Z M 733 74 C 798 74 855 82 903 98 C 951 114 991 138 1025 168 C 1058 198 1085 234 1106 276 C 1127 318 1143 364 1155 415 C 1167 466 1175 521 1179 579 C 1183 637 1186 698 1186 762 C 1186 825 1183 886 1179 944 C 1175 1002 1167 1057 1155 1108 C 1143 1158 1127 1204 1106 1246 C 1085 1287 1058 1322 1025 1352 C 991 1381 951 1404 903 1420 C 855 1436 798 1444 733 1444 C 667 1444 611 1436 563 1420 C 515 1404 475 1381 442 1352 C 408 1322 381 1287 361 1246 C 340 1204 324 1158 312 1108 C 300 1057 293 1002 289 944 C 285 886 283 825 283 762 C 283 698 285 637 289 579 C 293 521 300 466 312 415 C 324 364 340 318 361 276 C 381 234 408 198 442 168 C 475 138 515 114 563 98 C 611 82 667 74 733 74 Z" unicode="0" />
<glyph horiz-adv-x="737" d="M 379 1419 L 80 1419 L 80 1518 L 481 1518 L 481 0 L 379 0 L 379 1419 Z" unicode="1" />
<glyph horiz-adv-x="1171" d="M 82 90 L 596 631 C 650 687 697 737 737 783 C 777 828 810 872 837 914 C 864 956 884 998 898 1042 C 911 1085 918 1133 918 1186 C 918 1230 911 1269 898 1302 C 885 1335 865 1362 837 1383 C 809 1404 774 1420 731 1430 C 687 1440 635 1446 575 1446 C 486 1446 408 1437 340 1421 C 272 1404 214 1383 166 1358 L 119 1444 C 175 1473 241 1497 317 1515 C 392 1533 480 1542 582 1542 C 728 1542 837 1514 911 1459 C 985 1403 1022 1314 1022 1192 C 1022 1134 1014 1081 1000 1032 C 986 983 964 935 936 887 C 908 839 872 790 829 740 C 786 690 736 635 678 575 L 219 94 L 1049 94 L 1049 0 L 82 0 L 82 90 Z" unicode="2" />
<glyph horiz-adv-x="1229" d="M 582 -25 C 534 -25 489 -22 445 -18 C 401 -13 358 -5 316 5 C 273 15 230 29 188 46 C 145 63 101 84 57 109 L 111 193 C 152 170 192 151 231 136 C 269 120 308 108 346 98 C 384 88 422 82 460 78 C 498 74 538 72 580 72 C 648 72 707 78 757 90 C 807 102 848 122 881 150 C 913 178 937 215 953 261 C 969 307 977 365 977 434 C 977 490 971 541 959 585 C 947 629 926 665 894 695 C 862 725 817 747 760 763 C 702 778 628 786 537 786 L 346 786 L 346 881 L 532 881 C 608 881 672 886 724 898 C 775 909 816 927 847 951 C 878 975 900 1006 914 1044 C 927 1082 934 1127 934 1180 C 934 1230 927 1272 913 1306 C 899 1340 878 1367 849 1388 C 820 1409 783 1424 738 1434 C 693 1443 640 1448 578 1448 C 543 1448 507 1445 471 1441 C 434 1437 397 1430 361 1422 C 324 1413 288 1402 253 1388 C 218 1374 185 1357 154 1339 L 96 1419 C 132 1441 171 1459 211 1475 C 251 1491 291 1503 333 1513 C 375 1523 417 1530 459 1535 C 501 1539 542 1542 584 1542 C 660 1542 727 1536 784 1524 C 840 1512 887 1492 925 1464 C 962 1436 990 1400 1008 1356 C 1026 1311 1036 1256 1036 1192 C 1036 1091 1017 1012 979 956 C 941 899 885 860 811 840 C 861 829 904 812 938 790 C 972 767 1000 738 1021 704 C 1041 670 1056 630 1065 584 C 1074 538 1079 487 1079 430 C 1079 344 1068 272 1048 214 C 1027 156 996 109 954 73 C 912 37 861 12 799 -2 C 737 -17 664 -25 582 -25 Z" unicode="3" />
<glyph horiz-adv-x="1346" d="M 121 496 L 805 1518 L 922 1518 L 238 500 L 872 500 L 893 1026 L 973 1026 L 973 500 L 1268 500 L 1268 408 L 973 408 L 973 0 L 872 0 L 872 408 L 121 408 L 121 496 Z" unicode="4" />
<glyph horiz-adv-x="1280" d="M 629 -23 C 575 -23 525 -19 479 -12 C 433 -5 389 4 349 16 C 308 28 270 42 234 58 C 198 74 164 91 131 109 L 184 193 C 214 177 246 161 278 147 C 310 132 345 119 381 108 C 417 97 455 88 495 82 C 535 75 579 72 627 72 C 689 72 746 77 800 89 C 854 101 900 122 940 153 C 980 183 1011 225 1034 277 C 1057 329 1069 397 1069 479 C 1069 559 1058 626 1038 679 C 1018 732 989 774 952 806 C 915 838 871 860 820 873 C 769 886 713 893 653 893 C 610 893 571 891 537 888 C 502 884 470 879 440 872 C 410 865 381 856 353 846 C 325 835 298 823 270 809 L 180 836 L 219 1518 L 1067 1518 L 1067 1423 L 311 1423 L 283 909 C 299 919 320 928 346 938 C 371 947 400 955 433 963 C 465 970 501 976 541 980 C 581 984 624 987 670 987 C 742 987 809 979 871 963 C 933 947 986 920 1031 882 C 1075 844 1110 792 1136 727 C 1161 661 1174 579 1174 481 C 1174 379 1160 295 1132 230 C 1104 165 1066 114 1018 76 C 969 38 911 12 845 -1 C 779 -15 707 -23 629 -23 Z" unicode="5" />
<glyph horiz-adv-x="1386" d="M 731 -23 C 639 -23 558 -12 488 8 C 418 29 359 64 312 113 C 264 161 228 225 204 305 C 180 385 168 483 168 600 C 168 707 173 804 184 892 C 195 979 213 1057 239 1125 C 264 1193 298 1251 340 1301 C 382 1350 434 1391 496 1423 C 558 1455 631 1479 715 1495 C 799 1510 896 1518 1006 1518 L 1044 1518 L 1044 1423 L 1004 1423 C 912 1423 831 1417 761 1405 C 691 1393 631 1376 579 1354 C 527 1331 484 1303 448 1270 C 412 1236 383 1198 360 1154 C 337 1110 319 1061 307 1007 C 294 953 285 894 279 831 C 321 897 383 944 464 974 C 544 1003 640 1018 752 1018 C 848 1018 928 1005 992 981 C 1056 957 1107 922 1145 877 C 1183 832 1211 778 1227 714 C 1243 650 1251 579 1251 500 C 1251 420 1242 347 1225 283 C 1208 219 1180 164 1140 118 C 1100 72 1046 37 980 13 C 913 -10 830 -23 731 -23 Z M 733 70 C 813 70 880 80 933 100 C 986 120 1028 149 1060 186 C 1092 223 1114 268 1127 321 C 1140 373 1147 432 1147 498 C 1147 562 1140 621 1127 674 C 1113 727 1091 772 1059 809 C 1027 846 984 875 931 895 C 878 915 812 926 733 926 C 667 926 606 918 550 903 C 494 887 445 864 404 834 C 362 804 330 765 307 719 C 283 673 272 619 272 557 C 272 464 282 386 304 324 C 326 262 357 212 397 174 C 437 136 485 110 542 94 C 598 78 662 70 733 70 Z" unicode="6" />
<glyph horiz-adv-x="1059" d="M 922 1423 L 53 1423 L 53 1518 L 1032 1518 L 1032 1432 L 401 0 L 295 0 L 922 1423 Z" unicode="7" />
<glyph horiz-adv-x="1397" d="M 700 -25 C 604 -25 521 -15 452 4 C 383 23 326 52 281 90 C 236 128 203 175 182 231 C 160 287 150 351 150 424 C 150 536 173 627 220 697 C 267 767 338 814 434 838 C 352 859 292 898 256 956 C 219 1014 201 1086 201 1174 C 201 1232 209 1283 226 1329 C 243 1374 271 1412 311 1444 C 350 1476 401 1500 465 1517 C 528 1533 606 1542 700 1542 C 792 1542 870 1533 934 1517 C 997 1500 1048 1476 1087 1444 C 1125 1412 1153 1374 1170 1329 C 1187 1283 1196 1232 1196 1174 C 1196 1086 1177 1013 1141 955 C 1104 897 1045 858 965 838 C 1061 812 1132 764 1178 695 C 1224 625 1247 535 1247 424 C 1247 351 1236 287 1214 231 C 1192 175 1159 128 1114 90 C 1069 52 1012 23 944 4 C 875 -15 794 -25 700 -25 Z M 700 68 C 849 68 960 97 1033 157 C 1106 216 1143 306 1143 428 C 1143 550 1106 641 1033 701 C 960 761 849 791 700 791 C 547 791 434 761 362 701 C 290 641 254 550 254 428 C 254 306 290 216 362 157 C 434 97 547 68 700 68 Z M 700 879 C 772 879 833 885 883 897 C 933 909 973 927 1005 951 C 1036 975 1059 1004 1073 1040 C 1087 1076 1094 1117 1094 1165 C 1094 1211 1087 1252 1073 1288 C 1059 1324 1036 1354 1005 1378 C 973 1402 933 1421 883 1433 C 833 1445 772 1452 700 1452 C 627 1452 565 1445 515 1433 C 465 1421 424 1402 392 1378 C 360 1354 338 1324 324 1288 C 310 1252 303 1211 303 1165 C 303 1117 310 1076 324 1040 C 338 1004 360 975 392 951 C 424 927 465 909 515 897 C 565 885 627 879 700 879 Z" unicode="8" />
<glyph horiz-adv-x="1386" d="M 342 94 L 385 94 C 477 94 557 99 627 111 C 697 123 757 140 809 163 C 861 186 904 215 940 249 C 975 283 1004 322 1027 366 C 1050 410 1068 458 1080 512 C 1092 566 1102 624 1108 688 C 1064 622 1003 574 923 545 C 843 516 748 502 637 502 C 541 502 460 514 396 538 C 332 562 280 597 242 642 C 204 687 177 742 161 806 C 145 870 137 941 137 1020 C 137 1100 145 1172 162 1236 C 179 1300 208 1355 248 1401 C 288 1446 341 1481 408 1505 C 474 1529 557 1542 657 1542 C 749 1542 830 1531 900 1510 C 970 1489 1028 1454 1076 1406 C 1124 1357 1160 1293 1184 1214 C 1208 1134 1221 1036 1221 920 C 1221 758 1208 620 1182 504 C 1156 388 1112 293 1048 218 C 984 143 899 88 791 53 C 683 17 547 0 383 0 L 342 0 L 342 94 Z M 655 592 C 721 592 782 599 838 615 C 894 630 942 653 984 684 C 1025 714 1057 753 1081 799 C 1104 845 1116 899 1116 961 C 1116 1053 1105 1131 1084 1193 C 1062 1255 1032 1305 992 1343 C 952 1381 903 1408 847 1424 C 790 1440 727 1448 657 1448 C 576 1448 509 1437 455 1417 C 401 1397 359 1368 327 1331 C 295 1294 272 1249 259 1196 C 246 1143 240 1084 240 1020 C 240 954 246 895 260 843 C 274 790 297 745 329 708 C 361 671 403 642 456 622 C 509 602 575 592 655 592 Z" unicode="9" />
<glyph horiz-adv-x="498" d="M 172 178 L 326 178 L 326 0 L 172 0 L 172 178 Z M 172 1120 L 326 1120 L 326 944 L 172 944 L 172 1120 Z" unicode=":" />
<glyph horiz-adv-x="498" d="M 154 -160 C 172 -149 188 -138 201 -128 C 213 -118 223 -107 231 -95 C 238 -83 243 -69 247 -54 C 250 -39 252 -21 252 0 L 172 0 L 172 178 L 326 178 L 326 37 C 326 -1 323 -34 319 -60 C 315 -86 307 -108 297 -127 C 286 -146 272 -163 254 -177 C 236 -191 214 -205 188 -219 L 154 -160 Z M 172 1120 L 326 1120 L 326 944 L 172 944 L 172 1120 Z" unicode=";" />
<glyph horiz-adv-x="1409" d="M 209 666 L 209 750 L 1118 1206 L 1118 1110 L 311 709 L 1118 307 L 1118 207 L 209 666 Z" unicode="&#x3C;" />
<glyph horiz-adv-x="1409" d="M 238 559 L 1171 559 L 1171 463 L 238 463 L 238 559 Z M 238 981 L 1171 981 L 1171 885 L 238 885 L 238 981 Z" unicode="=" />
<glyph horiz-adv-x="1409" d="M 291 307 L 1098 707 L 291 1108 L 291 1206 L 1200 750 L 1200 666 L 291 207 L 291 307 Z" unicode="&#x3E;" />
<glyph horiz-adv-x="1335" d="M 575 391 C 569 457 567 514 570 561 C 572 608 582 649 598 685 C 614 721 637 753 669 782 C 700 811 741 841 793 872 C 840 901 880 927 913 950 C 945 972 972 995 992 1018 C 1012 1041 1026 1066 1035 1093 C 1044 1120 1049 1152 1049 1190 C 1049 1228 1044 1263 1036 1295 C 1027 1327 1009 1354 983 1376 C 957 1398 919 1416 871 1428 C 822 1440 758 1446 678 1446 C 596 1446 517 1436 439 1417 C 361 1397 291 1371 229 1337 L 182 1427 C 214 1445 250 1462 290 1476 C 330 1490 371 1502 415 1512 C 458 1522 502 1529 548 1534 C 594 1539 638 1542 682 1542 C 779 1542 858 1534 920 1518 C 981 1502 1029 1480 1064 1451 C 1099 1421 1123 1385 1136 1342 C 1148 1299 1155 1250 1155 1196 C 1155 1146 1148 1104 1136 1068 C 1123 1032 1104 999 1080 970 C 1055 941 1025 914 990 889 C 954 863 914 837 868 809 C 822 781 786 755 759 732 C 731 708 711 682 697 652 C 683 622 676 587 674 546 C 672 505 673 453 678 391 L 575 391 Z M 549 170 L 702 170 L 702 0 L 549 0 L 549 170 Z" unicode="?" />
<glyph horiz-adv-x="2236" d="M 1126 -338 C 965 -338 826 -317 710 -275 C 594 -233 498 -172 422 -92 C 346 -12 291 86 255 202 C 219 318 201 451 201 600 C 201 749 219 882 256 999 C 292 1116 348 1215 424 1296 C 500 1376 595 1438 710 1480 C 825 1522 961 1544 1118 1544 C 1275 1544 1412 1522 1528 1480 C 1644 1438 1740 1376 1816 1296 C 1892 1215 1948 1116 1986 999 C 2023 882 2042 749 2042 600 C 2042 502 2037 419 2028 352 C 2018 285 2001 231 1977 189 C 1953 147 1919 117 1877 99 C 1835 81 1781 72 1716 72 C 1658 72 1613 78 1580 91 C 1546 104 1521 121 1504 142 C 1486 162 1475 185 1470 210 C 1465 234 1462 259 1462 283 C 1445 245 1425 214 1401 188 C 1377 162 1348 140 1315 124 C 1282 107 1244 95 1201 87 C 1157 79 1108 76 1053 76 C 974 76 907 88 851 112 C 795 136 750 171 714 217 C 678 263 652 318 636 384 C 620 450 612 524 612 608 C 612 690 620 763 637 829 C 653 895 679 950 715 996 C 751 1042 797 1077 853 1102 C 909 1126 976 1139 1055 1139 C 1110 1139 1159 1135 1202 1127 C 1245 1119 1283 1108 1315 1092 C 1347 1076 1375 1055 1397 1030 C 1419 1004 1438 974 1452 938 L 1473 1135 L 1546 1130 L 1546 336 C 1546 313 1547 290 1551 267 C 1555 244 1563 223 1575 205 C 1587 187 1606 172 1631 160 C 1655 148 1689 143 1731 143 C 1779 143 1819 151 1850 167 C 1880 183 1904 209 1921 245 C 1937 281 1949 329 1955 387 C 1961 445 1964 516 1964 600 C 1964 738 1947 860 1914 968 C 1880 1076 1829 1167 1760 1241 C 1690 1315 1602 1372 1496 1411 C 1390 1450 1264 1470 1118 1470 C 973 1470 848 1450 742 1411 C 636 1372 549 1315 481 1241 C 412 1167 361 1076 328 968 C 295 860 279 738 279 600 C 279 464 295 342 328 235 C 361 128 412 38 481 -36 C 550 -110 638 -166 745 -205 C 851 -244 978 -264 1126 -264 C 1244 -264 1352 -252 1448 -230 C 1544 -208 1628 -179 1702 -143 L 1737 -207 C 1657 -247 1567 -278 1466 -302 C 1365 -326 1252 -338 1126 -338 Z M 1065 162 C 1127 162 1182 169 1230 183 C 1278 197 1318 222 1350 256 C 1382 290 1407 335 1423 393 C 1439 450 1448 522 1448 608 C 1448 692 1439 763 1423 820 C 1407 876 1383 921 1351 955 C 1319 988 1279 1012 1231 1026 C 1183 1040 1127 1047 1065 1047 C 1001 1047 947 1037 902 1017 C 857 997 820 969 792 932 C 764 894 743 848 730 794 C 717 740 711 678 711 608 C 711 537 717 474 730 419 C 743 363 764 317 792 279 C 820 241 857 212 902 192 C 947 172 1001 162 1065 162 Z" unicode="@" />
<glyph horiz-adv-x="1444" d="M 670 1528 L 774 1528 L 1382 0 L 1274 0 L 1120 385 L 319 385 L 168 0 L 61 0 L 670 1528 Z M 1083 483 L 721 1395 L 356 483 L 1083 483 Z" unicode="A" />
<glyph horiz-adv-x="1409" d="M 186 1518 L 831 1518 C 987 1518 1102 1487 1176 1426 C 1249 1364 1286 1275 1286 1157 C 1286 1113 1281 1072 1272 1034 C 1263 996 1249 961 1231 931 C 1212 900 1188 874 1160 852 C 1132 830 1099 813 1061 801 C 1147 779 1213 737 1257 675 C 1301 612 1323 528 1323 422 C 1323 346 1312 282 1291 229 C 1269 175 1237 132 1195 98 C 1152 64 1099 39 1035 23 C 971 7 897 0 813 0 L 186 0 L 186 1518 Z M 821 98 C 955 98 1055 124 1120 176 C 1184 228 1217 312 1217 428 C 1217 536 1184 616 1120 668 C 1056 719 954 745 815 745 L 293 745 L 293 98 L 821 98 Z M 834 844 C 902 844 958 851 1002 867 C 1046 883 1082 904 1108 932 C 1134 959 1152 991 1162 1028 C 1172 1064 1178 1104 1178 1147 C 1178 1191 1171 1229 1158 1263 C 1145 1297 1125 1325 1097 1348 C 1069 1371 1033 1389 990 1401 C 946 1413 894 1419 834 1419 L 293 1419 L 293 844 L 834 844 Z" unicode="B" />
<glyph horiz-adv-x="1454" d="M 834 -23 C 588 -23 403 42 280 174 C 157 305 96 500 96 760 C 96 891 112 1006 145 1104 C 178 1202 226 1283 289 1348 C 352 1413 430 1462 522 1494 C 614 1526 720 1542 838 1542 C 936 1542 1030 1527 1118 1497 C 1206 1467 1284 1422 1350 1362 L 1276 1286 C 1218 1338 1151 1377 1076 1403 C 1000 1429 921 1442 838 1442 C 630 1442 473 1385 366 1271 C 258 1157 205 986 205 760 C 205 305 416 78 838 78 C 897 78 949 82 995 91 C 1041 99 1081 111 1117 126 C 1152 141 1183 158 1211 177 C 1238 196 1263 216 1286 238 L 1360 164 C 1334 140 1306 116 1274 94 C 1242 72 1206 52 1164 34 C 1122 16 1074 2 1020 -7 C 966 -17 904 -23 834 -23 Z" unicode="C" />
<glyph horiz-adv-x="1520" d="M 186 1518 L 668 1518 C 808 1518 926 1505 1023 1481 C 1119 1456 1197 1414 1257 1356 C 1316 1297 1359 1219 1385 1122 C 1411 1025 1425 904 1425 760 C 1425 618 1410 498 1380 402 C 1350 305 1304 227 1241 167 C 1177 107 1096 65 996 39 C 896 13 775 0 635 0 L 186 0 L 186 1518 Z M 639 98 C 763 98 869 109 955 133 C 1041 156 1110 194 1164 246 C 1218 298 1257 366 1281 450 C 1305 534 1317 638 1317 760 C 1317 884 1306 988 1285 1072 C 1264 1156 1229 1223 1179 1274 C 1129 1325 1062 1362 979 1384 C 895 1406 792 1417 668 1417 L 295 1417 L 295 98 L 639 98 Z" unicode="D" />
<glyph horiz-adv-x="1278" d="M 186 1518 L 1149 1518 L 1149 1417 L 295 1417 L 295 844 L 1128 844 L 1128 743 L 295 743 L 295 98 L 1157 98 L 1157 0 L 186 0 L 186 1518 Z" unicode="E" />
<glyph horiz-adv-x="1198" d="M 186 1518 L 1124 1518 L 1124 1417 L 295 1417 L 295 838 L 1106 838 L 1106 737 L 295 737 L 295 0 L 186 0 L 186 1518 Z" unicode="F" />
<glyph horiz-adv-x="1579" d="M 834 -23 C 704 -23 592 -6 499 25 C 406 57 330 106 270 172 C 210 237 166 318 138 416 C 110 514 96 628 96 760 C 96 896 112 1014 145 1113 C 177 1211 225 1292 288 1356 C 351 1419 429 1466 521 1496 C 613 1526 718 1542 838 1542 C 908 1542 972 1536 1028 1525 C 1084 1514 1133 1500 1176 1483 C 1219 1466 1256 1447 1288 1426 C 1320 1405 1347 1384 1370 1364 L 1296 1286 C 1270 1308 1242 1328 1212 1347 C 1181 1366 1147 1383 1110 1397 C 1072 1411 1031 1422 986 1430 C 941 1438 892 1442 838 1442 C 734 1442 643 1428 564 1401 C 484 1374 418 1333 365 1277 C 311 1221 271 1150 244 1064 C 216 978 203 877 203 760 C 203 644 215 543 239 457 C 263 371 300 299 352 243 C 403 186 468 144 548 116 C 628 88 724 74 836 74 C 946 74 1036 86 1106 111 C 1175 135 1229 172 1268 221 C 1307 269 1334 330 1348 402 C 1362 474 1370 557 1370 651 L 1370 707 L 829 707 L 829 807 L 1477 807 L 1477 666 C 1477 598 1474 534 1468 474 C 1462 414 1450 358 1434 307 C 1417 256 1394 210 1364 170 C 1334 129 1296 94 1248 66 C 1200 37 1143 15 1075 0 C 1007 -15 926 -23 834 -23 Z" unicode="G" />
<glyph horiz-adv-x="1567" d="M 186 1518 L 295 1518 L 295 848 L 1274 848 L 1274 1518 L 1380 1518 L 1380 0 L 1274 0 L 1274 748 L 295 748 L 295 0 L 186 0 L 186 1518 Z" unicode="H" />
<glyph horiz-adv-x="506" d="M 201 1518 L 305 1518 L 305 0 L 201 0 L 201 1518 Z" unicode="I" />
<glyph horiz-adv-x="784" d="M 199 -2 C 185 -2 173 -2 163 -2 C 153 -2 143 -2 133 -2 C 123 -2 113 -1 103 -1 C 93 -1 81 0 68 0 L 68 98 L 190 98 C 246 98 294 104 334 117 C 374 129 406 149 431 175 C 456 201 474 233 485 273 C 496 313 502 360 502 414 L 502 1518 L 608 1518 L 608 412 C 608 268 575 163 509 97 C 443 31 339 -2 199 -2 Z" unicode="J" />
<glyph horiz-adv-x="1407" d="M 623 850 L 293 498 L 293 0 L 186 0 L 186 1518 L 293 1518 L 293 633 L 1120 1518 L 1247 1518 L 692 924 L 1321 0 L 1200 0 L 623 850 Z" unicode="K" />
<glyph horiz-adv-x="1184" d="M 186 1518 L 295 1518 L 295 98 L 1120 98 L 1120 0 L 186 0 L 186 1518 Z" unicode="L" />
<glyph horiz-adv-x="1833" d="M 186 1518 L 324 1518 L 915 143 L 1511 1518 L 1647 1518 L 1647 0 L 1540 0 L 1540 1341 L 961 0 L 868 0 L 289 1341 L 289 0 L 186 0 L 186 1518 Z" unicode="M" />
<glyph horiz-adv-x="1569" d="M 186 1518 L 307 1518 L 1280 172 L 1280 1518 L 1382 1518 L 1382 0 L 1284 0 L 289 1374 L 289 0 L 186 0 L 186 1518 Z" unicode="N" />
<glyph horiz-adv-x="1696" d="M 846 -25 C 724 -25 617 -9 524 22 C 430 54 352 102 289 167 C 225 232 177 314 145 412 C 112 510 96 626 96 760 C 96 892 112 1008 145 1106 C 177 1204 225 1286 289 1350 C 352 1414 430 1462 524 1494 C 617 1526 724 1542 846 1542 C 968 1542 1076 1526 1170 1494 C 1264 1462 1342 1414 1406 1350 C 1469 1286 1517 1204 1550 1106 C 1582 1008 1599 892 1599 760 C 1599 626 1582 510 1550 412 C 1517 314 1469 232 1406 167 C 1342 102 1264 54 1170 22 C 1076 -9 968 -25 846 -25 Z M 846 76 C 1062 76 1224 133 1332 249 C 1439 364 1493 534 1493 760 C 1493 984 1439 1153 1332 1269 C 1224 1384 1062 1442 846 1442 C 630 1442 470 1384 364 1269 C 258 1153 205 984 205 760 C 205 534 258 364 364 249 C 470 133 630 76 846 76 Z" unicode="O" />
<glyph horiz-adv-x="1413" d="M 186 1518 L 831 1518 C 910 1518 980 1510 1041 1494 C 1101 1478 1152 1452 1193 1418 C 1234 1383 1265 1338 1286 1283 C 1306 1228 1317 1161 1317 1083 C 1317 925 1276 810 1194 737 C 1112 663 993 627 836 627 L 293 627 L 293 0 L 186 0 L 186 1518 Z M 838 725 C 896 725 949 731 995 744 C 1041 756 1080 777 1112 805 C 1144 833 1168 870 1185 915 C 1201 960 1210 1015 1210 1081 C 1210 1145 1201 1199 1185 1243 C 1169 1286 1144 1321 1112 1347 C 1080 1373 1040 1391 993 1402 C 945 1413 891 1419 829 1419 L 293 1419 L 293 725 L 838 725 Z" unicode="P" />
<glyph horiz-adv-x="1696" d="M 1098 -362 C 1030 -362 973 -356 928 -344 C 883 -332 848 -313 823 -286 C 797 -259 780 -224 772 -180 C 763 -136 761 -81 766 -16 C 539 -4 371 65 261 192 C 151 318 96 508 96 760 C 96 1026 157 1222 280 1350 C 403 1478 592 1542 846 1542 C 1100 1542 1289 1478 1413 1350 C 1537 1222 1599 1026 1599 760 C 1599 628 1584 513 1554 417 C 1524 320 1478 240 1418 176 C 1357 112 1281 64 1189 32 C 1097 0 988 -16 864 -18 C 860 -66 861 -106 866 -138 C 871 -170 882 -195 899 -214 C 916 -233 941 -246 973 -254 C 1005 -262 1046 -266 1098 -266 L 1245 -266 L 1245 -360 C 1241 -360 1232 -361 1218 -361 C 1204 -361 1190 -362 1174 -362 C 1158 -362 1143 -362 1129 -362 C 1114 -362 1104 -362 1098 -362 Z M 846 76 C 958 76 1055 90 1137 119 C 1219 148 1286 191 1339 249 C 1391 306 1430 377 1455 463 C 1480 548 1493 647 1493 760 C 1493 872 1480 970 1455 1055 C 1430 1140 1391 1211 1339 1269 C 1286 1326 1219 1369 1137 1398 C 1055 1427 958 1442 846 1442 C 733 1442 636 1427 555 1398 C 474 1369 408 1326 356 1269 C 304 1211 265 1140 241 1055 C 217 970 205 872 205 760 C 205 647 217 548 241 463 C 265 377 304 306 356 249 C 408 191 474 148 555 119 C 636 90 733 76 846 76 Z" unicode="Q" />
<glyph horiz-adv-x="1438" d="M 778 657 L 293 657 L 293 0 L 186 0 L 186 1518 L 819 1518 C 897 1518 967 1510 1028 1494 C 1088 1478 1139 1452 1181 1418 C 1222 1384 1253 1340 1275 1286 C 1296 1232 1307 1168 1307 1092 C 1307 1020 1297 958 1279 906 C 1260 854 1233 810 1197 775 C 1161 740 1118 713 1067 694 C 1015 675 957 663 893 659 L 1282 0 L 1167 0 L 778 657 Z M 823 756 C 879 756 931 761 977 771 C 1023 781 1062 799 1095 825 C 1127 850 1153 884 1171 926 C 1189 968 1198 1022 1198 1087 C 1198 1150 1189 1203 1171 1246 C 1153 1288 1128 1322 1096 1348 C 1063 1374 1023 1392 976 1403 C 928 1413 875 1419 817 1419 L 293 1419 L 293 756 L 823 756 Z" unicode="R" />
<glyph horiz-adv-x="1415" d="M 696 -20 C 644 -20 592 -17 542 -12 C 492 -6 442 2 393 15 C 343 28 294 45 245 67 C 195 88 146 115 96 147 L 152 229 C 198 199 244 175 290 155 C 336 135 381 120 426 109 C 471 97 516 89 560 85 C 604 80 649 78 694 78 C 773 78 843 84 903 97 C 963 109 1014 129 1055 156 C 1095 183 1126 218 1147 261 C 1167 303 1178 354 1178 414 C 1178 475 1166 524 1143 561 C 1119 598 1086 628 1044 651 C 1001 673 950 691 891 704 C 832 717 767 731 696 745 C 645 754 597 764 551 774 C 505 784 463 796 424 810 C 385 824 350 840 318 859 C 286 877 259 900 237 927 C 215 954 198 986 186 1023 C 174 1059 168 1103 168 1153 C 168 1222 179 1281 202 1330 C 224 1379 258 1419 302 1451 C 346 1482 401 1505 466 1520 C 531 1534 606 1542 692 1542 C 800 1542 895 1530 977 1508 C 1059 1485 1132 1453 1194 1411 L 1137 1325 C 1080 1363 1014 1392 938 1413 C 862 1433 780 1444 692 1444 C 550 1444 445 1421 377 1375 C 308 1329 274 1256 274 1155 C 274 1101 284 1056 304 1022 C 324 988 354 960 393 938 C 431 916 478 898 533 884 C 588 870 651 856 721 842 C 801 826 876 810 945 794 C 1013 778 1073 755 1123 726 C 1173 696 1212 657 1240 609 C 1268 560 1282 496 1282 416 C 1282 266 1232 156 1133 86 C 1034 15 888 -20 696 -20 Z" unicode="S" />
<glyph horiz-adv-x="1399" d="M 647 1417 L 63 1417 L 63 1518 L 1337 1518 L 1337 1417 L 754 1417 L 754 0 L 647 0 L 647 1417 Z" unicode="T" />
<glyph horiz-adv-x="1571" d="M 782 -25 C 697 -25 623 -18 560 -4 C 497 9 443 28 399 53 C 354 77 317 107 288 142 C 259 176 236 214 220 256 C 203 298 191 342 185 390 C 179 437 176 486 176 537 L 176 1518 L 285 1518 L 285 545 C 285 477 291 415 305 358 C 319 300 344 251 381 209 C 417 167 468 135 532 111 C 596 87 680 76 782 76 C 850 76 909 81 961 92 C 1013 102 1057 117 1095 137 C 1133 157 1164 181 1189 209 C 1214 237 1234 268 1249 303 C 1264 337 1275 375 1281 416 C 1287 456 1290 499 1290 545 L 1290 1518 L 1395 1518 L 1395 537 C 1395 486 1391 437 1384 389 C 1377 341 1365 297 1348 255 C 1331 213 1308 175 1278 141 C 1248 107 1211 77 1166 53 C 1120 28 1066 9 1003 -4 C 939 -18 866 -25 782 -25 Z" unicode="U" />
<glyph horiz-adv-x="1444" d="M 63 1518 L 174 1518 L 725 127 L 1274 1518 L 1382 1518 L 774 -10 L 670 -10 L 63 1518 Z" unicode="V" />
<glyph horiz-adv-x="2220" d="M 82 1518 L 193 1518 L 627 176 L 1069 1518 L 1157 1518 L 1597 176 L 2034 1518 L 2138 1518 L 1640 -10 L 1552 -10 L 1110 1337 L 670 -10 L 580 -10 L 82 1518 Z" unicode="W" />
<glyph horiz-adv-x="1407" d="M 700 713 L 207 0 L 90 0 L 645 793 L 137 1518 L 254 1518 L 707 870 L 1157 1518 L 1274 1518 L 762 791 L 1319 0 L 1200 0 L 700 713 Z" unicode="X" />
<glyph horiz-adv-x="1397" d="M 645 608 L 35 1518 L 152 1518 L 700 705 L 1249 1518 L 1362 1518 L 752 612 L 752 0 L 645 0 L 645 608 Z" unicode="Y" />
<glyph horiz-adv-x="1346" d="M 100 88 L 1087 1417 L 135 1417 L 135 1518 L 1217 1518 L 1217 1425 L 231 98 L 1239 98 L 1239 0 L 100 0 L 100 88 Z" unicode="Z" />
<glyph horiz-adv-x="913" d="M 262 1589 L 698 1589 L 698 1495 L 367 1495 L 367 -246 L 705 -246 L 705 -338 L 262 -338 L 262 1589 Z" unicode="[" />
<glyph horiz-adv-x="963" d="M 0 1518 L 111 1518 L 963 0 L 852 0 L 0 1518 Z" unicode="\" />
<glyph horiz-adv-x="913" d="M 215 -246 L 547 -246 L 547 1495 L 209 1495 L 209 1589 L 651 1589 L 651 -338 L 215 -338 L 215 -246 Z" unicode="]" />
<glyph horiz-adv-x="1208" d="M 541 1565 L 666 1565 L 977 1264 L 864 1264 L 602 1497 L 340 1264 L 231 1264 L 541 1565 Z" unicode="^" />
<glyph horiz-adv-x="928" d="M -76 -135 L 1004 -135 L 1004 -223 L -76 -223 L -76 -135 Z" unicode="_" />
<glyph horiz-adv-x="1208" d="M 301 1544 L 432 1544 L 745 1243 L 641 1243 L 301 1544 Z" unicode="`" />
<glyph horiz-adv-x="1255" d="M 487 -23 C 411 -23 348 -14 298 2 C 248 18 209 41 180 71 C 151 101 131 136 119 176 C 107 216 102 259 102 307 C 102 387 115 453 142 505 C 169 557 213 599 273 630 C 333 660 411 682 507 694 C 603 706 720 713 858 713 L 932 713 C 931 772 927 823 920 866 C 912 908 897 943 874 971 C 851 998 818 1018 775 1031 C 732 1044 675 1051 604 1051 C 568 1051 533 1048 500 1042 C 467 1036 436 1028 407 1019 C 378 1009 351 998 327 986 C 303 974 282 962 264 950 L 209 1032 C 227 1044 250 1056 278 1070 C 306 1084 337 1096 372 1108 C 406 1119 444 1128 484 1136 C 524 1143 566 1147 610 1147 C 671 1147 724 1143 769 1135 C 814 1127 852 1116 884 1100 C 915 1084 940 1064 960 1040 C 980 1016 995 987 1006 953 C 1016 919 1024 881 1028 837 C 1032 793 1034 745 1034 692 L 1034 242 C 1034 209 1035 183 1037 163 C 1039 143 1044 128 1052 118 C 1060 108 1073 101 1089 98 C 1105 95 1128 94 1157 94 L 1157 2 C 1153 0 1147 -1 1140 -1 C 1133 -1 1125 -2 1116 -2 C 1082 -2 1053 1 1031 9 C 1009 17 991 28 978 44 C 964 60 955 79 950 103 C 944 126 942 154 942 186 C 924 151 902 121 878 95 C 853 69 823 47 787 29 C 751 11 708 -1 659 -10 C 610 -18 553 -23 487 -23 Z M 500 70 C 576 70 642 78 697 96 C 751 114 796 141 831 178 C 865 215 891 262 907 318 C 923 374 932 442 932 520 L 932 616 L 862 616 C 732 616 625 611 541 602 C 457 593 390 577 340 555 C 290 532 255 501 235 462 C 215 423 205 373 205 313 C 205 275 209 240 219 210 C 228 180 244 154 267 134 C 289 113 319 97 357 86 C 395 75 442 70 500 70 Z" unicode="a" />
<glyph horiz-adv-x="1305" d="M 713 -23 C 647 -23 591 -19 543 -11 C 495 -3 453 8 417 24 C 381 40 351 61 327 87 C 302 113 280 144 262 180 L 244 -4 L 166 2 L 166 1589 L 270 1589 L 270 942 C 286 978 306 1009 331 1035 C 355 1061 386 1082 422 1099 C 458 1115 500 1127 549 1135 C 597 1143 653 1147 717 1147 C 809 1147 885 1133 947 1106 C 1008 1079 1057 1040 1093 990 C 1129 940 1155 878 1171 806 C 1186 734 1194 653 1194 563 C 1194 472 1186 390 1171 318 C 1155 246 1129 184 1092 134 C 1055 83 1006 44 944 17 C 882 -9 805 -23 713 -23 Z M 700 74 C 775 74 838 85 888 107 C 938 129 978 160 1008 202 C 1038 243 1059 294 1071 354 C 1083 414 1090 483 1090 559 C 1090 636 1084 705 1072 766 C 1060 826 1039 878 1009 920 C 979 962 940 994 890 1016 C 840 1038 776 1049 700 1049 C 624 1049 559 1041 505 1025 C 451 1009 406 982 371 944 C 336 906 310 856 294 794 C 278 731 270 653 270 559 C 270 465 278 388 294 326 C 310 264 336 214 371 177 C 405 139 450 113 504 97 C 558 81 624 74 700 74 Z" unicode="b" />
<glyph horiz-adv-x="1139" d="M 633 -23 C 531 -23 447 -9 380 17 C 313 44 260 83 220 133 C 180 183 151 245 135 317 C 119 389 111 471 111 563 C 111 654 119 736 136 808 C 152 880 181 942 221 992 C 261 1042 315 1080 382 1107 C 449 1133 533 1147 635 1147 C 685 1147 729 1142 769 1134 C 809 1125 844 1114 876 1100 C 907 1086 934 1069 958 1051 C 982 1033 1003 1014 1022 995 L 948 924 C 934 938 917 952 897 967 C 877 982 855 996 829 1008 C 803 1020 774 1029 742 1037 C 710 1045 674 1049 635 1049 C 555 1049 489 1038 435 1016 C 381 994 338 963 306 921 C 273 879 250 828 236 768 C 222 708 215 639 215 561 C 215 483 221 414 235 354 C 249 294 272 243 304 201 C 336 159 379 128 433 106 C 487 84 554 74 635 74 C 702 74 761 84 812 106 C 862 127 910 157 954 197 L 1024 129 C 997 105 970 84 943 65 C 915 46 886 30 855 17 C 823 4 789 -5 753 -12 C 717 -19 677 -23 633 -23 Z" unicode="c" />
<glyph horiz-adv-x="1305" d="M 590 -20 C 497 -20 420 -6 358 20 C 296 47 247 86 211 136 C 174 186 148 248 133 320 C 118 392 111 474 111 565 C 111 655 118 736 134 808 C 149 880 175 941 212 991 C 249 1041 298 1080 360 1107 C 422 1133 499 1147 592 1147 C 656 1147 712 1143 760 1135 C 808 1127 850 1115 886 1099 C 921 1083 951 1062 975 1037 C 999 1011 1018 981 1034 946 L 1034 1589 L 1139 1589 L 1139 4 L 1057 -2 L 1044 188 C 1026 151 1004 119 978 93 C 952 67 922 45 886 29 C 850 12 807 0 759 -8 C 711 -16 654 -20 590 -20 Z M 604 78 C 680 78 745 86 799 102 C 853 118 897 144 932 182 C 967 219 993 269 1009 331 C 1025 393 1034 471 1034 565 C 1034 658 1026 736 1010 798 C 994 860 968 909 934 947 C 899 984 854 1010 800 1026 C 746 1041 680 1049 604 1049 C 528 1049 465 1038 415 1016 C 365 994 325 963 295 922 C 265 880 245 830 233 770 C 221 710 215 641 215 565 C 215 488 221 419 233 359 C 245 299 265 248 295 206 C 325 164 365 133 415 111 C 465 89 528 78 604 78 Z" unicode="d" />
<glyph horiz-adv-x="1198" d="M 635 -23 C 561 -23 496 -16 442 -2 C 388 11 341 30 302 55 C 263 80 231 110 207 146 C 182 181 162 220 148 264 C 134 308 124 355 119 405 C 113 455 111 507 111 563 C 111 645 118 722 132 793 C 146 864 173 926 211 978 C 249 1030 301 1072 368 1102 C 435 1132 521 1147 627 1147 C 699 1147 761 1139 811 1123 C 861 1107 903 1086 937 1059 C 970 1031 996 999 1015 961 C 1033 923 1047 881 1056 837 C 1065 792 1070 745 1072 695 C 1074 645 1075 594 1075 543 L 211 543 C 211 475 217 412 228 354 C 239 296 260 246 291 204 C 322 162 365 129 420 105 C 475 81 547 70 635 70 C 681 70 722 73 758 79 C 794 85 826 93 854 104 C 882 114 907 127 931 141 C 954 155 977 171 1001 188 L 1059 113 C 1033 93 1005 75 977 59 C 949 43 918 28 884 16 C 850 4 812 -5 771 -12 C 730 -19 685 -23 635 -23 Z M 625 1053 C 546 1053 481 1042 429 1022 C 377 1002 336 973 305 937 C 274 901 252 857 238 806 C 224 755 215 699 213 639 L 975 639 C 973 676 970 712 968 747 C 965 781 960 814 952 845 C 944 875 932 903 918 929 C 903 955 883 977 858 995 C 832 1013 801 1028 763 1038 C 725 1048 679 1053 625 1053 Z" unicode="e" />
<glyph horiz-adv-x="750" d="M 68 1120 L 279 1120 L 279 1253 C 279 1301 283 1345 292 1386 C 301 1427 317 1463 340 1493 C 362 1523 393 1546 433 1563 C 472 1580 522 1589 584 1589 L 698 1589 L 698 1495 L 592 1495 C 550 1495 515 1488 488 1476 C 461 1464 440 1447 424 1425 C 408 1403 398 1377 392 1348 C 386 1318 383 1287 383 1253 L 383 1120 L 698 1120 L 698 1026 L 383 1026 L 383 0 L 279 0 L 279 1026 L 68 1026 L 68 1120 Z" unicode="f" />
<glyph horiz-adv-x="1188" d="M 575 410 C 494 410 425 418 369 434 C 355 420 344 404 336 386 C 328 368 324 351 324 334 C 324 314 327 298 335 286 C 343 274 356 264 376 257 C 395 250 421 245 453 243 C 485 241 525 240 575 240 C 671 240 753 236 820 228 C 887 220 941 206 983 185 C 1025 164 1055 135 1074 99 C 1092 63 1102 16 1102 -41 C 1102 -95 1093 -142 1076 -183 C 1058 -223 1029 -257 988 -285 C 946 -312 891 -332 823 -346 C 755 -360 669 -367 567 -367 C 482 -367 408 -362 346 -354 C 284 -346 232 -331 191 -310 C 150 -288 120 -260 100 -224 C 80 -188 70 -142 70 -86 C 70 -53 73 -22 81 8 C 89 38 102 65 120 90 C 138 115 162 137 192 155 C 222 173 259 186 305 195 C 278 204 258 220 245 243 C 231 265 225 292 225 324 C 225 352 230 378 241 403 C 251 427 265 449 283 469 C 232 497 195 537 171 587 C 147 637 135 700 135 774 C 135 900 170 993 240 1055 C 310 1116 422 1147 575 1147 C 596 1147 617 1146 637 1145 C 657 1144 677 1142 696 1139 L 1055 1167 L 1055 1079 L 858 1079 C 911 1050 951 1011 978 963 C 1004 915 1018 852 1018 774 C 1018 648 982 556 910 498 C 838 439 727 410 575 410 Z M 575 502 C 635 502 686 507 729 518 C 771 528 806 545 834 567 C 861 589 881 618 894 652 C 906 686 913 726 913 774 C 913 869 883 939 825 984 C 766 1028 683 1051 575 1051 C 515 1051 463 1045 421 1034 C 379 1023 344 1006 317 984 C 289 961 269 932 257 898 C 244 863 238 822 238 774 C 238 726 244 686 257 652 C 269 618 289 589 317 567 C 344 545 379 528 421 518 C 463 507 515 502 575 502 Z M 569 -279 C 656 -279 727 -274 783 -264 C 838 -254 881 -239 913 -219 C 945 -199 967 -174 979 -145 C 991 -116 997 -83 997 -45 C 997 -4 989 28 974 53 C 959 78 935 98 901 112 C 867 126 823 135 769 140 C 714 144 647 147 569 147 C 482 147 413 140 361 128 C 309 116 269 99 241 79 C 213 59 195 35 187 9 C 178 -17 174 -45 174 -74 C 174 -114 182 -148 199 -174 C 215 -200 240 -221 273 -237 C 306 -253 347 -264 397 -270 C 446 -276 503 -279 569 -279 Z" unicode="g" />
<glyph horiz-adv-x="1241" d="M 166 1589 L 270 1589 L 270 967 C 280 991 294 1014 314 1036 C 334 1058 360 1077 392 1093 C 424 1109 463 1122 510 1132 C 556 1142 612 1147 678 1147 C 740 1147 793 1142 837 1132 C 881 1122 918 1107 948 1089 C 978 1070 1001 1047 1019 1020 C 1037 993 1050 962 1060 928 C 1070 894 1076 856 1079 816 C 1081 775 1083 732 1083 686 L 1083 0 L 979 0 L 979 674 C 979 729 976 779 971 825 C 966 871 953 910 932 943 C 910 976 878 1002 835 1020 C 791 1038 731 1047 655 1047 C 574 1047 508 1036 458 1016 C 408 995 369 966 341 930 C 313 894 294 851 284 801 C 274 751 270 697 270 639 L 270 0 L 166 0 L 166 1589 Z" unicode="h" />
<glyph horiz-adv-x="453" d="M 174 1120 L 279 1120 L 279 0 L 174 0 L 174 1120 Z M 174 1483 L 279 1483 L 279 1284 L 174 1284 L 174 1483 Z" unicode="i" />
<glyph horiz-adv-x="453" d="M 4 -252 L 12 -252 C 46 -251 74 -248 96 -242 C 117 -236 133 -225 145 -211 C 157 -197 164 -178 168 -155 C 172 -131 174 -102 174 -68 L 174 1120 L 279 1120 L 279 -68 C 279 -118 275 -160 269 -195 C 262 -229 249 -257 230 -279 C 211 -300 185 -315 151 -325 C 117 -335 74 -340 20 -340 L 4 -340 L 4 -252 Z M 174 1483 L 279 1483 L 279 1284 L 174 1284 L 174 1483 Z" unicode="j" />
<glyph horiz-adv-x="1071" d="M 166 1589 L 268 1589 L 268 455 L 860 1120 L 977 1120 L 559 647 L 1022 0 L 907 0 L 494 573 L 268 324 L 268 0 L 166 0 L 166 1589 Z" unicode="k" />
<glyph horiz-adv-x="567" d="M 385 -2 C 341 -2 305 3 278 13 C 250 23 229 39 213 59 C 197 79 187 105 182 136 C 176 166 174 202 174 244 L 174 1589 L 279 1589 L 279 252 C 279 222 280 198 283 178 C 285 158 291 141 300 129 C 309 116 323 107 341 102 C 359 96 383 94 414 94 L 465 94 L 465 2 C 459 0 448 0 434 -1 C 420 -1 403 -2 385 -2 Z" unicode="l" />
<glyph horiz-adv-x="2013" d="M 166 1116 L 248 1120 L 260 963 C 270 987 284 1011 304 1033 C 323 1055 349 1074 381 1091 C 413 1108 452 1122 499 1132 C 546 1142 602 1147 668 1147 C 732 1147 786 1142 830 1132 C 874 1122 909 1109 937 1092 C 964 1074 985 1054 999 1030 C 1013 1006 1023 979 1030 950 C 1042 978 1058 1004 1080 1028 C 1102 1052 1130 1073 1164 1091 C 1198 1108 1240 1122 1288 1132 C 1336 1142 1394 1147 1460 1147 C 1522 1147 1574 1142 1618 1132 C 1661 1122 1697 1107 1727 1089 C 1756 1070 1779 1047 1796 1020 C 1813 993 1826 962 1835 928 C 1843 894 1849 856 1851 816 C 1853 775 1855 732 1855 686 L 1855 0 L 1751 0 L 1751 674 C 1751 729 1749 779 1745 825 C 1741 871 1729 910 1709 943 C 1689 976 1657 1002 1615 1020 C 1573 1038 1514 1047 1438 1047 C 1356 1047 1291 1036 1242 1016 C 1193 995 1155 966 1129 930 C 1102 894 1084 851 1076 801 C 1067 751 1063 697 1063 639 L 1063 0 L 958 0 L 958 674 C 958 729 956 779 952 825 C 948 871 936 910 916 943 C 896 976 864 1002 822 1020 C 780 1038 721 1047 645 1047 C 564 1047 499 1036 450 1016 C 400 995 362 966 336 930 C 309 894 291 851 283 801 C 274 751 270 697 270 639 L 270 0 L 166 0 L 166 1116 Z" unicode="m" />
<glyph horiz-adv-x="1241" d="M 166 1116 L 248 1120 L 260 963 C 271 987 287 1011 307 1033 C 327 1055 353 1074 386 1091 C 418 1108 458 1122 506 1132 C 554 1142 611 1147 678 1147 C 740 1147 793 1142 837 1132 C 881 1122 918 1107 948 1089 C 978 1070 1001 1047 1019 1020 C 1037 993 1050 962 1060 928 C 1070 894 1076 856 1079 816 C 1081 775 1083 732 1083 686 L 1083 0 L 979 0 L 979 674 C 979 729 976 779 971 825 C 966 871 953 910 932 943 C 910 976 878 1002 835 1020 C 791 1038 731 1047 655 1047 C 574 1047 508 1036 458 1016 C 408 995 369 966 341 930 C 313 894 294 851 284 801 C 274 751 270 697 270 639 L 270 0 L 166 0 L 166 1116 Z" unicode="n" />
<glyph horiz-adv-x="1274" d="M 635 -23 C 541 -23 460 -10 394 14 C 328 38 274 75 232 124 C 190 173 159 234 140 307 C 120 380 111 465 111 563 C 111 659 120 744 140 817 C 159 890 190 951 232 1000 C 274 1048 328 1085 394 1110 C 460 1134 541 1147 635 1147 C 729 1147 809 1134 876 1110 C 943 1085 998 1048 1040 1000 C 1082 951 1113 890 1133 817 C 1153 744 1163 659 1163 563 C 1163 465 1153 380 1133 307 C 1113 234 1082 173 1040 124 C 998 75 943 38 876 14 C 809 -10 729 -23 635 -23 Z M 635 74 C 711 74 775 84 829 105 C 883 125 927 156 961 197 C 995 237 1019 288 1035 349 C 1051 410 1059 481 1059 561 C 1059 641 1051 712 1035 773 C 1019 833 995 884 961 925 C 927 966 883 997 829 1018 C 775 1038 711 1049 635 1049 C 559 1049 494 1038 441 1018 C 388 997 345 966 311 925 C 277 884 253 833 238 773 C 222 712 215 641 215 561 C 215 481 222 410 238 349 C 253 288 277 237 311 197 C 345 156 388 125 441 105 C 494 84 559 74 635 74 Z" unicode="o" />
<glyph horiz-adv-x="1305" d="M 166 1116 L 248 1120 L 260 938 C 275 974 295 1005 320 1031 C 345 1057 376 1078 413 1096 C 449 1113 493 1126 543 1134 C 593 1142 651 1147 717 1147 C 809 1147 885 1133 947 1107 C 1008 1080 1057 1041 1093 991 C 1129 941 1155 879 1171 807 C 1186 735 1194 653 1194 563 C 1194 473 1186 392 1171 320 C 1155 248 1129 187 1093 137 C 1056 87 1007 48 945 22 C 883 -4 805 -18 713 -18 C 649 -18 592 -14 544 -6 C 496 1 454 13 418 29 C 382 45 353 65 329 91 C 305 116 285 146 270 182 L 270 -338 L 166 -338 L 166 1116 Z M 700 78 C 775 78 838 88 888 110 C 938 132 978 163 1008 204 C 1038 245 1059 296 1071 356 C 1083 416 1090 484 1090 561 C 1090 637 1084 706 1072 766 C 1060 826 1039 878 1009 920 C 979 962 939 994 889 1016 C 839 1038 776 1049 700 1049 C 624 1049 559 1041 505 1025 C 451 1009 406 983 371 945 C 336 907 310 857 294 795 C 278 733 270 655 270 561 C 270 467 278 390 294 328 C 310 266 336 216 371 179 C 405 142 450 116 504 101 C 558 85 624 78 700 78 Z" unicode="p" />
<glyph horiz-adv-x="1305" d="M 1034 180 C 1014 144 992 113 967 88 C 942 62 912 42 877 26 C 842 10 801 -1 754 -9 C 707 -16 652 -20 590 -20 C 497 -20 420 -6 358 20 C 296 47 247 86 211 136 C 174 186 148 248 133 320 C 118 392 111 474 111 565 C 111 655 118 736 134 808 C 149 880 175 941 212 991 C 249 1041 298 1080 360 1107 C 422 1133 499 1147 592 1147 C 656 1147 713 1143 762 1136 C 810 1128 852 1117 888 1101 C 923 1085 953 1065 978 1040 C 1002 1014 1024 984 1042 948 L 1061 1143 L 1139 1137 L 1139 -338 L 1034 -338 L 1034 180 Z M 604 78 C 680 78 745 86 799 102 C 853 118 897 144 932 182 C 967 219 993 269 1009 331 C 1025 393 1034 471 1034 565 C 1034 658 1026 736 1010 798 C 994 860 968 909 934 947 C 899 984 854 1010 800 1026 C 746 1041 680 1049 604 1049 C 528 1049 465 1038 415 1016 C 365 994 325 963 295 922 C 265 880 245 830 233 770 C 221 710 215 641 215 565 C 215 488 221 419 233 359 C 245 299 265 248 295 206 C 325 164 365 133 415 111 C 465 89 528 78 604 78 Z" unicode="q" />
<glyph horiz-adv-x="707" d="M 166 1116 L 248 1120 L 260 928 C 270 955 286 981 308 1006 C 330 1031 358 1053 392 1072 C 426 1091 465 1106 509 1118 C 553 1129 603 1135 657 1135 L 657 1032 C 587 1032 528 1021 479 1001 C 430 980 390 951 359 915 C 328 879 305 836 291 786 C 277 736 270 681 270 623 L 270 0 L 166 0 L 166 1116 Z" unicode="r" />
<glyph horiz-adv-x="1038" d="M 520 -23 C 486 -23 451 -21 415 -18 C 379 -14 342 -8 304 1 C 266 10 228 22 190 38 C 152 54 114 74 76 100 L 131 180 C 165 158 199 140 234 126 C 268 112 302 101 336 93 C 369 85 401 79 433 76 C 465 73 495 72 524 72 C 578 72 626 75 667 82 C 708 88 742 100 769 118 C 796 136 816 160 830 190 C 843 220 850 258 850 305 C 850 342 844 373 832 397 C 820 421 801 441 775 457 C 749 473 715 486 674 498 C 632 509 582 521 524 535 C 460 549 404 563 354 577 C 304 591 262 610 228 633 C 194 656 168 685 150 721 C 132 756 123 802 123 858 C 123 902 130 942 144 978 C 158 1014 180 1044 212 1069 C 244 1094 285 1113 336 1127 C 386 1140 448 1147 522 1147 C 605 1147 679 1138 743 1121 C 807 1104 863 1081 913 1053 L 864 967 C 820 991 771 1011 715 1027 C 659 1043 595 1051 524 1051 C 466 1051 418 1046 380 1037 C 342 1028 311 1015 288 998 C 265 981 249 961 239 937 C 229 913 225 886 225 856 C 225 820 231 790 243 766 C 255 742 273 723 299 707 C 324 691 356 677 395 666 C 434 654 481 643 535 631 C 601 616 661 601 713 587 C 765 572 808 553 844 530 C 879 507 906 478 924 443 C 942 408 952 363 952 307 C 952 243 943 190 925 148 C 907 106 880 72 844 47 C 808 21 763 3 709 -7 C 655 -17 592 -23 520 -23 Z" unicode="s" />
<glyph horiz-adv-x="803" d="M 68 1120 L 276 1120 L 293 1481 L 377 1493 L 377 1120 L 700 1120 L 700 1026 L 377 1026 L 377 276 C 377 248 378 223 382 201 C 385 179 393 160 405 144 C 417 128 435 115 459 107 C 483 98 515 94 557 94 L 700 94 L 700 0 C 698 0 689 -1 674 -1 C 658 -1 641 -2 623 -2 C 605 -2 588 -2 572 -2 C 556 -2 547 -2 545 -2 C 485 -2 438 4 402 16 C 366 28 339 46 320 70 C 301 93 289 121 283 155 C 277 188 274 226 274 268 L 274 1026 L 68 1026 L 68 1120 Z" unicode="t" />
<glyph horiz-adv-x="1231" d="M 621 -23 C 548 -23 486 -17 435 -7 C 383 2 340 17 306 37 C 272 56 245 79 225 107 C 205 135 191 166 181 200 C 171 234 164 271 162 311 C 159 351 158 393 158 438 L 158 1120 L 262 1120 L 262 436 C 262 403 262 371 263 341 C 264 310 268 281 275 255 C 281 228 292 203 306 181 C 320 159 341 140 367 124 C 393 108 427 95 469 87 C 510 78 561 74 621 74 C 680 74 730 78 771 87 C 811 95 845 108 871 124 C 897 140 916 160 930 183 C 944 205 954 230 960 258 C 966 285 969 314 970 346 C 970 378 971 411 971 446 L 971 1120 L 1073 1120 L 1073 446 C 1073 400 1071 357 1069 316 C 1067 275 1061 237 1052 203 C 1042 168 1028 137 1009 109 C 990 81 964 57 931 37 C 897 17 855 2 805 -7 C 754 -17 693 -23 621 -23 Z" unicode="u" />
<glyph horiz-adv-x="1069" d="M 33 1120 L 141 1120 L 537 115 L 932 1120 L 1038 1120 L 590 -10 L 479 -10 L 33 1120 Z" unicode="v" />
<glyph horiz-adv-x="1767" d="M 37 1120 L 143 1120 L 504 143 L 834 1120 L 938 1120 L 1266 145 L 1626 1120 L 1731 1120 L 1315 -10 L 1214 -10 L 883 967 L 553 -10 L 453 -10 L 37 1120 Z" unicode="w" />
<glyph horiz-adv-x="1071" d="M 532 510 L 162 0 L 51 0 L 477 586 L 86 1120 L 201 1120 L 539 657 L 874 1120 L 987 1120 L 594 584 L 1022 0 L 905 0 L 532 510 Z" unicode="x" />
<glyph horiz-adv-x="1053" d="M 162 -340 L 162 -252 L 250 -252 C 274 -252 295 -249 313 -245 C 331 -240 347 -232 361 -222 C 375 -211 387 -197 397 -181 C 407 -164 417 -144 426 -121 L 473 2 L 33 1120 L 141 1120 L 528 127 L 915 1120 L 1020 1120 L 526 -133 C 512 -169 496 -200 480 -226 C 464 -252 445 -273 424 -290 C 402 -307 378 -320 351 -328 C 323 -336 292 -340 256 -340 L 162 -340 Z" unicode="y" />
<glyph horiz-adv-x="1004" d="M 76 84 L 784 1026 L 113 1026 L 113 1120 L 909 1120 L 909 1036 L 201 92 L 934 92 L 934 0 L 76 0 L 76 84 Z" unicode="z" />
<glyph horiz-adv-x="989" d="M 651 -338 C 589 -338 537 -332 495 -322 C 453 -311 420 -295 394 -274 C 368 -252 350 -225 340 -193 C 329 -161 324 -123 324 -80 C 324 -58 326 -32 332 -2 C 338 28 345 60 353 94 C 361 128 371 162 381 198 C 391 234 400 268 408 301 C 416 334 423 365 429 393 C 435 421 438 445 438 465 C 438 488 433 507 423 522 C 413 537 398 549 378 557 C 357 565 330 571 297 575 C 264 578 224 580 178 580 L 178 672 C 220 672 258 673 291 675 C 323 677 350 683 372 691 C 394 699 410 710 421 726 C 432 741 438 762 438 788 C 438 806 435 830 429 858 C 423 886 416 917 408 950 C 400 983 391 1017 381 1053 C 371 1089 361 1124 353 1158 C 345 1192 338 1224 332 1254 C 326 1284 324 1309 324 1331 C 324 1374 329 1412 340 1444 C 350 1476 368 1503 394 1525 C 420 1546 453 1562 495 1573 C 537 1583 589 1589 651 1589 L 780 1589 L 780 1495 L 666 1495 C 618 1495 578 1491 547 1484 C 516 1476 492 1465 474 1450 C 456 1435 444 1416 438 1394 C 431 1371 428 1344 428 1313 C 428 1294 430 1270 436 1242 C 442 1214 449 1183 458 1150 C 466 1117 475 1083 485 1048 C 495 1012 504 978 513 945 C 521 911 528 880 534 851 C 540 821 543 796 543 776 C 543 736 533 703 515 679 C 496 654 469 637 434 627 C 472 614 499 596 517 572 C 534 548 543 516 543 477 C 543 456 540 431 534 401 C 528 371 521 340 513 306 C 504 272 495 238 485 203 C 475 167 466 133 458 100 C 449 67 442 37 436 9 C 430 -19 428 -42 428 -61 C 428 -93 431 -120 438 -143 C 444 -166 456 -185 474 -201 C 492 -216 516 -227 547 -235 C 578 -242 618 -246 666 -246 L 780 -246 L 780 -338 L 651 -338 L 651 -338 Z" unicode="{" />
<glyph horiz-adv-x="629" d="M 262 1589 L 367 1589 L 367 -338 L 262 -338 L 262 1589 Z" unicode="|" />
<glyph horiz-adv-x="989" d="M 209 -246 L 324 -246 C 372 -246 412 -242 443 -235 C 473 -227 497 -216 515 -201 C 532 -185 544 -166 551 -143 C 557 -120 561 -93 561 -61 C 561 -42 558 -19 552 9 C 546 37 539 67 531 100 C 522 133 513 167 503 203 C 493 238 484 272 476 306 C 467 340 460 371 454 401 C 448 431 446 456 446 477 C 446 516 455 548 474 573 C 492 597 519 615 555 627 C 517 638 489 656 472 680 C 454 704 446 736 446 776 C 446 796 448 821 454 851 C 460 880 467 911 476 945 C 484 978 493 1012 503 1048 C 513 1083 522 1117 531 1150 C 539 1183 546 1214 552 1242 C 558 1270 561 1294 561 1313 C 561 1344 557 1371 551 1394 C 544 1416 532 1435 515 1450 C 497 1465 473 1476 443 1484 C 412 1491 372 1495 324 1495 L 209 1495 L 209 1589 L 338 1589 C 400 1589 452 1583 494 1573 C 536 1562 570 1546 596 1525 C 622 1503 640 1476 651 1444 C 662 1412 668 1374 668 1331 C 668 1309 665 1284 659 1254 C 653 1224 646 1192 638 1158 C 629 1124 619 1089 609 1053 C 599 1017 589 983 581 950 C 572 917 565 886 559 858 C 553 830 551 806 551 788 C 551 764 555 745 565 730 C 575 715 590 703 611 695 C 632 687 659 681 692 678 C 725 675 765 674 811 674 L 811 582 C 767 582 729 580 697 578 C 665 575 638 569 616 561 C 594 553 578 541 567 526 C 556 510 551 490 551 465 C 551 445 553 421 559 393 C 565 365 572 334 581 301 C 589 268 599 234 609 198 C 619 162 629 128 638 94 C 646 60 653 28 659 -2 C 665 -32 668 -58 668 -80 C 668 -123 662 -161 651 -193 C 640 -225 622 -252 596 -274 C 570 -295 536 -311 494 -322 C 452 -332 400 -338 338 -338 L 209 -338 L 209 -246 Z" unicode="}" />
<glyph horiz-adv-x="1208" d="M 242 958 C 255 974 270 991 287 1007 C 304 1023 322 1037 341 1049 C 360 1061 380 1071 401 1079 C 421 1086 442 1090 463 1090 C 497 1090 526 1085 550 1075 C 574 1065 597 1053 617 1041 C 637 1029 658 1018 678 1008 C 698 998 722 993 748 993 C 762 993 775 996 789 1002 C 803 1008 816 1017 829 1027 C 842 1037 855 1049 867 1062 C 879 1075 891 1088 903 1102 L 971 1049 C 956 1031 940 1014 924 997 C 907 979 889 964 871 950 C 852 936 832 924 812 916 C 792 907 771 903 750 903 C 720 903 692 908 668 918 C 644 928 621 939 599 951 C 577 963 556 974 534 984 C 512 994 489 999 465 999 C 451 999 438 996 424 991 C 410 986 396 979 383 971 C 369 962 357 952 345 941 C 333 929 322 917 313 905 L 242 958 Z" unicode="~" />
<glyph horiz-adv-x="1051" d="M 524 -12 C 454 -12 397 0 353 24 C 309 48 276 81 252 123 C 228 165 211 214 203 271 C 194 328 190 389 190 455 C 190 520 194 581 203 638 C 211 694 228 743 252 785 C 276 827 309 860 353 884 C 397 908 454 920 524 920 C 594 920 651 908 695 884 C 739 860 773 827 798 785 C 822 743 839 694 848 638 C 857 581 862 520 862 455 C 862 389 857 328 848 271 C 839 214 822 165 798 123 C 773 81 739 48 695 24 C 651 0 594 -12 524 -12 Z M 524 66 C 579 66 623 75 656 95 C 689 114 714 141 732 175 C 749 209 760 250 766 298 C 771 346 774 398 774 455 C 774 511 771 562 766 609 C 760 656 749 697 732 731 C 714 765 689 791 656 811 C 623 830 579 840 524 840 C 468 840 424 830 392 811 C 360 791 335 765 318 731 C 301 697 290 656 286 609 C 281 562 279 511 279 455 C 279 398 281 346 286 298 C 290 250 301 209 318 175 C 335 141 360 114 392 95 C 424 75 468 66 524 66 Z" unicode="₀" />
<glyph horiz-adv-x="643" d="M 315 823 L 129 823 L 129 903 L 403 903 L 403 0 L 315 0 L 315 823 Z" unicode="₁" />
<glyph horiz-adv-x="858" d="M 133 70 L 418 367 C 454 405 484 437 508 463 C 532 489 551 514 565 537 C 579 560 589 583 595 606 C 601 629 604 656 604 686 C 604 738 588 777 557 801 C 526 825 476 838 406 838 C 354 838 308 833 269 823 C 230 813 196 801 168 788 L 129 858 C 163 874 202 888 247 899 C 292 909 347 915 412 915 C 507 915 577 897 623 863 C 669 828 692 771 692 692 C 692 656 687 623 679 594 C 671 565 658 537 641 509 C 623 481 601 452 574 422 C 547 392 515 357 479 319 L 248 76 L 702 76 L 702 0 L 133 0 L 133 70 Z" unicode="₂" />
<glyph horiz-adv-x="905" d="M 436 -12 C 406 -12 377 -10 351 -8 C 324 -6 298 -2 272 4 C 246 10 221 18 195 28 C 169 38 143 50 117 66 L 160 133 C 207 107 252 89 295 79 C 338 68 384 63 432 63 C 471 63 505 66 534 72 C 563 78 587 88 606 104 C 625 119 639 140 648 166 C 657 192 662 224 662 264 C 662 296 658 324 652 348 C 645 372 632 393 614 409 C 595 425 569 438 536 446 C 503 454 460 459 408 459 L 293 459 L 293 532 L 403 532 C 447 532 483 534 513 540 C 543 545 567 554 585 566 C 603 578 615 595 623 616 C 631 636 635 662 635 692 C 635 745 618 783 586 805 C 553 827 501 838 430 838 C 388 838 345 832 301 822 C 257 811 218 795 182 774 L 137 842 C 157 854 180 865 205 875 C 229 885 255 893 281 899 C 307 905 333 910 360 913 C 386 916 412 918 438 918 C 488 918 531 914 567 906 C 603 898 633 885 657 868 C 680 850 697 828 708 802 C 719 775 725 743 725 705 C 725 648 714 603 694 571 C 673 539 639 515 592 500 C 649 486 690 459 714 417 C 738 375 750 322 750 258 C 750 206 743 162 731 128 C 718 94 699 66 673 45 C 647 24 615 9 576 1 C 536 -7 490 -12 436 -12 Z" unicode="₃" />
<glyph horiz-adv-x="975" d="M 156 297 L 561 903 L 659 903 L 252 297 L 602 297 L 616 604 L 688 604 L 688 297 L 848 297 L 848 221 L 688 221 L 688 0 L 602 0 L 602 221 L 156 221 L 156 297 Z" unicode="₄" />
<glyph horiz-adv-x="965" d="M 473 -10 C 405 -10 347 -2 297 13 C 247 28 202 47 162 70 L 207 139 C 243 119 282 103 324 89 C 365 75 413 68 469 68 C 507 68 542 71 574 77 C 606 83 633 94 656 111 C 679 127 697 151 710 181 C 722 211 729 251 729 299 C 729 345 723 383 711 413 C 699 442 683 465 662 482 C 640 498 615 510 585 516 C 555 522 521 526 485 526 C 439 526 401 523 370 517 C 339 511 309 502 281 489 L 205 508 L 229 903 L 754 903 L 754 825 L 305 825 L 291 569 C 319 580 349 589 383 595 C 416 601 454 604 498 604 C 543 604 585 599 625 591 C 664 583 698 567 727 545 C 755 522 778 491 794 452 C 810 412 819 361 819 299 C 819 234 810 181 793 141 C 775 101 751 69 720 47 C 689 25 653 10 611 2 C 569 -6 523 -10 473 -10 Z" unicode="₅" />
<glyph horiz-adv-x="1006" d="M 526 -12 C 470 -12 421 -5 379 6 C 337 18 301 39 272 68 C 243 97 221 136 206 185 C 191 233 184 294 184 367 C 184 459 191 539 207 607 C 223 674 249 730 287 774 C 325 818 375 850 438 871 C 501 892 580 903 674 903 L 700 903 L 700 825 L 672 825 C 602 825 543 818 496 806 C 449 794 410 775 380 750 C 349 724 326 692 310 653 C 294 614 282 568 274 514 C 301 553 338 581 384 598 C 430 614 482 623 541 623 C 600 623 649 615 688 601 C 726 586 757 565 780 538 C 803 510 819 477 828 438 C 837 399 842 355 842 307 C 842 257 837 213 827 174 C 817 134 800 101 776 74 C 752 46 719 25 679 10 C 638 -4 587 -12 526 -12 Z M 526 61 C 572 61 609 66 639 78 C 669 90 692 106 709 128 C 726 149 738 175 744 205 C 750 235 754 268 754 305 C 754 341 750 375 744 405 C 737 435 725 461 708 482 C 691 503 668 519 639 531 C 609 543 572 549 526 549 C 489 549 455 544 424 536 C 393 528 366 515 344 498 C 321 480 303 458 291 432 C 278 405 272 374 272 338 C 272 286 277 242 289 206 C 301 170 317 142 339 121 C 361 99 387 84 419 75 C 450 65 486 61 526 61 Z" unicode="₆" />
<glyph horiz-adv-x="803" d="M 602 823 L 113 823 L 113 903 L 702 903 L 702 840 L 334 0 L 240 0 L 602 823 Z" unicode="₇" />
<glyph horiz-adv-x="1024" d="M 512 -12 C 394 -12 308 10 254 55 C 200 100 174 168 174 258 C 174 322 186 373 211 413 C 235 452 276 481 332 500 C 284 515 250 539 231 571 C 212 603 203 644 203 696 C 203 732 208 763 219 791 C 229 819 247 842 271 861 C 295 880 326 895 366 905 C 405 915 454 920 512 920 C 569 920 617 915 657 905 C 696 895 728 880 752 861 C 776 842 794 819 805 791 C 815 763 821 732 821 696 C 821 644 811 602 791 570 C 771 537 738 513 690 498 C 746 480 786 452 812 412 C 837 372 850 320 850 258 C 850 168 822 100 768 55 C 714 10 628 -12 512 -12 Z M 512 59 C 596 59 659 75 700 108 C 741 140 762 192 762 262 C 762 330 741 381 700 413 C 659 445 596 461 512 461 C 425 461 362 445 322 413 C 282 381 262 330 262 262 C 262 192 282 140 322 108 C 362 75 425 59 512 59 Z M 512 528 C 552 528 587 531 615 538 C 643 544 666 554 684 568 C 701 581 713 598 721 618 C 729 638 733 661 733 688 C 733 714 729 738 721 758 C 713 778 701 794 684 807 C 666 820 643 830 615 836 C 587 842 552 846 512 846 C 470 846 436 842 408 836 C 380 830 357 820 340 807 C 322 794 310 778 302 758 C 294 738 291 714 291 688 C 291 661 294 638 302 618 C 310 598 322 581 340 568 C 357 554 380 544 408 538 C 436 531 470 528 512 528 Z" unicode="₈" />
<glyph horiz-adv-x="1006" d="M 307 76 L 336 76 C 405 76 463 82 511 95 C 559 107 598 127 628 153 C 658 179 682 211 699 251 C 715 290 727 337 735 391 C 707 351 670 322 625 306 C 579 289 527 281 467 281 C 407 281 358 288 319 303 C 280 317 249 338 227 366 C 204 393 188 426 179 465 C 170 504 166 548 166 598 C 166 647 170 691 180 731 C 190 770 206 803 230 831 C 254 859 286 880 327 895 C 367 910 419 918 481 918 C 536 918 585 911 627 899 C 669 887 705 866 734 836 C 763 806 785 767 800 719 C 815 671 823 611 823 539 C 823 445 815 365 799 297 C 783 229 757 174 720 130 C 682 86 632 53 570 32 C 508 10 430 0 336 0 L 307 0 L 307 76 Z M 481 352 C 517 352 551 356 582 365 C 613 373 640 386 662 404 C 684 421 702 443 714 469 C 726 495 733 527 733 563 C 733 615 727 659 716 695 C 704 731 688 759 667 781 C 645 803 619 818 588 828 C 556 837 521 842 481 842 C 435 842 397 836 367 824 C 337 812 314 796 297 775 C 280 753 268 727 262 697 C 255 667 252 633 252 596 C 252 559 255 526 262 496 C 268 466 280 440 298 419 C 315 397 338 381 368 369 C 398 357 435 352 481 352 Z" unicode="₉" />
<glyph horiz-adv-x="494" d="" unicode=" " />
<glyph horiz-adv-x="707" d="M 309 1120 L 399 1120 L 412 0 L 295 0 L 309 1120 Z M 276 1518 L 432 1518 L 432 1339 L 276 1339 L 276 1518 Z" unicode="¡" />
<glyph horiz-adv-x="1124" d="M 582 -16 C 492 -11 416 5 356 33 C 296 61 247 99 211 149 C 175 199 149 258 134 328 C 118 397 111 475 111 563 C 111 649 118 727 134 797 C 149 867 175 926 211 976 C 247 1026 296 1065 356 1093 C 416 1121 492 1138 582 1143 L 582 1268 L 682 1268 L 682 1143 C 724 1140 763 1134 797 1125 C 831 1116 861 1105 889 1091 C 916 1077 940 1062 962 1046 C 983 1029 1002 1012 1020 995 L 946 926 C 933 938 918 951 901 965 C 883 978 863 990 841 1001 C 819 1012 794 1022 767 1030 C 739 1038 709 1044 676 1047 L 676 72 C 704 74 731 78 756 84 C 781 90 805 99 827 110 C 849 120 871 133 892 147 C 912 161 933 177 954 195 L 1022 129 C 998 107 974 88 949 72 C 924 55 898 40 871 28 C 843 15 814 5 783 -2 C 751 -9 718 -14 682 -16 L 682 -193 L 582 -193 L 582 -16 Z M 213 561 C 213 487 219 420 231 362 C 243 304 264 254 293 212 C 322 170 361 138 409 114 C 457 90 516 76 588 72 L 588 1047 C 518 1043 459 1029 411 1005 C 363 981 324 949 295 908 C 265 866 244 817 232 759 C 219 701 213 635 213 561 Z" unicode="¢" />
<glyph horiz-adv-x="1214" d="M 838 -18 C 796 -18 756 -15 716 -9 C 676 -3 638 5 602 15 C 565 25 530 36 498 49 C 466 62 436 76 410 90 C 382 60 344 38 295 23 C 245 7 180 0 98 0 L 98 92 C 161 92 211 96 248 106 C 285 116 313 131 332 152 C 351 173 363 200 369 232 C 374 264 377 302 377 348 C 377 402 369 464 355 533 C 340 601 323 672 305 745 L 80 745 L 80 836 L 283 836 C 268 895 256 953 246 1009 C 236 1065 231 1117 231 1163 C 231 1220 238 1272 253 1319 C 267 1366 291 1406 324 1440 C 356 1473 399 1499 452 1517 C 505 1535 570 1544 647 1544 C 721 1544 789 1537 849 1525 C 909 1513 968 1494 1026 1468 L 983 1378 C 933 1401 880 1418 825 1429 C 769 1440 709 1446 645 1446 C 586 1446 537 1439 497 1425 C 457 1411 426 1391 402 1365 C 378 1339 361 1309 351 1273 C 341 1237 336 1197 336 1153 C 336 1109 340 1059 350 1005 C 360 951 372 894 387 836 L 885 836 L 885 745 L 408 745 C 425 674 440 605 454 537 C 468 469 475 406 475 350 C 475 315 473 282 471 252 C 468 222 463 194 455 170 C 479 158 506 146 536 135 C 565 123 596 113 629 105 C 661 97 695 90 730 85 C 765 80 800 78 836 78 C 876 78 909 82 934 90 C 958 98 977 111 991 129 C 1004 146 1013 168 1017 196 C 1021 223 1024 255 1024 293 L 1024 338 L 1120 338 L 1120 291 C 1120 237 1116 190 1108 152 C 1100 113 1085 81 1064 56 C 1043 30 1014 12 978 0 C 941 -12 894 -18 838 -18 Z" unicode="£" />
<glyph horiz-adv-x="1245" d="M 129 584 L 571 584 L 571 649 L 37 1518 L 147 1518 L 623 741 L 1098 1518 L 1208 1518 L 674 649 L 674 584 L 1118 584 L 1118 492 L 674 492 L 674 287 L 1118 287 L 1118 193 L 674 193 L 674 0 L 571 0 L 571 193 L 129 193 L 129 287 L 571 287 L 571 492 L 129 492 L 129 584 Z" unicode="¥" />
<glyph horiz-adv-x="631" d="M 262 465 L 367 465 L 367 -338 L 262 -338 L 262 465 Z M 262 1589 L 367 1589 L 367 786 L 262 786 L 262 1589 Z" unicode="¦" />
<glyph horiz-adv-x="1077" d="M 184 -20 L 184 72 L 291 72 C 339 72 376 78 404 91 C 432 103 453 120 467 142 C 481 164 490 189 494 219 C 498 248 500 279 500 313 L 500 485 C 372 488 274 511 207 555 C 139 598 106 668 106 766 C 106 858 136 926 197 970 C 258 1014 347 1039 463 1047 L 463 1202 C 463 1248 465 1291 471 1332 C 477 1372 490 1408 510 1439 C 530 1469 561 1493 601 1511 C 641 1529 696 1538 766 1538 C 770 1538 778 1538 790 1538 C 802 1538 814 1538 827 1538 C 840 1538 852 1537 863 1537 C 874 1537 881 1536 883 1536 L 883 1444 L 774 1444 C 726 1444 688 1437 660 1425 C 632 1412 611 1395 597 1373 C 583 1351 574 1325 570 1296 C 566 1267 565 1236 565 1204 L 565 1049 C 629 1047 687 1040 738 1029 C 788 1017 831 1000 865 978 C 899 955 926 926 944 891 C 962 856 971 814 971 766 C 971 719 963 679 947 645 C 931 611 907 583 876 561 C 844 538 806 520 760 508 C 714 496 662 488 604 485 L 604 315 C 604 269 601 226 595 186 C 589 145 575 109 555 79 C 534 48 503 24 463 6 C 422 -11 367 -20 299 -20 L 184 -20 Z M 537 565 C 592 565 641 568 683 576 C 725 583 761 595 790 611 C 819 627 841 647 856 673 C 871 699 879 730 879 766 C 879 837 849 888 791 918 C 732 948 647 963 537 963 C 425 963 341 948 284 918 C 227 888 199 837 199 766 C 199 693 227 641 284 611 C 340 580 425 565 537 565 Z" unicode="§" />
<glyph horiz-adv-x="1208" d="M 346 1430 L 444 1430 L 444 1245 L 346 1245 L 346 1430 Z M 766 1430 L 864 1430 L 864 1245 L 766 1245 L 766 1430 Z" unicode="¨" />
<glyph horiz-adv-x="1718" d="M 870 229 C 790 229 718 240 656 263 C 593 285 540 319 497 365 C 454 410 421 466 399 533 C 376 600 365 678 365 768 C 365 857 376 935 400 1002 C 424 1069 458 1125 502 1169 C 546 1213 599 1247 661 1269 C 723 1291 794 1303 872 1303 C 904 1303 936 1300 968 1295 C 1000 1289 1031 1281 1061 1271 C 1091 1261 1120 1248 1148 1233 C 1175 1217 1200 1200 1223 1180 L 1165 1120 C 1127 1154 1081 1180 1029 1198 C 977 1216 924 1225 870 1225 C 804 1225 745 1215 693 1196 C 641 1176 596 1148 560 1110 C 523 1072 495 1024 475 967 C 455 910 446 844 446 768 C 446 692 455 625 474 568 C 493 510 521 462 557 424 C 593 386 638 357 691 338 C 744 318 804 309 872 309 C 910 309 944 311 975 317 C 1005 323 1033 330 1057 340 C 1081 350 1103 361 1122 374 C 1141 386 1158 400 1174 414 L 1229 358 C 1211 342 1191 326 1169 310 C 1146 294 1120 281 1091 269 C 1062 257 1029 247 993 240 C 957 232 916 229 870 229 Z M 856 -25 C 728 -25 617 -6 522 32 C 427 70 348 123 285 192 C 222 261 175 344 144 440 C 113 536 98 643 98 760 C 98 877 113 984 144 1080 C 175 1176 222 1259 285 1328 C 348 1396 427 1449 522 1487 C 617 1525 728 1544 856 1544 C 983 1544 1094 1525 1190 1487 C 1285 1449 1364 1396 1428 1328 C 1491 1259 1538 1176 1570 1080 C 1602 984 1618 877 1618 760 C 1618 643 1602 536 1570 440 C 1538 344 1491 261 1428 192 C 1364 123 1285 70 1190 32 C 1094 -6 983 -25 856 -25 Z M 856 37 C 974 37 1076 54 1164 89 C 1252 123 1324 172 1382 236 C 1440 300 1483 376 1511 465 C 1539 553 1554 652 1554 760 C 1554 868 1539 967 1511 1056 C 1483 1144 1440 1220 1382 1284 C 1324 1347 1252 1396 1164 1431 C 1076 1465 974 1483 856 1483 C 738 1483 635 1465 548 1431 C 460 1396 388 1347 331 1284 C 274 1220 232 1144 204 1056 C 176 967 162 868 162 760 C 162 652 176 553 204 465 C 232 376 274 300 331 236 C 388 172 460 123 548 89 C 635 54 738 37 856 37 Z" unicode="©" />
<glyph horiz-adv-x="1188" d="M 453 590 C 397 590 349 596 309 609 C 269 622 236 641 211 665 C 185 689 167 717 155 751 C 143 785 137 822 137 864 C 137 928 149 982 173 1025 C 197 1067 235 1101 286 1126 C 336 1151 400 1169 478 1179 C 556 1189 648 1194 756 1194 L 807 1194 C 806 1242 802 1282 796 1316 C 790 1349 777 1376 759 1397 C 740 1417 714 1432 681 1442 C 648 1451 605 1456 551 1456 C 523 1456 495 1453 469 1448 C 443 1443 418 1437 394 1430 C 370 1422 349 1414 330 1405 C 311 1395 295 1386 283 1378 L 231 1450 C 245 1460 264 1470 287 1481 C 310 1491 336 1501 364 1510 C 392 1519 423 1527 456 1533 C 488 1539 522 1542 557 1542 C 631 1542 690 1535 735 1521 C 779 1507 814 1486 838 1456 C 862 1426 877 1388 885 1342 C 893 1295 897 1239 897 1174 L 897 813 C 897 785 897 764 899 748 C 901 732 905 720 912 712 C 919 703 929 697 942 695 C 955 693 973 692 997 692 L 997 608 C 993 608 990 607 986 607 C 982 606 976 606 969 606 C 939 606 914 608 894 612 C 874 616 859 624 847 636 C 835 648 827 666 822 688 C 816 710 813 740 813 776 C 784 712 741 665 684 635 C 627 605 550 590 453 590 Z M 467 672 C 580 672 665 701 722 759 C 778 817 807 910 807 1036 L 807 1116 L 760 1116 C 664 1116 582 1112 515 1105 C 447 1097 392 1084 350 1066 C 307 1047 276 1022 256 990 C 236 958 227 917 227 868 C 227 806 246 758 284 724 C 322 689 383 672 467 672 Z M 223 416 L 903 416 L 903 332 L 223 332 L 223 416 Z" unicode="ª" />
<glyph horiz-adv-x="1331" d="M 193 559 L 502 1120 L 598 1120 L 293 559 L 598 0 L 502 0 L 193 559 Z M 686 559 L 995 1120 L 1092 1120 L 786 559 L 1092 0 L 995 0 L 686 559 Z" unicode="«" />
<glyph horiz-adv-x="1409" d="M 1182 772 L 1182 248 L 1077 248 L 1077 674 L 225 674 L 225 772 L 1182 772 Z" unicode="¬" />
<glyph horiz-adv-x="942" d="M 117 664 L 827 664 L 827 567 L 117 567 L 117 664 Z" unicode="­" />
<glyph horiz-adv-x="1718" d="M 856 -25 C 728 -25 617 -6 522 32 C 427 70 348 123 285 192 C 222 261 175 344 144 440 C 113 536 98 643 98 760 C 98 877 113 984 144 1080 C 175 1176 222 1259 285 1328 C 348 1396 427 1449 522 1487 C 617 1525 728 1544 856 1544 C 983 1544 1094 1525 1190 1487 C 1285 1449 1364 1396 1428 1328 C 1491 1259 1538 1176 1570 1080 C 1602 984 1618 877 1618 760 C 1618 643 1602 536 1570 440 C 1538 344 1491 261 1428 192 C 1364 123 1285 70 1190 32 C 1094 -6 983 -25 856 -25 Z M 856 37 C 974 37 1076 54 1164 89 C 1252 123 1324 172 1382 236 C 1440 300 1483 376 1511 465 C 1539 553 1554 652 1554 760 C 1554 868 1539 967 1511 1056 C 1483 1144 1440 1220 1382 1284 C 1324 1347 1252 1396 1164 1431 C 1076 1465 974 1483 856 1483 C 738 1483 635 1465 548 1431 C 460 1396 388 1347 331 1284 C 274 1220 232 1144 204 1056 C 176 967 162 868 162 760 C 162 652 176 553 204 465 C 232 376 274 300 331 236 C 388 172 460 123 548 89 C 635 54 738 37 856 37 Z M 905 690 L 580 690 L 580 238 L 500 238 L 500 1272 L 930 1272 C 988 1272 1037 1266 1079 1256 C 1120 1245 1154 1228 1181 1205 C 1208 1181 1228 1151 1241 1115 C 1253 1079 1260 1035 1260 983 C 1260 887 1237 816 1192 770 C 1147 724 1079 697 987 690 L 1257 238 L 1174 238 L 905 690 Z M 932 762 C 972 762 1008 765 1039 773 C 1070 780 1096 792 1117 809 C 1138 826 1154 849 1165 877 C 1176 905 1182 939 1182 981 C 1182 1021 1176 1056 1166 1084 C 1155 1112 1139 1134 1118 1152 C 1097 1169 1071 1181 1040 1189 C 1008 1196 972 1200 930 1200 L 580 1200 L 580 762 L 932 762 Z" unicode="®" />
<glyph horiz-adv-x="1208" d="M 256 1329 L 954 1329 L 954 1239 L 256 1239 L 256 1329 Z" unicode="¯" />
<glyph horiz-adv-x="1165" d="M 582 582 C 505 582 439 593 385 616 C 331 639 286 672 252 714 C 217 756 192 806 176 865 C 160 923 152 989 152 1061 C 152 1133 160 1198 176 1257 C 192 1316 217 1367 252 1409 C 286 1451 331 1483 385 1507 C 439 1530 505 1542 582 1542 C 658 1542 724 1530 779 1507 C 833 1483 878 1451 913 1409 C 947 1367 973 1316 989 1257 C 1005 1198 1014 1133 1014 1061 C 1014 989 1005 923 989 865 C 973 806 947 756 913 714 C 878 672 833 639 779 616 C 724 593 658 582 582 582 Z M 582 668 C 643 668 695 677 738 696 C 781 714 816 741 844 775 C 871 809 891 851 903 899 C 915 947 922 1001 922 1061 C 922 1119 915 1173 903 1221 C 891 1269 871 1310 844 1344 C 816 1378 781 1405 738 1424 C 695 1442 643 1452 582 1452 C 520 1452 468 1442 426 1424 C 383 1405 348 1378 321 1344 C 294 1310 274 1269 262 1221 C 250 1173 244 1119 244 1061 C 244 1001 250 947 262 899 C 274 851 294 809 321 775 C 348 741 383 714 426 696 C 468 677 520 668 582 668 Z" unicode="°" />
<glyph horiz-adv-x="1409" d="M 651 674 L 225 674 L 225 772 L 651 772 L 651 1198 L 756 1198 L 756 772 L 1182 772 L 1182 674 L 756 674 L 756 248 L 651 248 L 651 674 Z M 225 139 L 1182 139 L 1182 43 L 225 43 L 225 139 Z" unicode="±" />
<glyph horiz-adv-x="858" d="M 133 684 L 418 981 C 454 1019 484 1051 508 1078 C 532 1104 551 1129 565 1152 C 579 1175 589 1198 595 1221 C 601 1243 604 1270 604 1300 C 604 1352 588 1391 557 1415 C 526 1439 476 1452 406 1452 C 354 1452 308 1447 269 1437 C 230 1427 196 1416 168 1403 L 129 1473 C 163 1489 202 1502 247 1513 C 292 1524 347 1530 412 1530 C 507 1530 577 1512 623 1477 C 669 1442 692 1385 692 1307 C 692 1270 687 1237 679 1208 C 671 1179 658 1151 641 1123 C 623 1095 601 1066 574 1036 C 547 1006 515 972 479 934 L 248 690 L 702 690 L 702 614 L 133 614 L 133 684 Z" unicode="²" />
<glyph horiz-adv-x="905" d="M 436 602 C 406 602 377 603 351 606 C 324 608 298 613 272 619 C 246 625 221 633 195 643 C 169 653 143 665 117 680 L 160 748 C 207 722 252 703 295 693 C 338 683 384 678 432 678 C 471 678 505 681 534 687 C 563 693 587 703 606 719 C 625 734 639 755 648 781 C 657 807 662 839 662 879 C 662 911 658 939 652 963 C 645 987 632 1008 614 1024 C 595 1040 569 1053 536 1061 C 503 1069 460 1073 408 1073 L 293 1073 L 293 1147 L 403 1147 C 447 1147 483 1149 513 1155 C 543 1160 567 1169 585 1181 C 603 1193 615 1210 623 1231 C 631 1251 635 1277 635 1307 C 635 1360 618 1397 586 1419 C 554 1441 502 1452 430 1452 C 388 1452 345 1446 301 1436 C 257 1426 218 1410 182 1389 L 137 1456 C 157 1468 180 1479 205 1489 C 229 1499 255 1507 281 1513 C 307 1519 333 1524 360 1527 C 386 1530 412 1532 438 1532 C 488 1532 531 1528 567 1520 C 603 1512 633 1499 657 1482 C 680 1464 697 1442 708 1416 C 719 1389 725 1357 725 1319 C 725 1262 714 1217 694 1185 C 673 1153 639 1129 592 1114 C 649 1100 690 1073 714 1031 C 738 989 750 936 750 872 C 750 820 743 777 731 743 C 718 708 699 680 673 659 C 647 638 615 623 576 615 C 536 606 490 602 436 602 Z" unicode="³" />
<glyph horiz-adv-x="1208" d="M 778 1544 L 909 1544 L 569 1243 L 463 1243 L 778 1544 Z" unicode="´" />
<glyph horiz-adv-x="1247" d="M 571 -23 C 495 -23 432 -15 383 1 C 333 17 294 40 264 70 L 264 -338 L 166 -338 L 166 354 C 164 369 164 385 164 403 C 164 420 164 437 164 455 L 164 1120 L 268 1120 L 268 465 C 268 409 270 357 276 309 C 281 261 294 220 316 185 C 338 150 370 123 413 103 C 456 83 516 74 592 74 C 646 74 693 79 733 89 C 773 99 807 113 835 131 C 863 149 887 170 905 196 C 923 222 938 250 949 282 C 959 313 967 347 971 383 C 975 419 977 456 977 496 L 977 1120 L 1081 1120 L 1081 4 L 999 -2 L 987 174 C 975 148 958 124 937 101 C 915 77 888 56 855 38 C 822 19 782 4 736 -6 C 689 -17 634 -23 571 -23 Z" unicode="µ" />
<glyph horiz-adv-x="1231" d="M 547 633 C 470 636 404 647 350 667 C 296 686 251 714 217 751 C 182 787 157 833 141 888 C 125 943 117 1008 117 1083 C 117 1161 126 1228 144 1283 C 162 1338 190 1383 229 1418 C 267 1452 317 1478 379 1494 C 440 1510 514 1518 602 1518 L 1028 1518 L 1028 0 L 928 0 L 928 633 L 647 633 L 647 0 L 547 0 L 547 633 Z M 928 723 L 928 1421 L 600 1421 C 532 1421 475 1415 427 1404 C 379 1392 339 1373 309 1347 C 278 1321 256 1286 242 1243 C 228 1199 221 1145 221 1081 C 221 1015 228 960 242 914 C 256 868 279 831 310 803 C 340 775 379 754 426 742 C 472 729 528 723 594 723 L 928 723 Z" unicode="¶" />
<glyph horiz-adv-x="457" d="M 152 743 L 305 743 L 305 561 L 152 561 L 152 743 Z" unicode="·" />
<glyph horiz-adv-x="1208" d="M 625 -444 C 575 -444 532 -439 496 -429 C 460 -419 428 -405 399 -389 L 436 -324 C 461 -338 489 -349 521 -358 C 553 -366 587 -371 623 -371 C 660 -371 690 -367 712 -360 C 734 -353 752 -344 764 -333 C 776 -321 783 -309 787 -295 C 791 -281 793 -268 793 -254 C 793 -235 790 -219 785 -205 C 780 -191 770 -180 756 -172 C 742 -164 722 -158 697 -155 C 671 -152 638 -152 598 -154 L 557 -123 L 584 16 L 659 16 L 641 -94 C 671 -92 701 -92 729 -94 C 757 -96 783 -103 805 -115 C 827 -126 844 -143 857 -166 C 870 -188 877 -219 877 -258 C 877 -282 873 -305 866 -327 C 859 -349 846 -369 828 -387 C 809 -404 783 -418 751 -428 C 718 -438 676 -444 625 -444 Z" unicode="¸" />
<glyph horiz-adv-x="643" d="M 315 1438 L 129 1438 L 129 1518 L 403 1518 L 403 614 L 315 614 L 315 1438 Z" unicode="¹" />
<glyph horiz-adv-x="1200" d="M 600 600 C 317 600 176 757 176 1071 C 176 1385 317 1542 600 1542 C 741 1542 847 1502 919 1424 C 990 1346 1026 1228 1026 1071 C 1026 913 990 795 919 717 C 847 639 741 600 600 600 Z M 600 684 C 710 684 792 716 848 781 C 904 845 932 942 932 1071 C 932 1199 904 1294 848 1358 C 792 1422 710 1454 600 1454 C 378 1454 268 1326 268 1071 C 268 942 295 845 350 781 C 405 716 488 684 600 684 Z M 229 416 L 971 416 L 971 330 L 229 330 L 229 416 Z" unicode="º" />
<glyph horiz-adv-x="1331" d="M 547 561 L 242 1120 L 338 1120 L 647 561 L 338 0 L 242 0 L 547 561 Z M 1038 561 L 735 1120 L 831 1120 L 1141 561 L 831 0 L 735 0 L 1038 561 Z" unicode="»" />
<glyph horiz-adv-x="1679" d="M 1343 227 L 903 227 L 903 301 L 1307 907 L 1407 907 L 1004 305 L 1343 305 L 1358 571 L 1432 571 L 1432 305 L 1585 305 L 1585 227 L 1432 227 L 1432 0 L 1343 0 L 1343 227 Z M 313 1436 L 127 1436 L 127 1518 L 403 1518 L 403 612 L 313 612 L 313 1436 Z M 1186 1518 L 1284 1518 L 440 0 L 342 0 L 1186 1518 Z" unicode="¼" />
<glyph horiz-adv-x="1829" d="M 1092 74 L 1376 369 C 1412 407 1443 439 1467 466 C 1491 492 1511 517 1525 539 C 1539 561 1548 584 1554 607 C 1560 629 1563 656 1563 686 C 1563 738 1547 777 1516 801 C 1484 825 1434 838 1364 838 C 1314 838 1269 833 1229 823 C 1189 813 1156 800 1128 786 L 1087 860 C 1122 876 1162 890 1207 901 C 1251 912 1306 918 1370 918 C 1465 918 1536 900 1582 865 C 1628 829 1651 772 1651 692 C 1651 656 1646 623 1638 594 C 1630 565 1617 537 1600 510 C 1583 482 1561 454 1535 424 C 1508 394 1476 360 1440 322 L 1208 78 L 1647 78 L 1647 0 L 1092 0 L 1092 74 Z M 313 1436 L 127 1436 L 127 1518 L 403 1518 L 403 612 L 313 612 L 313 1436 Z M 1186 1518 L 1284 1518 L 440 0 L 342 0 L 1186 1518 Z" unicode="½" />
<glyph horiz-adv-x="1847" d="M 401 610 C 371 610 343 611 316 614 C 289 616 263 621 237 627 C 211 633 186 642 160 652 C 134 662 107 675 80 690 L 127 760 C 174 734 219 716 261 706 C 303 695 347 690 395 690 C 435 690 469 693 498 699 C 527 705 551 715 570 730 C 588 745 602 765 611 791 C 620 817 625 849 625 889 C 625 921 621 949 615 973 C 608 997 595 1017 577 1033 C 559 1049 533 1061 500 1069 C 467 1077 425 1081 373 1081 L 258 1081 L 258 1159 L 369 1159 C 413 1159 449 1161 479 1167 C 509 1172 532 1181 550 1193 C 568 1205 580 1222 588 1242 C 596 1262 600 1287 600 1317 C 600 1370 583 1407 551 1429 C 518 1451 466 1462 395 1462 C 353 1462 310 1456 266 1446 C 222 1436 183 1419 147 1397 L 100 1466 C 143 1493 191 1512 244 1524 C 297 1536 349 1542 401 1542 C 451 1542 494 1538 530 1530 C 566 1522 596 1510 620 1493 C 643 1476 660 1454 671 1427 C 682 1400 688 1367 688 1329 C 688 1273 677 1228 656 1196 C 634 1163 601 1139 555 1124 C 611 1110 652 1083 677 1043 C 702 1002 715 949 715 883 C 715 831 708 787 696 752 C 683 717 664 689 638 668 C 612 647 580 632 541 623 C 501 614 455 610 401 610 Z M 1511 227 L 1073 227 L 1073 301 L 1475 907 L 1575 907 L 1171 305 L 1511 305 L 1528 571 L 1599 571 L 1599 305 L 1753 305 L 1753 227 L 1599 227 L 1599 0 L 1511 0 L 1511 227 Z M 1356 1518 L 1454 1518 L 608 0 L 510 0 L 1356 1518 Z" unicode="¾" />
<glyph horiz-adv-x="1335" d="M 653 -8 C 555 -8 476 0 415 15 C 353 31 305 54 270 84 C 235 114 211 150 199 193 C 186 236 180 285 180 340 C 180 389 186 432 199 468 C 211 504 230 537 255 566 C 279 595 309 622 345 648 C 381 673 421 699 467 727 C 512 755 548 780 576 804 C 603 827 623 853 637 883 C 651 913 659 948 661 989 C 663 1030 661 1082 657 1145 L 760 1145 C 766 1078 767 1021 765 974 C 763 927 754 886 738 850 C 722 814 699 782 668 753 C 636 724 595 694 543 664 C 495 634 455 608 423 586 C 390 563 364 540 344 517 C 324 494 309 469 300 442 C 291 415 287 383 287 346 C 287 308 291 273 299 242 C 307 210 325 183 351 161 C 377 139 415 122 464 110 C 512 98 577 92 657 92 C 738 92 817 101 895 120 C 973 138 1043 165 1106 199 L 1153 109 C 1121 91 1085 74 1045 60 C 1005 46 963 33 920 23 C 876 13 832 5 786 0 C 740 -5 696 -8 653 -8 Z M 633 1536 L 786 1536 L 786 1366 L 633 1366 L 633 1536 Z" unicode="¿" />
<glyph horiz-adv-x="1448" d="M 670 1528 L 774 1528 L 1382 0 L 1274 0 L 1120 385 L 319 385 L 168 0 L 61 0 L 670 1528 Z M 1083 483 L 721 1395 L 356 483 L 1083 483 Z M 418 1913 L 549 1913 L 862 1612 L 758 1612 L 418 1913 Z" unicode="À" />
<glyph horiz-adv-x="1448" d="M 670 1528 L 774 1528 L 1382 0 L 1274 0 L 1120 385 L 319 385 L 168 0 L 61 0 L 670 1528 Z M 1083 483 L 721 1395 L 356 483 L 1083 483 Z M 895 1913 L 1026 1913 L 686 1612 L 580 1612 L 895 1913 Z" unicode="Á" />
<glyph horiz-adv-x="1448" d="M 670 1528 L 774 1528 L 1382 0 L 1274 0 L 1120 385 L 319 385 L 168 0 L 61 0 L 670 1528 Z M 1083 483 L 721 1395 L 356 483 L 1083 483 Z M 657 1913 L 782 1913 L 1094 1612 L 981 1612 L 719 1845 L 457 1612 L 348 1612 L 657 1913 Z" unicode="Â" />
<glyph horiz-adv-x="1448" d="M 670 1528 L 774 1528 L 1382 0 L 1274 0 L 1120 385 L 319 385 L 168 0 L 61 0 L 670 1528 Z M 1083 483 L 721 1395 L 356 483 L 1083 483 Z M 358 1673 C 371 1689 386 1706 404 1722 C 421 1738 439 1752 458 1764 C 477 1776 497 1785 518 1793 C 538 1800 559 1804 580 1804 C 614 1804 643 1799 667 1789 C 691 1779 714 1768 734 1756 C 754 1744 775 1733 795 1723 C 815 1713 838 1708 864 1708 C 878 1708 891 1711 905 1717 C 919 1723 932 1732 946 1742 C 959 1752 972 1764 984 1777 C 996 1790 1008 1803 1020 1817 L 1087 1763 C 1073 1745 1057 1728 1040 1711 C 1023 1693 1005 1678 987 1664 C 968 1650 948 1639 928 1631 C 908 1622 887 1618 866 1618 C 836 1618 809 1623 785 1633 C 761 1643 738 1654 716 1666 C 694 1678 673 1689 651 1699 C 629 1709 606 1714 582 1714 C 568 1714 555 1711 541 1706 C 527 1701 513 1694 500 1686 C 486 1677 474 1667 462 1656 C 450 1644 439 1632 430 1620 L 358 1673 Z" unicode="Ã" />
<glyph horiz-adv-x="1448" d="M 670 1528 L 774 1528 L 1382 0 L 1274 0 L 1120 385 L 319 385 L 168 0 L 61 0 L 670 1528 Z M 1083 483 L 721 1395 L 356 483 L 1083 483 Z M 463 1798 L 561 1798 L 561 1614 L 463 1614 L 463 1798 Z M 883 1798 L 981 1798 L 981 1614 L 883 1614 L 883 1798 Z" unicode="Ä" />
<glyph horiz-adv-x="1448" d="M 641 1452 C 589 1466 551 1494 527 1534 C 503 1574 492 1621 492 1677 C 492 1709 496 1740 505 1769 C 514 1797 528 1822 547 1844 C 565 1865 589 1882 618 1894 C 647 1906 682 1913 723 1913 C 761 1913 795 1906 824 1894 C 852 1882 876 1865 895 1844 C 914 1822 928 1797 938 1769 C 947 1740 952 1709 952 1677 C 952 1623 939 1575 915 1535 C 891 1495 855 1467 807 1452 L 1384 0 L 1276 0 L 1122 385 L 319 385 L 168 0 L 63 0 L 641 1452 Z M 1085 481 L 721 1395 L 356 481 L 1085 481 Z M 723 1511 C 751 1511 775 1515 795 1523 C 815 1531 831 1543 844 1558 C 857 1572 867 1590 873 1610 C 879 1630 883 1653 883 1677 C 883 1701 879 1723 873 1743 C 867 1763 857 1780 844 1795 C 831 1810 815 1822 795 1830 C 775 1838 751 1843 723 1843 C 695 1843 670 1838 650 1830 C 629 1822 612 1810 599 1795 C 586 1780 576 1763 570 1743 C 564 1723 561 1701 561 1677 C 561 1653 564 1630 570 1610 C 576 1590 586 1572 599 1558 C 612 1543 629 1531 650 1523 C 670 1515 695 1511 723 1511 Z" unicode="Å" />
<glyph horiz-adv-x="2144" d="M 1008 1518 L 2015 1518 L 2015 1417 L 1159 1417 L 1159 844 L 1995 844 L 1995 745 L 1159 745 L 1159 98 L 2023 98 L 2023 0 L 1057 0 L 1057 373 L 397 373 L 162 0 L 51 0 L 1008 1518 Z M 1057 467 L 1057 1417 L 453 467 L 1057 467 Z" unicode="Æ" />
<glyph horiz-adv-x="1454" d="M 745 -444 C 695 -444 653 -439 617 -429 C 581 -419 549 -405 520 -389 L 557 -324 C 582 -338 610 -349 642 -358 C 673 -366 707 -371 743 -371 C 780 -371 810 -367 832 -360 C 854 -353 872 -344 884 -333 C 896 -321 903 -309 907 -295 C 911 -281 913 -268 913 -254 C 913 -235 910 -219 905 -205 C 900 -191 891 -180 877 -172 C 863 -164 843 -158 818 -155 C 792 -152 759 -152 719 -154 L 678 -123 L 698 -14 C 296 31 96 289 96 760 C 96 891 112 1006 145 1104 C 178 1202 226 1283 289 1348 C 352 1413 430 1462 522 1494 C 614 1526 720 1542 838 1542 C 936 1542 1030 1527 1118 1497 C 1206 1467 1284 1422 1350 1362 L 1276 1286 C 1218 1338 1151 1377 1076 1403 C 1000 1429 921 1442 838 1442 C 630 1442 473 1385 366 1271 C 258 1157 205 986 205 760 C 205 305 416 78 838 78 C 897 78 949 82 995 91 C 1041 99 1081 111 1117 126 C 1152 141 1183 158 1211 177 C 1238 196 1263 216 1286 238 L 1360 164 C 1334 140 1306 116 1274 94 C 1242 72 1206 52 1164 34 C 1122 16 1074 2 1020 -7 C 966 -17 904 -23 834 -23 C 823 -23 813 -22 803 -22 C 793 -22 783 -21 774 -20 L 762 -94 C 792 -92 822 -92 850 -94 C 878 -96 903 -103 925 -115 C 947 -126 964 -143 977 -166 C 990 -188 997 -219 997 -258 C 997 -282 993 -305 986 -327 C 979 -349 966 -369 948 -387 C 930 -404 904 -418 872 -428 C 839 -438 797 -444 745 -444 Z" unicode="Ç" />
<glyph horiz-adv-x="1278" d="M 186 1518 L 1149 1518 L 1149 1417 L 295 1417 L 295 844 L 1128 844 L 1128 743 L 295 743 L 295 98 L 1157 98 L 1157 0 L 186 0 L 186 1518 Z M 334 1913 L 465 1913 L 778 1612 L 674 1612 L 334 1913 Z" unicode="È" />
<glyph horiz-adv-x="1278" d="M 811 1913 L 942 1913 L 602 1612 L 496 1612 L 811 1913 Z M 186 1518 L 1149 1518 L 1149 1417 L 295 1417 L 295 844 L 1128 844 L 1128 743 L 295 743 L 295 98 L 1157 98 L 1157 0 L 186 0 L 186 1518 Z" unicode="É" />
<glyph horiz-adv-x="1278" d="M 573 1913 L 698 1913 L 1010 1612 L 897 1612 L 635 1845 L 373 1612 L 264 1612 L 573 1913 Z M 186 1518 L 1149 1518 L 1149 1417 L 295 1417 L 295 844 L 1128 844 L 1128 743 L 295 743 L 295 98 L 1157 98 L 1157 0 L 186 0 L 186 1518 Z" unicode="Ê" />
<glyph horiz-adv-x="1278" d="M 379 1798 L 477 1798 L 477 1614 L 379 1614 L 379 1798 Z M 799 1798 L 897 1798 L 897 1614 L 799 1614 L 799 1798 Z M 186 1518 L 1149 1518 L 1149 1417 L 295 1417 L 295 844 L 1128 844 L 1128 743 L 295 743 L 295 98 L 1157 98 L 1157 0 L 186 0 L 186 1518 Z" unicode="Ë" />
<glyph horiz-adv-x="506" d="M -92 1913 L 41 1913 L 305 1612 L 201 1612 L -92 1913 Z M 201 1518 L 305 1518 L 305 0 L 201 0 L 201 1518 Z" unicode="Ì" />
<glyph horiz-adv-x="506" d="M 465 1913 L 596 1913 L 305 1612 L 201 1612 L 465 1913 Z M 201 1518 L 305 1518 L 305 0 L 201 0 L 201 1518 Z" unicode="Í" />
<glyph horiz-adv-x="506" d="M 193 1913 L 311 1913 L 565 1612 L 457 1612 L 250 1847 L 43 1612 L -63 1612 L 193 1913 Z M 201 1518 L 305 1518 L 305 0 L 201 0 L 201 1518 Z" unicode="Î" />
<glyph horiz-adv-x="506" d="M 201 1518 L 305 1518 L 305 0 L 201 0 L 201 1518 Z M -4 1798 L 94 1798 L 94 1614 L -4 1614 L -4 1798 Z M 416 1798 L 514 1798 L 514 1614 L 416 1614 L 416 1798 Z" unicode="Ï" />
<glyph horiz-adv-x="1520" d="M 2 840 L 186 840 L 186 1518 L 668 1518 C 808 1518 926 1505 1023 1481 C 1119 1456 1197 1414 1257 1356 C 1316 1297 1359 1219 1385 1122 C 1411 1025 1425 904 1425 760 C 1425 618 1410 498 1380 402 C 1350 305 1304 227 1240 167 C 1176 107 1095 65 995 39 C 895 13 775 0 635 0 L 186 0 L 186 748 L 2 748 L 2 840 Z M 639 98 C 763 98 869 109 955 133 C 1041 156 1110 194 1164 246 C 1218 298 1257 366 1281 450 C 1305 534 1317 638 1317 760 C 1317 884 1306 988 1285 1072 C 1264 1156 1229 1223 1179 1274 C 1129 1325 1062 1362 979 1384 C 895 1406 792 1417 668 1417 L 295 1417 L 295 840 L 657 840 L 657 748 L 295 748 L 295 98 L 639 98 Z" unicode="Ð" />
<glyph horiz-adv-x="1569" d="M 186 1518 L 307 1518 L 1280 172 L 1280 1518 L 1382 1518 L 1382 0 L 1284 0 L 289 1374 L 289 0 L 186 0 L 186 1518 Z M 420 1673 C 433 1689 448 1706 465 1722 C 482 1738 500 1752 519 1764 C 538 1776 558 1785 579 1793 C 599 1800 620 1804 641 1804 C 675 1804 704 1799 728 1789 C 752 1779 775 1768 795 1756 C 815 1744 836 1733 856 1723 C 876 1713 900 1708 926 1708 C 940 1708 953 1711 967 1717 C 981 1723 994 1732 1007 1742 C 1020 1752 1033 1764 1045 1777 C 1057 1790 1069 1803 1081 1817 L 1149 1763 C 1135 1745 1119 1728 1102 1711 C 1085 1693 1067 1678 1049 1664 C 1030 1650 1010 1639 990 1631 C 970 1622 949 1618 928 1618 C 898 1618 870 1623 846 1633 C 822 1643 799 1654 777 1666 C 755 1678 734 1689 712 1699 C 690 1709 667 1714 643 1714 C 629 1714 616 1711 602 1706 C 588 1701 574 1694 561 1686 C 547 1677 535 1667 523 1656 C 511 1644 500 1632 492 1620 L 420 1673 Z" unicode="Ñ" />
<glyph horiz-adv-x="1696" d="M 846 -25 C 724 -25 617 -9 524 22 C 430 54 352 102 289 167 C 225 232 177 314 145 412 C 112 510 96 626 96 760 C 96 892 112 1008 145 1106 C 177 1204 225 1286 289 1350 C 352 1414 430 1462 524 1494 C 617 1526 724 1542 846 1542 C 968 1542 1076 1526 1170 1494 C 1264 1462 1342 1414 1406 1350 C 1469 1286 1517 1204 1550 1106 C 1582 1008 1599 892 1599 760 C 1599 626 1582 510 1550 412 C 1517 314 1469 232 1406 167 C 1342 102 1264 54 1170 22 C 1076 -9 968 -25 846 -25 Z M 846 76 C 1062 76 1224 133 1332 249 C 1439 364 1493 534 1493 760 C 1493 984 1439 1153 1332 1269 C 1224 1384 1062 1442 846 1442 C 630 1442 470 1384 364 1269 C 258 1153 205 984 205 760 C 205 534 258 364 364 249 C 470 133 630 76 846 76 Z M 543 1913 L 674 1913 L 987 1612 L 883 1612 L 543 1913 Z" unicode="Ò" />
<glyph horiz-adv-x="1696" d="M 1020 1913 L 1151 1913 L 811 1612 L 705 1612 L 1020 1913 Z M 846 -25 C 724 -25 617 -9 524 22 C 430 54 352 102 289 167 C 225 232 177 314 145 412 C 112 510 96 626 96 760 C 96 892 112 1008 145 1106 C 177 1204 225 1286 289 1350 C 352 1414 430 1462 524 1494 C 617 1526 724 1542 846 1542 C 968 1542 1076 1526 1170 1494 C 1264 1462 1342 1414 1406 1350 C 1469 1286 1517 1204 1550 1106 C 1582 1008 1599 892 1599 760 C 1599 626 1582 510 1550 412 C 1517 314 1469 232 1406 167 C 1342 102 1264 54 1170 22 C 1076 -9 968 -25 846 -25 Z M 846 76 C 1062 76 1224 133 1332 249 C 1439 364 1493 534 1493 760 C 1493 984 1439 1153 1332 1269 C 1224 1384 1062 1442 846 1442 C 630 1442 470 1384 364 1269 C 258 1153 205 984 205 760 C 205 534 258 364 364 249 C 470 133 630 76 846 76 Z" unicode="Ó" />
<glyph horiz-adv-x="1696" d="M 782 1913 L 907 1913 L 1219 1612 L 1106 1612 L 844 1845 L 582 1612 L 473 1612 L 782 1913 Z M 846 -25 C 724 -25 617 -9 524 22 C 430 54 352 102 289 167 C 225 232 177 314 145 412 C 112 510 96 626 96 760 C 96 892 112 1008 145 1106 C 177 1204 225 1286 289 1350 C 352 1414 430 1462 524 1494 C 617 1526 724 1542 846 1542 C 968 1542 1076 1526 1170 1494 C 1264 1462 1342 1414 1406 1350 C 1469 1286 1517 1204 1550 1106 C 1582 1008 1599 892 1599 760 C 1599 626 1582 510 1550 412 C 1517 314 1469 232 1406 167 C 1342 102 1264 54 1170 22 C 1076 -9 968 -25 846 -25 Z M 846 76 C 1062 76 1224 133 1332 249 C 1439 364 1493 534 1493 760 C 1493 984 1439 1153 1332 1269 C 1224 1384 1062 1442 846 1442 C 630 1442 470 1384 364 1269 C 258 1153 205 984 205 760 C 205 534 258 364 364 249 C 470 133 630 76 846 76 Z" unicode="Ô" />
<glyph horiz-adv-x="1696" d="M 846 -25 C 724 -25 617 -9 524 22 C 430 54 352 102 289 167 C 225 232 177 314 145 412 C 112 510 96 626 96 760 C 96 892 112 1008 145 1106 C 177 1204 225 1286 289 1350 C 352 1414 430 1462 524 1494 C 617 1526 724 1542 846 1542 C 968 1542 1076 1526 1170 1494 C 1264 1462 1342 1414 1406 1350 C 1469 1286 1517 1204 1550 1106 C 1582 1008 1599 892 1599 760 C 1599 626 1582 510 1550 412 C 1517 314 1469 232 1406 167 C 1342 102 1264 54 1170 22 C 1076 -9 968 -25 846 -25 Z M 846 76 C 1062 76 1224 133 1332 249 C 1439 364 1493 534 1493 760 C 1493 984 1439 1153 1332 1269 C 1224 1384 1062 1442 846 1442 C 630 1442 470 1384 364 1269 C 258 1153 205 984 205 760 C 205 534 258 364 364 249 C 470 133 630 76 846 76 Z M 483 1673 C 496 1689 511 1706 529 1722 C 546 1738 564 1752 583 1764 C 602 1776 622 1785 643 1793 C 663 1800 684 1804 705 1804 C 739 1804 768 1799 792 1789 C 816 1779 839 1768 859 1756 C 879 1744 900 1733 920 1723 C 940 1713 963 1708 989 1708 C 1003 1708 1016 1711 1030 1717 C 1044 1723 1057 1732 1071 1742 C 1084 1752 1097 1764 1109 1777 C 1121 1790 1133 1803 1145 1817 L 1212 1763 C 1198 1745 1182 1728 1165 1711 C 1148 1693 1130 1678 1112 1664 C 1093 1650 1073 1639 1053 1631 C 1033 1622 1012 1618 991 1618 C 961 1618 934 1623 910 1633 C 886 1643 863 1654 841 1666 C 819 1678 798 1689 776 1699 C 754 1709 731 1714 707 1714 C 693 1714 680 1711 666 1706 C 652 1701 638 1694 625 1686 C 611 1677 599 1667 587 1656 C 575 1644 564 1632 555 1620 L 483 1673 Z" unicode="Õ" />
<glyph horiz-adv-x="1696" d="M 588 1798 L 686 1798 L 686 1614 L 588 1614 L 588 1798 Z M 1008 1798 L 1106 1798 L 1106 1614 L 1008 1614 L 1008 1798 Z M 846 -25 C 724 -25 617 -9 524 22 C 430 54 352 102 289 167 C 225 232 177 314 145 412 C 112 510 96 626 96 760 C 96 892 112 1008 145 1106 C 177 1204 225 1286 289 1350 C 352 1414 430 1462 524 1494 C 617 1526 724 1542 846 1542 C 968 1542 1076 1526 1170 1494 C 1264 1462 1342 1414 1406 1350 C 1469 1286 1517 1204 1550 1106 C 1582 1008 1599 892 1599 760 C 1599 626 1582 510 1550 412 C 1517 314 1469 232 1406 167 C 1342 102 1264 54 1170 22 C 1076 -9 968 -25 846 -25 Z M 846 76 C 1062 76 1224 133 1332 249 C 1439 364 1493 534 1493 760 C 1493 984 1439 1153 1332 1269 C 1224 1384 1062 1442 846 1442 C 630 1442 470 1384 364 1269 C 258 1153 205 984 205 760 C 205 534 258 364 364 249 C 470 133 630 76 846 76 Z" unicode="Ö" />
<glyph horiz-adv-x="1409" d="M 307 391 L 639 723 L 307 1055 L 373 1122 L 705 791 L 1034 1122 L 1100 1055 L 770 723 L 1100 391 L 1034 326 L 705 657 L 371 326 L 307 391 Z" unicode="×" />
<glyph horiz-adv-x="1696" d="M 846 -25 C 704 -25 583 -5 483 33 L 420 -84 L 311 -84 L 399 74 C 296 134 220 220 170 333 C 120 445 96 588 96 760 C 96 1026 157 1222 280 1350 C 403 1478 592 1542 846 1542 C 974 1542 1086 1525 1180 1493 L 1243 1604 L 1350 1604 L 1268 1458 C 1380 1400 1463 1313 1517 1199 C 1571 1084 1599 938 1599 760 C 1599 493 1537 295 1413 167 C 1289 39 1100 -25 846 -25 Z M 846 74 C 959 74 1057 88 1139 117 C 1221 146 1288 189 1341 247 C 1393 304 1432 375 1457 461 C 1482 547 1495 646 1495 760 C 1495 911 1472 1037 1427 1139 C 1381 1240 1310 1316 1212 1368 L 530 125 C 573 107 621 94 673 86 C 725 78 783 74 846 74 Z M 203 760 C 203 614 223 492 263 393 C 303 293 367 217 455 164 L 1135 1401 C 1053 1429 957 1444 846 1444 C 732 1444 635 1429 554 1400 C 473 1371 407 1328 355 1271 C 303 1213 264 1142 240 1057 C 215 971 203 872 203 760 Z" unicode="Ø" />
<glyph horiz-adv-x="1571" d="M 782 -25 C 697 -25 623 -18 560 -4 C 497 9 443 28 399 53 C 354 77 317 107 288 142 C 259 176 236 214 220 256 C 203 298 191 342 185 390 C 179 437 176 486 176 537 L 176 1518 L 285 1518 L 285 545 C 285 477 291 415 305 358 C 319 300 344 251 381 209 C 417 167 468 135 532 111 C 596 87 680 76 782 76 C 850 76 909 81 961 92 C 1013 102 1057 117 1095 137 C 1133 157 1164 181 1189 209 C 1214 237 1234 268 1249 303 C 1264 337 1275 375 1281 416 C 1287 456 1290 499 1290 545 L 1290 1518 L 1395 1518 L 1395 537 C 1395 486 1391 437 1384 389 C 1377 341 1365 297 1348 255 C 1331 213 1308 175 1278 141 C 1248 107 1211 77 1166 53 C 1120 28 1066 9 1003 -4 C 939 -18 866 -25 782 -25 Z M 479 1913 L 610 1913 L 924 1612 L 819 1612 L 479 1913 Z" unicode="Ù" />
<glyph horiz-adv-x="1571" d="M 956 1913 L 1087 1913 L 748 1612 L 641 1612 L 956 1913 Z M 782 -25 C 697 -25 623 -18 560 -4 C 497 9 443 28 399 53 C 354 77 317 107 288 142 C 259 176 236 214 220 256 C 203 298 191 342 185 390 C 179 437 176 486 176 537 L 176 1518 L 285 1518 L 285 545 C 285 477 291 415 305 358 C 319 300 344 251 381 209 C 417 167 468 135 532 111 C 596 87 680 76 782 76 C 850 76 909 81 961 92 C 1013 102 1057 117 1095 137 C 1133 157 1164 181 1189 209 C 1214 237 1234 268 1249 303 C 1264 337 1275 375 1281 416 C 1287 456 1290 499 1290 545 L 1290 1518 L 1395 1518 L 1395 537 C 1395 486 1391 437 1384 389 C 1377 341 1365 297 1348 255 C 1331 213 1308 175 1278 141 C 1248 107 1211 77 1166 53 C 1120 28 1066 9 1003 -4 C 939 -18 866 -25 782 -25 Z" unicode="Ú" />
<glyph horiz-adv-x="1571" d="M 719 1913 L 844 1913 L 1155 1612 L 1042 1612 L 780 1845 L 518 1612 L 410 1612 L 719 1913 Z M 782 -25 C 697 -25 623 -18 560 -4 C 497 9 443 28 399 53 C 354 77 317 107 288 142 C 259 176 236 214 220 256 C 203 298 191 342 185 390 C 179 437 176 486 176 537 L 176 1518 L 285 1518 L 285 545 C 285 477 291 415 305 358 C 319 300 344 251 381 209 C 417 167 468 135 532 111 C 596 87 680 76 782 76 C 850 76 909 81 961 92 C 1013 102 1057 117 1095 137 C 1133 157 1164 181 1189 209 C 1214 237 1234 268 1249 303 C 1264 337 1275 375 1281 416 C 1287 456 1290 499 1290 545 L 1290 1518 L 1395 1518 L 1395 537 C 1395 486 1391 437 1384 389 C 1377 341 1365 297 1348 255 C 1331 213 1308 175 1278 141 C 1248 107 1211 77 1166 53 C 1120 28 1066 9 1003 -4 C 939 -18 866 -25 782 -25 Z" unicode="Û" />
<glyph horiz-adv-x="1571" d="M 524 1798 L 623 1798 L 623 1614 L 524 1614 L 524 1798 Z M 944 1798 L 1042 1798 L 1042 1614 L 944 1614 L 944 1798 Z M 782 -25 C 697 -25 623 -18 560 -4 C 497 9 443 28 399 53 C 354 77 317 107 288 142 C 259 176 236 214 220 256 C 203 298 191 342 185 390 C 179 437 176 486 176 537 L 176 1518 L 285 1518 L 285 545 C 285 477 291 415 305 358 C 319 300 344 251 381 209 C 417 167 468 135 532 111 C 596 87 680 76 782 76 C 850 76 909 81 961 92 C 1013 102 1057 117 1095 137 C 1133 157 1164 181 1189 209 C 1214 237 1234 268 1249 303 C 1264 337 1275 375 1281 416 C 1287 456 1290 499 1290 545 L 1290 1518 L 1395 1518 L 1395 537 C 1395 486 1391 437 1384 389 C 1377 341 1365 297 1348 255 C 1331 213 1308 175 1278 141 C 1248 107 1211 77 1166 53 C 1120 28 1066 9 1003 -4 C 939 -18 866 -25 782 -25 Z" unicode="Ü" />
<glyph horiz-adv-x="1397" d="M 645 608 L 35 1518 L 152 1518 L 700 705 L 1249 1518 L 1362 1518 L 752 612 L 752 0 L 645 0 L 645 608 Z M 870 1913 L 1001 1913 L 662 1612 L 555 1612 L 870 1913 Z" unicode="Ý" />
<glyph horiz-adv-x="1413" d="M 186 1518 L 293 1518 L 293 1253 L 831 1253 C 918 1253 992 1245 1054 1229 C 1115 1213 1165 1187 1204 1152 C 1243 1117 1272 1072 1290 1017 C 1308 961 1317 895 1317 817 C 1317 739 1308 671 1290 614 C 1272 556 1243 509 1205 472 C 1167 434 1117 407 1056 389 C 995 371 922 362 836 362 L 293 362 L 293 0 L 186 0 L 186 1518 Z M 838 461 C 902 461 958 467 1005 480 C 1052 492 1091 513 1121 541 C 1151 569 1174 605 1188 650 C 1202 695 1210 750 1210 815 C 1210 879 1203 933 1189 977 C 1175 1021 1152 1056 1122 1082 C 1091 1108 1051 1127 1003 1138 C 955 1149 897 1155 829 1155 L 293 1155 L 293 461 L 838 461 Z" unicode="Þ" />
<glyph horiz-adv-x="1298" d="M 166 1128 C 166 1194 174 1255 191 1312 C 208 1369 236 1418 275 1460 C 313 1501 363 1533 425 1557 C 486 1581 561 1593 651 1593 C 807 1593 922 1561 995 1497 C 1067 1433 1104 1336 1104 1206 C 1104 1156 1098 1111 1087 1071 C 1075 1031 1059 997 1039 967 C 1019 937 994 911 965 891 C 936 870 904 854 870 842 C 988 821 1076 777 1134 711 C 1192 645 1221 552 1221 434 C 1221 391 1218 351 1212 313 C 1206 275 1195 239 1180 207 C 1164 175 1143 146 1117 121 C 1090 95 1056 74 1015 56 C 974 38 925 24 867 14 C 809 4 741 0 664 0 L 528 0 L 528 96 L 662 96 C 761 96 840 105 900 123 C 960 141 1006 165 1038 196 C 1070 227 1091 263 1101 305 C 1111 346 1116 390 1116 438 C 1116 494 1108 544 1093 587 C 1077 629 1052 665 1016 694 C 980 722 932 744 872 758 C 812 772 739 780 651 780 L 651 870 C 705 870 753 876 797 889 C 840 902 877 922 907 948 C 937 974 961 1008 977 1048 C 993 1088 1001 1136 1001 1190 C 1001 1292 973 1368 918 1417 C 862 1466 773 1491 649 1491 C 582 1491 525 1482 477 1464 C 429 1446 389 1422 358 1390 C 327 1358 304 1319 290 1274 C 275 1229 268 1180 268 1126 L 268 0 L 166 0 L 166 1128 Z" unicode="ß" />
<glyph horiz-adv-x="1255" d="M 487 -23 C 411 -23 348 -14 298 2 C 248 18 209 41 180 71 C 151 101 131 136 119 176 C 107 216 102 259 102 307 C 102 387 115 453 142 505 C 169 557 213 599 273 630 C 333 660 411 682 507 694 C 603 706 720 713 858 713 L 932 713 C 931 772 927 823 920 866 C 912 908 897 943 874 971 C 851 998 818 1018 775 1031 C 732 1044 675 1051 604 1051 C 568 1051 533 1048 500 1042 C 467 1036 436 1028 407 1019 C 378 1009 351 998 327 986 C 303 974 282 962 264 950 L 209 1032 C 227 1044 250 1056 278 1070 C 306 1084 337 1096 372 1108 C 406 1119 444 1128 484 1136 C 524 1143 566 1147 610 1147 C 671 1147 724 1143 769 1135 C 814 1127 852 1116 884 1100 C 915 1084 940 1064 960 1040 C 980 1016 995 987 1006 953 C 1016 919 1024 881 1028 837 C 1032 793 1034 745 1034 692 L 1034 242 C 1034 209 1035 183 1037 163 C 1039 143 1044 128 1052 118 C 1060 108 1073 101 1089 98 C 1105 95 1128 94 1157 94 L 1157 2 C 1153 0 1147 -1 1140 -1 C 1133 -1 1125 -2 1116 -2 C 1082 -2 1053 1 1031 9 C 1009 17 991 28 978 44 C 964 60 955 79 950 103 C 944 126 942 154 942 186 C 924 151 902 121 878 95 C 853 69 823 47 787 29 C 751 11 708 -1 659 -10 C 610 -18 553 -23 487 -23 Z M 500 70 C 576 70 642 78 697 96 C 751 114 796 141 831 178 C 865 215 891 262 907 318 C 923 374 932 442 932 520 L 932 616 L 862 616 C 732 616 625 611 541 602 C 457 593 390 577 340 555 C 290 532 255 501 235 462 C 215 423 205 373 205 313 C 205 275 209 240 219 210 C 228 180 244 154 267 134 C 289 113 319 97 357 86 C 395 75 442 70 500 70 Z M 328 1544 L 459 1544 L 772 1243 L 668 1243 L 328 1544 Z" unicode="à" />
<glyph horiz-adv-x="1255" d="M 487 -23 C 411 -23 348 -14 298 2 C 248 18 209 41 180 71 C 151 101 131 136 119 176 C 107 216 102 259 102 307 C 102 387 115 453 142 505 C 169 557 213 599 273 630 C 333 660 411 682 507 694 C 603 706 720 713 858 713 L 932 713 C 931 772 927 823 920 866 C 912 908 897 943 874 971 C 851 998 818 1018 775 1031 C 732 1044 675 1051 604 1051 C 568 1051 533 1048 500 1042 C 467 1036 436 1028 407 1019 C 378 1009 351 998 327 986 C 303 974 282 962 264 950 L 209 1032 C 227 1044 250 1056 278 1070 C 306 1084 337 1096 372 1108 C 406 1119 444 1128 484 1136 C 524 1143 566 1147 610 1147 C 671 1147 724 1143 769 1135 C 814 1127 852 1116 884 1100 C 915 1084 940 1064 960 1040 C 980 1016 995 987 1006 953 C 1016 919 1024 881 1028 837 C 1032 793 1034 745 1034 692 L 1034 242 C 1034 209 1035 183 1037 163 C 1039 143 1044 128 1052 118 C 1060 108 1073 101 1089 98 C 1105 95 1128 94 1157 94 L 1157 2 C 1153 0 1147 -1 1140 -1 C 1133 -1 1125 -2 1116 -2 C 1082 -2 1053 1 1031 9 C 1009 17 991 28 978 44 C 964 60 955 79 950 103 C 944 126 942 154 942 186 C 924 151 902 121 878 95 C 853 69 823 47 787 29 C 751 11 708 -1 659 -10 C 610 -18 553 -23 487 -23 Z M 500 70 C 576 70 642 78 697 96 C 751 114 796 141 831 178 C 865 215 891 262 907 318 C 923 374 932 442 932 520 L 932 616 L 862 616 C 732 616 625 611 541 602 C 457 593 390 577 340 555 C 290 532 255 501 235 462 C 215 423 205 373 205 313 C 205 275 209 240 219 210 C 228 180 244 154 267 134 C 289 113 319 97 357 86 C 395 75 442 70 500 70 Z M 805 1544 L 936 1544 L 596 1243 L 489 1243 L 805 1544 Z" unicode="á" />
<glyph horiz-adv-x="1255" d="M 487 -23 C 411 -23 348 -14 298 2 C 248 18 209 41 180 71 C 151 101 131 136 119 176 C 107 216 102 259 102 307 C 102 387 115 453 142 505 C 169 557 213 599 273 630 C 333 660 411 682 507 694 C 603 706 720 713 858 713 L 932 713 C 931 772 927 823 920 866 C 912 908 897 943 874 971 C 851 998 818 1018 775 1031 C 732 1044 675 1051 604 1051 C 568 1051 533 1048 500 1042 C 467 1036 436 1028 407 1019 C 378 1009 351 998 327 986 C 303 974 282 962 264 950 L 209 1032 C 227 1044 250 1056 278 1070 C 306 1084 337 1096 372 1108 C 406 1119 444 1128 484 1136 C 524 1143 566 1147 610 1147 C 671 1147 724 1143 769 1135 C 814 1127 852 1116 884 1100 C 915 1084 940 1064 960 1040 C 980 1016 995 987 1006 953 C 1016 919 1024 881 1028 837 C 1032 793 1034 745 1034 692 L 1034 242 C 1034 209 1035 183 1037 163 C 1039 143 1044 128 1052 118 C 1060 108 1073 101 1089 98 C 1105 95 1128 94 1157 94 L 1157 2 C 1153 0 1147 -1 1140 -1 C 1133 -1 1125 -2 1116 -2 C 1082 -2 1053 1 1031 9 C 1009 17 991 28 978 44 C 964 60 955 79 950 103 C 944 126 942 154 942 186 C 924 151 902 121 878 95 C 853 69 823 47 787 29 C 751 11 708 -1 659 -10 C 610 -18 553 -23 487 -23 Z M 500 70 C 576 70 642 78 697 96 C 751 114 796 141 831 178 C 865 215 891 262 907 318 C 923 374 932 442 932 520 L 932 616 L 862 616 C 732 616 625 611 541 602 C 457 593 390 577 340 555 C 290 532 255 501 235 462 C 215 423 205 373 205 313 C 205 275 209 240 219 210 C 228 180 244 154 267 134 C 289 113 319 97 357 86 C 395 75 442 70 500 70 Z M 567 1544 L 692 1544 L 1004 1243 L 891 1243 L 629 1477 L 367 1243 L 258 1243 L 567 1544 Z" unicode="â" />
<glyph horiz-adv-x="1255" d="M 487 -23 C 411 -23 348 -14 298 2 C 248 18 209 41 180 71 C 151 101 131 136 119 176 C 107 216 102 259 102 307 C 102 387 115 453 142 505 C 169 557 213 599 273 630 C 333 660 411 682 507 694 C 603 706 720 713 858 713 L 932 713 C 931 772 927 823 920 866 C 912 908 897 943 874 971 C 851 998 818 1018 775 1031 C 732 1044 675 1051 604 1051 C 568 1051 533 1048 500 1042 C 467 1036 436 1028 407 1019 C 378 1009 351 998 327 986 C 303 974 282 962 264 950 L 209 1032 C 227 1044 250 1056 278 1070 C 306 1084 337 1096 372 1108 C 406 1119 444 1128 484 1136 C 524 1143 566 1147 610 1147 C 671 1147 724 1143 769 1135 C 814 1127 852 1116 884 1100 C 915 1084 940 1064 960 1040 C 980 1016 995 987 1006 953 C 1016 919 1024 881 1028 837 C 1032 793 1034 745 1034 692 L 1034 242 C 1034 209 1035 183 1037 163 C 1039 143 1044 128 1052 118 C 1060 108 1073 101 1089 98 C 1105 95 1128 94 1157 94 L 1157 2 C 1153 0 1147 -1 1140 -1 C 1133 -1 1125 -2 1116 -2 C 1082 -2 1053 1 1031 9 C 1009 17 991 28 978 44 C 964 60 955 79 950 103 C 944 126 942 154 942 186 C 924 151 902 121 878 95 C 853 69 823 47 787 29 C 751 11 708 -1 659 -10 C 610 -18 553 -23 487 -23 Z M 500 70 C 576 70 642 78 697 96 C 751 114 796 141 831 178 C 865 215 891 262 907 318 C 923 374 932 442 932 520 L 932 616 L 862 616 C 732 616 625 611 541 602 C 457 593 390 577 340 555 C 290 532 255 501 235 462 C 215 423 205 373 205 313 C 205 275 209 240 219 210 C 228 180 244 154 267 134 C 289 113 319 97 357 86 C 395 75 442 70 500 70 Z M 268 1305 C 281 1321 296 1337 314 1353 C 331 1369 349 1383 368 1395 C 387 1407 407 1417 428 1425 C 448 1432 469 1436 489 1436 C 523 1436 553 1431 577 1421 C 601 1411 623 1399 644 1387 C 664 1375 685 1364 705 1354 C 725 1344 748 1339 774 1339 C 788 1339 801 1342 815 1348 C 829 1354 842 1363 856 1373 C 869 1383 882 1395 894 1408 C 906 1421 918 1434 930 1448 L 997 1395 C 983 1377 967 1360 950 1343 C 933 1325 915 1310 897 1296 C 878 1282 858 1270 838 1262 C 818 1253 797 1249 776 1249 C 746 1249 719 1254 695 1264 C 671 1274 648 1285 626 1297 C 604 1309 583 1321 561 1331 C 539 1341 516 1346 492 1346 C 464 1346 437 1336 409 1318 C 381 1299 358 1277 340 1251 L 268 1305 Z" unicode="ã" />
<glyph horiz-adv-x="1255" d="M 487 -23 C 411 -23 348 -14 298 2 C 248 18 209 41 180 71 C 151 101 131 136 119 176 C 107 216 102 259 102 307 C 102 387 115 453 142 505 C 169 557 213 599 273 630 C 333 660 411 682 507 694 C 603 706 720 713 858 713 L 932 713 C 931 772 927 823 920 866 C 912 908 897 943 874 971 C 851 998 818 1018 775 1031 C 732 1044 675 1051 604 1051 C 568 1051 533 1048 500 1042 C 467 1036 436 1028 407 1019 C 378 1009 351 998 327 986 C 303 974 282 962 264 950 L 209 1032 C 227 1044 250 1056 278 1070 C 306 1084 337 1096 372 1108 C 406 1119 444 1128 484 1136 C 524 1143 566 1147 610 1147 C 671 1147 724 1143 769 1135 C 814 1127 852 1116 884 1100 C 915 1084 940 1064 960 1040 C 980 1016 995 987 1006 953 C 1016 919 1024 881 1028 837 C 1032 793 1034 745 1034 692 L 1034 242 C 1034 209 1035 183 1037 163 C 1039 143 1044 128 1052 118 C 1060 108 1073 101 1089 98 C 1105 95 1128 94 1157 94 L 1157 2 C 1153 0 1147 -1 1140 -1 C 1133 -1 1125 -2 1116 -2 C 1082 -2 1053 1 1031 9 C 1009 17 991 28 978 44 C 964 60 955 79 950 103 C 944 126 942 154 942 186 C 924 151 902 121 878 95 C 853 69 823 47 787 29 C 751 11 708 -1 659 -10 C 610 -18 553 -23 487 -23 Z M 500 70 C 576 70 642 78 697 96 C 751 114 796 141 831 178 C 865 215 891 262 907 318 C 923 374 932 442 932 520 L 932 616 L 862 616 C 732 616 625 611 541 602 C 457 593 390 577 340 555 C 290 532 255 501 235 462 C 215 423 205 373 205 313 C 205 275 209 240 219 210 C 228 180 244 154 267 134 C 289 113 319 97 357 86 C 395 75 442 70 500 70 Z M 373 1430 L 471 1430 L 471 1245 L 373 1245 L 373 1430 Z M 793 1430 L 891 1430 L 891 1245 L 793 1245 L 793 1430 Z" unicode="ä" />
<glyph horiz-adv-x="1255" d="M 487 -23 C 411 -23 348 -14 298 2 C 248 18 209 41 180 71 C 151 101 131 136 119 176 C 107 216 102 259 102 307 C 102 387 115 453 142 505 C 169 557 213 599 273 630 C 333 660 411 682 507 694 C 603 706 720 713 858 713 L 932 713 C 931 772 927 823 920 866 C 912 908 897 943 874 971 C 851 998 818 1018 775 1031 C 732 1044 675 1051 604 1051 C 568 1051 533 1048 500 1042 C 467 1036 436 1028 407 1019 C 378 1009 351 998 327 986 C 303 974 282 962 264 950 L 209 1032 C 227 1044 250 1056 278 1070 C 306 1084 337 1096 372 1108 C 406 1119 444 1128 484 1136 C 524 1143 566 1147 610 1147 C 671 1147 724 1143 769 1135 C 814 1127 852 1116 884 1100 C 915 1084 940 1064 960 1040 C 980 1016 995 987 1006 953 C 1016 919 1024 881 1028 837 C 1032 793 1034 745 1034 692 L 1034 242 C 1034 209 1035 183 1037 163 C 1039 143 1044 128 1052 118 C 1060 108 1073 101 1089 98 C 1105 95 1128 94 1157 94 L 1157 2 C 1153 0 1147 -1 1140 -1 C 1133 -1 1125 -2 1116 -2 C 1082 -2 1053 1 1031 9 C 1009 17 991 28 978 44 C 964 60 955 79 950 103 C 944 126 942 154 942 186 C 924 151 902 121 878 95 C 853 69 823 47 787 29 C 751 11 708 -1 659 -10 C 610 -18 553 -23 487 -23 Z M 500 70 C 576 70 642 78 697 96 C 751 114 796 141 831 178 C 865 215 891 262 907 318 C 923 374 932 442 932 520 L 932 616 L 862 616 C 732 616 625 611 541 602 C 457 593 390 577 340 555 C 290 532 255 501 235 462 C 215 423 205 373 205 313 C 205 275 209 240 219 210 C 228 180 244 154 267 134 C 289 113 319 97 357 86 C 395 75 442 70 500 70 Z M 631 1225 C 591 1225 556 1230 527 1242 C 497 1254 473 1270 454 1291 C 435 1312 421 1337 412 1366 C 403 1394 399 1426 399 1460 C 399 1493 403 1524 412 1553 C 421 1582 435 1607 454 1629 C 473 1650 497 1667 527 1679 C 556 1691 591 1698 631 1698 C 669 1698 702 1691 731 1679 C 759 1667 783 1650 802 1629 C 821 1607 835 1582 845 1553 C 855 1524 860 1493 860 1460 C 860 1426 855 1394 845 1366 C 835 1337 821 1312 802 1291 C 783 1270 759 1254 731 1242 C 702 1230 669 1225 631 1225 Z M 631 1294 C 658 1294 682 1298 702 1306 C 722 1314 739 1326 752 1341 C 765 1356 775 1374 781 1394 C 787 1414 791 1436 791 1460 C 791 1483 787 1505 781 1525 C 775 1545 765 1563 752 1578 C 739 1593 722 1605 702 1613 C 682 1621 658 1626 631 1626 C 603 1626 578 1621 558 1613 C 538 1605 521 1593 508 1578 C 495 1563 486 1545 480 1525 C 474 1505 471 1483 471 1460 C 471 1436 474 1414 480 1394 C 486 1374 495 1356 508 1341 C 521 1326 538 1314 558 1306 C 578 1298 603 1294 631 1294 Z" unicode="å" />
<glyph horiz-adv-x="2015" d="M 1452 -23 C 1380 -23 1318 -16 1266 -4 C 1213 8 1168 26 1130 50 C 1092 74 1060 102 1036 135 C 1012 168 993 205 979 246 C 958 194 933 151 904 117 C 875 83 841 55 801 34 C 761 13 715 -1 664 -10 C 612 -18 554 -23 489 -23 C 429 -23 376 -17 328 -6 C 280 5 240 24 206 50 C 172 76 147 110 129 152 C 111 194 102 245 102 307 C 102 387 116 453 144 505 C 172 557 216 599 277 630 C 337 660 415 682 511 694 C 607 706 722 713 858 713 L 932 713 C 931 772 927 823 920 866 C 912 908 897 943 874 971 C 851 998 818 1018 775 1031 C 732 1044 675 1051 604 1051 C 568 1051 533 1048 500 1042 C 466 1036 435 1028 406 1019 C 376 1009 349 999 325 987 C 301 975 280 964 262 952 L 209 1032 C 227 1044 250 1056 278 1070 C 306 1084 337 1096 372 1108 C 406 1119 444 1128 484 1136 C 524 1143 566 1147 610 1147 C 674 1147 728 1142 774 1134 C 820 1125 858 1112 889 1094 C 919 1076 943 1053 961 1026 C 979 998 992 966 1001 930 C 1017 963 1038 993 1064 1020 C 1090 1046 1120 1069 1156 1088 C 1192 1107 1233 1122 1281 1132 C 1328 1142 1382 1147 1444 1147 C 1518 1147 1580 1139 1631 1123 C 1681 1107 1723 1086 1757 1059 C 1790 1031 1816 999 1834 961 C 1852 923 1866 881 1875 837 C 1883 792 1888 745 1890 695 C 1891 645 1892 594 1892 543 L 1028 543 C 1028 475 1034 412 1045 354 C 1056 296 1077 246 1108 204 C 1139 162 1182 129 1237 105 C 1292 81 1364 70 1452 70 C 1498 70 1539 73 1575 79 C 1611 85 1643 93 1671 104 C 1699 114 1725 127 1749 141 C 1772 155 1795 171 1819 188 L 1876 113 C 1850 93 1822 75 1794 59 C 1766 43 1735 28 1701 16 C 1667 4 1629 -5 1589 -12 C 1548 -19 1502 -23 1452 -23 Z M 500 70 C 576 70 642 78 697 96 C 751 114 796 141 831 178 C 865 215 891 262 907 318 C 923 374 932 442 932 520 L 932 616 L 862 616 C 739 616 636 611 552 602 C 468 593 401 577 349 555 C 297 532 260 501 238 462 C 216 423 205 373 205 313 C 205 275 209 240 219 210 C 228 180 244 154 267 134 C 289 113 319 97 357 86 C 395 75 442 70 500 70 Z M 1442 1053 C 1363 1053 1298 1042 1246 1022 C 1194 1002 1153 973 1122 937 C 1091 901 1069 857 1055 806 C 1041 755 1032 699 1030 639 L 1792 639 C 1790 676 1787 712 1785 747 C 1782 781 1777 814 1769 845 C 1761 875 1749 903 1735 929 C 1720 955 1700 977 1675 995 C 1649 1013 1618 1028 1580 1038 C 1542 1048 1496 1053 1442 1053 Z" unicode="æ" />
<glyph horiz-adv-x="1139" d="M 590 -444 C 540 -444 498 -439 462 -429 C 426 -419 393 -405 365 -389 L 401 -324 C 427 -338 455 -349 487 -358 C 518 -366 552 -371 588 -371 C 625 -371 655 -367 677 -360 C 699 -353 717 -344 729 -333 C 741 -321 748 -309 752 -295 C 756 -281 758 -268 758 -254 C 758 -235 755 -219 750 -205 C 745 -191 735 -180 721 -172 C 707 -164 687 -158 662 -155 C 636 -152 603 -152 563 -154 L 522 -123 L 543 -18 C 459 -10 390 8 335 38 C 279 68 235 107 202 157 C 169 207 146 266 132 334 C 118 402 111 479 111 563 C 111 654 119 736 136 808 C 152 880 181 942 221 992 C 261 1042 315 1080 382 1107 C 449 1133 533 1147 635 1147 C 685 1147 729 1142 769 1134 C 809 1125 844 1114 876 1100 C 907 1086 934 1069 958 1051 C 982 1033 1003 1014 1022 995 L 948 924 C 934 938 917 952 897 967 C 877 982 855 996 829 1008 C 803 1020 774 1029 742 1037 C 710 1045 674 1049 635 1049 C 555 1049 489 1038 435 1016 C 381 994 338 963 306 921 C 273 879 250 828 236 768 C 222 708 215 639 215 561 C 215 483 221 414 235 354 C 249 294 272 243 304 201 C 336 159 379 128 433 106 C 487 84 554 74 635 74 C 702 74 761 84 812 106 C 862 127 910 157 954 197 L 1024 129 C 997 105 970 84 943 65 C 915 46 886 30 855 17 C 823 4 789 -5 753 -12 C 717 -19 677 -23 633 -23 L 618 -23 L 606 -94 C 636 -92 666 -92 694 -94 C 722 -96 748 -103 770 -115 C 792 -126 809 -143 822 -166 C 835 -188 842 -219 842 -258 C 842 -282 838 -305 831 -327 C 824 -349 811 -369 793 -387 C 775 -404 749 -418 717 -428 C 684 -438 642 -444 590 -444 Z" unicode="ç" />
<glyph horiz-adv-x="1198" d="M 635 -23 C 561 -23 496 -16 442 -2 C 388 11 341 30 302 55 C 263 80 231 110 207 146 C 182 181 162 220 148 264 C 134 308 124 355 119 405 C 113 455 111 507 111 563 C 111 645 118 722 132 793 C 146 864 173 926 211 978 C 249 1030 301 1072 368 1102 C 435 1132 521 1147 627 1147 C 699 1147 761 1139 811 1123 C 861 1107 903 1086 937 1059 C 970 1031 996 999 1015 961 C 1033 923 1047 881 1056 837 C 1065 792 1070 745 1072 695 C 1074 645 1075 594 1075 543 L 211 543 C 211 475 217 412 228 354 C 239 296 260 246 291 204 C 322 162 365 129 420 105 C 475 81 547 70 635 70 C 681 70 722 73 758 79 C 794 85 826 93 854 104 C 882 114 907 127 931 141 C 954 155 977 171 1001 188 L 1059 113 C 1033 93 1005 75 977 59 C 949 43 918 28 884 16 C 850 4 812 -5 771 -12 C 730 -19 685 -23 635 -23 Z M 625 1053 C 546 1053 481 1042 429 1022 C 377 1002 336 973 305 937 C 274 901 252 857 238 806 C 224 755 215 699 213 639 L 975 639 C 973 676 970 712 968 747 C 965 781 960 814 952 845 C 944 875 932 903 918 929 C 903 955 883 977 858 995 C 832 1013 801 1028 763 1038 C 725 1048 679 1053 625 1053 Z M 295 1544 L 426 1544 L 739 1243 L 635 1243 L 295 1544 Z" unicode="è" />
<glyph horiz-adv-x="1198" d="M 772 1544 L 903 1544 L 563 1243 L 457 1243 L 772 1544 Z M 635 -23 C 561 -23 496 -16 442 -2 C 388 11 341 30 302 55 C 263 80 231 110 207 146 C 182 181 162 220 148 264 C 134 308 124 355 119 405 C 113 455 111 507 111 563 C 111 645 118 722 132 793 C 146 864 173 926 211 978 C 249 1030 301 1072 368 1102 C 435 1132 521 1147 627 1147 C 699 1147 761 1139 811 1123 C 861 1107 903 1086 937 1059 C 970 1031 996 999 1015 961 C 1033 923 1047 881 1056 837 C 1065 792 1070 745 1072 695 C 1074 645 1075 594 1075 543 L 211 543 C 211 475 217 412 228 354 C 239 296 260 246 291 204 C 322 162 365 129 420 105 C 475 81 547 70 635 70 C 681 70 722 73 758 79 C 794 85 826 93 854 104 C 882 114 907 127 931 141 C 954 155 977 171 1001 188 L 1059 113 C 1033 93 1005 75 977 59 C 949 43 918 28 884 16 C 850 4 812 -5 771 -12 C 730 -19 685 -23 635 -23 Z M 625 1053 C 546 1053 481 1042 429 1022 C 377 1002 336 973 305 937 C 274 901 252 857 238 806 C 224 755 215 699 213 639 L 975 639 C 973 676 970 712 968 747 C 965 781 960 814 952 845 C 944 875 932 903 918 929 C 903 955 883 977 858 995 C 832 1013 801 1028 763 1038 C 725 1048 679 1053 625 1053 Z" unicode="é" />
<glyph horiz-adv-x="1198" d="M 535 1544 L 659 1544 L 971 1243 L 858 1243 L 596 1477 L 334 1243 L 225 1243 L 535 1544 Z M 635 -23 C 561 -23 496 -16 442 -2 C 388 11 341 30 302 55 C 263 80 231 110 207 146 C 182 181 162 220 148 264 C 134 308 124 355 119 405 C 113 455 111 507 111 563 C 111 645 118 722 132 793 C 146 864 173 926 211 978 C 249 1030 301 1072 368 1102 C 435 1132 521 1147 627 1147 C 699 1147 761 1139 811 1123 C 861 1107 903 1086 937 1059 C 970 1031 996 999 1015 961 C 1033 923 1047 881 1056 837 C 1065 792 1070 745 1072 695 C 1074 645 1075 594 1075 543 L 211 543 C 211 475 217 412 228 354 C 239 296 260 246 291 204 C 322 162 365 129 420 105 C 475 81 547 70 635 70 C 681 70 722 73 758 79 C 794 85 826 93 854 104 C 882 114 907 127 931 141 C 954 155 977 171 1001 188 L 1059 113 C 1033 93 1005 75 977 59 C 949 43 918 28 884 16 C 850 4 812 -5 771 -12 C 730 -19 685 -23 635 -23 Z M 625 1053 C 546 1053 481 1042 429 1022 C 377 1002 336 973 305 937 C 274 901 252 857 238 806 C 224 755 215 699 213 639 L 975 639 C 973 676 970 712 968 747 C 965 781 960 814 952 845 C 944 875 932 903 918 929 C 903 955 883 977 858 995 C 832 1013 801 1028 763 1038 C 725 1048 679 1053 625 1053 Z" unicode="ê" />
<glyph horiz-adv-x="1198" d="M 340 1430 L 438 1430 L 438 1245 L 340 1245 L 340 1430 Z M 760 1430 L 858 1430 L 858 1245 L 760 1245 L 760 1430 Z M 635 -23 C 561 -23 496 -16 442 -2 C 388 11 341 30 302 55 C 263 80 231 110 207 146 C 182 181 162 220 148 264 C 134 308 124 355 119 405 C 113 455 111 507 111 563 C 111 645 118 722 132 793 C 146 864 173 926 211 978 C 249 1030 301 1072 368 1102 C 435 1132 521 1147 627 1147 C 699 1147 761 1139 811 1123 C 861 1107 903 1086 937 1059 C 970 1031 996 999 1015 961 C 1033 923 1047 881 1056 837 C 1065 792 1070 745 1072 695 C 1074 645 1075 594 1075 543 L 211 543 C 211 475 217 412 228 354 C 239 296 260 246 291 204 C 322 162 365 129 420 105 C 475 81 547 70 635 70 C 681 70 722 73 758 79 C 794 85 826 93 854 104 C 882 114 907 127 931 141 C 954 155 977 171 1001 188 L 1059 113 C 1033 93 1005 75 977 59 C 949 43 918 28 884 16 C 850 4 812 -5 771 -12 C 730 -19 685 -23 635 -23 Z M 625 1053 C 546 1053 481 1042 429 1022 C 377 1002 336 973 305 937 C 274 901 252 857 238 806 C 224 755 215 699 213 639 L 975 639 C 973 676 970 712 968 747 C 965 781 960 814 952 845 C 944 875 932 903 918 929 C 903 955 883 977 858 995 C 832 1013 801 1028 763 1038 C 725 1048 679 1053 625 1053 Z" unicode="ë" />
<glyph horiz-adv-x="453" d="M -96 1542 L 33 1542 L 279 1243 L 176 1243 L -96 1542 Z M 174 1120 L 279 1120 L 279 0 L 174 0 L 174 1120 Z" unicode="ì" />
<glyph horiz-adv-x="453" d="M 424 1542 L 551 1542 L 281 1243 L 178 1243 L 424 1542 Z M 174 1120 L 279 1120 L 279 0 L 174 0 L 174 1120 Z" unicode="í" />
<glyph horiz-adv-x="453" d="M 168 1542 L 283 1542 L 518 1243 L 410 1243 L 225 1479 L 37 1243 L -68 1243 L 168 1542 Z M 174 1120 L 279 1120 L 279 0 L 174 0 L 174 1120 Z" unicode="î" />
<glyph horiz-adv-x="453" d="M -8 1462 L 84 1462 L 84 1278 L -8 1278 L -8 1462 Z M 369 1462 L 461 1462 L 461 1278 L 369 1278 L 369 1462 Z M 174 1120 L 279 1120 L 279 0 L 174 0 L 174 1120 Z" unicode="ï" />
<glyph horiz-adv-x="1274" d="M 631 1325 L 815 1382 C 787 1411 757 1439 726 1466 C 694 1492 661 1519 625 1546 L 709 1599 C 747 1571 784 1542 820 1513 C 856 1483 890 1451 922 1415 L 1200 1501 L 1200 1419 L 975 1350 C 1003 1310 1029 1265 1053 1215 C 1076 1165 1096 1109 1112 1046 C 1128 983 1141 912 1150 834 C 1158 756 1163 668 1163 571 C 1163 470 1153 382 1133 308 C 1113 233 1081 171 1039 122 C 996 73 941 37 875 13 C 808 -11 728 -23 635 -23 C 540 -23 459 -10 393 14 C 327 39 273 76 231 125 C 189 173 158 234 139 306 C 120 378 111 461 111 555 C 111 647 120 729 138 801 C 156 873 185 933 225 982 C 265 1030 318 1067 382 1092 C 446 1117 524 1130 616 1130 C 674 1130 724 1126 768 1118 C 811 1110 849 1098 882 1083 C 914 1068 942 1049 966 1027 C 990 1005 1011 980 1030 952 C 1014 1027 993 1094 967 1153 C 940 1212 908 1267 870 1317 L 631 1243 L 631 1325 Z M 635 74 C 711 74 775 84 829 104 C 883 124 927 155 961 195 C 995 235 1019 285 1035 345 C 1051 405 1059 475 1059 555 C 1059 635 1051 706 1035 766 C 1019 826 995 877 961 917 C 927 957 883 988 829 1008 C 775 1028 711 1038 635 1038 C 559 1038 494 1028 441 1008 C 388 988 345 957 311 917 C 277 877 253 826 238 766 C 222 706 215 635 215 555 C 215 475 222 405 238 345 C 253 285 277 235 311 195 C 345 155 388 124 441 104 C 494 84 559 74 635 74 Z" unicode="ð" />
<glyph horiz-adv-x="1241" d="M 166 1116 L 248 1120 L 260 963 C 271 987 287 1011 307 1033 C 327 1055 353 1074 386 1091 C 418 1108 458 1122 506 1132 C 554 1142 611 1147 678 1147 C 740 1147 793 1142 837 1132 C 881 1122 918 1107 948 1089 C 978 1070 1001 1047 1019 1020 C 1037 993 1050 962 1060 928 C 1070 894 1076 856 1079 816 C 1081 775 1083 732 1083 686 L 1083 0 L 979 0 L 979 674 C 979 729 976 779 971 825 C 966 871 953 910 932 943 C 910 976 878 1002 835 1020 C 791 1038 731 1047 655 1047 C 574 1047 508 1036 458 1016 C 408 995 369 966 341 930 C 313 894 294 851 284 801 C 274 751 270 697 270 639 L 270 0 L 166 0 L 166 1116 Z M 256 1305 C 269 1321 284 1337 301 1353 C 318 1369 336 1383 355 1395 C 374 1407 394 1417 415 1425 C 435 1432 456 1436 477 1436 C 511 1436 540 1431 564 1421 C 588 1411 611 1399 631 1387 C 651 1375 672 1364 692 1354 C 712 1344 736 1339 762 1339 C 776 1339 789 1342 803 1348 C 817 1354 830 1363 843 1373 C 856 1383 869 1395 882 1408 C 894 1421 906 1434 918 1448 L 985 1395 C 971 1377 955 1360 938 1343 C 921 1325 903 1310 885 1296 C 866 1282 846 1270 826 1262 C 806 1253 785 1249 764 1249 C 734 1249 707 1254 683 1264 C 659 1274 636 1285 614 1297 C 592 1309 570 1321 549 1331 C 527 1341 504 1346 479 1346 C 452 1346 425 1336 397 1318 C 369 1299 346 1277 328 1251 L 256 1305 Z" unicode="ñ" />
<glyph horiz-adv-x="1274" d="M 635 -23 C 541 -23 460 -10 394 14 C 328 38 274 75 232 124 C 190 173 159 234 140 307 C 120 380 111 465 111 563 C 111 659 120 744 140 817 C 159 890 190 951 232 1000 C 274 1048 328 1085 394 1110 C 460 1134 541 1147 635 1147 C 729 1147 809 1134 876 1110 C 943 1085 998 1048 1040 1000 C 1082 951 1113 890 1133 817 C 1153 744 1163 659 1163 563 C 1163 465 1153 380 1133 307 C 1113 234 1082 173 1040 124 C 998 75 943 38 876 14 C 809 -10 729 -23 635 -23 Z M 635 74 C 711 74 775 84 829 105 C 883 125 927 156 961 197 C 995 237 1019 288 1035 349 C 1051 410 1059 481 1059 561 C 1059 641 1051 712 1035 773 C 1019 833 995 884 961 925 C 927 966 883 997 829 1018 C 775 1038 711 1049 635 1049 C 559 1049 494 1038 441 1018 C 388 997 345 966 311 925 C 277 884 253 833 238 773 C 222 712 215 641 215 561 C 215 481 222 410 238 349 C 253 288 277 237 311 197 C 345 156 388 125 441 105 C 494 84 559 74 635 74 Z M 332 1544 L 463 1544 L 776 1243 L 672 1243 L 332 1544 Z" unicode="ò" />
<glyph horiz-adv-x="1274" d="M 809 1544 L 940 1544 L 600 1243 L 494 1243 L 809 1544 Z M 635 -23 C 541 -23 460 -10 394 14 C 328 38 274 75 232 124 C 190 173 159 234 140 307 C 120 380 111 465 111 563 C 111 659 120 744 140 817 C 159 890 190 951 232 1000 C 274 1048 328 1085 394 1110 C 460 1134 541 1147 635 1147 C 729 1147 809 1134 876 1110 C 943 1085 998 1048 1040 1000 C 1082 951 1113 890 1133 817 C 1153 744 1163 659 1163 563 C 1163 465 1153 380 1133 307 C 1113 234 1082 173 1040 124 C 998 75 943 38 876 14 C 809 -10 729 -23 635 -23 Z M 635 74 C 711 74 775 84 829 105 C 883 125 927 156 961 197 C 995 237 1019 288 1035 349 C 1051 410 1059 481 1059 561 C 1059 641 1051 712 1035 773 C 1019 833 995 884 961 925 C 927 966 883 997 829 1018 C 775 1038 711 1049 635 1049 C 559 1049 494 1038 441 1018 C 388 997 345 966 311 925 C 277 884 253 833 238 773 C 222 712 215 641 215 561 C 215 481 222 410 238 349 C 253 288 277 237 311 197 C 345 156 388 125 441 105 C 494 84 559 74 635 74 Z" unicode="ó" />
<glyph horiz-adv-x="1274" d="M 571 1544 L 696 1544 L 1008 1243 L 895 1243 L 633 1477 L 371 1243 L 262 1243 L 571 1544 Z M 635 -23 C 541 -23 460 -10 394 14 C 328 38 274 75 232 124 C 190 173 159 234 140 307 C 120 380 111 465 111 563 C 111 659 120 744 140 817 C 159 890 190 951 232 1000 C 274 1048 328 1085 394 1110 C 460 1134 541 1147 635 1147 C 729 1147 809 1134 876 1110 C 943 1085 998 1048 1040 1000 C 1082 951 1113 890 1133 817 C 1153 744 1163 659 1163 563 C 1163 465 1153 380 1133 307 C 1113 234 1082 173 1040 124 C 998 75 943 38 876 14 C 809 -10 729 -23 635 -23 Z M 635 74 C 711 74 775 84 829 105 C 883 125 927 156 961 197 C 995 237 1019 288 1035 349 C 1051 410 1059 481 1059 561 C 1059 641 1051 712 1035 773 C 1019 833 995 884 961 925 C 927 966 883 997 829 1018 C 775 1038 711 1049 635 1049 C 559 1049 494 1038 441 1018 C 388 997 345 966 311 925 C 277 884 253 833 238 773 C 222 712 215 641 215 561 C 215 481 222 410 238 349 C 253 288 277 237 311 197 C 345 156 388 125 441 105 C 494 84 559 74 635 74 Z" unicode="ô" />
<glyph horiz-adv-x="1274" d="M 635 -23 C 541 -23 460 -10 394 14 C 328 38 274 75 232 124 C 190 173 159 234 140 307 C 120 380 111 465 111 563 C 111 659 120 744 140 817 C 159 890 190 951 232 1000 C 274 1048 328 1085 394 1110 C 460 1134 541 1147 635 1147 C 729 1147 809 1134 876 1110 C 943 1085 998 1048 1040 1000 C 1082 951 1113 890 1133 817 C 1153 744 1163 659 1163 563 C 1163 465 1153 380 1133 307 C 1113 234 1082 173 1040 124 C 998 75 943 38 876 14 C 809 -10 729 -23 635 -23 Z M 635 74 C 711 74 775 84 829 105 C 883 125 927 156 961 197 C 995 237 1019 288 1035 349 C 1051 410 1059 481 1059 561 C 1059 641 1051 712 1035 773 C 1019 833 995 884 961 925 C 927 966 883 997 829 1018 C 775 1038 711 1049 635 1049 C 559 1049 494 1038 441 1018 C 388 997 345 966 311 925 C 277 884 253 833 238 773 C 222 712 215 641 215 561 C 215 481 222 410 238 349 C 253 288 277 237 311 197 C 345 156 388 125 441 105 C 494 84 559 74 635 74 Z M 272 1305 C 285 1321 300 1337 318 1353 C 335 1369 353 1383 372 1395 C 391 1407 411 1417 432 1425 C 452 1432 473 1436 494 1436 C 528 1436 557 1431 581 1421 C 605 1411 628 1399 648 1387 C 668 1375 689 1364 709 1354 C 729 1344 752 1339 778 1339 C 792 1339 805 1342 819 1348 C 833 1354 846 1363 860 1373 C 873 1383 886 1395 898 1408 C 910 1421 922 1434 934 1448 L 1001 1395 C 987 1377 971 1360 954 1343 C 937 1325 919 1310 901 1296 C 882 1282 862 1270 842 1262 C 822 1253 801 1249 780 1249 C 750 1249 723 1254 699 1264 C 675 1274 652 1285 630 1297 C 608 1309 587 1321 565 1331 C 543 1341 520 1346 496 1346 C 468 1346 441 1336 413 1318 C 385 1299 362 1277 344 1251 L 272 1305 Z" unicode="õ" />
<glyph horiz-adv-x="1274" d="M 377 1430 L 475 1430 L 475 1245 L 377 1245 L 377 1430 Z M 797 1430 L 895 1430 L 895 1245 L 797 1245 L 797 1430 Z M 635 -23 C 541 -23 460 -10 394 14 C 328 38 274 75 232 124 C 190 173 159 234 140 307 C 120 380 111 465 111 563 C 111 659 120 744 140 817 C 159 890 190 951 232 1000 C 274 1048 328 1085 394 1110 C 460 1134 541 1147 635 1147 C 729 1147 809 1134 876 1110 C 943 1085 998 1048 1040 1000 C 1082 951 1113 890 1133 817 C 1153 744 1163 659 1163 563 C 1163 465 1153 380 1133 307 C 1113 234 1082 173 1040 124 C 998 75 943 38 876 14 C 809 -10 729 -23 635 -23 Z M 635 74 C 711 74 775 84 829 105 C 883 125 927 156 961 197 C 995 237 1019 288 1035 349 C 1051 410 1059 481 1059 561 C 1059 641 1051 712 1035 773 C 1019 833 995 884 961 925 C 927 966 883 997 829 1018 C 775 1038 711 1049 635 1049 C 559 1049 494 1038 441 1018 C 388 997 345 966 311 925 C 277 884 253 833 238 773 C 222 712 215 641 215 561 C 215 481 222 410 238 349 C 253 288 277 237 311 197 C 345 156 388 125 441 105 C 494 84 559 74 635 74 Z" unicode="ö" />
<glyph horiz-adv-x="1409" d="M 633 403 L 778 403 L 778 242 L 633 242 L 633 403 Z M 225 772 L 1182 772 L 1182 674 L 225 674 L 225 772 Z M 633 1204 L 778 1204 L 778 1044 L 633 1044 L 633 1204 Z" unicode="÷" />
<glyph horiz-adv-x="1274" d="M 635 -23 C 583 -23 536 -19 494 -12 C 452 -5 414 4 379 18 L 319 -86 L 219 -86 L 301 59 C 233 105 184 170 155 254 C 125 337 111 440 111 563 C 111 659 120 744 139 817 C 158 890 189 951 231 1000 C 273 1048 327 1085 393 1110 C 459 1134 540 1147 635 1147 C 737 1147 823 1132 895 1104 L 954 1208 L 1055 1208 L 971 1061 C 1037 1015 1086 950 1117 868 C 1147 785 1163 683 1163 563 C 1163 465 1153 380 1134 307 C 1114 234 1083 173 1041 124 C 999 75 944 38 877 14 C 810 -10 729 -23 635 -23 Z M 213 561 C 213 462 224 378 247 310 C 269 241 306 187 356 147 L 846 1012 C 788 1038 717 1051 635 1051 C 559 1051 494 1040 440 1020 C 386 999 343 968 309 927 C 275 886 251 835 236 774 C 220 712 213 641 213 561 Z M 635 72 C 711 72 776 82 830 103 C 884 123 928 154 962 195 C 996 236 1021 287 1037 348 C 1053 409 1061 480 1061 561 C 1061 659 1049 742 1026 810 C 1002 878 965 933 913 973 L 426 109 C 480 84 549 72 635 72 Z" unicode="ø" />
<glyph horiz-adv-x="1231" d="M 621 -23 C 548 -23 486 -17 435 -7 C 383 2 340 17 306 37 C 272 56 245 79 225 107 C 205 135 191 166 181 200 C 171 234 164 271 162 311 C 159 351 158 393 158 438 L 158 1120 L 262 1120 L 262 436 C 262 403 262 371 263 341 C 264 310 268 281 275 255 C 281 228 292 203 306 181 C 320 159 341 140 367 124 C 393 108 427 95 469 87 C 510 78 561 74 621 74 C 680 74 730 78 771 87 C 811 95 845 108 871 124 C 897 140 916 160 930 183 C 944 205 954 230 960 258 C 966 285 969 314 970 346 C 970 378 971 411 971 446 L 971 1120 L 1073 1120 L 1073 446 C 1073 400 1071 357 1069 316 C 1067 275 1061 237 1052 203 C 1042 168 1028 137 1009 109 C 990 81 964 57 931 37 C 897 17 855 2 805 -7 C 754 -17 693 -23 621 -23 Z M 311 1544 L 442 1544 L 756 1243 L 651 1243 L 311 1544 Z" unicode="ù" />
<glyph horiz-adv-x="1231" d="M 788 1544 L 920 1544 L 580 1243 L 473 1243 L 788 1544 Z M 621 -23 C 548 -23 486 -17 435 -7 C 383 2 340 17 306 37 C 272 56 245 79 225 107 C 205 135 191 166 181 200 C 171 234 164 271 162 311 C 159 351 158 393 158 438 L 158 1120 L 262 1120 L 262 436 C 262 403 262 371 263 341 C 264 310 268 281 275 255 C 281 228 292 203 306 181 C 320 159 341 140 367 124 C 393 108 427 95 469 87 C 510 78 561 74 621 74 C 680 74 730 78 771 87 C 811 95 845 108 871 124 C 897 140 916 160 930 183 C 944 205 954 230 960 258 C 966 285 969 314 970 346 C 970 378 971 411 971 446 L 971 1120 L 1073 1120 L 1073 446 C 1073 400 1071 357 1069 316 C 1067 275 1061 237 1052 203 C 1042 168 1028 137 1009 109 C 990 81 964 57 931 37 C 897 17 855 2 805 -7 C 754 -17 693 -23 621 -23 Z" unicode="ú" />
<glyph horiz-adv-x="1231" d="M 551 1544 L 676 1544 L 987 1243 L 874 1243 L 612 1477 L 350 1243 L 242 1243 L 551 1544 Z M 621 -23 C 548 -23 486 -17 435 -7 C 383 2 340 17 306 37 C 272 56 245 79 225 107 C 205 135 191 166 181 200 C 171 234 164 271 162 311 C 159 351 158 393 158 438 L 158 1120 L 262 1120 L 262 436 C 262 403 262 371 263 341 C 264 310 268 281 275 255 C 281 228 292 203 306 181 C 320 159 341 140 367 124 C 393 108 427 95 469 87 C 510 78 561 74 621 74 C 680 74 730 78 771 87 C 811 95 845 108 871 124 C 897 140 916 160 930 183 C 944 205 954 230 960 258 C 966 285 969 314 970 346 C 970 378 971 411 971 446 L 971 1120 L 1073 1120 L 1073 446 C 1073 400 1071 357 1069 316 C 1067 275 1061 237 1052 203 C 1042 168 1028 137 1009 109 C 990 81 964 57 931 37 C 897 17 855 2 805 -7 C 754 -17 693 -23 621 -23 Z" unicode="û" />
<glyph horiz-adv-x="1231" d="M 356 1430 L 455 1430 L 455 1245 L 356 1245 L 356 1430 Z M 776 1430 L 874 1430 L 874 1245 L 776 1245 L 776 1430 Z M 621 -23 C 548 -23 486 -17 435 -7 C 383 2 340 17 306 37 C 272 56 245 79 225 107 C 205 135 191 166 181 200 C 171 234 164 271 162 311 C 159 351 158 393 158 438 L 158 1120 L 262 1120 L 262 436 C 262 403 262 371 263 341 C 264 310 268 281 275 255 C 281 228 292 203 306 181 C 320 159 341 140 367 124 C 393 108 427 95 469 87 C 510 78 561 74 621 74 C 680 74 730 78 771 87 C 811 95 845 108 871 124 C 897 140 916 160 930 183 C 944 205 954 230 960 258 C 966 285 969 314 970 346 C 970 378 971 411 971 446 L 971 1120 L 1073 1120 L 1073 446 C 1073 400 1071 357 1069 316 C 1067 275 1061 237 1052 203 C 1042 168 1028 137 1009 109 C 990 81 964 57 931 37 C 897 17 855 2 805 -7 C 754 -17 693 -23 621 -23 Z" unicode="ü" />
<glyph horiz-adv-x="1053" d="M 162 -340 L 162 -252 L 250 -252 C 274 -252 295 -249 313 -245 C 331 -240 347 -232 361 -222 C 375 -211 387 -197 397 -181 C 407 -164 417 -144 426 -121 L 473 2 L 33 1120 L 141 1120 L 528 127 L 915 1120 L 1020 1120 L 526 -133 C 512 -169 496 -200 480 -226 C 464 -252 445 -273 424 -290 C 402 -307 378 -320 351 -328 C 323 -336 292 -340 256 -340 L 162 -340 Z M 700 1544 L 831 1544 L 492 1243 L 385 1243 L 700 1544 Z" unicode="ý" />
<glyph horiz-adv-x="1305" d="M 166 1589 L 270 1589 L 270 946 C 285 980 305 1010 330 1036 C 354 1061 385 1082 421 1098 C 457 1114 500 1127 549 1135 C 597 1143 653 1147 717 1147 C 809 1147 885 1133 947 1107 C 1008 1080 1057 1041 1093 991 C 1129 941 1155 879 1171 807 C 1186 735 1194 653 1194 563 C 1194 473 1186 392 1171 320 C 1155 248 1129 186 1093 136 C 1056 86 1007 47 945 20 C 883 -6 805 -20 713 -20 C 649 -20 592 -16 544 -8 C 496 0 454 11 418 27 C 382 43 353 64 329 90 C 305 115 285 146 270 182 L 270 -338 L 166 -338 L 166 1589 Z M 700 78 C 775 78 838 88 888 110 C 938 132 978 163 1008 204 C 1038 245 1059 296 1071 356 C 1083 416 1090 484 1090 561 C 1090 637 1084 706 1072 766 C 1060 826 1039 878 1009 920 C 979 962 939 994 889 1016 C 839 1038 776 1049 700 1049 C 624 1049 559 1041 505 1025 C 451 1009 406 983 371 945 C 336 907 310 857 294 795 C 278 733 270 655 270 561 C 270 467 278 390 294 328 C 310 266 336 216 371 179 C 405 142 450 116 504 101 C 558 85 624 78 700 78 Z" unicode="þ" />
<glyph horiz-adv-x="1053" d="M 162 -340 L 162 -252 L 250 -252 C 274 -252 295 -249 313 -245 C 331 -240 347 -232 361 -222 C 375 -211 387 -197 397 -181 C 407 -164 417 -144 426 -121 L 473 2 L 33 1120 L 141 1120 L 528 127 L 915 1120 L 1020 1120 L 526 -133 C 512 -169 496 -200 480 -226 C 464 -252 445 -273 424 -290 C 402 -307 378 -320 351 -328 C 323 -336 292 -340 256 -340 L 162 -340 Z M 268 1430 L 367 1430 L 367 1245 L 268 1245 L 268 1430 Z M 688 1430 L 786 1430 L 786 1245 L 688 1245 L 688 1430 Z" unicode="ÿ" />
<glyph horiz-adv-x="1448" d="M 670 1528 L 774 1528 L 1382 0 L 1274 0 L 1120 385 L 319 385 L 168 0 L 61 0 L 670 1528 Z M 1083 483 L 721 1395 L 356 483 L 1083 483 Z M 373 1698 L 1071 1698 L 1071 1608 L 373 1608 L 373 1698 Z" unicode="Ā" />
<glyph horiz-adv-x="1255" d="M 487 -23 C 411 -23 348 -14 298 2 C 248 18 209 41 180 71 C 151 101 131 136 119 176 C 107 216 102 259 102 307 C 102 387 115 453 142 505 C 169 557 213 599 273 630 C 333 660 411 682 507 694 C 603 706 720 713 858 713 L 932 713 C 931 772 927 823 920 866 C 912 908 897 943 874 971 C 851 998 818 1018 775 1031 C 732 1044 675 1051 604 1051 C 568 1051 533 1048 500 1042 C 467 1036 436 1028 407 1019 C 378 1009 351 998 327 986 C 303 974 282 962 264 950 L 209 1032 C 227 1044 250 1056 278 1070 C 306 1084 337 1096 372 1108 C 406 1119 444 1128 484 1136 C 524 1143 566 1147 610 1147 C 671 1147 724 1143 769 1135 C 814 1127 852 1116 884 1100 C 915 1084 940 1064 960 1040 C 980 1016 995 987 1006 953 C 1016 919 1024 881 1028 837 C 1032 793 1034 745 1034 692 L 1034 242 C 1034 209 1035 183 1037 163 C 1039 143 1044 128 1052 118 C 1060 108 1073 101 1089 98 C 1105 95 1128 94 1157 94 L 1157 2 C 1153 0 1147 -1 1140 -1 C 1133 -1 1125 -2 1116 -2 C 1082 -2 1053 1 1031 9 C 1009 17 991 28 978 44 C 964 60 955 79 950 103 C 944 126 942 154 942 186 C 924 151 902 121 878 95 C 853 69 823 47 787 29 C 751 11 708 -1 659 -10 C 610 -18 553 -23 487 -23 Z M 500 70 C 576 70 642 78 697 96 C 751 114 796 141 831 178 C 865 215 891 262 907 318 C 923 374 932 442 932 520 L 932 616 L 862 616 C 732 616 625 611 541 602 C 457 593 390 577 340 555 C 290 532 255 501 235 462 C 215 423 205 373 205 313 C 205 275 209 240 219 210 C 228 180 244 154 267 134 C 289 113 319 97 357 86 C 395 75 442 70 500 70 Z M 283 1329 L 981 1329 L 981 1239 L 283 1239 L 283 1329 Z" unicode="ā" />
<glyph horiz-adv-x="1448" d="M 670 1528 L 774 1528 L 1382 0 L 1274 0 L 1120 385 L 319 385 L 168 0 L 61 0 L 670 1528 Z M 1083 483 L 721 1395 L 356 483 L 1083 483 Z M 721 1593 C 655 1593 601 1600 558 1616 C 514 1631 479 1651 451 1677 C 423 1702 402 1731 388 1763 C 373 1795 362 1829 354 1864 L 440 1882 C 446 1856 454 1832 465 1808 C 476 1784 492 1762 513 1744 C 534 1725 561 1710 595 1699 C 629 1688 671 1683 721 1683 C 771 1683 812 1688 845 1699 C 878 1710 905 1725 926 1744 C 947 1762 963 1784 975 1808 C 986 1832 995 1856 1001 1882 L 1087 1866 C 1079 1830 1068 1796 1054 1764 C 1039 1731 1018 1702 990 1677 C 962 1651 927 1631 883 1616 C 839 1600 785 1593 721 1593 Z" unicode="Ă" />
<glyph horiz-adv-x="1255" d="M 487 -23 C 411 -23 348 -14 298 2 C 248 18 209 41 180 71 C 151 101 131 136 119 176 C 107 216 102 259 102 307 C 102 387 115 453 142 505 C 169 557 213 599 273 630 C 333 660 411 682 507 694 C 603 706 720 713 858 713 L 932 713 C 931 772 927 823 920 866 C 912 908 897 943 874 971 C 851 998 818 1018 775 1031 C 732 1044 675 1051 604 1051 C 568 1051 533 1048 500 1042 C 467 1036 436 1028 407 1019 C 378 1009 351 998 327 986 C 303 974 282 962 264 950 L 209 1032 C 227 1044 250 1056 278 1070 C 306 1084 337 1096 372 1108 C 406 1119 444 1128 484 1136 C 524 1143 566 1147 610 1147 C 671 1147 724 1143 769 1135 C 814 1127 852 1116 884 1100 C 915 1084 940 1064 960 1040 C 980 1016 995 987 1006 953 C 1016 919 1024 881 1028 837 C 1032 793 1034 745 1034 692 L 1034 242 C 1034 209 1035 183 1037 163 C 1039 143 1044 128 1052 118 C 1060 108 1073 101 1089 98 C 1105 95 1128 94 1157 94 L 1157 2 C 1153 0 1147 -1 1140 -1 C 1133 -1 1125 -2 1116 -2 C 1082 -2 1053 1 1031 9 C 1009 17 991 28 978 44 C 964 60 955 79 950 103 C 944 126 942 154 942 186 C 924 151 902 121 878 95 C 853 69 823 47 787 29 C 751 11 708 -1 659 -10 C 610 -18 553 -23 487 -23 Z M 500 70 C 576 70 642 78 697 96 C 751 114 796 141 831 178 C 865 215 891 262 907 318 C 923 374 932 442 932 520 L 932 616 L 862 616 C 732 616 625 611 541 602 C 457 593 390 577 340 555 C 290 532 255 501 235 462 C 215 423 205 373 205 313 C 205 275 209 240 219 210 C 228 180 244 154 267 134 C 289 113 319 97 357 86 C 395 75 442 70 500 70 Z M 631 1225 C 565 1225 511 1232 468 1248 C 424 1263 389 1283 361 1308 C 333 1333 312 1362 298 1395 C 283 1427 272 1461 264 1495 L 350 1513 C 356 1487 364 1463 375 1439 C 386 1415 402 1393 423 1375 C 444 1357 471 1342 505 1331 C 539 1320 581 1315 631 1315 C 680 1315 721 1320 755 1331 C 788 1342 815 1357 836 1375 C 857 1393 873 1415 885 1439 C 896 1463 905 1487 911 1513 L 997 1497 C 989 1462 978 1428 964 1396 C 949 1363 928 1334 900 1309 C 872 1283 837 1263 793 1248 C 749 1232 695 1225 631 1225 Z" unicode="ă" />
<glyph horiz-adv-x="1448" d="M 670 1528 L 774 1528 L 1382 0 L 1354 0 C 1291 -35 1242 -73 1208 -113 C 1174 -153 1157 -193 1157 -233 C 1157 -247 1158 -260 1162 -274 C 1165 -287 1172 -299 1182 -309 C 1192 -319 1206 -328 1224 -334 C 1242 -340 1266 -344 1296 -344 C 1323 -344 1348 -341 1370 -337 C 1392 -332 1412 -326 1430 -319 L 1462 -397 C 1441 -406 1416 -413 1386 -419 C 1356 -425 1323 -428 1286 -428 C 1240 -428 1202 -423 1173 -413 C 1143 -403 1120 -389 1104 -372 C 1088 -355 1076 -335 1070 -313 C 1064 -291 1061 -267 1061 -242 C 1061 -213 1066 -185 1078 -159 C 1090 -132 1105 -107 1124 -84 C 1143 -61 1165 -40 1189 -21 C 1213 -1 1237 15 1262 29 L 1120 385 L 319 385 L 168 0 L 61 0 L 670 1528 Z M 1083 483 L 721 1395 L 356 483 L 1083 483 Z" unicode="Ą" />
<glyph horiz-adv-x="1255" d="M 487 -23 C 411 -23 348 -14 298 2 C 248 18 209 41 180 71 C 151 101 131 136 119 176 C 107 216 102 259 102 307 C 102 387 115 453 142 505 C 169 557 213 599 273 630 C 333 660 411 682 507 694 C 603 706 720 713 858 713 L 932 713 C 931 772 927 823 920 866 C 912 908 897 943 874 971 C 851 998 818 1018 775 1031 C 732 1044 675 1051 604 1051 C 568 1051 533 1048 500 1042 C 467 1036 436 1028 407 1019 C 378 1009 351 998 327 986 C 303 974 282 962 264 950 L 209 1032 C 227 1044 250 1056 278 1070 C 306 1084 337 1096 372 1108 C 406 1119 444 1128 484 1136 C 524 1143 566 1147 610 1147 C 671 1147 724 1143 769 1135 C 814 1127 852 1116 884 1100 C 915 1084 940 1064 960 1040 C 980 1016 995 987 1006 953 C 1016 919 1024 881 1028 837 C 1032 793 1034 745 1034 692 L 1034 242 C 1034 209 1035 183 1037 163 C 1039 143 1044 128 1052 118 C 1060 108 1073 101 1089 98 C 1105 95 1128 94 1157 94 L 1157 2 C 1155 0 1154 0 1153 0 C 1120 -17 1090 -35 1063 -54 C 1036 -73 1013 -92 994 -112 C 975 -132 960 -152 950 -172 C 939 -192 934 -213 934 -233 C 934 -247 935 -260 939 -274 C 942 -287 949 -299 959 -309 C 969 -319 984 -328 1003 -334 C 1022 -340 1047 -344 1079 -344 C 1109 -344 1136 -341 1161 -335 C 1186 -329 1207 -322 1225 -313 L 1264 -387 C 1243 -399 1215 -409 1181 -417 C 1146 -424 1109 -428 1069 -428 C 1020 -428 980 -423 950 -413 C 920 -403 896 -389 880 -372 C 863 -355 852 -335 846 -313 C 840 -291 838 -267 838 -242 C 838 -214 843 -187 855 -162 C 867 -137 882 -114 901 -93 C 919 -71 940 -52 963 -35 C 986 -18 1009 -4 1032 8 C 998 19 974 39 961 69 C 948 99 942 138 942 186 C 924 151 902 121 878 95 C 853 69 823 47 787 29 C 751 11 708 -1 659 -10 C 610 -18 553 -23 487 -23 Z M 500 70 C 576 70 642 78 697 96 C 751 114 796 141 831 178 C 865 215 891 262 907 318 C 923 374 932 442 932 520 L 932 616 L 862 616 C 732 616 625 611 541 602 C 457 593 390 577 340 555 C 290 532 255 501 235 462 C 215 423 205 373 205 313 C 205 275 209 240 219 210 C 228 180 244 154 267 134 C 289 113 319 97 357 86 C 395 75 442 70 500 70 Z" unicode="ą" />
<glyph horiz-adv-x="1454" d="M 899 1913 L 1030 1913 L 690 1612 L 584 1612 L 899 1913 Z M 834 -23 C 588 -23 403 42 280 174 C 157 305 96 500 96 760 C 96 891 112 1006 145 1104 C 178 1202 226 1283 289 1348 C 352 1413 430 1462 522 1494 C 614 1526 720 1542 838 1542 C 936 1542 1030 1527 1118 1497 C 1206 1467 1284 1422 1350 1362 L 1276 1286 C 1218 1338 1151 1377 1076 1403 C 1000 1429 921 1442 838 1442 C 630 1442 473 1385 366 1271 C 258 1157 205 986 205 760 C 205 305 416 78 838 78 C 897 78 949 82 995 91 C 1041 99 1081 111 1117 126 C 1152 141 1183 158 1211 177 C 1238 196 1263 216 1286 238 L 1360 164 C 1334 140 1306 116 1274 94 C 1242 72 1206 52 1164 34 C 1122 16 1074 2 1020 -7 C 966 -17 904 -23 834 -23 Z" unicode="Ć" />
<glyph horiz-adv-x="1139" d="M 743 1544 L 874 1544 L 535 1243 L 428 1243 L 743 1544 Z M 633 -23 C 531 -23 447 -9 380 17 C 313 44 260 83 220 133 C 180 183 151 245 135 317 C 119 389 111 471 111 563 C 111 654 119 736 136 808 C 152 880 181 942 221 992 C 261 1042 315 1080 382 1107 C 449 1133 533 1147 635 1147 C 685 1147 729 1142 769 1134 C 809 1125 844 1114 876 1100 C 907 1086 934 1069 958 1051 C 982 1033 1003 1014 1022 995 L 948 924 C 934 938 917 952 897 967 C 877 982 855 996 829 1008 C 803 1020 774 1029 742 1037 C 710 1045 674 1049 635 1049 C 555 1049 489 1038 435 1016 C 381 994 338 963 306 921 C 273 879 250 828 236 768 C 222 708 215 639 215 561 C 215 483 221 414 235 354 C 249 294 272 243 304 201 C 336 159 379 128 433 106 C 487 84 554 74 635 74 C 702 74 761 84 812 106 C 862 127 910 157 954 197 L 1024 129 C 997 105 970 84 943 65 C 915 46 886 30 855 17 C 823 4 789 -5 753 -12 C 717 -19 677 -23 633 -23 Z" unicode="ć" />
<glyph horiz-adv-x="1454" d="" unicode="Ĉ" />
<glyph horiz-adv-x="1139" d="" unicode="ĉ" />
<glyph horiz-adv-x="1454" d="" unicode="Ċ" />
<glyph horiz-adv-x="1139" d="" unicode="ċ" />
<glyph horiz-adv-x="1454" d="M 352 1913 L 463 1913 L 727 1677 L 989 1913 L 1098 1913 L 786 1612 L 662 1612 L 352 1913 Z M 834 -23 C 588 -23 403 42 280 174 C 157 305 96 500 96 760 C 96 891 112 1006 145 1104 C 178 1202 226 1283 289 1348 C 352 1413 430 1462 522 1494 C 614 1526 720 1542 838 1542 C 936 1542 1030 1527 1118 1497 C 1206 1467 1284 1422 1350 1362 L 1276 1286 C 1218 1338 1151 1377 1076 1403 C 1000 1429 921 1442 838 1442 C 630 1442 473 1385 366 1271 C 258 1157 205 986 205 760 C 205 305 416 78 838 78 C 897 78 949 82 995 91 C 1041 99 1081 111 1117 126 C 1152 141 1183 158 1211 177 C 1238 196 1263 216 1286 238 L 1360 164 C 1334 140 1306 116 1274 94 C 1242 72 1206 52 1164 34 C 1122 16 1074 2 1020 -7 C 966 -17 904 -23 834 -23 Z" unicode="Č" />
<glyph horiz-adv-x="1139" d="M 197 1544 L 307 1544 L 571 1309 L 834 1544 L 942 1544 L 631 1243 L 506 1243 L 197 1544 Z M 633 -23 C 531 -23 447 -9 380 17 C 313 44 260 83 220 133 C 180 183 151 245 135 317 C 119 389 111 471 111 563 C 111 654 119 736 136 808 C 152 880 181 942 221 992 C 261 1042 315 1080 382 1107 C 449 1133 533 1147 635 1147 C 685 1147 729 1142 769 1134 C 809 1125 844 1114 876 1100 C 907 1086 934 1069 958 1051 C 982 1033 1003 1014 1022 995 L 948 924 C 934 938 917 952 897 967 C 877 982 855 996 829 1008 C 803 1020 774 1029 742 1037 C 710 1045 674 1049 635 1049 C 555 1049 489 1038 435 1016 C 381 994 338 963 306 921 C 273 879 250 828 236 768 C 222 708 215 639 215 561 C 215 483 221 414 235 354 C 249 294 272 243 304 201 C 336 159 379 128 433 106 C 487 84 554 74 635 74 C 702 74 761 84 812 106 C 862 127 910 157 954 197 L 1024 129 C 997 105 970 84 943 65 C 915 46 886 30 855 17 C 823 4 789 -5 753 -12 C 717 -19 677 -23 633 -23 Z" unicode="č" />
<glyph horiz-adv-x="1520" d="M 385 1913 L 496 1913 L 760 1677 L 1022 1913 L 1130 1913 L 819 1612 L 694 1612 L 385 1913 Z M 186 1518 L 668 1518 C 808 1518 926 1505 1023 1481 C 1119 1456 1197 1414 1257 1356 C 1316 1297 1359 1219 1385 1122 C 1411 1025 1425 904 1425 760 C 1425 618 1410 498 1380 402 C 1350 305 1304 227 1241 167 C 1177 107 1096 65 996 39 C 896 13 775 0 635 0 L 186 0 L 186 1518 Z M 639 98 C 763 98 869 109 955 133 C 1041 156 1110 194 1164 246 C 1218 298 1257 366 1281 450 C 1305 534 1317 638 1317 760 C 1317 884 1306 988 1285 1072 C 1264 1156 1229 1223 1179 1274 C 1129 1325 1062 1362 979 1384 C 895 1406 792 1417 668 1417 L 295 1417 L 295 98 L 639 98 Z" unicode="Ď" />
<glyph horiz-adv-x="1481" d="M 1309 1278 C 1327 1288 1342 1298 1354 1308 C 1366 1318 1375 1328 1383 1340 C 1390 1352 1395 1365 1398 1380 C 1401 1395 1403 1413 1403 1434 L 1331 1434 L 1331 1589 L 1470 1589 L 1470 1466 C 1470 1432 1468 1402 1464 1378 C 1460 1354 1453 1332 1443 1314 C 1433 1296 1420 1280 1404 1266 C 1387 1252 1366 1238 1341 1225 L 1309 1278 Z M 590 -20 C 497 -20 420 -6 358 20 C 296 47 247 86 211 136 C 174 186 148 248 133 320 C 118 392 111 474 111 565 C 111 655 118 736 134 808 C 149 880 175 941 212 991 C 249 1041 298 1080 360 1107 C 422 1133 499 1147 592 1147 C 656 1147 712 1143 760 1135 C 808 1127 850 1115 886 1099 C 921 1083 951 1062 975 1037 C 999 1011 1018 981 1034 946 L 1034 1589 L 1139 1589 L 1139 4 L 1057 -2 L 1044 188 C 1026 151 1004 119 978 93 C 952 67 922 45 886 29 C 850 12 807 0 759 -8 C 711 -16 654 -20 590 -20 Z M 604 78 C 680 78 745 86 799 102 C 853 118 897 144 932 182 C 967 219 993 269 1009 331 C 1025 393 1034 471 1034 565 C 1034 658 1026 736 1010 798 C 994 860 968 909 934 947 C 899 984 854 1010 800 1026 C 746 1041 680 1049 604 1049 C 528 1049 465 1038 415 1016 C 365 994 325 963 295 922 C 265 880 245 830 233 770 C 221 710 215 641 215 565 C 215 488 221 419 233 359 C 245 299 265 248 295 206 C 325 164 365 133 415 111 C 465 89 528 78 604 78 Z" unicode="ď" />
<glyph horiz-adv-x="1520" d="M 2 840 L 186 840 L 186 1518 L 668 1518 C 808 1518 926 1505 1023 1481 C 1119 1456 1197 1414 1257 1356 C 1316 1297 1359 1219 1385 1122 C 1411 1025 1425 904 1425 760 C 1425 618 1410 498 1380 402 C 1350 305 1304 227 1240 167 C 1176 107 1095 65 995 39 C 895 13 775 0 635 0 L 186 0 L 186 748 L 2 748 L 2 840 Z M 639 98 C 763 98 869 109 955 133 C 1041 156 1110 194 1164 246 C 1218 298 1257 366 1281 450 C 1305 534 1317 638 1317 760 C 1317 884 1306 988 1285 1072 C 1264 1156 1229 1223 1179 1274 C 1129 1325 1062 1362 979 1384 C 895 1406 792 1417 668 1417 L 295 1417 L 295 840 L 657 840 L 657 748 L 295 748 L 295 98 L 639 98 Z" unicode="Đ" />
<glyph horiz-adv-x="1305" d="M 664 1391 L 1034 1391 L 1034 1589 L 1139 1589 L 1139 1391 L 1305 1391 L 1305 1300 L 1139 1300 L 1139 4 L 1057 -2 L 1044 188 C 1026 151 1004 119 978 93 C 952 67 922 45 886 29 C 850 12 807 0 759 -8 C 711 -16 654 -20 590 -20 C 497 -20 420 -6 358 20 C 296 47 247 86 211 136 C 174 186 148 248 133 320 C 118 392 111 474 111 565 C 111 655 118 736 134 808 C 149 880 175 941 212 991 C 249 1041 298 1080 360 1107 C 422 1133 499 1147 592 1147 C 656 1147 712 1143 760 1135 C 808 1127 850 1115 886 1099 C 921 1083 951 1062 975 1037 C 999 1011 1018 981 1034 946 L 1034 1300 L 664 1300 L 664 1391 Z M 604 78 C 680 78 745 86 799 102 C 853 118 897 144 932 182 C 967 219 993 269 1009 331 C 1025 393 1034 471 1034 565 C 1034 658 1026 736 1010 798 C 994 860 968 909 934 947 C 899 984 854 1010 800 1026 C 746 1041 680 1049 604 1049 C 528 1049 465 1038 415 1016 C 365 994 325 963 295 922 C 265 880 245 830 233 770 C 221 710 215 641 215 565 C 215 488 221 419 233 359 C 245 299 265 248 295 206 C 325 164 365 133 415 111 C 465 89 528 78 604 78 Z" unicode="đ" />
<glyph horiz-adv-x="1278" d="M 186 1518 L 1149 1518 L 1149 1417 L 295 1417 L 295 844 L 1128 844 L 1128 743 L 295 743 L 295 98 L 1157 98 L 1157 0 L 186 0 L 186 1518 Z M 289 1698 L 987 1698 L 987 1608 L 289 1608 L 289 1698 Z" unicode="Ē" />
<glyph horiz-adv-x="1198" d="M 635 -23 C 561 -23 496 -16 442 -2 C 388 11 341 30 302 55 C 263 80 231 110 207 146 C 182 181 162 220 148 264 C 134 308 124 355 119 405 C 113 455 111 507 111 563 C 111 645 118 722 132 793 C 146 864 173 926 211 978 C 249 1030 301 1072 368 1102 C 435 1132 521 1147 627 1147 C 699 1147 761 1139 811 1123 C 861 1107 903 1086 937 1059 C 970 1031 996 999 1015 961 C 1033 923 1047 881 1056 837 C 1065 792 1070 745 1072 695 C 1074 645 1075 594 1075 543 L 211 543 C 211 475 217 412 228 354 C 239 296 260 246 291 204 C 322 162 365 129 420 105 C 475 81 547 70 635 70 C 681 70 722 73 758 79 C 794 85 826 93 854 104 C 882 114 907 127 931 141 C 954 155 977 171 1001 188 L 1059 113 C 1033 93 1005 75 977 59 C 949 43 918 28 884 16 C 850 4 812 -5 771 -12 C 730 -19 685 -23 635 -23 Z M 625 1053 C 546 1053 481 1042 429 1022 C 377 1002 336 973 305 937 C 274 901 252 857 238 806 C 224 755 215 699 213 639 L 975 639 C 973 676 970 712 968 747 C 965 781 960 814 952 845 C 944 875 932 903 918 929 C 903 955 883 977 858 995 C 832 1013 801 1028 763 1038 C 725 1048 679 1053 625 1053 Z M 250 1329 L 948 1329 L 948 1239 L 250 1239 L 250 1329 Z" unicode="ē" />
<glyph horiz-adv-x="1278" d="" unicode="Ĕ" />
<glyph horiz-adv-x="1198" d="" unicode="ĕ" />
<glyph horiz-adv-x="1278" d="M 186 1518 L 1149 1518 L 1149 1417 L 295 1417 L 295 844 L 1128 844 L 1128 743 L 295 743 L 295 98 L 1157 98 L 1157 0 L 186 0 L 186 1518 Z M 586 1806 L 690 1806 L 690 1610 L 586 1610 L 586 1806 Z" unicode="Ė" />
<glyph horiz-adv-x="1198" d="M 635 -23 C 561 -23 496 -16 442 -2 C 388 11 341 30 302 55 C 263 80 231 110 207 146 C 182 181 162 220 148 264 C 134 308 124 355 119 405 C 113 455 111 507 111 563 C 111 645 118 722 132 793 C 146 864 173 926 211 978 C 249 1030 301 1072 368 1102 C 435 1132 521 1147 627 1147 C 699 1147 761 1139 811 1123 C 861 1107 903 1086 937 1059 C 970 1031 996 999 1015 961 C 1033 923 1047 881 1056 837 C 1065 792 1070 745 1072 695 C 1074 645 1075 594 1075 543 L 211 543 C 211 475 217 412 228 354 C 239 296 260 246 291 204 C 322 162 365 129 420 105 C 475 81 547 70 635 70 C 681 70 722 73 758 79 C 794 85 826 93 854 104 C 882 114 907 127 931 141 C 954 155 977 171 1001 188 L 1059 113 C 1033 93 1005 75 977 59 C 949 43 918 28 884 16 C 850 4 812 -5 771 -12 C 730 -19 685 -23 635 -23 Z M 625 1053 C 546 1053 481 1042 429 1022 C 377 1002 336 973 305 937 C 274 901 252 857 238 806 C 224 755 215 699 213 639 L 975 639 C 973 676 970 712 968 747 C 965 781 960 814 952 845 C 944 875 932 903 918 929 C 903 955 883 977 858 995 C 832 1013 801 1028 763 1038 C 725 1048 679 1053 625 1053 Z M 547 1438 L 651 1438 L 651 1241 L 547 1241 L 547 1438 Z" unicode="ė" />
<glyph horiz-adv-x="1278" d="M 186 1518 L 1149 1518 L 1149 1417 L 295 1417 L 295 844 L 1128 844 L 1128 743 L 295 743 L 295 98 L 1157 98 L 1157 0 L 991 0 C 963 -17 937 -35 915 -55 C 892 -75 873 -95 857 -115 C 841 -135 828 -156 820 -177 C 811 -197 807 -217 807 -236 C 807 -250 808 -263 812 -276 C 815 -289 822 -301 832 -311 C 842 -321 857 -329 876 -335 C 895 -341 920 -344 952 -344 C 988 -344 1021 -339 1052 -330 C 1083 -321 1108 -311 1126 -301 L 1165 -375 C 1139 -389 1107 -401 1068 -412 C 1029 -422 987 -428 942 -428 C 893 -428 854 -423 824 -413 C 794 -403 770 -389 754 -372 C 737 -355 726 -336 720 -314 C 714 -292 711 -268 711 -244 C 711 -218 715 -193 725 -169 C 735 -145 747 -123 763 -102 C 778 -81 795 -62 814 -45 C 833 -27 852 -12 870 0 L 186 0 L 186 1518 Z" unicode="Ę" />
<glyph horiz-adv-x="1198" d="M 635 -23 C 561 -23 496 -16 442 -2 C 388 11 341 30 302 55 C 263 80 231 110 207 146 C 182 181 162 220 148 264 C 134 308 124 355 119 405 C 113 455 111 507 111 563 C 111 645 118 722 132 793 C 146 864 173 926 211 978 C 249 1030 301 1072 368 1102 C 435 1132 521 1147 627 1147 C 699 1147 761 1139 811 1123 C 861 1107 903 1086 937 1059 C 970 1031 996 999 1015 961 C 1033 923 1047 881 1056 837 C 1065 792 1070 745 1072 695 C 1074 645 1075 594 1075 543 L 211 543 C 211 475 217 412 228 354 C 239 296 260 246 291 204 C 322 162 365 129 420 105 C 475 81 547 70 635 70 C 681 70 722 73 758 79 C 794 85 826 93 854 104 C 882 114 907 127 931 141 C 954 155 977 171 1001 188 L 1059 113 C 1031 92 1001 73 971 55 C 940 37 906 22 868 10 C 837 -7 809 -26 784 -46 C 759 -66 738 -87 721 -109 C 703 -130 690 -151 680 -173 C 670 -195 666 -216 666 -236 C 666 -250 667 -263 671 -276 C 674 -289 681 -301 691 -311 C 701 -321 716 -329 735 -335 C 754 -341 779 -344 811 -344 C 847 -344 880 -339 911 -330 C 941 -321 966 -311 985 -301 L 1024 -375 C 998 -389 966 -401 927 -412 C 888 -422 846 -428 801 -428 C 752 -428 712 -423 682 -413 C 652 -403 628 -389 612 -372 C 595 -355 584 -336 578 -314 C 572 -292 569 -268 569 -244 C 569 -221 572 -199 580 -178 C 588 -156 598 -136 611 -117 C 623 -98 638 -80 654 -63 C 670 -46 686 -31 702 -18 C 692 -19 681 -20 669 -21 C 657 -22 646 -23 635 -23 Z M 625 1053 C 546 1053 481 1042 429 1022 C 377 1002 336 973 305 937 C 274 901 252 857 238 806 C 224 755 215 699 213 639 L 975 639 C 973 676 970 712 968 747 C 965 781 960 814 952 845 C 944 875 932 903 918 929 C 903 955 883 977 858 995 C 832 1013 801 1028 763 1038 C 725 1048 679 1053 625 1053 Z" unicode="ę" />
<glyph horiz-adv-x="1278" d="M 264 1913 L 375 1913 L 639 1677 L 901 1913 L 1010 1913 L 698 1612 L 573 1612 L 264 1913 Z M 186 1518 L 1149 1518 L 1149 1417 L 295 1417 L 295 844 L 1128 844 L 1128 743 L 295 743 L 295 98 L 1157 98 L 1157 0 L 186 0 L 186 1518 Z" unicode="Ě" />
<glyph horiz-adv-x="1198" d="M 225 1544 L 336 1544 L 600 1309 L 862 1544 L 971 1544 L 659 1243 L 535 1243 L 225 1544 Z M 635 -23 C 561 -23 496 -16 442 -2 C 388 11 341 30 302 55 C 263 80 231 110 207 146 C 182 181 162 220 148 264 C 134 308 124 355 119 405 C 113 455 111 507 111 563 C 111 645 118 722 132 793 C 146 864 173 926 211 978 C 249 1030 301 1072 368 1102 C 435 1132 521 1147 627 1147 C 699 1147 761 1139 811 1123 C 861 1107 903 1086 937 1059 C 970 1031 996 999 1015 961 C 1033 923 1047 881 1056 837 C 1065 792 1070 745 1072 695 C 1074 645 1075 594 1075 543 L 211 543 C 211 475 217 412 228 354 C 239 296 260 246 291 204 C 322 162 365 129 420 105 C 475 81 547 70 635 70 C 681 70 722 73 758 79 C 794 85 826 93 854 104 C 882 114 907 127 931 141 C 954 155 977 171 1001 188 L 1059 113 C 1033 93 1005 75 977 59 C 949 43 918 28 884 16 C 850 4 812 -5 771 -12 C 730 -19 685 -23 635 -23 Z M 625 1053 C 546 1053 481 1042 429 1022 C 377 1002 336 973 305 937 C 274 901 252 857 238 806 C 224 755 215 699 213 639 L 975 639 C 973 676 970 712 968 747 C 965 781 960 814 952 845 C 944 875 932 903 918 929 C 903 955 883 977 858 995 C 832 1013 801 1028 763 1038 C 725 1048 679 1053 625 1053 Z" unicode="ě" />
<glyph horiz-adv-x="1579" d="" unicode="Ĝ" />
<glyph horiz-adv-x="1188" d="" unicode="ĝ" />
<glyph horiz-adv-x="1579" d="M 834 -23 C 704 -23 592 -6 499 25 C 406 57 330 106 270 172 C 210 237 166 318 138 416 C 110 514 96 628 96 760 C 96 896 112 1014 145 1113 C 177 1211 225 1292 288 1356 C 351 1419 429 1466 521 1496 C 613 1526 718 1542 838 1542 C 908 1542 972 1536 1028 1525 C 1084 1514 1133 1500 1176 1483 C 1219 1466 1256 1447 1288 1426 C 1320 1405 1347 1384 1370 1364 L 1296 1286 C 1270 1308 1242 1328 1212 1347 C 1181 1366 1147 1383 1110 1397 C 1072 1411 1031 1422 986 1430 C 941 1438 892 1442 838 1442 C 734 1442 643 1428 564 1401 C 484 1374 418 1333 365 1277 C 311 1221 271 1150 244 1064 C 216 978 203 877 203 760 C 203 644 215 543 239 457 C 263 371 300 299 352 243 C 403 186 468 144 548 116 C 628 88 724 74 836 74 C 946 74 1036 86 1106 111 C 1175 135 1229 172 1268 221 C 1307 269 1334 330 1348 402 C 1362 474 1370 557 1370 651 L 1370 707 L 829 707 L 829 807 L 1477 807 L 1477 666 C 1477 598 1474 534 1468 474 C 1462 414 1450 358 1434 307 C 1417 256 1394 210 1364 170 C 1334 129 1296 94 1248 66 C 1200 37 1143 15 1075 0 C 1007 -15 926 -23 834 -23 Z M 788 1593 C 722 1593 668 1600 625 1616 C 581 1631 546 1651 519 1677 C 491 1702 470 1731 456 1763 C 441 1795 430 1829 422 1864 L 508 1882 C 513 1856 521 1832 533 1808 C 544 1784 560 1762 581 1744 C 602 1725 629 1710 663 1699 C 696 1688 738 1683 788 1683 C 838 1683 879 1688 912 1699 C 945 1710 972 1725 993 1744 C 1014 1762 1030 1784 1042 1808 C 1054 1832 1063 1856 1069 1882 L 1155 1866 C 1147 1830 1135 1796 1121 1764 C 1106 1731 1085 1702 1057 1677 C 1029 1651 994 1631 951 1616 C 907 1600 853 1593 788 1593 Z" unicode="Ğ" />
<glyph horiz-adv-x="1188" d="M 575 410 C 494 410 425 418 369 434 C 355 420 344 404 336 386 C 328 368 324 351 324 334 C 324 314 327 298 335 286 C 343 274 356 264 376 257 C 395 250 421 245 453 243 C 485 241 525 240 575 240 C 671 240 753 236 820 228 C 887 220 941 206 983 185 C 1025 164 1055 135 1074 99 C 1092 63 1102 16 1102 -41 C 1102 -95 1093 -142 1076 -183 C 1058 -223 1029 -257 988 -285 C 946 -312 891 -332 823 -346 C 755 -360 669 -367 567 -367 C 482 -367 408 -362 346 -354 C 284 -346 232 -331 191 -310 C 150 -288 120 -260 100 -224 C 80 -188 70 -142 70 -86 C 70 -53 73 -22 81 8 C 89 38 102 65 120 90 C 138 115 162 137 192 155 C 222 173 259 186 305 195 C 278 204 258 220 245 243 C 231 265 225 292 225 324 C 225 352 230 378 241 403 C 251 427 265 449 283 469 C 232 497 195 537 171 587 C 147 637 135 700 135 774 C 135 900 170 993 240 1055 C 310 1116 422 1147 575 1147 C 596 1147 617 1146 637 1145 C 657 1144 677 1142 696 1139 L 1055 1167 L 1055 1079 L 858 1079 C 911 1050 951 1011 978 963 C 1004 915 1018 852 1018 774 C 1018 648 982 556 910 498 C 838 439 727 410 575 410 Z M 575 502 C 635 502 686 507 729 518 C 771 528 806 545 834 567 C 861 589 881 618 894 652 C 906 686 913 726 913 774 C 913 869 883 939 825 984 C 766 1028 683 1051 575 1051 C 515 1051 463 1045 421 1034 C 379 1023 344 1006 317 984 C 289 961 269 932 257 898 C 244 863 238 822 238 774 C 238 726 244 686 257 652 C 269 618 289 589 317 567 C 344 545 379 528 421 518 C 463 507 515 502 575 502 Z M 569 -279 C 656 -279 727 -274 783 -264 C 838 -254 881 -239 913 -219 C 945 -199 967 -174 979 -145 C 991 -116 997 -83 997 -45 C 997 -4 989 28 974 53 C 959 78 935 98 901 112 C 867 126 823 135 769 140 C 714 144 647 147 569 147 C 482 147 413 140 361 128 C 309 116 269 99 241 79 C 213 59 195 35 187 9 C 178 -17 174 -45 174 -74 C 174 -114 182 -148 199 -174 C 215 -200 240 -221 273 -237 C 306 -253 347 -264 397 -270 C 446 -276 503 -279 569 -279 Z M 592 1225 C 526 1225 472 1232 429 1248 C 385 1263 350 1283 322 1308 C 294 1333 273 1362 259 1395 C 244 1427 233 1461 225 1495 L 311 1513 C 317 1487 325 1463 336 1439 C 347 1415 363 1393 384 1375 C 405 1357 432 1342 466 1331 C 500 1320 542 1315 592 1315 C 642 1315 683 1320 716 1331 C 749 1342 776 1357 797 1375 C 818 1393 834 1415 846 1439 C 857 1463 866 1487 872 1513 L 958 1497 C 950 1462 939 1428 925 1396 C 910 1363 889 1334 861 1309 C 833 1283 798 1263 754 1248 C 710 1232 656 1225 592 1225 Z" unicode="ğ" />
<glyph horiz-adv-x="1579" d="" unicode="Ġ" />
<glyph horiz-adv-x="1188" d="" unicode="ġ" />
<glyph horiz-adv-x="1579" d="M 698 -393 C 716 -383 731 -373 743 -363 C 755 -353 764 -342 772 -330 C 780 -318 785 -305 788 -290 C 791 -275 793 -258 793 -238 L 717 -238 L 717 -82 L 862 -82 L 862 -207 C 862 -240 859 -269 855 -293 C 851 -317 844 -338 834 -356 C 824 -374 810 -391 793 -405 C 776 -419 755 -432 731 -446 L 698 -393 Z M 834 -23 C 704 -23 592 -6 499 25 C 406 57 330 106 270 172 C 210 237 166 318 138 416 C 110 514 96 628 96 760 C 96 896 112 1014 145 1113 C 177 1211 225 1292 288 1356 C 351 1419 429 1466 521 1496 C 613 1526 718 1542 838 1542 C 908 1542 972 1536 1028 1525 C 1084 1514 1133 1500 1176 1483 C 1219 1466 1256 1447 1288 1426 C 1320 1405 1347 1384 1370 1364 L 1296 1286 C 1270 1308 1242 1328 1212 1347 C 1181 1366 1147 1383 1110 1397 C 1072 1411 1031 1422 986 1430 C 941 1438 892 1442 838 1442 C 734 1442 643 1428 564 1401 C 484 1374 418 1333 365 1277 C 311 1221 271 1150 244 1064 C 216 978 203 877 203 760 C 203 644 215 543 239 457 C 263 371 300 299 352 243 C 403 186 468 144 548 116 C 628 88 724 74 836 74 C 946 74 1036 86 1106 111 C 1175 135 1229 172 1268 221 C 1307 269 1334 330 1348 402 C 1362 474 1370 557 1370 651 L 1370 707 L 829 707 L 829 807 L 1477 807 L 1477 666 C 1477 598 1474 534 1468 474 C 1462 414 1450 358 1434 307 C 1417 256 1394 210 1364 170 C 1334 129 1296 94 1248 66 C 1200 37 1143 15 1075 0 C 1007 -15 926 -23 834 -23 Z" unicode="Ģ" />
<glyph horiz-adv-x="1188" d="M 520 1360 C 520 1393 522 1422 526 1446 C 530 1470 538 1492 548 1510 C 558 1528 571 1545 588 1560 C 604 1574 625 1588 651 1602 L 684 1548 C 666 1538 651 1528 639 1518 C 627 1508 617 1497 610 1485 C 602 1473 597 1460 594 1446 C 591 1431 590 1413 590 1393 L 666 1393 L 666 1241 L 520 1241 L 520 1360 Z M 575 410 C 494 410 425 418 369 434 C 355 420 344 404 336 386 C 328 368 324 351 324 334 C 324 314 327 298 335 286 C 343 274 356 264 376 257 C 395 250 421 245 453 243 C 485 241 525 240 575 240 C 671 240 753 236 820 228 C 887 220 941 206 983 185 C 1025 164 1055 135 1074 99 C 1092 63 1102 16 1102 -41 C 1102 -95 1093 -142 1076 -183 C 1058 -223 1029 -257 988 -285 C 946 -312 891 -332 823 -346 C 755 -360 669 -367 567 -367 C 482 -367 408 -362 346 -354 C 284 -346 232 -331 191 -310 C 150 -288 120 -260 100 -224 C 80 -188 70 -142 70 -86 C 70 -53 73 -22 81 8 C 89 38 102 65 120 90 C 138 115 162 137 192 155 C 222 173 259 186 305 195 C 278 204 258 220 245 243 C 231 265 225 292 225 324 C 225 352 230 378 241 403 C 251 427 265 449 283 469 C 232 497 195 537 171 587 C 147 637 135 700 135 774 C 135 900 170 993 240 1055 C 310 1116 422 1147 575 1147 C 596 1147 617 1146 637 1145 C 657 1144 677 1142 696 1139 L 1055 1167 L 1055 1079 L 858 1079 C 911 1050 951 1011 978 963 C 1004 915 1018 852 1018 774 C 1018 648 982 556 910 498 C 838 439 727 410 575 410 Z M 575 502 C 635 502 686 507 729 518 C 771 528 806 545 834 567 C 861 589 881 618 894 652 C 906 686 913 726 913 774 C 913 869 883 939 825 984 C 766 1028 683 1051 575 1051 C 515 1051 463 1045 421 1034 C 379 1023 344 1006 317 984 C 289 961 269 932 257 898 C 244 863 238 822 238 774 C 238 726 244 686 257 652 C 269 618 289 589 317 567 C 344 545 379 528 421 518 C 463 507 515 502 575 502 Z M 569 -279 C 656 -279 727 -274 783 -264 C 838 -254 881 -239 913 -219 C 945 -199 967 -174 979 -145 C 991 -116 997 -83 997 -45 C 997 -4 989 28 974 53 C 959 78 935 98 901 112 C 867 126 823 135 769 140 C 714 144 647 147 569 147 C 482 147 413 140 361 128 C 309 116 269 99 241 79 C 213 59 195 35 187 9 C 178 -17 174 -45 174 -74 C 174 -114 182 -148 199 -174 C 215 -200 240 -221 273 -237 C 306 -253 347 -264 397 -270 C 446 -276 503 -279 569 -279 Z" unicode="ģ" />
<glyph horiz-adv-x="1567" d="" unicode="Ĥ" />
<glyph horiz-adv-x="1241" d="" unicode="ĥ" />
<glyph horiz-adv-x="1567" d="" unicode="Ħ" />
<glyph horiz-adv-x="1241" d="" unicode="ħ" />
<glyph horiz-adv-x="506" d="" unicode="Ĩ" />
<glyph horiz-adv-x="453" d="" unicode="ĩ" />
<glyph horiz-adv-x="506" d="M 201 1518 L 305 1518 L 305 0 L 201 0 L 201 1518 Z M -94 1698 L 604 1698 L 604 1608 L -94 1608 L -94 1698 Z" unicode="Ī" />
<glyph horiz-adv-x="453" d="M 174 1120 L 279 1120 L 279 0 L 174 0 L 174 1120 Z M -121 1329 L 578 1329 L 578 1239 L -121 1239 L -121 1329 Z" unicode="ī" />
<glyph horiz-adv-x="506" d="" unicode="Ĭ" />
<glyph horiz-adv-x="453" d="" unicode="ĭ" />
<glyph horiz-adv-x="506" d="M 244 -428 C 197 -428 159 -423 130 -413 C 100 -403 77 -389 61 -372 C 44 -355 33 -335 27 -313 C 21 -291 18 -267 18 -242 C 18 -214 23 -187 34 -161 C 44 -135 58 -110 76 -88 C 93 -66 112 -45 134 -27 C 156 -9 178 6 201 20 L 201 1518 L 305 1518 L 305 0 C 244 -36 197 -73 164 -113 C 131 -152 115 -192 115 -233 C 115 -247 116 -260 119 -274 C 122 -287 129 -299 139 -309 C 149 -319 163 -328 181 -334 C 199 -340 224 -344 254 -344 C 288 -344 318 -340 345 -332 C 372 -324 395 -316 414 -307 L 453 -381 C 430 -393 401 -404 365 -414 C 329 -423 289 -428 244 -428 Z" unicode="Į" />
<glyph horiz-adv-x="453" d="M 215 -428 C 169 -428 131 -423 102 -413 C 72 -403 49 -389 33 -372 C 17 -355 5 -335 0 -313 C -6 -291 -10 -267 -10 -242 C -10 -214 -4 -187 6 -161 C 16 -135 30 -110 47 -88 C 64 -65 84 -44 106 -26 C 128 -7 150 9 174 23 L 174 1120 L 279 1120 L 279 0 C 217 -38 169 -76 136 -114 C 102 -152 86 -192 86 -233 C 86 -247 87 -260 91 -274 C 94 -287 101 -299 111 -309 C 121 -319 135 -328 153 -334 C 171 -340 195 -344 225 -344 C 260 -344 291 -340 318 -332 C 345 -324 368 -316 387 -307 L 424 -381 C 402 -393 374 -404 338 -414 C 302 -423 261 -428 215 -428 Z M 174 1483 L 279 1483 L 279 1284 L 174 1284 L 174 1483 Z" unicode="į" />
<glyph horiz-adv-x="506" d="M 201 1518 L 305 1518 L 305 0 L 201 0 L 201 1518 Z M 203 1806 L 307 1806 L 307 1610 L 203 1610 L 203 1806 Z" unicode="İ" />
<glyph horiz-adv-x="453" d="M 174 1120 L 279 1120 L 279 0 L 174 0 L 174 1120 Z" unicode="ı" />
<glyph horiz-adv-x="1288" d="" unicode="Ĳ" />
<glyph horiz-adv-x="905" d="" unicode="ĳ" />
<glyph horiz-adv-x="784" d="" unicode="Ĵ" />
<glyph horiz-adv-x="453" d="" unicode="ĵ" />
<glyph horiz-adv-x="1407" d="M 612 -393 C 630 -383 645 -373 657 -363 C 669 -353 678 -342 686 -330 C 694 -318 699 -305 702 -290 C 705 -275 707 -258 707 -238 L 631 -238 L 631 -82 L 776 -82 L 776 -207 C 776 -240 773 -269 769 -293 C 765 -317 758 -338 748 -356 C 738 -374 724 -391 707 -405 C 690 -419 669 -432 645 -446 L 612 -393 Z M 623 850 L 293 498 L 293 0 L 186 0 L 186 1518 L 293 1518 L 293 633 L 1120 1518 L 1247 1518 L 692 924 L 1321 0 L 1200 0 L 623 850 Z" unicode="Ķ" />
<glyph horiz-adv-x="1071" d="M 442 -393 C 460 -383 475 -373 487 -363 C 499 -353 508 -342 516 -330 C 524 -318 529 -305 532 -290 C 535 -275 537 -258 537 -238 L 461 -238 L 461 -82 L 606 -82 L 606 -207 C 606 -240 603 -269 599 -293 C 595 -317 588 -338 578 -356 C 568 -374 554 -391 537 -405 C 520 -419 499 -432 475 -446 L 442 -393 Z M 166 1589 L 268 1589 L 268 455 L 860 1120 L 977 1120 L 559 647 L 1022 0 L 907 0 L 494 573 L 268 324 L 268 0 L 166 0 L 166 1589 Z" unicode="ķ" />
<glyph horiz-adv-x="1071" d="" unicode="ĸ" />
<glyph horiz-adv-x="1184" d="M 512 1913 L 643 1913 L 303 1612 L 197 1612 L 512 1913 Z M 186 1518 L 295 1518 L 295 98 L 1120 98 L 1120 0 L 186 0 L 186 1518 Z" unicode="Ĺ" />
<glyph horiz-adv-x="567" d="M 485 1958 L 616 1958 L 276 1657 L 170 1657 L 485 1958 Z M 385 -2 C 341 -2 305 3 278 13 C 250 23 229 39 213 59 C 197 79 187 105 182 136 C 176 166 174 202 174 244 L 174 1589 L 279 1589 L 279 252 C 279 222 280 198 283 178 C 285 158 291 141 300 129 C 309 116 323 107 341 102 C 359 96 383 94 414 94 L 465 94 L 465 2 C 459 0 448 0 434 -1 C 420 -1 403 -2 385 -2 Z" unicode="ĺ" />
<glyph horiz-adv-x="1184" d="M 500 -393 C 518 -383 533 -373 545 -363 C 557 -353 566 -342 574 -330 C 581 -318 586 -305 589 -290 C 592 -275 594 -258 594 -238 L 518 -238 L 518 -82 L 664 -82 L 664 -207 C 664 -240 661 -269 657 -293 C 653 -317 646 -338 636 -356 C 626 -374 612 -391 595 -405 C 578 -419 557 -432 532 -446 L 500 -393 Z M 186 1518 L 295 1518 L 295 98 L 1120 98 L 1120 0 L 186 0 L 186 1518 Z" unicode="Ļ" />
<glyph horiz-adv-x="567" d="M 193 -393 C 211 -383 226 -373 238 -363 C 250 -353 259 -342 267 -330 C 274 -318 279 -305 282 -290 C 285 -275 287 -258 287 -238 L 211 -238 L 211 -82 L 356 -82 L 356 -207 C 356 -240 353 -269 349 -293 C 345 -317 338 -338 328 -356 C 318 -374 304 -391 288 -405 C 271 -419 250 -432 225 -446 L 193 -393 Z M 385 -2 C 341 -2 305 3 278 13 C 250 23 229 39 213 59 C 197 79 187 105 182 136 C 176 166 174 202 174 244 L 174 1589 L 279 1589 L 279 252 C 279 222 280 198 283 178 C 285 158 291 141 300 129 C 309 116 323 107 341 102 C 359 96 383 94 414 94 L 465 94 L 465 2 C 459 0 448 0 434 -1 C 420 -1 403 -2 385 -2 Z" unicode="ļ" />
<glyph horiz-adv-x="1184" d="M 522 1278 C 539 1288 554 1298 566 1308 C 578 1318 587 1328 594 1340 C 601 1352 606 1365 609 1380 C 612 1395 614 1413 614 1434 L 543 1434 L 543 1589 L 684 1589 L 684 1466 C 684 1432 682 1402 678 1378 C 674 1354 667 1332 657 1314 C 647 1296 633 1280 617 1266 C 600 1252 579 1238 555 1225 L 522 1278 Z M 186 1518 L 295 1518 L 295 98 L 1120 98 L 1120 0 L 186 0 L 186 1518 Z" unicode="Ľ" />
<glyph horiz-adv-x="633" d="M 461 1278 C 479 1288 494 1298 506 1308 C 518 1318 527 1328 535 1340 C 542 1352 547 1365 550 1380 C 553 1395 555 1413 555 1434 L 481 1434 L 481 1589 L 623 1589 L 623 1466 C 623 1432 621 1402 617 1378 C 613 1354 606 1332 596 1314 C 586 1296 572 1280 556 1266 C 539 1252 518 1238 494 1225 L 461 1278 Z M 385 -2 C 341 -2 305 3 278 13 C 250 23 229 39 213 59 C 197 79 187 105 182 136 C 176 166 174 202 174 244 L 174 1589 L 279 1589 L 279 252 C 279 222 280 198 283 178 C 285 158 291 141 300 129 C 309 116 323 107 341 102 C 359 96 383 94 414 94 L 465 94 L 465 2 C 459 0 448 0 434 -1 C 420 -1 403 -2 385 -2 Z" unicode="ľ" />
<glyph horiz-adv-x="1217" d="" unicode="Ŀ" />
<glyph horiz-adv-x="932" d="" unicode="ŀ" />
<glyph horiz-adv-x="1184" d="M 2 754 L 186 856 L 186 1518 L 295 1518 L 295 918 L 657 1120 L 657 1026 L 295 823 L 295 98 L 1120 98 L 1120 0 L 186 0 L 186 762 L 2 659 L 2 754 Z" unicode="Ł" />
<glyph horiz-adv-x="692" d="M 43 932 L 258 1057 L 258 1589 L 362 1589 L 362 1116 L 604 1257 L 604 1165 L 362 1026 L 362 250 C 362 220 363 196 366 176 C 368 156 374 139 383 127 C 392 114 406 105 424 100 C 442 94 466 92 496 92 L 549 92 L 549 2 C 541 0 531 0 517 -1 C 503 -1 486 -2 467 -2 C 423 -2 387 3 360 13 C 332 23 311 39 296 59 C 281 79 271 105 266 136 C 260 166 258 202 258 244 L 258 965 L 43 842 L 43 932 Z" unicode="ł" />
<glyph horiz-adv-x="1569" d="M 956 1913 L 1087 1913 L 748 1612 L 641 1612 L 956 1913 Z M 186 1518 L 307 1518 L 1280 172 L 1280 1518 L 1382 1518 L 1382 0 L 1284 0 L 289 1374 L 289 0 L 186 0 L 186 1518 Z" unicode="Ń" />
<glyph horiz-adv-x="1241" d="M 793 1544 L 924 1544 L 584 1243 L 477 1243 L 793 1544 Z M 166 1116 L 248 1120 L 260 963 C 271 987 287 1011 307 1033 C 327 1055 353 1074 386 1091 C 418 1108 458 1122 506 1132 C 554 1142 611 1147 678 1147 C 740 1147 793 1142 837 1132 C 881 1122 918 1107 948 1089 C 978 1070 1001 1047 1019 1020 C 1037 993 1050 962 1060 928 C 1070 894 1076 856 1079 816 C 1081 775 1083 732 1083 686 L 1083 0 L 979 0 L 979 674 C 979 729 976 779 971 825 C 966 871 953 910 932 943 C 910 976 878 1002 835 1020 C 791 1038 731 1047 655 1047 C 574 1047 508 1036 458 1016 C 408 995 369 966 341 930 C 313 894 294 851 284 801 C 274 751 270 697 270 639 L 270 0 L 166 0 L 166 1116 Z" unicode="ń" />
<glyph horiz-adv-x="1569" d="M 692 -393 C 710 -383 725 -373 737 -363 C 749 -353 758 -342 766 -330 C 773 -318 778 -305 781 -290 C 784 -275 786 -258 786 -238 L 711 -238 L 711 -82 L 856 -82 L 856 -207 C 856 -240 853 -269 849 -293 C 845 -317 838 -338 828 -356 C 818 -374 804 -391 787 -405 C 770 -419 749 -432 725 -446 L 692 -393 Z M 186 1518 L 307 1518 L 1280 172 L 1280 1518 L 1382 1518 L 1382 0 L 1284 0 L 289 1374 L 289 0 L 186 0 L 186 1518 Z" unicode="Ņ" />
<glyph horiz-adv-x="1241" d="M 528 -393 C 546 -383 561 -373 573 -363 C 585 -353 594 -342 602 -330 C 610 -318 615 -305 618 -290 C 621 -275 623 -258 623 -238 L 547 -238 L 547 -82 L 692 -82 L 692 -207 C 692 -240 689 -269 685 -293 C 681 -317 674 -338 664 -356 C 654 -374 640 -391 624 -405 C 607 -419 586 -432 561 -446 L 528 -393 Z M 166 1116 L 248 1120 L 260 963 C 271 987 287 1011 307 1033 C 327 1055 353 1074 386 1091 C 418 1108 458 1122 506 1132 C 554 1142 611 1147 678 1147 C 740 1147 793 1142 837 1132 C 881 1122 918 1107 948 1089 C 978 1070 1001 1047 1019 1020 C 1037 993 1050 962 1060 928 C 1070 894 1076 856 1079 816 C 1081 775 1083 732 1083 686 L 1083 0 L 979 0 L 979 674 C 979 729 976 779 971 825 C 966 871 953 910 932 943 C 910 976 878 1002 835 1020 C 791 1038 731 1047 655 1047 C 574 1047 508 1036 458 1016 C 408 995 369 966 341 930 C 313 894 294 851 284 801 C 274 751 270 697 270 639 L 270 0 L 166 0 L 166 1116 Z" unicode="ņ" />
<glyph horiz-adv-x="1569" d="M 410 1913 L 520 1913 L 784 1677 L 1047 1913 L 1155 1913 L 844 1612 L 719 1612 L 410 1913 Z M 186 1518 L 307 1518 L 1280 172 L 1280 1518 L 1382 1518 L 1382 0 L 1284 0 L 289 1374 L 289 0 L 186 0 L 186 1518 Z" unicode="Ň" />
<glyph horiz-adv-x="1241" d="M 246 1544 L 356 1544 L 621 1309 L 883 1544 L 991 1544 L 680 1243 L 555 1243 L 246 1544 Z M 166 1116 L 248 1120 L 260 963 C 271 987 287 1011 307 1033 C 327 1055 353 1074 386 1091 C 418 1108 458 1122 506 1132 C 554 1142 611 1147 678 1147 C 740 1147 793 1142 837 1132 C 881 1122 918 1107 948 1089 C 978 1070 1001 1047 1019 1020 C 1037 993 1050 962 1060 928 C 1070 894 1076 856 1079 816 C 1081 775 1083 732 1083 686 L 1083 0 L 979 0 L 979 674 C 979 729 976 779 971 825 C 966 871 953 910 932 943 C 910 976 878 1002 835 1020 C 791 1038 731 1047 655 1047 C 574 1047 508 1036 458 1016 C 408 995 369 966 341 930 C 313 894 294 851 284 801 C 274 751 270 697 270 639 L 270 0 L 166 0 L 166 1116 Z" unicode="ň" />
<glyph horiz-adv-x="1679" d="" unicode="ŉ" />
<glyph horiz-adv-x="1569" d="" unicode="Ŋ" />
<glyph horiz-adv-x="1241" d="" unicode="ŋ" />
<glyph horiz-adv-x="1696" d="M 498 1698 L 1196 1698 L 1196 1608 L 498 1608 L 498 1698 Z M 846 -25 C 724 -25 617 -9 524 22 C 430 54 352 102 289 167 C 225 232 177 314 145 412 C 112 510 96 626 96 760 C 96 892 112 1008 145 1106 C 177 1204 225 1286 289 1350 C 352 1414 430 1462 524 1494 C 617 1526 724 1542 846 1542 C 968 1542 1076 1526 1170 1494 C 1264 1462 1342 1414 1406 1350 C 1469 1286 1517 1204 1550 1106 C 1582 1008 1599 892 1599 760 C 1599 626 1582 510 1550 412 C 1517 314 1469 232 1406 167 C 1342 102 1264 54 1170 22 C 1076 -9 968 -25 846 -25 Z M 846 76 C 1062 76 1224 133 1332 249 C 1439 364 1493 534 1493 760 C 1493 984 1439 1153 1332 1269 C 1224 1384 1062 1442 846 1442 C 630 1442 470 1384 364 1269 C 258 1153 205 984 205 760 C 205 534 258 364 364 249 C 470 133 630 76 846 76 Z" unicode="Ō" />
<glyph horiz-adv-x="1274" d="M 287 1329 L 985 1329 L 985 1239 L 287 1239 L 287 1329 Z M 635 -23 C 541 -23 460 -10 394 14 C 328 38 274 75 232 124 C 190 173 159 234 140 307 C 120 380 111 465 111 563 C 111 659 120 744 140 817 C 159 890 190 951 232 1000 C 274 1048 328 1085 394 1110 C 460 1134 541 1147 635 1147 C 729 1147 809 1134 876 1110 C 943 1085 998 1048 1040 1000 C 1082 951 1113 890 1133 817 C 1153 744 1163 659 1163 563 C 1163 465 1153 380 1133 307 C 1113 234 1082 173 1040 124 C 998 75 943 38 876 14 C 809 -10 729 -23 635 -23 Z M 635 74 C 711 74 775 84 829 105 C 883 125 927 156 961 197 C 995 237 1019 288 1035 349 C 1051 410 1059 481 1059 561 C 1059 641 1051 712 1035 773 C 1019 833 995 884 961 925 C 927 966 883 997 829 1018 C 775 1038 711 1049 635 1049 C 559 1049 494 1038 441 1018 C 388 997 345 966 311 925 C 277 884 253 833 238 773 C 222 712 215 641 215 561 C 215 481 222 410 238 349 C 253 288 277 237 311 197 C 345 156 388 125 441 105 C 494 84 559 74 635 74 Z" unicode="ō" />
<glyph horiz-adv-x="1696" d="" unicode="Ŏ" />
<glyph horiz-adv-x="1274" d="" unicode="ŏ" />
<glyph horiz-adv-x="1696" d="M 760 1911 L 887 1911 L 602 1612 L 502 1612 L 760 1911 Z M 1198 1911 L 1323 1911 L 1040 1612 L 940 1612 L 1198 1911 Z M 846 -25 C 724 -25 617 -9 524 22 C 430 54 352 102 289 167 C 225 232 177 314 145 412 C 112 510 96 626 96 760 C 96 892 112 1008 145 1106 C 177 1204 225 1286 289 1350 C 352 1414 430 1462 524 1494 C 617 1526 724 1542 846 1542 C 968 1542 1076 1526 1170 1494 C 1264 1462 1342 1414 1406 1350 C 1469 1286 1517 1204 1550 1106 C 1582 1008 1599 892 1599 760 C 1599 626 1582 510 1550 412 C 1517 314 1469 232 1406 167 C 1342 102 1264 54 1170 22 C 1076 -9 968 -25 846 -25 Z M 846 76 C 1062 76 1224 133 1332 249 C 1439 364 1493 534 1493 760 C 1493 984 1439 1153 1332 1269 C 1224 1384 1062 1442 846 1442 C 630 1442 470 1384 364 1269 C 258 1153 205 984 205 760 C 205 534 258 364 364 249 C 470 133 630 76 846 76 Z" unicode="Ő" />
<glyph horiz-adv-x="1274" d="M 549 1542 L 676 1542 L 391 1243 L 291 1243 L 549 1542 Z M 987 1542 L 1112 1542 L 829 1243 L 729 1243 L 987 1542 Z M 635 -23 C 541 -23 460 -10 394 14 C 328 38 274 75 232 124 C 190 173 159 234 140 307 C 120 380 111 465 111 563 C 111 659 120 744 140 817 C 159 890 190 951 232 1000 C 274 1048 328 1085 394 1110 C 460 1134 541 1147 635 1147 C 729 1147 809 1134 876 1110 C 943 1085 998 1048 1040 1000 C 1082 951 1113 890 1133 817 C 1153 744 1163 659 1163 563 C 1163 465 1153 380 1133 307 C 1113 234 1082 173 1040 124 C 998 75 943 38 876 14 C 809 -10 729 -23 635 -23 Z M 635 74 C 711 74 775 84 829 105 C 883 125 927 156 961 197 C 995 237 1019 288 1035 349 C 1051 410 1059 481 1059 561 C 1059 641 1051 712 1035 773 C 1019 833 995 884 961 925 C 927 966 883 997 829 1018 C 775 1038 711 1049 635 1049 C 559 1049 494 1038 441 1018 C 388 997 345 966 311 925 C 277 884 253 833 238 773 C 222 712 215 641 215 561 C 215 481 222 410 238 349 C 253 288 277 237 311 197 C 345 156 388 125 441 105 C 494 84 559 74 635 74 Z" unicode="ő" />
<glyph horiz-adv-x="2580" d="M 1499 313 C 1445 200 1365 115 1257 59 C 1149 3 1012 -25 846 -25 C 592 -25 403 39 280 167 C 157 295 96 493 96 760 C 96 1026 157 1222 280 1350 C 403 1478 592 1542 846 1542 C 1012 1542 1149 1513 1257 1457 C 1365 1401 1445 1316 1499 1204 L 1499 1518 L 2449 1518 L 2449 1417 L 1595 1417 L 1595 844 L 2429 844 L 2429 745 L 1595 745 L 1595 98 L 2458 98 L 2458 0 L 1499 0 L 1499 313 Z M 846 76 C 958 76 1055 90 1137 119 C 1219 148 1286 191 1339 249 C 1391 306 1430 377 1455 463 C 1480 548 1493 647 1493 760 C 1493 872 1480 970 1455 1055 C 1430 1140 1391 1211 1339 1269 C 1286 1326 1219 1369 1137 1398 C 1055 1427 958 1442 846 1442 C 733 1442 636 1427 555 1398 C 474 1369 408 1326 356 1269 C 304 1211 265 1140 241 1055 C 217 970 205 872 205 760 C 205 647 217 548 241 463 C 265 377 304 306 356 249 C 408 191 474 148 555 119 C 636 90 733 76 846 76 Z" unicode="Œ" />
<glyph horiz-adv-x="2144" d="M 1581 -23 C 1509 -23 1446 -16 1394 -3 C 1341 9 1296 27 1258 51 C 1220 74 1189 102 1165 136 C 1141 169 1122 206 1108 248 C 1072 158 1017 91 941 45 C 865 0 763 -23 635 -23 C 540 -23 459 -10 393 14 C 327 38 273 75 231 124 C 189 173 158 234 139 307 C 120 380 111 465 111 563 C 111 659 120 744 139 817 C 158 890 189 951 231 1000 C 273 1048 327 1085 393 1110 C 459 1134 540 1147 635 1147 C 699 1147 757 1141 808 1130 C 858 1118 903 1101 942 1078 C 980 1055 1013 1027 1041 993 C 1068 959 1090 919 1108 874 C 1122 914 1141 951 1165 985 C 1189 1019 1220 1048 1258 1072 C 1295 1096 1339 1114 1391 1127 C 1443 1140 1503 1147 1573 1147 C 1646 1147 1708 1139 1759 1123 C 1810 1107 1852 1086 1886 1059 C 1920 1031 1946 999 1964 961 C 1982 923 1996 881 2005 837 C 2013 792 2018 745 2020 695 C 2021 645 2021 594 2021 543 L 1159 543 C 1159 475 1165 412 1176 354 C 1187 296 1208 246 1239 204 C 1269 162 1312 129 1367 105 C 1421 81 1493 70 1581 70 C 1627 70 1668 73 1704 79 C 1740 85 1772 93 1800 104 C 1828 114 1854 127 1878 141 C 1901 155 1924 171 1948 188 L 2007 113 C 1981 93 1953 75 1925 59 C 1897 43 1866 28 1832 16 C 1798 4 1760 -5 1719 -12 C 1678 -19 1632 -23 1581 -23 Z M 635 74 C 711 74 775 84 829 105 C 883 125 927 156 961 197 C 995 237 1019 288 1035 349 C 1051 410 1059 481 1059 561 C 1059 641 1051 712 1035 773 C 1019 833 995 884 961 925 C 927 966 883 997 829 1018 C 775 1038 711 1049 635 1049 C 559 1049 494 1038 441 1018 C 388 997 345 966 311 925 C 277 884 253 833 238 773 C 222 712 215 641 215 561 C 215 481 222 410 238 349 C 253 288 277 237 311 197 C 345 156 388 125 441 105 C 494 84 559 74 635 74 Z M 1571 1053 C 1491 1053 1426 1042 1375 1022 C 1323 1002 1282 973 1252 936 C 1221 899 1199 855 1186 804 C 1172 753 1164 697 1161 637 L 1921 637 C 1919 674 1916 710 1914 746 C 1911 781 1906 814 1898 845 C 1890 875 1878 903 1864 929 C 1849 955 1829 977 1804 995 C 1778 1013 1747 1028 1709 1038 C 1671 1048 1625 1053 1571 1053 Z" unicode="œ" />
<glyph horiz-adv-x="1438" d="M 889 1913 L 1020 1913 L 680 1612 L 573 1612 L 889 1913 Z M 778 657 L 293 657 L 293 0 L 186 0 L 186 1518 L 819 1518 C 897 1518 967 1510 1028 1494 C 1088 1478 1139 1452 1181 1418 C 1222 1384 1253 1340 1275 1286 C 1296 1232 1307 1168 1307 1092 C 1307 1020 1297 958 1279 906 C 1260 854 1233 810 1197 775 C 1161 740 1118 713 1067 694 C 1015 675 957 663 893 659 L 1282 0 L 1167 0 L 778 657 Z M 823 756 C 879 756 931 761 977 771 C 1023 781 1062 799 1095 825 C 1127 850 1153 884 1171 926 C 1189 968 1198 1022 1198 1087 C 1198 1150 1189 1203 1171 1246 C 1153 1288 1128 1322 1096 1348 C 1063 1374 1023 1392 976 1403 C 928 1413 875 1419 817 1419 L 293 1419 L 293 756 L 823 756 Z" unicode="Ŕ" />
<glyph horiz-adv-x="707" d="M 555 1544 L 686 1544 L 346 1243 L 240 1243 L 555 1544 Z M 166 1116 L 248 1120 L 260 928 C 270 955 286 981 308 1006 C 330 1031 358 1053 392 1072 C 426 1091 465 1106 509 1118 C 553 1129 603 1135 657 1135 L 657 1032 C 587 1032 528 1021 479 1001 C 430 980 390 951 359 915 C 328 879 305 836 291 786 C 277 736 270 681 270 623 L 270 0 L 166 0 L 166 1116 Z" unicode="ŕ" />
<glyph horiz-adv-x="1438" d="M 627 -393 C 645 -383 660 -373 672 -363 C 684 -353 693 -342 701 -330 C 708 -318 713 -305 716 -290 C 719 -275 721 -258 721 -238 L 645 -238 L 645 -82 L 791 -82 L 791 -207 C 791 -240 788 -269 784 -293 C 780 -317 773 -338 763 -356 C 753 -374 739 -391 722 -405 C 705 -419 684 -432 659 -446 L 627 -393 Z M 778 657 L 293 657 L 293 0 L 186 0 L 186 1518 L 819 1518 C 897 1518 967 1510 1028 1494 C 1088 1478 1139 1452 1181 1418 C 1222 1384 1253 1340 1275 1286 C 1296 1232 1307 1168 1307 1092 C 1307 1020 1297 958 1279 906 C 1260 854 1233 810 1197 775 C 1161 740 1118 713 1067 694 C 1015 675 957 663 893 659 L 1282 0 L 1167 0 L 778 657 Z M 823 756 C 879 756 931 761 977 771 C 1023 781 1062 799 1095 825 C 1127 850 1153 884 1171 926 C 1189 968 1198 1022 1198 1087 C 1198 1150 1189 1203 1171 1246 C 1153 1288 1128 1322 1096 1348 C 1063 1374 1023 1392 976 1403 C 928 1413 875 1419 817 1419 L 293 1419 L 293 756 L 823 756 Z" unicode="Ŗ" />
<glyph horiz-adv-x="707" d="M 131 -393 C 149 -383 164 -373 176 -363 C 188 -353 197 -342 205 -330 C 212 -318 217 -305 220 -290 C 223 -275 225 -258 225 -238 L 150 -238 L 150 -82 L 295 -82 L 295 -207 C 295 -240 292 -269 288 -293 C 284 -317 277 -338 267 -356 C 257 -374 243 -391 226 -405 C 209 -419 188 -432 164 -446 L 131 -393 Z M 166 1116 L 248 1120 L 260 928 C 270 955 286 981 308 1006 C 330 1031 358 1053 392 1072 C 426 1091 465 1106 509 1118 C 553 1129 603 1135 657 1135 L 657 1032 C 587 1032 528 1021 479 1001 C 430 980 390 951 359 915 C 328 879 305 836 291 786 C 277 736 270 681 270 623 L 270 0 L 166 0 L 166 1116 Z" unicode="ŗ" />
<glyph horiz-adv-x="1438" d="M 342 1913 L 453 1913 L 717 1677 L 979 1913 L 1087 1913 L 776 1612 L 651 1612 L 342 1913 Z M 778 657 L 293 657 L 293 0 L 186 0 L 186 1518 L 819 1518 C 897 1518 967 1510 1028 1494 C 1088 1478 1139 1452 1181 1418 C 1222 1384 1253 1340 1275 1286 C 1296 1232 1307 1168 1307 1092 C 1307 1020 1297 958 1279 906 C 1260 854 1233 810 1197 775 C 1161 740 1118 713 1067 694 C 1015 675 957 663 893 659 L 1282 0 L 1167 0 L 778 657 Z M 823 756 C 879 756 931 761 977 771 C 1023 781 1062 799 1095 825 C 1127 850 1153 884 1171 926 C 1189 968 1198 1022 1198 1087 C 1198 1150 1189 1203 1171 1246 C 1153 1288 1128 1322 1096 1348 C 1063 1374 1023 1392 976 1403 C 928 1413 875 1419 817 1419 L 293 1419 L 293 756 L 823 756 Z" unicode="Ř" />
<glyph horiz-adv-x="690" d="M -27 1544 L 84 1544 L 348 1309 L 610 1544 L 719 1544 L 408 1243 L 283 1243 L -27 1544 Z M 166 1116 L 248 1120 L 260 928 C 270 955 286 981 308 1006 C 330 1031 358 1053 392 1072 C 426 1091 465 1106 509 1118 C 553 1129 603 1135 657 1135 L 657 1032 C 587 1032 528 1021 479 1001 C 430 980 390 951 359 915 C 328 879 305 836 291 786 C 277 736 270 681 270 623 L 270 0 L 166 0 L 166 1116 Z" unicode="ř" />
<glyph horiz-adv-x="1415" d="M 879 1913 L 1010 1913 L 670 1612 L 563 1612 L 879 1913 Z M 696 -20 C 644 -20 592 -17 542 -12 C 492 -6 442 2 393 15 C 343 28 294 45 245 67 C 195 88 146 115 96 147 L 152 229 C 198 199 244 175 290 155 C 336 135 381 120 426 109 C 471 97 516 89 560 85 C 604 80 649 78 694 78 C 773 78 843 84 903 97 C 963 109 1014 129 1055 156 C 1095 183 1126 218 1147 261 C 1167 303 1178 354 1178 414 C 1178 475 1166 524 1143 561 C 1119 598 1086 628 1044 651 C 1001 673 950 691 891 704 C 832 717 767 731 696 745 C 645 754 597 764 551 774 C 505 784 463 796 424 810 C 385 824 350 840 318 859 C 286 877 259 900 237 927 C 215 954 198 986 186 1023 C 174 1059 168 1103 168 1153 C 168 1222 179 1281 202 1330 C 224 1379 258 1419 302 1451 C 346 1482 401 1505 466 1520 C 531 1534 606 1542 692 1542 C 800 1542 895 1530 977 1508 C 1059 1485 1132 1453 1194 1411 L 1137 1325 C 1080 1363 1014 1392 938 1413 C 862 1433 780 1444 692 1444 C 550 1444 445 1421 377 1375 C 308 1329 274 1256 274 1155 C 274 1101 284 1056 304 1022 C 324 988 354 960 393 938 C 431 916 478 898 533 884 C 588 870 651 856 721 842 C 801 826 876 810 945 794 C 1013 778 1073 755 1123 726 C 1173 696 1212 657 1240 609 C 1268 560 1282 496 1282 416 C 1282 266 1232 156 1133 86 C 1034 15 888 -20 696 -20 Z" unicode="Ś" />
<glyph horiz-adv-x="1038" d="M 692 1544 L 823 1544 L 483 1243 L 377 1243 L 692 1544 Z M 520 -23 C 486 -23 451 -21 415 -18 C 379 -14 342 -8 304 1 C 266 10 228 22 190 38 C 152 54 114 74 76 100 L 131 180 C 165 158 199 140 234 126 C 268 112 302 101 336 93 C 369 85 401 79 433 76 C 465 73 495 72 524 72 C 578 72 626 75 667 82 C 708 88 742 100 769 118 C 796 136 816 160 830 190 C 843 220 850 258 850 305 C 850 342 844 373 832 397 C 820 421 801 441 775 457 C 749 473 715 486 674 498 C 632 509 582 521 524 535 C 460 549 404 563 354 577 C 304 591 262 610 228 633 C 194 656 168 685 150 721 C 132 756 123 802 123 858 C 123 902 130 942 144 978 C 158 1014 180 1044 212 1069 C 244 1094 285 1113 336 1127 C 386 1140 448 1147 522 1147 C 605 1147 679 1138 743 1121 C 807 1104 863 1081 913 1053 L 864 967 C 820 991 771 1011 715 1027 C 659 1043 595 1051 524 1051 C 466 1051 418 1046 380 1037 C 342 1028 311 1015 288 998 C 265 981 249 961 239 937 C 229 913 225 886 225 856 C 225 820 231 790 243 766 C 255 742 273 723 299 707 C 324 691 356 677 395 666 C 434 654 481 643 535 631 C 601 616 661 601 713 587 C 765 572 808 553 844 530 C 879 507 906 478 924 443 C 942 408 952 363 952 307 C 952 243 943 190 925 148 C 907 106 880 72 844 47 C 808 21 763 3 709 -7 C 655 -17 592 -23 520 -23 Z" unicode="ś" />
<glyph horiz-adv-x="1415" d="" unicode="Ŝ" />
<glyph horiz-adv-x="1038" d="" unicode="ŝ" />
<glyph horiz-adv-x="1415" d="M 725 -444 C 675 -444 633 -439 597 -429 C 561 -419 528 -405 500 -389 L 537 -324 C 562 -338 590 -349 622 -358 C 653 -366 687 -371 723 -371 C 760 -371 790 -367 812 -360 C 834 -353 852 -344 864 -333 C 876 -321 883 -309 887 -295 C 891 -281 893 -268 893 -254 C 893 -235 890 -219 885 -205 C 880 -191 870 -180 856 -172 C 842 -164 822 -158 797 -155 C 771 -152 738 -152 698 -154 L 657 -123 L 676 -20 C 626 -19 576 -16 528 -10 C 480 -4 432 5 384 18 C 336 31 288 48 240 69 C 192 90 144 116 96 147 L 152 229 C 198 199 244 175 290 155 C 336 135 381 120 426 109 C 471 97 516 89 560 85 C 604 80 649 78 694 78 C 773 78 843 84 903 97 C 963 109 1014 129 1055 156 C 1095 183 1126 218 1147 261 C 1167 303 1178 354 1178 414 C 1178 475 1166 524 1143 561 C 1119 598 1086 628 1044 651 C 1001 673 950 691 891 704 C 832 717 767 731 696 745 C 645 754 597 764 551 774 C 505 784 463 796 424 810 C 385 824 350 840 318 859 C 286 877 259 900 237 927 C 215 954 198 986 186 1023 C 174 1059 168 1103 168 1153 C 168 1222 179 1281 202 1330 C 224 1379 258 1419 302 1451 C 346 1482 401 1505 466 1520 C 531 1534 606 1542 692 1542 C 800 1542 895 1530 977 1508 C 1059 1485 1132 1453 1194 1411 L 1137 1325 C 1080 1363 1014 1392 938 1413 C 862 1433 780 1444 692 1444 C 550 1444 445 1421 377 1375 C 308 1329 274 1256 274 1155 C 274 1101 284 1056 304 1022 C 324 988 354 960 393 938 C 431 916 478 898 533 884 C 588 870 651 856 721 842 C 801 826 876 810 945 794 C 1013 778 1073 755 1123 726 C 1173 696 1212 657 1240 609 C 1268 560 1282 496 1282 416 C 1282 273 1237 166 1147 96 C 1057 26 926 -12 754 -18 L 741 -94 C 771 -92 801 -92 829 -94 C 857 -96 883 -103 905 -115 C 927 -126 944 -143 957 -166 C 970 -188 977 -219 977 -258 C 977 -282 973 -305 966 -327 C 959 -349 946 -369 928 -387 C 910 -404 884 -418 852 -428 C 819 -438 777 -444 725 -444 Z" unicode="Ş" />
<glyph horiz-adv-x="1038" d="M 539 -444 C 489 -444 446 -439 410 -429 C 374 -419 342 -405 313 -389 L 350 -324 C 375 -338 403 -349 435 -358 C 467 -366 501 -371 537 -371 C 574 -371 604 -367 626 -360 C 648 -353 666 -344 678 -333 C 690 -321 697 -309 701 -295 C 705 -281 707 -268 707 -254 C 707 -235 704 -219 699 -205 C 694 -191 684 -180 670 -172 C 656 -164 636 -158 611 -155 C 585 -152 552 -152 512 -154 L 471 -123 L 489 -23 C 457 -21 424 -19 390 -15 C 356 -11 321 -4 286 5 C 251 14 216 26 181 42 C 145 57 110 76 76 100 L 131 180 C 165 158 199 140 234 126 C 268 112 302 101 336 93 C 369 85 401 79 433 76 C 465 73 495 72 524 72 C 578 72 626 75 667 82 C 708 88 742 100 769 118 C 796 136 816 160 830 190 C 843 220 850 258 850 305 C 850 342 844 373 832 397 C 820 421 801 441 775 457 C 749 473 715 486 674 498 C 632 509 582 521 524 535 C 460 549 404 563 354 577 C 304 591 262 610 228 633 C 194 656 168 685 150 721 C 132 756 123 802 123 858 C 123 902 130 942 144 978 C 158 1014 180 1044 212 1069 C 244 1094 285 1113 336 1127 C 386 1140 448 1147 522 1147 C 605 1147 679 1138 743 1121 C 807 1104 863 1081 913 1053 L 864 967 C 820 991 771 1011 715 1027 C 659 1043 595 1051 524 1051 C 466 1051 418 1046 380 1037 C 342 1028 311 1015 288 998 C 265 981 249 961 239 937 C 229 913 225 886 225 856 C 225 820 231 790 243 766 C 255 742 273 723 299 707 C 324 691 356 677 395 666 C 434 654 481 643 535 631 C 601 616 661 601 713 587 C 765 572 808 553 844 530 C 879 507 906 478 924 443 C 942 408 952 363 952 307 C 952 247 944 196 928 156 C 912 115 887 82 855 57 C 823 31 783 13 735 1 C 687 -11 631 -18 567 -20 L 555 -94 C 585 -92 615 -92 643 -94 C 671 -96 697 -103 719 -115 C 741 -126 758 -143 771 -166 C 784 -188 791 -219 791 -258 C 791 -282 787 -305 780 -327 C 773 -349 760 -369 742 -387 C 723 -404 697 -418 665 -428 C 632 -438 590 -444 539 -444 Z" unicode="ş" />
<glyph horiz-adv-x="1415" d="M 332 1913 L 442 1913 L 707 1677 L 969 1913 L 1077 1913 L 766 1612 L 641 1612 L 332 1913 Z M 696 -20 C 644 -20 592 -17 542 -12 C 492 -6 442 2 393 15 C 343 28 294 45 245 67 C 195 88 146 115 96 147 L 152 229 C 198 199 244 175 290 155 C 336 135 381 120 426 109 C 471 97 516 89 560 85 C 604 80 649 78 694 78 C 773 78 843 84 903 97 C 963 109 1014 129 1055 156 C 1095 183 1126 218 1147 261 C 1167 303 1178 354 1178 414 C 1178 475 1166 524 1143 561 C 1119 598 1086 628 1044 651 C 1001 673 950 691 891 704 C 832 717 767 731 696 745 C 645 754 597 764 551 774 C 505 784 463 796 424 810 C 385 824 350 840 318 859 C 286 877 259 900 237 927 C 215 954 198 986 186 1023 C 174 1059 168 1103 168 1153 C 168 1222 179 1281 202 1330 C 224 1379 258 1419 302 1451 C 346 1482 401 1505 466 1520 C 531 1534 606 1542 692 1542 C 800 1542 895 1530 977 1508 C 1059 1485 1132 1453 1194 1411 L 1137 1325 C 1080 1363 1014 1392 938 1413 C 862 1433 780 1444 692 1444 C 550 1444 445 1421 377 1375 C 308 1329 274 1256 274 1155 C 274 1101 284 1056 304 1022 C 324 988 354 960 393 938 C 431 916 478 898 533 884 C 588 870 651 856 721 842 C 801 826 876 810 945 794 C 1013 778 1073 755 1123 726 C 1173 696 1212 657 1240 609 C 1268 560 1282 496 1282 416 C 1282 266 1232 156 1133 86 C 1034 15 888 -20 696 -20 Z" unicode="Š" />
<glyph horiz-adv-x="1038" d="M 145 1544 L 256 1544 L 520 1309 L 782 1544 L 891 1544 L 580 1243 L 455 1243 L 145 1544 Z M 520 -23 C 486 -23 451 -21 415 -18 C 379 -14 342 -8 304 1 C 266 10 228 22 190 38 C 152 54 114 74 76 100 L 131 180 C 165 158 199 140 234 126 C 268 112 302 101 336 93 C 369 85 401 79 433 76 C 465 73 495 72 524 72 C 578 72 626 75 667 82 C 708 88 742 100 769 118 C 796 136 816 160 830 190 C 843 220 850 258 850 305 C 850 342 844 373 832 397 C 820 421 801 441 775 457 C 749 473 715 486 674 498 C 632 509 582 521 524 535 C 460 549 404 563 354 577 C 304 591 262 610 228 633 C 194 656 168 685 150 721 C 132 756 123 802 123 858 C 123 902 130 942 144 978 C 158 1014 180 1044 212 1069 C 244 1094 285 1113 336 1127 C 386 1140 448 1147 522 1147 C 605 1147 679 1138 743 1121 C 807 1104 863 1081 913 1053 L 864 967 C 820 991 771 1011 715 1027 C 659 1043 595 1051 524 1051 C 466 1051 418 1046 380 1037 C 342 1028 311 1015 288 998 C 265 981 249 961 239 937 C 229 913 225 886 225 856 C 225 820 231 790 243 766 C 255 742 273 723 299 707 C 324 691 356 677 395 666 C 434 654 481 643 535 631 C 601 616 661 601 713 587 C 765 572 808 553 844 530 C 879 507 906 478 924 443 C 942 408 952 363 952 307 C 952 243 943 190 925 148 C 907 106 880 72 844 47 C 808 21 763 3 709 -7 C 655 -17 592 -23 520 -23 Z" unicode="š" />
<glyph horiz-adv-x="1399" d="M 608 -393 C 626 -383 641 -373 653 -363 C 665 -353 674 -342 682 -330 C 689 -318 694 -305 697 -290 C 700 -275 702 -258 702 -238 L 627 -238 L 627 -82 L 772 -82 L 772 -207 C 772 -240 769 -269 765 -293 C 761 -317 754 -338 744 -356 C 734 -374 720 -391 703 -405 C 686 -419 665 -432 641 -446 L 608 -393 Z M 647 1417 L 63 1417 L 63 1518 L 1337 1518 L 1337 1417 L 754 1417 L 754 0 L 647 0 L 647 1417 Z" unicode="Ţ" />
<glyph horiz-adv-x="803" d="M 248 -393 C 266 -383 281 -373 293 -363 C 305 -353 314 -342 322 -330 C 329 -318 334 -305 337 -290 C 340 -275 342 -258 342 -238 L 266 -238 L 266 -82 L 412 -82 L 412 -207 C 412 -240 409 -269 405 -293 C 401 -317 394 -338 384 -356 C 374 -374 360 -391 343 -405 C 326 -419 305 -432 281 -446 L 248 -393 Z M 68 1120 L 276 1120 L 293 1481 L 377 1493 L 377 1120 L 700 1120 L 700 1026 L 377 1026 L 377 276 C 377 248 378 223 382 201 C 385 179 393 160 405 144 C 417 128 435 115 459 107 C 483 98 515 94 557 94 L 700 94 L 700 0 C 698 0 689 -1 674 -1 C 658 -1 641 -2 623 -2 C 605 -2 588 -2 572 -2 C 556 -2 547 -2 545 -2 C 485 -2 438 4 402 16 C 366 28 339 46 320 70 C 301 93 289 121 283 155 C 277 188 274 226 274 268 L 274 1026 L 68 1026 L 68 1120 Z" unicode="ţ" />
<glyph horiz-adv-x="1399" d="M 326 1913 L 436 1913 L 700 1677 L 963 1913 L 1071 1913 L 760 1612 L 635 1612 L 326 1913 Z M 647 1417 L 63 1417 L 63 1518 L 1337 1518 L 1337 1417 L 754 1417 L 754 0 L 647 0 L 647 1417 Z" unicode="Ť" />
<glyph horiz-adv-x="803" d="M 567 1401 C 584 1411 599 1421 611 1431 C 623 1441 632 1451 639 1463 C 646 1475 651 1488 654 1503 C 657 1518 659 1536 659 1556 L 590 1556 L 590 1710 L 727 1710 L 727 1587 C 727 1553 725 1525 721 1501 C 717 1477 710 1456 700 1438 C 690 1420 677 1404 661 1390 C 645 1376 624 1362 600 1348 L 567 1401 Z M 68 1120 L 276 1120 L 293 1481 L 377 1493 L 377 1120 L 700 1120 L 700 1026 L 377 1026 L 377 276 C 377 248 378 223 382 201 C 385 179 393 160 405 144 C 417 128 435 115 459 107 C 483 98 515 94 557 94 L 700 94 L 700 0 C 698 0 689 -1 674 -1 C 658 -1 641 -2 623 -2 C 605 -2 588 -2 572 -2 C 556 -2 547 -2 545 -2 C 485 -2 438 4 402 16 C 366 28 339 46 320 70 C 301 93 289 121 283 155 C 277 188 274 226 274 268 L 274 1026 L 68 1026 L 68 1120 Z" unicode="ť" />
<glyph horiz-adv-x="1399" d="" unicode="Ŧ" />
<glyph horiz-adv-x="803" d="" unicode="ŧ" />
<glyph horiz-adv-x="1571" d="" unicode="Ũ" />
<glyph horiz-adv-x="1231" d="" unicode="ũ" />
<glyph horiz-adv-x="1571" d="M 782 -25 C 697 -25 623 -18 560 -4 C 497 9 443 28 399 53 C 354 77 317 107 288 142 C 259 176 236 214 220 256 C 203 298 191 342 185 390 C 179 437 176 486 176 537 L 176 1518 L 285 1518 L 285 545 C 285 477 291 415 305 358 C 319 300 344 251 381 209 C 417 167 468 135 532 111 C 596 87 680 76 782 76 C 850 76 909 81 961 92 C 1013 102 1057 117 1095 137 C 1133 157 1164 181 1189 209 C 1214 237 1234 268 1249 303 C 1264 337 1275 375 1281 416 C 1287 456 1290 499 1290 545 L 1290 1518 L 1395 1518 L 1395 537 C 1395 486 1391 437 1384 389 C 1377 341 1365 297 1348 255 C 1331 213 1308 175 1278 141 C 1248 107 1211 77 1166 53 C 1120 28 1066 9 1003 -4 C 939 -18 866 -25 782 -25 Z M 434 1698 L 1133 1698 L 1133 1608 L 434 1608 L 434 1698 Z" unicode="Ū" />
</font>
</defs>
</svg>
