<?xml version="1.0" encoding="utf-8" ?><svg version="1.1" xmlns = 'http://www.w3.org/2000/svg'><defs><font id='web' horiz-adv-x="1000">
<font-face font-family="web" descent="-95" cap-height="390" units-per-em="512" bbox="-23,-151,835,565" x-height="294" ascent="409" />
<missing-glyph horiz-adv-x="284" d="M 10 369 L 274 369 L 274 0 L 10 0 L 10 369 Z M 37 27 L 247 27 L 247 343 L 37 343 L 37 27 Z" /><glyph horiz-adv-x="122" d="" unicode=" " />
<glyph horiz-adv-x="215" d="M 75 69 L 139 69 L 139 0 L 75 0 L 75 69 Z M 79 390 L 136 390 L 129 122 L 85 122 L 79 390 Z" unicode="!" />
<glyph horiz-adv-x="287" d="M 60 390 L 113 390 L 110 231 L 64 231 L 60 390 Z M 174 390 L 226 390 L 223 231 L 177 231 L 174 390 Z" unicode="&#x22;" />
<glyph horiz-adv-x="418" d="M 106 110 L 43 110 L 43 158 L 114 158 L 127 229 L 43 229 L 43 276 L 137 276 L 159 390 L 209 390 L 185 276 L 262 276 L 284 390 L 333 390 L 312 276 L 375 276 L 375 229 L 303 229 L 288 158 L 375 158 L 375 110 L 280 110 L 258 0 L 210 0 L 230 110 L 154 110 L 134 0 L 84 0 L 106 110 Z M 242 154 L 257 232 L 175 232 L 159 154 L 242 154 Z" unicode="#" />
<glyph horiz-adv-x="373" d="M 187 0 C 161 0 136 2 111 8 C 86 13 62 23 40 39 L 65 77 C 86 63 106 54 125 50 C 143 45 163 43 185 43 C 219 43 244 48 258 60 C 272 72 279 89 279 111 C 279 135 270 151 254 159 C 238 167 214 174 182 180 C 166 182 150 186 135 190 C 119 194 106 199 95 207 C 83 215 74 225 67 237 C 60 249 57 266 57 286 C 57 322 67 349 89 366 C 110 382 143 391 187 391 C 213 391 236 388 256 383 C 276 378 294 371 308 362 L 284 321 C 272 329 257 335 240 339 C 222 343 205 345 187 345 C 155 345 134 340 123 330 C 112 320 107 306 107 288 C 107 266 115 251 131 243 C 147 235 171 229 202 224 C 218 220 234 216 250 212 C 265 208 278 202 290 194 C 301 186 310 175 317 163 C 324 150 328 134 328 114 C 328 76 316 48 294 29 C 272 9 236 0 187 0 Z M 166 21 L 168 25 L 168 363 L 166 367 L 166 426 L 212 426 L 212 367 L 211 364 L 211 26 L 212 21 L 212 -49 L 166 -49 L 166 21 Z" unicode="$" />
<glyph horiz-adv-x="625" d="M 143 146 C 103 146 75 157 58 180 C 40 203 32 234 32 272 C 32 309 40 339 58 363 C 75 386 103 398 143 398 C 181 398 208 386 225 363 C 242 339 251 309 251 272 C 251 234 242 203 225 180 C 208 157 181 146 143 146 Z M 143 187 C 166 187 182 195 192 211 C 201 227 206 248 206 272 C 206 295 201 314 192 330 C 182 346 166 354 143 354 C 117 354 100 346 91 331 C 82 315 78 296 78 272 C 78 248 82 227 91 211 C 100 195 117 187 143 187 Z M 482 -5 C 444 -5 416 6 399 29 C 381 51 373 82 373 121 C 373 158 381 188 399 211 C 416 234 444 246 482 246 C 520 246 547 234 565 211 C 583 188 592 158 592 121 C 592 82 583 51 565 29 C 547 6 520 -5 482 -5 Z M 482 36 C 506 36 522 44 532 60 C 541 76 546 96 546 121 C 546 144 541 163 532 179 C 522 195 506 203 482 203 C 458 203 441 195 432 179 C 423 163 419 144 419 121 C 419 96 423 76 432 60 C 441 44 458 36 482 36 Z M 396 391 L 445 391 L 226 0 L 178 0 L 396 391 Z" unicode="%" />
<glyph horiz-adv-x="444" d="M 169 -5 C 119 -5 84 3 64 21 C 44 38 34 66 34 105 C 34 121 36 136 42 149 C 47 161 54 172 63 182 C 72 192 82 200 93 208 C 104 216 116 223 128 229 L 150 233 C 170 243 187 253 202 265 C 216 277 224 291 224 309 C 224 323 221 334 216 341 C 210 348 200 352 186 352 C 158 352 145 337 145 309 C 145 295 147 279 153 263 C 158 246 165 229 174 212 C 183 195 194 179 206 163 C 218 147 231 132 245 119 C 263 101 280 88 295 78 C 309 68 323 61 335 56 C 347 51 357 48 367 47 C 377 46 386 46 396 46 L 401 46 L 401 0 L 394 0 C 378 0 364 1 350 3 C 336 5 322 9 308 15 C 293 21 277 31 261 43 C 245 55 226 71 206 91 C 190 105 176 122 162 140 C 148 158 137 176 127 196 C 117 215 109 234 103 254 C 97 273 95 291 95 309 C 95 339 103 362 119 376 C 135 390 158 398 186 398 C 214 398 235 391 249 377 C 263 363 270 340 270 309 C 270 293 267 280 261 269 C 255 257 247 247 237 239 C 227 230 216 222 204 215 C 192 208 179 201 167 195 L 146 188 C 128 178 113 167 101 154 C 89 141 83 125 83 106 C 83 96 84 86 86 78 C 88 70 92 63 98 57 C 104 51 112 46 124 43 C 135 39 150 38 169 38 C 193 38 214 42 232 50 C 249 58 264 70 276 86 C 288 102 298 122 307 146 C 315 170 324 198 333 230 L 377 218 C 367 181 357 149 346 121 C 335 93 322 69 306 51 C 290 32 272 18 250 9 C 228 0 201 -5 169 -5 Z" unicode="&#x26;" />
<glyph horiz-adv-x="173" d="M 60 391 L 113 391 L 110 231 L 64 231 L 60 391 Z" unicode="'" />
<glyph horiz-adv-x="277" d="M 180 -98 C 167 -87 154 -74 141 -58 C 127 -42 115 -23 105 -1 C 94 20 85 44 78 71 C 71 97 68 127 68 159 C 68 189 71 217 78 244 C 85 270 94 295 105 317 C 115 339 127 359 141 376 C 154 393 167 407 180 418 L 217 390 C 205 379 194 366 183 352 C 171 337 161 320 152 301 C 143 282 136 261 130 237 C 124 213 121 187 121 159 C 121 129 124 103 130 79 C 136 55 143 33 153 14 C 163 -5 173 -22 185 -36 C 196 -50 207 -62 217 -72 L 180 -98 L 180 -98 Z" unicode="(" />
<glyph horiz-adv-x="277" d="M 61 -72 C 71 -61 82 -48 94 -34 C 105 -20 115 -3 125 15 C 134 34 141 55 147 79 C 153 103 156 129 156 159 C 156 187 153 214 147 238 C 141 262 133 284 124 304 C 114 323 104 340 93 354 C 82 368 71 380 61 390 L 97 418 C 109 407 122 393 136 377 C 149 361 161 342 172 320 C 183 298 192 273 199 246 C 206 219 210 190 210 159 C 210 129 206 100 199 74 C 192 47 183 23 172 1 C 161 -21 149 -40 136 -57 C 122 -73 109 -87 97 -98 L 61 -72 Z" unicode=")" />
<glyph horiz-adv-x="328" d="M 148 234 L 65 182 L 44 218 L 132 264 L 44 309 L 65 346 L 148 294 L 144 391 L 184 391 L 180 294 L 263 346 L 284 309 L 196 264 L 284 218 L 263 182 L 180 234 L 184 137 L 144 137 L 148 234 Z" unicode="*" />
<glyph horiz-adv-x="391" d="M 170 162 L 65 162 L 65 210 L 170 210 L 170 315 L 220 315 L 220 210 L 326 210 L 326 162 L 220 162 L 220 57 L 170 57 L 170 162 Z" unicode="+" />
<glyph horiz-adv-x="154" d="M 43 -41 C 56 -34 65 -28 69 -23 C 73 -18 76 -10 76 0 L 44 0 L 44 70 L 109 70 L 109 18 C 109 5 108 -5 107 -14 C 105 -22 103 -30 99 -36 C 95 -42 90 -48 83 -53 C 76 -58 67 -63 57 -69 L 43 -41 Z" unicode="," />
<glyph horiz-adv-x="255" d="M 36 190 L 218 190 L 218 141 L 36 141 L 36 190 Z" unicode="-" />
<glyph horiz-adv-x="154" d="M 44 70 L 109 70 L 109 0 L 44 0 L 44 70 Z" unicode="." />
<glyph horiz-adv-x="292" d="M 228 390 L 282 390 L 63 0 L 10 0 L 228 390 Z" unicode="/" />
<glyph horiz-adv-x="410" d="M 206 -6 C 174 -6 149 -1 129 8 C 109 18 93 31 81 49 C 69 67 60 88 56 113 C 51 137 49 165 49 196 C 49 226 51 254 56 279 C 60 303 69 324 81 342 C 93 360 109 373 129 383 C 149 393 174 398 206 398 C 236 398 261 393 281 383 C 301 373 316 360 328 342 C 340 324 348 303 353 279 C 357 254 360 226 360 196 C 360 165 357 137 353 113 C 348 88 340 67 328 49 C 316 31 301 18 281 8 C 261 -1 236 -6 206 -6 Z M 206 41 C 227 41 244 44 258 52 C 271 60 281 70 289 84 C 297 98 302 114 305 133 C 307 152 309 173 309 196 C 309 218 307 239 305 258 C 302 276 297 292 289 306 C 281 319 271 329 258 337 C 244 344 227 348 206 348 C 184 348 166 344 153 337 C 139 329 129 319 121 306 C 113 292 108 276 106 258 C 104 239 103 218 103 196 C 103 173 104 152 106 133 C 108 114 113 98 121 84 C 129 70 139 60 153 52 C 166 44 184 41 206 41 Z" unicode="0" />
<glyph horiz-adv-x="306" d="M 47 42 L 143 42 L 143 344 L 47 344 L 47 390 L 194 390 L 194 42 L 284 42 L 284 0 L 47 0 L 47 42 Z" unicode="1" />
<glyph horiz-adv-x="338" d="M 29 42 L 159 168 C 173 182 186 194 197 205 C 207 215 216 225 222 235 C 228 244 233 253 236 262 C 239 271 241 281 241 293 C 241 313 235 327 223 336 C 211 344 191 349 162 349 C 140 349 120 346 102 342 C 84 338 68 332 56 325 L 34 368 C 51 377 70 384 90 390 C 110 395 136 398 167 398 C 209 398 240 390 261 374 C 281 358 292 333 292 298 C 292 282 290 269 287 257 C 283 245 278 233 271 221 C 263 209 254 197 243 185 C 232 172 219 158 203 143 L 101 45 L 298 45 L 298 0 L 29 0 L 29 42 Z" unicode="2" />
<glyph horiz-adv-x="348" d="M 167 -6 C 137 -6 110 -3 88 3 C 65 9 42 18 19 32 L 45 73 C 65 61 85 53 104 47 C 122 41 142 39 164 39 C 196 39 219 44 233 55 C 247 65 255 85 255 115 C 255 127 253 138 251 147 C 248 156 243 164 236 170 C 228 176 218 180 205 183 C 192 186 176 188 156 188 L 99 188 L 99 235 L 155 235 C 189 235 212 239 225 248 C 237 257 244 273 244 296 C 244 316 238 330 226 338 C 214 346 193 350 163 350 C 145 350 126 347 107 343 C 88 339 71 332 56 323 L 29 363 C 48 374 70 383 94 389 C 118 395 142 398 168 398 C 210 398 241 391 262 377 C 282 363 293 339 293 305 C 293 278 289 258 281 244 C 273 230 261 220 246 215 C 267 209 282 199 291 183 C 300 167 305 143 305 112 C 305 88 301 69 295 54 C 289 39 280 27 268 18 C 256 9 241 3 224 0 C 207 -4 188 -6 167 -6 Z" unicode="3" />
<glyph horiz-adv-x="376" d="M 36 135 L 210 390 L 265 390 L 92 137 L 349 137 L 349 93 L 36 93 L 36 135 Z M 231 130 L 242 261 L 279 261 L 279 0 L 231 0 L 231 130 Z" unicode="4" />
<glyph horiz-adv-x="361" d="M 178 -6 C 146 -6 118 -2 96 5 C 74 12 54 21 37 32 L 64 73 C 79 64 95 56 113 49 C 131 42 152 39 177 39 C 190 39 203 40 215 42 C 227 44 237 49 246 55 C 255 61 262 70 268 82 C 273 93 276 108 276 126 C 276 143 273 157 269 169 C 264 180 257 189 249 195 C 241 201 231 206 219 208 C 207 210 195 212 181 212 C 162 212 146 210 133 208 C 119 205 106 201 94 195 L 51 208 L 61 390 L 298 390 L 298 344 L 108 344 L 102 241 C 110 245 122 249 138 253 C 154 257 172 259 193 259 C 211 259 229 257 245 253 C 261 249 276 243 288 233 C 300 223 309 210 316 193 C 323 175 327 153 327 127 C 327 99 323 76 316 59 C 308 41 298 28 285 18 C 271 8 255 2 237 -1 C 219 -4 199 -6 178 -6 Z" unicode="5" />
<glyph horiz-adv-x="389" d="M 204 -6 C 150 -6 111 7 85 33 C 59 59 47 102 47 162 C 47 202 50 237 57 266 C 63 294 75 318 92 336 C 109 354 132 368 162 377 C 192 385 229 390 275 390 L 296 390 L 296 344 L 273 344 C 237 344 208 340 186 334 C 164 328 147 319 135 309 C 123 299 114 286 110 272 C 105 258 102 243 100 227 C 109 239 124 248 144 254 C 164 260 189 263 219 263 C 243 263 264 260 281 254 C 297 248 311 239 321 228 C 331 216 338 202 342 186 C 346 170 349 151 349 131 C 349 109 346 90 341 73 C 336 56 328 42 317 30 C 305 18 290 9 272 3 C 254 -2 231 -6 204 -6 Z M 205 39 C 223 39 239 41 251 45 C 263 49 272 55 279 63 C 286 71 291 80 294 91 C 296 102 298 115 298 129 C 298 156 291 178 279 195 C 266 211 241 220 205 220 C 173 220 148 213 129 200 C 110 187 101 167 101 139 C 101 101 110 74 128 60 C 146 46 171 39 205 39 Z" unicode="6" />
<glyph horiz-adv-x="309" d="M 234 344 L 20 344 L 20 390 L 289 390 L 289 350 L 136 0 L 82 0 L 234 344 Z" unicode="7" />
<glyph horiz-adv-x="393" d="M 196 -7 C 140 -7 101 3 78 24 C 54 45 43 73 43 109 C 43 135 48 158 58 177 C 68 195 85 208 108 214 C 88 221 75 232 67 247 C 59 262 56 280 56 300 C 56 314 58 327 62 339 C 66 351 74 361 85 370 C 95 378 110 385 128 390 C 146 395 168 398 196 398 C 223 398 246 395 264 390 C 282 385 296 378 306 370 C 316 361 324 351 328 339 C 332 327 335 314 335 300 C 335 280 331 262 324 246 C 316 230 303 220 285 214 C 308 207 325 194 335 176 C 345 158 350 135 350 109 C 350 73 338 45 314 24 C 290 3 251 -7 196 -7 Z M 196 37 C 232 37 258 43 274 56 C 290 68 298 87 298 113 C 298 138 290 157 274 170 C 258 183 232 190 196 190 C 160 190 134 183 118 170 C 102 157 94 138 94 113 C 94 87 102 68 118 56 C 134 43 160 37 196 37 Z M 196 233 C 230 233 253 238 266 248 C 279 258 286 274 286 294 C 286 313 279 328 266 338 C 253 348 230 353 196 353 C 162 353 138 348 125 338 C 112 328 106 313 106 294 C 106 274 112 258 125 248 C 138 238 162 233 196 233 Z" unicode="8" />
<glyph horiz-adv-x="389" d="M 94 45 L 118 45 C 154 45 183 48 205 54 C 227 60 244 69 256 80 C 268 91 276 104 281 118 C 285 132 289 148 291 164 C 272 139 232 127 172 127 C 146 127 125 130 109 136 C 92 142 79 151 69 163 C 59 174 52 188 48 205 C 44 221 42 240 42 260 C 42 280 44 299 49 316 C 54 333 62 348 74 360 C 85 372 100 381 118 388 C 136 394 159 398 187 398 C 240 398 279 384 305 358 C 331 332 344 289 344 230 C 344 189 340 154 334 125 C 327 96 315 72 298 54 C 280 35 257 21 228 13 C 198 4 161 0 117 0 L 94 0 L 94 45 Z M 186 169 C 218 169 243 175 262 189 C 281 202 291 222 291 250 C 291 288 282 314 264 328 C 246 342 220 350 187 350 C 149 350 124 341 111 325 C 98 309 92 287 92 260 C 92 232 98 209 112 193 C 125 177 150 169 186 169 Z" unicode="9" />
<glyph horiz-adv-x="164" d="M 49 68 L 114 68 L 114 0 L 49 0 L 49 68 Z M 49 294 L 114 294 L 114 226 L 49 226 L 49 294 Z" unicode=":" />
<glyph horiz-adv-x="164" d="M 48 -41 C 61 -34 70 -28 74 -23 C 78 -18 81 -10 81 0 L 49 0 L 49 68 L 114 68 L 114 18 C 114 -5 110 -23 104 -35 C 98 -47 84 -58 63 -69 L 48 -41 Z M 49 294 L 114 294 L 114 226 L 49 226 L 49 294 Z" unicode=";" />
<glyph horiz-adv-x="391" d="M 66 164 L 66 202 L 304 320 L 304 272 L 118 182 L 304 94 L 304 43 L 66 164 Z" unicode="&#x3C;" />
<glyph horiz-adv-x="391" d="M 68 150 L 324 150 L 324 103 L 68 103 L 68 150 Z M 68 269 L 324 269 L 324 221 L 68 221 L 68 269 Z" unicode="=" />
<glyph horiz-adv-x="391" d="M 87 94 L 272 182 L 87 272 L 87 320 L 325 201 L 325 163 L 87 43 L 87 94 Z" unicode="&#x3E;" />
<glyph horiz-adv-x="375" d="M 152 116 C 150 132 149 145 150 157 C 150 168 153 178 158 187 C 162 195 169 203 178 210 C 186 216 198 223 212 230 C 224 236 233 241 241 246 C 249 251 255 256 259 261 C 263 265 267 270 269 276 C 271 282 272 289 272 297 C 272 305 271 312 269 318 C 267 324 263 330 257 334 C 251 338 243 342 232 344 C 221 346 207 348 189 348 C 167 348 147 345 128 341 C 108 336 91 329 75 321 L 53 367 C 70 376 91 383 117 389 C 142 395 167 398 192 398 C 241 398 275 390 295 374 C 314 358 324 333 324 301 C 324 287 322 276 319 266 C 315 256 311 247 305 240 C 299 232 291 225 282 219 C 273 213 263 207 251 201 C 239 195 229 189 222 185 C 215 180 210 175 206 169 C 202 163 200 155 200 147 C 200 139 200 128 202 116 L 152 116 Z M 145 62 L 209 62 L 209 0 L 145 0 L 145 62 Z" unicode="?" />
<glyph horiz-adv-x="589" d="M 299 -87 C 217 -87 155 -67 115 -28 C 75 10 55 71 55 154 C 55 237 75 298 117 338 C 158 378 217 398 294 398 C 372 398 431 378 473 338 C 514 298 535 237 535 154 C 535 128 533 106 531 88 C 528 70 523 56 516 46 C 509 35 500 27 488 23 C 476 18 462 16 444 16 C 429 16 417 17 408 20 C 399 22 392 26 387 30 C 382 34 379 38 377 43 C 375 48 374 53 374 59 C 365 45 353 35 337 29 C 321 22 300 19 272 19 C 250 19 232 22 218 29 C 204 35 192 45 183 57 C 174 69 168 83 164 100 C 160 117 158 136 158 157 C 158 177 160 195 164 212 C 168 228 174 243 183 255 C 192 267 204 277 219 284 C 234 290 252 294 274 294 C 302 294 322 291 336 285 C 350 279 360 269 368 256 L 379 290 L 412 288 L 412 91 C 412 79 414 69 418 60 C 422 50 434 46 453 46 C 464 46 473 47 480 51 C 486 55 491 61 495 70 C 499 78 501 89 502 103 C 503 117 504 134 504 154 C 504 227 486 281 451 315 C 416 349 364 367 294 367 C 225 367 173 349 138 315 C 103 281 86 227 86 154 C 86 82 103 28 138 -5 C 173 -39 227 -57 299 -57 C 327 -57 353 -54 379 -48 C 404 -42 426 -35 444 -27 L 457 -54 C 436 -64 412 -72 386 -78 C 360 -84 331 -87 299 -87 Z M 281 60 C 309 60 330 67 344 81 C 358 95 365 121 365 157 C 365 192 358 216 345 229 C 331 242 310 249 281 249 C 252 249 232 240 221 224 C 210 208 205 185 205 157 C 205 127 210 103 221 86 C 232 68 252 60 281 60 Z" unicode="@" />
<glyph horiz-adv-x="410" d="M 178 393 L 232 393 L 389 0 L 334 0 L 303 82 L 107 82 L 75 0 L 21 0 L 178 393 Z M 283 131 L 204 330 L 125 131 L 283 131 Z" unicode="A" />
<glyph horiz-adv-x="398" d="M 54 390 L 226 390 C 272 390 305 382 326 367 C 346 351 357 327 357 295 C 357 271 353 252 346 236 C 338 220 326 210 309 205 C 331 199 346 189 354 173 C 362 157 367 136 367 108 C 367 67 355 39 331 23 C 307 7 271 0 223 0 L 54 0 L 54 390 Z M 229 48 C 258 48 279 53 293 63 C 307 73 314 89 314 113 C 314 135 307 151 293 161 C 279 171 258 176 228 176 L 107 176 L 107 48 L 229 48 Z M 228 226 C 258 226 278 231 288 242 C 298 253 304 268 304 287 C 304 305 298 318 287 328 C 275 337 256 342 228 342 L 107 342 L 107 226 L 228 226 Z" unicode="B" />
<glyph horiz-adv-x="405" d="M 226 -6 C 158 -6 108 11 78 45 C 47 79 32 129 32 196 C 32 265 49 316 83 349 C 117 381 166 398 229 398 C 259 398 285 393 309 385 C 332 376 352 363 370 346 L 332 307 C 306 333 271 346 228 346 C 132 346 85 295 85 195 C 85 145 96 108 119 82 C 142 56 179 44 229 44 C 257 44 279 47 295 55 C 310 63 323 72 335 84 L 374 48 C 360 34 341 21 319 10 C 297 0 266 -6 226 -6 Z" unicode="C" />
<glyph horiz-adv-x="422" d="M 54 390 L 185 390 C 221 390 253 387 279 381 C 305 375 326 364 343 349 C 359 334 371 314 379 290 C 386 265 390 234 390 196 C 390 158 386 127 378 102 C 370 76 357 56 340 41 C 323 26 301 15 275 9 C 248 3 216 0 179 0 L 54 0 L 54 390 Z M 182 49 C 211 49 236 51 256 57 C 276 62 292 70 304 82 C 316 94 324 109 329 128 C 334 146 337 169 337 196 C 337 223 334 246 330 264 C 326 282 318 297 307 309 C 295 320 280 328 260 333 C 240 337 215 340 185 340 L 108 340 L 108 49 L 182 49 Z" unicode="D" />
<glyph horiz-adv-x="364" d="M 54 390 L 322 390 L 322 340 L 108 340 L 108 228 L 316 228 L 316 177 L 108 177 L 108 49 L 324 49 L 324 0 L 54 0 L 54 390 Z" unicode="E" />
<glyph horiz-adv-x="343" d="M 54 390 L 314 390 L 314 340 L 108 340 L 108 222 L 310 222 L 310 171 L 108 171 L 108 0 L 54 0 L 54 390 Z" unicode="F" />
<glyph horiz-adv-x="433" d="M 226 -6 C 154 -6 104 11 75 45 C 46 79 32 129 32 196 C 32 266 49 318 83 350 C 117 382 165 398 228 398 C 266 398 297 392 321 382 C 344 371 362 359 376 346 L 338 307 C 326 318 311 327 295 335 C 278 342 256 346 228 346 C 132 346 85 295 85 195 C 85 143 95 104 116 79 C 137 53 174 41 228 41 C 252 41 271 43 287 48 C 303 53 315 60 324 70 C 333 80 339 92 343 107 C 347 121 349 139 349 159 L 349 169 L 222 169 L 222 216 L 401 216 L 401 168 C 401 140 398 116 394 95 C 389 73 380 55 367 40 C 354 25 336 14 314 6 C 291 -2 262 -6 226 -6 Z" unicode="G" />
<glyph horiz-adv-x="435" d="M 54 390 L 108 390 L 108 230 L 327 230 L 327 390 L 381 390 L 381 0 L 327 0 L 327 177 L 108 177 L 108 0 L 54 0 L 54 390 Z" unicode="H" />
<glyph horiz-adv-x="169" d="M 58 390 L 111 390 L 111 0 L 58 0 L 58 390 Z" unicode="I" />
<glyph horiz-adv-x="238" d="M 69 -1 C 57 -1 49 -1 44 -1 C 38 -1 32 0 24 0 L 24 49 L 64 49 C 89 49 107 54 118 65 C 128 75 134 92 134 116 L 134 390 L 187 390 L 187 114 C 187 71 176 41 156 24 C 136 7 107 -1 69 -1 Z" unicode="J" />
<glyph horiz-adv-x="399" d="M 54 390 L 107 390 L 107 186 L 290 390 L 352 390 L 214 236 L 370 0 L 310 0 L 179 197 L 107 117 L 107 0 L 54 0 L 54 390 Z" unicode="K" />
<glyph horiz-adv-x="334" d="M 54 390 L 108 390 L 108 49 L 311 49 L 311 0 L 54 0 L 54 390 Z" unicode="L" />
<glyph horiz-adv-x="511" d="M 54 390 L 124 390 L 256 75 L 388 390 L 457 390 L 457 0 L 404 0 L 404 302 L 277 0 L 232 0 L 106 301 L 106 0 L 54 0 L 54 390 Z" unicode="M" />
<glyph horiz-adv-x="437" d="M 54 390 L 112 390 L 331 90 L 331 390 L 383 390 L 383 0 L 333 0 L 106 313 L 106 0 L 54 0 L 54 390 Z" unicode="N" />
<glyph horiz-adv-x="463" d="M 231 -6 C 168 -6 119 9 84 41 C 49 73 32 124 32 196 C 32 266 49 318 84 350 C 119 382 168 398 231 398 C 293 398 342 382 377 350 C 412 318 430 266 430 196 C 430 124 412 73 377 41 C 342 9 293 -6 231 -6 Z M 231 43 C 281 43 318 56 342 82 C 365 108 377 146 377 195 C 377 243 365 280 342 306 C 318 332 281 346 231 346 C 179 346 142 332 119 306 C 96 280 85 243 85 195 C 85 146 96 108 119 82 C 142 56 179 43 231 43 Z" unicode="O" />
<glyph horiz-adv-x="400" d="M 54 390 L 230 390 C 279 390 314 380 336 360 C 357 340 368 310 368 270 C 368 230 357 198 336 175 C 314 152 278 141 228 141 L 107 141 L 107 0 L 54 0 L 54 390 Z M 230 191 C 258 191 279 196 293 208 C 307 219 315 239 315 268 C 315 296 308 315 294 325 C 280 335 258 341 228 341 L 107 341 L 107 191 L 230 191 Z" unicode="P" />
<glyph horiz-adv-x="463" d="M 295 -99 C 273 -99 255 -97 241 -93 C 227 -89 216 -83 208 -75 C 200 -67 194 -56 192 -42 C 190 -30 189 -16 191 0 C 146 4 110 19 83 43 C 49 73 32 124 32 196 C 32 266 49 318 83 350 C 117 382 166 398 231 398 C 295 398 345 382 379 350 C 413 318 430 266 430 196 C 430 124 413 73 379 43 C 347 14 301 -1 242 -3 C 242 -11 242 -17 243 -23 C 243 -31 245 -37 249 -41 C 253 -45 258 -48 266 -50 C 273 -52 283 -53 295 -53 L 339 -53 L 339 -98 C 335 -98 329 -98 320 -98 C 310 -98 302 -99 295 -99 Z M 231 43 C 284 43 322 56 344 82 C 366 108 377 146 377 195 C 377 243 366 280 344 306 C 322 332 284 346 231 346 C 177 346 140 332 118 306 C 96 280 85 243 85 195 C 85 146 96 108 118 82 C 140 56 177 43 231 43 Z" unicode="Q" />
<glyph horiz-adv-x="406" d="M 54 390 L 228 390 C 278 390 313 380 334 360 C 354 340 365 311 365 273 C 365 235 354 205 333 183 C 319 168 298 158 271 153 L 359 0 L 303 0 L 216 150 L 107 150 L 107 0 L 54 0 L 54 390 Z M 227 200 C 254 200 275 204 290 214 C 304 223 312 242 312 271 C 312 299 304 317 290 327 C 275 336 254 341 226 341 L 107 341 L 107 200 L 227 200 Z" unicode="R" />
<glyph horiz-adv-x="396" d="M 197 -5 C 165 -5 135 -1 107 5 C 79 12 53 24 29 41 L 56 82 C 79 67 102 56 125 50 C 148 44 171 41 195 41 C 235 41 264 46 281 57 C 297 68 306 85 306 109 C 306 121 303 131 298 139 C 292 147 285 153 275 158 C 265 162 254 166 240 169 C 226 171 211 174 195 177 C 173 181 153 185 135 189 C 117 193 101 200 89 208 C 76 216 66 226 59 239 C 52 251 49 268 49 288 C 49 328 61 356 86 373 C 110 389 147 398 196 398 C 229 398 257 394 281 387 C 304 380 323 372 339 362 L 310 317 C 296 326 279 333 259 339 C 239 345 218 348 196 348 C 162 348 138 343 124 334 C 110 325 103 310 103 289 C 103 267 112 252 130 245 C 148 237 175 231 209 226 C 231 222 251 217 269 213 C 287 209 302 203 316 195 C 329 187 339 176 347 163 C 354 150 358 133 358 112 C 358 72 345 43 320 24 C 294 4 253 -5 197 -5 Z" unicode="S" />
<glyph horiz-adv-x="386" d="M 167 340 L 22 340 L 22 390 L 363 390 L 363 340 L 220 340 L 220 0 L 167 0 L 167 340 Z" unicode="T" />
<glyph horiz-adv-x="435" d="M 217 -7 C 181 -7 152 -2 130 5 C 108 13 91 25 79 39 C 67 53 60 69 56 87 C 52 105 51 123 51 143 L 51 390 L 105 390 L 105 149 C 105 133 106 118 109 105 C 112 92 118 81 126 72 C 134 62 146 55 161 50 C 175 45 194 43 218 43 C 241 43 260 45 275 50 C 290 55 302 62 310 71 C 318 80 324 91 327 105 C 330 118 332 133 332 149 L 332 390 L 385 390 L 385 143 C 385 123 383 105 379 87 C 375 69 368 53 356 39 C 344 25 327 13 305 5 C 283 -2 253 -7 217 -7 Z" unicode="U" />
<glyph horiz-adv-x="409" d="M 22 390 L 78 390 L 206 64 L 332 390 L 388 390 L 232 -3 L 178 -3 L 22 390 Z" unicode="V" />
<glyph horiz-adv-x="591" d="M 26 390 L 82 390 L 177 87 L 274 390 L 321 390 L 418 87 L 513 390 L 565 390 L 441 -3 L 394 -3 L 296 304 L 198 -3 L 151 -3 L 26 390 Z" unicode="W" />
<glyph horiz-adv-x="404" d="M 176 210 L 185 217 L 304 390 L 362 390 L 228 200 L 218 192 L 88 0 L 29 0 L 176 210 Z M 42 390 L 102 390 L 376 0 L 315 0 L 42 390 Z" unicode="X" />
<glyph horiz-adv-x="398" d="M 15 390 L 73 390 L 200 196 L 326 390 L 382 390 L 225 148 L 225 0 L 173 0 L 173 147 L 15 390 Z" unicode="Y" />
<glyph horiz-adv-x="374" d="M 33 42 L 269 340 L 41 340 L 41 390 L 335 390 L 335 344 L 101 49 L 342 49 L 342 0 L 33 0 L 33 42 Z" unicode="Z" />
<glyph horiz-adv-x="271" d="M 73 409 L 210 409 L 210 363 L 125 363 L 125 -41 L 212 -41 L 212 -87 L 73 -87 L 73 409 Z" unicode="[" />
<glyph horiz-adv-x="292" d="M 10 390 L 63 390 L 282 0 L 228 0 L 10 390 Z" unicode="\" />
<glyph horiz-adv-x="271" d="M 60 -41 L 146 -41 L 146 363 L 60 363 L 60 409 L 197 409 L 197 -87 L 60 -87 L 60 -41 Z" unicode="]" />
<glyph horiz-adv-x="331" d="M 138 418 L 193 418 L 274 331 L 224 331 L 164 385 L 106 331 L 57 331 L 138 418 Z" unicode="^" />
<glyph horiz-adv-x="259" d="M -10 -28 L 269 -28 L 269 -70 L -10 -70 L -10 -28 Z" unicode="_" />
<glyph horiz-adv-x="331" d="M 69 430 L 132 430 L 210 343 L 162 343 L 69 430 Z" unicode="`" />
<glyph horiz-adv-x="351" d="M 136 -5 C 114 -5 97 -2 83 2 C 69 6 59 13 51 21 C 43 29 38 38 35 49 C 32 59 31 71 31 83 C 31 103 34 121 40 135 C 46 149 57 160 72 168 C 87 176 107 182 132 186 C 156 189 187 191 224 191 L 246 191 L 246 147 L 226 147 C 196 147 171 146 152 144 C 133 142 118 138 108 134 C 97 130 90 124 86 116 C 82 108 80 99 80 87 C 80 71 84 59 93 51 C 101 43 118 39 144 39 C 178 39 202 46 217 60 C 232 74 240 97 240 129 L 240 182 C 240 194 239 204 238 213 C 236 222 233 229 228 235 C 223 241 216 245 206 248 C 196 250 183 252 167 252 C 147 252 130 249 116 244 C 101 238 89 233 80 228 L 53 268 C 63 274 78 280 100 288 C 121 296 145 300 172 300 C 196 300 216 297 232 293 C 247 289 259 282 268 272 C 276 262 282 250 285 235 C 287 220 289 202 289 182 L 289 78 C 289 63 290 54 293 50 C 296 46 305 45 319 45 L 319 1 C 316 0 309 -1 297 -1 C 281 -1 269 1 263 6 C 256 11 251 20 247 33 C 238 20 225 10 208 4 C 191 -1 167 -5 136 -5 Z" unicode="a" />
<glyph horiz-adv-x="366" d="M 204 -5 C 172 -5 147 -2 131 3 C 115 9 102 18 93 31 L 84 -2 L 48 2 L 48 409 L 100 409 L 100 265 C 107 277 119 285 136 291 C 153 297 177 300 207 300 C 231 300 252 296 268 288 C 284 280 296 270 306 257 C 316 243 322 227 326 209 C 330 190 332 169 332 147 C 332 125 330 104 326 86 C 322 67 315 51 305 37 C 295 23 282 13 266 6 C 249 -1 228 -5 204 -5 Z M 195 40 C 228 40 250 49 262 68 C 274 87 280 113 280 145 C 280 177 274 203 263 222 C 251 241 229 251 195 251 C 160 251 135 243 121 227 C 107 211 100 184 100 145 C 100 106 107 79 121 63 C 135 47 159 40 195 40 Z" unicode="b" />
<glyph horiz-adv-x="320" d="M 177 -5 C 149 -5 125 -1 107 6 C 89 13 74 23 63 37 C 52 50 44 66 40 85 C 36 103 34 124 34 147 C 34 169 36 190 40 209 C 44 227 52 243 63 257 C 74 271 89 281 108 289 C 126 296 150 300 179 300 C 205 300 226 295 244 287 C 262 279 276 268 288 256 L 250 221 C 243 228 234 235 223 241 C 212 247 197 250 179 250 C 143 250 118 240 105 222 C 91 204 85 178 85 146 C 85 112 91 86 104 68 C 117 49 142 40 179 40 C 195 40 208 42 219 47 C 230 52 241 60 253 71 L 287 38 C 271 24 255 13 239 6 C 223 -1 202 -5 177 -5 Z" unicode="c" />
<glyph horiz-adv-x="366" d="M 159 -5 C 134 -5 114 -1 98 6 C 82 13 69 23 59 37 C 49 51 43 67 39 86 C 35 104 34 125 34 148 C 34 170 36 190 40 209 C 44 227 50 243 60 257 C 70 271 83 281 99 289 C 115 296 136 300 161 300 C 191 300 215 297 231 291 C 247 285 258 276 266 265 L 266 409 L 318 409 L 318 2 L 279 -2 L 273 33 C 263 19 250 10 233 4 C 215 -2 191 -5 159 -5 Z M 171 41 C 205 41 230 49 244 65 C 258 81 266 109 266 148 C 266 186 259 213 245 228 C 231 243 206 251 171 251 C 137 251 115 241 103 223 C 91 205 86 180 86 148 C 86 115 91 89 103 70 C 115 50 137 41 171 41 Z" unicode="d" />
<glyph horiz-adv-x="336" d="M 178 -6 C 148 -6 123 -2 104 6 C 85 14 70 24 60 38 C 50 52 43 68 39 87 C 35 105 34 125 34 147 C 34 168 35 188 39 207 C 43 225 50 241 61 255 C 71 269 86 280 105 288 C 123 296 147 300 177 300 C 207 300 230 295 247 285 C 263 275 276 263 284 247 C 292 231 296 212 298 191 C 299 170 300 149 300 127 L 53 127 L 54 172 L 251 172 C 250 183 249 194 248 204 C 246 214 243 222 238 230 C 233 237 226 243 216 247 C 206 251 192 254 175 254 C 155 254 140 251 128 246 C 116 240 106 233 100 224 C 93 214 88 203 86 190 C 84 176 83 162 83 146 C 83 130 84 115 86 102 C 88 88 93 77 100 68 C 106 58 116 51 129 46 C 141 40 158 38 178 38 C 201 38 219 40 233 46 C 247 51 259 58 271 68 L 298 32 C 282 19 265 9 247 3 C 229 -2 206 -6 178 -6 Z" unicode="e" />
<glyph horiz-adv-x="251" d="M 91 314 C 91 343 97 366 110 383 C 122 400 147 409 184 409 L 228 409 L 228 365 L 190 365 C 170 365 157 360 151 350 C 145 340 142 328 142 314 L 142 0 L 91 0 L 91 314 Z M 25 294 L 228 294 L 228 247 L 25 247 L 25 294 Z" unicode="f" />
<glyph horiz-adv-x="342" d="M 166 107 C 147 107 131 108 117 111 C 112 105 110 99 110 93 C 110 83 114 78 122 76 C 130 74 145 73 169 73 C 196 73 219 71 237 69 C 255 66 270 62 281 56 C 292 50 300 42 305 32 C 309 22 312 9 312 -5 C 312 -37 300 -60 278 -74 C 256 -88 218 -95 164 -95 C 114 -95 79 -90 57 -80 C 35 -70 24 -51 24 -22 C 24 -5 28 9 36 23 C 44 36 58 45 80 50 C 69 58 64 69 64 85 C 64 95 66 104 70 114 C 72 118 74 122 76 126 C 74 127 72 128 71 130 C 51 145 41 169 41 202 C 41 234 50 259 70 275 C 90 291 122 300 166 300 C 172 300 178 299 184 299 L 300 316 L 300 274 L 252 274 C 262 268 271 260 277 252 C 285 240 290 223 290 202 C 290 169 280 145 260 130 C 240 114 209 107 166 107 Z M 166 -54 C 185 -54 201 -53 213 -51 C 225 -49 234 -46 241 -42 C 248 -38 253 -33 256 -27 C 258 -21 260 -14 260 -7 C 260 8 253 18 239 23 C 225 27 201 30 166 30 C 146 30 130 28 118 26 C 106 24 97 21 91 17 C 85 13 81 9 79 4 C 77 -1 76 -7 76 -13 C 76 -28 83 -39 97 -45 C 111 -51 134 -54 166 -54 Z M 166 149 C 193 149 212 153 223 161 C 234 169 240 183 240 202 C 240 220 234 233 222 241 C 210 249 191 253 166 253 C 138 253 118 249 107 241 C 95 233 90 220 90 202 C 90 183 95 169 107 161 C 118 153 138 149 166 149 Z" unicode="g" />
<glyph horiz-adv-x="354" d="M 48 409 L 100 409 L 100 268 C 105 276 115 283 131 290 C 146 296 169 300 201 300 C 223 300 242 297 256 291 C 270 285 280 276 288 266 C 296 256 301 243 303 228 C 305 213 307 197 307 179 L 307 0 L 255 0 L 255 169 C 255 181 254 191 253 201 C 252 211 249 219 245 226 C 240 233 233 239 223 243 C 213 247 200 249 184 249 C 166 249 151 246 140 242 C 129 238 121 232 115 224 C 109 216 105 207 103 197 C 101 187 100 175 100 163 L 100 0 L 48 0 L 48 409 Z" unicode="h" />
<glyph horiz-adv-x="163" d="M 56 294 L 107 294 L 107 0 L 56 0 L 56 294 Z M 55 404 L 108 404 L 108 343 L 55 343 L 55 404 Z" unicode="i" />
<glyph horiz-adv-x="163" d="M 16 -46 L 20 -46 C 35 -46 45 -43 49 -37 C 53 -31 56 -20 56 -3 L 56 294 L 107 294 L 107 -3 C 107 -19 105 -33 103 -44 C 101 -55 97 -64 91 -71 C 85 -77 76 -82 66 -85 C 55 -87 41 -89 25 -89 L 16 -89 L 16 -46 Z M 55 404 L 108 404 L 108 343 L 55 343 L 55 404 Z" unicode="j" />
<glyph horiz-adv-x="315" d="M 48 409 L 99 409 L 99 143 L 228 294 L 285 294 L 182 171 L 296 0 L 239 0 L 147 135 L 99 79 L 99 0 L 48 0 L 48 409 Z" unicode="k" />
<glyph horiz-adv-x="191" d="M 122 -1 C 97 -1 80 4 70 16 C 60 28 56 48 56 76 L 56 409 L 107 409 L 107 81 C 107 67 108 58 112 53 C 116 47 125 45 140 45 L 161 45 L 161 1 C 158 0 152 0 144 0 C 135 0 128 -1 122 -1 Z" unicode="l" />
<glyph horiz-adv-x="548" d="M 48 290 L 88 294 L 92 266 C 98 275 109 283 125 290 C 141 296 165 300 197 300 C 228 300 250 296 263 289 C 275 282 283 273 287 263 C 294 273 306 282 323 289 C 340 296 365 300 399 300 C 422 300 440 297 454 291 C 468 285 478 276 485 266 C 492 256 497 243 499 228 C 501 213 502 197 502 179 L 502 0 L 451 0 L 451 169 C 451 181 450 191 449 201 C 448 211 445 219 441 226 C 437 233 430 239 421 243 C 412 247 399 249 383 249 C 365 249 350 246 339 242 C 328 238 320 232 314 224 C 308 216 305 207 303 197 C 301 187 300 175 300 163 L 300 0 L 250 0 L 250 169 C 250 181 249 191 248 201 C 247 211 244 219 240 226 C 236 233 229 239 220 243 C 211 247 198 249 182 249 C 164 249 149 246 139 242 C 128 238 120 232 114 224 C 108 216 104 207 102 197 C 100 187 100 175 100 163 L 100 0 L 48 0 L 48 290 Z" unicode="m" />
<glyph horiz-adv-x="354" d="M 48 290 L 88 294 L 92 266 C 99 274 111 282 127 289 C 143 296 167 300 201 300 C 223 300 242 297 256 291 C 270 285 280 276 288 266 C 296 256 301 243 303 228 C 305 213 307 197 307 179 L 307 0 L 255 0 L 255 169 C 255 181 254 191 253 201 C 252 211 249 219 245 226 C 240 233 233 239 223 243 C 213 247 200 249 184 249 C 166 249 151 246 140 242 C 129 238 121 232 115 224 C 109 216 105 207 103 197 C 101 187 100 175 100 163 L 100 0 L 48 0 L 48 290 Z" unicode="n" />
<glyph horiz-adv-x="357" d="M 178 -6 C 126 -6 89 7 67 33 C 45 59 34 97 34 147 C 34 197 45 235 67 261 C 89 287 126 300 178 300 C 230 300 267 287 289 261 C 311 235 323 197 323 147 C 323 97 311 59 289 33 C 267 7 230 -6 178 -6 Z M 178 40 C 212 40 236 49 250 67 C 264 85 271 112 271 146 C 271 180 264 206 250 224 C 236 242 212 251 178 251 C 143 251 119 242 105 224 C 91 206 85 180 85 146 C 85 112 91 85 105 67 C 119 49 143 40 178 40 Z" unicode="o" />
<glyph horiz-adv-x="366" d="M 48 290 L 88 294 L 92 262 C 100 274 113 284 131 290 C 148 296 173 300 207 300 C 231 300 252 296 268 288 C 284 280 296 270 306 257 C 316 243 322 227 326 209 C 330 190 332 169 332 147 C 332 125 330 104 326 86 C 322 67 315 51 306 37 C 296 23 283 13 267 6 C 250 -1 229 -5 205 -5 C 174 -5 151 -2 135 4 C 119 10 107 19 100 31 L 100 -87 L 48 -87 L 48 290 Z M 195 41 C 228 41 250 50 262 69 C 274 87 280 113 280 145 C 280 177 274 203 263 222 C 251 241 229 251 195 251 C 160 251 135 243 121 227 C 107 211 100 184 100 145 C 100 106 107 79 121 64 C 135 48 159 41 195 41 Z" unicode="p" />
<glyph horiz-adv-x="366" d="M 266 30 C 256 16 244 7 228 2 C 212 -2 189 -5 159 -5 C 134 -5 114 -1 98 6 C 82 13 69 23 59 37 C 49 51 43 67 39 86 C 35 104 34 125 34 147 C 34 169 36 190 40 209 C 44 227 50 243 60 257 C 70 270 83 280 99 288 C 115 296 136 300 161 300 C 193 300 217 297 234 291 C 250 285 263 277 273 265 L 282 297 L 318 294 L 318 -87 L 266 -87 L 266 30 Z M 171 41 C 205 41 230 49 244 65 C 258 81 266 109 266 147 C 266 186 259 213 245 228 C 231 243 206 251 171 251 C 137 251 115 241 103 223 C 91 205 86 179 86 147 C 86 115 91 89 103 70 C 115 50 137 41 171 41 Z" unicode="q" />
<glyph horiz-adv-x="226" d="M 48 290 L 88 294 L 93 257 C 99 267 113 276 133 284 C 153 292 177 296 203 297 L 203 245 C 163 245 135 236 121 220 C 107 203 100 181 100 154 L 100 0 L 48 0 L 48 290 Z" unicode="r" />
<glyph horiz-adv-x="302" d="M 150 -5 C 128 -5 107 -2 85 2 C 63 6 43 15 23 29 L 49 69 C 66 57 84 49 102 45 C 120 41 137 39 153 39 C 178 39 196 41 207 47 C 217 53 223 64 223 82 C 223 96 217 106 207 111 C 197 115 179 120 153 126 C 135 128 120 131 106 135 C 92 139 80 144 70 150 C 60 156 52 165 46 175 C 40 185 38 199 38 216 C 38 243 46 264 64 278 C 81 292 111 300 153 300 C 175 300 196 297 215 293 C 234 288 250 282 264 274 L 241 232 C 229 238 216 242 202 246 C 187 250 171 252 154 252 C 128 252 111 248 102 242 C 93 236 89 227 89 216 C 89 202 94 192 104 187 C 114 182 131 177 155 173 C 173 169 189 166 204 163 C 218 159 231 154 241 148 C 251 142 258 134 264 124 C 270 114 273 100 273 84 C 273 50 263 27 244 14 C 225 1 194 -5 150 -5 Z" unicode="s" />
<glyph horiz-adv-x="260" d="M 171 -1 C 153 -1 139 0 128 4 C 117 7 109 12 103 19 C 97 25 92 34 90 44 C 88 54 87 66 87 80 L 87 277 L 97 377 L 138 384 L 138 87 C 138 73 140 63 145 56 C 149 48 161 45 181 45 L 226 45 L 226 0 C 224 0 221 0 216 0 C 211 0 206 -1 200 -1 C 194 -1 188 -1 182 -1 C 176 -1 173 -1 171 -1 Z M 25 294 L 226 294 L 226 247 L 25 247 L 25 294 Z" unicode="t" />
<glyph horiz-adv-x="350" d="M 176 -5 C 148 -5 125 -2 108 3 C 90 9 77 17 68 28 C 59 39 53 53 50 69 C 47 85 46 104 46 126 L 46 294 L 98 294 L 98 125 C 98 113 98 102 99 92 C 100 82 103 73 108 65 C 113 57 121 51 131 47 C 141 43 156 41 176 41 C 195 41 210 43 221 47 C 231 51 239 57 244 65 C 248 73 251 82 252 92 C 252 102 253 114 253 126 L 253 294 L 304 294 L 304 127 C 304 105 302 85 299 69 C 296 53 290 39 281 28 C 272 17 259 9 243 3 C 226 -2 204 -5 176 -5 Z" unicode="u" />
<glyph horiz-adv-x="317" d="M 14 294 L 69 294 L 158 59 L 249 294 L 303 294 L 185 -3 L 131 -3 L 14 294 Z" unicode="v" />
<glyph horiz-adv-x="489" d="M 17 294 L 71 294 L 147 72 L 219 294 L 270 294 L 343 72 L 419 294 L 471 294 L 368 -3 L 317 -3 L 244 215 L 172 -3 L 119 -3 L 17 294 Z" unicode="w" />
<glyph horiz-adv-x="314" d="M 131 158 L 142 167 L 230 294 L 286 294 L 183 149 L 173 142 L 74 0 L 18 0 L 131 158 Z M 28 294 L 85 294 L 294 0 L 238 0 L 28 294 Z" unicode="x" />
<glyph horiz-adv-x="307" d="M 14 294 L 69 294 L 155 64 L 240 294 L 293 294 L 170 -25 C 160 -47 149 -64 136 -74 C 122 -84 103 -89 78 -89 L 50 -89 L 50 -46 L 73 -46 C 87 -46 98 -44 104 -40 C 110 -36 114 -30 118 -20 L 127 5 L 14 294 Z" unicode="y" />
<glyph horiz-adv-x="290" d="M 25 37 L 193 247 L 35 247 L 35 294 L 260 294 L 260 254 L 92 43 L 265 43 L 265 0 L 25 0 L 25 37 Z" unicode="z" />
<glyph horiz-adv-x="291" d="M 183 -87 C 149 -87 125 -81 111 -69 C 97 -57 90 -40 90 -16 C 90 -8 91 1 94 13 C 97 25 100 37 104 49 C 107 61 110 73 113 84 C 116 95 118 104 118 112 C 118 123 113 130 103 134 C 93 137 76 139 51 139 L 51 183 C 75 183 92 184 102 187 C 112 189 118 197 118 211 C 118 217 116 226 113 237 C 110 248 107 260 104 272 C 100 284 97 297 94 309 C 91 321 90 331 90 339 C 90 362 97 379 111 391 C 125 403 149 409 183 409 L 231 409 L 231 363 L 194 363 C 173 363 159 360 153 354 C 146 348 143 338 143 325 C 143 319 144 310 147 300 C 149 290 152 279 156 267 C 160 255 163 243 166 231 C 168 219 170 210 170 202 C 170 181 159 168 139 162 C 159 154 170 141 170 121 C 170 113 168 103 166 91 C 163 79 160 67 156 55 C 152 43 149 31 147 21 C 144 10 143 2 143 -4 C 143 -17 146 -26 153 -32 C 159 -38 173 -41 194 -41 L 231 -41 L 231 -87 L 183 -87 L 183 -87 Z" unicode="{" />
<glyph horiz-adv-x="198" d="M 73 409 L 125 409 L 125 -87 L 73 -87 L 73 409 Z" unicode="|" />
<glyph horiz-adv-x="291" d="M 59 -41 L 97 -41 C 117 -41 131 -38 138 -32 C 144 -26 148 -17 148 -4 C 148 2 146 10 144 21 C 141 31 138 43 134 55 C 130 67 127 79 125 91 C 122 103 121 113 121 121 C 121 140 131 154 152 162 C 140 165 132 170 128 177 C 123 183 121 192 121 202 C 121 210 122 219 125 231 C 127 243 130 255 134 267 C 138 279 141 290 144 300 C 146 310 148 319 148 325 C 148 338 144 348 138 354 C 131 360 117 363 97 363 L 59 363 L 59 409 L 108 409 C 142 409 166 403 180 391 C 194 379 201 362 201 339 C 201 331 199 321 196 309 C 193 297 190 284 186 272 C 182 260 179 248 176 237 C 173 226 172 217 172 211 C 172 199 177 191 187 188 C 197 184 214 183 240 183 L 240 139 C 216 139 198 137 188 135 C 177 132 172 124 172 112 C 172 104 173 95 176 84 C 179 73 182 61 186 49 C 190 37 193 25 196 13 C 199 1 201 -8 201 -16 C 201 -40 194 -57 180 -69 C 166 -81 142 -87 108 -87 L 59 -87 L 59 -41 Z" unicode="}" />
<glyph horiz-adv-x="331" d="M 57 262 C 67 275 79 285 91 293 C 103 301 116 305 128 305 C 136 305 144 303 151 301 C 157 298 163 295 169 292 C 174 289 179 286 184 284 C 189 281 195 280 202 280 C 208 280 215 282 222 288 C 228 293 236 300 244 309 L 274 284 C 263 270 251 259 239 250 C 227 240 215 236 203 236 C 195 236 187 237 181 240 C 174 242 168 245 163 249 C 157 253 152 256 146 259 C 140 261 135 263 129 263 C 116 263 103 254 89 237 L 57 262 Z" unicode="~" />
<glyph horiz-adv-x="122" d="" unicode=" " />
<glyph horiz-adv-x="215" d="M 85 269 L 131 269 L 136 0 L 79 0 L 85 269 Z M 75 390 L 140 390 L 140 322 L 75 322 L 75 390 Z" unicode="¡" />
<glyph horiz-adv-x="319" d="M 152 14 L 155 23 L 155 273 L 152 280 L 152 332 L 201 332 L 201 281 L 197 273 L 197 21 L 201 12 L 201 -49 L 152 -49 L 152 14 Z M 177 -4 C 149 -4 125 0 107 7 C 89 14 74 24 64 38 C 53 51 45 67 41 85 C 37 103 35 124 35 147 C 35 169 37 190 41 209 C 45 227 53 243 64 257 C 75 270 90 280 108 288 C 126 295 150 299 179 299 C 205 299 226 295 243 287 C 260 279 274 268 286 256 L 250 222 C 243 229 234 236 224 242 C 213 248 198 251 179 251 C 143 251 118 241 104 223 C 90 205 84 179 84 146 C 84 112 90 86 104 67 C 117 48 142 39 179 39 C 195 39 209 41 220 46 C 230 51 241 59 253 70 L 286 38 C 270 24 255 14 239 7 C 223 0 202 -4 177 -4 Z" unicode="¢" />
<glyph horiz-adv-x="351" d="M 26 222 L 77 222 C 75 230 74 238 72 247 C 68 264 66 280 66 294 C 66 309 68 323 72 336 C 76 348 82 359 92 369 C 101 378 113 385 128 390 C 143 395 162 398 185 398 C 206 398 225 396 242 392 C 259 388 276 383 292 377 L 273 333 C 259 338 245 342 230 345 C 214 347 199 349 184 349 C 158 349 140 343 130 332 C 120 320 116 305 116 287 C 116 275 117 261 121 246 C 123 238 125 230 127 222 L 242 222 L 242 180 L 137 180 C 139 168 142 157 144 147 C 148 131 150 116 150 102 C 150 86 148 73 145 61 C 151 58 158 55 166 52 C 186 44 206 41 228 41 C 248 41 261 45 267 53 C 273 61 276 75 276 93 L 276 106 L 320 106 L 320 92 C 320 57 313 32 300 18 C 287 3 264 -4 230 -4 C 202 -4 176 0 152 9 C 140 13 130 17 122 22 C 114 16 103 11 90 7 C 74 2 55 0 31 0 L 31 44 C 47 44 61 45 71 47 C 81 49 88 53 93 57 C 97 61 100 67 102 75 C 103 82 104 91 104 101 C 104 113 102 127 98 143 C 94 155 91 167 88 180 L 26 180 L 26 222 Z" unicode="£" />
<glyph horiz-adv-x="288" d="M 264 98 L 235 71 L 185 125 C 173 117 159 113 143 113 C 127 113 114 117 102 125 L 52 71 L 23 98 L 75 152 C 70 158 67 165 65 171 C 63 177 63 185 63 195 C 63 203 63 210 65 217 C 67 224 70 231 75 238 L 23 292 L 52 319 L 102 265 C 114 273 127 277 143 277 C 159 277 173 273 185 265 L 236 319 L 265 289 L 213 238 C 217 231 220 224 222 218 C 224 211 225 203 225 195 C 225 179 220 164 212 152 L 264 98 Z M 187 195 C 187 208 182 219 174 227 C 166 235 155 240 143 240 C 130 240 120 235 112 227 C 104 219 100 208 100 195 C 100 181 104 171 112 163 C 120 155 131 151 143 151 C 156 151 167 155 175 163 C 183 171 187 181 187 195 Z" unicode="¤" />
<glyph horiz-adv-x="358" d="M 17 390 L 72 390 L 179 213 L 286 390 L 341 390 L 201 165 L 156 165 L 17 390 Z M 46 83 L 312 83 L 312 40 L 46 40 L 46 83 Z M 153 188 L 204 188 L 204 0 L 153 0 L 153 188 Z M 46 166 L 312 166 L 312 122 L 46 122 L 46 166 Z" unicode="¥" />
<glyph horiz-adv-x="198" d="M 73 119 L 125 119 L 125 -87 L 73 -87 L 73 119 Z M 73 409 L 125 409 L 125 203 L 73 203 L 73 409 Z" unicode="¦" />
<glyph horiz-adv-x="316" d="M 127 299 C 127 312 128 324 130 336 C 132 348 136 358 143 366 C 149 374 159 381 171 386 C 183 391 200 394 221 394 C 226 394 232 393 240 393 C 247 393 252 393 255 393 L 255 349 L 226 349 C 204 349 190 344 185 335 C 180 325 178 313 178 299 L 178 275 C 207 273 230 266 246 256 C 266 243 276 223 276 195 C 276 167 266 146 246 134 C 231 124 211 119 185 117 L 185 92 C 185 78 184 66 182 54 C 180 42 175 32 169 24 C 163 15 153 8 141 3 C 128 -1 111 -4 91 -4 L 72 -4 C 65 -4 60 -3 57 -3 L 57 39 L 86 39 C 107 39 120 43 126 53 C 131 63 134 75 134 90 L 134 116 C 106 118 84 124 69 134 C 49 146 40 167 40 195 C 40 223 49 243 69 256 C 83 265 102 271 127 274 L 127 299 Z M 157 151 C 208 151 234 165 234 194 C 234 209 227 220 215 226 C 202 232 183 236 157 236 C 131 236 112 232 100 226 C 88 220 82 209 82 194 C 82 165 107 151 157 151 Z" unicode="§" />
<glyph horiz-adv-x="331" d="M 85 404 L 133 404 L 133 344 L 85 344 L 85 404 Z M 200 404 L 246 404 L 246 344 L 200 344 L 200 404 Z" unicode="¨" />
<glyph horiz-adv-x="456" d="M 231 64 C 188 64 156 75 134 98 C 112 120 102 154 102 198 C 102 244 113 277 137 299 C 160 320 192 331 232 331 C 270 331 302 320 326 298 L 301 272 C 292 279 282 285 270 290 C 258 294 245 297 232 297 C 202 297 178 288 162 272 C 146 255 138 230 138 198 C 138 131 169 98 232 98 C 250 98 265 100 276 105 C 287 110 297 116 305 124 L 327 100 C 317 90 305 82 291 75 C 276 67 256 64 231 64 Z M 226 -6 C 193 -6 164 -1 140 9 C 116 19 96 33 80 51 C 64 69 52 90 44 115 C 36 139 32 166 32 196 C 32 225 36 252 44 277 C 52 301 64 323 80 341 C 96 359 116 373 140 383 C 164 393 193 398 226 398 C 258 398 287 393 312 383 C 336 373 357 359 374 341 C 390 323 403 301 411 277 C 419 252 423 225 423 196 C 423 166 419 139 411 115 C 403 90 390 69 374 51 C 357 33 336 19 312 9 C 287 -1 258 -6 226 -6 Z M 226 16 C 256 16 282 20 304 29 C 326 38 344 51 358 67 C 372 83 383 102 390 124 C 396 146 400 170 400 196 C 400 222 396 246 390 268 C 383 290 372 308 358 324 C 344 340 326 352 304 361 C 282 370 256 375 226 375 C 196 375 170 370 149 361 C 127 352 110 340 96 324 C 82 308 71 290 65 268 C 58 246 55 222 55 196 C 55 170 58 146 65 124 C 71 102 82 83 96 67 C 110 51 127 38 149 29 C 170 20 196 16 226 16 Z" unicode="©" />
<glyph horiz-adv-x="334" d="M 126 148 C 95 148 73 154 61 168 C 49 182 43 199 43 221 C 43 255 55 278 81 290 C 106 302 146 309 201 309 L 212 309 C 210 325 207 336 202 344 C 196 352 180 357 154 357 C 140 357 127 354 115 350 C 103 346 93 342 86 338 L 64 370 C 71 375 83 381 100 387 C 117 393 136 397 158 397 C 178 397 195 395 207 391 C 219 387 229 382 236 374 C 243 366 248 356 250 344 C 252 332 254 317 254 301 L 254 218 C 254 206 255 199 257 196 C 259 193 266 192 278 192 L 278 152 L 261 152 C 245 152 234 154 228 158 C 222 162 218 172 216 188 C 209 174 199 164 186 158 C 172 151 152 148 126 148 Z M 146 272 C 130 270 118 268 109 264 C 99 260 93 255 89 249 C 85 243 84 235 84 225 C 84 198 101 185 136 185 C 186 185 212 209 212 259 L 212 274 L 204 274 C 180 274 161 273 146 272 Z M 66 113 L 255 113 L 255 74 L 66 74 L 66 113 Z" unicode="ª" />
<glyph horiz-adv-x="390" d="M 61 146 L 141 294 L 186 294 L 110 146 L 186 0 L 141 0 L 61 146 Z M 190 146 L 270 294 L 315 294 L 240 146 L 315 0 L 270 0 L 190 146 Z" unicode="«" />
<glyph horiz-adv-x="371" d="M 316 209 L 316 57 L 265 57 L 265 163 L 55 163 L 55 209 L 316 209 Z" unicode="¬" />
<glyph horiz-adv-x="255" d="M 36 190 L 218 190 L 218 141 L 36 141 L 36 190 Z" unicode="­" />
<glyph horiz-adv-x="456" d="M 226 -6 C 193 -6 164 -1 140 9 C 116 19 96 33 80 51 C 64 69 52 90 44 115 C 36 139 32 166 32 196 C 32 225 36 252 44 277 C 52 301 64 323 80 341 C 96 359 116 373 140 383 C 164 393 193 398 226 398 C 258 398 287 393 312 383 C 336 373 357 359 374 341 C 390 323 403 301 411 277 C 419 252 423 225 423 196 C 423 166 419 139 411 115 C 403 90 390 69 374 51 C 357 33 336 19 312 9 C 287 -1 258 -6 226 -6 Z M 226 16 C 256 16 282 20 304 29 C 326 38 344 51 358 67 C 372 83 383 102 390 124 C 396 146 400 170 400 196 C 400 222 396 246 390 268 C 383 290 372 308 358 324 C 344 340 326 352 304 361 C 282 370 256 375 226 375 C 196 375 170 370 149 361 C 127 352 110 340 96 324 C 82 308 71 290 65 268 C 58 246 55 222 55 196 C 55 170 58 146 65 124 C 71 102 82 83 96 67 C 110 51 127 38 149 29 C 170 20 196 16 226 16 Z M 133 321 L 246 321 C 279 321 302 314 314 302 C 326 289 333 270 333 246 C 333 221 326 202 314 188 C 305 178 291 172 272 169 L 332 68 L 296 68 L 239 168 L 167 168 L 167 68 L 133 68 L 133 321 Z M 245 199 C 263 199 277 202 286 208 C 294 214 299 227 299 245 C 299 262 294 274 286 280 C 278 286 264 290 245 290 L 167 290 L 167 199 L 245 199 Z" unicode="®" />
<glyph horiz-adv-x="331" d="M 67 384 L 264 384 L 264 340 L 67 340 L 67 384 Z" unicode="¯" />
<glyph horiz-adv-x="320" d="M 159 145 C 117 145 87 157 69 181 C 51 205 42 235 42 271 C 42 307 51 337 69 361 C 87 385 117 398 159 398 C 201 398 231 385 250 361 C 268 337 278 307 278 271 C 278 235 268 205 250 181 C 231 157 201 145 159 145 Z M 159 185 C 187 185 206 192 218 208 C 230 224 236 244 236 270 C 236 294 230 314 218 330 C 206 346 187 354 159 354 C 131 354 112 346 101 330 C 89 314 84 294 84 270 C 84 244 89 224 101 208 C 112 192 131 185 159 185 Z" unicode="°" />
<glyph horiz-adv-x="391" d="M 170 162 L 65 162 L 65 210 L 170 210 L 170 315 L 220 315 L 220 210 L 326 210 L 326 162 L 220 162 L 220 57 L 170 57 L 170 162 Z M 65 56 L 326 56 L 326 7 L 65 7 L 65 56 Z" unicode="±" />
<glyph horiz-adv-x="263" d="M 43 177 L 121 250 C 131 259 139 267 145 274 C 151 280 156 286 160 292 C 164 297 166 302 168 307 C 169 312 170 318 170 325 C 170 336 166 344 159 350 C 151 356 139 359 122 359 C 109 359 97 357 86 355 C 75 352 66 349 59 345 L 41 377 C 52 382 64 386 77 389 C 90 392 107 394 127 394 C 155 394 175 389 189 379 C 203 369 210 353 210 331 C 210 321 208 312 206 304 C 204 296 200 289 196 282 C 191 274 185 267 178 259 C 170 251 161 243 151 233 L 98 181 L 213 181 L 213 147 L 43 147 L 43 177 Z" unicode="²" />
<glyph horiz-adv-x="272" d="M 132 144 C 112 144 94 145 80 149 C 66 153 51 159 37 168 L 57 199 C 69 191 80 186 92 183 C 103 180 115 179 128 179 C 148 179 162 181 170 187 C 178 193 183 204 183 222 C 183 236 179 247 171 253 C 163 259 147 263 123 263 L 87 263 L 87 296 L 122 296 C 142 296 156 298 164 302 C 172 306 176 315 176 329 C 176 340 172 348 164 352 C 156 356 144 359 127 359 C 102 359 80 353 61 343 L 42 373 C 53 380 67 385 83 389 C 99 392 116 394 133 394 C 163 394 184 389 197 380 C 210 371 217 357 217 337 C 217 307 205 289 183 282 C 197 278 208 271 214 261 C 220 250 223 235 223 217 C 223 190 215 171 201 160 C 186 149 163 144 132 144 Z" unicode="³" />
<glyph horiz-adv-x="331" d="M 200 430 L 262 430 L 169 343 L 121 343 L 200 430 Z" unicode="´" />
<glyph horiz-adv-x="352" d="M 48 294 L 100 294 L 100 125 C 100 113 100 102 101 92 C 101 82 104 73 109 65 C 114 57 122 51 133 47 C 143 43 158 41 178 41 C 197 41 212 43 223 47 C 233 51 241 57 246 65 C 250 73 253 82 254 92 C 254 102 255 114 255 126 L 255 294 L 306 294 L 306 127 C 306 105 304 85 302 69 C 299 53 293 39 284 28 C 275 17 262 9 246 3 C 230 -2 208 -5 181 -5 C 157 -5 139 -2 127 1 C 114 5 105 12 100 20 L 100 -87 L 48 -87 L 48 294 Z" unicode="µ" />
<glyph horiz-adv-x="355" d="M 249 145 L 190 145 L 190 0 L 141 0 L 141 147 C 106 151 81 161 66 177 C 46 199 37 230 37 270 C 37 290 39 307 44 322 C 48 337 56 350 67 360 C 77 370 91 377 109 382 C 127 387 149 390 176 390 L 297 390 L 297 0 L 249 0 L 249 145 Z M 249 188 L 249 343 L 175 343 C 143 343 120 337 107 327 C 94 316 88 296 88 268 C 88 238 94 218 108 206 C 121 194 143 188 174 188 L 249 188 Z" unicode="¶" />
<glyph horiz-adv-x="154" d="M 44 215 L 109 215 L 109 144 L 44 144 L 44 215 Z" unicode="·" />
<glyph horiz-adv-x="331" d="M 169 -123 C 155 -123 143 -121 133 -118 C 123 -115 113 -111 105 -106 L 119 -79 C 135 -87 151 -92 167 -92 C 183 -92 194 -89 199 -84 C 203 -79 206 -73 206 -66 C 206 -56 202 -50 195 -46 C 187 -42 175 -41 157 -43 L 145 -35 L 152 4 L 183 4 L 179 -24 C 195 -22 209 -24 222 -29 C 235 -34 242 -47 242 -69 C 242 -86 236 -99 224 -109 C 212 -118 194 -123 169 -123 Z" unicode="¸" />
<glyph horiz-adv-x="199" d="M 89 355 L 42 355 L 42 390 L 129 390 L 129 147 L 89 147 L 89 355 Z" unicode="¹" />
<glyph horiz-adv-x="335" d="M 168 149 C 127 149 97 159 78 181 C 59 202 50 233 50 274 C 50 314 59 344 78 366 C 97 387 127 398 168 398 C 208 398 237 387 256 366 C 274 344 284 314 284 274 C 284 233 274 202 256 181 C 237 159 208 149 168 149 Z M 168 190 C 216 190 241 217 241 273 C 241 328 216 356 168 356 C 142 356 123 349 111 335 C 99 321 93 300 93 273 C 93 245 99 224 111 210 C 123 196 142 190 168 190 Z M 66 113 L 270 113 L 270 73 L 66 73 L 66 113 Z" unicode="º" />
<glyph horiz-adv-x="390" d="M 151 146 L 75 294 L 120 294 L 200 146 L 120 0 L 75 0 L 151 146 Z M 280 146 L 204 294 L 249 294 L 329 146 L 249 0 L 204 0 L 280 146 Z" unicode="»" />
<glyph horiz-adv-x="504" d="M 87 355 L 40 355 L 40 390 L 127 390 L 127 147 L 87 147 L 87 355 Z M 325 390 L 373 390 L 153 0 L 107 0 L 325 390 Z M 273 85 L 381 243 L 425 243 L 317 86 L 474 86 L 474 53 L 273 53 L 273 85 Z M 396 82 L 403 159 L 434 159 L 434 0 L 396 0 L 396 82 Z" unicode="¼" />
<glyph horiz-adv-x="537" d="M 87 355 L 40 355 L 40 390 L 127 390 L 127 147 L 87 147 L 87 355 Z M 325 390 L 373 390 L 153 0 L 107 0 L 325 390 Z M 320 30 L 398 103 C 408 112 416 120 422 127 C 428 133 433 139 437 145 C 441 150 443 155 445 160 C 446 165 447 171 447 178 C 447 189 443 197 436 203 C 428 209 416 212 399 212 C 386 212 374 210 363 208 C 352 205 343 202 336 198 L 318 230 C 329 235 341 239 354 242 C 367 245 384 247 404 247 C 432 247 452 242 466 232 C 480 222 487 206 487 184 C 487 174 485 165 483 157 C 481 149 477 142 473 135 C 468 127 462 120 455 112 C 447 104 438 96 428 86 L 375 34 L 490 34 L 490 0 L 320 0 L 320 30 Z" unicode="½" />
<glyph horiz-adv-x="559" d="M 127 144 C 107 144 89 145 75 149 C 61 153 46 159 32 168 L 52 199 C 64 191 75 186 87 183 C 98 180 110 179 123 179 C 143 179 157 181 165 187 C 173 193 178 204 178 222 C 178 236 174 247 166 253 C 158 259 142 263 118 263 L 82 263 L 82 296 L 117 296 C 137 296 151 298 159 302 C 167 306 171 315 171 329 C 171 340 167 348 159 352 C 151 356 139 359 122 359 C 97 359 75 353 56 343 L 37 373 C 48 380 62 385 78 389 C 94 392 111 394 128 394 C 158 394 179 389 192 380 C 205 371 212 357 212 337 C 212 307 200 289 178 282 C 192 278 203 271 209 261 C 215 250 218 235 218 217 C 218 190 210 171 196 160 C 181 149 158 144 127 144 Z M 381 390 L 429 390 L 209 0 L 163 0 L 381 390 Z M 327 85 L 435 243 L 479 243 L 371 86 L 528 86 L 528 53 L 327 53 L 327 85 Z M 450 82 L 457 159 L 488 159 L 488 0 L 450 0 L 450 82 Z" unicode="¾" />
<glyph horiz-adv-x="375" d="M 182 -5 C 132 -5 98 2 79 18 C 59 34 50 58 50 92 C 50 118 56 138 69 152 C 81 166 99 179 123 192 C 135 197 144 202 152 207 C 159 211 164 217 168 223 C 171 229 173 236 173 244 C 173 252 173 262 173 275 L 223 275 C 225 259 225 245 225 234 C 224 223 221 213 217 205 C 212 197 205 189 197 183 C 188 176 177 169 163 163 C 151 156 141 150 134 146 C 126 141 120 136 116 132 C 111 127 108 122 106 116 C 104 110 104 104 104 96 C 104 88 104 80 106 74 C 108 67 112 61 118 57 C 124 52 132 48 143 46 C 153 44 168 43 186 43 C 207 43 227 45 247 50 C 267 55 284 62 300 70 L 322 26 C 304 16 283 8 258 3 C 232 -2 207 -5 182 -5 Z M 167 391 L 230 391 L 230 330 L 167 330 L 167 391 Z" unicode="¿" />
<glyph horiz-adv-x="411" d="M 178 393 L 232 393 L 389 0 L 334 0 L 303 82 L 107 82 L 75 0 L 21 0 L 178 393 Z M 283 131 L 204 330 L 125 131 L 283 131 Z M 108 521 L 171 521 L 249 434 L 201 434 L 108 521 Z" unicode="À" />
<glyph horiz-adv-x="411" d="M 178 393 L 232 393 L 389 0 L 334 0 L 303 82 L 107 82 L 75 0 L 21 0 L 178 393 Z M 283 131 L 204 330 L 125 131 L 283 131 Z M 239 521 L 301 521 L 208 434 L 160 434 L 239 521 Z" unicode="Á" />
<glyph horiz-adv-x="411" d="M 178 393 L 232 393 L 389 0 L 334 0 L 303 82 L 107 82 L 75 0 L 21 0 L 178 393 Z M 283 131 L 204 330 L 125 131 L 283 131 Z M 177 521 L 232 521 L 313 434 L 263 434 L 203 488 L 145 434 L 96 434 L 177 521 Z" unicode="Â" />
<glyph horiz-adv-x="411" d="M 178 393 L 232 393 L 389 0 L 334 0 L 303 82 L 107 82 L 75 0 L 21 0 L 178 393 Z M 283 131 L 204 330 L 125 131 L 283 131 Z M 96 460 C 106 473 118 483 130 491 C 142 499 155 503 167 503 C 175 503 183 501 190 499 C 196 496 202 493 208 490 C 213 487 218 484 223 482 C 228 479 234 478 241 478 C 247 478 254 480 261 486 C 267 491 275 498 283 507 L 313 482 C 302 468 290 457 278 448 C 266 438 254 434 242 434 C 234 434 226 435 220 438 C 213 440 207 443 202 447 C 196 451 191 454 185 457 C 179 459 174 461 168 461 C 155 461 142 452 128 435 L 96 460 Z" unicode="Ã" />
<glyph horiz-adv-x="411" d="M 178 393 L 232 393 L 389 0 L 334 0 L 303 82 L 107 82 L 75 0 L 21 0 L 178 393 Z M 283 131 L 204 330 L 125 131 L 283 131 Z M 124 495 L 172 495 L 172 435 L 124 435 L 124 495 Z M 239 495 L 285 495 L 285 435 L 239 435 L 239 495 Z" unicode="Ä" />
<glyph horiz-adv-x="411" d="M 169 369 C 158 375 150 383 146 393 C 141 403 139 415 139 428 C 139 447 144 463 154 476 C 164 489 181 496 205 496 C 227 496 244 489 255 476 C 266 463 272 447 272 428 C 272 415 269 403 264 393 C 259 383 252 375 242 370 L 390 0 L 335 0 L 303 81 L 107 81 L 75 0 L 21 0 L 169 369 Z M 284 131 L 205 330 L 125 131 L 284 131 Z M 205 389 C 218 389 228 392 234 400 C 240 407 243 416 243 428 C 243 439 240 449 234 457 C 228 465 218 469 205 469 C 191 469 182 465 176 457 C 170 449 168 439 168 428 C 168 416 170 407 176 400 C 182 392 191 389 205 389 Z" unicode="Å" />
<glyph horiz-adv-x="596" d="M 263 390 L 554 390 L 554 340 L 339 340 L 339 227 L 549 227 L 549 177 L 339 177 L 339 49 L 556 49 L 556 0 L 288 0 L 288 82 L 123 82 L 71 0 L 18 0 L 263 390 Z M 288 128 L 288 343 L 150 128 L 288 128 Z" unicode="Æ" />
<glyph horiz-adv-x="405" d="M 205 -123 C 191 -123 179 -121 169 -118 C 159 -115 149 -111 141 -106 L 155 -79 C 171 -87 187 -92 203 -92 C 219 -92 230 -89 235 -84 C 239 -79 242 -73 242 -66 C 242 -56 238 -50 231 -46 C 223 -42 211 -41 193 -43 L 181 -35 L 188 4 L 219 4 L 215 -24 C 231 -22 245 -24 258 -29 C 271 -34 278 -47 278 -69 C 278 -86 272 -99 260 -109 C 248 -118 230 -123 205 -123 Z M 226 -6 C 158 -6 108 11 78 45 C 47 79 32 129 32 196 C 32 265 49 316 83 349 C 117 381 166 398 229 398 C 259 398 285 393 309 385 C 332 376 352 363 370 346 L 332 307 C 306 333 271 346 228 346 C 132 346 85 295 85 195 C 85 145 96 108 119 82 C 142 56 179 44 229 44 C 257 44 279 47 295 55 C 310 63 323 72 335 84 L 374 48 C 360 34 341 21 319 10 C 297 0 266 -6 226 -6 Z" unicode="Ç" />
<glyph horiz-adv-x="364" d="M 54 390 L 322 390 L 322 340 L 108 340 L 108 228 L 316 228 L 316 177 L 108 177 L 108 49 L 324 49 L 324 0 L 54 0 L 54 390 Z M 84 521 L 147 521 L 225 434 L 177 434 L 84 521 Z" unicode="È" />
<glyph horiz-adv-x="364" d="M 54 390 L 322 390 L 322 340 L 108 340 L 108 228 L 316 228 L 316 177 L 108 177 L 108 49 L 324 49 L 324 0 L 54 0 L 54 390 Z M 215 521 L 277 521 L 184 434 L 136 434 L 215 521 Z" unicode="É" />
<glyph horiz-adv-x="364" d="M 54 390 L 322 390 L 322 340 L 108 340 L 108 228 L 316 228 L 316 177 L 108 177 L 108 49 L 324 49 L 324 0 L 54 0 L 54 390 Z M 153 521 L 208 521 L 289 434 L 239 434 L 179 488 L 121 434 L 72 434 L 153 521 Z" unicode="Ê" />
<glyph horiz-adv-x="364" d="M 54 390 L 322 390 L 322 340 L 108 340 L 108 228 L 316 228 L 316 177 L 108 177 L 108 49 L 324 49 L 324 0 L 54 0 L 54 390 Z M 100 495 L 148 495 L 148 435 L 100 435 L 100 495 Z M 215 495 L 261 495 L 261 435 L 215 435 L 215 495 Z" unicode="Ë" />
<glyph horiz-adv-x="169" d="M -23 520 L 42 520 L 111 433 L 63 433 L -23 520 Z M 58 390 L 111 390 L 111 0 L 58 0 L 58 390 Z" unicode="Ì" />
<glyph horiz-adv-x="169" d="M 127 520 L 192 520 L 107 433 L 58 433 L 127 520 Z M 58 390 L 111 390 L 111 0 L 58 0 L 58 390 Z" unicode="Í" />
<glyph horiz-adv-x="169" d="M 57 520 L 112 520 L 181 433 L 132 433 L 84 488 L 37 433 L -13 433 L 57 520 Z M 58 390 L 111 390 L 111 0 L 58 0 L 58 390 Z" unicode="Î" />
<glyph horiz-adv-x="169" d="M 58 390 L 111 390 L 111 0 L 58 0 L 58 390 Z M 7 495 L 55 495 L 55 435 L 7 435 L 7 495 Z M 122 495 L 168 495 L 168 435 L 122 435 L 122 495 Z" unicode="Ï" />
<glyph horiz-adv-x="422" d="M 54 390 L 185 390 C 221 390 253 387 279 381 C 305 375 326 364 343 349 C 359 334 371 314 379 290 C 386 265 390 234 390 196 C 390 158 385 127 377 102 C 369 76 356 56 339 41 C 322 26 300 15 274 9 C 247 3 215 0 179 0 L 54 0 L 54 390 Z M 182 49 C 211 49 236 51 256 57 C 276 62 292 70 304 82 C 316 94 324 109 329 128 C 334 146 337 169 337 196 C 337 223 334 246 330 264 C 326 282 318 297 307 309 C 295 320 280 328 260 333 C 240 337 215 340 185 340 L 108 340 L 108 49 L 182 49 Z M 10 224 L 192 224 L 192 179 L 10 179 L 10 224 Z" unicode="Ð" />
<glyph horiz-adv-x="437" d="M 54 390 L 112 390 L 331 90 L 331 390 L 383 390 L 383 0 L 333 0 L 106 313 L 106 0 L 54 0 L 54 390 Z M 108 460 C 118 473 130 483 142 491 C 154 499 167 503 179 503 C 187 503 195 501 202 499 C 208 496 214 493 220 490 C 225 487 230 484 235 482 C 240 479 246 478 253 478 C 259 478 266 480 273 486 C 279 491 287 498 295 507 L 325 482 C 314 468 302 457 290 448 C 278 438 266 434 254 434 C 246 434 238 435 232 438 C 225 440 219 443 214 447 C 208 451 203 454 197 457 C 191 459 186 461 180 461 C 167 461 154 452 140 435 L 108 460 Z" unicode="Ñ" />
<glyph horiz-adv-x="463" d="M 231 -6 C 168 -6 119 9 84 41 C 49 73 32 124 32 196 C 32 266 49 318 84 350 C 119 382 168 398 231 398 C 293 398 342 382 377 350 C 412 318 430 266 430 196 C 430 124 412 73 377 41 C 342 9 293 -6 231 -6 Z M 231 43 C 281 43 318 56 342 82 C 365 108 377 146 377 195 C 377 243 365 280 342 306 C 318 332 281 346 231 346 C 179 346 142 332 119 306 C 96 280 85 243 85 195 C 85 146 96 108 119 82 C 142 56 179 43 231 43 Z M 134 521 L 197 521 L 275 434 L 227 434 L 134 521 Z" unicode="Ò" />
<glyph horiz-adv-x="463" d="M 231 -6 C 168 -6 119 9 84 41 C 49 73 32 124 32 196 C 32 266 49 318 84 350 C 119 382 168 398 231 398 C 293 398 342 382 377 350 C 412 318 430 266 430 196 C 430 124 412 73 377 41 C 342 9 293 -6 231 -6 Z M 231 43 C 281 43 318 56 342 82 C 365 108 377 146 377 195 C 377 243 365 280 342 306 C 318 332 281 346 231 346 C 179 346 142 332 119 306 C 96 280 85 243 85 195 C 85 146 96 108 119 82 C 142 56 179 43 231 43 Z M 265 521 L 327 521 L 234 434 L 186 434 L 265 521 Z" unicode="Ó" />
<glyph horiz-adv-x="463" d="M 231 -6 C 168 -6 119 9 84 41 C 49 73 32 124 32 196 C 32 266 49 318 84 350 C 119 382 168 398 231 398 C 293 398 342 382 377 350 C 412 318 430 266 430 196 C 430 124 412 73 377 41 C 342 9 293 -6 231 -6 Z M 231 43 C 281 43 318 56 342 82 C 365 108 377 146 377 195 C 377 243 365 280 342 306 C 318 332 281 346 231 346 C 179 346 142 332 119 306 C 96 280 85 243 85 195 C 85 146 96 108 119 82 C 142 56 179 43 231 43 Z M 203 521 L 258 521 L 339 434 L 289 434 L 229 488 L 171 434 L 122 434 L 203 521 Z" unicode="Ô" />
<glyph horiz-adv-x="463" d="M 231 -6 C 168 -6 119 9 84 41 C 49 73 32 124 32 196 C 32 266 49 318 84 350 C 119 382 168 398 231 398 C 293 398 342 382 377 350 C 412 318 430 266 430 196 C 430 124 412 73 377 41 C 342 9 293 -6 231 -6 Z M 231 43 C 281 43 318 56 342 82 C 365 108 377 146 377 195 C 377 243 365 280 342 306 C 318 332 281 346 231 346 C 179 346 142 332 119 306 C 96 280 85 243 85 195 C 85 146 96 108 119 82 C 142 56 179 43 231 43 Z M 122 460 C 132 473 144 483 156 491 C 168 499 181 503 193 503 C 201 503 209 501 216 499 C 222 496 228 493 234 490 C 239 487 244 484 249 482 C 254 479 260 478 267 478 C 273 478 280 480 287 486 C 293 491 301 498 309 507 L 339 482 C 328 468 316 457 304 448 C 292 438 280 434 268 434 C 260 434 252 435 246 438 C 239 440 233 443 228 447 C 222 451 217 454 211 457 C 205 459 200 461 194 461 C 181 461 168 452 154 435 L 122 460 Z" unicode="Õ" />
<glyph horiz-adv-x="463" d="M 231 -6 C 168 -6 119 9 84 41 C 49 73 32 124 32 196 C 32 266 49 318 84 350 C 119 382 168 398 231 398 C 293 398 342 382 377 350 C 412 318 430 266 430 196 C 430 124 412 73 377 41 C 342 9 293 -6 231 -6 Z M 231 43 C 281 43 318 56 342 82 C 365 108 377 146 377 195 C 377 243 365 280 342 306 C 318 332 281 346 231 346 C 179 346 142 332 119 306 C 96 280 85 243 85 195 C 85 146 96 108 119 82 C 142 56 179 43 231 43 Z M 150 495 L 198 495 L 198 435 L 150 435 L 150 495 Z M 265 495 L 311 495 L 311 435 L 265 435 L 265 495 Z" unicode="Ö" />
<glyph horiz-adv-x="391" d="M 81 103 L 163 185 L 81 268 L 113 301 L 195 218 L 278 301 L 309 268 L 226 185 L 309 104 L 278 71 L 195 153 L 112 71 L 81 103 Z" unicode="×" />
<glyph horiz-adv-x="463" d="M 116 43 L 125 55 L 295 354 L 298 364 L 326 413 L 377 413 L 339 346 L 330 334 L 159 33 L 155 22 L 131 -22 L 79 -22 L 116 43 Z M 231 -6 C 166 -6 117 9 83 41 C 49 73 32 124 32 196 C 32 266 49 318 83 350 C 117 382 166 398 231 398 C 295 398 345 382 379 350 C 413 318 430 266 430 196 C 430 124 413 73 379 41 C 345 9 295 -6 231 -6 Z M 231 41 C 284 41 322 54 345 81 C 367 107 379 145 379 195 C 379 244 367 282 345 308 C 323 334 285 347 231 347 C 177 347 139 333 117 307 C 95 281 84 243 84 195 C 84 145 95 107 117 81 C 139 54 177 41 231 41 Z" unicode="Ø" />
<glyph horiz-adv-x="435" d="M 217 -7 C 181 -7 152 -2 130 5 C 108 13 91 25 79 39 C 67 53 60 69 56 87 C 52 105 51 123 51 143 L 51 390 L 105 390 L 105 149 C 105 133 106 118 109 105 C 112 92 118 81 126 72 C 134 62 146 55 161 50 C 175 45 194 43 218 43 C 241 43 260 45 275 50 C 290 55 302 62 310 71 C 318 80 324 91 327 105 C 330 118 332 133 332 149 L 332 390 L 385 390 L 385 143 C 385 123 383 105 379 87 C 375 69 368 53 356 39 C 344 25 327 13 305 5 C 283 -2 253 -7 217 -7 Z M 120 521 L 183 521 L 261 434 L 213 434 L 120 521 Z" unicode="Ù" />
<glyph horiz-adv-x="435" d="M 217 -7 C 181 -7 152 -2 130 5 C 108 13 91 25 79 39 C 67 53 60 69 56 87 C 52 105 51 123 51 143 L 51 390 L 105 390 L 105 149 C 105 133 106 118 109 105 C 112 92 118 81 126 72 C 134 62 146 55 161 50 C 175 45 194 43 218 43 C 241 43 260 45 275 50 C 290 55 302 62 310 71 C 318 80 324 91 327 105 C 330 118 332 133 332 149 L 332 390 L 385 390 L 385 143 C 385 123 383 105 379 87 C 375 69 368 53 356 39 C 344 25 327 13 305 5 C 283 -2 253 -7 217 -7 Z M 251 521 L 313 521 L 220 434 L 172 434 L 251 521 Z" unicode="Ú" />
<glyph horiz-adv-x="435" d="M 217 -7 C 181 -7 152 -2 130 5 C 108 13 91 25 79 39 C 67 53 60 69 56 87 C 52 105 51 123 51 143 L 51 390 L 105 390 L 105 149 C 105 133 106 118 109 105 C 112 92 118 81 126 72 C 134 62 146 55 161 50 C 175 45 194 43 218 43 C 241 43 260 45 275 50 C 290 55 302 62 310 71 C 318 80 324 91 327 105 C 330 118 332 133 332 149 L 332 390 L 385 390 L 385 143 C 385 123 383 105 379 87 C 375 69 368 53 356 39 C 344 25 327 13 305 5 C 283 -2 253 -7 217 -7 Z M 189 521 L 244 521 L 325 434 L 275 434 L 215 488 L 157 434 L 108 434 L 189 521 Z" unicode="Û" />
<glyph horiz-adv-x="435" d="M 217 -7 C 181 -7 152 -2 130 5 C 108 13 91 25 79 39 C 67 53 60 69 56 87 C 52 105 51 123 51 143 L 51 390 L 105 390 L 105 149 C 105 133 106 118 109 105 C 112 92 118 81 126 72 C 134 62 146 55 161 50 C 175 45 194 43 218 43 C 241 43 260 45 275 50 C 290 55 302 62 310 71 C 318 80 324 91 327 105 C 330 118 332 133 332 149 L 332 390 L 385 390 L 385 143 C 385 123 383 105 379 87 C 375 69 368 53 356 39 C 344 25 327 13 305 5 C 283 -2 253 -7 217 -7 Z M 136 495 L 184 495 L 184 435 L 136 435 L 136 495 Z M 251 495 L 297 495 L 297 435 L 251 435 L 251 495 Z" unicode="Ü" />
<glyph horiz-adv-x="398" d="M 15 390 L 73 390 L 200 196 L 326 390 L 382 390 L 225 148 L 225 0 L 173 0 L 173 147 L 15 390 Z M 232 521 L 294 521 L 201 434 L 153 434 L 232 521 Z" unicode="Ý" />
<glyph horiz-adv-x="400" d="M 54 390 L 107 390 L 107 331 L 230 331 C 256 331 277 328 295 323 C 313 317 327 309 338 299 C 348 289 356 276 361 261 C 365 245 368 228 368 208 C 368 188 365 170 361 154 C 357 138 349 124 339 113 C 328 102 314 94 296 88 C 278 82 255 80 228 80 L 107 80 L 107 0 L 54 0 L 54 390 Z M 230 130 C 260 130 281 135 295 147 C 308 158 315 178 315 207 C 315 236 308 256 295 266 C 282 276 260 281 228 281 L 107 281 L 107 130 L 230 130 Z" unicode="Þ" />
<glyph horiz-adv-x="368" d="M 48 282 C 48 299 50 315 54 331 C 58 347 66 361 76 373 C 86 385 100 394 118 401 C 135 408 157 412 183 412 C 227 412 259 403 279 386 C 299 368 309 343 309 309 C 309 281 304 261 295 247 C 285 233 272 222 255 215 C 283 209 304 199 318 184 C 332 169 340 146 340 114 C 340 95 338 79 334 65 C 330 51 322 39 311 29 C 300 19 285 12 265 7 C 245 2 219 0 187 0 L 153 0 L 153 46 L 185 46 C 207 46 225 47 239 51 C 253 55 263 60 271 66 C 278 72 283 80 285 89 C 287 97 289 107 289 117 C 289 141 281 158 265 169 C 249 180 220 186 177 186 L 177 229 C 205 229 226 234 239 245 C 251 255 258 272 258 296 C 258 317 252 333 241 343 C 230 353 211 359 183 359 C 153 359 131 352 118 338 C 105 324 99 305 99 280 L 99 0 L 48 0 L 48 282 Z" unicode="ß" />
<glyph horiz-adv-x="351" d="M 136 -5 C 114 -5 97 -2 83 2 C 69 6 59 13 51 21 C 43 29 38 38 35 49 C 32 59 31 71 31 83 C 31 103 34 121 40 135 C 46 149 57 160 72 168 C 87 176 107 182 132 186 C 156 189 187 191 224 191 L 246 191 L 246 147 L 226 147 C 196 147 171 146 152 144 C 133 142 118 138 108 134 C 97 130 90 124 86 116 C 82 108 80 99 80 87 C 80 71 84 59 93 51 C 101 43 118 39 144 39 C 178 39 202 46 217 60 C 232 74 240 97 240 129 L 240 182 C 240 194 239 204 238 213 C 236 222 233 229 228 235 C 223 241 216 245 206 248 C 196 250 183 252 167 252 C 147 252 130 249 116 244 C 101 238 89 233 80 228 L 53 268 C 63 274 78 280 100 288 C 121 296 145 300 172 300 C 196 300 216 297 232 293 C 247 289 259 282 268 272 C 276 262 282 250 285 235 C 287 220 289 202 289 182 L 289 78 C 289 63 290 54 293 50 C 296 46 305 45 319 45 L 319 1 C 316 0 309 -1 297 -1 C 281 -1 269 1 263 6 C 256 11 251 20 247 33 C 238 20 225 10 208 4 C 191 -1 167 -5 136 -5 Z M 79 430 L 142 430 L 220 343 L 172 343 L 79 430 Z" unicode="à" />
<glyph horiz-adv-x="351" d="M 136 -5 C 114 -5 97 -2 83 2 C 69 6 59 13 51 21 C 43 29 38 38 35 49 C 32 59 31 71 31 83 C 31 103 34 121 40 135 C 46 149 57 160 72 168 C 87 176 107 182 132 186 C 156 189 187 191 224 191 L 246 191 L 246 147 L 226 147 C 196 147 171 146 152 144 C 133 142 118 138 108 134 C 97 130 90 124 86 116 C 82 108 80 99 80 87 C 80 71 84 59 93 51 C 101 43 118 39 144 39 C 178 39 202 46 217 60 C 232 74 240 97 240 129 L 240 182 C 240 194 239 204 238 213 C 236 222 233 229 228 235 C 223 241 216 245 206 248 C 196 250 183 252 167 252 C 147 252 130 249 116 244 C 101 238 89 233 80 228 L 53 268 C 63 274 78 280 100 288 C 121 296 145 300 172 300 C 196 300 216 297 232 293 C 247 289 259 282 268 272 C 276 262 282 250 285 235 C 287 220 289 202 289 182 L 289 78 C 289 63 290 54 293 50 C 296 46 305 45 319 45 L 319 1 C 316 0 309 -1 297 -1 C 281 -1 269 1 263 6 C 256 11 251 20 247 33 C 238 20 225 10 208 4 C 191 -1 167 -5 136 -5 Z M 210 430 L 272 430 L 179 343 L 131 343 L 210 430 Z" unicode="á" />
<glyph horiz-adv-x="351" d="M 136 -5 C 114 -5 97 -2 83 2 C 69 6 59 13 51 21 C 43 29 38 38 35 49 C 32 59 31 71 31 83 C 31 103 34 121 40 135 C 46 149 57 160 72 168 C 87 176 107 182 132 186 C 156 189 187 191 224 191 L 246 191 L 246 147 L 226 147 C 196 147 171 146 152 144 C 133 142 118 138 108 134 C 97 130 90 124 86 116 C 82 108 80 99 80 87 C 80 71 84 59 93 51 C 101 43 118 39 144 39 C 178 39 202 46 217 60 C 232 74 240 97 240 129 L 240 182 C 240 194 239 204 238 213 C 236 222 233 229 228 235 C 223 241 216 245 206 248 C 196 250 183 252 167 252 C 147 252 130 249 116 244 C 101 238 89 233 80 228 L 53 268 C 63 274 78 280 100 288 C 121 296 145 300 172 300 C 196 300 216 297 232 293 C 247 289 259 282 268 272 C 276 262 282 250 285 235 C 287 220 289 202 289 182 L 289 78 C 289 63 290 54 293 50 C 296 46 305 45 319 45 L 319 1 C 316 0 309 -1 297 -1 C 281 -1 269 1 263 6 C 256 11 251 20 247 33 C 238 20 225 10 208 4 C 191 -1 167 -5 136 -5 Z M 148 430 L 203 430 L 284 343 L 234 343 L 174 397 L 116 343 L 67 343 L 148 430 Z" unicode="â" />
<glyph horiz-adv-x="351" d="M 136 -5 C 114 -5 97 -2 83 2 C 69 6 59 13 51 21 C 43 29 38 38 35 49 C 32 59 31 71 31 83 C 31 103 34 121 40 135 C 46 149 57 160 72 168 C 87 176 107 182 132 186 C 156 189 187 191 224 191 L 246 191 L 246 147 L 226 147 C 196 147 171 146 152 144 C 133 142 118 138 108 134 C 97 130 90 124 86 116 C 82 108 80 99 80 87 C 80 71 84 59 93 51 C 101 43 118 39 144 39 C 178 39 202 46 217 60 C 232 74 240 97 240 129 L 240 182 C 240 194 239 204 238 213 C 236 222 233 229 228 235 C 223 241 216 245 206 248 C 196 250 183 252 167 252 C 147 252 130 249 116 244 C 101 238 89 233 80 228 L 53 268 C 63 274 78 280 100 288 C 121 296 145 300 172 300 C 196 300 216 297 232 293 C 247 289 259 282 268 272 C 276 262 282 250 285 235 C 287 220 289 202 289 182 L 289 78 C 289 63 290 54 293 50 C 296 46 305 45 319 45 L 319 1 C 316 0 309 -1 297 -1 C 281 -1 269 1 263 6 C 256 11 251 20 247 33 C 238 20 225 10 208 4 C 191 -1 167 -5 136 -5 Z M 67 369 C 77 382 89 392 101 400 C 113 408 126 412 138 412 C 146 412 154 410 161 408 C 167 405 173 402 179 399 C 184 396 189 393 194 391 C 199 388 205 387 212 387 C 218 387 225 389 232 395 C 238 400 246 407 254 416 L 284 391 C 273 377 261 366 249 357 C 237 347 225 343 213 343 C 205 343 197 344 191 347 C 184 349 178 352 173 356 C 167 360 162 363 156 366 C 150 368 145 370 139 370 C 126 370 113 361 99 344 L 67 369 Z" unicode="ã" />
<glyph horiz-adv-x="351" d="M 136 -5 C 114 -5 97 -2 83 2 C 69 6 59 13 51 21 C 43 29 38 38 35 49 C 32 59 31 71 31 83 C 31 103 34 121 40 135 C 46 149 57 160 72 168 C 87 176 107 182 132 186 C 156 189 187 191 224 191 L 246 191 L 246 147 L 226 147 C 196 147 171 146 152 144 C 133 142 118 138 108 134 C 97 130 90 124 86 116 C 82 108 80 99 80 87 C 80 71 84 59 93 51 C 101 43 118 39 144 39 C 178 39 202 46 217 60 C 232 74 240 97 240 129 L 240 182 C 240 194 239 204 238 213 C 236 222 233 229 228 235 C 223 241 216 245 206 248 C 196 250 183 252 167 252 C 147 252 130 249 116 244 C 101 238 89 233 80 228 L 53 268 C 63 274 78 280 100 288 C 121 296 145 300 172 300 C 196 300 216 297 232 293 C 247 289 259 282 268 272 C 276 262 282 250 285 235 C 287 220 289 202 289 182 L 289 78 C 289 63 290 54 293 50 C 296 46 305 45 319 45 L 319 1 C 316 0 309 -1 297 -1 C 281 -1 269 1 263 6 C 256 11 251 20 247 33 C 238 20 225 10 208 4 C 191 -1 167 -5 136 -5 Z M 95 404 L 143 404 L 143 344 L 95 344 L 95 404 Z M 210 404 L 256 404 L 256 344 L 210 344 L 210 404 Z" unicode="ä" />
<glyph horiz-adv-x="351" d="M 136 -5 C 114 -5 97 -2 83 2 C 69 6 59 13 51 21 C 43 29 38 38 35 49 C 32 59 31 71 31 83 C 31 103 34 121 40 135 C 46 149 57 160 72 168 C 87 176 107 182 132 186 C 156 189 187 191 224 191 L 246 191 L 246 147 L 226 147 C 196 147 171 146 152 144 C 133 142 118 138 108 134 C 97 130 90 124 86 116 C 82 108 80 99 80 87 C 80 71 84 59 93 51 C 101 43 118 39 144 39 C 178 39 202 46 217 60 C 232 74 240 97 240 129 L 240 182 C 240 194 239 204 238 213 C 236 222 233 229 228 235 C 223 241 216 245 206 248 C 196 250 183 252 167 252 C 147 252 130 249 116 244 C 101 238 89 233 80 228 L 53 268 C 63 274 78 280 100 288 C 121 296 145 300 172 300 C 196 300 216 297 232 293 C 247 289 259 282 268 272 C 276 262 282 250 285 235 C 287 220 289 202 289 182 L 289 78 C 289 63 290 54 293 50 C 296 46 305 45 319 45 L 319 1 C 316 0 309 -1 297 -1 C 281 -1 269 1 263 6 C 256 11 251 20 247 33 C 238 20 225 10 208 4 C 191 -1 167 -5 136 -5 Z M 176 337 C 152 337 135 343 125 356 C 115 369 110 385 110 405 C 110 424 115 440 125 454 C 135 467 152 474 176 474 C 198 474 215 467 225 454 C 235 440 241 424 241 405 C 241 385 235 369 225 356 C 215 343 198 337 176 337 Z M 176 365 C 189 365 198 368 204 376 C 210 384 213 393 213 405 C 213 416 210 425 204 433 C 198 440 189 444 176 444 C 162 444 152 440 146 433 C 140 425 137 416 137 405 C 137 393 140 384 146 376 C 152 368 162 365 176 365 Z" unicode="å" />
<glyph horiz-adv-x="540" d="M 382 -6 C 350 -6 325 -2 307 6 C 289 14 275 25 266 39 L 261 47 C 258 42 255 38 253 35 C 245 24 235 16 224 10 C 213 4 200 0 186 -2 C 171 -4 155 -5 137 -5 C 99 -5 71 2 55 16 C 39 30 31 53 31 83 C 31 103 34 121 41 135 C 47 149 58 160 74 168 C 89 176 109 182 134 186 C 158 189 188 191 224 191 L 240 191 C 239 199 238 206 238 213 C 236 222 233 229 228 235 C 223 241 216 245 206 248 C 196 250 183 252 167 252 C 147 252 130 249 115 244 C 100 238 88 233 79 228 L 53 268 C 63 274 78 280 100 288 C 121 296 145 300 172 300 C 196 300 216 297 231 292 C 245 287 256 280 264 270 C 266 266 268 263 270 260 C 279 271 292 280 308 288 C 326 296 350 300 380 300 C 410 300 434 295 451 285 C 468 275 480 263 488 247 C 496 231 500 212 502 191 C 503 170 503 149 503 127 L 287 127 C 287 118 288 110 290 102 C 292 88 297 77 304 68 C 310 58 320 51 332 46 C 344 40 361 38 382 38 C 405 38 423 40 437 46 C 451 51 463 58 475 68 L 502 32 C 486 19 469 9 451 3 C 433 -2 410 -6 382 -6 Z M 153 144 C 134 142 119 139 108 135 C 97 130 90 124 86 116 C 82 108 80 99 80 87 C 80 71 84 59 93 51 C 101 43 119 39 145 39 C 179 39 203 46 218 60 C 232 74 240 97 240 129 L 240 147 L 226 147 C 196 147 172 146 153 144 Z M 455 172 C 454 183 453 194 452 204 C 450 214 447 222 442 230 C 437 237 430 243 420 247 C 410 251 396 254 379 254 C 359 254 343 251 331 246 C 319 240 309 233 303 224 C 297 214 292 203 290 190 C 289 184 288 178 288 172 L 455 172 Z" unicode="æ" />
<glyph horiz-adv-x="320" d="M 177 -5 C 149 -5 125 -1 107 6 C 89 13 74 23 63 37 C 52 50 44 66 40 85 C 36 103 34 124 34 147 C 34 169 36 190 40 209 C 44 227 52 243 63 257 C 74 271 89 281 108 289 C 126 296 150 300 179 300 C 205 300 226 295 244 287 C 262 279 276 268 288 256 L 250 221 C 243 228 234 235 223 241 C 212 247 197 250 179 250 C 143 250 118 240 105 222 C 91 204 85 178 85 146 C 85 112 91 86 104 68 C 117 49 142 40 179 40 C 195 40 208 42 219 47 C 230 52 241 60 253 71 L 287 38 C 271 24 255 13 239 6 C 223 -1 202 -5 177 -5 Z M 165 -123 C 151 -123 139 -121 129 -118 C 119 -115 109 -111 101 -106 L 115 -79 C 131 -87 147 -92 163 -92 C 179 -92 190 -89 195 -84 C 199 -79 202 -73 202 -66 C 202 -56 198 -50 191 -46 C 183 -42 171 -41 153 -43 L 141 -35 L 148 4 L 179 4 L 175 -24 C 191 -22 205 -24 218 -29 C 231 -34 238 -47 238 -69 C 238 -86 232 -99 220 -109 C 208 -118 190 -123 165 -123 Z" unicode="ç" />
<glyph horiz-adv-x="336" d="M 178 -6 C 148 -6 123 -2 104 6 C 85 14 70 24 60 38 C 50 52 43 68 39 87 C 35 105 34 125 34 147 C 34 168 35 188 39 207 C 43 225 50 241 61 255 C 71 269 86 280 105 288 C 123 296 147 300 177 300 C 207 300 230 295 247 285 C 263 275 276 263 284 247 C 292 231 296 212 298 191 C 299 170 300 149 300 127 L 53 127 L 54 172 L 251 172 C 250 183 249 194 248 204 C 246 214 243 222 238 230 C 233 237 226 243 216 247 C 206 251 192 254 175 254 C 155 254 140 251 128 246 C 116 240 106 233 100 224 C 93 214 88 203 86 190 C 84 176 83 162 83 146 C 83 130 84 115 86 102 C 88 88 93 77 100 68 C 106 58 116 51 129 46 C 141 40 158 38 178 38 C 201 38 219 40 233 46 C 247 51 259 58 271 68 L 298 32 C 282 19 265 9 247 3 C 229 -2 206 -6 178 -6 Z M 71 430 L 134 430 L 212 343 L 164 343 L 71 430 Z" unicode="è" />
<glyph horiz-adv-x="336" d="M 178 -6 C 148 -6 123 -2 104 6 C 85 14 70 24 60 38 C 50 52 43 68 39 87 C 35 105 34 125 34 147 C 34 168 35 188 39 207 C 43 225 50 241 61 255 C 71 269 86 280 105 288 C 123 296 147 300 177 300 C 207 300 230 295 247 285 C 263 275 276 263 284 247 C 292 231 296 212 298 191 C 299 170 300 149 300 127 L 53 127 L 54 172 L 251 172 C 250 183 249 194 248 204 C 246 214 243 222 238 230 C 233 237 226 243 216 247 C 206 251 192 254 175 254 C 155 254 140 251 128 246 C 116 240 106 233 100 224 C 93 214 88 203 86 190 C 84 176 83 162 83 146 C 83 130 84 115 86 102 C 88 88 93 77 100 68 C 106 58 116 51 129 46 C 141 40 158 38 178 38 C 201 38 219 40 233 46 C 247 51 259 58 271 68 L 298 32 C 282 19 265 9 247 3 C 229 -2 206 -6 178 -6 Z M 202 430 L 264 430 L 171 343 L 123 343 L 202 430 Z" unicode="é" />
<glyph horiz-adv-x="336" d="M 178 -6 C 148 -6 123 -2 104 6 C 85 14 70 24 60 38 C 50 52 43 68 39 87 C 35 105 34 125 34 147 C 34 168 35 188 39 207 C 43 225 50 241 61 255 C 71 269 86 280 105 288 C 123 296 147 300 177 300 C 207 300 230 295 247 285 C 263 275 276 263 284 247 C 292 231 296 212 298 191 C 299 170 300 149 300 127 L 53 127 L 54 172 L 251 172 C 250 183 249 194 248 204 C 246 214 243 222 238 230 C 233 237 226 243 216 247 C 206 251 192 254 175 254 C 155 254 140 251 128 246 C 116 240 106 233 100 224 C 93 214 88 203 86 190 C 84 176 83 162 83 146 C 83 130 84 115 86 102 C 88 88 93 77 100 68 C 106 58 116 51 129 46 C 141 40 158 38 178 38 C 201 38 219 40 233 46 C 247 51 259 58 271 68 L 298 32 C 282 19 265 9 247 3 C 229 -2 206 -6 178 -6 Z M 140 430 L 195 430 L 276 343 L 226 343 L 166 397 L 108 343 L 59 343 L 140 430 Z" unicode="ê" />
<glyph horiz-adv-x="336" d="M 178 -6 C 148 -6 123 -2 104 6 C 85 14 70 24 60 38 C 50 52 43 68 39 87 C 35 105 34 125 34 147 C 34 168 35 188 39 207 C 43 225 50 241 61 255 C 71 269 86 280 105 288 C 123 296 147 300 177 300 C 207 300 230 295 247 285 C 263 275 276 263 284 247 C 292 231 296 212 298 191 C 299 170 300 149 300 127 L 53 127 L 54 172 L 251 172 C 250 183 249 194 248 204 C 246 214 243 222 238 230 C 233 237 226 243 216 247 C 206 251 192 254 175 254 C 155 254 140 251 128 246 C 116 240 106 233 100 224 C 93 214 88 203 86 190 C 84 176 83 162 83 146 C 83 130 84 115 86 102 C 88 88 93 77 100 68 C 106 58 116 51 129 46 C 141 40 158 38 178 38 C 201 38 219 40 233 46 C 247 51 259 58 271 68 L 298 32 C 282 19 265 9 247 3 C 229 -2 206 -6 178 -6 Z M 87 404 L 135 404 L 135 344 L 87 344 L 87 404 Z M 202 404 L 248 404 L 248 344 L 202 344 L 202 404 Z" unicode="ë" />
<glyph horiz-adv-x="153" d="M -18 429 L 44 429 L 102 343 L 54 343 L -18 429 Z M 51 294 L 102 294 L 102 0 L 51 0 L 51 294 Z" unicode="ì" />
<glyph horiz-adv-x="153" d="M 109 429 L 172 429 L 100 343 L 52 343 L 109 429 Z M 51 294 L 102 294 L 102 0 L 51 0 L 51 294 Z" unicode="í" />
<glyph horiz-adv-x="153" d="M 50 429 L 103 429 L 167 343 L 117 343 L 76 397 L 34 343 L -14 343 L 50 429 Z M 51 294 L 102 294 L 102 0 L 51 0 L 51 294 Z" unicode="î" />
<glyph horiz-adv-x="153" d="M 5 401 L 47 401 L 47 343 L 5 343 L 5 401 Z M 106 401 L 148 401 L 148 343 L 106 343 L 106 401 Z M 51 294 L 102 294 L 102 0 L 51 0 L 51 294 Z" unicode="ï" />
<glyph horiz-adv-x="357" d="M 178 -6 C 126 -6 89 7 67 33 C 45 59 34 95 34 141 C 34 183 43 216 63 240 C 82 264 116 277 164 277 C 190 277 210 274 225 269 C 239 264 251 257 260 247 C 249 296 218 346 168 397 L 215 416 C 230 403 244 389 258 373 C 271 357 282 338 292 317 C 302 296 309 272 315 245 C 320 218 323 188 323 154 C 323 97 311 56 288 31 C 264 6 228 -6 178 -6 Z M 178 40 C 212 40 236 48 250 66 C 264 83 271 108 271 142 C 271 172 264 194 250 210 C 236 225 212 233 178 233 C 144 233 120 225 106 210 C 92 194 85 172 85 142 C 85 108 92 83 106 66 C 120 48 144 40 178 40 Z M 166 343 L 330 385 L 330 348 L 166 307 L 166 343 Z" unicode="ð" />
<glyph horiz-adv-x="354" d="M 48 290 L 88 294 L 92 266 C 99 274 111 282 127 289 C 143 296 167 300 201 300 C 223 300 242 297 256 291 C 270 285 280 276 288 266 C 296 256 301 243 303 228 C 305 213 307 197 307 179 L 307 0 L 255 0 L 255 169 C 255 181 254 191 253 201 C 252 211 249 219 245 226 C 240 233 233 239 223 243 C 213 247 200 249 184 249 C 166 249 151 246 140 242 C 129 238 121 232 115 224 C 109 216 105 207 103 197 C 101 187 100 175 100 163 L 100 0 L 48 0 L 48 290 Z M 67 369 C 77 382 89 392 101 400 C 113 408 126 412 138 412 C 146 412 154 410 161 408 C 167 405 173 402 179 399 C 184 396 189 393 194 391 C 199 388 205 387 212 387 C 218 387 225 389 232 395 C 238 400 246 407 254 416 L 284 391 C 273 377 261 366 249 357 C 237 347 225 343 213 343 C 205 343 197 344 191 347 C 184 349 178 352 173 356 C 167 360 162 363 156 366 C 150 368 145 370 139 370 C 126 370 113 361 99 344 L 67 369 Z" unicode="ñ" />
<glyph horiz-adv-x="357" d="M 178 -6 C 126 -6 89 7 67 33 C 45 59 34 97 34 147 C 34 197 45 235 67 261 C 89 287 126 300 178 300 C 230 300 267 287 289 261 C 311 235 323 197 323 147 C 323 97 311 59 289 33 C 267 7 230 -6 178 -6 Z M 178 40 C 212 40 236 49 250 67 C 264 85 271 112 271 146 C 271 180 264 206 250 224 C 236 242 212 251 178 251 C 143 251 119 242 105 224 C 91 206 85 180 85 146 C 85 112 91 85 105 67 C 119 49 143 40 178 40 Z M 81 430 L 144 430 L 222 343 L 174 343 L 81 430 Z" unicode="ò" />
<glyph horiz-adv-x="357" d="M 178 -6 C 126 -6 89 7 67 33 C 45 59 34 97 34 147 C 34 197 45 235 67 261 C 89 287 126 300 178 300 C 230 300 267 287 289 261 C 311 235 323 197 323 147 C 323 97 311 59 289 33 C 267 7 230 -6 178 -6 Z M 178 40 C 212 40 236 49 250 67 C 264 85 271 112 271 146 C 271 180 264 206 250 224 C 236 242 212 251 178 251 C 143 251 119 242 105 224 C 91 206 85 180 85 146 C 85 112 91 85 105 67 C 119 49 143 40 178 40 Z M 212 430 L 274 430 L 181 343 L 133 343 L 212 430 Z" unicode="ó" />
<glyph horiz-adv-x="357" d="M 178 -6 C 126 -6 89 7 67 33 C 45 59 34 97 34 147 C 34 197 45 235 67 261 C 89 287 126 300 178 300 C 230 300 267 287 289 261 C 311 235 323 197 323 147 C 323 97 311 59 289 33 C 267 7 230 -6 178 -6 Z M 178 40 C 212 40 236 49 250 67 C 264 85 271 112 271 146 C 271 180 264 206 250 224 C 236 242 212 251 178 251 C 143 251 119 242 105 224 C 91 206 85 180 85 146 C 85 112 91 85 105 67 C 119 49 143 40 178 40 Z M 150 430 L 205 430 L 286 343 L 236 343 L 176 397 L 118 343 L 69 343 L 150 430 Z" unicode="ô" />
<glyph horiz-adv-x="357" d="M 178 -6 C 126 -6 89 7 67 33 C 45 59 34 97 34 147 C 34 197 45 235 67 261 C 89 287 126 300 178 300 C 230 300 267 287 289 261 C 311 235 323 197 323 147 C 323 97 311 59 289 33 C 267 7 230 -6 178 -6 Z M 178 40 C 212 40 236 49 250 67 C 264 85 271 112 271 146 C 271 180 264 206 250 224 C 236 242 212 251 178 251 C 143 251 119 242 105 224 C 91 206 85 180 85 146 C 85 112 91 85 105 67 C 119 49 143 40 178 40 Z M 69 369 C 79 382 91 392 103 400 C 115 408 128 412 140 412 C 148 412 156 410 163 408 C 169 405 175 402 181 399 C 186 396 191 393 196 391 C 201 388 207 387 214 387 C 220 387 227 389 234 395 C 240 400 248 407 256 416 L 286 391 C 275 377 263 366 251 357 C 239 347 227 343 215 343 C 207 343 199 344 193 347 C 186 349 180 352 175 356 C 169 360 164 363 158 366 C 152 368 147 370 141 370 C 128 370 115 361 101 344 L 69 369 Z" unicode="õ" />
<glyph horiz-adv-x="357" d="M 178 -6 C 126 -6 89 7 67 33 C 45 59 34 97 34 147 C 34 197 45 235 67 261 C 89 287 126 300 178 300 C 230 300 267 287 289 261 C 311 235 323 197 323 147 C 323 97 311 59 289 33 C 267 7 230 -6 178 -6 Z M 178 40 C 212 40 236 49 250 67 C 264 85 271 112 271 146 C 271 180 264 206 250 224 C 236 242 212 251 178 251 C 143 251 119 242 105 224 C 91 206 85 180 85 146 C 85 112 91 85 105 67 C 119 49 143 40 178 40 Z M 97 404 L 145 404 L 145 344 L 97 344 L 97 404 Z M 212 404 L 258 404 L 258 344 L 212 344 L 212 404 Z" unicode="ö" />
<glyph horiz-adv-x="391" d="M 167 108 L 224 108 L 224 53 L 167 53 L 167 108 Z M 65 210 L 326 210 L 326 162 L 65 162 L 65 210 Z M 167 319 L 224 319 L 224 265 L 167 265 L 167 319 Z" unicode="÷" />
<glyph horiz-adv-x="357" d="M 92 41 L 101 51 L 227 266 L 230 274 L 256 316 L 303 316 L 270 260 L 261 250 L 131 31 L 127 21 L 101 -23 L 53 -23 L 92 41 Z M 178 -6 C 124 -6 87 7 66 33 C 44 59 34 97 34 147 C 34 197 44 235 66 261 C 87 287 124 300 178 300 C 231 300 268 287 290 261 C 312 235 323 197 323 147 C 323 97 312 59 290 33 C 268 7 231 -6 178 -6 Z M 178 39 C 213 39 237 48 251 67 C 265 85 272 112 272 146 C 272 180 265 206 251 224 C 237 242 213 252 178 252 C 142 252 118 242 104 224 C 90 206 84 180 84 146 C 84 112 90 85 104 67 C 118 48 142 39 178 39 Z" unicode="ø" />
<glyph horiz-adv-x="350" d="M 176 -5 C 148 -5 125 -2 108 3 C 90 9 77 17 68 28 C 59 39 53 53 50 69 C 47 85 46 104 46 126 L 46 294 L 98 294 L 98 125 C 98 113 98 102 99 92 C 100 82 103 73 108 65 C 113 57 121 51 131 47 C 141 43 156 41 176 41 C 195 41 210 43 221 47 C 231 51 239 57 244 65 C 248 73 251 82 252 92 C 252 102 253 114 253 126 L 253 294 L 304 294 L 304 127 C 304 105 302 85 299 69 C 296 53 290 39 281 28 C 272 17 259 9 243 3 C 226 -2 204 -5 176 -5 Z M 77 430 L 140 430 L 218 343 L 170 343 L 77 430 Z" unicode="ù" />
<glyph horiz-adv-x="350" d="M 176 -5 C 148 -5 125 -2 108 3 C 90 9 77 17 68 28 C 59 39 53 53 50 69 C 47 85 46 104 46 126 L 46 294 L 98 294 L 98 125 C 98 113 98 102 99 92 C 100 82 103 73 108 65 C 113 57 121 51 131 47 C 141 43 156 41 176 41 C 195 41 210 43 221 47 C 231 51 239 57 244 65 C 248 73 251 82 252 92 C 252 102 253 114 253 126 L 253 294 L 304 294 L 304 127 C 304 105 302 85 299 69 C 296 53 290 39 281 28 C 272 17 259 9 243 3 C 226 -2 204 -5 176 -5 Z M 208 430 L 270 430 L 177 343 L 129 343 L 208 430 Z" unicode="ú" />
<glyph horiz-adv-x="350" d="M 176 -5 C 148 -5 125 -2 108 3 C 90 9 77 17 68 28 C 59 39 53 53 50 69 C 47 85 46 104 46 126 L 46 294 L 98 294 L 98 125 C 98 113 98 102 99 92 C 100 82 103 73 108 65 C 113 57 121 51 131 47 C 141 43 156 41 176 41 C 195 41 210 43 221 47 C 231 51 239 57 244 65 C 248 73 251 82 252 92 C 252 102 253 114 253 126 L 253 294 L 304 294 L 304 127 C 304 105 302 85 299 69 C 296 53 290 39 281 28 C 272 17 259 9 243 3 C 226 -2 204 -5 176 -5 Z M 146 430 L 201 430 L 282 343 L 232 343 L 172 397 L 114 343 L 65 343 L 146 430 Z" unicode="û" />
<glyph horiz-adv-x="350" d="M 176 -5 C 148 -5 125 -2 108 3 C 90 9 77 17 68 28 C 59 39 53 53 50 69 C 47 85 46 104 46 126 L 46 294 L 98 294 L 98 125 C 98 113 98 102 99 92 C 100 82 103 73 108 65 C 113 57 121 51 131 47 C 141 43 156 41 176 41 C 195 41 210 43 221 47 C 231 51 239 57 244 65 C 248 73 251 82 252 92 C 252 102 253 114 253 126 L 253 294 L 304 294 L 304 127 C 304 105 302 85 299 69 C 296 53 290 39 281 28 C 272 17 259 9 243 3 C 226 -2 204 -5 176 -5 Z M 93 404 L 141 404 L 141 344 L 93 344 L 93 404 Z M 208 404 L 254 404 L 254 344 L 208 344 L 208 404 Z" unicode="ü" />
<glyph horiz-adv-x="307" d="M 14 294 L 69 294 L 155 64 L 240 294 L 293 294 L 170 -25 C 160 -47 149 -64 136 -74 C 122 -84 103 -89 78 -89 L 50 -89 L 50 -46 L 73 -46 C 87 -46 98 -44 104 -40 C 110 -36 114 -30 118 -20 L 127 5 L 14 294 Z M 190 430 L 252 430 L 159 343 L 111 343 L 190 430 Z" unicode="ý" />
<glyph horiz-adv-x="366" d="M 48 409 L 100 409 L 100 265 C 107 277 119 285 136 291 C 153 297 177 300 207 300 C 231 300 252 296 268 288 C 284 280 296 270 306 257 C 316 243 322 227 326 209 C 330 190 332 169 332 147 C 332 125 330 104 326 86 C 322 67 315 51 306 37 C 296 23 283 13 267 6 C 250 -1 229 -5 205 -5 C 174 -5 151 -2 135 3 C 119 9 107 18 100 31 L 100 -87 L 48 -87 L 48 409 Z M 195 41 C 228 41 250 50 262 69 C 274 87 280 113 280 145 C 280 177 274 203 263 222 C 251 241 229 251 195 251 C 160 251 135 243 121 227 C 107 211 100 184 100 145 C 100 106 107 79 121 64 C 135 48 159 41 195 41 Z" unicode="þ" />
<glyph horiz-adv-x="307" d="M 14 294 L 69 294 L 155 64 L 240 294 L 293 294 L 170 -25 C 160 -47 149 -64 136 -74 C 122 -84 103 -89 78 -89 L 50 -89 L 50 -46 L 73 -46 C 87 -46 98 -44 104 -40 C 110 -36 114 -30 118 -20 L 127 5 L 14 294 Z M 75 404 L 123 404 L 123 344 L 75 344 L 75 404 Z M 190 404 L 236 404 L 236 344 L 190 344 L 190 404 Z" unicode="ÿ" />
<glyph horiz-adv-x="411" d="M 178 393 L 232 393 L 389 0 L 334 0 L 303 82 L 107 82 L 75 0 L 21 0 L 178 393 Z M 283 131 L 204 330 L 125 131 L 283 131 Z M 106 475 L 303 475 L 303 431 L 106 431 L 106 475 Z" unicode="Ā" />
<glyph horiz-adv-x="351" d="M 136 -5 C 114 -5 97 -2 83 2 C 69 6 59 13 51 21 C 43 29 38 38 35 49 C 32 59 31 71 31 83 C 31 103 34 121 40 135 C 46 149 57 160 72 168 C 87 176 107 182 132 186 C 156 189 187 191 224 191 L 246 191 L 246 147 L 226 147 C 196 147 171 146 152 144 C 133 142 118 138 108 134 C 97 130 90 124 86 116 C 82 108 80 99 80 87 C 80 71 84 59 93 51 C 101 43 118 39 144 39 C 178 39 202 46 217 60 C 232 74 240 97 240 129 L 240 182 C 240 194 239 204 238 213 C 236 222 233 229 228 235 C 223 241 216 245 206 248 C 196 250 183 252 167 252 C 147 252 130 249 116 244 C 101 238 89 233 80 228 L 53 268 C 63 274 78 280 100 288 C 121 296 145 300 172 300 C 196 300 216 297 232 293 C 247 289 259 282 268 272 C 276 262 282 250 285 235 C 287 220 289 202 289 182 L 289 78 C 289 63 290 54 293 50 C 296 46 305 45 319 45 L 319 1 C 316 0 309 -1 297 -1 C 281 -1 269 1 263 6 C 256 11 251 20 247 33 C 238 20 225 10 208 4 C 191 -1 167 -5 136 -5 Z M 77 384 L 274 384 L 274 340 L 77 340 L 77 384 Z" unicode="ā" />
<glyph horiz-adv-x="411" d="M 178 393 L 232 393 L 389 0 L 334 0 L 303 82 L 107 82 L 75 0 L 21 0 L 178 393 Z M 283 131 L 204 330 L 125 131 L 283 131 Z M 205 428 C 187 428 171 430 159 434 C 147 438 137 445 130 453 C 122 461 116 470 112 480 C 108 490 105 502 103 514 L 141 522 C 144 506 150 494 158 484 C 166 474 182 470 205 470 C 227 470 242 474 251 484 C 259 494 265 506 269 522 L 308 515 C 305 503 301 491 297 481 C 293 470 287 461 279 453 C 271 445 261 438 249 434 C 237 430 223 428 205 428 Z" unicode="Ă" />
<glyph horiz-adv-x="351" d="M 136 -5 C 114 -5 97 -2 83 2 C 69 6 59 13 51 21 C 43 29 38 38 35 49 C 32 59 31 71 31 83 C 31 103 34 121 40 135 C 46 149 57 160 72 168 C 87 176 107 182 132 186 C 156 189 187 191 224 191 L 246 191 L 246 147 L 226 147 C 196 147 171 146 152 144 C 133 142 118 138 108 134 C 97 130 90 124 86 116 C 82 108 80 99 80 87 C 80 71 84 59 93 51 C 101 43 118 39 144 39 C 178 39 202 46 217 60 C 232 74 240 97 240 129 L 240 182 C 240 194 239 204 238 213 C 236 222 233 229 228 235 C 223 241 216 245 206 248 C 196 250 183 252 167 252 C 147 252 130 249 116 244 C 101 238 89 233 80 228 L 53 268 C 63 274 78 280 100 288 C 121 296 145 300 172 300 C 196 300 216 297 232 293 C 247 289 259 282 268 272 C 276 262 282 250 285 235 C 287 220 289 202 289 182 L 289 78 C 289 63 290 54 293 50 C 296 46 305 45 319 45 L 319 1 C 316 0 309 -1 297 -1 C 281 -1 269 1 263 6 C 256 11 251 20 247 33 C 238 20 225 10 208 4 C 191 -1 167 -5 136 -5 Z M 176 337 C 158 337 142 339 130 343 C 118 347 108 354 101 362 C 93 370 87 379 83 389 C 79 399 76 411 74 423 L 112 431 C 115 415 121 403 129 393 C 137 383 153 379 176 379 C 198 379 213 383 222 393 C 230 403 236 415 240 431 L 279 424 C 276 412 272 400 268 390 C 264 379 258 370 250 362 C 242 354 232 347 220 343 C 208 339 194 337 176 337 Z" unicode="ă" />
<glyph horiz-adv-x="411" d="M 178 393 L 232 393 L 389 0 L 373 0 C 341 -20 325 -39 325 -57 C 325 -63 326 -69 330 -74 C 334 -78 342 -81 356 -81 C 363 -81 370 -80 376 -79 C 382 -77 388 -76 394 -75 L 406 -106 C 391 -113 372 -117 350 -117 C 323 -117 305 -112 296 -102 C 287 -92 283 -79 283 -64 C 283 -48 288 -34 298 -22 C 308 -10 319 0 331 7 L 303 82 L 107 82 L 75 0 L 21 0 L 178 393 Z M 283 131 L 204 330 L 125 131 L 283 131 Z" unicode="Ą" />
<glyph horiz-adv-x="351" d="M 136 -5 C 114 -5 97 -2 83 2 C 69 6 59 13 51 21 C 43 29 38 38 35 49 C 32 59 31 71 31 83 C 31 103 34 121 40 135 C 46 149 57 160 72 168 C 87 176 107 182 132 186 C 156 189 187 191 224 191 L 240 191 C 239 211 234 227 226 237 C 217 247 197 252 167 252 C 147 252 130 249 116 244 C 101 238 89 233 80 228 L 53 268 C 63 274 78 280 100 288 C 121 296 145 300 172 300 C 196 300 216 297 232 293 C 247 289 259 282 268 272 C 276 262 282 250 285 235 C 287 220 289 202 289 182 L 289 78 C 289 63 290 54 293 50 C 296 46 305 45 319 45 L 319 1 C 281 -21 263 -40 263 -57 C 263 -63 265 -69 269 -74 C 273 -78 282 -81 296 -81 C 311 -81 324 -78 335 -74 L 348 -105 C 340 -108 332 -111 322 -113 C 312 -115 301 -117 290 -117 C 262 -117 244 -112 235 -102 C 226 -92 222 -79 222 -64 C 222 -48 227 -34 238 -22 C 249 -10 260 -2 271 3 C 264 5 259 8 257 12 C 255 15 253 18 251 22 C 249 25 248 29 247 33 C 238 20 225 10 208 4 C 191 -1 167 -5 136 -5 Z M 144 39 C 178 39 202 46 217 60 C 232 74 240 97 240 129 L 240 147 L 226 147 C 196 147 171 146 152 144 C 133 142 118 138 108 134 C 97 130 90 124 86 116 C 82 108 80 99 80 87 C 80 71 84 59 93 51 C 101 43 118 39 144 39 Z" unicode="ą" />
<glyph horiz-adv-x="405" d="M 226 -6 C 158 -6 108 11 78 45 C 47 79 32 129 32 196 C 32 265 49 316 83 349 C 117 381 166 398 229 398 C 259 398 285 393 309 385 C 332 376 352 363 370 346 L 332 307 C 306 333 271 346 228 346 C 132 346 85 295 85 195 C 85 145 96 108 119 82 C 142 56 179 44 229 44 C 257 44 279 47 295 55 C 310 63 323 72 335 84 L 374 48 C 360 34 341 21 319 10 C 297 0 266 -6 226 -6 Z M 236 521 L 298 521 L 205 434 L 157 434 L 236 521 Z" unicode="Ć" />
<glyph horiz-adv-x="320" d="M 177 -5 C 149 -5 125 -1 107 6 C 89 13 74 23 63 37 C 52 50 44 66 40 85 C 36 103 34 124 34 147 C 34 169 36 190 40 209 C 44 227 52 243 63 257 C 74 271 89 281 108 289 C 126 296 150 300 179 300 C 205 300 226 295 244 287 C 262 279 276 268 288 256 L 250 221 C 243 228 234 235 223 241 C 212 247 197 250 179 250 C 143 250 118 240 105 222 C 91 204 85 178 85 146 C 85 112 91 86 104 68 C 117 49 142 40 179 40 C 195 40 208 42 219 47 C 230 52 241 60 253 71 L 287 38 C 271 24 255 13 239 6 C 223 -1 202 -5 177 -5 Z M 196 430 L 258 430 L 165 343 L 117 343 L 196 430 Z" unicode="ć" />
<glyph horiz-adv-x="405" d="M 226 -6 C 158 -6 108 11 78 45 C 47 79 32 129 32 196 C 32 265 49 316 83 349 C 117 381 166 398 229 398 C 259 398 285 393 309 385 C 332 376 352 363 370 346 L 332 307 C 306 333 271 346 228 346 C 132 346 85 295 85 195 C 85 145 96 108 119 82 C 142 56 179 44 229 44 C 257 44 279 47 295 55 C 310 63 323 72 335 84 L 374 48 C 360 34 341 21 319 10 C 297 0 266 -6 226 -6 Z M 93 521 L 143 521 L 203 467 L 261 521 L 310 521 L 229 434 L 174 434 L 93 521 Z" unicode="Č" />
<glyph horiz-adv-x="320" d="M 177 -5 C 149 -5 125 -1 107 6 C 89 13 74 23 63 37 C 52 50 44 66 40 85 C 36 103 34 124 34 147 C 34 169 36 190 40 209 C 44 227 52 243 63 257 C 74 271 89 281 108 289 C 126 296 150 300 179 300 C 205 300 226 295 244 287 C 262 279 276 268 288 256 L 250 221 C 243 228 234 235 223 241 C 212 247 197 250 179 250 C 143 250 118 240 105 222 C 91 204 85 178 85 146 C 85 112 91 86 104 68 C 117 49 142 40 179 40 C 195 40 208 42 219 47 C 230 52 241 60 253 71 L 287 38 C 271 24 255 13 239 6 C 223 -1 202 -5 177 -5 Z M 53 430 L 103 430 L 163 376 L 221 430 L 270 430 L 189 343 L 134 343 L 53 430 Z" unicode="č" />
<glyph horiz-adv-x="422" d="M 54 390 L 185 390 C 221 390 253 387 279 381 C 305 375 326 364 343 349 C 359 334 371 314 379 290 C 386 265 390 234 390 196 C 390 158 386 127 378 102 C 370 76 357 56 340 41 C 323 26 301 15 275 9 C 248 3 216 0 179 0 L 54 0 L 54 390 Z M 182 49 C 211 49 236 51 256 57 C 276 62 292 70 304 82 C 316 94 324 109 329 128 C 334 146 337 169 337 196 C 337 223 334 246 330 264 C 326 282 318 297 307 309 C 295 320 280 328 260 333 C 240 337 215 340 185 340 L 108 340 L 108 49 L 182 49 Z M 101 521 L 151 521 L 211 467 L 269 521 L 318 521 L 237 434 L 182 434 L 101 521 Z" unicode="Ď" />
<glyph horiz-adv-x="427" d="M 356 312 C 368 318 377 323 381 328 C 385 333 387 340 387 350 L 360 350 L 360 409 L 416 409 L 416 366 C 416 344 413 327 407 317 C 401 307 389 297 369 289 L 356 312 Z M 159 -5 C 134 -5 114 -1 98 6 C 82 13 69 23 59 37 C 49 51 43 67 39 86 C 35 104 34 125 34 148 C 34 170 36 190 40 209 C 44 227 50 243 60 257 C 70 271 83 281 99 289 C 115 296 136 300 161 300 C 191 300 215 297 231 291 C 247 285 258 276 266 265 L 266 409 L 318 409 L 318 2 L 279 -2 L 273 33 C 263 19 250 10 233 4 C 215 -2 191 -5 159 -5 Z M 171 41 C 205 41 230 49 244 65 C 258 81 266 109 266 148 C 266 186 259 213 245 228 C 231 243 206 251 171 251 C 137 251 115 241 103 223 C 91 205 86 180 86 148 C 86 115 91 89 103 70 C 115 50 137 41 171 41 Z" unicode="ď" />
<glyph horiz-adv-x="422" d="M 54 390 L 185 390 C 221 390 253 387 279 381 C 305 375 326 364 343 349 C 359 334 371 314 379 290 C 386 265 390 234 390 196 C 390 158 385 127 377 102 C 369 76 356 56 339 41 C 322 26 300 15 274 9 C 247 3 215 0 179 0 L 54 0 L 54 390 Z M 182 49 C 211 49 236 51 256 57 C 276 62 292 70 304 82 C 316 94 324 109 329 128 C 334 146 337 169 337 196 C 337 223 334 246 330 264 C 326 282 318 297 307 309 C 295 320 280 328 260 333 C 240 337 215 340 185 340 L 108 340 L 108 49 L 182 49 Z M 10 224 L 192 224 L 192 179 L 10 179 L 10 224 Z" unicode="Đ" />
<glyph horiz-adv-x="366" d="M 186 369 L 356 369 L 356 324 L 186 324 L 186 369 Z M 159 -5 C 134 -5 114 -1 98 6 C 82 13 69 23 59 37 C 49 51 43 67 39 86 C 35 104 34 125 34 148 C 34 170 36 190 40 209 C 44 227 50 243 60 257 C 70 271 83 281 99 289 C 115 296 136 300 161 300 C 191 300 215 297 231 291 C 247 285 258 276 266 265 L 266 409 L 318 409 L 318 2 L 279 -2 L 273 33 C 263 19 250 10 233 4 C 215 -2 191 -5 159 -5 Z M 171 41 C 205 41 230 49 244 65 C 258 81 266 109 266 148 C 266 186 259 213 245 228 C 231 243 206 251 171 251 C 137 251 115 241 103 223 C 91 205 86 180 86 148 C 86 115 91 89 103 70 C 115 50 137 41 171 41 Z" unicode="đ" />
<glyph horiz-adv-x="364" d="M 54 390 L 322 390 L 322 340 L 108 340 L 108 228 L 316 228 L 316 177 L 108 177 L 108 49 L 324 49 L 324 0 L 54 0 L 54 390 Z M 82 475 L 279 475 L 279 431 L 82 431 L 82 475 Z" unicode="Ē" />
<glyph horiz-adv-x="336" d="M 178 -6 C 148 -6 123 -2 104 6 C 85 14 70 24 60 38 C 50 52 43 68 39 87 C 35 105 34 125 34 147 C 34 168 35 188 39 207 C 43 225 50 241 61 255 C 71 269 86 280 105 288 C 123 296 147 300 177 300 C 207 300 230 295 247 285 C 263 275 276 263 284 247 C 292 231 296 212 298 191 C 299 170 300 149 300 127 L 53 127 L 54 172 L 251 172 C 250 183 249 194 248 204 C 246 214 243 222 238 230 C 233 237 226 243 216 247 C 206 251 192 254 175 254 C 155 254 140 251 128 246 C 116 240 106 233 100 224 C 93 214 88 203 86 190 C 84 176 83 162 83 146 C 83 130 84 115 86 102 C 88 88 93 77 100 68 C 106 58 116 51 129 46 C 141 40 158 38 178 38 C 201 38 219 40 233 46 C 247 51 259 58 271 68 L 298 32 C 282 19 265 9 247 3 C 229 -2 206 -6 178 -6 Z M 69 384 L 266 384 L 266 340 L 69 340 L 69 384 Z" unicode="ē" />
<glyph horiz-adv-x="364" d="M 54 390 L 322 390 L 322 340 L 108 340 L 108 228 L 316 228 L 316 177 L 108 177 L 108 49 L 324 49 L 324 0 L 54 0 L 54 390 Z M 155 495 L 206 495 L 206 433 L 155 433 L 155 495 Z" unicode="Ė" />
<glyph horiz-adv-x="336" d="M 178 -6 C 148 -6 123 -2 104 6 C 85 14 70 24 60 38 C 50 52 43 68 39 87 C 35 105 34 125 34 147 C 34 168 35 188 39 207 C 43 225 50 241 61 255 C 71 269 86 280 105 288 C 123 296 147 300 177 300 C 207 300 230 295 247 285 C 263 275 276 263 284 247 C 292 231 296 212 298 191 C 299 170 300 149 300 127 L 53 127 L 54 172 L 251 172 C 250 183 249 194 248 204 C 246 214 243 222 238 230 C 233 237 226 243 216 247 C 206 251 192 254 175 254 C 155 254 140 251 128 246 C 116 240 106 233 100 224 C 93 214 88 203 86 190 C 84 176 83 162 83 146 C 83 130 84 115 86 102 C 88 88 93 77 100 68 C 106 58 116 51 129 46 C 141 40 158 38 178 38 C 201 38 219 40 233 46 C 247 51 259 58 271 68 L 298 32 C 282 19 265 9 247 3 C 229 -2 206 -6 178 -6 Z M 142 404 L 193 404 L 193 342 L 142 342 L 142 404 Z" unicode="ė" />
<glyph horiz-adv-x="364" d="M 54 390 L 322 390 L 322 340 L 108 340 L 108 228 L 316 228 L 316 177 L 108 177 L 108 49 L 324 49 L 324 0 L 281 0 C 265 -9 254 -19 246 -29 C 238 -39 235 -48 235 -57 C 235 -63 237 -69 241 -74 C 245 -78 253 -81 267 -81 C 275 -81 284 -80 292 -78 C 300 -76 307 -74 313 -72 L 325 -103 C 317 -107 308 -110 296 -113 C 284 -115 273 -117 261 -117 C 233 -117 215 -112 206 -102 C 196 -92 192 -80 192 -65 C 192 -49 196 -36 206 -25 C 215 -14 225 -6 235 0 L 54 0 L 54 390 Z" unicode="Ę" />
<glyph horiz-adv-x="336" d="M 178 -6 C 148 -6 123 -2 104 6 C 85 14 70 24 60 38 C 50 52 43 68 39 87 C 35 105 34 125 34 147 C 34 168 35 188 39 207 C 43 225 50 241 61 255 C 71 269 86 280 105 288 C 123 296 147 300 177 300 C 207 300 230 295 247 285 C 263 275 276 263 284 247 C 292 231 296 212 298 191 C 299 170 300 149 300 127 L 83 127 C 83 113 85 101 89 90 C 92 79 97 70 104 62 C 111 54 121 48 133 44 C 145 40 160 38 178 38 C 201 38 219 40 233 46 C 247 51 259 58 271 68 L 298 32 C 290 26 282 20 274 16 C 265 11 256 7 247 4 C 229 -5 216 -15 207 -26 C 198 -37 194 -47 194 -57 C 194 -63 195 -69 199 -74 C 203 -78 212 -81 226 -81 C 235 -81 244 -80 252 -78 C 260 -76 266 -74 272 -72 L 285 -103 C 277 -107 267 -110 255 -113 C 243 -115 232 -117 220 -117 C 192 -117 174 -112 165 -102 C 156 -92 152 -80 152 -65 C 152 -51 155 -40 162 -30 C 169 -20 177 -12 185 -6 L 178 -6 Z M 175 254 C 141 254 118 246 106 231 C 93 216 86 196 84 172 L 251 172 C 250 183 249 194 248 204 C 246 214 243 222 238 230 C 233 237 226 243 216 247 C 206 251 192 254 175 254 Z" unicode="ę" />
<glyph horiz-adv-x="364" d="M 54 390 L 322 390 L 322 340 L 108 340 L 108 228 L 316 228 L 316 177 L 108 177 L 108 49 L 324 49 L 324 0 L 54 0 L 54 390 Z M 72 521 L 122 521 L 182 467 L 240 521 L 289 521 L 208 434 L 153 434 L 72 521 Z" unicode="Ě" />
<glyph horiz-adv-x="336" d="M 178 -6 C 148 -6 123 -2 104 6 C 85 14 70 24 60 38 C 50 52 43 68 39 87 C 35 105 34 125 34 147 C 34 168 35 188 39 207 C 43 225 50 241 61 255 C 71 269 86 280 105 288 C 123 296 147 300 177 300 C 207 300 230 295 247 285 C 263 275 276 263 284 247 C 292 231 296 212 298 191 C 299 170 300 149 300 127 L 53 127 L 54 172 L 251 172 C 250 183 249 194 248 204 C 246 214 243 222 238 230 C 233 237 226 243 216 247 C 206 251 192 254 175 254 C 155 254 140 251 128 246 C 116 240 106 233 100 224 C 93 214 88 203 86 190 C 84 176 83 162 83 146 C 83 130 84 115 86 102 C 88 88 93 77 100 68 C 106 58 116 51 129 46 C 141 40 158 38 178 38 C 201 38 219 40 233 46 C 247 51 259 58 271 68 L 298 32 C 282 19 265 9 247 3 C 229 -2 206 -6 178 -6 Z M 59 430 L 109 430 L 169 376 L 227 430 L 276 430 L 195 343 L 140 343 L 59 430 Z" unicode="ě" />
<glyph horiz-adv-x="433" d="M 226 -6 C 154 -6 104 11 75 45 C 46 79 32 129 32 196 C 32 266 49 318 83 350 C 117 382 165 398 228 398 C 266 398 297 392 321 382 C 344 371 362 359 376 346 L 338 307 C 326 318 311 327 295 335 C 278 342 256 346 228 346 C 132 346 85 295 85 195 C 85 143 95 104 116 79 C 137 53 174 41 228 41 C 252 41 271 43 287 48 C 303 53 315 60 324 70 C 333 80 339 92 343 107 C 347 121 349 139 349 159 L 349 169 L 222 169 L 222 216 L 401 216 L 401 168 C 401 140 398 116 394 95 C 389 73 380 55 367 40 C 354 25 336 14 314 6 C 291 -2 262 -6 226 -6 Z M 216 428 C 198 428 182 430 170 434 C 158 438 148 445 141 453 C 133 461 127 470 123 480 C 119 490 116 502 114 514 L 152 522 C 155 506 161 494 169 484 C 177 474 193 470 216 470 C 238 470 253 474 262 484 C 270 494 276 506 280 522 L 319 515 C 316 503 312 491 308 481 C 304 470 298 461 290 453 C 282 445 272 438 260 434 C 248 430 234 428 216 428 Z" unicode="Ğ" />
<glyph horiz-adv-x="342" d="M 166 107 C 147 107 131 108 117 111 C 112 105 110 99 110 93 C 110 83 114 78 122 76 C 130 74 145 73 169 73 C 196 73 219 71 237 69 C 255 66 270 62 281 56 C 292 50 300 42 305 32 C 309 22 312 9 312 -5 C 312 -37 300 -60 278 -74 C 256 -88 218 -95 164 -95 C 114 -95 79 -90 57 -80 C 35 -70 24 -51 24 -22 C 24 -5 28 9 36 23 C 44 36 58 45 80 50 C 69 58 64 69 64 85 C 64 95 66 104 70 114 C 72 118 74 122 76 126 C 74 127 72 128 71 130 C 51 145 41 169 41 202 C 41 234 50 259 70 275 C 90 291 122 300 166 300 C 172 300 178 299 184 299 L 300 316 L 300 274 L 252 274 C 262 268 271 260 277 252 C 285 240 290 223 290 202 C 290 169 280 145 260 130 C 240 114 209 107 166 107 Z M 166 -54 C 185 -54 201 -53 213 -51 C 225 -49 234 -46 241 -42 C 248 -38 253 -33 256 -27 C 258 -21 260 -14 260 -7 C 260 8 253 18 239 23 C 225 27 201 30 166 30 C 146 30 130 28 118 26 C 106 24 97 21 91 17 C 85 13 81 9 79 4 C 77 -1 76 -7 76 -13 C 76 -28 83 -39 97 -45 C 111 -51 134 -54 166 -54 Z M 166 149 C 193 149 212 153 223 161 C 234 169 240 183 240 202 C 240 220 234 233 222 241 C 210 249 191 253 166 253 C 138 253 118 249 107 241 C 95 233 90 220 90 202 C 90 183 95 169 107 161 C 118 153 138 149 166 149 Z M 171 337 C 153 337 137 339 125 343 C 113 347 103 354 96 362 C 88 370 82 379 78 389 C 74 399 71 411 69 423 L 107 431 C 110 415 116 403 124 393 C 132 383 148 379 171 379 C 193 379 208 383 217 393 C 225 403 231 415 235 431 L 274 424 C 271 412 267 400 263 390 C 259 379 253 370 245 362 C 237 354 227 347 215 343 C 203 339 189 337 171 337 Z" unicode="ğ" />
<glyph horiz-adv-x="433" d="M 226 -6 C 154 -6 104 11 75 45 C 46 79 32 129 32 196 C 32 266 49 318 83 350 C 117 382 165 398 228 398 C 266 398 297 392 321 382 C 344 371 362 359 376 346 L 338 307 C 326 318 311 327 295 335 C 278 342 256 346 228 346 C 132 346 85 295 85 195 C 85 143 95 104 116 79 C 137 53 174 41 228 41 C 252 41 271 43 287 48 C 303 53 315 60 324 70 C 333 80 339 92 343 107 C 347 121 349 139 349 159 L 349 169 L 222 169 L 222 216 L 401 216 L 401 168 C 401 140 398 116 394 95 C 389 73 380 55 367 40 C 354 25 336 14 314 6 C 291 -2 262 -6 226 -6 Z M 185 -127 C 197 -121 205 -115 209 -110 C 213 -105 215 -98 215 -89 L 187 -89 L 187 -31 L 245 -31 L 245 -74 C 245 -95 242 -111 236 -122 C 230 -132 217 -142 198 -151 L 185 -127 Z" unicode="Ģ" />
<glyph horiz-adv-x="342" d="M 166 107 C 147 107 131 108 117 111 C 112 105 110 99 110 93 C 110 83 114 78 122 76 C 130 74 145 73 169 73 C 196 73 219 71 237 69 C 255 66 270 62 281 56 C 292 50 300 42 305 32 C 309 22 312 9 312 -5 C 312 -37 300 -60 278 -74 C 256 -88 218 -95 164 -95 C 114 -95 79 -90 57 -80 C 35 -70 24 -51 24 -22 C 24 -5 28 9 36 23 C 44 36 58 45 80 50 C 69 58 64 69 64 85 C 64 95 66 104 70 114 C 72 118 74 122 76 126 C 74 127 72 128 71 130 C 51 145 41 169 41 202 C 41 234 50 259 70 275 C 90 291 122 300 166 300 C 172 300 178 299 184 299 L 300 316 L 300 274 L 252 274 C 262 268 271 260 277 252 C 285 240 290 223 290 202 C 290 169 280 145 260 130 C 240 114 209 107 166 107 Z M 166 -54 C 185 -54 201 -53 213 -51 C 225 -49 234 -46 241 -42 C 248 -38 253 -33 256 -27 C 258 -21 260 -14 260 -7 C 260 8 253 18 239 23 C 225 27 201 30 166 30 C 146 30 130 28 118 26 C 106 24 97 21 91 17 C 85 13 81 9 79 4 C 77 -1 76 -7 76 -13 C 76 -28 83 -39 97 -45 C 111 -51 134 -54 166 -54 Z M 166 149 C 193 149 212 153 223 161 C 234 169 240 183 240 202 C 240 220 234 233 222 241 C 210 249 191 253 166 253 C 138 253 118 249 107 241 C 95 233 90 220 90 202 C 90 183 95 169 107 161 C 118 153 138 149 166 149 Z M 142 382 C 142 404 144 420 150 430 C 156 440 168 449 188 459 L 201 435 C 189 429 181 424 177 419 C 173 414 172 407 172 397 L 200 397 L 200 342 L 142 342 L 142 382 Z" unicode="ģ" />
<glyph horiz-adv-x="169" d="M 58 390 L 111 390 L 111 0 L 58 0 L 58 390 Z M -11 475 L 186 475 L 186 431 L -11 431 L -11 475 Z" unicode="Ī" />
<glyph horiz-adv-x="153" d="M 51 294 L 102 294 L 102 0 L 51 0 L 51 294 Z M -21 384 L 176 384 L 176 340 L -21 340 L -21 384 Z" unicode="ī" />
<glyph horiz-adv-x="169" d="M 85 -117 C 59 -117 41 -112 32 -102 C 22 -92 18 -79 18 -64 C 18 -48 22 -35 30 -24 C 38 -12 47 -3 58 3 L 58 390 L 111 390 L 111 0 C 77 -21 60 -40 60 -57 C 60 -63 62 -69 66 -74 C 70 -78 78 -81 91 -81 C 99 -81 107 -80 114 -78 C 120 -76 126 -75 132 -74 L 145 -105 C 137 -108 128 -111 118 -113 C 108 -115 97 -117 85 -117 Z" unicode="Į" />
<glyph horiz-adv-x="153" d="M 75 -117 C 49 -117 31 -112 22 -102 C 12 -92 8 -79 8 -64 C 8 -48 12 -35 21 -24 C 29 -12 39 -3 51 3 L 51 294 L 102 294 L 102 0 C 68 -20 51 -39 51 -57 C 51 -63 52 -69 56 -74 C 60 -78 68 -81 82 -81 C 90 -81 98 -80 104 -78 C 110 -76 116 -75 122 -74 L 135 -105 C 127 -108 119 -111 109 -113 C 99 -115 87 -117 75 -117 Z M 50 390 L 103 390 L 103 329 L 50 329 L 50 390 Z" unicode="į" />
<glyph horiz-adv-x="169" d="M 58 390 L 111 390 L 111 0 L 58 0 L 58 390 Z M 62 495 L 113 495 L 113 433 L 62 433 L 62 495 Z" unicode="İ" />
<glyph horiz-adv-x="153" d="M 51 294 L 102 294 L 102 0 L 51 0 L 51 294 Z" unicode="ı" />
<glyph horiz-adv-x="399" d="M 54 390 L 107 390 L 107 186 L 290 390 L 352 390 L 214 236 L 370 0 L 310 0 L 179 197 L 107 117 L 107 0 L 54 0 L 54 390 Z M 169 -127 C 181 -121 189 -115 193 -110 C 197 -105 199 -98 199 -89 L 171 -89 L 171 -31 L 229 -31 L 229 -74 C 229 -95 226 -111 220 -122 C 214 -132 201 -142 182 -151 L 169 -127 Z" unicode="Ķ" />
<glyph horiz-adv-x="315" d="M 48 409 L 99 409 L 99 143 L 228 294 L 285 294 L 182 171 L 296 0 L 239 0 L 147 135 L 99 79 L 99 0 L 48 0 L 48 409 Z M 125 -127 C 137 -121 145 -115 149 -110 C 153 -105 155 -98 155 -89 L 127 -89 L 127 -31 L 185 -31 L 185 -74 C 185 -95 182 -111 176 -122 C 170 -132 157 -142 138 -151 L 125 -127 Z" unicode="ķ" />
<glyph horiz-adv-x="334" d="M 54 390 L 108 390 L 108 49 L 311 49 L 311 0 L 54 0 L 54 390 Z M 138 521 L 200 521 L 107 434 L 59 434 L 138 521 Z" unicode="Ĺ" />
<glyph horiz-adv-x="181" d="M 118 -1 C 93 -1 76 4 66 16 C 56 28 52 48 52 76 L 52 409 L 103 409 L 103 81 C 103 67 104 58 108 53 C 112 47 121 45 136 45 L 157 45 L 157 1 C 154 0 148 0 140 0 C 131 0 124 -1 118 -1 Z M 131 534 L 193 534 L 100 447 L 52 447 L 131 534 Z" unicode="ĺ" />
<glyph horiz-adv-x="334" d="M 54 390 L 108 390 L 108 49 L 311 49 L 311 0 L 54 0 L 54 390 Z M 136 -127 C 148 -121 156 -115 160 -110 C 164 -105 166 -98 166 -89 L 138 -89 L 138 -31 L 196 -31 L 196 -74 C 196 -95 193 -111 187 -122 C 181 -132 168 -142 149 -151 L 136 -127 Z" unicode="Ļ" />
<glyph horiz-adv-x="181" d="M 118 -1 C 93 -1 76 4 66 16 C 56 28 52 48 52 76 L 52 409 L 103 409 L 103 81 C 103 67 104 58 108 53 C 112 47 121 45 136 45 L 157 45 L 157 1 C 154 0 148 0 140 0 C 131 0 124 -1 118 -1 Z M 59 -127 C 71 -121 79 -115 83 -110 C 87 -105 89 -98 89 -89 L 61 -89 L 61 -31 L 119 -31 L 119 -74 C 119 -95 116 -111 110 -122 C 104 -132 91 -142 72 -151 L 59 -127 Z" unicode="ļ" />
<glyph horiz-adv-x="334" d="M 156 312 C 168 318 176 323 180 328 C 184 333 186 340 186 350 L 160 350 L 160 409 L 215 409 L 215 366 C 215 344 212 327 206 317 C 200 307 188 297 169 289 L 156 312 Z M 54 390 L 108 390 L 108 49 L 311 49 L 311 0 L 54 0 L 54 390 Z" unicode="Ľ" />
<glyph horiz-adv-x="214" d="M 144 312 C 156 318 163 323 167 328 C 171 333 173 340 173 350 L 147 350 L 147 409 L 202 409 L 202 366 C 202 344 199 327 193 317 C 187 307 174 297 155 289 L 144 312 Z M 117 -1 C 92 -1 75 4 65 16 C 55 28 51 48 51 76 L 51 409 L 102 409 L 102 81 C 102 67 103 58 107 53 C 111 47 120 45 135 45 L 156 45 L 156 1 C 153 0 147 0 139 0 C 130 0 123 -1 117 -1 Z" unicode="ľ" />
<glyph horiz-adv-x="334" d="M 54 390 L 108 390 L 108 49 L 311 49 L 311 0 L 54 0 L 54 390 Z M 10 200 L 191 301 L 191 255 L 10 154 L 10 200 Z" unicode="Ł" />
<glyph horiz-adv-x="214" d="M 139 -1 C 114 -1 97 4 87 16 C 77 27 73 47 73 75 L 73 409 L 124 409 L 124 80 C 124 66 125 57 129 51 C 133 45 142 43 156 43 L 169 43 L 169 1 C 165 0 161 0 156 0 C 151 0 145 -1 139 -1 Z M 22 240 L 180 332 L 180 287 L 22 196 L 22 240 Z" unicode="ł" />
<glyph horiz-adv-x="437" d="M 54 390 L 112 390 L 331 90 L 331 390 L 383 390 L 383 0 L 333 0 L 106 313 L 106 0 L 54 0 L 54 390 Z M 251 521 L 313 521 L 220 434 L 172 434 L 251 521 Z" unicode="Ń" />
<glyph horiz-adv-x="354" d="M 48 290 L 88 294 L 92 266 C 99 274 111 282 127 289 C 143 296 167 300 201 300 C 223 300 242 297 256 291 C 270 285 280 276 288 266 C 296 256 301 243 303 228 C 305 213 307 197 307 179 L 307 0 L 255 0 L 255 169 C 255 181 254 191 253 201 C 252 211 249 219 245 226 C 240 233 233 239 223 243 C 213 247 200 249 184 249 C 166 249 151 246 140 242 C 129 238 121 232 115 224 C 109 216 105 207 103 197 C 101 187 100 175 100 163 L 100 0 L 48 0 L 48 290 Z M 210 430 L 272 430 L 179 343 L 131 343 L 210 430 Z" unicode="ń" />
<glyph horiz-adv-x="437" d="M 54 390 L 112 390 L 331 90 L 331 390 L 383 390 L 383 0 L 333 0 L 106 313 L 106 0 L 54 0 L 54 390 Z M 187 -127 C 199 -121 207 -115 211 -110 C 215 -105 217 -98 217 -89 L 189 -89 L 189 -31 L 247 -31 L 247 -74 C 247 -95 244 -111 238 -122 C 232 -132 219 -142 200 -151 L 187 -127 Z" unicode="Ņ" />
<glyph horiz-adv-x="354" d="M 48 290 L 88 294 L 92 266 C 99 274 111 282 127 289 C 143 296 167 300 201 300 C 223 300 242 297 256 291 C 270 285 280 276 288 266 C 296 256 301 243 303 228 C 305 213 307 197 307 179 L 307 0 L 255 0 L 255 169 C 255 181 254 191 253 201 C 252 211 249 219 245 226 C 240 233 233 239 223 243 C 213 247 200 249 184 249 C 166 249 151 246 140 242 C 129 238 121 232 115 224 C 109 216 105 207 103 197 C 101 187 100 175 100 163 L 100 0 L 48 0 L 48 290 Z M 145 -127 C 157 -121 165 -115 169 -110 C 173 -105 175 -98 175 -89 L 147 -89 L 147 -31 L 205 -31 L 205 -74 C 205 -95 202 -111 196 -122 C 190 -132 177 -142 158 -151 L 145 -127 Z" unicode="ņ" />
<glyph horiz-adv-x="437" d="M 54 390 L 112 390 L 331 90 L 331 390 L 383 390 L 383 0 L 333 0 L 106 313 L 106 0 L 54 0 L 54 390 Z M 108 521 L 158 521 L 218 467 L 276 521 L 325 521 L 244 434 L 189 434 L 108 521 Z" unicode="Ň" />
<glyph horiz-adv-x="354" d="M 48 290 L 88 294 L 92 266 C 99 274 111 282 127 289 C 143 296 167 300 201 300 C 223 300 242 297 256 291 C 270 285 280 276 288 266 C 296 256 301 243 303 228 C 305 213 307 197 307 179 L 307 0 L 255 0 L 255 169 C 255 181 254 191 253 201 C 252 211 249 219 245 226 C 240 233 233 239 223 243 C 213 247 200 249 184 249 C 166 249 151 246 140 242 C 129 238 121 232 115 224 C 109 216 105 207 103 197 C 101 187 100 175 100 163 L 100 0 L 48 0 L 48 290 Z M 67 430 L 117 430 L 177 376 L 235 430 L 284 430 L 203 343 L 148 343 L 67 430 Z" unicode="ň" />
<glyph horiz-adv-x="463" d="M 231 -6 C 168 -6 119 9 84 41 C 49 73 32 124 32 196 C 32 266 49 318 84 350 C 119 382 168 398 231 398 C 293 398 342 382 377 350 C 412 318 430 266 430 196 C 430 124 412 73 377 41 C 342 9 293 -6 231 -6 Z M 231 43 C 281 43 318 56 342 82 C 365 108 377 146 377 195 C 377 243 365 280 342 306 C 318 332 281 346 231 346 C 179 346 142 332 119 306 C 96 280 85 243 85 195 C 85 146 96 108 119 82 C 142 56 179 43 231 43 Z M 132 475 L 329 475 L 329 431 L 132 431 L 132 475 Z" unicode="Ō" />
<glyph horiz-adv-x="357" d="M 178 -6 C 126 -6 89 7 67 33 C 45 59 34 97 34 147 C 34 197 45 235 67 261 C 89 287 126 300 178 300 C 230 300 267 287 289 261 C 311 235 323 197 323 147 C 323 97 311 59 289 33 C 267 7 230 -6 178 -6 Z M 178 40 C 212 40 236 49 250 67 C 264 85 271 112 271 146 C 271 180 264 206 250 224 C 236 242 212 251 178 251 C 143 251 119 242 105 224 C 91 206 85 180 85 146 C 85 112 91 85 105 67 C 119 49 143 40 178 40 Z M 79 384 L 276 384 L 276 340 L 79 340 L 79 384 Z" unicode="ō" />
<glyph horiz-adv-x="463" d="M 231 -6 C 168 -6 119 9 84 41 C 49 73 32 124 32 196 C 32 266 49 318 84 350 C 119 382 168 398 231 398 C 293 398 342 382 377 350 C 412 318 430 266 430 196 C 430 124 412 73 377 41 C 342 9 293 -6 231 -6 Z M 231 43 C 281 43 318 56 342 82 C 365 108 377 146 377 195 C 377 243 365 280 342 306 C 318 332 281 346 231 346 C 179 346 142 332 119 306 C 96 280 85 243 85 195 C 85 146 96 108 119 82 C 142 56 179 43 231 43 Z M 192 520 L 252 520 L 170 434 L 125 434 L 192 520 Z M 318 520 L 377 520 L 296 434 L 251 434 L 318 520 Z" unicode="Ő" />
<glyph horiz-adv-x="357" d="M 178 -6 C 126 -6 89 7 67 33 C 45 59 34 97 34 147 C 34 197 45 235 67 261 C 89 287 126 300 178 300 C 230 300 267 287 289 261 C 311 235 323 197 323 147 C 323 97 311 59 289 33 C 267 7 230 -6 178 -6 Z M 178 40 C 212 40 236 49 250 67 C 264 85 271 112 271 146 C 271 180 264 206 250 224 C 236 242 212 251 178 251 C 143 251 119 242 105 224 C 91 206 85 180 85 146 C 85 112 91 85 105 67 C 119 49 143 40 178 40 Z M 139 429 L 199 429 L 117 343 L 72 343 L 139 429 Z M 265 429 L 324 429 L 243 343 L 198 343 L 265 429 Z" unicode="ő" />
<glyph horiz-adv-x="685" d="M 380 390 L 642 390 L 642 340 L 429 340 L 429 227 L 637 227 L 637 177 L 429 177 L 429 49 L 644 49 L 644 0 L 380 0 L 380 51 C 378 48 375 46 373 44 C 343 10 295 -6 231 -6 C 166 -6 117 9 83 41 C 49 73 32 124 32 196 C 32 266 49 318 83 350 C 117 382 166 398 231 398 C 295 398 343 381 373 348 C 375 345 378 342 380 340 L 380 390 Z M 231 43 C 284 43 322 56 344 82 C 366 108 377 146 377 195 C 377 243 366 280 344 306 C 322 332 284 346 231 346 C 177 346 140 332 118 306 C 96 280 85 243 85 195 C 85 146 96 108 118 82 C 140 56 177 43 231 43 Z" unicode="Œ" />
<glyph horiz-adv-x="574" d="M 415 -6 C 384 -6 359 -2 341 6 C 323 14 309 25 300 39 L 296 45 C 293 41 290 37 288 33 C 267 7 230 -6 178 -6 C 124 -6 87 7 66 33 C 44 59 34 97 34 147 C 34 197 44 235 66 261 C 87 287 124 300 178 300 C 204 300 227 296 245 290 C 263 283 277 273 288 260 C 291 256 294 253 296 249 C 297 251 298 253 300 255 C 310 269 324 280 342 288 C 360 296 384 300 414 300 C 444 300 468 295 485 285 C 502 275 514 263 522 247 C 530 231 534 212 536 191 C 537 170 537 149 537 127 L 321 127 C 321 118 322 110 324 102 C 326 88 330 77 337 68 C 343 58 353 51 365 46 C 377 40 394 38 415 38 C 438 38 457 40 471 46 C 485 51 497 58 509 68 L 536 32 C 520 19 503 9 485 3 C 467 -2 443 -6 415 -6 Z M 178 40 C 212 40 236 49 250 67 C 264 85 271 112 271 146 C 271 180 264 206 250 224 C 236 242 212 251 178 251 C 143 251 119 242 105 224 C 91 206 85 180 85 146 C 85 112 91 85 105 67 C 119 49 143 40 178 40 Z M 489 172 C 488 183 487 194 485 204 C 483 214 480 222 475 230 C 470 237 463 243 453 247 C 443 251 430 254 413 254 C 393 254 377 251 365 246 C 353 240 343 233 337 224 C 331 214 326 203 324 190 C 323 184 322 178 322 172 L 489 172 Z" unicode="œ" />
<glyph horiz-adv-x="406" d="M 54 390 L 228 390 C 278 390 313 380 334 360 C 354 340 365 311 365 273 C 365 235 354 205 333 183 C 319 168 298 158 271 153 L 359 0 L 303 0 L 216 150 L 107 150 L 107 0 L 54 0 L 54 390 Z M 227 200 C 254 200 275 204 290 214 C 304 223 312 242 312 271 C 312 299 304 317 290 327 C 275 336 254 341 226 341 L 107 341 L 107 200 L 227 200 Z M 236 521 L 298 521 L 205 434 L 157 434 L 236 521 Z" unicode="Ŕ" />
<glyph horiz-adv-x="216" d="M 48 290 L 88 294 L 93 257 C 99 267 113 276 133 284 C 153 292 177 296 203 297 L 203 245 C 163 245 135 236 121 220 C 107 203 100 181 100 154 L 100 0 L 48 0 L 48 290 Z M 147 430 L 209 430 L 116 343 L 68 343 L 147 430 Z" unicode="ŕ" />
<glyph horiz-adv-x="406" d="M 54 390 L 228 390 C 278 390 313 380 334 360 C 354 340 365 311 365 273 C 365 235 354 205 333 183 C 319 168 298 158 271 153 L 359 0 L 303 0 L 216 150 L 107 150 L 107 0 L 54 0 L 54 390 Z M 227 200 C 254 200 275 204 290 214 C 304 223 312 242 312 271 C 312 299 304 317 290 327 C 275 336 254 341 226 341 L 107 341 L 107 200 L 227 200 Z M 172 -127 C 184 -121 192 -115 196 -110 C 200 -105 202 -98 202 -89 L 174 -89 L 174 -31 L 232 -31 L 232 -74 C 232 -95 229 -111 223 -122 C 217 -132 204 -142 185 -151 L 172 -127 Z" unicode="Ŗ" />
<glyph horiz-adv-x="216" d="M 48 290 L 88 294 L 93 257 C 99 267 113 276 133 284 C 153 292 177 296 203 297 L 203 245 C 163 245 135 236 121 220 C 107 203 100 181 100 154 L 100 0 L 48 0 L 48 290 Z M 45 -127 C 57 -121 65 -115 69 -110 C 73 -105 75 -98 75 -89 L 47 -89 L 47 -31 L 105 -31 L 105 -74 C 105 -95 102 -111 96 -122 C 90 -132 77 -142 58 -151 L 45 -127 Z" unicode="ŗ" />
<glyph horiz-adv-x="406" d="M 54 390 L 228 390 C 278 390 313 380 334 360 C 354 340 365 311 365 273 C 365 235 354 205 333 183 C 319 168 298 158 271 153 L 359 0 L 303 0 L 216 150 L 107 150 L 107 0 L 54 0 L 54 390 Z M 227 200 C 254 200 275 204 290 214 C 304 223 312 242 312 271 C 312 299 304 317 290 327 C 275 336 254 341 226 341 L 107 341 L 107 200 L 227 200 Z M 93 521 L 143 521 L 203 467 L 261 521 L 310 521 L 229 434 L 174 434 L 93 521 Z" unicode="Ř" />
<glyph horiz-adv-x="212" d="M 48 290 L 88 294 L 93 257 C 99 267 113 276 133 284 C 153 292 177 296 203 297 L 203 245 C 163 245 135 236 121 220 C 107 203 100 181 100 154 L 100 0 L 48 0 L 48 290 Z M -1 430 L 49 430 L 109 376 L 167 430 L 216 430 L 135 343 L 80 343 L -1 430 Z" unicode="ř" />
<glyph horiz-adv-x="396" d="M 197 -5 C 165 -5 135 -1 107 5 C 79 12 53 24 29 41 L 56 82 C 79 67 102 56 125 50 C 148 44 171 41 195 41 C 235 41 264 46 281 57 C 297 68 306 85 306 109 C 306 121 303 131 298 139 C 292 147 285 153 275 158 C 265 162 254 166 240 169 C 226 171 211 174 195 177 C 173 181 153 185 135 189 C 117 193 101 200 89 208 C 76 216 66 226 59 239 C 52 251 49 268 49 288 C 49 328 61 356 86 373 C 110 389 147 398 196 398 C 229 398 257 394 281 387 C 304 380 323 372 339 362 L 310 317 C 296 326 279 333 259 339 C 239 345 218 348 196 348 C 162 348 138 343 124 334 C 110 325 103 310 103 289 C 103 267 112 252 130 245 C 148 237 175 231 209 226 C 231 222 251 217 269 213 C 287 209 302 203 316 195 C 329 187 339 176 347 163 C 354 150 358 133 358 112 C 358 72 345 43 320 24 C 294 4 253 -5 197 -5 Z M 232 521 L 294 521 L 201 434 L 153 434 L 232 521 Z" unicode="Ś" />
<glyph horiz-adv-x="302" d="M 150 -5 C 128 -5 107 -2 85 2 C 63 6 43 15 23 29 L 49 69 C 66 57 84 49 102 45 C 120 41 137 39 153 39 C 178 39 196 41 207 47 C 217 53 223 64 223 82 C 223 96 217 106 207 111 C 197 115 179 120 153 126 C 135 128 120 131 106 135 C 92 139 80 144 70 150 C 60 156 52 165 46 175 C 40 185 38 199 38 216 C 38 243 46 264 64 278 C 81 292 111 300 153 300 C 175 300 196 297 215 293 C 234 288 250 282 264 274 L 241 232 C 229 238 216 242 202 246 C 187 250 171 252 154 252 C 128 252 111 248 102 242 C 93 236 89 227 89 216 C 89 202 94 192 104 187 C 114 182 131 177 155 173 C 173 169 189 166 204 163 C 218 159 231 154 241 148 C 251 142 258 134 264 124 C 270 114 273 100 273 84 C 273 50 263 27 244 14 C 225 1 194 -5 150 -5 Z M 187 430 L 249 430 L 156 343 L 108 343 L 187 430 Z" unicode="ś" />
<glyph horiz-adv-x="396" d="M 197 -5 C 165 -5 135 -1 107 5 C 79 12 53 24 29 41 L 56 82 C 79 67 102 56 125 50 C 148 44 171 41 195 41 C 235 41 264 46 281 57 C 297 68 306 85 306 109 C 306 121 303 131 298 139 C 292 147 285 153 275 158 C 265 162 254 166 240 169 C 226 171 211 174 195 177 C 173 181 153 185 135 189 C 117 193 101 200 89 208 C 76 216 66 226 59 239 C 52 251 49 268 49 288 C 49 328 61 356 86 373 C 110 389 147 398 196 398 C 229 398 257 394 281 387 C 304 380 323 372 339 362 L 310 317 C 296 326 279 333 259 339 C 239 345 218 348 196 348 C 162 348 138 343 124 334 C 110 325 103 310 103 289 C 103 267 112 252 130 245 C 148 237 175 231 209 226 C 231 222 251 217 269 213 C 287 209 302 203 316 195 C 329 187 339 176 347 163 C 354 150 358 133 358 112 C 358 72 345 43 320 24 C 294 4 253 -5 197 -5 Z M 201 -123 C 187 -123 175 -121 165 -118 C 155 -115 145 -111 137 -106 L 151 -79 C 167 -87 183 -92 199 -92 C 215 -92 226 -89 231 -84 C 235 -79 238 -73 238 -66 C 238 -56 234 -50 227 -46 C 219 -42 207 -41 189 -43 L 177 -35 L 184 4 L 215 4 L 211 -24 C 227 -22 241 -24 254 -29 C 267 -34 274 -47 274 -69 C 274 -86 268 -99 256 -109 C 244 -118 226 -123 201 -123 Z" unicode="Ş" />
<glyph horiz-adv-x="302" d="M 150 -5 C 128 -5 107 -2 85 2 C 63 6 43 15 23 29 L 49 69 C 66 57 84 49 102 45 C 120 41 137 39 153 39 C 178 39 196 41 207 47 C 217 53 223 64 223 82 C 223 96 217 106 207 111 C 197 115 179 120 153 126 C 135 128 120 131 106 135 C 92 139 80 144 70 150 C 60 156 52 165 46 175 C 40 185 38 199 38 216 C 38 243 46 264 64 278 C 81 292 111 300 153 300 C 175 300 196 297 215 293 C 234 288 250 282 264 274 L 241 232 C 229 238 216 242 202 246 C 187 250 171 252 154 252 C 128 252 111 248 102 242 C 93 236 89 227 89 216 C 89 202 94 192 104 187 C 114 182 131 177 155 173 C 173 169 189 166 204 163 C 218 159 231 154 241 148 C 251 142 258 134 264 124 C 270 114 273 100 273 84 C 273 50 263 27 244 14 C 225 1 194 -5 150 -5 Z M 156 -123 C 142 -123 130 -121 120 -118 C 110 -115 100 -111 92 -106 L 106 -79 C 122 -87 138 -92 154 -92 C 170 -92 181 -89 186 -84 C 190 -79 193 -73 193 -66 C 193 -56 189 -50 182 -46 C 174 -42 162 -41 144 -43 L 132 -35 L 139 4 L 170 4 L 166 -24 C 182 -22 196 -24 209 -29 C 222 -34 229 -47 229 -69 C 229 -86 223 -99 211 -109 C 199 -118 181 -123 156 -123 Z" unicode="ş" />
<glyph horiz-adv-x="396" d="M 197 -5 C 165 -5 135 -1 107 5 C 79 12 53 24 29 41 L 56 82 C 79 67 102 56 125 50 C 148 44 171 41 195 41 C 235 41 264 46 281 57 C 297 68 306 85 306 109 C 306 121 303 131 298 139 C 292 147 285 153 275 158 C 265 162 254 166 240 169 C 226 171 211 174 195 177 C 173 181 153 185 135 189 C 117 193 101 200 89 208 C 76 216 66 226 59 239 C 52 251 49 268 49 288 C 49 328 61 356 86 373 C 110 389 147 398 196 398 C 229 398 257 394 281 387 C 304 380 323 372 339 362 L 310 317 C 296 326 279 333 259 339 C 239 345 218 348 196 348 C 162 348 138 343 124 334 C 110 325 103 310 103 289 C 103 267 112 252 130 245 C 148 237 175 231 209 226 C 231 222 251 217 269 213 C 287 209 302 203 316 195 C 329 187 339 176 347 163 C 354 150 358 133 358 112 C 358 72 345 43 320 24 C 294 4 253 -5 197 -5 Z M 89 521 L 139 521 L 199 467 L 257 521 L 306 521 L 225 434 L 170 434 L 89 521 Z" unicode="Š" />
<glyph horiz-adv-x="302" d="M 150 -5 C 128 -5 107 -2 85 2 C 63 6 43 15 23 29 L 49 69 C 66 57 84 49 102 45 C 120 41 137 39 153 39 C 178 39 196 41 207 47 C 217 53 223 64 223 82 C 223 96 217 106 207 111 C 197 115 179 120 153 126 C 135 128 120 131 106 135 C 92 139 80 144 70 150 C 60 156 52 165 46 175 C 40 185 38 199 38 216 C 38 243 46 264 64 278 C 81 292 111 300 153 300 C 175 300 196 297 215 293 C 234 288 250 282 264 274 L 241 232 C 229 238 216 242 202 246 C 187 250 171 252 154 252 C 128 252 111 248 102 242 C 93 236 89 227 89 216 C 89 202 94 192 104 187 C 114 182 131 177 155 173 C 173 169 189 166 204 163 C 218 159 231 154 241 148 C 251 142 258 134 264 124 C 270 114 273 100 273 84 C 273 50 263 27 244 14 C 225 1 194 -5 150 -5 Z M 44 430 L 94 430 L 154 376 L 212 430 L 261 430 L 180 343 L 125 343 L 44 430 Z" unicode="š" />
<glyph horiz-adv-x="386" d="M 167 340 L 22 340 L 22 390 L 363 390 L 363 340 L 220 340 L 220 0 L 167 0 L 167 340 Z M 161 -127 C 173 -121 181 -115 185 -110 C 189 -105 191 -98 191 -89 L 163 -89 L 163 -31 L 221 -31 L 221 -74 C 221 -95 218 -111 212 -122 C 206 -132 193 -142 174 -151 L 161 -127 Z" unicode="Ţ" />
<glyph horiz-adv-x="240" d="M 171 -1 C 153 -1 139 0 128 4 C 117 7 109 12 103 19 C 97 25 92 34 90 44 C 88 54 87 66 87 80 L 87 277 L 97 377 L 138 384 L 138 87 C 138 73 140 63 145 56 C 149 48 161 45 181 45 L 226 45 L 226 0 C 224 0 221 0 216 0 C 211 0 206 -1 200 -1 C 194 -1 188 -1 182 -1 C 176 -1 173 -1 171 -1 Z M 25 294 L 226 294 L 226 247 L 25 247 L 25 294 Z M 75 -127 C 87 -121 95 -115 99 -110 C 103 -105 105 -98 105 -89 L 77 -89 L 77 -31 L 135 -31 L 135 -74 C 135 -95 132 -111 126 -122 C 120 -132 107 -142 88 -151 L 75 -127 Z" unicode="ţ" />
<glyph horiz-adv-x="386" d="M 167 340 L 22 340 L 22 390 L 363 390 L 363 340 L 220 340 L 220 0 L 167 0 L 167 340 Z M 84 521 L 134 521 L 194 467 L 252 521 L 301 521 L 220 434 L 165 434 L 84 521 Z" unicode="Ť" />
<glyph horiz-adv-x="240" d="M 168 364 C 179 370 186 375 190 380 C 194 385 196 393 196 403 L 172 403 L 172 458 L 224 458 L 224 416 C 224 394 221 379 216 369 C 210 359 198 349 180 341 L 168 364 Z M 171 -1 C 153 -1 139 0 128 4 C 117 7 109 12 103 19 C 97 25 92 34 90 44 C 88 54 87 66 87 80 L 87 277 L 97 377 L 138 384 L 138 87 C 138 73 140 63 145 56 C 149 48 161 45 181 45 L 226 45 L 226 0 C 224 0 221 0 216 0 C 211 0 206 -1 200 -1 C 194 -1 188 -1 182 -1 C 176 -1 173 -1 171 -1 Z M 25 294 L 226 294 L 226 247 L 25 247 L 25 294 Z" unicode="ť" />
<glyph horiz-adv-x="435" d="M 217 -7 C 181 -7 152 -2 130 5 C 108 13 91 25 79 39 C 67 53 60 69 56 87 C 52 105 51 123 51 143 L 51 390 L 105 390 L 105 149 C 105 133 106 118 109 105 C 112 92 118 81 126 72 C 134 62 146 55 161 50 C 175 45 194 43 218 43 C 241 43 260 45 275 50 C 290 55 302 62 310 71 C 318 80 324 91 327 105 C 330 118 332 133 332 149 L 332 390 L 385 390 L 385 143 C 385 123 383 105 379 87 C 375 69 368 53 356 39 C 344 25 327 13 305 5 C 283 -2 253 -7 217 -7 Z M 118 475 L 315 475 L 315 431 L 118 431 L 118 475 Z" unicode="Ū" />
<glyph horiz-adv-x="350" d="M 176 -5 C 148 -5 125 -2 108 3 C 90 9 77 17 68 28 C 59 39 53 53 50 69 C 47 85 46 104 46 126 L 46 294 L 98 294 L 98 125 C 98 113 98 102 99 92 C 100 82 103 73 108 65 C 113 57 121 51 131 47 C 141 43 156 41 176 41 C 195 41 210 43 221 47 C 231 51 239 57 244 65 C 248 73 251 82 252 92 C 252 102 253 114 253 126 L 253 294 L 304 294 L 304 127 C 304 105 302 85 299 69 C 296 53 290 39 281 28 C 272 17 259 9 243 3 C 226 -2 204 -5 176 -5 Z M 75 384 L 272 384 L 272 340 L 75 340 L 75 384 Z" unicode="ū" />
<glyph horiz-adv-x="435" d="M 217 -7 C 181 -7 152 -2 130 5 C 108 13 91 25 79 39 C 67 53 60 69 56 87 C 52 105 51 123 51 143 L 51 390 L 105 390 L 105 149 C 105 133 106 118 109 105 C 112 92 118 81 126 72 C 134 62 146 55 161 50 C 175 45 194 43 218 43 C 241 43 260 45 275 50 C 290 55 302 62 310 71 C 318 80 324 91 327 105 C 330 118 332 133 332 149 L 332 390 L 385 390 L 385 143 C 385 123 383 105 379 87 C 375 69 368 53 356 39 C 344 25 327 13 305 5 C 283 -2 253 -7 217 -7 Z M 217 428 C 193 428 176 434 166 447 C 156 460 151 476 151 496 C 151 515 156 531 166 545 C 176 558 193 565 217 565 C 239 565 256 558 266 545 C 276 531 282 515 282 496 C 282 476 276 460 266 447 C 256 434 239 428 217 428 Z M 217 456 C 230 456 239 459 245 467 C 251 475 254 484 254 496 C 254 507 251 516 245 524 C 239 531 230 535 217 535 C 203 535 193 531 187 524 C 181 516 178 507 178 496 C 178 484 181 475 187 467 C 193 459 203 456 217 456 Z" unicode="Ů" />
<glyph horiz-adv-x="350" d="M 176 -5 C 148 -5 125 -2 108 3 C 90 9 77 17 68 28 C 59 39 53 53 50 69 C 47 85 46 104 46 126 L 46 294 L 98 294 L 98 125 C 98 113 98 102 99 92 C 100 82 103 73 108 65 C 113 57 121 51 131 47 C 141 43 156 41 176 41 C 195 41 210 43 221 47 C 231 51 239 57 244 65 C 248 73 251 82 252 92 C 252 102 253 114 253 126 L 253 294 L 304 294 L 304 127 C 304 105 302 85 299 69 C 296 53 290 39 281 28 C 272 17 259 9 243 3 C 226 -2 204 -5 176 -5 Z M 174 337 C 150 337 133 343 123 356 C 113 369 108 385 108 405 C 108 424 113 440 123 454 C 133 467 150 474 174 474 C 196 474 213 467 223 454 C 233 440 239 424 239 405 C 239 385 233 369 223 356 C 213 343 196 337 174 337 Z M 174 365 C 187 365 196 368 202 376 C 208 384 211 393 211 405 C 211 416 208 425 202 433 C 196 440 187 444 174 444 C 160 444 150 440 144 433 C 138 425 135 416 135 405 C 135 393 138 384 144 376 C 150 368 160 365 174 365 Z" unicode="ů" />
<glyph horiz-adv-x="435" d="M 217 -7 C 181 -7 152 -2 130 5 C 108 13 91 25 79 39 C 67 53 60 69 56 87 C 52 105 51 123 51 143 L 51 390 L 105 390 L 105 149 C 105 133 106 118 109 105 C 112 92 118 81 126 72 C 134 62 146 55 161 50 C 175 45 194 43 218 43 C 241 43 260 45 275 50 C 290 55 302 62 310 71 C 318 80 324 91 327 105 C 330 118 332 133 332 149 L 332 390 L 385 390 L 385 143 C 385 123 383 105 379 87 C 375 69 368 53 356 39 C 344 25 327 13 305 5 C 283 -2 253 -7 217 -7 Z M 178 520 L 238 520 L 156 434 L 111 434 L 178 520 Z M 304 520 L 363 520 L 282 434 L 237 434 L 304 520 Z" unicode="Ű" />
<glyph horiz-adv-x="350" d="M 176 -5 C 148 -5 125 -2 108 3 C 90 9 77 17 68 28 C 59 39 53 53 50 69 C 47 85 46 104 46 126 L 46 294 L 98 294 L 98 125 C 98 113 98 102 99 92 C 100 82 103 73 108 65 C 113 57 121 51 131 47 C 141 43 156 41 176 41 C 195 41 210 43 221 47 C 231 51 239 57 244 65 C 248 73 251 82 252 92 C 252 102 253 114 253 126 L 253 294 L 304 294 L 304 127 C 304 105 302 85 299 69 C 296 53 290 39 281 28 C 272 17 259 9 243 3 C 226 -2 204 -5 176 -5 Z M 135 429 L 195 429 L 113 343 L 68 343 L 135 429 Z M 261 429 L 320 429 L 239 343 L 194 343 L 261 429 Z" unicode="ű" />
<glyph horiz-adv-x="435" d="M 231 -117 C 203 -117 185 -112 176 -102 C 166 -92 162 -80 162 -65 C 162 -51 165 -40 172 -31 C 179 -21 187 -13 196 -6 C 164 -4 139 1 120 10 C 101 19 86 30 76 44 C 66 58 59 73 56 90 C 52 107 51 125 51 143 L 51 390 L 105 390 L 105 149 C 105 133 106 118 109 105 C 112 92 118 81 126 72 C 134 62 146 55 161 50 C 175 45 194 43 218 43 C 241 43 260 45 275 50 C 290 55 302 62 310 71 C 318 80 324 91 327 105 C 330 118 332 133 332 149 L 332 390 L 385 390 L 385 143 C 385 125 383 107 380 90 C 376 73 370 58 360 44 C 350 30 335 19 317 10 C 298 1 273 -4 243 -6 C 217 -24 205 -41 205 -57 C 205 -63 207 -69 211 -74 C 215 -78 224 -81 238 -81 C 246 -81 255 -80 263 -78 C 271 -76 277 -74 283 -72 L 296 -103 C 288 -107 278 -110 266 -113 C 254 -115 243 -117 231 -117 Z" unicode="Ų" />
<glyph horiz-adv-x="350" d="M 189 -117 C 161 -117 143 -112 134 -102 C 124 -92 120 -80 120 -65 C 120 -51 123 -40 131 -30 C 138 -20 146 -11 155 -5 C 131 -3 111 0 97 6 C 83 12 72 21 64 32 C 56 43 51 56 49 72 C 47 88 46 106 46 126 L 46 294 L 98 294 L 98 125 C 98 113 98 102 99 92 C 100 82 103 73 108 65 C 113 57 121 51 131 47 C 141 43 156 41 176 41 C 195 41 210 43 221 47 C 231 51 239 57 244 65 C 248 73 251 82 252 92 C 252 102 253 114 253 126 L 253 294 L 304 294 L 304 127 C 304 107 302 89 300 74 C 298 58 293 45 286 34 C 278 23 268 14 255 8 C 242 2 225 -2 203 -4 C 175 -23 162 -41 162 -57 C 162 -63 164 -69 168 -74 C 172 -78 181 -81 195 -81 C 203 -81 212 -80 220 -78 C 228 -76 235 -74 241 -72 L 253 -103 C 245 -107 236 -110 224 -113 C 212 -115 201 -117 189 -117 Z" unicode="ų" />
<glyph horiz-adv-x="398" d="M 15 390 L 73 390 L 200 196 L 326 390 L 382 390 L 225 148 L 225 0 L 173 0 L 173 147 L 15 390 Z M 117 495 L 165 495 L 165 435 L 117 435 L 117 495 Z M 232 495 L 278 495 L 278 435 L 232 435 L 232 495 Z" unicode="Ÿ" />
<glyph horiz-adv-x="374" d="M 33 42 L 269 340 L 41 340 L 41 390 L 335 390 L 335 344 L 101 49 L 342 49 L 342 0 L 33 0 L 33 42 Z M 221 521 L 283 521 L 190 434 L 142 434 L 221 521 Z" unicode="Ź" />
<glyph horiz-adv-x="290" d="M 25 37 L 193 247 L 35 247 L 35 294 L 260 294 L 260 254 L 92 43 L 265 43 L 265 0 L 25 0 L 25 37 Z M 181 430 L 243 430 L 150 343 L 102 343 L 181 430 Z" unicode="ź" />
<glyph horiz-adv-x="374" d="M 33 42 L 269 340 L 41 340 L 41 390 L 335 390 L 335 344 L 101 49 L 342 49 L 342 0 L 33 0 L 33 42 Z M 161 495 L 212 495 L 212 433 L 161 433 L 161 495 Z" unicode="Ż" />
<glyph horiz-adv-x="290" d="M 25 37 L 193 247 L 35 247 L 35 294 L 260 294 L 260 254 L 92 43 L 265 43 L 265 0 L 25 0 L 25 37 Z M 121 404 L 172 404 L 172 342 L 121 342 L 121 404 Z" unicode="ż" />
<glyph horiz-adv-x="374" d="M 33 42 L 269 340 L 41 340 L 41 390 L 335 390 L 335 344 L 101 49 L 342 49 L 342 0 L 33 0 L 33 42 Z M 78 521 L 128 521 L 188 467 L 246 521 L 295 521 L 214 434 L 159 434 L 78 521 Z" unicode="Ž" />
<glyph horiz-adv-x="290" d="M 25 37 L 193 247 L 35 247 L 35 294 L 260 294 L 260 254 L 92 43 L 265 43 L 265 0 L 25 0 L 25 37 Z M 38 430 L 88 430 L 148 376 L 206 430 L 255 430 L 174 343 L 119 343 L 38 430 Z" unicode="ž" />
<glyph horiz-adv-x="311" d="M 136 305 C 138 317 141 328 145 339 C 148 349 153 358 160 366 C 167 373 177 379 189 383 C 201 387 218 390 238 390 L 258 390 L 258 342 L 241 342 C 229 342 220 340 214 338 C 207 335 202 331 198 327 C 194 322 191 316 189 310 C 187 304 185 297 183 290 L 104 -88 L 51 -88 L 136 305 Z M 56 239 L 258 239 L 258 193 L 56 193 L 56 239 Z" unicode="ƒ" />
<glyph horiz-adv-x="396" d="M 197 -5 C 165 -5 135 -1 107 5 C 79 12 53 24 29 41 L 56 82 C 79 67 102 56 125 50 C 148 44 171 41 195 41 C 235 41 264 46 281 57 C 297 68 306 85 306 109 C 306 121 303 131 298 139 C 292 147 285 153 275 158 C 265 162 254 166 240 169 C 226 171 211 174 195 177 C 173 181 153 185 135 189 C 117 193 101 200 89 208 C 76 216 66 226 59 239 C 52 251 49 268 49 288 C 49 328 61 356 86 373 C 110 389 147 398 196 398 C 229 398 257 394 281 387 C 304 380 323 372 339 362 L 310 317 C 296 326 279 333 259 339 C 239 345 218 348 196 348 C 162 348 138 343 124 334 C 110 325 103 310 103 289 C 103 267 112 252 130 245 C 148 237 175 231 209 226 C 231 222 251 217 269 213 C 287 209 302 203 316 195 C 329 187 339 176 347 163 C 354 150 358 133 358 112 C 358 72 345 43 320 24 C 294 4 253 -5 197 -5 Z M 167 -127 C 179 -121 187 -115 191 -110 C 195 -105 197 -98 197 -89 L 169 -89 L 169 -31 L 227 -31 L 227 -74 C 227 -95 224 -111 218 -122 C 212 -132 199 -142 180 -151 L 167 -127 Z" unicode="Ș" />
<glyph horiz-adv-x="302" d="M 150 -5 C 128 -5 107 -2 85 2 C 63 6 43 15 23 29 L 49 69 C 66 57 84 49 102 45 C 120 41 137 39 153 39 C 178 39 196 41 207 47 C 217 53 223 64 223 82 C 223 96 217 106 207 111 C 197 115 179 120 153 126 C 135 128 120 131 106 135 C 92 139 80 144 70 150 C 60 156 52 165 46 175 C 40 185 38 199 38 216 C 38 243 46 264 64 278 C 81 292 111 300 153 300 C 175 300 196 297 215 293 C 234 288 250 282 264 274 L 241 232 C 229 238 216 242 202 246 C 187 250 171 252 154 252 C 128 252 111 248 102 242 C 93 236 89 227 89 216 C 89 202 94 192 104 187 C 114 182 131 177 155 173 C 173 169 189 166 204 163 C 218 159 231 154 241 148 C 251 142 258 134 264 124 C 270 114 273 100 273 84 C 273 50 263 27 244 14 C 225 1 194 -5 150 -5 Z M 119 -127 C 131 -121 139 -115 143 -110 C 147 -105 149 -98 149 -89 L 121 -89 L 121 -31 L 179 -31 L 179 -74 C 179 -95 176 -111 170 -122 C 164 -132 151 -142 132 -151 L 119 -127 Z" unicode="ș" />
<glyph horiz-adv-x="386" d="M 167 340 L 22 340 L 22 390 L 363 390 L 363 340 L 220 340 L 220 0 L 167 0 L 167 340 Z M 161 -127 C 173 -121 181 -115 185 -110 C 189 -105 191 -98 191 -89 L 163 -89 L 163 -31 L 221 -31 L 221 -74 C 221 -95 218 -111 212 -122 C 206 -132 193 -142 174 -151 L 161 -127 Z" unicode="Ț" />
<glyph horiz-adv-x="240" d="M 171 -1 C 153 -1 139 0 128 4 C 117 7 109 12 103 19 C 97 25 92 34 90 44 C 88 54 87 66 87 80 L 87 277 L 97 377 L 138 384 L 138 87 C 138 73 140 63 145 56 C 149 48 161 45 181 45 L 226 45 L 226 0 C 224 0 221 0 216 0 C 211 0 206 -1 200 -1 C 194 -1 188 -1 182 -1 C 176 -1 173 -1 171 -1 Z M 25 294 L 226 294 L 226 247 L 25 247 L 25 294 Z M 75 -127 C 87 -121 95 -115 99 -110 C 103 -105 105 -98 105 -89 L 77 -89 L 77 -31 L 135 -31 L 135 -74 C 135 -95 132 -111 126 -122 C 120 -132 107 -142 88 -151 L 75 -127 Z" unicode="ț" />
<glyph horiz-adv-x="331" d="M 138 430 L 193 430 L 274 343 L 224 343 L 164 397 L 106 343 L 57 343 L 138 430 Z" unicode="ˆ" />
<glyph horiz-adv-x="331" d="M 57 430 L 107 430 L 167 376 L 225 430 L 274 430 L 193 343 L 138 343 L 57 430 Z" unicode="ˇ" />
<glyph horiz-adv-x="331" d="M 166 337 C 148 337 132 339 120 343 C 108 347 98 354 91 362 C 83 370 77 379 73 389 C 69 399 66 411 64 423 L 102 431 C 105 415 111 403 119 393 C 127 383 143 379 166 379 C 188 379 203 383 212 393 C 220 403 226 415 230 431 L 269 424 C 266 412 262 400 258 390 C 254 379 248 370 240 362 C 232 354 222 347 210 343 C 198 339 184 337 166 337 Z" unicode="˘" />
<glyph horiz-adv-x="331" d="M 140 404 L 191 404 L 191 342 L 140 342 L 140 404 Z" unicode="˙" />
<glyph horiz-adv-x="331" d="M 166 337 C 142 337 125 343 115 356 C 105 369 100 385 100 405 C 100 424 105 440 115 454 C 125 467 142 474 166 474 C 188 474 205 467 215 454 C 225 440 231 424 231 405 C 231 385 225 369 215 356 C 205 343 188 337 166 337 Z M 166 365 C 179 365 188 368 194 376 C 200 384 203 393 203 405 C 203 416 200 425 194 433 C 188 440 179 444 166 444 C 152 444 142 440 136 433 C 130 425 127 416 127 405 C 127 393 130 384 136 376 C 142 368 152 365 166 365 Z" unicode="˚" />
<glyph horiz-adv-x="331" d="M 171 -117 C 143 -117 125 -112 116 -102 C 107 -92 103 -80 103 -65 C 103 -57 104 -49 108 -42 C 111 -34 115 -28 120 -22 C 124 -16 129 -10 135 -6 C 141 -2 146 1 151 4 L 198 4 C 180 -5 166 -15 158 -26 C 149 -37 145 -47 145 -57 C 145 -63 146 -69 150 -74 C 154 -78 163 -81 177 -81 C 185 -81 194 -80 202 -78 C 210 -76 217 -74 222 -72 L 236 -103 C 227 -107 217 -110 205 -113 C 193 -115 182 -117 171 -117 Z" unicode="˛" />
<glyph horiz-adv-x="331" d="M 57 369 C 67 382 79 392 91 400 C 103 408 116 412 128 412 C 136 412 144 410 151 408 C 157 405 163 402 169 399 C 174 396 179 393 184 391 C 189 388 195 387 202 387 C 208 387 215 389 222 395 C 228 400 236 407 244 416 L 274 391 C 263 377 251 366 239 357 C 227 347 215 343 203 343 C 195 343 187 344 181 347 C 174 349 168 352 163 356 C 157 360 152 363 146 366 C 140 368 135 370 129 370 C 116 370 103 361 89 344 L 57 369 Z" unicode="˜" />
<glyph horiz-adv-x="331" d="M 127 429 L 187 429 L 105 343 L 60 343 L 127 429 Z M 253 429 L 312 429 L 231 343 L 186 343 L 253 429 Z" unicode="˝" />
<glyph horiz-adv-x="331" d="M 67 384 L 264 384 L 264 340 L 67 340 L 67 384 Z" unicode="̄" />
<glyph horiz-adv-x="154" d="M 46 -127 C 58 -121 66 -115 70 -110 C 74 -105 76 -98 76 -89 L 48 -89 L 48 -31 L 106 -31 L 106 -74 C 106 -95 103 -111 97 -122 C 91 -132 78 -142 59 -151 L 46 -127 Z" unicode="̦" />
<glyph horiz-adv-x="409" d="M 178 393 L 231 393 L 388 0 L 21 0 L 178 393 Z M 316 44 L 203 330 L 90 44 L 316 44 Z" unicode="Δ" />
<glyph horiz-adv-x="454" d="M 228 398 C 262 398 291 393 316 384 C 340 375 361 363 378 347 C 394 331 407 313 415 291 C 423 269 427 246 427 220 C 427 177 416 142 396 114 C 376 86 348 69 312 61 L 312 47 L 429 47 L 429 0 L 272 0 L 272 87 C 308 94 333 108 349 130 C 365 152 373 179 373 212 C 373 254 360 288 336 312 C 312 336 276 348 228 348 C 178 348 141 336 117 312 C 92 288 80 254 80 212 C 80 179 88 152 104 130 C 120 108 146 94 182 87 L 182 0 L 25 0 L 25 47 L 142 47 L 142 61 C 106 69 78 86 58 114 C 38 142 28 177 28 220 C 28 246 32 269 40 291 C 48 313 60 331 77 347 C 93 363 114 375 139 384 C 164 393 194 398 228 398 Z" unicode="Ω" />
<glyph horiz-adv-x="352" d="M 48 294 L 100 294 L 100 125 C 100 113 100 102 101 92 C 101 82 104 73 109 65 C 114 57 122 51 133 47 C 143 43 158 41 178 41 C 197 41 212 43 223 47 C 233 51 241 57 246 65 C 250 73 253 82 254 92 C 254 102 255 114 255 126 L 255 294 L 306 294 L 306 127 C 306 105 304 85 302 69 C 299 53 293 39 284 28 C 275 17 262 9 246 3 C 230 -2 208 -5 181 -5 C 157 -5 139 -2 127 1 C 114 5 105 12 100 20 L 100 -87 L 48 -87 L 48 294 Z" unicode="μ" />
<glyph horiz-adv-x="336" d="M 38 294 L 297 294 L 297 0 L 246 0 L 246 248 L 89 248 L 89 0 L 38 0 L 38 294 Z" unicode="π" />
<glyph horiz-adv-x="264" d="" unicode=" " />
<glyph horiz-adv-x="527" d="" unicode=" " />
<glyph horiz-adv-x="105" d="" unicode=" " />
<glyph horiz-adv-x="396" d="M 36 190 L 360 190 L 360 141 L 36 141 L 36 190 Z" unicode="–" />
<glyph horiz-adv-x="511" d="M 36 190 L 477 190 L 477 141 L 36 141 L 36 190 Z" unicode="—" />
<glyph horiz-adv-x="154" d="M 44 302 C 44 314 44 325 46 334 C 47 343 50 351 54 358 C 58 364 63 370 70 376 C 76 381 85 386 97 392 L 110 365 C 96 357 88 351 84 345 C 80 339 78 331 78 320 L 109 320 L 109 249 L 44 249 L 44 302 Z" unicode="‘" />
<glyph horiz-adv-x="154" d="M 43 275 C 56 282 65 288 69 294 C 73 300 76 308 76 319 L 44 319 L 44 390 L 109 390 L 109 339 C 109 325 108 314 107 305 C 105 296 103 288 99 282 C 95 275 90 269 83 264 C 76 258 67 253 57 248 L 43 275 Z" unicode="’" />
<glyph horiz-adv-x="154" d="M 43 -38 C 56 -30 65 -24 69 -18 C 73 -12 76 -4 76 7 L 44 7 L 44 77 L 109 77 L 109 25 C 109 1 105 -17 99 -30 C 93 -42 79 -54 57 -65 L 43 -38 Z" unicode="‚" />
<glyph horiz-adv-x="256" d="M 44 302 C 44 314 44 325 46 334 C 47 342 49 350 53 357 C 57 363 62 369 69 374 C 75 379 84 384 95 390 L 109 364 C 95 356 87 350 83 345 C 79 339 77 331 77 320 L 108 320 L 108 251 L 44 251 L 44 302 Z M 149 302 C 149 326 152 345 158 357 C 164 369 178 380 200 390 L 214 364 C 200 356 191 350 187 345 C 183 339 181 331 181 320 L 212 320 L 212 251 L 149 251 L 149 302 Z" unicode="“" />
<glyph horiz-adv-x="256" d="M 43 277 C 56 284 65 290 69 296 C 73 301 75 309 75 321 L 44 321 L 44 390 L 108 390 L 108 339 C 108 326 107 315 106 307 C 104 298 102 290 98 284 C 94 277 89 271 82 266 C 75 261 66 256 56 251 L 43 277 Z M 147 277 C 160 284 169 290 173 296 C 177 301 180 309 180 321 L 149 321 L 149 390 L 212 390 L 212 339 C 212 326 211 315 210 307 C 208 298 206 290 202 284 C 198 277 192 271 186 266 C 179 261 170 256 160 251 L 147 277 Z" unicode="”" />
<glyph horiz-adv-x="256" d="M 43 -37 C 56 -30 65 -24 69 -18 C 73 -12 75 -4 75 7 L 44 7 L 44 76 L 108 76 L 108 25 C 108 1 104 -16 98 -29 C 92 -41 78 -53 56 -63 L 43 -37 Z M 147 -37 C 160 -30 169 -24 173 -18 C 177 -12 180 -4 180 7 L 149 7 L 149 76 L 212 76 L 212 25 C 212 1 208 -16 202 -29 C 195 -41 181 -53 160 -63 L 147 -37 Z" unicode="„" />
<glyph horiz-adv-x="314" d="M 132 239 L 39 239 L 39 287 L 132 287 L 132 409 L 182 409 L 182 287 L 275 287 L 275 239 L 182 239 L 182 -88 L 132 -88 L 132 239 Z" unicode="†" />
<glyph horiz-adv-x="314" d="M 132 45 L 39 45 L 39 94 L 132 94 L 132 239 L 39 239 L 39 287 L 132 287 L 132 409 L 182 409 L 182 287 L 275 287 L 275 239 L 182 239 L 182 94 L 275 94 L 275 45 L 182 45 L 182 -88 L 132 -88 L 132 45 Z" unicode="‡" />
<glyph horiz-adv-x="206" d="M 61 208 L 146 208 L 146 113 L 61 113 L 61 208 Z" unicode="•" />
<glyph horiz-adv-x="402" d="M 44 70 L 109 70 L 109 0 L 44 0 L 44 70 Z M 169 70 L 234 70 L 234 0 L 169 0 L 169 70 Z M 293 70 L 358 70 L 358 0 L 293 0 L 293 70 Z" unicode="…" />
<glyph horiz-adv-x="867" d="M 143 146 C 103 146 75 157 58 180 C 40 203 32 234 32 272 C 32 309 40 339 58 363 C 75 386 103 398 143 398 C 181 398 208 386 225 363 C 242 339 251 309 251 272 C 251 234 242 203 225 180 C 208 157 181 146 143 146 Z M 143 187 C 166 187 182 195 192 211 C 201 227 206 248 206 272 C 206 295 201 314 192 330 C 182 346 166 354 143 354 C 117 354 100 346 91 331 C 82 315 78 296 78 272 C 78 248 82 227 91 211 C 100 195 117 187 143 187 Z M 482 -5 C 444 -5 416 6 399 29 C 381 51 373 82 373 121 C 373 158 381 188 399 211 C 416 234 444 246 482 246 C 520 246 547 234 565 211 C 583 188 592 158 592 121 C 592 82 583 51 565 29 C 547 6 520 -5 482 -5 Z M 482 36 C 506 36 522 44 532 60 C 541 76 546 96 546 121 C 546 144 541 163 532 179 C 522 195 506 203 482 203 C 458 203 441 195 432 179 C 423 163 419 144 419 121 C 419 96 423 76 432 60 C 441 44 458 36 482 36 Z M 726 -5 C 687 -5 659 6 642 29 C 624 51 616 82 616 121 C 616 158 624 188 642 211 C 659 234 687 246 726 246 C 764 246 791 234 809 211 C 826 188 835 158 835 121 C 835 82 826 51 809 29 C 791 6 764 -5 726 -5 Z M 726 36 C 749 36 765 44 775 60 C 784 76 789 96 789 121 C 789 144 784 163 775 179 C 765 195 749 203 726 203 C 701 203 684 195 675 179 C 666 163 662 144 662 121 C 662 96 666 76 675 60 C 684 44 701 36 726 36 Z M 396 391 L 445 391 L 226 0 L 178 0 L 396 391 Z" unicode="‰" />
<glyph horiz-adv-x="252" d="M 56 146 L 136 294 L 182 294 L 106 146 L 182 0 L 136 0 L 56 146 Z" unicode="‹" />
<glyph horiz-adv-x="252" d="M 146 146 L 69 294 L 116 294 L 196 146 L 116 0 L 69 0 L 146 146 Z" unicode="›" />
<glyph horiz-adv-x="286" d="M 228 390 L 276 390 L 56 0 L 10 0 L 228 390 Z" unicode="⁄" />
<glyph horiz-adv-x="310" d="M 155 144 C 117 144 91 155 77 178 C 63 201 56 232 56 270 C 56 308 63 338 77 360 C 91 382 117 394 155 394 C 193 394 219 382 233 360 C 247 338 254 308 254 270 C 254 232 247 201 233 178 C 219 155 193 144 155 144 Z M 155 179 C 180 179 196 187 203 203 C 210 219 214 242 214 270 C 214 297 210 319 203 335 C 196 351 180 359 155 359 C 129 359 113 351 107 335 C 100 319 97 297 97 270 C 97 242 100 219 107 203 C 113 187 129 179 155 179 Z" unicode="⁰" />
<glyph horiz-adv-x="289" d="M 46 232 L 154 390 L 198 390 L 90 233 L 247 233 L 247 200 L 46 200 L 46 232 Z M 169 229 L 176 306 L 207 306 L 207 147 L 169 147 L 169 229 Z" unicode="⁴" />
<glyph horiz-adv-x="285" d="M 141 144 C 120 144 102 146 87 152 C 72 157 59 162 48 168 L 69 200 C 78 194 88 189 100 185 C 111 181 124 179 138 179 C 157 179 172 182 182 188 C 192 194 198 207 198 229 C 198 249 193 263 183 269 C 173 275 159 278 141 278 C 129 278 120 277 113 276 C 106 274 99 272 92 269 L 60 277 L 67 390 L 220 390 L 220 356 L 102 356 L 99 303 C 113 308 130 311 150 311 C 162 311 173 310 184 308 C 194 306 204 302 212 296 C 220 290 227 281 232 271 C 236 260 239 246 239 229 C 239 211 236 196 231 185 C 226 174 219 166 211 160 C 202 154 192 149 180 147 C 168 145 155 144 141 144 Z" unicode="⁵" />
<glyph horiz-adv-x="297" d="M 155 144 C 121 144 95 152 79 168 C 62 184 54 211 54 249 C 54 273 56 295 61 313 C 65 331 73 345 84 357 C 94 368 109 376 127 382 C 145 387 167 390 194 390 L 209 390 L 209 356 L 193 356 C 155 356 130 350 118 339 C 105 327 97 310 94 288 C 101 297 110 304 122 308 C 134 312 148 314 166 314 C 197 314 218 306 230 291 C 242 276 248 256 248 231 C 248 203 241 182 227 167 C 213 151 189 144 155 144 Z M 155 176 C 177 176 192 180 199 190 C 205 200 209 213 209 230 C 209 246 205 258 198 268 C 190 278 176 283 155 283 C 136 283 121 279 111 272 C 100 264 95 252 95 236 C 95 214 100 198 110 189 C 120 180 135 176 155 176 Z" unicode="⁶" />
<glyph horiz-adv-x="247" d="M 164 355 L 37 355 L 37 390 L 209 390 L 209 358 L 117 147 L 74 147 L 164 355 Z" unicode="⁷" />
<glyph horiz-adv-x="302" d="M 151 144 C 115 144 89 150 74 164 C 58 177 51 195 51 217 C 51 233 54 246 60 257 C 66 268 77 276 92 282 C 79 286 70 293 66 302 C 62 310 60 321 60 335 C 60 353 66 367 79 379 C 91 391 115 397 151 397 C 186 397 210 391 223 379 C 236 367 243 352 243 335 C 243 321 240 310 236 302 C 231 293 222 286 209 281 C 224 276 235 268 241 257 C 247 246 250 233 250 217 C 250 195 242 177 227 164 C 212 150 187 144 151 144 Z M 151 175 C 190 175 210 190 210 220 C 210 250 190 266 151 266 C 111 266 92 250 92 220 C 92 190 111 175 151 175 Z M 151 294 C 170 294 183 297 191 303 C 199 309 203 318 203 330 C 203 341 199 349 191 355 C 183 361 170 364 151 364 C 131 364 118 361 111 355 C 103 349 100 341 100 330 C 100 318 103 309 111 303 C 118 297 131 294 151 294 Z" unicode="⁸" />
<glyph horiz-adv-x="297" d="M 90 181 L 106 181 C 124 181 140 182 152 185 C 164 188 173 193 181 199 C 189 205 194 212 198 221 C 201 229 203 239 205 251 C 192 233 168 225 134 225 C 102 225 80 232 68 246 C 56 260 51 281 51 309 C 51 335 57 356 71 371 C 84 386 109 394 145 394 C 179 394 204 386 220 370 C 236 354 245 327 245 289 C 245 239 235 203 215 181 C 195 158 158 147 106 147 L 90 147 L 90 181 Z M 144 254 C 162 254 176 258 187 266 C 197 274 203 286 203 302 C 203 324 198 339 188 348 C 178 357 164 362 145 362 C 123 362 108 357 101 347 C 93 337 90 324 90 308 C 90 291 93 278 101 268 C 108 258 122 254 144 254 Z" unicode="⁹" />
<glyph horiz-adv-x="310" d="M 155 -3 C 117 -3 91 8 77 31 C 63 54 56 85 56 123 C 56 161 63 191 77 213 C 91 235 117 247 155 247 C 193 247 219 235 233 213 C 247 191 254 161 254 123 C 254 85 247 54 233 31 C 219 8 193 -3 155 -3 Z M 155 32 C 180 32 196 40 203 56 C 210 72 214 95 214 123 C 214 150 210 172 203 188 C 196 204 180 212 155 212 C 129 212 113 204 107 188 C 100 172 97 150 97 123 C 97 95 100 72 107 56 C 113 40 129 32 155 32 Z" unicode="₀" />
<glyph horiz-adv-x="199" d="M 89 208 L 42 208 L 42 243 L 129 243 L 129 0 L 89 0 L 89 208 Z" unicode="₁" />
<glyph horiz-adv-x="263" d="M 43 30 L 121 103 C 131 112 139 120 145 127 C 151 133 156 139 160 145 C 164 150 166 155 168 160 C 169 165 170 171 170 178 C 170 189 166 197 159 203 C 151 209 139 212 122 212 C 109 212 97 210 86 208 C 75 205 66 202 59 198 L 41 230 C 52 235 64 239 77 242 C 90 245 107 247 127 247 C 155 247 175 242 189 232 C 203 222 210 206 210 184 C 210 174 208 165 206 157 C 204 149 200 142 196 135 C 191 127 185 120 178 112 C 170 104 161 96 151 86 L 98 34 L 213 34 L 213 0 L 43 0 L 43 30 Z" unicode="₂" />
<glyph horiz-adv-x="272" d="M 132 -3 C 112 -3 94 -1 80 2 C 66 6 51 12 37 21 L 57 52 C 69 44 80 39 92 36 C 103 33 115 32 128 32 C 148 32 162 34 170 40 C 178 46 183 57 183 75 C 183 89 179 100 171 106 C 163 112 147 116 123 116 L 87 116 L 87 149 L 122 149 C 142 149 156 151 164 155 C 172 159 176 168 176 182 C 176 193 172 201 164 205 C 156 209 144 212 127 212 C 102 212 80 206 61 196 L 42 226 C 53 233 67 238 83 242 C 99 245 116 247 133 247 C 163 247 184 242 197 233 C 210 224 217 210 217 190 C 217 160 205 142 183 135 C 197 131 208 124 214 114 C 220 103 223 88 223 70 C 223 43 215 24 201 13 C 186 2 163 -3 132 -3 Z" unicode="₃" />
<glyph horiz-adv-x="289" d="M 46 85 L 154 243 L 198 243 L 90 86 L 247 86 L 247 53 L 46 53 L 46 85 Z M 169 82 L 176 159 L 207 159 L 207 0 L 169 0 L 169 82 Z" unicode="₄" />
<glyph horiz-adv-x="285" d="M 141 -3 C 120 -3 102 0 87 5 C 72 10 59 15 48 21 L 69 53 C 78 47 88 42 100 38 C 111 34 124 32 138 32 C 157 32 172 35 182 41 C 192 47 198 60 198 82 C 198 102 193 116 183 122 C 173 128 159 131 141 131 C 129 131 120 130 113 129 C 106 127 99 125 92 122 L 60 130 L 67 243 L 220 243 L 220 209 L 102 209 L 99 156 C 113 161 130 164 150 164 C 162 164 173 163 184 161 C 194 159 204 155 212 149 C 220 143 227 134 232 124 C 236 113 239 99 239 82 C 239 64 236 49 231 38 C 226 27 219 19 211 13 C 202 7 192 2 180 0 C 168 -1 155 -3 141 -3 Z" unicode="₅" />
<glyph horiz-adv-x="297" d="M 155 -3 C 121 -3 95 5 79 21 C 62 37 54 64 54 102 C 54 126 56 148 61 166 C 65 184 73 198 84 210 C 94 221 109 229 127 235 C 145 240 167 243 194 243 L 209 243 L 209 209 L 193 209 C 155 209 130 203 118 192 C 105 180 97 163 94 141 C 101 150 110 157 122 161 C 134 165 148 167 166 167 C 197 167 218 159 230 144 C 242 129 248 109 248 84 C 248 56 241 35 227 20 C 213 4 189 -3 155 -3 Z M 155 29 C 177 29 192 33 199 43 C 205 53 209 66 209 83 C 209 99 205 111 198 121 C 190 131 176 136 155 136 C 136 136 121 132 111 125 C 100 117 95 105 95 89 C 95 67 100 51 110 42 C 120 33 135 29 155 29 Z" unicode="₆" />
<glyph horiz-adv-x="247" d="M 164 208 L 37 208 L 37 243 L 209 243 L 209 211 L 117 0 L 74 0 L 164 208 Z" unicode="₇" />
<glyph horiz-adv-x="302" d="M 151 -3 C 115 -3 89 3 74 17 C 58 30 51 48 51 70 C 51 86 54 99 60 110 C 66 121 77 129 92 135 C 79 139 70 146 66 155 C 62 163 60 174 60 188 C 60 206 66 220 79 232 C 91 244 115 250 151 250 C 186 250 210 244 223 232 C 236 220 243 205 243 188 C 243 174 240 163 236 155 C 231 146 222 139 209 134 C 224 129 235 121 241 110 C 247 99 250 86 250 70 C 250 48 242 30 227 17 C 212 3 187 -3 151 -3 Z M 151 28 C 190 28 210 43 210 73 C 210 103 190 119 151 119 C 111 119 92 103 92 73 C 92 43 111 28 151 28 Z M 151 147 C 170 147 183 150 191 156 C 199 162 203 171 203 183 C 203 194 199 202 191 208 C 183 214 170 217 151 217 C 131 217 118 214 111 208 C 103 202 100 194 100 183 C 100 171 103 162 111 156 C 118 150 131 147 151 147 Z" unicode="₈" />
<glyph horiz-adv-x="297" d="M 90 34 L 106 34 C 124 34 140 35 152 38 C 164 41 173 46 181 52 C 189 58 194 65 198 74 C 201 82 203 92 205 104 C 192 86 168 78 134 78 C 102 78 80 85 68 99 C 56 113 51 134 51 162 C 51 188 57 209 71 224 C 84 239 109 247 145 247 C 179 247 204 239 220 223 C 236 207 245 180 245 142 C 245 92 235 56 215 34 C 195 11 158 0 106 0 L 90 0 L 90 34 Z M 144 107 C 162 107 176 111 187 119 C 197 127 203 139 203 155 C 203 177 198 192 188 201 C 178 210 164 215 145 215 C 123 215 108 210 101 200 C 93 190 90 177 90 161 C 90 144 93 131 101 121 C 108 111 122 107 144 107 Z" unicode="₉" />
<glyph horiz-adv-x="377" d="M 234 -6 C 206 -6 182 -1 164 8 C 145 17 130 30 118 48 C 106 65 98 86 94 111 C 89 136 87 165 87 197 C 87 229 89 257 95 282 C 100 307 108 328 120 345 C 132 362 147 375 166 384 C 185 393 208 398 236 398 C 260 398 279 396 293 392 C 307 388 321 382 334 376 L 311 332 C 290 342 265 348 237 348 C 216 348 199 344 186 337 C 173 330 163 320 156 307 C 148 294 143 278 141 260 C 138 241 137 220 137 198 C 137 173 138 151 141 131 C 143 111 148 95 156 82 C 164 68 174 58 187 51 C 199 43 216 40 236 40 C 249 40 262 41 274 44 C 286 47 299 52 311 60 L 337 19 C 322 9 307 3 291 0 C 275 -4 256 -6 234 -6 Z M 29 177 L 273 177 L 273 133 L 29 133 L 29 177 Z M 29 259 L 273 259 L 273 215 L 29 215 L 29 259 Z" unicode="€" />
<glyph horiz-adv-x="456" d="M 226 -6 C 193 -6 164 -1 140 9 C 116 19 96 33 80 51 C 64 69 52 90 44 115 C 36 139 32 166 32 196 C 32 225 36 252 44 277 C 52 301 64 323 80 341 C 96 359 116 373 140 383 C 164 393 193 398 226 398 C 258 398 287 393 312 383 C 336 373 357 359 374 341 C 390 323 403 301 411 277 C 419 252 423 225 423 196 C 423 166 419 139 411 115 C 403 90 390 69 374 51 C 357 33 336 19 312 9 C 287 -1 258 -6 226 -6 Z M 226 16 C 256 16 282 20 304 29 C 326 38 344 51 358 67 C 372 83 383 102 390 124 C 396 146 400 170 400 196 C 400 222 396 246 390 268 C 383 290 372 308 358 324 C 344 340 326 352 304 361 C 282 370 256 375 226 375 C 196 375 170 370 149 361 C 127 352 110 340 96 324 C 82 308 71 290 65 268 C 58 246 55 222 55 196 C 55 170 58 146 65 124 C 71 102 82 83 96 67 C 110 51 127 38 149 29 C 170 20 196 16 226 16 Z M 137 323 L 254 323 C 289 323 313 316 327 303 C 340 290 347 270 347 243 C 347 215 340 194 327 180 C 313 166 289 159 254 159 L 173 159 L 173 61 L 137 61 L 137 323 Z M 255 191 C 274 191 288 194 297 202 C 306 209 311 222 311 241 C 311 259 306 272 297 279 C 287 286 273 290 254 290 L 173 290 L 173 191 L 255 191 Z" unicode="℗" />
<glyph horiz-adv-x="596" d="M 269 390 L 313 390 L 391 204 L 468 390 L 514 390 L 514 150 L 475 150 L 475 321 L 404 150 L 377 150 L 307 321 L 307 150 L 269 150 L 269 390 Z M 123 354 L 42 354 L 42 390 L 245 390 L 245 354 L 162 354 L 162 150 L 123 150 L 123 354 Z" unicode="™" />
<glyph horiz-adv-x="454" d="M 228 398 C 262 398 291 393 316 384 C 340 375 361 363 378 347 C 394 331 407 313 415 291 C 423 269 427 246 427 220 C 427 177 416 142 396 114 C 376 86 348 69 312 61 L 312 47 L 429 47 L 429 0 L 272 0 L 272 87 C 308 94 333 108 349 130 C 365 152 373 179 373 212 C 373 254 360 288 336 312 C 312 336 276 348 228 348 C 178 348 141 336 117 312 C 92 288 80 254 80 212 C 80 179 88 152 104 130 C 120 108 146 94 182 87 L 182 0 L 25 0 L 25 47 L 142 47 L 142 61 C 106 69 78 86 58 114 C 38 142 28 177 28 220 C 28 246 32 269 40 291 C 48 313 60 331 77 347 C 93 363 114 375 139 384 C 164 393 194 398 228 398 Z" unicode="Ω" />
<glyph horiz-adv-x="337" d="M 168 -6 C 116 -6 79 7 57 33 C 35 59 24 95 24 141 C 24 185 33 221 53 247 C 72 273 106 287 154 287 C 180 287 200 284 215 279 C 229 274 241 267 250 257 C 239 303 208 349 158 397 L 205 416 C 220 403 234 389 248 373 C 261 357 272 338 282 317 C 292 296 299 272 305 245 C 310 218 313 188 313 154 C 313 97 301 56 278 31 C 254 6 218 -6 168 -6 Z M 168 40 C 202 40 226 48 240 66 C 254 83 261 108 261 142 C 261 175 254 200 240 217 C 226 234 202 243 168 243 C 134 243 110 234 96 217 C 82 200 75 175 75 142 C 75 108 82 83 96 66 C 110 48 134 40 168 40 Z" unicode="∂" />
<glyph horiz-adv-x="409" d="M 178 393 L 231 393 L 388 0 L 21 0 L 178 393 Z M 316 44 L 203 330 L 90 44 L 316 44 Z" unicode="∆" />
<glyph horiz-adv-x="384" d="M 44 390 L 340 390 L 340 -92 L 287 -92 L 287 343 L 97 343 L 97 -92 L 44 -92 L 44 390 Z" unicode="∏" />
<glyph horiz-adv-x="346" d="M 23 -47 L 161 154 L 28 346 L 28 390 L 313 390 L 313 341 L 93 341 L 221 154 L 89 -40 L 322 -40 L 322 -87 L 23 -87 L 23 -47 Z" unicode="∑" />
<glyph horiz-adv-x="391" d="M 65 210 L 326 210 L 326 162 L 65 162 L 65 210 Z" unicode="−" />
<glyph horiz-adv-x="286" d="M 228 390 L 276 390 L 56 0 L 10 0 L 228 390 Z" unicode="∕" />
<glyph horiz-adv-x="154" d="M 44 215 L 109 215 L 109 144 L 44 144 L 44 215 Z" unicode="∙" />
<glyph horiz-adv-x="373" d="M 40 221 L 92 221 L 155 62 L 283 390 L 333 390 L 180 -3 L 127 -3 L 40 221 Z" unicode="√" />
<glyph horiz-adv-x="477" d="M 140 95 C 108 95 84 102 68 118 C 52 133 44 154 44 181 C 44 209 52 230 68 246 C 84 261 108 269 140 269 C 162 269 182 262 200 248 C 214 236 227 224 239 211 C 247 219 255 227 263 234 C 273 244 285 252 298 259 C 310 265 324 269 339 269 C 365 269 388 262 406 249 C 424 235 434 213 434 181 C 434 149 424 127 406 114 C 387 101 365 95 339 95 C 323 95 309 98 297 105 C 284 111 272 119 261 129 C 253 136 245 143 238 151 C 230 143 223 136 215 129 C 204 119 192 111 180 105 C 168 98 154 95 140 95 Z M 201 193 C 191 203 182 211 172 218 C 162 224 152 228 141 228 C 123 228 110 224 100 216 C 90 208 85 196 85 181 C 85 151 103 136 141 136 C 152 136 163 139 173 146 C 183 152 192 160 202 170 L 213 181 C 209 185 205 189 201 193 Z M 291 157 C 305 143 321 136 338 136 C 353 136 366 139 376 145 C 386 151 392 163 392 181 C 392 198 386 210 376 217 C 366 224 353 228 338 228 C 326 228 316 224 306 218 C 296 211 286 203 276 193 C 272 189 269 186 266 182 C 274 173 283 165 291 157 Z" unicode="∞" />
<glyph horiz-adv-x="211" d="M -6 -45 L 23 -45 C 42 -45 55 -40 61 -30 C 67 -20 71 -8 71 7 L 71 319 C 71 348 77 371 90 388 C 102 405 127 414 164 414 L 198 414 L 198 371 L 170 371 C 150 371 137 366 131 356 C 125 346 122 334 122 320 L 122 7 C 122 -7 120 -20 117 -32 C 114 -44 109 -54 102 -62 C 95 -70 86 -77 74 -82 C 62 -86 47 -89 29 -89 C 23 -89 17 -89 10 -89 C 2 -89 -2 -88 -6 -88 L -6 -45 Z" unicode="∫" />
<glyph horiz-adv-x="391" d="M 67 231 C 78 245 90 257 104 267 C 118 277 132 282 147 282 C 157 282 167 280 176 277 C 184 273 192 270 200 266 C 207 262 214 259 222 256 C 229 252 237 251 245 251 C 253 251 261 254 269 261 C 277 268 286 276 294 286 L 324 260 C 312 246 299 234 286 224 C 273 214 259 209 245 209 C 235 209 226 210 218 213 C 210 216 202 220 195 224 C 187 228 180 231 172 234 C 164 237 156 239 148 239 C 130 239 113 228 95 206 L 67 231 Z M 67 109 C 78 123 90 135 104 145 C 118 155 132 160 147 160 C 157 160 167 158 176 155 C 184 151 192 148 200 144 C 207 140 214 137 222 134 C 229 130 237 129 245 129 C 253 129 261 132 269 138 C 277 144 286 153 294 164 L 324 138 C 312 124 299 111 286 101 C 273 90 259 85 245 85 C 235 85 226 86 218 90 C 210 93 202 97 195 101 C 187 105 180 108 172 112 C 164 115 156 117 148 117 C 139 117 130 114 121 108 C 112 102 103 94 95 84 L 67 109 Z" unicode="≈" />
<glyph horiz-adv-x="391" d="M 136 103 L 68 103 L 68 149 L 157 149 L 191 222 L 68 222 L 68 269 L 211 269 L 239 328 L 282 328 L 254 269 L 324 269 L 324 222 L 232 222 L 198 149 L 324 149 L 324 103 L 179 103 L 152 44 L 108 44 L 136 103 Z" unicode="≠" />
<glyph horiz-adv-x="391" d="M 66 169 L 66 206 L 304 320 L 304 272 L 118 186 L 304 101 L 304 54 L 66 169 Z M 66 54 L 304 54 L 304 7 L 66 7 L 66 54 Z" unicode="≤" />
<glyph horiz-adv-x="391" d="M 87 101 L 272 186 L 87 272 L 87 320 L 324 206 L 324 169 L 87 54 L 87 101 Z M 87 54 L 324 54 L 324 7 L 87 7 L 87 54 Z" unicode="≥" />
<glyph horiz-adv-x="353" d="M 31 196 L 150 390 L 201 390 L 321 196 L 201 0 L 150 0 L 31 196 Z M 269 194 L 175 349 L 82 196 L 176 41 L 269 194 Z" unicode="◊" />
<glyph horiz-adv-x="459" d="M 77 63 C 61 81 49 101 41 124 C 33 146 29 170 29 196 C 29 221 33 245 41 268 C 49 290 61 310 77 328 L 78 327 C 78 326 78 325 80 324 C 50 288 35 245 35 196 C 35 146 50 103 81 67 C 79 66 79 65 79 65 C 79 65 78 64 78 64 L 77 63 Z M 131 111 C 111 135 101 163 101 196 C 101 227 110 255 129 280 C 130 279 131 278 132 278 C 132 277 133 276 134 276 C 115 253 106 226 106 196 C 106 164 115 137 134 115 C 133 113 132 112 131 111 Z M 149 128 C 141 137 135 147 131 159 C 127 170 125 182 125 196 C 125 208 127 220 131 232 C 135 243 141 253 149 263 C 150 262 151 261 153 260 C 138 241 131 220 131 196 C 131 171 138 150 153 132 C 152 131 151 130 151 130 C 151 129 150 128 149 128 Z M 177 152 C 172 158 168 165 165 172 C 162 179 161 187 161 196 C 161 204 162 211 165 219 C 168 226 172 232 177 238 L 180 235 C 172 223 168 210 168 196 C 168 180 172 167 181 157 C 179 156 178 155 178 154 C 178 153 177 152 177 152 Z M 194 169 C 191 172 189 176 187 181 C 185 185 185 190 185 196 C 185 201 185 206 187 210 C 189 214 191 218 194 222 L 198 218 C 193 212 191 205 191 196 C 191 186 193 178 198 172 C 196 171 195 170 194 169 Z M 210 182 C 207 185 206 190 206 196 C 206 201 207 205 210 209 L 213 206 C 211 202 210 199 210 196 C 210 191 211 187 213 185 L 210 182 Z M 229 32 C 208 32 189 35 171 42 C 153 49 137 59 123 72 L 127 76 C 155 50 189 37 229 37 C 269 37 303 50 331 76 C 331 74 332 73 334 72 C 320 59 305 49 287 42 C 269 35 249 32 229 32 Z M 229 171 C 223 171 218 172 215 175 L 217 177 C 217 177 218 178 218 179 C 222 176 225 175 229 175 C 234 175 238 176 241 179 C 241 179 242 178 242 178 C 242 176 242 175 243 175 C 240 172 235 171 229 171 Z M 264 168 C 263 170 262 171 260 172 C 264 178 267 186 267 196 C 267 205 264 212 260 218 L 264 222 C 270 214 273 206 273 196 C 273 185 270 176 264 168 Z M 164 142 C 152 156 146 174 146 196 C 146 217 152 235 164 249 L 169 246 C 157 232 151 215 151 196 C 151 176 157 159 169 145 C 168 144 166 143 164 142 Z M 229 -9 C 203 -9 179 -4 157 4 C 134 13 114 26 97 42 L 101 46 C 118 30 137 18 159 9 C 181 0 204 -4 229 -4 C 254 -4 277 0 299 9 C 321 18 340 30 358 46 L 362 42 C 344 26 323 13 301 4 C 278 -4 254 -9 229 -9 Z M 229 64 C 212 64 197 66 183 72 C 169 78 156 86 145 96 L 148 100 C 170 79 197 69 229 69 C 261 69 288 79 310 100 C 310 99 311 98 312 98 C 312 98 313 97 314 96 C 302 86 289 78 275 72 C 261 66 245 64 229 64 Z M 229 90 C 216 90 204 92 192 97 C 180 101 170 107 161 115 L 166 119 C 183 103 204 95 229 95 C 254 95 275 103 293 119 C 293 117 294 116 295 116 C 295 116 296 115 297 115 C 278 98 255 90 229 90 Z M 229 110 C 219 110 209 111 200 115 C 190 119 182 124 175 130 L 179 135 C 185 129 193 124 202 120 C 210 116 219 115 229 115 C 238 115 247 116 256 120 C 264 124 272 129 280 135 C 280 134 281 132 283 130 C 275 124 267 119 258 115 C 249 111 239 110 229 110 Z M 229 140 C 215 140 204 144 194 152 L 198 157 C 206 149 217 145 229 145 C 240 145 250 149 260 157 C 260 156 261 154 263 152 C 253 144 242 140 229 140 Z M 198 235 C 196 235 195 236 195 237 C 195 237 194 238 194 239 C 204 247 215 251 229 251 C 243 251 254 247 264 239 L 260 235 C 250 242 240 246 229 246 C 217 246 207 242 198 235 Z M 311 291 C 288 311 261 322 229 322 C 198 322 171 311 149 291 L 145 296 C 156 305 169 313 183 319 C 197 325 213 328 229 328 C 245 328 261 325 275 319 C 289 313 302 305 314 296 C 313 294 312 293 312 293 C 312 293 311 292 311 291 Z M 246 185 C 248 187 249 191 249 196 C 249 199 248 202 246 206 L 249 209 C 251 203 253 199 253 196 C 253 192 251 187 249 182 L 246 185 Z M 253 179 C 256 184 258 190 258 196 C 258 201 256 206 253 212 L 257 215 C 261 209 263 203 263 196 C 263 188 261 181 257 175 L 253 179 Z M 273 162 C 271 162 270 163 269 165 C 275 173 279 184 279 196 C 279 205 275 215 269 227 L 272 230 C 280 220 284 208 284 196 C 284 182 280 171 273 162 Z M 294 142 C 292 143 291 144 290 145 C 295 152 299 160 303 169 C 306 177 308 186 308 196 C 308 214 302 230 290 246 L 294 249 C 300 241 305 233 308 224 C 311 215 313 206 313 196 C 313 174 306 156 294 142 Z M 306 132 C 320 150 328 171 328 196 C 328 220 320 241 306 260 L 310 263 C 317 253 323 243 327 232 C 331 220 333 208 333 196 C 333 182 331 170 327 159 C 323 147 317 137 310 128 L 306 132 Z M 324 115 C 343 137 353 164 353 196 C 353 226 343 253 324 276 L 328 280 C 348 256 358 228 358 196 C 358 180 355 164 350 150 C 345 135 338 122 328 111 L 324 115 Z M 349 94 C 373 123 385 157 385 196 C 385 235 372 269 348 298 L 352 301 C 364 287 373 271 380 253 C 386 235 390 216 390 196 C 390 176 386 156 380 138 C 373 120 364 104 352 91 L 349 94 Z M 381 64 L 378 67 C 408 103 424 146 424 196 C 424 245 408 288 378 324 L 382 328 C 397 310 409 290 417 268 C 425 245 430 221 430 196 C 430 170 425 146 417 124 C 409 101 397 81 382 63 L 381 64 Z M 107 90 C 95 104 85 120 79 138 C 72 156 69 176 69 196 C 69 216 72 235 79 253 C 85 271 94 287 106 301 C 106 300 107 299 108 299 C 108 299 109 298 110 298 C 86 268 74 234 74 196 C 74 156 86 122 110 94 L 107 90 Z M 186 162 C 178 171 175 182 175 196 C 175 208 178 219 186 230 C 187 229 188 228 190 227 C 183 215 180 205 180 196 C 180 184 183 174 190 166 L 186 162 Z M 202 175 C 197 180 195 187 195 196 C 195 204 197 210 202 215 C 202 214 203 213 204 213 C 204 213 205 212 206 212 C 202 206 201 201 201 196 C 201 190 202 184 206 179 L 202 175 Z M 216 215 C 219 218 223 220 229 220 C 235 220 239 218 243 215 C 242 214 242 213 242 213 C 242 212 241 212 241 212 C 237 214 233 216 229 216 C 224 216 220 214 218 212 L 216 215 Z M 209 224 C 215 228 222 231 229 231 C 236 231 243 228 249 224 C 248 222 247 221 247 221 C 247 221 246 220 246 219 C 242 223 236 226 229 226 C 222 226 217 223 213 219 L 209 224 Z M 202 231 C 210 237 219 241 229 241 C 239 241 248 237 257 231 L 253 227 C 247 233 239 236 229 236 C 219 236 212 233 206 227 L 202 231 Z M 161 276 C 180 293 203 302 229 302 C 255 302 278 293 297 276 L 293 272 C 285 279 275 285 264 290 C 253 294 241 297 229 297 C 217 297 205 294 194 290 C 183 285 174 279 166 272 L 161 276 Z M 229 127 C 213 127 198 132 185 142 L 189 146 C 195 142 201 138 208 136 C 214 133 221 132 229 132 C 237 132 244 133 251 136 C 257 138 263 142 269 146 L 273 143 C 260 132 245 127 229 127 Z M 229 150 C 219 150 210 153 202 161 L 205 165 C 208 162 212 160 216 158 C 220 156 224 156 229 156 C 237 156 245 159 253 165 L 257 161 C 248 153 239 150 229 150 Z M 229 161 C 222 161 215 163 209 168 L 212 172 C 216 168 222 166 229 166 C 236 166 242 168 246 172 L 250 168 C 242 163 235 161 229 161 Z M 186 248 C 197 259 211 265 229 265 C 245 265 260 259 273 249 L 269 245 C 263 249 257 252 251 255 C 244 258 237 260 229 260 C 215 260 202 255 190 245 L 186 248 Z M 175 261 C 190 274 208 281 229 281 C 239 281 249 279 258 275 C 267 271 275 267 283 261 L 280 256 C 265 269 248 276 229 276 C 219 276 210 274 202 271 C 193 267 185 262 179 256 L 175 261 Z M 331 315 C 303 341 269 354 229 354 C 189 354 155 341 127 315 L 123 319 C 137 331 154 341 172 348 C 190 355 209 359 229 359 C 249 359 269 355 287 348 C 305 341 321 331 335 319 L 331 315 Z M 97 349 C 115 365 135 377 157 387 C 179 396 203 401 229 401 C 254 401 278 396 301 387 C 324 377 344 365 362 349 L 358 345 C 340 360 321 372 299 381 C 277 389 254 394 229 394 C 204 394 181 389 159 381 C 137 372 118 360 101 345 L 97 349 Z M 279 157 C 287 168 291 181 291 196 C 291 211 286 224 278 235 L 282 239 C 292 225 297 211 297 196 C 297 187 295 179 293 172 C 290 165 286 158 282 152 L 279 157 Z" unicode="" />
<glyph horiz-adv-x="467" d="M 91 314 C 91 343 97 366 110 383 C 122 400 147 409 184 409 L 228 409 L 228 365 L 190 365 C 170 365 157 360 151 350 C 145 340 142 328 142 314 L 142 0 L 91 0 L 91 314 Z M 25 294 L 328 294 L 328 247 L 25 247 L 25 294 Z M 307 314 C 307 343 313 366 326 383 C 338 400 363 409 400 409 L 444 409 L 444 365 L 406 365 C 386 365 373 360 367 350 C 361 340 358 328 358 314 L 358 0 L 307 0 L 307 314 Z M 241 294 L 444 294 L 444 247 L 241 247 L 241 294 Z" unicode="ﬀ" />
<glyph horiz-adv-x="414" d="M 91 314 C 91 343 97 366 110 383 C 122 400 147 409 184 409 L 228 409 L 228 365 L 190 365 C 170 365 157 360 151 350 C 145 340 142 328 142 314 L 142 0 L 91 0 L 91 314 Z M 25 294 L 228 294 L 228 247 L 25 247 L 25 294 Z M 307 294 L 358 294 L 358 0 L 307 0 L 307 294 Z M 306 404 L 359 404 L 359 343 L 306 343 L 306 404 Z" unicode="ﬁ" />
<glyph horiz-adv-x="442" d="M 373 -1 C 348 -1 331 4 321 16 C 311 28 307 48 307 76 L 307 409 L 358 409 L 358 81 C 358 67 359 58 363 53 C 367 47 376 45 391 45 L 412 45 L 412 1 C 409 0 403 0 395 0 C 386 0 379 -1 373 -1 Z M 91 314 C 91 343 97 366 110 383 C 122 400 147 409 184 409 L 228 409 L 228 365 L 190 365 C 170 365 157 360 151 350 C 145 340 142 328 142 314 L 142 0 L 91 0 L 91 314 Z M 25 294 L 228 294 L 228 247 L 25 247 L 25 294 Z" unicode="ﬂ" />
<glyph horiz-adv-x="630" d="M 91 314 C 91 343 97 366 110 383 C 122 400 147 409 184 409 L 228 409 L 228 365 L 190 365 C 170 365 157 360 151 350 C 145 340 142 328 142 314 L 142 0 L 91 0 L 91 314 Z M 25 294 L 328 294 L 328 247 L 25 247 L 25 294 Z M 307 314 C 307 343 313 366 326 383 C 338 400 363 409 400 409 L 444 409 L 444 365 L 406 365 C 386 365 373 360 367 350 C 361 340 358 328 358 314 L 358 0 L 307 0 L 307 314 Z M 241 294 L 444 294 L 444 247 L 241 247 L 241 294 Z M 523 294 L 574 294 L 574 0 L 523 0 L 523 294 Z M 522 390 L 575 390 L 575 329 L 522 329 L 522 390 Z" unicode="ﬃ" />
<glyph horiz-adv-x="658" d="M 91 314 C 91 343 97 366 110 383 C 122 400 147 409 184 409 L 228 409 L 228 365 L 190 365 C 170 365 157 360 151 350 C 145 340 142 328 142 314 L 142 0 L 91 0 L 91 314 Z M 25 294 L 288 294 L 288 247 L 25 247 L 25 294 Z M 589 -1 C 564 -1 547 4 537 16 C 527 28 523 48 523 76 L 523 409 L 574 409 L 574 81 C 574 67 575 58 579 53 C 583 47 592 45 607 45 L 628 45 L 628 1 C 625 0 619 0 611 0 C 602 0 595 -1 589 -1 Z M 307 314 C 307 343 313 366 326 383 C 338 400 363 409 400 409 L 444 409 L 444 365 L 406 365 C 386 365 373 360 367 350 C 361 340 358 328 358 314 L 358 0 L 307 0 L 307 314 Z M 241 294 L 444 294 L 444 247 L 241 247 L 241 294 Z" unicode="ﬄ" />
</font>
</defs>
</svg>
