<?xml version="1.0" encoding="utf-8" ?><svg version="1.1" xmlns = 'http://www.w3.org/2000/svg'><defs><font id='web' horiz-adv-x="1000">
<font-face font-family="web" descent="-344" cap-height="1518" units-per-em="2048" bbox="-252,-588,2929,2130" x-height="1161" ascent="1612" />
<missing-glyph horiz-adv-x="1024" d="" /><glyph horiz-adv-x="348" d="" unicode=" " />
<glyph horiz-adv-x="707" d="M 106 360 L 459 360 L 395 0 L 43 0 L 106 360 Z M 322 1518 L 657 1518 L 444 473 L 162 473 L 322 1518 Z" unicode="!" />
<glyph horiz-adv-x="1044" d="M 276 1518 L 596 1518 L 453 803 L 164 803 L 276 1518 Z M 719 1518 L 1038 1518 L 895 803 L 606 803 L 719 1518 Z" unicode="&#x22;" />
<glyph horiz-adv-x="1325" d="M 223 371 L 49 371 L 98 653 L 272 653 L 299 809 L 125 809 L 174 1090 L 348 1090 L 426 1518 L 719 1518 L 643 1090 L 797 1090 L 872 1518 L 1167 1518 L 1090 1090 L 1278 1090 L 1229 809 L 1040 809 L 1014 653 L 1202 653 L 1153 371 L 965 371 L 899 0 L 604 0 L 670 371 L 516 371 L 451 0 L 158 0 L 223 371 Z M 745 627 L 782 838 L 567 838 L 530 627 L 745 627 Z" unicode="#" />
<glyph horiz-adv-x="1128" d="M 578 1677 L 891 1677 L 860 1504 C 951 1488 1034 1459 1108 1417 L 944 1167 C 856 1215 752 1239 633 1239 C 575 1239 531 1224 502 1196 C 473 1168 459 1123 459 1063 C 459 1029 471 1001 495 979 C 519 956 570 928 649 895 C 753 851 827 811 873 775 C 919 739 954 696 979 648 C 1003 600 1016 542 1016 475 C 1016 335 981 225 913 146 C 844 67 738 19 595 2 L 561 -190 L 248 -190 L 283 8 C 136 27 18 73 -70 145 L 117 375 C 163 335 220 305 286 285 C 352 264 421 254 494 254 C 632 254 702 317 702 444 C 702 486 689 521 664 548 C 639 574 591 603 520 635 C 409 681 331 721 285 755 C 239 789 205 830 182 876 C 158 922 147 976 147 1040 C 147 1175 180 1283 247 1365 C 313 1446 414 1496 549 1515 L 578 1677 Z" unicode="$" />
<glyph horiz-adv-x="2136" d="M 455 528 C 329 528 236 556 175 612 C 114 668 84 757 84 877 C 84 993 101 1105 137 1214 C 172 1323 222 1403 288 1455 C 354 1506 441 1532 551 1532 C 675 1532 769 1503 831 1445 C 893 1387 924 1298 924 1176 C 924 1133 917 1071 905 991 C 877 833 829 716 759 641 C 689 565 587 528 455 528 Z M 455 758 C 503 758 538 772 562 802 C 585 832 605 886 621 966 C 637 1045 645 1109 645 1159 C 645 1204 636 1236 620 1256 C 603 1276 575 1286 537 1286 C 493 1286 460 1270 438 1238 C 416 1206 396 1147 380 1061 C 364 974 356 913 356 877 C 356 833 364 803 380 785 C 396 767 421 758 455 758 Z M 1587 -16 C 1461 -16 1368 12 1308 68 C 1247 124 1217 212 1217 334 C 1217 408 1227 491 1248 584 C 1268 677 1297 753 1335 813 C 1373 873 1420 917 1476 946 C 1532 974 1602 989 1686 989 C 1809 989 1901 959 1963 901 C 2025 843 2056 753 2056 631 C 2056 556 2045 473 2024 382 C 2003 290 1973 215 1935 156 C 1897 96 1850 53 1794 25 C 1738 -2 1669 -16 1587 -16 Z M 1589 213 C 1639 213 1676 229 1700 262 C 1724 295 1745 363 1763 465 C 1774 517 1780 567 1780 616 C 1780 662 1771 694 1754 713 C 1736 731 1709 741 1671 741 C 1627 741 1594 725 1572 694 C 1550 663 1531 605 1515 521 C 1499 437 1491 374 1491 334 C 1491 290 1498 259 1514 241 C 1530 222 1555 213 1589 213 Z M 1411 1518 L 1696 1518 L 729 0 L 442 0 L 1411 1518 Z" unicode="%" />
<glyph horiz-adv-x="1485" d="M 543 -16 C 355 -16 215 14 123 76 C 31 138 -14 231 -14 356 C -14 468 8 563 53 641 C 98 719 167 782 259 830 L 350 875 C 320 955 305 1031 305 1104 C 305 1192 321 1269 354 1336 C 386 1402 435 1454 500 1492 C 565 1529 640 1548 725 1548 C 853 1548 950 1521 1014 1468 C 1078 1414 1110 1337 1110 1235 C 1110 1131 1085 1042 1036 967 C 987 892 914 830 818 781 L 768 756 L 953 502 C 1007 602 1059 752 1110 952 L 1382 918 C 1316 635 1228 420 1120 272 L 1319 0 L 936 0 L 888 66 C 848 41 798 21 738 6 C 677 -8 612 -16 543 -16 Z M 470 651 C 422 623 387 598 365 575 C 343 552 326 526 315 498 C 304 470 299 436 299 397 C 299 291 381 238 547 238 C 619 238 682 250 736 276 C 588 482 499 607 470 651 Z M 821 1194 C 821 1252 789 1282 725 1282 C 647 1282 608 1226 608 1114 C 608 1064 619 1013 643 961 L 671 976 C 721 1004 759 1036 784 1071 C 808 1106 821 1147 821 1194 Z" unicode="&#x26;" />
<glyph horiz-adv-x="602" d="M 276 1518 L 598 1518 L 455 803 L 164 803 L 276 1518 Z" unicode="'" />
<glyph horiz-adv-x="913" d="M 319 -365 C 252 -268 201 -158 167 -35 C 132 88 115 216 115 350 C 115 502 138 659 185 821 C 232 983 298 1133 383 1272 C 468 1411 563 1524 668 1612 L 872 1470 C 788 1390 713 1288 646 1164 C 578 1040 526 905 488 760 C 450 614 432 472 432 334 C 432 114 479 -72 573 -225 L 319 -365 Z" unicode="(" />
<glyph horiz-adv-x="913" d="M -6 -223 C 80 -140 157 -35 225 90 C 293 216 345 351 381 494 C 417 637 436 777 436 913 C 436 1133 389 1320 295 1473 L 549 1612 C 616 1512 667 1402 702 1281 C 736 1160 754 1032 754 897 C 754 663 701 427 596 191 C 491 -44 359 -230 199 -365 L -6 -223 Z" unicode=")" />
<glyph horiz-adv-x="1087" d="M 365 541 L 446 848 L 188 709 L 96 952 L 391 1047 L 145 1241 L 315 1436 L 512 1217 L 539 1532 L 780 1491 L 700 1180 L 961 1323 L 1055 1083 L 754 983 L 1001 791 L 834 598 L 635 817 L 606 500 L 365 541 Z" unicode="*" />
<glyph horiz-adv-x="1247" d="M 446 588 L 131 588 L 178 856 L 494 856 L 559 1225 L 852 1225 L 786 856 L 1102 856 L 1055 588 L 739 588 L 674 215 L 381 215 L 446 588 Z" unicode="+" />
<glyph horiz-adv-x="532" d="M -63 -158 C 10 -122 56 -95 74 -79 C 92 -62 105 -36 113 0 L -43 0 L 20 367 L 373 367 L 315 31 C 301 -43 283 -98 261 -134 C 239 -170 207 -202 165 -230 C 123 -258 65 -285 -8 -313 L -63 -158 Z" unicode="," />
<glyph horiz-adv-x="711" d="M 72 823 L 657 823 L 608 541 L 20 541 L 72 823 Z" unicode="-" />
<glyph horiz-adv-x="532" d="M 20 367 L 373 367 L 309 0 L -43 0 L 20 367 Z" unicode="." />
<glyph horiz-adv-x="1014" d="M 827 1518 L 1155 1518 L 186 0 L -141 0 L 827 1518 Z" unicode="/" />
<glyph horiz-adv-x="1288" d="M 555 -18 C 384 -18 259 18 179 92 C 99 166 59 284 59 446 C 59 507 68 602 87 731 C 105 860 130 978 161 1084 C 192 1190 231 1276 279 1341 C 327 1405 387 1454 460 1487 C 533 1519 624 1536 733 1536 C 901 1536 1026 1499 1106 1425 C 1186 1351 1227 1232 1227 1067 C 1227 958 1209 813 1174 632 C 1138 450 1096 317 1048 231 C 1000 145 936 82 858 42 C 780 2 679 -18 555 -18 Z M 578 268 C 625 268 664 277 695 296 C 726 315 753 346 775 389 C 797 431 817 494 836 577 C 854 660 871 746 885 836 C 899 926 905 990 903 1028 C 903 1100 888 1153 860 1187 C 831 1220 783 1237 717 1237 C 659 1237 613 1224 579 1200 C 545 1175 516 1134 493 1078 C 470 1022 446 925 422 787 C 397 649 385 549 385 485 C 385 407 400 352 430 318 C 460 284 509 268 578 268 Z" unicode="0" />
<glyph horiz-adv-x="731" d="M 340 1235 L 131 1235 L 180 1518 L 698 1518 L 430 0 L 123 0 L 340 1235 Z" unicode="1" />
<glyph horiz-adv-x="1081" d="M 715 1104 C 715 1154 699 1189 668 1210 C 636 1230 588 1241 522 1241 C 486 1241 445 1236 400 1227 C 354 1218 311 1204 270 1186 L 150 1450 C 276 1507 424 1536 594 1536 C 740 1536 851 1507 925 1450 C 999 1392 1036 1304 1036 1184 C 1036 1090 1024 1010 1000 945 C 976 880 938 816 887 754 C 836 691 745 601 614 483 L 377 270 L 899 270 L 852 0 L -84 0 L -41 246 L 412 655 C 492 727 555 787 599 836 C 643 885 674 928 690 966 C 706 1004 715 1050 715 1104 Z" unicode="2" />
<glyph horiz-adv-x="1083" d="M 428 -18 C 330 -18 242 -6 162 15 C 82 37 6 73 -66 121 L 100 371 C 164 331 222 304 276 288 C 329 272 383 264 438 264 C 486 264 523 269 549 279 C 575 289 595 307 610 331 C 625 355 637 388 645 431 C 653 474 657 510 657 539 C 657 587 639 620 605 640 C 570 660 509 670 422 670 L 252 670 L 299 926 L 539 926 C 591 926 629 932 653 946 C 677 959 694 983 706 1019 C 717 1054 723 1090 723 1128 C 723 1170 709 1199 681 1216 C 653 1232 605 1241 539 1241 C 447 1241 361 1222 279 1184 L 158 1434 C 211 1464 278 1488 358 1507 C 438 1526 525 1536 621 1536 C 763 1536 870 1512 942 1465 C 1013 1417 1049 1340 1049 1233 C 1049 1181 1040 1118 1023 1044 C 1005 969 983 913 955 877 C 927 840 890 813 842 797 C 887 779 919 753 938 719 C 957 685 967 629 967 551 C 967 483 956 409 934 328 C 912 246 880 180 839 129 C 797 78 744 41 679 17 C 614 -6 530 -18 428 -18 Z" unicode="3" />
<glyph horiz-adv-x="1186" d="M 721 1518 L 1044 1518 L 350 555 L 637 555 L 774 979 L 997 979 L 921 555 L 1108 555 L 1061 299 L 876 299 L 823 0 L 537 0 L 589 299 L -27 299 L 16 539 L 721 1518 Z" unicode="4" />
<glyph horiz-adv-x="1135" d="M 483 -18 C 366 -18 263 -6 175 15 C 87 37 7 73 -63 121 L 102 371 C 166 329 228 301 286 286 C 344 271 407 264 475 264 C 543 264 593 276 625 302 C 656 327 679 368 695 426 C 711 483 719 537 719 588 C 719 642 704 682 674 706 C 644 730 592 743 518 743 C 458 743 397 727 336 696 L 109 768 L 283 1518 L 1126 1518 L 1075 1235 L 502 1235 L 446 987 C 477 999 510 1007 544 1011 C 578 1015 618 1018 666 1018 C 792 1018 886 987 947 926 C 1007 865 1038 769 1038 639 C 1038 573 1029 501 1013 422 C 996 343 974 275 947 219 C 920 163 888 118 851 84 C 813 50 767 24 713 7 C 659 -9 582 -18 483 -18 Z" unicode="5" />
<glyph horiz-adv-x="1229" d="M 578 -18 C 395 -18 260 16 174 85 C 88 153 45 264 45 418 C 45 506 60 631 91 791 C 121 951 155 1074 192 1162 C 228 1250 274 1319 330 1370 C 386 1420 456 1458 540 1482 C 624 1506 730 1518 858 1518 L 1094 1518 L 1042 1235 L 846 1235 C 759 1235 690 1226 639 1210 C 588 1194 547 1167 517 1131 C 487 1094 461 1035 440 954 C 500 1011 602 1040 748 1040 C 878 1040 975 1012 1039 957 C 1103 902 1135 811 1135 684 C 1135 635 1128 569 1114 487 C 1082 307 1026 177 944 99 C 862 21 740 -18 578 -18 Z M 563 254 C 627 254 677 268 711 296 C 745 324 771 372 789 442 C 807 511 817 573 817 627 C 817 680 803 719 777 745 C 750 771 707 784 649 784 C 575 784 518 770 478 744 C 438 717 410 676 392 620 C 374 564 365 501 365 430 C 365 366 381 321 413 294 C 445 267 495 254 563 254 Z" unicode="6" />
<glyph horiz-adv-x="1001" d="M 705 1235 L 121 1235 L 172 1518 L 1096 1518 L 1053 1274 L 403 0 L 72 0 L 705 1235 Z" unicode="7" />
<glyph horiz-adv-x="1227" d="M 537 -18 C 363 -18 232 10 145 66 C 57 122 14 211 14 334 C 14 476 38 588 86 671 C 134 753 206 812 303 846 C 226 888 188 970 188 1092 C 188 1242 230 1354 314 1427 C 398 1499 524 1536 690 1536 C 1015 1536 1178 1428 1178 1214 C 1178 1108 1160 1023 1125 961 C 1090 898 1037 852 965 823 C 999 809 1025 790 1045 767 C 1065 743 1079 716 1088 684 C 1097 652 1102 604 1102 539 C 1102 346 1055 205 963 116 C 870 26 728 -18 537 -18 Z M 541 248 C 623 248 685 272 726 320 C 767 368 788 445 788 549 C 788 605 771 645 738 669 C 704 693 654 705 586 705 C 502 705 440 681 400 634 C 360 587 340 513 340 412 C 340 353 356 311 389 286 C 421 260 472 248 541 248 Z M 662 928 C 728 928 778 945 811 980 C 843 1014 860 1069 860 1145 C 860 1187 846 1218 819 1238 C 791 1258 747 1268 686 1268 C 619 1268 569 1250 536 1215 C 503 1180 487 1125 487 1051 C 487 1007 501 976 529 957 C 557 937 602 928 662 928 Z" unicode="8" />
<glyph horiz-adv-x="1229" d="M 182 270 L 379 270 C 463 270 530 278 581 294 C 632 310 673 336 703 372 C 733 408 761 469 786 557 C 751 524 707 502 654 490 C 600 478 541 473 477 473 C 347 473 251 501 188 558 C 125 615 94 707 94 834 C 94 908 105 999 129 1105 C 153 1211 186 1295 230 1357 C 274 1419 329 1464 397 1493 C 465 1521 549 1536 649 1536 C 831 1536 966 1501 1053 1433 C 1140 1364 1184 1253 1184 1100 C 1184 1006 1167 877 1134 712 C 1101 546 1066 422 1030 339 C 993 255 946 189 890 141 C 834 92 764 56 680 34 C 596 11 493 0 371 0 L 135 0 L 182 270 Z M 578 723 C 636 723 683 730 718 746 C 752 761 780 785 802 818 C 824 851 839 894 849 948 C 859 1002 864 1045 864 1079 C 864 1140 848 1184 816 1212 C 784 1239 733 1253 664 1253 C 599 1253 550 1238 516 1210 C 482 1182 457 1133 439 1065 C 421 996 412 935 412 881 C 412 827 425 787 451 761 C 477 735 520 723 578 723 Z" unicode="9" />
<glyph horiz-adv-x="565" d="M 37 358 L 387 358 L 324 0 L -27 0 L 37 358 Z M 178 1161 L 528 1161 L 465 803 L 115 803 L 178 1161 Z" unicode=":" />
<glyph horiz-adv-x="565" d="M 178 1161 L 528 1161 L 465 803 L 115 803 L 178 1161 Z M -47 -158 C 27 -121 74 -94 92 -77 C 110 -60 123 -34 129 0 L -27 0 L 37 358 L 387 358 L 330 31 C 316 -45 298 -100 276 -135 C 254 -170 223 -201 182 -229 C 140 -256 82 -284 8 -313 L -47 -158 Z" unicode=";" />
<glyph horiz-adv-x="1245" d="M 160 602 L 195 815 L 1077 1260 L 1026 963 L 502 711 L 934 457 L 883 158 L 160 602 Z" unicode="&#x3C;" />
<glyph horiz-adv-x="1247" d="M 141 625 L 1061 625 L 1010 340 L 90 340 L 141 625 Z M 221 1092 L 1143 1092 L 1094 809 L 172 809 L 221 1092 Z" unicode="=" />
<glyph horiz-adv-x="1247" d="M 725 707 L 291 961 L 344 1260 L 1067 815 L 1030 602 L 150 158 L 201 457 L 725 707 Z" unicode="&#x3E;" />
<glyph horiz-adv-x="1171" d="M 342 444 C 353 544 368 617 387 661 C 406 705 434 745 471 781 C 507 817 559 854 627 893 C 705 936 756 974 781 1007 C 806 1040 819 1083 819 1135 C 819 1173 803 1202 772 1221 C 741 1239 693 1249 627 1249 C 535 1249 444 1228 352 1186 L 223 1440 C 279 1469 349 1492 435 1510 C 520 1527 606 1536 692 1536 C 996 1536 1149 1431 1149 1221 C 1149 1149 1138 1086 1118 1030 C 1097 974 1067 926 1029 884 C 990 842 936 800 866 760 C 802 720 758 689 734 668 C 709 646 691 623 679 598 C 667 573 655 522 643 444 L 342 444 Z M 295 322 L 647 322 L 590 0 L 238 0 L 295 322 Z" unicode="?" />
<glyph horiz-adv-x="1763" d="M 801 -338 C 533 -338 335 -284 207 -176 C 79 -68 16 101 16 334 C 16 448 30 579 60 727 C 89 875 128 1001 176 1103 C 224 1205 282 1288 352 1352 C 421 1415 502 1461 594 1489 C 686 1517 791 1532 909 1532 C 1177 1532 1375 1478 1503 1372 C 1630 1265 1694 1096 1694 866 C 1694 764 1682 650 1660 525 C 1637 400 1612 306 1584 242 C 1556 178 1521 133 1479 106 C 1437 79 1377 66 1300 66 C 1227 66 1171 75 1131 95 C 1091 114 1066 146 1055 190 C 1011 146 960 114 903 95 C 845 75 778 66 700 66 C 586 66 502 91 448 143 C 394 194 367 277 367 393 C 367 479 378 578 402 688 C 425 798 453 883 486 943 C 519 1003 560 1048 610 1079 C 660 1110 721 1126 793 1126 C 875 1126 937 1119 981 1105 C 1025 1091 1061 1068 1090 1036 L 1149 1114 L 1343 1096 L 1223 414 C 1218 387 1216 364 1216 344 C 1216 316 1222 293 1234 273 C 1246 253 1271 244 1309 244 C 1345 244 1371 251 1387 265 C 1403 279 1417 303 1429 338 C 1441 373 1454 432 1470 515 C 1486 598 1496 666 1501 719 C 1506 772 1509 820 1509 862 C 1509 1040 1462 1168 1368 1246 C 1274 1324 1121 1364 909 1364 C 779 1364 673 1343 590 1302 C 507 1261 438 1195 383 1104 C 328 1013 284 892 252 742 C 219 592 203 460 203 348 C 203 168 248 36 339 -46 C 429 -128 571 -170 764 -170 C 912 -170 1060 -147 1210 -102 L 1260 -264 C 1117 -313 964 -338 801 -338 Z M 782 303 C 831 303 869 314 897 338 C 924 362 945 401 959 455 C 973 509 983 560 989 609 C 995 658 999 695 999 719 C 999 776 987 816 964 838 C 941 860 902 872 848 872 C 814 872 786 865 765 851 C 744 837 727 814 713 783 C 699 751 686 699 673 626 C 660 552 653 507 651 489 C 649 471 649 456 649 444 C 649 394 659 358 681 336 C 702 314 736 303 782 303 Z" unicode="@" />
<glyph horiz-adv-x="1319" d="M 639 1528 L 952 1528 L 1159 0 L 825 0 L 799 236 L 334 236 L 221 0 L -109 0 L 639 1528 Z M 770 518 L 709 1042 L 461 518 L 770 518 Z" unicode="A" />
<glyph horiz-adv-x="1237" d="M 254 1518 L 717 1518 C 885 1518 1010 1492 1091 1442 C 1171 1392 1212 1313 1212 1206 C 1212 1153 1203 1094 1186 1030 C 1168 965 1144 914 1112 876 C 1080 838 1036 806 979 780 C 1030 756 1066 726 1088 689 C 1109 651 1120 597 1120 526 C 1120 450 1108 376 1085 306 C 1062 236 1028 178 982 132 C 936 86 877 53 805 32 C 733 10 645 0 541 0 L -14 0 L 254 1518 Z M 588 268 C 642 268 683 277 711 295 C 739 313 760 343 774 383 C 788 423 795 464 795 504 C 795 550 781 582 753 599 C 725 616 673 625 598 625 L 412 625 L 348 268 L 588 268 Z M 698 905 C 745 905 781 914 805 932 C 829 950 847 978 859 1017 C 871 1056 877 1092 877 1126 C 877 1168 862 1197 832 1215 C 802 1232 752 1241 682 1241 L 518 1241 L 459 905 L 698 905 Z" unicode="B" />
<glyph horiz-adv-x="1130" d="M 557 -18 C 381 -18 248 25 159 112 C 69 199 25 333 25 514 C 25 634 43 770 79 922 C 115 1074 162 1192 220 1278 C 278 1364 351 1428 440 1471 C 529 1514 638 1536 768 1536 C 842 1536 915 1526 987 1507 C 1059 1488 1120 1461 1171 1427 L 989 1149 C 935 1178 887 1198 846 1208 C 804 1218 761 1223 717 1223 C 649 1223 595 1209 555 1181 C 515 1153 482 1107 454 1044 C 426 980 402 896 383 790 C 363 684 354 598 354 530 C 354 439 373 373 411 332 C 449 290 513 270 602 270 C 692 270 772 290 842 332 L 981 90 C 862 18 721 -18 557 -18 Z" unicode="C" />
<glyph horiz-adv-x="1290" d="M 254 1518 L 668 1518 C 880 1518 1033 1478 1127 1398 C 1221 1318 1268 1190 1268 1014 C 1268 904 1250 770 1216 612 C 1182 454 1137 331 1081 243 C 1025 155 954 93 867 56 C 779 18 661 0 512 0 L -14 0 L 254 1518 Z M 559 279 C 634 279 692 292 732 320 C 772 347 805 392 833 454 C 861 516 885 601 905 711 C 925 821 936 907 936 971 C 936 1063 915 1129 873 1167 C 831 1205 756 1225 649 1225 L 522 1225 L 354 279 L 559 279 Z" unicode="D" />
<glyph horiz-adv-x="1116" d="M 254 1518 L 1165 1518 L 1114 1225 L 516 1225 L 463 922 L 1032 922 L 981 631 L 412 631 L 350 287 L 948 287 L 899 0 L -14 0 L 254 1518 Z" unicode="E" />
<glyph horiz-adv-x="1087" d="M 254 1518 L 1167 1518 L 1114 1225 L 522 1225 L 463 897 L 1026 897 L 977 606 L 414 606 L 305 0 L -14 0 L 254 1518 Z" unicode="F" />
<glyph horiz-adv-x="1237" d="M 545 -18 C 370 -18 240 24 155 109 C 69 193 27 326 27 506 C 27 636 44 775 78 923 C 112 1071 159 1189 217 1279 C 275 1368 349 1433 437 1474 C 525 1515 634 1536 766 1536 C 858 1536 942 1526 1019 1506 C 1095 1486 1165 1454 1229 1409 L 1016 1151 C 939 1201 841 1227 723 1227 C 653 1227 597 1212 557 1182 C 517 1152 482 1105 453 1039 C 423 973 398 884 378 774 C 358 663 348 574 348 506 C 348 414 366 348 402 309 C 438 269 500 250 588 250 C 642 250 685 260 719 281 C 752 302 779 335 799 381 C 819 427 838 508 856 625 L 573 625 L 625 901 L 1212 901 L 1163 627 C 1130 447 1091 312 1046 224 C 1001 136 940 73 864 37 C 787 0 681 -18 545 -18 Z" unicode="G" />
<glyph horiz-adv-x="1362" d="M 254 1518 L 573 1518 L 471 942 L 950 942 L 1055 1518 L 1378 1518 L 1110 0 L 786 0 L 895 625 L 416 625 L 305 0 L -14 0 L 254 1518 Z" unicode="H" />
<glyph horiz-adv-x="594" d="M 270 1518 L 592 1518 L 324 0 L 2 0 L 270 1518 Z" unicode="I" />
<glyph horiz-adv-x="801" d="M -31 287 L 115 287 C 178 287 224 298 254 320 C 283 342 302 380 311 436 L 504 1518 L 825 1518 L 625 381 C 607 289 580 215 542 160 C 504 104 456 64 398 38 C 340 12 258 0 152 0 L -82 0 L -31 287 Z" unicode="J" />
<glyph horiz-adv-x="1284" d="M 254 1518 L 571 1518 L 468 938 L 991 1518 L 1364 1518 L 818 936 L 1118 0 L 782 0 L 571 667 L 380 439 L 303 0 L -14 0 L 254 1518 Z" unicode="K" />
<glyph horiz-adv-x="1026" d="M 254 1518 L 573 1518 L 356 287 L 922 287 L 870 0 L -14 0 L 254 1518 Z" unicode="L" />
<glyph horiz-adv-x="1624" d="M 254 1518 L 664 1518 L 776 555 L 1231 1518 L 1640 1518 L 1372 0 L 1061 0 L 1219 907 L 786 0 L 555 0 L 436 913 L 279 0 L -14 0 L 254 1518 Z" unicode="M" />
<glyph horiz-adv-x="1354" d="M 254 1518 L 592 1518 L 907 641 L 1065 1518 L 1372 1518 L 1104 0 L 807 0 L 457 946 L 289 0 L -14 0 L 254 1518 Z" unicode="N" />
<glyph horiz-adv-x="1343" d="M 588 -18 C 401 -18 260 26 166 114 C 72 202 25 338 25 520 C 25 630 41 759 74 909 C 107 1058 153 1178 212 1269 C 271 1360 344 1427 432 1471 C 519 1514 623 1536 743 1536 C 933 1536 1077 1491 1173 1403 C 1269 1315 1317 1178 1317 993 C 1317 871 1300 737 1266 591 C 1232 445 1185 328 1126 240 C 1066 152 992 87 902 45 C 812 3 708 -18 588 -18 Z M 602 266 C 668 266 723 278 767 303 C 810 328 846 367 874 419 C 902 471 927 555 951 671 C 975 787 987 885 987 963 C 987 1055 966 1122 926 1164 C 886 1206 824 1227 741 1227 C 670 1227 612 1212 566 1183 C 520 1154 483 1110 455 1050 C 426 990 401 900 381 779 C 360 658 350 574 350 528 C 350 436 370 370 412 328 C 454 286 517 266 602 266 Z" unicode="O" />
<glyph horiz-adv-x="1231" d="M 254 1518 L 719 1518 C 895 1518 1026 1487 1112 1426 C 1198 1365 1241 1269 1241 1137 C 1241 1057 1228 973 1203 883 C 1178 793 1144 721 1100 666 C 1056 611 1000 569 933 541 C 866 512 786 498 692 498 L 387 498 L 301 0 L -14 0 L 254 1518 Z M 694 780 C 736 780 770 786 798 800 C 826 813 848 834 865 862 C 881 890 894 928 904 976 C 913 1024 918 1057 918 1077 C 918 1132 901 1172 868 1197 C 835 1222 781 1235 707 1235 L 518 1235 L 438 780 L 694 780 Z" unicode="P" />
<glyph horiz-adv-x="1343" d="M 752 -375 C 612 -375 506 -353 434 -310 C 362 -266 325 -199 325 -107 C 325 -71 330 -27 342 25 C 239 54 160 109 106 189 C 52 269 25 380 25 520 C 25 630 41 759 74 909 C 107 1058 153 1178 212 1269 C 271 1360 344 1427 432 1471 C 519 1514 623 1536 743 1536 C 933 1536 1077 1491 1173 1403 C 1269 1315 1317 1178 1317 993 C 1317 876 1301 747 1269 606 C 1237 465 1194 352 1140 266 C 1086 180 1018 116 937 72 C 855 28 757 2 643 -5 L 643 -12 L 642 -26 C 642 -55 652 -76 672 -88 C 692 -100 724 -106 768 -106 L 907 -106 L 858 -375 L 752 -375 Z M 602 266 C 668 266 723 278 767 303 C 810 328 846 367 874 419 C 902 471 927 555 951 671 C 975 787 987 885 987 963 C 987 1055 966 1122 926 1164 C 886 1206 824 1227 741 1227 C 670 1227 612 1212 566 1183 C 520 1154 483 1110 455 1050 C 426 990 401 900 381 779 C 360 658 350 574 350 528 C 350 436 370 370 412 328 C 454 286 517 266 602 266 Z" unicode="Q" />
<glyph horiz-adv-x="1253" d="M 254 1518 L 713 1518 C 889 1518 1020 1487 1107 1425 C 1193 1363 1237 1265 1237 1133 C 1237 1047 1223 958 1195 867 C 1167 776 1128 704 1079 651 C 1029 597 966 558 890 533 L 1030 0 L 713 0 L 584 508 L 391 508 L 301 0 L -14 0 L 254 1518 Z M 705 788 C 753 788 792 798 822 818 C 851 838 873 872 889 919 C 905 965 913 1017 913 1073 C 913 1131 895 1172 861 1197 C 827 1222 772 1235 698 1235 L 518 1235 L 440 788 L 705 788 Z" unicode="R" />
<glyph horiz-adv-x="1169" d="M 516 -18 C 382 -18 265 -3 165 25 C 65 53 -15 91 -78 137 L 98 381 C 153 339 217 307 291 284 C 365 261 440 250 518 250 C 665 250 739 313 739 440 C 739 470 733 495 721 515 C 709 535 689 554 662 572 C 635 589 571 618 469 659 C 357 704 274 757 221 819 C 167 880 141 955 141 1044 C 141 1203 188 1325 282 1409 C 376 1493 513 1536 694 1536 C 802 1536 896 1525 974 1504 C 1052 1483 1115 1458 1163 1430 L 1008 1159 C 964 1185 912 1205 853 1220 C 793 1235 736 1243 680 1243 C 534 1243 461 1187 461 1077 C 461 1037 474 1005 500 981 C 526 957 579 930 659 899 C 772 853 855 811 908 774 C 960 736 999 694 1024 648 C 1048 602 1061 547 1061 485 C 1061 321 1014 197 921 111 C 828 25 693 -18 516 -18 Z" unicode="S" />
<glyph horiz-adv-x="1161" d="M 502 1225 L 104 1225 L 156 1518 L 1274 1518 L 1221 1225 L 825 1225 L 608 0 L 285 0 L 502 1225 Z" unicode="T" />
<glyph horiz-adv-x="1343" d="M 602 -23 C 418 -23 282 10 192 76 C 102 142 57 246 57 389 C 57 441 62 498 74 559 L 244 1518 L 565 1518 L 397 567 C 389 521 385 480 385 444 C 385 380 402 334 437 307 C 472 279 532 266 616 266 C 698 266 760 286 800 328 C 840 370 869 447 889 559 L 1059 1518 L 1370 1518 L 1194 508 C 1161 318 1098 182 1004 100 C 910 18 776 -23 602 -23 Z" unicode="U" />
<glyph horiz-adv-x="1303" d="M 162 1518 L 492 1518 L 608 506 L 1071 1518 L 1411 1518 L 672 -10 L 360 -10 L 162 1518 Z" unicode="V" />
<glyph horiz-adv-x="1817" d="M 178 1518 L 514 1518 L 537 643 L 899 1518 L 1204 1518 L 1257 643 L 1589 1518 L 1907 1518 L 1294 -10 L 991 -10 L 932 893 L 557 -10 L 250 -10 L 178 1518 Z" unicode="W" />
<glyph horiz-adv-x="1303" d="M 217 1518 L 553 1518 L 717 1089 L 1006 1518 L 1354 1518 L 834 782 L 1133 0 L 795 0 L 599 515 L 248 0 L -98 0 L 484 816 L 217 1518 Z" unicode="X" />
<glyph horiz-adv-x="1257" d="M 135 1518 L 473 1518 L 647 872 L 1053 1518 L 1391 1518 L 744 520 L 653 0 L 334 0 L 426 522 L 135 1518 Z" unicode="Y" />
<glyph horiz-adv-x="1130" d="M 750 1225 L 158 1225 L 209 1518 L 1196 1518 L 1149 1253 L 365 287 L 997 287 L 946 0 L -88 0 L -45 242 L 750 1225 Z" unicode="Z" />
<glyph horiz-adv-x="909" d="M 326 1575 L 911 1575 L 864 1309 L 592 1309 L 348 -70 L 627 -70 L 582 -324 L -10 -324 L 326 1575 Z" unicode="[" />
<glyph horiz-adv-x="1014" d="M 141 1518 L 440 1518 L 872 0 L 573 0 L 141 1518 Z" unicode="\" />
<glyph horiz-adv-x="909" d="M -6 -70 L 270 -70 L 514 1309 L 242 1309 L 289 1575 L 877 1575 L 541 -324 L -53 -324 L -6 -70 Z" unicode="]" />
<glyph horiz-adv-x="997" d="M 512 1544 L 797 1544 L 954 1169 L 715 1169 L 618 1331 L 467 1169 L 221 1169 L 512 1544 Z" unicode="^" />
<glyph horiz-adv-x="766" d="M -211 -78 L 682 -78 L 641 -307 L -252 -307 L -211 -78 Z" unicode="_" />
<glyph horiz-adv-x="997" d="M 266 1645 L 598 1645 L 750 1270 L 496 1270 L 266 1645 Z" unicode="`" />
<glyph horiz-adv-x="1092" d="M 317 -14 C 197 -14 108 9 51 57 C -6 105 -35 178 -35 276 C -35 392 -16 486 21 558 C 59 630 116 683 194 717 C 272 751 379 768 516 768 L 659 768 L 663 816 C 663 848 651 871 628 885 C 605 898 568 905 516 905 C 406 905 318 892 252 866 L 166 1124 C 272 1165 405 1186 563 1186 C 707 1186 811 1164 876 1122 C 940 1080 973 1009 973 910 C 973 866 967 813 956 750 L 889 358 L 883 309 C 883 293 887 283 897 277 C 906 271 924 268 952 268 L 905 0 C 883 -2 851 -4 809 -4 C 742 -4 695 2 667 16 C 639 29 621 53 612 88 C 576 54 532 28 480 11 C 428 -5 373 -14 317 -14 Z M 270 348 C 270 310 281 283 303 266 C 325 248 362 240 414 240 C 470 240 511 254 539 284 C 567 314 587 361 600 426 L 621 549 L 532 549 C 432 549 363 534 326 505 C 288 475 270 423 270 348 Z" unicode="a" />
<glyph horiz-adv-x="1139" d="M -35 10 L 242 1575 L 551 1575 L 465 1100 C 526 1154 618 1182 741 1182 C 855 1182 940 1152 997 1094 C 1054 1036 1083 943 1083 815 C 1083 719 1069 608 1042 482 C 1015 356 983 259 946 192 C 908 124 862 73 806 38 C 750 3 682 -14 602 -14 C 512 -14 439 -6 384 8 C 329 23 286 50 256 88 L 188 -12 L -35 10 Z M 535 254 C 592 254 635 273 664 313 C 692 353 717 433 737 555 C 752 628 760 689 760 737 C 760 791 748 831 725 856 C 702 880 664 893 610 893 C 565 893 529 885 501 870 C 473 854 451 830 433 796 C 415 762 398 704 381 624 C 364 544 356 478 356 426 C 356 363 370 319 399 293 C 427 267 473 254 535 254 Z" unicode="b" />
<glyph horiz-adv-x="893" d="M 442 -16 C 292 -16 181 16 109 82 C 36 147 0 250 0 391 C 0 486 13 592 39 709 C 65 826 101 918 145 985 C 189 1052 246 1102 314 1134 C 382 1166 466 1182 567 1182 C 637 1182 699 1176 755 1164 C 811 1152 863 1133 913 1106 L 737 850 C 691 878 633 893 563 893 C 504 893 459 875 427 839 C 395 803 369 741 349 651 C 329 561 319 486 319 424 C 319 364 332 321 359 293 C 386 265 432 252 498 252 C 548 252 605 263 670 285 L 748 43 C 655 3 553 -16 442 -16 Z" unicode="c" />
<glyph horiz-adv-x="1139" d="M 336 -18 C 222 -18 136 12 80 72 C 24 132 -4 226 -4 354 C -4 440 9 549 35 679 C 61 809 92 907 130 975 C 167 1043 214 1094 271 1129 C 327 1164 396 1182 477 1182 C 557 1182 621 1174 669 1159 C 717 1143 757 1117 788 1079 L 877 1575 L 1186 1575 L 909 10 L 657 -10 L 657 84 C 583 16 476 -18 336 -18 Z M 467 254 C 511 254 547 262 575 278 C 603 294 627 319 645 354 C 663 388 679 445 695 523 C 711 601 719 667 719 723 C 719 785 704 829 676 855 C 648 881 603 895 543 895 C 505 895 474 887 450 871 C 426 855 405 828 389 792 C 373 755 356 693 340 605 C 323 517 315 452 315 412 C 315 361 326 322 348 295 C 370 267 409 254 467 254 Z" unicode="d" />
<glyph horiz-adv-x="1032" d="M 457 -14 C 299 -14 183 17 109 81 C 35 145 -2 246 -2 385 C -2 473 10 576 36 692 C 61 808 96 902 142 973 C 188 1043 245 1096 315 1130 C 384 1164 467 1182 563 1182 C 704 1182 807 1156 873 1104 C 938 1052 971 968 971 850 C 971 764 951 628 913 442 L 296 442 L 295 408 C 295 350 309 310 339 286 C 369 262 420 250 492 250 C 583 250 674 265 766 297 L 844 55 C 739 9 610 -14 457 -14 Z M 678 682 C 686 724 690 762 690 795 C 690 839 678 869 656 886 C 633 902 596 911 545 911 C 503 911 469 904 443 890 C 417 876 396 855 380 826 C 364 797 348 749 334 682 L 678 682 Z" unicode="e" />
<glyph horiz-adv-x="780" d="M 96 1161 L 283 1161 L 307 1296 C 327 1411 371 1492 440 1540 C 508 1588 618 1612 768 1612 C 833 1612 883 1610 918 1608 L 870 1341 L 750 1341 C 701 1341 666 1333 646 1317 C 626 1301 612 1269 604 1221 L 593 1161 L 840 1161 L 791 891 L 546 891 L 332 -324 L 20 -324 L 235 891 L 49 891 L 96 1161 Z" unicode="f" />
<glyph horiz-adv-x="1096" d="M 520 412 C 458 412 403 416 354 425 C 348 412 346 398 346 383 C 346 359 355 342 374 332 C 392 322 423 316 465 315 C 583 313 675 303 741 287 C 806 271 853 245 882 210 C 911 175 926 125 926 59 C 926 -79 883 -181 799 -246 C 714 -311 574 -344 379 -344 C 199 -344 69 -323 -11 -282 C -91 -241 -131 -176 -131 -86 C -131 -9 -108 54 -63 104 C -18 154 48 189 137 207 C 116 221 101 241 92 266 C 82 291 78 316 78 342 C 78 406 104 462 157 511 C 100 561 72 633 72 727 C 72 1030 229 1182 543 1182 L 645 1179 L 1120 1276 L 1081 1036 L 901 1036 C 962 995 993 918 993 805 C 993 673 954 574 876 509 C 798 444 680 412 520 412 Z M 401 -129 C 474 -129 526 -118 556 -98 C 586 -77 602 -40 602 14 C 602 46 587 69 559 82 C 530 95 472 102 385 102 C 317 102 267 91 235 70 C 203 49 188 15 188 -33 C 188 -67 205 -92 239 -107 C 273 -121 327 -129 401 -129 Z M 514 631 C 570 631 613 645 643 673 C 673 701 688 750 688 819 C 688 891 641 928 547 928 C 486 928 442 912 415 882 C 388 852 375 805 375 743 C 375 707 385 679 406 660 C 426 640 462 631 514 631 Z" unicode="g" />
<glyph horiz-adv-x="1126" d="M 242 1575 L 551 1575 L 463 1098 C 491 1121 530 1141 579 1157 C 627 1173 681 1182 741 1182 C 844 1182 921 1159 972 1114 C 1022 1068 1048 998 1048 903 C 1048 859 1042 803 1030 733 L 901 0 L 592 0 L 711 682 C 719 730 724 765 724 787 C 724 824 713 850 691 865 C 669 879 634 887 586 887 C 528 887 485 871 456 840 C 427 809 404 747 387 655 L 274 0 L -37 0 L 242 1575 Z" unicode="h" />
<glyph horiz-adv-x="524" d="M 178 1161 L 487 1161 L 283 0 L -27 0 L 178 1161 Z M 246 1546 L 559 1546 L 508 1266 L 195 1266 L 246 1546 Z" unicode="i" />
<glyph horiz-adv-x="524" d="M -145 -76 L -123 -76 C -85 -76 -60 -68 -48 -54 C -36 -39 -26 -6 -18 45 L 178 1161 L 487 1161 L 283 4 C 267 -88 245 -156 217 -201 C 189 -245 149 -277 99 -296 C 48 -314 -31 -324 -139 -324 L -188 -324 L -145 -76 Z M 246 1546 L 559 1546 L 508 1266 L 195 1266 L 246 1546 Z" unicode="j" />
<glyph horiz-adv-x="1038" d="M 242 1575 L 547 1575 L 402 759 L 741 1161 L 1075 1161 L 677 685 L 899 0 L 584 0 L 440 439 L 321 299 L 268 0 L -37 0 L 242 1575 Z" unicode="k" />
<glyph horiz-adv-x="600" d="M 291 -4 C 195 -4 126 14 85 50 C 44 86 23 145 23 227 C 23 266 27 312 37 365 L 252 1575 L 561 1575 L 348 373 L 342 316 C 342 298 349 285 363 278 C 377 271 406 268 451 268 L 403 0 C 391 -2 353 -4 291 -4 Z" unicode="l" />
<glyph horiz-adv-x="1704" d="M 418 1163 L 420 1081 C 450 1111 491 1135 545 1154 C 598 1172 660 1182 731 1182 C 802 1182 857 1173 896 1157 C 935 1140 965 1113 987 1075 C 1064 1146 1181 1182 1337 1182 C 1436 1182 1510 1159 1560 1115 C 1610 1071 1635 1001 1635 906 C 1635 861 1628 803 1616 733 L 1487 0 L 1178 0 L 1298 682 C 1307 735 1312 772 1312 792 C 1312 827 1301 852 1281 866 C 1260 880 1227 887 1182 887 C 1144 887 1114 880 1090 867 C 1066 853 1047 832 1033 804 C 1019 775 1006 728 994 663 C 982 598 944 377 879 0 L 571 0 L 690 682 C 699 735 704 772 704 792 C 704 827 693 852 673 866 C 652 880 619 887 575 887 C 537 887 507 880 484 867 C 460 854 441 833 427 805 C 413 777 399 727 385 655 L 270 0 L -37 0 L 166 1143 L 418 1163 Z" unicode="m" />
<glyph horiz-adv-x="1126" d="M 418 1163 L 420 1081 C 450 1111 492 1135 547 1154 C 602 1172 667 1182 741 1182 C 844 1182 921 1159 972 1114 C 1022 1068 1048 998 1048 903 C 1048 859 1042 803 1030 733 L 901 0 L 592 0 L 711 682 C 719 730 724 765 724 787 C 724 824 713 850 691 865 C 669 879 634 887 586 887 C 528 887 485 871 456 840 C 427 809 404 747 387 655 L 274 0 L -37 0 L 166 1143 L 418 1163 Z" unicode="n" />
<glyph horiz-adv-x="1104" d="M 457 -18 C 304 -18 190 16 115 85 C 39 153 2 260 2 406 C 2 503 15 608 43 720 C 71 832 108 921 154 987 C 200 1053 259 1102 330 1134 C 401 1166 487 1182 588 1182 C 740 1182 854 1147 929 1079 C 1004 1010 1042 904 1042 760 C 1042 664 1028 558 1000 442 C 972 326 936 236 891 172 C 845 107 787 59 717 28 C 646 -2 559 -18 457 -18 Z M 479 252 C 523 252 559 260 587 278 C 615 295 637 322 655 359 C 672 395 689 458 705 548 C 721 637 729 698 729 731 C 729 789 715 830 688 855 C 661 880 619 893 561 893 C 518 893 483 884 455 867 C 427 850 405 823 387 787 C 369 751 353 692 338 611 C 322 530 315 466 315 420 C 315 360 328 317 355 291 C 381 265 423 252 479 252 Z" unicode="o" />
<glyph horiz-adv-x="1139" d="M 418 1163 L 422 1081 C 494 1148 601 1182 741 1182 C 855 1182 940 1152 997 1094 C 1054 1036 1083 943 1083 815 C 1083 719 1069 608 1042 482 C 1015 356 983 259 946 192 C 908 124 862 73 806 38 C 750 3 682 -14 602 -14 C 523 -14 459 -6 410 8 C 361 22 321 49 289 88 L 217 -324 L -92 -324 L 166 1143 L 418 1163 Z M 535 254 C 572 254 602 261 626 277 C 649 292 668 317 684 353 C 700 388 716 450 734 539 C 751 627 760 693 760 737 C 760 791 748 831 725 856 C 702 880 664 893 610 893 C 565 893 529 885 501 870 C 473 854 451 830 433 796 C 415 762 398 704 381 624 C 364 544 356 478 356 426 C 356 363 370 319 399 293 C 427 267 473 254 535 254 Z" unicode="p" />
<glyph horiz-adv-x="1139" d="M 612 66 C 573 36 532 15 489 3 C 445 -9 394 -16 336 -16 C 223 -16 138 13 81 72 C 24 131 -4 225 -4 354 C -4 440 9 549 35 679 C 61 809 92 907 130 975 C 167 1043 214 1094 271 1129 C 327 1164 396 1182 477 1182 C 563 1182 633 1174 685 1160 C 737 1145 781 1118 815 1079 L 889 1171 L 1112 1151 L 850 -324 L 543 -324 L 612 66 Z M 467 254 C 511 254 547 262 575 278 C 603 294 626 318 644 351 C 662 384 679 440 695 520 C 711 600 719 667 719 723 C 719 785 704 829 676 855 C 648 881 603 895 543 895 C 503 895 471 886 447 868 C 422 850 401 822 385 783 C 369 744 353 681 338 593 C 322 505 315 445 315 412 C 315 361 326 322 348 295 C 370 267 409 254 467 254 Z" unicode="q" />
<glyph horiz-adv-x="688" d="M 418 1163 L 422 1067 C 453 1101 494 1126 545 1144 C 596 1162 664 1171 748 1171 L 696 879 C 630 879 578 872 540 860 C 502 848 472 830 452 808 C 431 786 416 759 408 729 C 399 698 391 665 385 629 L 274 0 L -37 0 L 166 1143 L 418 1163 Z" unicode="r" />
<glyph horiz-adv-x="905" d="M 379 -14 C 193 -14 34 24 -98 102 L 59 340 C 163 273 273 240 389 240 C 431 240 460 247 478 263 C 495 278 504 302 504 336 C 504 362 494 383 474 400 C 454 416 401 444 315 483 C 218 529 152 576 116 625 C 80 673 63 733 63 803 C 63 927 100 1021 176 1085 C 251 1149 360 1182 504 1182 C 665 1182 797 1152 899 1094 L 739 852 C 664 892 577 913 479 913 C 439 913 410 905 393 889 C 375 873 367 848 367 815 C 367 789 381 768 410 750 C 439 732 480 711 532 688 C 629 645 698 598 738 548 C 778 498 799 432 799 350 C 799 232 763 142 693 80 C 623 17 518 -14 379 -14 Z" unicode="s" />
<glyph horiz-adv-x="831" d="M 96 1161 L 291 1161 L 385 1421 L 641 1477 L 585 1161 L 831 1161 L 782 891 L 538 891 L 451 391 C 447 370 445 352 445 337 C 445 311 453 293 471 283 C 489 273 518 268 559 268 L 674 268 L 627 0 C 571 -6 519 -10 473 -10 C 391 -10 324 -1 274 16 C 224 33 187 60 163 96 C 139 132 128 181 128 243 C 128 286 133 335 143 391 L 229 891 L 49 891 L 96 1161 Z" unicode="t" />
<glyph horiz-adv-x="1106" d="M 463 -16 C 311 -16 200 9 131 60 C 61 110 27 193 27 309 C 27 369 33 438 47 516 L 162 1161 L 471 1161 L 356 512 C 344 445 339 399 339 375 C 339 332 349 302 371 284 C 393 266 427 258 473 258 C 509 258 537 262 559 271 C 581 279 598 293 611 311 C 624 329 634 353 641 382 C 648 411 656 446 664 487 L 780 1161 L 1085 1161 L 963 455 C 941 328 911 232 874 167 C 836 102 786 55 723 27 C 659 -1 573 -16 463 -16 Z" unicode="u" />
<glyph horiz-adv-x="1038" d="M 74 1161 L 393 1161 L 469 438 L 786 1161 L 1106 1161 L 549 -10 L 217 -10 L 74 1161 Z" unicode="v" />
<glyph horiz-adv-x="1534" d="M 90 1161 L 418 1161 L 440 528 L 711 1161 L 1001 1161 L 1042 563 L 1280 1161 L 1585 1161 L 1102 -10 L 793 -10 L 743 606 L 479 -10 L 162 -10 L 90 1161 Z" unicode="w" />
<glyph horiz-adv-x="1014" d="M 102 1161 L 424 1161 L 535 875 L 729 1161 L 1051 1161 L 645 590 L 874 0 L 553 0 L 424 332 L 199 0 L -129 0 L 313 617 L 102 1161 Z" unicode="x" />
<glyph horiz-adv-x="995" d="M 72 1161 L 395 1161 L 460 493 L 748 1161 L 1063 1161 L 457 -102 C 429 -159 400 -203 371 -235 C 341 -267 308 -289 272 -303 C 235 -317 180 -324 106 -324 L -51 -324 L -8 -76 L 111 -76 C 137 -76 157 -72 169 -65 C 181 -57 191 -45 199 -27 L 216 9 L 72 1161 Z" unicode="y" />
<glyph horiz-adv-x="891" d="M 485 891 L 78 891 L 125 1161 L 922 1161 L 887 952 L 319 252 L 780 252 L 735 0 L -111 0 L -74 205 L 485 891 Z" unicode="z" />
<glyph horiz-adv-x="971" d="M 463 -324 C 339 -324 246 -306 186 -270 C 126 -234 96 -177 96 -100 C 96 -32 124 66 182 196 L 224 290 C 253 356 268 402 268 428 C 268 454 255 472 229 482 C 203 491 148 496 66 496 L 113 756 C 191 756 243 759 271 767 C 299 775 318 788 329 808 C 340 827 346 861 346 909 L 340 1054 L 334 1214 C 334 1342 367 1434 433 1490 C 499 1546 606 1575 754 1575 L 981 1575 L 932 1309 L 807 1309 C 743 1309 698 1295 674 1269 C 649 1242 637 1195 637 1128 L 643 1008 L 649 881 C 649 803 636 745 612 707 C 587 669 550 642 500 627 C 560 602 590 560 590 502 C 590 448 564 363 513 245 C 484 179 464 130 453 98 C 441 65 436 39 436 20 C 436 -40 478 -70 563 -70 L 690 -70 L 645 -324 L 463 -324 Z" unicode="{" />
<glyph horiz-adv-x="674" d="M 182 1575 L 496 1575 L 496 -324 L 182 -324 L 182 1575 Z" unicode="|" />
<glyph horiz-adv-x="971" d="M -8 -70 L 119 -70 C 182 -70 226 -55 250 -27 C 274 1 287 48 287 113 C 287 146 285 188 282 239 C 278 289 276 333 276 371 C 276 445 288 501 312 541 C 336 580 374 608 426 625 C 366 649 336 690 336 750 C 336 803 361 886 412 1000 C 441 1067 461 1116 471 1147 C 481 1177 487 1201 487 1219 C 487 1253 475 1276 453 1289 C 431 1302 400 1309 360 1309 L 233 1309 L 281 1575 L 463 1575 C 587 1575 679 1557 739 1521 C 799 1485 829 1429 829 1352 C 829 1284 800 1185 743 1055 L 702 961 C 672 894 657 848 657 823 C 657 796 669 778 695 769 C 720 760 775 756 860 756 L 813 496 C 734 496 681 492 653 484 C 625 476 606 463 596 444 C 585 424 580 390 580 342 L 586 198 L 592 37 C 592 -91 558 -183 492 -239 C 426 -295 319 -324 172 -324 L -55 -324 L -8 -70 Z" unicode="}" />
<glyph horiz-adv-x="997" d="M 164 863 C 254 1006 351 1078 457 1078 C 488 1078 517 1073 543 1064 C 569 1055 594 1045 617 1035 C 639 1024 660 1014 680 1005 C 700 996 719 992 737 992 C 761 992 783 999 805 1015 C 826 1031 849 1055 874 1089 L 1061 964 C 975 819 882 747 780 747 C 748 747 719 751 692 760 C 664 769 638 779 614 790 C 590 800 567 810 545 819 C 523 828 503 833 485 833 C 463 833 443 826 423 813 C 403 799 380 774 352 738 L 164 863 Z" unicode="~" />
<glyph horiz-adv-x="348" d="" unicode=" " />
<glyph horiz-adv-x="707" d="M 262 1044 L 545 1044 L 389 0 L 51 0 L 262 1044 Z M 313 1518 L 666 1518 L 600 1157 L 248 1157 L 313 1518 Z" unicode="¡" />
<glyph horiz-adv-x="952" d="M 494 1321 L 791 1321 L 763 1162 C 823 1152 882 1131 938 1100 L 768 850 C 718 878 660 893 594 893 C 533 893 487 874 455 836 C 423 798 397 733 377 640 C 357 546 348 474 348 424 C 348 364 361 321 388 293 C 414 265 460 252 526 252 C 574 252 632 263 698 287 L 772 53 C 709 25 638 7 558 -3 L 524 -195 L 225 -195 L 262 17 L 258 19 C 180 44 122 86 85 145 C 47 204 29 286 29 391 C 29 509 46 631 81 759 C 115 886 164 981 226 1045 C 288 1109 367 1149 465 1165 L 494 1321 Z" unicode="¢" />
<glyph horiz-adv-x="1137" d="M 59 889 L 207 889 L 205 983 C 205 1167 243 1306 321 1398 C 398 1490 516 1536 676 1536 C 776 1536 864 1527 940 1510 C 1016 1493 1084 1467 1145 1432 L 977 1190 C 898 1230 798 1251 678 1251 C 635 1251 601 1242 577 1224 C 552 1206 534 1178 523 1141 C 511 1104 506 1042 506 954 L 506 889 L 799 889 L 756 639 L 507 639 L 508 524 C 508 436 498 359 479 291 L 476 282 C 532 262 591 252 651 252 C 685 252 710 262 726 283 C 741 303 754 344 764 406 L 782 520 L 1053 520 L 1026 358 C 1010 266 989 194 962 141 C 935 87 901 49 859 25 C 817 1 761 -10 690 -10 C 549 -10 422 16 308 69 C 223 21 112 -2 -26 -2 L -100 0 L -53 270 C 17 270 69 273 103 279 C 137 285 162 295 178 309 C 194 323 206 344 213 373 C 219 402 223 457 223 537 L 220 639 L 16 639 L 59 889 Z" unicode="£" />
<glyph horiz-adv-x="1152" d="M 1056 392 L 940 284 L 740 500 C 692 468 636 452 572 452 C 510 452 456 468 408 500 L 208 284 L 92 392 L 300 608 C 281 634 268 660 262 686 C 255 711 252 742 252 780 C 252 848 268 906 300 952 L 92 1168 L 208 1276 L 408 1060 C 456 1092 510 1108 572 1108 C 636 1108 692 1092 740 1060 L 944 1276 L 1060 1156 L 852 952 C 870 925 883 898 890 872 C 896 845 900 814 900 780 C 900 716 882 658 848 608 L 1056 392 Z M 748 780 C 748 833 731 876 698 910 C 664 943 622 960 572 960 C 521 960 480 943 448 910 C 416 876 400 833 400 780 C 400 726 416 684 450 652 C 483 620 524 604 572 604 C 625 604 668 620 700 652 C 732 684 748 726 748 780 Z" unicode="¤" />
<glyph horiz-adv-x="1163" d="M 49 334 L 356 334 L 375 442 L 70 442 L 106 662 L 404 662 L 150 1518 L 475 1518 L 610 936 L 952 1518 L 1284 1518 L 726 662 L 1020 662 L 983 442 L 675 442 L 656 334 L 965 334 L 926 115 L 618 115 L 598 0 L 297 0 L 317 115 L 12 115 L 49 334 Z" unicode="¥" />
<glyph horiz-adv-x="674" d="M 180 461 L 496 461 L 496 -324 L 180 -324 L 180 461 Z M 180 1575 L 496 1575 L 496 791 L 180 791 L 180 1575 Z" unicode="¦" />
<glyph horiz-adv-x="1001" d="M 868 1526 L 985 1522 L 940 1268 L 856 1268 C 830 1268 809 1265 793 1261 C 776 1256 762 1249 751 1239 C 740 1229 732 1216 726 1201 C 720 1185 710 1143 698 1074 C 771 1054 824 1023 858 981 C 892 939 909 883 909 815 C 909 729 897 658 874 603 C 851 548 817 505 771 475 C 725 445 663 426 583 418 L 571 352 C 553 252 528 178 495 129 C 461 80 415 44 356 22 C 296 0 220 -12 127 -12 C 75 -12 36 -10 10 -6 L 51 236 L 135 236 C 163 236 185 238 203 244 C 221 250 235 258 246 270 C 256 281 264 296 270 315 C 276 333 284 375 295 439 C 225 456 174 485 141 525 C 108 565 92 618 92 684 C 92 806 117 900 169 967 C 221 1033 300 1073 408 1087 L 422 1163 C 440 1264 466 1338 499 1386 C 532 1434 578 1469 637 1492 C 695 1514 772 1526 868 1526 Z M 500 606 C 604 606 657 662 657 774 C 657 809 645 836 621 854 C 597 872 557 881 502 881 C 394 881 340 825 340 713 C 340 677 352 651 376 633 C 400 615 442 606 500 606 Z" unicode="§" />
<glyph horiz-adv-x="997" d="M 299 1544 L 573 1544 L 524 1270 L 252 1270 L 299 1544 Z M 700 1544 L 975 1544 L 926 1270 L 651 1270 L 700 1544 Z" unicode="¨" />
<glyph horiz-adv-x="1368" d="M 698 283 C 566 283 471 320 411 396 C 351 472 322 596 322 768 C 322 890 335 984 362 1051 C 388 1118 430 1168 488 1202 C 545 1236 621 1253 715 1253 C 814 1253 899 1230 971 1186 L 864 1022 C 822 1049 770 1063 709 1063 C 637 1063 587 1040 560 996 C 533 951 520 873 520 762 C 520 647 534 568 562 524 C 590 480 640 459 711 459 C 744 459 773 462 799 470 C 824 478 851 491 879 510 L 977 354 C 936 328 894 310 852 299 C 809 288 758 283 698 283 Z M 688 -18 C 474 -18 316 43 216 167 C 116 291 66 488 66 758 C 66 1028 116 1225 216 1350 C 316 1475 473 1538 688 1538 C 827 1538 942 1511 1034 1457 C 1126 1403 1195 1320 1241 1208 C 1287 1096 1311 946 1311 758 C 1311 572 1287 423 1241 311 C 1195 199 1126 116 1034 62 C 942 8 827 -18 688 -18 Z M 688 92 C 859 92 986 144 1069 248 C 1152 352 1194 522 1194 758 C 1194 918 1176 1044 1141 1138 C 1106 1232 1052 1303 978 1352 C 904 1400 807 1425 688 1425 C 574 1425 481 1402 407 1358 C 333 1314 277 1244 240 1148 C 202 1052 184 922 184 758 C 184 594 202 464 240 368 C 277 272 332 202 406 158 C 480 114 574 92 688 92 Z" unicode="©" />
<glyph horiz-adv-x="991" d="M 373 565 C 281 565 212 584 168 623 C 124 661 102 721 102 801 C 102 892 117 965 147 1021 C 177 1077 223 1117 285 1143 C 347 1169 433 1182 545 1182 L 661 1182 L 666 1238 C 666 1263 656 1281 638 1291 C 620 1301 591 1307 551 1307 C 465 1307 394 1296 336 1276 L 264 1487 C 348 1519 455 1536 586 1536 C 702 1536 786 1518 840 1484 C 893 1450 920 1394 920 1316 C 920 1276 915 1232 907 1182 L 852 866 L 847 826 C 847 814 850 805 858 801 C 865 797 880 795 903 795 L 864 573 L 786 571 C 730 571 691 577 667 590 C 643 602 627 625 621 659 C 567 596 484 565 373 565 Z M 76 463 L 799 463 L 760 242 L 39 242 L 76 463 Z M 352 856 C 352 826 360 804 378 790 C 395 776 425 770 467 770 C 509 770 541 782 565 806 C 588 830 604 869 614 922 L 629 1008 L 565 1008 C 481 1008 424 997 395 976 C 366 954 352 914 352 856 Z" unicode="ª" />
<glyph horiz-adv-x="1339" d="M 98 580 L 457 1161 L 727 1161 L 393 580 L 524 0 L 252 0 L 98 580 Z M 604 580 L 961 1161 L 1233 1161 L 897 580 L 1028 0 L 756 0 L 604 580 Z" unicode="«" />
<glyph horiz-adv-x="1536" d="M 1116 352 L 1116 728 L 212 728 L 212 920 L 1296 920 L 1296 352 L 1116 352 Z" unicode="¬" />
<glyph horiz-adv-x="711" d="M 72 823 L 657 823 L 608 541 L 20 541 L 72 823 Z" unicode="­" />
<glyph horiz-adv-x="1368" d="M 688 -18 C 474 -18 316 43 216 167 C 116 291 66 488 66 758 C 66 1028 116 1225 216 1350 C 316 1475 473 1538 688 1538 C 827 1538 942 1511 1034 1457 C 1126 1403 1195 1320 1241 1208 C 1287 1096 1311 946 1311 758 C 1311 572 1287 423 1241 311 C 1195 199 1126 116 1034 62 C 942 8 827 -18 688 -18 Z M 688 92 C 859 92 986 144 1069 248 C 1152 352 1194 522 1194 758 C 1194 918 1176 1044 1141 1138 C 1106 1232 1052 1303 978 1352 C 904 1400 807 1425 688 1425 C 574 1425 481 1402 407 1358 C 333 1314 277 1244 240 1148 C 202 1052 184 922 184 758 C 184 594 202 464 240 368 C 277 272 332 202 406 158 C 480 114 574 92 688 92 Z M 377 1227 L 729 1227 C 836 1227 913 1204 961 1160 C 1008 1116 1032 1040 1032 934 C 1032 850 1019 786 994 742 C 968 698 929 666 876 648 L 872 646 L 1026 299 L 831 299 L 687 627 L 565 627 L 565 299 L 377 299 L 377 1227 Z M 723 780 C 768 780 799 790 817 812 C 835 833 844 869 844 920 C 844 971 835 1007 817 1029 C 799 1050 768 1061 723 1061 L 565 1061 L 565 780 L 723 780 Z" unicode="®" />
<glyph horiz-adv-x="997" d="M 264 1526 L 1001 1526 L 956 1270 L 219 1270 L 264 1526 Z" unicode="¯" />
<glyph horiz-adv-x="965" d="M 481 545 C 355 545 260 573 197 631 C 133 689 102 778 102 899 C 102 1001 119 1107 155 1217 C 191 1326 245 1406 317 1458 C 389 1510 479 1536 588 1536 C 711 1536 805 1505 869 1444 C 933 1383 965 1293 965 1174 C 965 1068 947 961 912 855 C 876 749 823 670 751 620 C 679 570 589 545 481 545 Z M 498 776 C 534 776 565 783 590 797 C 614 811 634 832 650 860 C 666 888 680 931 692 991 C 704 1050 711 1097 711 1133 C 711 1184 699 1222 675 1247 C 651 1271 615 1284 565 1284 C 527 1284 496 1276 472 1262 C 448 1247 428 1225 412 1197 C 396 1168 382 1122 370 1060 C 358 998 352 953 352 926 C 352 874 363 836 387 812 C 411 788 448 776 498 776 Z" unicode="°" />
<glyph horiz-adv-x="1247" d="M 78 281 L 392 281 L 446 588 L 131 588 L 178 856 L 494 856 L 559 1225 L 852 1225 L 786 856 L 1102 856 L 1055 588 L 739 588 L 685 281 L 1001 281 L 954 12 L 31 12 L 78 281 Z" unicode="±" />
<glyph horiz-adv-x="883" d="M 588 1237 C 588 1263 577 1281 557 1291 C 536 1300 505 1305 463 1305 C 432 1305 399 1301 365 1294 C 331 1287 303 1279 283 1270 L 215 1473 C 302 1511 407 1530 530 1530 C 632 1530 709 1511 763 1473 C 817 1435 844 1379 844 1305 C 844 1257 841 1220 837 1194 C 832 1168 824 1143 812 1119 C 800 1095 783 1070 763 1044 C 742 1018 715 989 682 957 C 649 925 563 847 424 725 L 758 725 L 723 524 L 55 524 L 88 709 L 385 971 C 455 1033 501 1076 525 1101 C 549 1125 565 1146 574 1164 C 583 1182 588 1206 588 1237 Z" unicode="²" />
<glyph horiz-adv-x="891" d="M 428 512 C 356 512 289 519 229 533 C 168 547 111 570 57 604 L 197 795 C 263 747 336 723 418 723 C 470 723 508 733 531 753 C 553 773 565 811 565 866 C 565 896 555 917 536 929 C 516 940 478 946 422 946 L 274 946 L 307 1143 L 463 1143 L 477 1143 C 526 1143 560 1150 579 1164 C 598 1178 608 1205 608 1245 C 608 1270 598 1287 580 1297 C 562 1306 530 1311 485 1311 C 409 1311 344 1302 289 1284 L 223 1479 C 258 1495 306 1507 366 1516 C 426 1525 487 1530 549 1530 C 650 1530 727 1514 780 1482 C 833 1450 860 1397 860 1325 C 860 1257 847 1198 822 1148 C 797 1098 764 1067 723 1057 C 751 1044 772 1025 788 1001 C 803 976 811 940 811 893 C 811 763 780 667 718 605 C 656 543 560 512 428 512 Z" unicode="³" />
<glyph horiz-adv-x="997" d="M 692 1645 L 1034 1645 L 670 1270 L 406 1270 L 692 1645 Z" unicode="´" />
<glyph horiz-adv-x="1112" d="M 168 1161 L 479 1161 L 365 512 C 353 444 347 398 347 373 C 347 331 357 301 379 284 C 401 266 435 258 481 258 C 521 258 553 263 576 274 C 598 285 616 303 629 328 C 641 353 655 406 670 487 L 788 1161 L 1094 1161 L 971 455 C 949 328 919 232 882 167 C 844 102 794 55 731 27 C 667 -1 581 -16 471 -16 C 383 -16 320 3 281 41 L 215 -324 L -92 -324 L 168 1161 Z" unicode="µ" />
<glyph horiz-adv-x="1174" d="M 729 526 L 606 526 L 514 0 L 213 0 L 315 570 C 239 598 182 639 144 693 C 106 747 88 820 88 911 C 88 993 100 1078 126 1165 C 151 1252 186 1321 231 1371 C 275 1421 332 1458 402 1482 C 472 1506 559 1518 664 1518 L 1206 1518 L 938 0 L 637 0 L 729 526 Z M 774 776 L 856 1239 L 643 1239 C 598 1239 561 1232 533 1220 C 505 1208 481 1188 463 1161 C 445 1133 431 1098 421 1054 C 411 1010 406 971 406 938 C 406 880 424 838 460 813 C 496 788 555 776 635 776 L 774 776 Z" unicode="¶" />
<glyph horiz-adv-x="532" d="M 123 944 L 475 944 L 410 569 L 57 569 L 123 944 Z" unicode="·" />
<glyph horiz-adv-x="997" d="M 340 -498 C 238 -498 147 -481 68 -449 L 139 -291 C 200 -318 259 -332 317 -332 C 353 -332 378 -325 393 -311 C 408 -297 416 -274 416 -244 C 416 -206 388 -186 334 -185 L 279 -186 L 229 -147 L 293 14 L 461 14 L 426 -86 L 439 -86 C 554 -86 612 -138 612 -242 C 612 -330 591 -395 550 -436 C 508 -477 438 -498 340 -498 Z" unicode="¸" />
<glyph horiz-adv-x="657" d="M 324 1292 L 186 1292 L 227 1518 L 623 1518 L 446 524 L 188 524 L 324 1292 Z" unicode="¹" />
<glyph horiz-adv-x="991" d="M 496 561 C 371 561 278 588 218 644 C 157 700 127 787 127 905 C 127 1013 144 1120 179 1228 C 214 1335 266 1413 334 1462 C 402 1511 491 1536 600 1536 C 725 1536 818 1508 879 1453 C 940 1397 971 1310 971 1192 C 971 1120 959 1037 937 941 C 915 845 885 770 849 717 C 812 664 765 625 708 599 C 651 573 580 561 496 561 Z M 514 782 C 550 782 579 789 601 803 C 623 817 641 838 655 868 C 669 898 682 949 694 1023 C 706 1097 713 1145 713 1169 C 713 1216 702 1249 680 1269 C 658 1288 624 1298 580 1298 C 532 1298 495 1284 469 1256 C 443 1228 422 1174 406 1095 C 390 1016 383 957 383 918 C 383 876 392 842 411 818 C 429 794 464 782 514 782 Z M 78 463 L 807 463 L 770 242 L 39 242 L 78 463 Z" unicode="º" />
<glyph horiz-adv-x="1339" d="M 381 582 L 248 1161 L 520 1161 L 674 582 L 315 0 L 43 0 L 381 582 Z M 885 582 L 754 1161 L 1024 1161 L 1178 582 L 821 0 L 549 0 L 885 582 Z" unicode="»" />
<glyph horiz-adv-x="1845" d="M 1217 1518 L 1491 1518 L 526 0 L 250 0 L 1217 1518 Z M 1397 993 L 1649 993 L 1196 367 L 1358 367 L 1438 580 L 1622 580 L 1583 367 L 1702 367 L 1667 168 L 1548 168 L 1518 0 L 1290 0 L 1320 168 L 901 168 L 934 354 L 1397 993 Z M 330 1292 L 193 1292 L 233 1518 L 629 1518 L 453 524 L 195 524 L 330 1292 Z" unicode="¼" />
<glyph horiz-adv-x="1935" d="M 1217 1518 L 1491 1518 L 526 0 L 250 0 L 1217 1518 Z M 330 1292 L 193 1292 L 233 1518 L 629 1518 L 453 524 L 195 524 L 330 1292 Z M 1569 713 C 1569 739 1558 757 1538 766 C 1517 775 1486 780 1444 780 C 1378 780 1318 768 1264 745 L 1196 948 C 1281 986 1386 1006 1511 1006 C 1614 1006 1692 986 1745 948 C 1798 910 1825 854 1825 780 C 1825 706 1816 650 1800 610 C 1783 570 1753 526 1710 480 C 1666 433 1565 340 1405 201 L 1739 201 L 1704 0 L 1036 0 L 1069 184 L 1366 446 C 1436 508 1482 551 1505 575 C 1528 599 1544 620 1554 638 C 1564 656 1569 681 1569 713 Z" unicode="½" />
<glyph horiz-adv-x="2028" d="M 430 512 C 358 512 291 519 231 533 C 170 547 113 570 59 604 L 199 795 C 265 747 338 723 420 723 C 472 723 510 733 533 753 C 555 773 567 811 567 866 C 567 898 557 919 538 930 C 518 940 480 946 424 946 L 276 946 L 309 1143 L 465 1143 L 479 1143 C 528 1143 562 1150 581 1164 C 600 1178 610 1205 610 1245 C 610 1270 600 1287 582 1297 C 564 1306 532 1311 487 1311 C 411 1311 346 1302 291 1284 L 225 1479 C 260 1495 309 1507 371 1516 C 433 1525 493 1530 551 1530 C 652 1530 729 1514 782 1482 C 835 1450 862 1397 862 1325 C 862 1257 849 1198 824 1148 C 799 1098 766 1067 725 1057 C 753 1044 774 1025 790 1001 C 805 976 813 940 813 893 C 813 763 782 667 720 605 C 658 543 562 512 430 512 Z M 1399 1518 L 1673 1518 L 709 0 L 432 0 L 1399 1518 Z M 1579 993 L 1831 993 L 1378 367 L 1540 367 L 1620 580 L 1804 580 L 1766 367 L 1884 367 L 1849 168 L 1731 168 L 1702 0 L 1473 0 L 1502 168 L 1083 168 L 1118 354 L 1579 993 Z" unicode="¾" />
<glyph horiz-adv-x="1186" d="M 496 -18 C 190 -18 37 87 37 297 C 37 367 47 429 67 483 C 87 537 115 585 152 627 C 188 669 244 712 319 758 C 367 788 404 812 429 831 C 453 849 472 867 485 883 C 498 899 509 918 517 940 C 525 962 534 1006 545 1073 L 846 1073 C 834 973 819 900 801 856 C 782 812 755 772 719 737 C 683 702 630 665 561 625 C 482 581 430 542 405 510 C 379 478 367 435 367 383 C 367 343 382 314 414 296 C 446 277 494 268 559 268 C 648 268 740 289 836 332 L 963 78 C 911 50 842 27 756 9 C 669 -9 582 -18 496 -18 Z M 598 1518 L 950 1518 L 893 1196 L 541 1196 L 598 1518 Z" unicode="¿" />
<glyph horiz-adv-x="1319" d="M 639 1528 L 952 1528 L 1159 0 L 825 0 L 799 236 L 334 236 L 221 0 L -109 0 L 639 1528 Z M 770 518 L 709 1042 L 461 518 L 770 518 Z M 483 1971 L 815 1971 L 967 1596 L 713 1596 L 483 1971 Z" unicode="À" />
<glyph horiz-adv-x="1319" d="M 639 1528 L 952 1528 L 1159 0 L 825 0 L 799 236 L 334 236 L 221 0 L -109 0 L 639 1528 Z M 770 518 L 709 1042 L 461 518 L 770 518 Z M 909 1971 L 1251 1971 L 887 1596 L 623 1596 L 909 1971 Z" unicode="Á" />
<glyph horiz-adv-x="1319" d="M 639 1528 L 952 1528 L 1159 0 L 825 0 L 799 236 L 334 236 L 221 0 L -109 0 L 639 1528 Z M 770 518 L 709 1042 L 461 518 L 770 518 Z M 729 1971 L 1014 1971 L 1171 1596 L 932 1596 L 835 1758 L 684 1596 L 438 1596 L 729 1971 Z" unicode="Â" />
<glyph horiz-adv-x="1319" d="M 639 1528 L 952 1528 L 1159 0 L 825 0 L 799 236 L 334 236 L 221 0 L -109 0 L 639 1528 Z M 770 518 L 709 1042 L 461 518 L 770 518 Z M 381 1708 C 471 1851 568 1923 674 1923 C 705 1923 734 1918 760 1909 C 786 1900 811 1890 834 1880 C 856 1869 877 1859 897 1850 C 917 1841 936 1837 954 1837 C 978 1837 1000 1844 1022 1860 C 1043 1876 1066 1900 1091 1934 L 1278 1809 C 1192 1664 1099 1592 997 1592 C 965 1592 936 1596 909 1605 C 881 1614 855 1624 831 1635 C 807 1645 784 1655 762 1664 C 740 1673 720 1678 702 1678 C 680 1678 660 1671 640 1658 C 620 1644 597 1619 569 1583 L 381 1708 Z" unicode="Ã" />
<glyph horiz-adv-x="1319" d="M 639 1528 L 952 1528 L 1159 0 L 825 0 L 799 236 L 334 236 L 221 0 L -109 0 L 639 1528 Z M 770 518 L 709 1042 L 461 518 L 770 518 Z M 516 1870 L 790 1870 L 741 1596 L 469 1596 L 516 1870 Z M 917 1870 L 1192 1870 L 1143 1596 L 868 1596 L 917 1870 Z" unicode="Ä" />
<glyph horiz-adv-x="1319" d="M 600 1448 C 568 1482 553 1532 553 1597 C 553 1703 578 1785 629 1844 C 680 1903 751 1933 842 1933 C 916 1933 972 1914 1012 1877 C 1051 1839 1071 1784 1071 1710 C 1071 1589 1035 1499 965 1440 L 1159 0 L 825 0 L 799 236 L 334 236 L 221 0 L -109 0 L 600 1448 Z M 770 518 L 709 1042 L 461 518 L 770 518 Z M 797 1528 C 877 1528 918 1584 918 1696 C 918 1754 888 1784 829 1784 C 789 1784 758 1769 738 1739 C 717 1709 707 1669 707 1618 C 707 1558 737 1528 797 1528 Z" unicode="Å" />
<glyph horiz-adv-x="1901" d="M 877 1518 L 1950 1518 L 1896 1225 L 1298 1225 L 1245 918 L 1815 918 L 1765 631 L 1196 631 L 1135 287 L 1733 287 L 1683 0 L 770 0 L 811 240 L 371 240 L 215 0 L -117 0 L 877 1518 Z M 858 514 L 975 1176 L 547 514 L 858 514 Z" unicode="Æ" />
<glyph horiz-adv-x="1130" d="M 557 -18 C 381 -18 248 25 159 112 C 69 199 25 333 25 514 C 25 634 43 770 79 922 C 115 1074 162 1192 220 1278 C 278 1364 351 1428 440 1471 C 529 1514 638 1536 768 1536 C 842 1536 915 1526 987 1507 C 1059 1488 1120 1461 1171 1427 L 989 1149 C 935 1178 887 1198 846 1208 C 804 1218 761 1223 717 1223 C 649 1223 595 1209 555 1181 C 515 1153 482 1107 454 1044 C 426 980 402 896 383 790 C 363 684 354 598 354 530 C 354 439 373 373 411 332 C 449 290 513 270 602 270 C 692 270 772 290 842 332 L 981 90 C 862 18 721 -18 557 -18 Z M 410 -498 C 308 -498 217 -481 138 -449 L 209 -291 C 270 -318 329 -332 387 -332 C 423 -332 448 -325 463 -311 C 478 -297 486 -274 486 -244 C 486 -206 458 -186 404 -185 L 349 -186 L 299 -147 L 363 14 L 531 14 L 496 -86 L 509 -86 C 624 -86 682 -138 682 -242 C 682 -330 661 -395 620 -436 C 578 -477 508 -498 410 -498 Z" unicode="Ç" />
<glyph horiz-adv-x="1116" d="M 254 1518 L 1165 1518 L 1114 1225 L 516 1225 L 463 922 L 1032 922 L 981 631 L 412 631 L 350 287 L 948 287 L 899 0 L -14 0 L 254 1518 Z M 383 1971 L 715 1971 L 867 1596 L 613 1596 L 383 1971 Z" unicode="È" />
<glyph horiz-adv-x="1116" d="M 809 1971 L 1151 1971 L 787 1596 L 523 1596 L 809 1971 Z M 254 1518 L 1165 1518 L 1114 1225 L 516 1225 L 463 922 L 1032 922 L 981 631 L 412 631 L 350 287 L 948 287 L 899 0 L -14 0 L 254 1518 Z" unicode="É" />
<glyph horiz-adv-x="1116" d="M 629 1971 L 914 1971 L 1071 1596 L 832 1596 L 735 1758 L 584 1596 L 338 1596 L 629 1971 Z M 254 1518 L 1165 1518 L 1114 1225 L 516 1225 L 463 922 L 1032 922 L 981 631 L 412 631 L 350 287 L 948 287 L 899 0 L -14 0 L 254 1518 Z" unicode="Ê" />
<glyph horiz-adv-x="1116" d="M 416 1870 L 690 1870 L 641 1596 L 369 1596 L 416 1870 Z M 817 1870 L 1092 1870 L 1043 1596 L 768 1596 L 817 1870 Z M 254 1518 L 1165 1518 L 1114 1225 L 516 1225 L 463 922 L 1032 922 L 981 631 L 412 631 L 350 287 L 948 287 L 899 0 L -14 0 L 254 1518 Z" unicode="Ë" />
<glyph horiz-adv-x="594" d="M 90 1972 L 422 1972 L 557 1597 L 303 1597 L 90 1972 Z M 270 1518 L 592 1518 L 324 0 L 2 0 L 270 1518 Z" unicode="Ì" />
<glyph horiz-adv-x="594" d="M 547 1972 L 889 1972 L 569 1597 L 305 1597 L 547 1972 Z M 270 1518 L 592 1518 L 324 0 L 2 0 L 270 1518 Z" unicode="Í" />
<glyph horiz-adv-x="594" d="M 270 1518 L 592 1518 L 324 0 L 2 0 L 270 1518 Z M 368 1971 L 653 1971 L 810 1596 L 571 1596 L 474 1758 L 323 1596 L 77 1596 L 368 1971 Z" unicode="Î" />
<glyph horiz-adv-x="594" d="M 270 1518 L 592 1518 L 324 0 L 2 0 L 270 1518 Z M 155 1870 L 429 1870 L 380 1596 L 108 1596 L 155 1870 Z M 556 1870 L 831 1870 L 782 1596 L 507 1596 L 556 1870 Z" unicode="Ï" />
<glyph horiz-adv-x="1290" d="M 25 895 L 144 895 L 254 1518 L 668 1518 C 880 1518 1033 1478 1127 1398 C 1221 1318 1268 1190 1268 1014 C 1268 904 1250 770 1216 612 C 1182 454 1137 331 1081 243 C 1025 155 954 93 867 56 C 779 18 661 0 512 0 L -14 0 L 98 635 L -20 635 L 25 895 Z M 559 279 C 634 279 692 292 732 320 C 772 347 805 392 833 454 C 861 516 885 601 905 711 C 925 821 936 907 936 971 C 936 1063 915 1129 873 1167 C 831 1205 756 1225 649 1225 L 522 1225 L 463 895 L 659 895 L 614 635 L 417 635 L 354 279 L 559 279 Z" unicode="Ð" />
<glyph horiz-adv-x="1354" d="M 254 1518 L 592 1518 L 907 641 L 1065 1518 L 1372 1518 L 1104 0 L 807 0 L 457 946 L 289 0 L -14 0 L 254 1518 Z M 400 1708 C 490 1851 587 1923 693 1923 C 724 1923 753 1918 779 1909 C 805 1900 830 1890 853 1880 C 875 1869 896 1859 916 1850 C 936 1841 955 1837 973 1837 C 997 1837 1019 1844 1041 1860 C 1062 1876 1085 1900 1110 1934 L 1297 1809 C 1211 1664 1118 1592 1016 1592 C 984 1592 955 1596 928 1605 C 900 1614 874 1624 850 1635 C 826 1645 803 1655 781 1664 C 759 1673 739 1678 721 1678 C 699 1678 679 1671 659 1658 C 639 1644 616 1619 588 1583 L 400 1708 Z" unicode="Ñ" />
<glyph horiz-adv-x="1343" d="M 588 -18 C 401 -18 260 26 166 114 C 72 202 25 338 25 520 C 25 630 41 759 74 909 C 107 1058 153 1178 212 1269 C 271 1360 344 1427 432 1471 C 519 1514 623 1536 743 1536 C 933 1536 1077 1491 1173 1403 C 1269 1315 1317 1178 1317 993 C 1317 871 1300 737 1266 591 C 1232 445 1185 328 1126 240 C 1066 152 992 87 902 45 C 812 3 708 -18 588 -18 Z M 602 266 C 668 266 723 278 767 303 C 810 328 846 367 874 419 C 902 471 927 555 951 671 C 975 787 987 885 987 963 C 987 1055 966 1122 926 1164 C 886 1206 824 1227 741 1227 C 670 1227 612 1212 566 1183 C 520 1154 483 1110 455 1050 C 426 990 401 900 381 779 C 360 658 350 574 350 528 C 350 436 370 370 412 328 C 454 286 517 266 602 266 Z M 495 1971 L 827 1971 L 979 1596 L 725 1596 L 495 1971 Z" unicode="Ò" />
<glyph horiz-adv-x="1343" d="M 921 1971 L 1263 1971 L 899 1596 L 635 1596 L 921 1971 Z M 588 -18 C 401 -18 260 26 166 114 C 72 202 25 338 25 520 C 25 630 41 759 74 909 C 107 1058 153 1178 212 1269 C 271 1360 344 1427 432 1471 C 519 1514 623 1536 743 1536 C 933 1536 1077 1491 1173 1403 C 1269 1315 1317 1178 1317 993 C 1317 871 1300 737 1266 591 C 1232 445 1185 328 1126 240 C 1066 152 992 87 902 45 C 812 3 708 -18 588 -18 Z M 602 266 C 668 266 723 278 767 303 C 810 328 846 367 874 419 C 902 471 927 555 951 671 C 975 787 987 885 987 963 C 987 1055 966 1122 926 1164 C 886 1206 824 1227 741 1227 C 670 1227 612 1212 566 1183 C 520 1154 483 1110 455 1050 C 426 990 401 900 381 779 C 360 658 350 574 350 528 C 350 436 370 370 412 328 C 454 286 517 266 602 266 Z" unicode="Ó" />
<glyph horiz-adv-x="1343" d="M 741 1971 L 1026 1971 L 1183 1596 L 944 1596 L 847 1758 L 696 1596 L 450 1596 L 741 1971 Z M 588 -18 C 401 -18 260 26 166 114 C 72 202 25 338 25 520 C 25 630 41 759 74 909 C 107 1058 153 1178 212 1269 C 271 1360 344 1427 432 1471 C 519 1514 623 1536 743 1536 C 933 1536 1077 1491 1173 1403 C 1269 1315 1317 1178 1317 993 C 1317 871 1300 737 1266 591 C 1232 445 1185 328 1126 240 C 1066 152 992 87 902 45 C 812 3 708 -18 588 -18 Z M 602 266 C 668 266 723 278 767 303 C 810 328 846 367 874 419 C 902 471 927 555 951 671 C 975 787 987 885 987 963 C 987 1055 966 1122 926 1164 C 886 1206 824 1227 741 1227 C 670 1227 612 1212 566 1183 C 520 1154 483 1110 455 1050 C 426 990 401 900 381 779 C 360 658 350 574 350 528 C 350 436 370 370 412 328 C 454 286 517 266 602 266 Z" unicode="Ô" />
<glyph horiz-adv-x="1343" d="M 588 -18 C 401 -18 260 26 166 114 C 72 202 25 338 25 520 C 25 630 41 759 74 909 C 107 1058 153 1178 212 1269 C 271 1360 344 1427 432 1471 C 519 1514 623 1536 743 1536 C 933 1536 1077 1491 1173 1403 C 1269 1315 1317 1178 1317 993 C 1317 871 1300 737 1266 591 C 1232 445 1185 328 1126 240 C 1066 152 992 87 902 45 C 812 3 708 -18 588 -18 Z M 602 266 C 668 266 723 278 767 303 C 810 328 846 367 874 419 C 902 471 927 555 951 671 C 975 787 987 885 987 963 C 987 1055 966 1122 926 1164 C 886 1206 824 1227 741 1227 C 670 1227 612 1212 566 1183 C 520 1154 483 1110 455 1050 C 426 990 401 900 381 779 C 360 658 350 574 350 528 C 350 436 370 370 412 328 C 454 286 517 266 602 266 Z M 393 1708 C 483 1851 580 1923 686 1923 C 717 1923 746 1918 772 1909 C 798 1900 823 1890 846 1880 C 868 1869 889 1859 909 1850 C 929 1841 948 1837 966 1837 C 990 1837 1012 1844 1034 1860 C 1055 1876 1078 1900 1103 1934 L 1290 1809 C 1204 1664 1111 1592 1009 1592 C 977 1592 948 1596 921 1605 C 893 1614 867 1624 843 1635 C 819 1645 796 1655 774 1664 C 752 1673 732 1678 714 1678 C 692 1678 672 1671 652 1658 C 632 1644 609 1619 581 1583 L 393 1708 Z" unicode="Õ" />
<glyph horiz-adv-x="1343" d="M 528 1870 L 802 1870 L 753 1596 L 481 1596 L 528 1870 Z M 929 1870 L 1204 1870 L 1155 1596 L 880 1596 L 929 1870 Z M 588 -18 C 401 -18 260 26 166 114 C 72 202 25 338 25 520 C 25 630 41 759 74 909 C 107 1058 153 1178 212 1269 C 271 1360 344 1427 432 1471 C 519 1514 623 1536 743 1536 C 933 1536 1077 1491 1173 1403 C 1269 1315 1317 1178 1317 993 C 1317 871 1300 737 1266 591 C 1232 445 1185 328 1126 240 C 1066 152 992 87 902 45 C 812 3 708 -18 588 -18 Z M 602 266 C 668 266 723 278 767 303 C 810 328 846 367 874 419 C 902 471 927 555 951 671 C 975 787 987 885 987 963 C 987 1055 966 1122 926 1164 C 886 1206 824 1227 741 1227 C 670 1227 612 1212 566 1183 C 520 1154 483 1110 455 1050 C 426 990 401 900 381 779 C 360 658 350 574 350 528 C 350 436 370 370 412 328 C 454 286 517 266 602 266 Z" unicode="Ö" />
<glyph horiz-adv-x="1247" d="M 129 467 L 426 721 L 219 973 L 438 1165 L 645 913 L 942 1165 L 1104 973 L 805 721 L 1014 471 L 797 276 L 588 528 L 289 274 L 129 467 Z" unicode="×" />
<glyph horiz-adv-x="1343" d="M 588 -18 C 488 -18 404 -6 336 16 L 272 -84 L -2 -84 L 143 138 L 141 140 C 63 229 25 356 25 520 C 25 630 41 759 74 909 C 107 1058 153 1178 212 1269 C 271 1360 344 1427 432 1471 C 519 1514 623 1536 743 1536 C 847 1536 934 1523 1006 1499 L 1073 1604 L 1348 1604 L 1198 1377 L 1200 1376 C 1278 1287 1317 1159 1317 993 C 1317 871 1300 737 1266 591 C 1232 445 1185 328 1126 240 C 1066 152 992 87 902 45 C 812 3 708 -18 588 -18 Z M 600 252 C 668 252 725 264 770 290 C 815 316 852 355 881 409 C 910 463 936 547 960 663 C 983 778 995 881 995 971 C 995 1005 992 1036 986 1065 L 486 267 C 517 257 555 252 600 252 Z M 743 1241 C 672 1241 613 1227 567 1199 C 521 1171 483 1129 454 1072 C 424 1015 398 926 376 805 C 353 684 342 589 342 520 C 342 491 344 464 348 440 L 844 1229 C 815 1237 781 1241 743 1241 Z" unicode="Ø" />
<glyph horiz-adv-x="1343" d="M 602 -23 C 418 -23 282 10 192 76 C 102 142 57 246 57 389 C 57 441 62 498 74 559 L 244 1518 L 565 1518 L 397 567 C 389 521 385 480 385 444 C 385 380 402 334 437 307 C 472 279 532 266 616 266 C 698 266 760 286 800 328 C 840 370 869 447 889 559 L 1059 1518 L 1370 1518 L 1194 508 C 1161 318 1098 182 1004 100 C 910 18 776 -23 602 -23 Z M 495 1971 L 827 1971 L 979 1596 L 725 1596 L 495 1971 Z" unicode="Ù" />
<glyph horiz-adv-x="1343" d="M 921 1971 L 1263 1971 L 899 1596 L 635 1596 L 921 1971 Z M 602 -23 C 418 -23 282 10 192 76 C 102 142 57 246 57 389 C 57 441 62 498 74 559 L 244 1518 L 565 1518 L 397 567 C 389 521 385 480 385 444 C 385 380 402 334 437 307 C 472 279 532 266 616 266 C 698 266 760 286 800 328 C 840 370 869 447 889 559 L 1059 1518 L 1370 1518 L 1194 508 C 1161 318 1098 182 1004 100 C 910 18 776 -23 602 -23 Z" unicode="Ú" />
<glyph horiz-adv-x="1343" d="M 741 1971 L 1026 1971 L 1183 1596 L 944 1596 L 847 1758 L 696 1596 L 450 1596 L 741 1971 Z M 602 -23 C 418 -23 282 10 192 76 C 102 142 57 246 57 389 C 57 441 62 498 74 559 L 244 1518 L 565 1518 L 397 567 C 389 521 385 480 385 444 C 385 380 402 334 437 307 C 472 279 532 266 616 266 C 698 266 760 286 800 328 C 840 370 869 447 889 559 L 1059 1518 L 1370 1518 L 1194 508 C 1161 318 1098 182 1004 100 C 910 18 776 -23 602 -23 Z" unicode="Û" />
<glyph horiz-adv-x="1343" d="M 528 1870 L 802 1870 L 753 1596 L 481 1596 L 528 1870 Z M 929 1870 L 1204 1870 L 1155 1596 L 880 1596 L 929 1870 Z M 602 -23 C 418 -23 282 10 192 76 C 102 142 57 246 57 389 C 57 441 62 498 74 559 L 244 1518 L 565 1518 L 397 567 C 389 521 385 480 385 444 C 385 380 402 334 437 307 C 472 279 532 266 616 266 C 698 266 760 286 800 328 C 840 370 869 447 889 559 L 1059 1518 L 1370 1518 L 1194 508 C 1161 318 1098 182 1004 100 C 910 18 776 -23 602 -23 Z" unicode="Ü" />
<glyph horiz-adv-x="1257" d="M 135 1518 L 473 1518 L 647 872 L 1053 1518 L 1391 1518 L 744 520 L 653 0 L 334 0 L 426 522 L 135 1518 Z M 878 1971 L 1220 1971 L 856 1596 L 592 1596 L 878 1971 Z" unicode="Ý" />
<glyph horiz-adv-x="1221" d="M 254 1518 L 569 1518 L 528 1294 L 678 1294 C 860 1294 992 1264 1076 1206 C 1160 1147 1202 1051 1202 918 C 1202 839 1190 754 1166 663 C 1142 572 1108 500 1066 447 C 1023 394 968 355 902 329 C 836 303 755 291 659 291 L 352 291 L 301 0 L -14 0 L 254 1518 Z M 655 553 C 712 553 756 565 787 590 C 817 614 840 655 856 713 C 871 770 879 818 879 858 C 879 910 863 950 831 976 C 799 1002 744 1016 668 1016 L 481 1016 L 399 553 L 655 553 Z" unicode="Þ" />
<glyph horiz-adv-x="1149" d="M 672 1595 C 822 1595 932 1568 1004 1516 C 1076 1463 1112 1382 1112 1272 C 1112 1226 1103 1164 1085 1084 C 1067 1004 1045 945 1020 909 C 994 873 959 847 915 831 C 967 815 1005 785 1027 739 C 1049 693 1061 630 1061 551 C 1061 447 1044 349 1011 256 C 978 162 927 96 858 58 C 789 19 680 0 532 0 L 385 0 L 434 276 L 528 276 C 592 276 638 285 668 305 C 698 324 720 359 734 409 C 748 459 756 501 756 537 C 756 586 740 621 708 643 C 676 665 621 676 545 676 L 524 676 L 567 920 L 621 920 C 669 920 704 930 728 951 C 751 972 768 1008 779 1059 C 789 1109 795 1148 795 1174 C 795 1218 784 1249 762 1269 C 740 1288 702 1298 649 1298 C 595 1298 554 1283 526 1255 C 497 1227 477 1181 467 1118 L 213 -324 L -92 -324 L 172 1180 C 196 1318 249 1422 331 1491 C 413 1560 526 1595 672 1595 Z" unicode="ß" />
<glyph horiz-adv-x="1092" d="M 317 -14 C 197 -14 108 9 51 57 C -6 105 -35 178 -35 276 C -35 392 -16 486 21 558 C 59 630 116 683 194 717 C 272 751 379 768 516 768 L 659 768 L 663 816 C 663 848 651 871 628 885 C 605 898 568 905 516 905 C 406 905 318 892 252 866 L 166 1124 C 272 1165 405 1186 563 1186 C 707 1186 811 1164 876 1122 C 940 1080 973 1009 973 910 C 973 866 967 813 956 750 L 889 358 L 883 309 C 883 293 887 283 897 277 C 906 271 924 268 952 268 L 905 0 C 883 -2 851 -4 809 -4 C 742 -4 695 2 667 16 C 639 29 621 53 612 88 C 576 54 532 28 480 11 C 428 -5 373 -14 317 -14 Z M 270 348 C 270 310 281 283 303 266 C 325 248 362 240 414 240 C 470 240 511 254 539 284 C 567 314 587 361 600 426 L 621 549 L 532 549 C 432 549 363 534 326 505 C 288 475 270 423 270 348 Z M 313 1645 L 645 1645 L 797 1270 L 543 1270 L 313 1645 Z" unicode="à" />
<glyph horiz-adv-x="1092" d="M 317 -14 C 197 -14 108 9 51 57 C -6 105 -35 178 -35 276 C -35 392 -16 486 21 558 C 59 630 116 683 194 717 C 272 751 379 768 516 768 L 659 768 L 663 816 C 663 848 651 871 628 885 C 605 898 568 905 516 905 C 406 905 318 892 252 866 L 166 1124 C 272 1165 405 1186 563 1186 C 707 1186 811 1164 876 1122 C 940 1080 973 1009 973 910 C 973 866 967 813 956 750 L 889 358 L 883 309 C 883 293 887 283 897 277 C 906 271 924 268 952 268 L 905 0 C 883 -2 851 -4 809 -4 C 742 -4 695 2 667 16 C 639 29 621 53 612 88 C 576 54 532 28 480 11 C 428 -5 373 -14 317 -14 Z M 270 348 C 270 310 281 283 303 266 C 325 248 362 240 414 240 C 470 240 511 254 539 284 C 567 314 587 361 600 426 L 621 549 L 532 549 C 432 549 363 534 326 505 C 288 475 270 423 270 348 Z M 739 1645 L 1081 1645 L 717 1270 L 453 1270 L 739 1645 Z" unicode="á" />
<glyph horiz-adv-x="1092" d="M 317 -14 C 197 -14 108 9 51 57 C -6 105 -35 178 -35 276 C -35 392 -16 486 21 558 C 59 630 116 683 194 717 C 272 751 379 768 516 768 L 659 768 L 663 816 C 663 848 651 871 628 885 C 605 898 568 905 516 905 C 406 905 318 892 252 866 L 166 1124 C 272 1165 405 1186 563 1186 C 707 1186 811 1164 876 1122 C 940 1080 973 1009 973 910 C 973 866 967 813 956 750 L 889 358 L 883 309 C 883 293 887 283 897 277 C 906 271 924 268 952 268 L 905 0 C 883 -2 851 -4 809 -4 C 742 -4 695 2 667 16 C 639 29 621 53 612 88 C 576 54 532 28 480 11 C 428 -5 373 -14 317 -14 Z M 270 348 C 270 310 281 283 303 266 C 325 248 362 240 414 240 C 470 240 511 254 539 284 C 567 314 587 361 600 426 L 621 549 L 532 549 C 432 549 363 534 326 505 C 288 475 270 423 270 348 Z M 559 1645 L 844 1645 L 1001 1270 L 762 1270 L 665 1432 L 514 1270 L 268 1270 L 559 1645 Z" unicode="â" />
<glyph horiz-adv-x="1092" d="M 317 -14 C 197 -14 108 9 51 57 C -6 105 -35 178 -35 276 C -35 392 -16 486 21 558 C 59 630 116 683 194 717 C 272 751 379 768 516 768 L 659 768 L 663 816 C 663 848 651 871 628 885 C 605 898 568 905 516 905 C 406 905 318 892 252 866 L 166 1124 C 272 1165 405 1186 563 1186 C 707 1186 811 1164 876 1122 C 940 1080 973 1009 973 910 C 973 866 967 813 956 750 L 889 358 L 883 309 C 883 293 887 283 897 277 C 906 271 924 268 952 268 L 905 0 C 883 -2 851 -4 809 -4 C 742 -4 695 2 667 16 C 639 29 621 53 612 88 C 576 54 532 28 480 11 C 428 -5 373 -14 317 -14 Z M 270 348 C 270 310 281 283 303 266 C 325 248 362 240 414 240 C 470 240 511 254 539 284 C 567 314 587 361 600 426 L 621 549 L 532 549 C 432 549 363 534 326 505 C 288 475 270 423 270 348 Z M 211 1382 C 301 1525 398 1597 504 1597 C 535 1597 564 1592 590 1583 C 616 1574 641 1564 664 1554 C 686 1543 707 1533 727 1524 C 747 1515 766 1511 784 1511 C 808 1511 830 1518 852 1534 C 873 1550 896 1574 921 1608 L 1108 1483 C 1022 1338 929 1266 827 1266 C 795 1266 766 1270 739 1279 C 711 1288 685 1298 661 1309 C 637 1319 614 1329 592 1338 C 570 1347 550 1352 532 1352 C 510 1352 490 1345 470 1332 C 450 1318 427 1293 399 1257 L 211 1382 Z" unicode="ã" />
<glyph horiz-adv-x="1092" d="M 317 -14 C 197 -14 108 9 51 57 C -6 105 -35 178 -35 276 C -35 392 -16 486 21 558 C 59 630 116 683 194 717 C 272 751 379 768 516 768 L 659 768 L 663 816 C 663 848 651 871 628 885 C 605 898 568 905 516 905 C 406 905 318 892 252 866 L 166 1124 C 272 1165 405 1186 563 1186 C 707 1186 811 1164 876 1122 C 940 1080 973 1009 973 910 C 973 866 967 813 956 750 L 889 358 L 883 309 C 883 293 887 283 897 277 C 906 271 924 268 952 268 L 905 0 C 883 -2 851 -4 809 -4 C 742 -4 695 2 667 16 C 639 29 621 53 612 88 C 576 54 532 28 480 11 C 428 -5 373 -14 317 -14 Z M 270 348 C 270 310 281 283 303 266 C 325 248 362 240 414 240 C 470 240 511 254 539 284 C 567 314 587 361 600 426 L 621 549 L 532 549 C 432 549 363 534 326 505 C 288 475 270 423 270 348 Z M 346 1544 L 620 1544 L 571 1270 L 299 1270 L 346 1544 Z M 747 1544 L 1022 1544 L 973 1270 L 698 1270 L 747 1544 Z" unicode="ä" />
<glyph horiz-adv-x="1092" d="M 317 -14 C 197 -14 108 9 51 57 C -6 105 -35 178 -35 276 C -35 392 -16 486 21 558 C 59 630 116 683 194 717 C 272 751 379 768 516 768 L 659 768 L 663 816 C 663 848 651 871 628 885 C 605 898 568 905 516 905 C 406 905 318 892 252 866 L 166 1124 C 272 1165 405 1186 563 1186 C 707 1186 811 1164 876 1122 C 940 1080 973 1009 973 910 C 973 866 967 813 956 750 L 889 358 L 883 309 C 883 293 887 283 897 277 C 906 271 924 268 952 268 L 905 0 C 883 -2 851 -4 809 -4 C 742 -4 695 2 667 16 C 639 29 621 53 612 88 C 576 54 532 28 480 11 C 428 -5 373 -14 317 -14 Z M 270 348 C 270 310 281 283 303 266 C 325 248 362 240 414 240 C 470 240 511 254 539 284 C 567 314 587 361 600 426 L 621 549 L 532 549 C 432 549 363 534 326 505 C 288 475 270 423 270 348 Z M 665 1399 C 745 1399 786 1455 786 1567 C 786 1625 756 1655 698 1655 C 658 1655 627 1640 606 1610 C 585 1580 575 1540 575 1489 C 575 1429 605 1399 665 1399 Z M 655 1251 C 579 1251 521 1269 481 1306 C 441 1343 422 1397 422 1468 C 422 1574 447 1656 498 1715 C 549 1774 620 1804 711 1804 C 786 1804 843 1784 882 1746 C 920 1708 940 1653 940 1581 C 940 1480 914 1400 863 1340 C 812 1280 743 1251 655 1251 Z" unicode="å" />
<glyph horiz-adv-x="1628" d="M 1053 -14 C 868 -14 745 31 685 122 C 631 72 576 36 520 16 C 464 -3 397 -14 317 -14 C 197 -14 108 9 51 57 C -6 105 -35 178 -35 276 C -35 391 -15 485 22 557 C 60 629 118 682 196 716 C 273 750 378 768 512 768 L 659 768 L 663 816 C 663 848 651 871 628 885 C 605 898 568 905 516 905 C 406 905 318 892 252 866 L 166 1124 C 272 1165 405 1186 563 1186 C 642 1186 707 1179 759 1167 C 811 1155 852 1135 883 1108 C 953 1157 1046 1182 1161 1182 C 1301 1182 1404 1156 1469 1105 C 1534 1054 1567 969 1567 850 C 1567 776 1548 640 1511 442 L 894 442 L 893 408 C 893 350 907 310 937 286 C 967 262 1018 250 1090 250 C 1190 250 1281 265 1362 297 L 1442 57 C 1339 9 1209 -14 1053 -14 Z M 270 342 C 270 308 281 282 303 265 C 325 248 362 240 414 240 C 470 240 512 254 539 283 C 566 311 586 359 600 426 L 621 549 L 535 549 C 433 549 364 534 326 504 C 288 474 270 420 270 342 Z M 1274 682 C 1283 742 1288 779 1288 795 C 1288 839 1276 869 1254 886 C 1231 902 1194 911 1143 911 C 1099 911 1065 903 1039 889 C 1013 874 991 851 975 820 C 958 788 943 742 931 682 L 1274 682 Z" unicode="æ" />
<glyph horiz-adv-x="893" d="M 442 -16 C 292 -16 181 16 109 82 C 36 147 0 250 0 391 C 0 486 13 592 39 709 C 65 826 101 918 145 985 C 189 1052 246 1102 314 1134 C 382 1166 466 1182 567 1182 C 637 1182 699 1176 755 1164 C 811 1152 863 1133 913 1106 L 737 850 C 691 878 633 893 563 893 C 504 893 459 875 427 839 C 395 803 369 741 349 651 C 329 561 319 486 319 424 C 319 364 332 321 359 293 C 386 265 432 252 498 252 C 548 252 605 263 670 285 L 748 43 C 655 3 553 -16 442 -16 Z M 291 -498 C 189 -498 98 -481 19 -449 L 90 -291 C 151 -318 210 -332 268 -332 C 304 -332 329 -325 344 -311 C 359 -297 367 -274 367 -244 C 367 -206 339 -186 285 -185 L 230 -186 L 180 -147 L 244 14 L 412 14 L 377 -86 L 390 -86 C 505 -86 563 -138 563 -242 C 563 -330 542 -395 501 -436 C 459 -477 389 -498 291 -498 Z" unicode="ç" />
<glyph horiz-adv-x="1032" d="M 457 -14 C 299 -14 183 17 109 81 C 35 145 -2 246 -2 385 C -2 473 10 576 36 692 C 61 808 96 902 142 973 C 188 1043 245 1096 315 1130 C 384 1164 467 1182 563 1182 C 704 1182 807 1156 873 1104 C 938 1052 971 968 971 850 C 971 764 951 628 913 442 L 296 442 L 295 408 C 295 350 309 310 339 286 C 369 262 420 250 492 250 C 583 250 674 265 766 297 L 844 55 C 739 9 610 -14 457 -14 Z M 678 682 C 686 724 690 762 690 795 C 690 839 678 869 656 886 C 633 902 596 911 545 911 C 503 911 469 904 443 890 C 417 876 396 855 380 826 C 364 797 348 749 334 682 L 678 682 Z M 280 1645 L 612 1645 L 764 1270 L 510 1270 L 280 1645 Z" unicode="è" />
<glyph horiz-adv-x="1032" d="M 706 1645 L 1048 1645 L 684 1270 L 420 1270 L 706 1645 Z M 457 -14 C 299 -14 183 17 109 81 C 35 145 -2 246 -2 385 C -2 473 10 576 36 692 C 61 808 96 902 142 973 C 188 1043 245 1096 315 1130 C 384 1164 467 1182 563 1182 C 704 1182 807 1156 873 1104 C 938 1052 971 968 971 850 C 971 764 951 628 913 442 L 296 442 L 295 408 C 295 350 309 310 339 286 C 369 262 420 250 492 250 C 583 250 674 265 766 297 L 844 55 C 739 9 610 -14 457 -14 Z M 678 682 C 686 724 690 762 690 795 C 690 839 678 869 656 886 C 633 902 596 911 545 911 C 503 911 469 904 443 890 C 417 876 396 855 380 826 C 364 797 348 749 334 682 L 678 682 Z" unicode="é" />
<glyph horiz-adv-x="1032" d="M 526 1645 L 811 1645 L 968 1270 L 729 1270 L 632 1432 L 481 1270 L 235 1270 L 526 1645 Z M 457 -14 C 299 -14 183 17 109 81 C 35 145 -2 246 -2 385 C -2 473 10 576 36 692 C 61 808 96 902 142 973 C 188 1043 245 1096 315 1130 C 384 1164 467 1182 563 1182 C 704 1182 807 1156 873 1104 C 938 1052 971 968 971 850 C 971 764 951 628 913 442 L 296 442 L 295 408 C 295 350 309 310 339 286 C 369 262 420 250 492 250 C 583 250 674 265 766 297 L 844 55 C 739 9 610 -14 457 -14 Z M 678 682 C 686 724 690 762 690 795 C 690 839 678 869 656 886 C 633 902 596 911 545 911 C 503 911 469 904 443 890 C 417 876 396 855 380 826 C 364 797 348 749 334 682 L 678 682 Z" unicode="ê" />
<glyph horiz-adv-x="1032" d="M 313 1544 L 587 1544 L 538 1270 L 266 1270 L 313 1544 Z M 714 1544 L 989 1544 L 940 1270 L 665 1270 L 714 1544 Z M 457 -14 C 299 -14 183 17 109 81 C 35 145 -2 246 -2 385 C -2 473 10 576 36 692 C 61 808 96 902 142 973 C 188 1043 245 1096 315 1130 C 384 1164 467 1182 563 1182 C 704 1182 807 1156 873 1104 C 938 1052 971 968 971 850 C 971 764 951 628 913 442 L 296 442 L 295 408 C 295 350 309 310 339 286 C 369 262 420 250 492 250 C 583 250 674 265 766 297 L 844 55 C 739 9 610 -14 457 -14 Z M 678 682 C 686 724 690 762 690 795 C 690 839 678 869 656 886 C 633 902 596 911 545 911 C 503 911 469 904 443 890 C 417 876 396 855 380 826 C 364 797 348 749 334 682 L 678 682 Z" unicode="ë" />
<glyph horiz-adv-x="524" d="M 59 1645 L 391 1645 L 461 1270 L 207 1270 L 59 1645 Z M 178 1161 L 487 1161 L 283 0 L -27 0 L 178 1161 Z" unicode="ì" />
<glyph horiz-adv-x="524" d="M 424 1645 L 766 1645 L 477 1270 L 213 1270 L 424 1645 Z M 178 1161 L 487 1161 L 283 0 L -27 0 L 178 1161 Z" unicode="í" />
<glyph horiz-adv-x="524" d="M 276 1645 L 559 1645 L 680 1270 L 457 1270 L 381 1432 L 250 1270 L 20 1270 L 276 1645 Z M 178 1161 L 487 1161 L 283 0 L -27 0 L 178 1161 Z" unicode="î" />
<glyph horiz-adv-x="524" d="M 96 1544 L 338 1544 L 291 1270 L 47 1270 L 96 1544 Z M 461 1544 L 702 1544 L 655 1270 L 412 1270 L 461 1544 Z M 178 1161 L 487 1161 L 283 0 L -27 0 L 178 1161 Z" unicode="ï" />
<glyph horiz-adv-x="1108" d="M 662 1376 C 644 1412 624 1445 602 1473 L 866 1610 C 904 1562 936 1505 964 1437 L 1190 1483 L 1153 1276 L 1022 1249 C 1046 1142 1059 1027 1059 903 C 1059 791 1049 686 1030 590 C 1002 428 967 305 923 223 C 879 140 822 79 751 40 C 679 1 588 -18 477 -18 C 157 -18 -2 122 -2 403 C -2 539 18 661 58 768 C 98 875 155 956 230 1010 C 305 1064 396 1092 502 1092 C 564 1092 615 1085 657 1073 C 698 1061 731 1040 756 1010 C 754 1063 744 1123 728 1190 L 524 1149 L 561 1356 L 662 1376 Z M 489 252 C 529 252 562 260 588 276 C 614 292 635 317 652 349 C 668 381 684 434 698 508 C 712 582 719 636 719 672 C 719 730 705 771 677 796 C 649 821 607 834 553 834 C 509 834 472 825 444 808 C 416 790 393 764 376 728 C 359 692 344 638 332 564 C 319 490 313 440 313 416 C 313 357 327 315 356 290 C 384 264 429 252 489 252 Z" unicode="ð" />
<glyph horiz-adv-x="1126" d="M 418 1163 L 420 1081 C 450 1111 492 1135 547 1154 C 602 1172 667 1182 741 1182 C 844 1182 921 1159 972 1114 C 1022 1068 1048 998 1048 903 C 1048 859 1042 803 1030 733 L 901 0 L 592 0 L 711 682 C 719 730 724 765 724 787 C 724 824 713 850 691 865 C 669 879 634 887 586 887 C 528 887 485 871 456 840 C 427 809 404 747 387 655 L 274 0 L -37 0 L 166 1143 L 418 1163 Z M 227 1382 C 317 1525 414 1597 520 1597 C 551 1597 580 1592 606 1583 C 632 1574 657 1564 680 1554 C 702 1543 723 1533 743 1524 C 763 1515 782 1511 800 1511 C 824 1511 846 1518 868 1534 C 889 1550 912 1574 937 1608 L 1124 1483 C 1038 1338 945 1266 843 1266 C 811 1266 782 1270 755 1279 C 727 1288 701 1298 677 1309 C 653 1319 630 1329 608 1338 C 586 1347 566 1352 548 1352 C 526 1352 506 1345 486 1332 C 466 1318 443 1293 415 1257 L 227 1382 Z" unicode="ñ" />
<glyph horiz-adv-x="1104" d="M 457 -18 C 304 -18 190 16 115 85 C 39 153 2 260 2 406 C 2 503 15 608 43 720 C 71 832 108 921 154 987 C 200 1053 259 1102 330 1134 C 401 1166 487 1182 588 1182 C 740 1182 854 1147 929 1079 C 1004 1010 1042 904 1042 760 C 1042 664 1028 558 1000 442 C 972 326 936 236 891 172 C 845 107 787 59 717 28 C 646 -2 559 -18 457 -18 Z M 479 252 C 523 252 559 260 587 278 C 615 295 637 322 655 359 C 672 395 689 458 705 548 C 721 637 729 698 729 731 C 729 789 715 830 688 855 C 661 880 619 893 561 893 C 518 893 483 884 455 867 C 427 850 405 823 387 787 C 369 751 353 692 338 611 C 322 530 315 466 315 420 C 315 360 328 317 355 291 C 381 265 423 252 479 252 Z M 317 1645 L 649 1645 L 801 1270 L 547 1270 L 317 1645 Z" unicode="ò" />
<glyph horiz-adv-x="1104" d="M 743 1645 L 1085 1645 L 721 1270 L 457 1270 L 743 1645 Z M 457 -18 C 304 -18 190 16 115 85 C 39 153 2 260 2 406 C 2 503 15 608 43 720 C 71 832 108 921 154 987 C 200 1053 259 1102 330 1134 C 401 1166 487 1182 588 1182 C 740 1182 854 1147 929 1079 C 1004 1010 1042 904 1042 760 C 1042 664 1028 558 1000 442 C 972 326 936 236 891 172 C 845 107 787 59 717 28 C 646 -2 559 -18 457 -18 Z M 479 252 C 523 252 559 260 587 278 C 615 295 637 322 655 359 C 672 395 689 458 705 548 C 721 637 729 698 729 731 C 729 789 715 830 688 855 C 661 880 619 893 561 893 C 518 893 483 884 455 867 C 427 850 405 823 387 787 C 369 751 353 692 338 611 C 322 530 315 466 315 420 C 315 360 328 317 355 291 C 381 265 423 252 479 252 Z" unicode="ó" />
<glyph horiz-adv-x="1104" d="M 563 1645 L 848 1645 L 1005 1270 L 766 1270 L 669 1432 L 518 1270 L 272 1270 L 563 1645 Z M 457 -18 C 304 -18 190 16 115 85 C 39 153 2 260 2 406 C 2 503 15 608 43 720 C 71 832 108 921 154 987 C 200 1053 259 1102 330 1134 C 401 1166 487 1182 588 1182 C 740 1182 854 1147 929 1079 C 1004 1010 1042 904 1042 760 C 1042 664 1028 558 1000 442 C 972 326 936 236 891 172 C 845 107 787 59 717 28 C 646 -2 559 -18 457 -18 Z M 479 252 C 523 252 559 260 587 278 C 615 295 637 322 655 359 C 672 395 689 458 705 548 C 721 637 729 698 729 731 C 729 789 715 830 688 855 C 661 880 619 893 561 893 C 518 893 483 884 455 867 C 427 850 405 823 387 787 C 369 751 353 692 338 611 C 322 530 315 466 315 420 C 315 360 328 317 355 291 C 381 265 423 252 479 252 Z" unicode="ô" />
<glyph horiz-adv-x="1104" d="M 457 -18 C 304 -18 190 16 115 85 C 39 153 2 260 2 406 C 2 503 15 608 43 720 C 71 832 108 921 154 987 C 200 1053 259 1102 330 1134 C 401 1166 487 1182 588 1182 C 740 1182 854 1147 929 1079 C 1004 1010 1042 904 1042 760 C 1042 664 1028 558 1000 442 C 972 326 936 236 891 172 C 845 107 787 59 717 28 C 646 -2 559 -18 457 -18 Z M 479 252 C 523 252 559 260 587 278 C 615 295 637 322 655 359 C 672 395 689 458 705 548 C 721 637 729 698 729 731 C 729 789 715 830 688 855 C 661 880 619 893 561 893 C 518 893 483 884 455 867 C 427 850 405 823 387 787 C 369 751 353 692 338 611 C 322 530 315 466 315 420 C 315 360 328 317 355 291 C 381 265 423 252 479 252 Z M 215 1382 C 305 1525 402 1597 508 1597 C 539 1597 568 1592 594 1583 C 620 1574 645 1564 668 1554 C 690 1543 711 1533 731 1524 C 751 1515 770 1511 788 1511 C 812 1511 834 1518 856 1534 C 877 1550 900 1574 925 1608 L 1112 1483 C 1026 1338 933 1266 831 1266 C 799 1266 770 1270 743 1279 C 715 1288 689 1298 665 1309 C 641 1319 618 1329 596 1338 C 574 1347 554 1352 536 1352 C 514 1352 494 1345 474 1332 C 454 1318 431 1293 403 1257 L 215 1382 Z" unicode="õ" />
<glyph horiz-adv-x="1104" d="M 350 1544 L 624 1544 L 575 1270 L 303 1270 L 350 1544 Z M 751 1544 L 1026 1544 L 977 1270 L 702 1270 L 751 1544 Z M 457 -18 C 304 -18 190 16 115 85 C 39 153 2 260 2 406 C 2 503 15 608 43 720 C 71 832 108 921 154 987 C 200 1053 259 1102 330 1134 C 401 1166 487 1182 588 1182 C 740 1182 854 1147 929 1079 C 1004 1010 1042 904 1042 760 C 1042 664 1028 558 1000 442 C 972 326 936 236 891 172 C 845 107 787 59 717 28 C 646 -2 559 -18 457 -18 Z M 479 252 C 523 252 559 260 587 278 C 615 295 637 322 655 359 C 672 395 689 458 705 548 C 721 637 729 698 729 731 C 729 789 715 830 688 855 C 661 880 619 893 561 893 C 518 893 483 884 455 867 C 427 850 405 823 387 787 C 369 751 353 692 338 611 C 322 530 315 466 315 420 C 315 360 328 317 355 291 C 381 265 423 252 479 252 Z" unicode="ö" />
<glyph horiz-adv-x="1247" d="M 418 459 L 723 459 L 676 193 L 369 193 L 418 459 Z M 172 864 L 1112 864 L 1061 580 L 123 580 L 172 864 Z M 555 1249 L 860 1249 L 815 983 L 510 983 L 555 1249 Z" unicode="÷" />
<glyph horiz-adv-x="1104" d="M 457 -18 C 374 -18 304 -8 247 10 L 176 -90 L -70 -90 L 81 121 C 28 187 2 282 2 406 C 2 503 15 608 43 720 C 71 832 108 921 154 987 C 200 1053 259 1102 330 1134 C 401 1166 487 1182 588 1182 C 674 1182 746 1171 804 1151 L 874 1249 L 1122 1249 L 968 1036 C 1017 969 1042 877 1042 760 C 1042 664 1028 558 1000 442 C 972 326 936 236 891 172 C 845 107 787 59 717 28 C 646 -2 559 -18 457 -18 Z M 481 244 C 525 244 562 252 590 269 C 618 285 640 311 658 347 C 676 383 693 444 710 532 C 726 619 735 684 737 726 L 407 253 C 427 247 452 244 481 244 Z M 563 903 C 490 903 436 876 402 823 C 367 769 338 660 316 494 L 311 426 L 636 895 C 616 900 591 903 563 903 Z" unicode="ø" />
<glyph horiz-adv-x="1106" d="M 463 -16 C 311 -16 200 9 131 60 C 61 110 27 193 27 309 C 27 369 33 438 47 516 L 162 1161 L 471 1161 L 356 512 C 344 445 339 399 339 375 C 339 332 349 302 371 284 C 393 266 427 258 473 258 C 509 258 537 262 559 271 C 581 279 598 293 611 311 C 624 329 634 353 641 382 C 648 411 656 446 664 487 L 780 1161 L 1085 1161 L 963 455 C 941 328 911 232 874 167 C 836 102 786 55 723 27 C 659 -1 573 -16 463 -16 Z M 319 1645 L 651 1645 L 803 1270 L 549 1270 L 319 1645 Z" unicode="ù" />
<glyph horiz-adv-x="1106" d="M 745 1645 L 1087 1645 L 723 1270 L 459 1270 L 745 1645 Z M 463 -16 C 311 -16 200 9 131 60 C 61 110 27 193 27 309 C 27 369 33 438 47 516 L 162 1161 L 471 1161 L 356 512 C 344 445 339 399 339 375 C 339 332 349 302 371 284 C 393 266 427 258 473 258 C 509 258 537 262 559 271 C 581 279 598 293 611 311 C 624 329 634 353 641 382 C 648 411 656 446 664 487 L 780 1161 L 1085 1161 L 963 455 C 941 328 911 232 874 167 C 836 102 786 55 723 27 C 659 -1 573 -16 463 -16 Z" unicode="ú" />
<glyph horiz-adv-x="1106" d="M 565 1645 L 850 1645 L 1007 1270 L 768 1270 L 671 1432 L 520 1270 L 274 1270 L 565 1645 Z M 463 -16 C 311 -16 200 9 131 60 C 61 110 27 193 27 309 C 27 369 33 438 47 516 L 162 1161 L 471 1161 L 356 512 C 344 445 339 399 339 375 C 339 332 349 302 371 284 C 393 266 427 258 473 258 C 509 258 537 262 559 271 C 581 279 598 293 611 311 C 624 329 634 353 641 382 C 648 411 656 446 664 487 L 780 1161 L 1085 1161 L 963 455 C 941 328 911 232 874 167 C 836 102 786 55 723 27 C 659 -1 573 -16 463 -16 Z" unicode="û" />
<glyph horiz-adv-x="1106" d="M 352 1544 L 626 1544 L 577 1270 L 305 1270 L 352 1544 Z M 753 1544 L 1028 1544 L 979 1270 L 704 1270 L 753 1544 Z M 463 -16 C 311 -16 200 9 131 60 C 61 110 27 193 27 309 C 27 369 33 438 47 516 L 162 1161 L 471 1161 L 356 512 C 344 445 339 399 339 375 C 339 332 349 302 371 284 C 393 266 427 258 473 258 C 509 258 537 262 559 271 C 581 279 598 293 611 311 C 624 329 634 353 641 382 C 648 411 656 446 664 487 L 780 1161 L 1085 1161 L 963 455 C 941 328 911 232 874 167 C 836 102 786 55 723 27 C 659 -1 573 -16 463 -16 Z" unicode="ü" />
<glyph horiz-adv-x="995" d="M 72 1161 L 395 1161 L 460 493 L 748 1161 L 1063 1161 L 457 -102 C 429 -159 400 -203 371 -235 C 341 -267 308 -289 272 -303 C 235 -317 180 -324 106 -324 L -51 -324 L -8 -76 L 111 -76 C 137 -76 157 -72 169 -65 C 181 -57 191 -45 199 -27 L 216 9 L 72 1161 Z M 691 1645 L 1033 1645 L 669 1270 L 405 1270 L 691 1645 Z" unicode="ý" />
<glyph horiz-adv-x="1139" d="M 242 1575 L 551 1575 L 465 1100 C 503 1130 544 1152 588 1164 C 632 1176 683 1182 741 1182 C 855 1182 940 1152 997 1094 C 1054 1036 1083 943 1083 815 C 1083 719 1069 608 1042 482 C 1015 356 983 259 946 192 C 908 124 862 73 806 38 C 750 3 682 -14 602 -14 C 524 -14 460 -6 411 8 C 362 22 322 49 291 88 L 217 -324 L -92 -324 L 242 1575 Z M 535 254 C 592 254 635 273 664 313 C 692 353 717 433 737 555 C 752 628 760 689 760 737 C 760 791 748 831 725 856 C 702 880 664 893 610 893 C 565 893 529 885 501 870 C 473 854 451 830 433 796 C 415 762 398 704 381 624 C 364 544 356 478 356 426 C 356 363 370 319 399 293 C 427 267 473 254 535 254 Z" unicode="þ" />
<glyph horiz-adv-x="995" d="M 72 1161 L 395 1161 L 460 493 L 748 1161 L 1063 1161 L 457 -102 C 429 -159 400 -203 371 -235 C 341 -267 308 -289 272 -303 C 235 -317 180 -324 106 -324 L -51 -324 L -8 -76 L 111 -76 C 137 -76 157 -72 169 -65 C 181 -57 191 -45 199 -27 L 216 9 L 72 1161 Z M 298 1544 L 572 1544 L 523 1270 L 251 1270 L 298 1544 Z M 699 1544 L 974 1544 L 925 1270 L 650 1270 L 699 1544 Z" unicode="ÿ" />
<glyph horiz-adv-x="1319" d="M 639 1528 L 952 1528 L 1159 0 L 825 0 L 799 236 L 334 236 L 221 0 L -109 0 L 639 1528 Z M 770 518 L 709 1042 L 461 518 L 770 518 Z M 481 1852 L 1218 1852 L 1173 1596 L 436 1596 L 481 1852 Z" unicode="Ā" />
<glyph horiz-adv-x="1092" d="M 317 -14 C 197 -14 108 9 51 57 C -6 105 -35 178 -35 276 C -35 392 -16 486 21 558 C 59 630 116 683 194 717 C 272 751 379 768 516 768 L 659 768 L 663 816 C 663 848 651 871 628 885 C 605 898 568 905 516 905 C 406 905 318 892 252 866 L 166 1124 C 272 1165 405 1186 563 1186 C 707 1186 811 1164 876 1122 C 940 1080 973 1009 973 910 C 973 866 967 813 956 750 L 889 358 L 883 309 C 883 293 887 283 897 277 C 906 271 924 268 952 268 L 905 0 C 883 -2 851 -4 809 -4 C 742 -4 695 2 667 16 C 639 29 621 53 612 88 C 576 54 532 28 480 11 C 428 -5 373 -14 317 -14 Z M 270 348 C 270 310 281 283 303 266 C 325 248 362 240 414 240 C 470 240 511 254 539 284 C 567 314 587 361 600 426 L 621 549 L 532 549 C 432 549 363 534 326 505 C 288 475 270 423 270 348 Z M 311 1526 L 1048 1526 L 1003 1270 L 266 1270 L 311 1526 Z" unicode="ā" />
<glyph horiz-adv-x="1319" d="M 639 1528 L 952 1528 L 1159 0 L 825 0 L 799 236 L 334 236 L 221 0 L -109 0 L 639 1528 Z M 770 518 L 709 1042 L 461 518 L 770 518 Z M 860 1583 C 768 1583 697 1593 645 1615 C 593 1637 556 1670 532 1716 C 508 1761 494 1838 491 1946 L 717 1979 C 717 1919 728 1877 750 1853 C 772 1829 810 1817 866 1817 C 912 1817 947 1828 971 1852 C 995 1875 1014 1918 1028 1981 L 1247 1948 C 1218 1823 1173 1731 1111 1672 C 1049 1612 965 1583 860 1583 Z" unicode="Ă" />
<glyph horiz-adv-x="1092" d="M 317 -14 C 197 -14 108 9 51 57 C -6 105 -35 178 -35 276 C -35 392 -16 486 21 558 C 59 630 116 683 194 717 C 272 751 379 768 516 768 L 659 768 L 663 816 C 663 848 651 871 628 885 C 605 898 568 905 516 905 C 406 905 318 892 252 866 L 166 1124 C 272 1165 405 1186 563 1186 C 707 1186 811 1164 876 1122 C 940 1080 973 1009 973 910 C 973 866 967 813 956 750 L 889 358 L 883 309 C 883 293 887 283 897 277 C 906 271 924 268 952 268 L 905 0 C 883 -2 851 -4 809 -4 C 742 -4 695 2 667 16 C 639 29 621 53 612 88 C 576 54 532 28 480 11 C 428 -5 373 -14 317 -14 Z M 270 348 C 270 310 281 283 303 266 C 325 248 362 240 414 240 C 470 240 511 254 539 284 C 567 314 587 361 600 426 L 621 549 L 532 549 C 432 549 363 534 326 505 C 288 475 270 423 270 348 Z M 690 1257 C 598 1257 527 1267 475 1289 C 423 1311 386 1344 362 1390 C 338 1435 324 1512 321 1620 L 547 1653 C 547 1593 558 1551 580 1527 C 602 1503 640 1491 696 1491 C 742 1491 777 1502 801 1526 C 825 1549 844 1592 858 1655 L 1077 1622 C 1048 1497 1003 1405 941 1346 C 879 1286 795 1257 690 1257 Z" unicode="ă" />
<glyph horiz-adv-x="1319" d="M 639 1528 L 952 1528 L 1159 0 L 1065 0 C 977 -58 920 -105 892 -139 C 864 -173 850 -207 850 -240 C 850 -282 881 -303 944 -303 L 997 -303 L 965 -479 L 905 -479 C 815 -479 747 -465 700 -439 C 652 -413 629 -368 629 -305 C 629 -248 646 -192 680 -137 C 714 -81 761 -33 823 8 L 799 236 L 334 236 L 221 0 L -109 0 L 639 1528 Z M 770 518 L 709 1042 L 461 518 L 770 518 Z" unicode="Ą" />
<glyph horiz-adv-x="1092" d="M 317 -14 C 197 -14 108 9 51 57 C -6 105 -35 178 -35 276 C -35 392 -16 486 21 558 C 59 630 116 683 194 717 C 272 751 379 768 516 768 L 657 768 C 660 786 662 802 662 817 C 662 848 650 870 627 884 C 604 898 567 905 516 905 C 406 905 318 892 252 866 L 166 1124 C 272 1165 405 1186 563 1186 C 707 1186 811 1164 876 1122 C 940 1080 973 1009 973 910 C 973 866 967 813 956 750 L 889 358 L 883 309 C 883 293 887 283 897 277 C 906 271 924 268 952 268 L 905 0 C 840 -44 795 -78 770 -102 C 745 -125 726 -148 713 -171 C 700 -193 694 -216 694 -240 C 694 -282 724 -303 786 -303 L 840 -303 L 807 -479 L 748 -479 C 659 -479 591 -465 544 -439 C 496 -413 473 -368 473 -305 C 473 -245 491 -187 529 -131 C 566 -74 614 -26 674 12 C 643 24 622 50 612 88 C 576 54 532 28 480 11 C 428 -5 373 -14 317 -14 Z M 414 240 C 470 240 511 254 539 284 C 567 314 587 361 600 426 L 621 549 L 532 549 C 432 549 363 534 326 505 C 288 475 270 423 270 348 C 270 310 281 283 303 266 C 325 248 362 240 414 240 Z" unicode="ą" />
<glyph horiz-adv-x="1130" d="M 815 1971 L 1157 1971 L 793 1596 L 529 1596 L 815 1971 Z M 557 -18 C 381 -18 248 25 159 112 C 69 199 25 333 25 514 C 25 634 43 770 79 922 C 115 1074 162 1192 220 1278 C 278 1364 351 1428 440 1471 C 529 1514 638 1536 768 1536 C 842 1536 915 1526 987 1507 C 1059 1488 1120 1461 1171 1427 L 989 1149 C 935 1178 887 1198 846 1208 C 804 1218 761 1223 717 1223 C 649 1223 595 1209 555 1181 C 515 1153 482 1107 454 1044 C 426 980 402 896 383 790 C 363 684 354 598 354 530 C 354 439 373 373 411 332 C 449 290 513 270 602 270 C 692 270 772 290 842 332 L 981 90 C 862 18 721 -18 557 -18 Z" unicode="Ć" />
<glyph horiz-adv-x="893" d="M 640 1645 L 982 1645 L 618 1270 L 354 1270 L 640 1645 Z M 442 -16 C 292 -16 181 16 109 82 C 36 147 0 250 0 391 C 0 486 13 592 39 709 C 65 826 101 918 145 985 C 189 1052 246 1102 314 1134 C 382 1166 466 1182 567 1182 C 637 1182 699 1176 755 1164 C 811 1152 863 1133 913 1106 L 737 850 C 691 878 633 893 563 893 C 504 893 459 875 427 839 C 395 803 369 741 349 651 C 329 561 319 486 319 424 C 319 364 332 321 359 293 C 386 265 432 252 498 252 C 548 252 605 263 670 285 L 748 43 C 655 3 553 -16 442 -16 Z" unicode="ć" />
<glyph horiz-adv-x="1130" d="M 412 1971 L 651 1971 L 748 1809 L 899 1971 L 1145 1971 L 854 1596 L 569 1596 L 412 1971 Z M 557 -18 C 381 -18 248 25 159 112 C 69 199 25 333 25 514 C 25 634 43 770 79 922 C 115 1074 162 1192 220 1278 C 278 1364 351 1428 440 1471 C 529 1514 638 1536 768 1536 C 842 1536 915 1526 987 1507 C 1059 1488 1120 1461 1171 1427 L 989 1149 C 935 1178 887 1198 846 1208 C 804 1218 761 1223 717 1223 C 649 1223 595 1209 555 1181 C 515 1153 482 1107 454 1044 C 426 980 402 896 383 790 C 363 684 354 598 354 530 C 354 439 373 373 411 332 C 449 290 513 270 602 270 C 692 270 772 290 842 332 L 981 90 C 862 18 721 -18 557 -18 Z" unicode="Č" />
<glyph horiz-adv-x="893" d="M 237 1645 L 476 1645 L 573 1483 L 724 1645 L 970 1645 L 679 1270 L 394 1270 L 237 1645 Z M 442 -16 C 292 -16 181 16 109 82 C 36 147 0 250 0 391 C 0 486 13 592 39 709 C 65 826 101 918 145 985 C 189 1052 246 1102 314 1134 C 382 1166 466 1182 567 1182 C 637 1182 699 1176 755 1164 C 811 1152 863 1133 913 1106 L 737 850 C 691 878 633 893 563 893 C 504 893 459 875 427 839 C 395 803 369 741 349 651 C 329 561 319 486 319 424 C 319 364 332 321 359 293 C 386 265 432 252 498 252 C 548 252 605 263 670 285 L 748 43 C 655 3 553 -16 442 -16 Z" unicode="č" />
<glyph horiz-adv-x="1290" d="M 492 1971 L 731 1971 L 828 1809 L 979 1971 L 1225 1971 L 934 1596 L 649 1596 L 492 1971 Z M 254 1518 L 668 1518 C 880 1518 1033 1478 1127 1398 C 1221 1318 1268 1190 1268 1014 C 1268 904 1250 770 1216 612 C 1182 454 1137 331 1081 243 C 1025 155 954 93 867 56 C 779 18 661 0 512 0 L -14 0 L 254 1518 Z M 559 279 C 634 279 692 292 732 320 C 772 347 805 392 833 454 C 861 516 885 601 905 711 C 925 821 936 907 936 971 C 936 1063 915 1129 873 1167 C 831 1205 756 1225 649 1225 L 522 1225 L 354 279 L 559 279 Z" unicode="Ď" />
<glyph horiz-adv-x="1393" d="M 1212 1176 C 1269 1206 1304 1225 1316 1235 C 1328 1245 1337 1255 1343 1266 C 1349 1276 1353 1291 1356 1309 L 1237 1309 L 1284 1575 L 1556 1575 L 1513 1333 C 1501 1273 1487 1230 1471 1203 C 1454 1176 1429 1152 1397 1130 C 1364 1108 1320 1085 1264 1061 L 1212 1176 Z M 336 -18 C 222 -18 136 12 80 72 C 24 132 -4 226 -4 354 C -4 440 9 549 35 679 C 61 809 92 907 130 975 C 167 1043 214 1094 271 1129 C 327 1164 396 1182 477 1182 C 557 1182 621 1174 669 1159 C 717 1143 757 1117 788 1079 L 877 1575 L 1186 1575 L 909 10 L 657 -10 L 657 84 C 583 16 476 -18 336 -18 Z M 467 254 C 511 254 547 262 575 278 C 603 294 627 319 645 354 C 663 388 679 445 695 523 C 711 601 719 667 719 723 C 719 785 704 829 676 855 C 648 881 603 895 543 895 C 505 895 474 887 450 871 C 426 855 405 828 389 792 C 373 755 356 693 340 605 C 323 517 315 452 315 412 C 315 361 326 322 348 295 C 370 267 409 254 467 254 Z" unicode="ď" />
<glyph horiz-adv-x="1290" d="M 27 895 L 144 895 L 254 1518 L 668 1518 C 880 1518 1033 1478 1127 1399 C 1221 1320 1268 1192 1268 1014 C 1268 904 1250 770 1216 612 C 1182 454 1137 331 1081 243 C 1025 155 954 93 867 56 C 779 18 661 0 512 0 L -14 0 L 98 635 L -20 635 L 27 895 Z M 559 279 C 635 279 693 292 733 320 C 773 347 807 392 835 456 C 863 520 886 607 906 719 C 926 831 936 915 936 971 C 936 1063 915 1129 873 1167 C 831 1205 756 1225 649 1225 L 522 1225 L 464 895 L 659 895 L 614 635 L 418 635 L 356 279 L 559 279 Z" unicode="Đ" />
<glyph horiz-adv-x="1139" d="M 336 -18 C 222 -18 136 12 80 72 C 24 132 -4 226 -4 354 C -4 440 9 549 35 679 C 61 809 92 907 130 975 C 167 1043 214 1094 271 1129 C 327 1164 396 1182 477 1182 C 557 1182 621 1174 669 1159 C 717 1143 757 1117 788 1079 L 816 1235 L 616 1235 L 657 1473 L 858 1473 L 877 1575 L 1186 1575 L 1168 1473 L 1270 1473 L 1229 1235 L 1126 1235 L 909 10 L 657 -10 L 657 84 C 583 16 476 -18 336 -18 Z M 467 254 C 511 254 547 262 575 278 C 603 294 627 319 645 354 C 663 388 679 445 695 523 C 711 601 719 667 719 723 C 719 785 704 829 676 855 C 648 881 603 895 543 895 C 505 895 474 887 450 871 C 426 855 405 828 389 792 C 373 755 356 693 340 605 C 323 517 315 452 315 412 C 315 361 326 322 348 295 C 370 267 409 254 467 254 Z" unicode="đ" />
<glyph horiz-adv-x="1116" d="M 254 1518 L 1165 1518 L 1114 1225 L 516 1225 L 463 922 L 1032 922 L 981 631 L 412 631 L 350 287 L 948 287 L 899 0 L -14 0 L 254 1518 Z M 381 1852 L 1118 1852 L 1073 1596 L 336 1596 L 381 1852 Z" unicode="Ē" />
<glyph horiz-adv-x="1032" d="M 457 -14 C 299 -14 183 17 109 81 C 35 145 -2 246 -2 385 C -2 473 10 576 36 692 C 61 808 96 902 142 973 C 188 1043 245 1096 315 1130 C 384 1164 467 1182 563 1182 C 704 1182 807 1156 873 1104 C 938 1052 971 968 971 850 C 971 764 951 628 913 442 L 296 442 L 295 408 C 295 350 309 310 339 286 C 369 262 420 250 492 250 C 583 250 674 265 766 297 L 844 55 C 739 9 610 -14 457 -14 Z M 678 682 C 686 724 690 762 690 795 C 690 839 678 869 656 886 C 633 902 596 911 545 911 C 503 911 469 904 443 890 C 417 876 396 855 380 826 C 364 797 348 749 334 682 L 678 682 Z M 278 1526 L 1015 1526 L 970 1270 L 233 1270 L 278 1526 Z" unicode="ē" />
<glyph horiz-adv-x="1116" d="M 254 1518 L 1165 1518 L 1114 1225 L 516 1225 L 463 922 L 1032 922 L 981 631 L 412 631 L 350 287 L 948 287 L 899 0 L -14 0 L 254 1518 Z M 600 1876 L 912 1876 L 862 1596 L 549 1596 L 600 1876 Z" unicode="Ė" />
<glyph horiz-adv-x="1032" d="M 457 -14 C 299 -14 183 17 109 81 C 35 145 -2 246 -2 385 C -2 473 10 576 36 692 C 61 808 96 902 142 973 C 188 1043 245 1096 315 1130 C 384 1164 467 1182 563 1182 C 704 1182 807 1156 873 1104 C 938 1052 971 968 971 850 C 971 764 951 628 913 442 L 296 442 L 295 408 C 295 350 309 310 339 286 C 369 262 420 250 492 250 C 583 250 674 265 766 297 L 844 55 C 739 9 610 -14 457 -14 Z M 678 682 C 686 724 690 762 690 795 C 690 839 678 869 656 886 C 633 902 596 911 545 911 C 503 911 469 904 443 890 C 417 876 396 855 380 826 C 364 797 348 749 334 682 L 678 682 Z M 497 1550 L 809 1550 L 759 1270 L 446 1270 L 497 1550 Z" unicode="ė" />
<glyph horiz-adv-x="1116" d="M 254 1518 L 1165 1518 L 1114 1225 L 516 1225 L 463 922 L 1032 922 L 981 631 L 412 631 L 350 287 L 948 287 L 899 0 L 823 0 C 771 -42 729 -84 699 -126 C 668 -168 653 -206 653 -240 C 653 -282 684 -303 748 -303 L 801 -303 L 768 -479 L 709 -479 C 619 -479 551 -465 503 -439 C 455 -413 432 -368 432 -305 C 432 -251 447 -198 477 -146 C 507 -93 552 -44 612 0 L -14 0 L 254 1518 Z" unicode="Ę" />
<glyph horiz-adv-x="1032" d="M 555 -479 C 465 -479 397 -465 350 -439 C 302 -413 279 -368 279 -305 C 279 -254 292 -203 320 -152 C 348 -101 388 -55 440 -14 C 290 -11 178 21 106 84 C 34 147 -2 247 -2 385 C -2 473 10 576 36 692 C 61 808 96 902 142 973 C 188 1043 245 1096 315 1130 C 384 1164 467 1182 563 1182 C 704 1182 807 1156 873 1104 C 938 1052 971 968 971 850 C 971 764 951 628 913 442 L 295 442 L 295 408 C 295 350 309 310 339 286 C 369 262 420 250 492 250 C 583 250 674 265 766 297 L 844 55 C 788 31 732 14 674 4 C 558 -89 500 -170 500 -240 C 500 -282 531 -303 594 -303 L 647 -303 L 614 -479 L 555 -479 Z M 545 911 C 483 911 437 895 407 863 C 376 831 352 770 334 682 L 678 682 C 686 724 690 762 690 795 C 690 839 678 869 656 886 C 633 902 596 911 545 911 Z" unicode="ę" />
<glyph horiz-adv-x="1116" d="M 406 1971 L 645 1971 L 742 1809 L 893 1971 L 1139 1971 L 848 1596 L 563 1596 L 406 1971 Z M 254 1518 L 1165 1518 L 1114 1225 L 516 1225 L 463 922 L 1032 922 L 981 631 L 412 631 L 350 287 L 948 287 L 899 0 L -14 0 L 254 1518 Z" unicode="Ě" />
<glyph horiz-adv-x="1032" d="M 303 1645 L 542 1645 L 639 1483 L 790 1645 L 1036 1645 L 745 1270 L 460 1270 L 303 1645 Z M 457 -14 C 299 -14 183 17 109 81 C 35 145 -2 246 -2 385 C -2 473 10 576 36 692 C 61 808 96 902 142 973 C 188 1043 245 1096 315 1130 C 384 1164 467 1182 563 1182 C 704 1182 807 1156 873 1104 C 938 1052 971 968 971 850 C 971 764 951 628 913 442 L 296 442 L 295 408 C 295 350 309 310 339 286 C 369 262 420 250 492 250 C 583 250 674 265 766 297 L 844 55 C 739 9 610 -14 457 -14 Z M 678 682 C 686 724 690 762 690 795 C 690 839 678 869 656 886 C 633 902 596 911 545 911 C 503 911 469 904 443 890 C 417 876 396 855 380 826 C 364 797 348 749 334 682 L 678 682 Z" unicode="ě" />
<glyph horiz-adv-x="1237" d="M 545 -18 C 370 -18 240 24 155 109 C 69 193 27 326 27 506 C 27 636 44 775 78 923 C 112 1071 159 1189 217 1279 C 275 1368 349 1433 437 1474 C 525 1515 634 1536 766 1536 C 858 1536 942 1526 1019 1506 C 1095 1486 1165 1454 1229 1409 L 1016 1151 C 939 1201 841 1227 723 1227 C 653 1227 597 1212 557 1182 C 517 1152 482 1105 453 1039 C 423 973 398 884 378 774 C 358 663 348 574 348 506 C 348 414 366 348 402 309 C 438 269 500 250 588 250 C 642 250 685 260 719 281 C 752 302 779 335 799 381 C 819 427 838 508 856 625 L 573 625 L 625 901 L 1212 901 L 1163 627 C 1130 447 1091 312 1046 224 C 1001 136 940 73 864 37 C 787 0 681 -18 545 -18 Z M 819 1583 C 727 1583 656 1593 604 1615 C 552 1637 515 1670 491 1716 C 467 1761 453 1838 450 1946 L 676 1979 C 676 1919 687 1877 709 1853 C 731 1829 769 1817 825 1817 C 871 1817 906 1828 930 1852 C 954 1875 973 1918 987 1981 L 1206 1948 C 1177 1823 1132 1731 1070 1672 C 1008 1612 924 1583 819 1583 Z" unicode="Ğ" />
<glyph horiz-adv-x="1096" d="M 520 412 C 458 412 403 416 354 425 C 348 412 346 398 346 383 C 346 359 355 342 374 332 C 392 322 423 316 465 315 C 583 313 675 303 741 287 C 806 271 853 245 882 210 C 911 175 926 125 926 59 C 926 -79 883 -181 799 -246 C 714 -311 574 -344 379 -344 C 199 -344 69 -323 -11 -282 C -91 -241 -131 -176 -131 -86 C -131 -9 -108 54 -63 104 C -18 154 48 189 137 207 C 116 221 101 241 92 266 C 82 291 78 316 78 342 C 78 406 104 462 157 511 C 100 561 72 633 72 727 C 72 1030 229 1182 543 1182 L 645 1179 L 1120 1276 L 1081 1036 L 901 1036 C 962 995 993 918 993 805 C 993 673 954 574 876 509 C 798 444 680 412 520 412 Z M 401 -129 C 474 -129 526 -118 556 -98 C 586 -77 602 -40 602 14 C 602 46 587 69 559 82 C 530 95 472 102 385 102 C 317 102 267 91 235 70 C 203 49 188 15 188 -33 C 188 -67 205 -92 239 -107 C 273 -121 327 -129 401 -129 Z M 514 631 C 570 631 613 645 643 673 C 673 701 688 750 688 819 C 688 891 641 928 547 928 C 486 928 442 912 415 882 C 388 852 375 805 375 743 C 375 707 385 679 406 660 C 426 640 462 631 514 631 Z M 690 1257 C 598 1257 527 1267 475 1289 C 423 1311 386 1344 362 1390 C 338 1435 324 1512 321 1620 L 547 1653 C 547 1593 558 1551 580 1527 C 602 1503 640 1491 696 1491 C 742 1491 777 1502 801 1526 C 825 1549 844 1592 858 1655 L 1077 1622 C 1048 1497 1003 1405 941 1346 C 879 1286 795 1257 690 1257 Z" unicode="ğ" />
<glyph horiz-adv-x="1237" d="M 266 -471 C 320 -443 356 -422 373 -408 C 390 -393 402 -370 409 -338 L 291 -338 L 336 -72 L 608 -72 L 567 -313 C 555 -375 541 -419 525 -445 C 508 -471 483 -496 451 -518 C 419 -540 375 -564 319 -588 L 266 -471 Z M 545 -18 C 370 -18 240 24 155 109 C 69 193 27 326 27 506 C 27 636 44 775 78 923 C 112 1071 159 1189 217 1279 C 275 1368 349 1433 437 1474 C 525 1515 634 1536 766 1536 C 858 1536 942 1526 1019 1506 C 1095 1486 1165 1454 1229 1409 L 1016 1151 C 939 1201 841 1227 723 1227 C 653 1227 597 1212 557 1182 C 517 1152 482 1105 453 1039 C 423 973 398 884 378 774 C 358 663 348 574 348 506 C 348 414 366 348 402 309 C 438 269 500 250 588 250 C 642 250 685 260 719 281 C 752 302 779 335 799 381 C 819 427 838 508 856 625 L 573 625 L 625 901 L 1212 901 L 1163 627 C 1130 447 1091 312 1046 224 C 1001 136 940 73 864 37 C 787 0 681 -18 545 -18 Z" unicode="Ģ" />
<glyph horiz-adv-x="1096" d="M 795 1784 L 846 1669 C 786 1637 749 1615 735 1601 C 720 1587 710 1566 705 1536 L 824 1536 L 777 1270 L 504 1270 L 547 1509 C 558 1571 572 1615 589 1641 C 605 1667 630 1692 662 1714 C 694 1736 739 1760 795 1784 Z M 520 412 C 458 412 403 416 354 425 C 348 412 346 398 346 383 C 346 359 355 342 374 332 C 392 322 423 316 465 315 C 583 313 675 303 741 287 C 806 271 853 245 882 210 C 911 175 926 125 926 59 C 926 -79 883 -181 799 -246 C 714 -311 574 -344 379 -344 C 199 -344 69 -323 -11 -282 C -91 -241 -131 -176 -131 -86 C -131 -9 -108 54 -63 104 C -18 154 48 189 137 207 C 116 221 101 241 92 266 C 82 291 78 316 78 342 C 78 406 104 462 157 511 C 100 561 72 633 72 727 C 72 1030 229 1182 543 1182 L 645 1179 L 1120 1276 L 1081 1036 L 901 1036 C 962 995 993 918 993 805 C 993 673 954 574 876 509 C 798 444 680 412 520 412 Z M 401 -129 C 474 -129 526 -118 556 -98 C 586 -77 602 -40 602 14 C 602 46 587 69 559 82 C 530 95 472 102 385 102 C 317 102 267 91 235 70 C 203 49 188 15 188 -33 C 188 -67 205 -92 239 -107 C 273 -121 327 -129 401 -129 Z M 514 631 C 570 631 613 645 643 673 C 673 701 688 750 688 819 C 688 891 641 928 547 928 C 486 928 442 912 415 882 C 388 852 375 805 375 743 C 375 707 385 679 406 660 C 426 640 462 631 514 631 Z" unicode="ģ" />
<glyph horiz-adv-x="594" d="M 270 1518 L 592 1518 L 324 0 L 2 0 L 270 1518 Z M 122 1852 L 859 1852 L 814 1596 L 77 1596 L 122 1852 Z" unicode="Ī" />
<glyph horiz-adv-x="524" d="M 178 1161 L 487 1161 L 283 0 L -27 0 L 178 1161 Z M 27 1526 L 764 1526 L 719 1270 L -18 1270 L 27 1526 Z" unicode="ī" />
<glyph horiz-adv-x="594" d="M 270 1518 L 592 1518 L 324 0 C 239 -57 182 -103 154 -137 C 125 -171 111 -206 111 -240 C 111 -282 142 -303 205 -303 L 258 -303 L 225 -479 L 166 -479 C 76 -479 8 -465 -39 -439 C -87 -413 -111 -368 -111 -305 C -111 -253 -96 -200 -66 -148 C -36 -95 10 -46 72 0 L 2 0 L 270 1518 Z" unicode="Į" />
<glyph horiz-adv-x="524" d="M 178 1161 L 487 1161 L 283 0 C 195 -60 138 -107 111 -141 C 83 -175 70 -208 70 -240 C 70 -282 101 -303 164 -303 L 217 -303 L 184 -479 L 125 -479 C 35 -479 -32 -465 -79 -439 C -126 -413 -150 -368 -150 -305 C -150 -253 -135 -200 -105 -148 C -75 -95 -29 -46 33 0 L -27 0 L 178 1161 Z M 246 1546 L 559 1546 L 508 1266 L 195 1266 L 246 1546 Z" unicode="į" />
<glyph horiz-adv-x="594" d="M 270 1518 L 592 1518 L 324 0 L 2 0 L 270 1518 Z M 341 1876 L 653 1876 L 603 1596 L 290 1596 L 341 1876 Z" unicode="İ" />
<glyph horiz-adv-x="524" d="M 178 1161 L 487 1161 L 283 0 L -27 0 L 178 1161 Z" unicode="ı" />
<glyph horiz-adv-x="1284" d="M 291 -471 C 345 -443 381 -422 398 -408 C 415 -393 427 -370 434 -338 L 316 -338 L 361 -72 L 633 -72 L 592 -313 C 580 -375 566 -419 550 -445 C 533 -471 508 -496 476 -518 C 444 -540 400 -564 344 -588 L 291 -471 Z M 254 1518 L 571 1518 L 468 938 L 991 1518 L 1364 1518 L 818 936 L 1118 0 L 782 0 L 571 667 L 380 439 L 303 0 L -14 0 L 254 1518 Z" unicode="Ķ" />
<glyph horiz-adv-x="1038" d="M 168 -471 C 222 -443 258 -422 275 -408 C 292 -393 304 -370 311 -338 L 193 -338 L 238 -72 L 510 -72 L 469 -313 C 457 -375 443 -419 427 -445 C 410 -471 385 -496 353 -518 C 321 -540 277 -564 221 -588 L 168 -471 Z M 242 1575 L 547 1575 L 402 759 L 741 1161 L 1075 1161 L 677 685 L 899 0 L 584 0 L 440 439 L 321 299 L 268 0 L -37 0 L 242 1575 Z" unicode="ķ" />
<glyph horiz-adv-x="1026" d="M 576 1971 L 918 1971 L 554 1596 L 290 1596 L 576 1971 Z M 254 1518 L 573 1518 L 356 287 L 922 287 L 870 0 L -14 0 L 254 1518 Z" unicode="Ĺ" />
<glyph horiz-adv-x="600" d="M 578 2046 L 920 2046 L 556 1671 L 292 1671 L 578 2046 Z M 291 -4 C 195 -4 126 14 85 50 C 44 86 23 145 23 227 C 23 266 27 312 37 365 L 252 1575 L 561 1575 L 348 373 L 342 316 C 342 298 349 285 363 278 C 377 271 406 268 451 268 L 403 0 C 391 -2 353 -4 291 -4 Z" unicode="ĺ" />
<glyph horiz-adv-x="1026" d="M 162 -471 C 216 -443 252 -422 269 -408 C 286 -393 298 -370 305 -338 L 187 -338 L 232 -72 L 504 -72 L 463 -313 C 451 -375 437 -419 421 -445 C 404 -471 379 -496 347 -518 C 315 -540 271 -564 215 -588 L 162 -471 Z M 254 1518 L 573 1518 L 356 287 L 922 287 L 870 0 L -14 0 L 254 1518 Z" unicode="Ļ" />
<glyph horiz-adv-x="600" d="M -51 -471 C 3 -443 39 -422 56 -408 C 73 -393 85 -370 92 -338 L -26 -338 L 19 -72 L 291 -72 L 250 -313 C 238 -375 224 -419 208 -445 C 191 -471 166 -496 134 -518 C 102 -540 58 -564 2 -588 L -51 -471 Z M 291 -4 C 195 -4 126 14 85 50 C 44 86 23 145 23 227 C 23 266 27 312 37 365 L 252 1575 L 561 1575 L 348 373 L 342 316 C 342 298 349 285 363 278 C 377 271 406 268 451 268 L 403 0 C 391 -2 353 -4 291 -4 Z" unicode="ļ" />
<glyph horiz-adv-x="1026" d="M 625 1176 C 687 1208 725 1230 739 1244 C 753 1257 762 1279 768 1309 L 649 1309 L 696 1575 L 969 1575 L 926 1333 C 914 1274 900 1231 884 1205 C 867 1178 843 1153 811 1131 C 779 1109 734 1085 676 1061 L 625 1176 Z M 254 1518 L 573 1518 L 356 287 L 922 287 L 870 0 L -14 0 L 254 1518 Z" unicode="Ľ" />
<glyph horiz-adv-x="772" d="M 588 1176 C 652 1210 691 1233 704 1247 C 717 1261 726 1281 731 1309 L 612 1309 L 659 1575 L 932 1575 L 889 1333 C 877 1274 863 1231 847 1205 C 830 1178 806 1153 774 1131 C 742 1109 697 1085 639 1061 L 588 1176 Z M 291 -4 C 195 -4 126 14 85 50 C 44 86 23 145 23 227 C 23 266 27 312 37 365 L 252 1575 L 561 1575 L 348 373 L 342 316 C 342 298 349 285 363 278 C 377 271 406 268 451 268 L 403 0 C 391 -2 353 -4 291 -4 Z" unicode="ľ" />
<glyph horiz-adv-x="1026" d="M 254 1518 L 573 1518 L 493 1065 L 731 1188 L 684 930 L 447 807 L 356 287 L 922 287 L 870 0 L -14 0 L 96 623 L -35 555 L 10 815 L 142 883 L 254 1518 Z" unicode="Ł" />
<glyph horiz-adv-x="723" d="M 373 -4 C 273 -4 203 13 162 48 C 121 82 101 138 101 214 C 101 248 105 288 113 334 L 192 781 L 31 696 L 78 967 L 241 1052 L 334 1575 L 643 1575 L 582 1231 L 760 1325 L 713 1055 L 534 961 L 430 373 L 424 316 C 424 298 431 285 445 278 C 459 271 488 268 532 268 L 485 0 C 473 -2 435 -4 373 -4 Z" unicode="ł" />
<glyph horiz-adv-x="1354" d="M 928 1971 L 1270 1971 L 906 1596 L 642 1596 L 928 1971 Z M 254 1518 L 592 1518 L 907 641 L 1065 1518 L 1372 1518 L 1104 0 L 807 0 L 457 946 L 289 0 L -14 0 L 254 1518 Z" unicode="Ń" />
<glyph horiz-adv-x="1126" d="M 755 1645 L 1097 1645 L 733 1270 L 469 1270 L 755 1645 Z M 418 1163 L 420 1081 C 450 1111 492 1135 547 1154 C 602 1172 667 1182 741 1182 C 844 1182 921 1159 972 1114 C 1022 1068 1048 998 1048 903 C 1048 859 1042 803 1030 733 L 901 0 L 592 0 L 711 682 C 719 730 724 765 724 787 C 724 824 713 850 691 865 C 669 879 634 887 586 887 C 528 887 485 871 456 840 C 427 809 404 747 387 655 L 274 0 L -37 0 L 166 1143 L 418 1163 Z" unicode="ń" />
<glyph horiz-adv-x="1354" d="M 326 -471 C 380 -443 416 -422 433 -408 C 450 -393 462 -370 469 -338 L 351 -338 L 396 -72 L 668 -72 L 627 -313 C 615 -375 601 -419 585 -445 C 568 -471 543 -496 511 -518 C 479 -540 435 -564 379 -588 L 326 -471 Z M 254 1518 L 592 1518 L 907 641 L 1065 1518 L 1372 1518 L 1104 0 L 807 0 L 457 946 L 289 0 L -14 0 L 254 1518 Z" unicode="Ņ" />
<glyph horiz-adv-x="1126" d="M 211 -471 C 265 -443 301 -422 318 -408 C 335 -393 347 -370 354 -338 L 236 -338 L 281 -72 L 553 -72 L 512 -313 C 500 -375 486 -419 470 -445 C 453 -471 428 -496 396 -518 C 364 -540 320 -564 264 -588 L 211 -471 Z M 418 1163 L 420 1081 C 450 1111 492 1135 547 1154 C 602 1172 667 1182 741 1182 C 844 1182 921 1159 972 1114 C 1022 1068 1048 998 1048 903 C 1048 859 1042 803 1030 733 L 901 0 L 592 0 L 711 682 C 719 730 724 765 724 787 C 724 824 713 850 691 865 C 669 879 634 887 586 887 C 528 887 485 871 456 840 C 427 809 404 747 387 655 L 274 0 L -37 0 L 166 1143 L 418 1163 Z" unicode="ņ" />
<glyph horiz-adv-x="1354" d="M 525 1971 L 764 1971 L 861 1809 L 1012 1971 L 1258 1971 L 967 1596 L 682 1596 L 525 1971 Z M 254 1518 L 592 1518 L 907 641 L 1065 1518 L 1372 1518 L 1104 0 L 807 0 L 457 946 L 289 0 L -14 0 L 254 1518 Z" unicode="Ň" />
<glyph horiz-adv-x="1126" d="M 352 1645 L 591 1645 L 688 1483 L 839 1645 L 1085 1645 L 794 1270 L 509 1270 L 352 1645 Z M 418 1163 L 420 1081 C 450 1111 492 1135 547 1154 C 602 1172 667 1182 741 1182 C 844 1182 921 1159 972 1114 C 1022 1068 1048 998 1048 903 C 1048 859 1042 803 1030 733 L 901 0 L 592 0 L 711 682 C 719 730 724 765 724 787 C 724 824 713 850 691 865 C 669 879 634 887 586 887 C 528 887 485 871 456 840 C 427 809 404 747 387 655 L 274 0 L -37 0 L 166 1143 L 418 1163 Z" unicode="ň" />
<glyph horiz-adv-x="1343" d="M 493 1852 L 1230 1852 L 1185 1596 L 448 1596 L 493 1852 Z M 588 -18 C 401 -18 260 26 166 114 C 72 202 25 338 25 520 C 25 630 41 759 74 909 C 107 1058 153 1178 212 1269 C 271 1360 344 1427 432 1471 C 519 1514 623 1536 743 1536 C 933 1536 1077 1491 1173 1403 C 1269 1315 1317 1178 1317 993 C 1317 871 1300 737 1266 591 C 1232 445 1185 328 1126 240 C 1066 152 992 87 902 45 C 812 3 708 -18 588 -18 Z M 602 266 C 668 266 723 278 767 303 C 810 328 846 367 874 419 C 902 471 927 555 951 671 C 975 787 987 885 987 963 C 987 1055 966 1122 926 1164 C 886 1206 824 1227 741 1227 C 670 1227 612 1212 566 1183 C 520 1154 483 1110 455 1050 C 426 990 401 900 381 779 C 360 658 350 574 350 528 C 350 436 370 370 412 328 C 454 286 517 266 602 266 Z" unicode="Ō" />
<glyph horiz-adv-x="1104" d="M 315 1526 L 1052 1526 L 1007 1270 L 270 1270 L 315 1526 Z M 457 -18 C 304 -18 190 16 115 85 C 39 153 2 260 2 406 C 2 503 15 608 43 720 C 71 832 108 921 154 987 C 200 1053 259 1102 330 1134 C 401 1166 487 1182 588 1182 C 740 1182 854 1147 929 1079 C 1004 1010 1042 904 1042 760 C 1042 664 1028 558 1000 442 C 972 326 936 236 891 172 C 845 107 787 59 717 28 C 646 -2 559 -18 457 -18 Z M 479 252 C 523 252 559 260 587 278 C 615 295 637 322 655 359 C 672 395 689 458 705 548 C 721 637 729 698 729 731 C 729 789 715 830 688 855 C 661 880 619 893 561 893 C 518 893 483 884 455 867 C 427 850 405 823 387 787 C 369 751 353 692 338 611 C 322 530 315 466 315 420 C 315 360 328 317 355 291 C 381 265 423 252 479 252 Z" unicode="ō" />
<glyph horiz-adv-x="1343" d="M 731 1971 L 1046 1971 L 694 1596 L 456 1596 L 731 1971 Z M 1153 1971 L 1468 1971 L 1116 1596 L 878 1596 L 1153 1971 Z M 588 -18 C 401 -18 260 26 166 114 C 72 202 25 338 25 520 C 25 630 41 759 74 909 C 107 1058 153 1178 212 1269 C 271 1360 344 1427 432 1471 C 519 1514 623 1536 743 1536 C 933 1536 1077 1491 1173 1403 C 1269 1315 1317 1178 1317 993 C 1317 871 1300 737 1266 591 C 1232 445 1185 328 1126 240 C 1066 152 992 87 902 45 C 812 3 708 -18 588 -18 Z M 602 266 C 668 266 723 278 767 303 C 810 328 846 367 874 419 C 902 471 927 555 951 671 C 975 787 987 885 987 963 C 987 1055 966 1122 926 1164 C 886 1206 824 1227 741 1227 C 670 1227 612 1212 566 1183 C 520 1154 483 1110 455 1050 C 426 990 401 900 381 779 C 360 658 350 574 350 528 C 350 436 370 370 412 328 C 454 286 517 266 602 266 Z" unicode="Ő" />
<glyph horiz-adv-x="1104" d="M 553 1645 L 868 1645 L 516 1270 L 278 1270 L 553 1645 Z M 975 1645 L 1290 1645 L 938 1270 L 700 1270 L 975 1645 Z M 457 -18 C 304 -18 190 16 115 85 C 39 153 2 260 2 406 C 2 503 15 608 43 720 C 71 832 108 921 154 987 C 200 1053 259 1102 330 1134 C 401 1166 487 1182 588 1182 C 740 1182 854 1147 929 1079 C 1004 1010 1042 904 1042 760 C 1042 664 1028 558 1000 442 C 972 326 936 236 891 172 C 845 107 787 59 717 28 C 646 -2 559 -18 457 -18 Z M 479 252 C 523 252 559 260 587 278 C 615 295 637 322 655 359 C 672 395 689 458 705 548 C 721 637 729 698 729 731 C 729 789 715 830 688 855 C 661 880 619 893 561 893 C 518 893 483 884 455 867 C 427 850 405 823 387 787 C 369 751 353 692 338 611 C 322 530 315 466 315 420 C 315 360 328 317 355 291 C 381 265 423 252 479 252 Z" unicode="ő" />
<glyph horiz-adv-x="1982" d="M 547 -10 C 200 -10 27 166 27 520 C 27 671 51 835 101 1011 C 151 1187 228 1318 333 1403 C 438 1487 575 1530 743 1530 C 895 1530 1013 1502 1095 1446 L 1108 1518 L 1987 1518 L 1935 1225 L 1337 1225 L 1284 918 L 1853 918 L 1802 631 L 1233 631 L 1171 287 L 1772 287 L 1720 0 L 840 0 L 851 62 C 764 14 663 -10 547 -10 Z M 602 266 C 668 266 723 278 767 303 C 810 328 846 367 874 419 C 902 471 927 555 951 671 C 975 787 987 885 987 963 C 987 1055 967 1122 927 1164 C 887 1206 825 1227 741 1227 C 671 1227 613 1212 567 1183 C 521 1154 483 1110 455 1051 C 426 991 401 901 381 779 C 360 657 350 574 350 528 C 350 436 370 370 412 328 C 454 286 517 266 602 266 Z" unicode="Œ" />
<glyph horiz-adv-x="1712" d="M 1137 -14 C 974 -14 860 20 796 89 C 755 51 708 23 654 7 C 600 -9 534 -18 457 -18 C 304 -18 190 16 115 85 C 39 153 2 260 2 406 C 2 503 15 608 43 720 C 71 832 108 921 154 987 C 200 1053 259 1102 330 1134 C 401 1166 487 1182 588 1182 C 744 1182 854 1144 918 1068 C 995 1144 1104 1182 1245 1182 C 1385 1182 1488 1156 1553 1105 C 1618 1054 1651 969 1651 850 C 1651 768 1633 632 1597 442 L 978 442 L 977 408 C 977 350 991 310 1021 286 C 1051 262 1102 250 1174 250 C 1274 250 1365 265 1446 297 L 1526 57 C 1423 9 1293 -14 1137 -14 Z M 479 252 C 523 252 559 260 587 278 C 615 295 637 322 655 359 C 672 395 689 458 705 548 C 721 637 729 698 729 731 C 729 789 715 830 688 855 C 661 880 619 893 561 893 C 518 893 483 884 455 867 C 427 850 405 823 387 787 C 369 751 353 692 338 611 C 322 530 315 466 315 420 C 315 360 328 317 355 291 C 381 265 423 252 479 252 Z M 1360 682 C 1368 733 1372 771 1372 795 C 1372 838 1360 868 1337 885 C 1313 902 1276 911 1225 911 C 1183 911 1149 904 1123 890 C 1097 876 1076 854 1060 824 C 1044 794 1029 747 1015 682 L 1360 682 Z" unicode="œ" />
<glyph horiz-adv-x="1253" d="M 876 1971 L 1218 1971 L 854 1596 L 590 1596 L 876 1971 Z M 254 1518 L 713 1518 C 889 1518 1020 1487 1107 1425 C 1193 1363 1237 1265 1237 1133 C 1237 1047 1223 958 1195 867 C 1167 776 1128 704 1079 651 C 1029 597 966 558 890 533 L 1030 0 L 713 0 L 584 508 L 391 508 L 301 0 L -14 0 L 254 1518 Z M 705 788 C 753 788 792 798 822 818 C 851 838 873 872 889 919 C 905 965 913 1017 913 1073 C 913 1131 895 1172 861 1197 C 827 1222 772 1235 698 1235 L 518 1235 L 440 788 L 705 788 Z" unicode="Ŕ" />
<glyph horiz-adv-x="688" d="M 539 1645 L 881 1645 L 517 1270 L 253 1270 L 539 1645 Z M 418 1163 L 422 1067 C 453 1101 494 1126 545 1144 C 596 1162 664 1171 748 1171 L 696 879 C 630 879 578 872 540 860 C 502 848 472 830 452 808 C 431 786 416 759 408 729 C 399 698 391 665 385 629 L 274 0 L -37 0 L 166 1143 L 418 1163 Z" unicode="ŕ" />
<glyph horiz-adv-x="1253" d="M 276 -471 C 330 -443 366 -422 383 -408 C 400 -393 412 -370 419 -338 L 301 -338 L 346 -72 L 618 -72 L 577 -313 C 565 -375 551 -419 535 -445 C 518 -471 493 -496 461 -518 C 429 -540 385 -564 329 -588 L 276 -471 Z M 254 1518 L 713 1518 C 889 1518 1020 1487 1107 1425 C 1193 1363 1237 1265 1237 1133 C 1237 1047 1223 958 1195 867 C 1167 776 1128 704 1079 651 C 1029 597 966 558 890 533 L 1030 0 L 713 0 L 584 508 L 391 508 L 301 0 L -14 0 L 254 1518 Z M 705 788 C 753 788 792 798 822 818 C 851 838 873 872 889 919 C 905 965 913 1017 913 1073 C 913 1131 895 1172 861 1197 C 827 1222 772 1235 698 1235 L 518 1235 L 440 788 L 705 788 Z" unicode="Ŗ" />
<glyph horiz-adv-x="688" d="M -91 -471 C -36 -443 0 -422 16 -408 C 33 -393 45 -370 52 -338 L -66 -338 L -21 -72 L 251 -72 L 210 -313 C 198 -375 184 -419 168 -445 C 151 -471 126 -496 94 -518 C 62 -540 18 -564 -38 -588 L -91 -471 Z M 418 1163 L 422 1067 C 453 1101 494 1126 545 1144 C 596 1162 664 1171 748 1171 L 696 879 C 630 879 578 872 540 860 C 502 848 472 830 452 808 C 431 786 416 759 408 729 C 399 698 391 665 385 629 L 274 0 L -37 0 L 166 1143 L 418 1163 Z" unicode="ŗ" />
<glyph horiz-adv-x="1253" d="M 473 1971 L 712 1971 L 809 1809 L 960 1971 L 1206 1971 L 915 1596 L 630 1596 L 473 1971 Z M 254 1518 L 713 1518 C 889 1518 1020 1487 1107 1425 C 1193 1363 1237 1265 1237 1133 C 1237 1047 1223 958 1195 867 C 1167 776 1128 704 1079 651 C 1029 597 966 558 890 533 L 1030 0 L 713 0 L 584 508 L 391 508 L 301 0 L -14 0 L 254 1518 Z M 705 788 C 753 788 792 798 822 818 C 851 838 873 872 889 919 C 905 965 913 1017 913 1073 C 913 1131 895 1172 861 1197 C 827 1222 772 1235 698 1235 L 518 1235 L 440 788 L 705 788 Z" unicode="Ř" />
<glyph horiz-adv-x="688" d="M 136 1645 L 375 1645 L 472 1483 L 623 1645 L 869 1645 L 578 1270 L 293 1270 L 136 1645 Z M 418 1163 L 422 1067 C 453 1101 494 1126 545 1144 C 596 1162 664 1171 748 1171 L 696 879 C 630 879 578 872 540 860 C 502 848 472 830 452 808 C 431 786 416 759 408 729 C 399 698 391 665 385 629 L 274 0 L -37 0 L 166 1143 L 418 1163 Z" unicode="ř" />
<glyph horiz-adv-x="1169" d="M 833 1971 L 1175 1971 L 811 1596 L 547 1596 L 833 1971 Z M 516 -18 C 382 -18 265 -3 165 25 C 65 53 -15 91 -78 137 L 98 381 C 153 339 217 307 291 284 C 365 261 440 250 518 250 C 665 250 739 313 739 440 C 739 470 733 495 721 515 C 709 535 689 554 662 572 C 635 589 571 618 469 659 C 357 704 274 757 221 819 C 167 880 141 955 141 1044 C 141 1203 188 1325 282 1409 C 376 1493 513 1536 694 1536 C 802 1536 896 1525 974 1504 C 1052 1483 1115 1458 1163 1430 L 1008 1159 C 964 1185 912 1205 853 1220 C 793 1235 736 1243 680 1243 C 534 1243 461 1187 461 1077 C 461 1037 474 1005 500 981 C 526 957 579 930 659 899 C 772 853 855 811 908 774 C 960 736 999 694 1024 648 C 1048 602 1061 547 1061 485 C 1061 321 1014 197 921 111 C 828 25 693 -18 516 -18 Z" unicode="Ś" />
<glyph horiz-adv-x="905" d="M 648 1645 L 990 1645 L 626 1270 L 362 1270 L 648 1645 Z M 379 -14 C 193 -14 34 24 -98 102 L 59 340 C 163 273 273 240 389 240 C 431 240 460 247 478 263 C 495 278 504 302 504 336 C 504 362 494 383 474 400 C 454 416 401 444 315 483 C 218 529 152 576 116 625 C 80 673 63 733 63 803 C 63 927 100 1021 176 1085 C 251 1149 360 1182 504 1182 C 665 1182 797 1152 899 1094 L 739 852 C 664 892 577 913 479 913 C 439 913 410 905 393 889 C 375 873 367 848 367 815 C 367 789 381 768 410 750 C 439 732 480 711 532 688 C 629 645 698 598 738 548 C 778 498 799 432 799 350 C 799 232 763 142 693 80 C 623 17 518 -14 379 -14 Z" unicode="ś" />
<glyph horiz-adv-x="1169" d="M 516 -18 C 382 -18 265 -3 165 25 C 65 53 -15 91 -78 137 L 98 381 C 153 339 217 307 291 284 C 365 261 440 250 518 250 C 665 250 739 313 739 440 C 739 470 733 495 721 515 C 709 535 689 554 662 572 C 635 589 571 618 469 659 C 357 704 274 757 221 819 C 167 880 141 955 141 1044 C 141 1203 188 1325 282 1409 C 376 1493 513 1536 694 1536 C 802 1536 896 1525 974 1504 C 1052 1483 1115 1458 1163 1430 L 1008 1159 C 964 1185 912 1205 853 1220 C 793 1235 736 1243 680 1243 C 534 1243 461 1187 461 1077 C 461 1037 474 1005 500 981 C 526 957 579 930 659 899 C 772 853 855 811 908 774 C 960 736 999 694 1024 648 C 1048 602 1061 547 1061 485 C 1061 321 1014 197 921 111 C 828 25 693 -18 516 -18 Z M 424 -498 C 322 -498 231 -481 152 -449 L 223 -291 C 284 -318 343 -332 401 -332 C 437 -332 462 -325 477 -311 C 492 -297 500 -274 500 -244 C 500 -206 472 -186 418 -185 L 363 -186 L 313 -147 L 377 14 L 545 14 L 510 -86 L 523 -86 C 638 -86 696 -138 696 -242 C 696 -330 675 -395 634 -436 C 592 -477 522 -498 424 -498 Z" unicode="Ş" />
<glyph horiz-adv-x="905" d="M 379 -14 C 193 -14 34 24 -98 102 L 59 340 C 163 273 273 240 389 240 C 431 240 460 247 478 263 C 495 278 504 302 504 336 C 504 362 494 383 474 400 C 454 416 401 444 315 483 C 218 529 152 576 116 625 C 80 673 63 733 63 803 C 63 927 100 1021 176 1085 C 251 1149 360 1182 504 1182 C 665 1182 797 1152 899 1094 L 739 852 C 664 892 577 913 479 913 C 439 913 410 905 393 889 C 375 873 367 848 367 815 C 367 789 381 768 410 750 C 439 732 480 711 532 688 C 629 645 698 598 738 548 C 778 498 799 432 799 350 C 799 232 763 142 693 80 C 623 17 518 -14 379 -14 Z M 296 -498 C 194 -498 103 -481 24 -449 L 95 -291 C 156 -318 215 -332 273 -332 C 309 -332 334 -325 349 -311 C 364 -297 372 -274 372 -244 C 372 -206 344 -186 290 -185 L 235 -186 L 185 -147 L 249 14 L 417 14 L 382 -86 L 395 -86 C 510 -86 568 -138 568 -242 C 568 -330 547 -395 506 -436 C 464 -477 394 -498 296 -498 Z" unicode="ş" />
<glyph horiz-adv-x="1169" d="M 430 1971 L 669 1971 L 766 1809 L 917 1971 L 1163 1971 L 872 1596 L 587 1596 L 430 1971 Z M 516 -18 C 382 -18 265 -3 165 25 C 65 53 -15 91 -78 137 L 98 381 C 153 339 217 307 291 284 C 365 261 440 250 518 250 C 665 250 739 313 739 440 C 739 470 733 495 721 515 C 709 535 689 554 662 572 C 635 589 571 618 469 659 C 357 704 274 757 221 819 C 167 880 141 955 141 1044 C 141 1203 188 1325 282 1409 C 376 1493 513 1536 694 1536 C 802 1536 896 1525 974 1504 C 1052 1483 1115 1458 1163 1430 L 1008 1159 C 964 1185 912 1205 853 1220 C 793 1235 736 1243 680 1243 C 534 1243 461 1187 461 1077 C 461 1037 474 1005 500 981 C 526 957 579 930 659 899 C 772 853 855 811 908 774 C 960 736 999 694 1024 648 C 1048 602 1061 547 1061 485 C 1061 321 1014 197 921 111 C 828 25 693 -18 516 -18 Z" unicode="Š" />
<glyph horiz-adv-x="905" d="M 245 1645 L 484 1645 L 581 1483 L 732 1645 L 978 1645 L 687 1270 L 402 1270 L 245 1645 Z M 379 -14 C 193 -14 34 24 -98 102 L 59 340 C 163 273 273 240 389 240 C 431 240 460 247 478 263 C 495 278 504 302 504 336 C 504 362 494 383 474 400 C 454 416 401 444 315 483 C 218 529 152 576 116 625 C 80 673 63 733 63 803 C 63 927 100 1021 176 1085 C 251 1149 360 1182 504 1182 C 665 1182 797 1152 899 1094 L 739 852 C 664 892 577 913 479 913 C 439 913 410 905 393 889 C 375 873 367 848 367 815 C 367 789 381 768 410 750 C 439 732 480 711 532 688 C 629 645 698 598 738 548 C 778 498 799 432 799 350 C 799 232 763 142 693 80 C 623 17 518 -14 379 -14 Z" unicode="š" />
<glyph horiz-adv-x="1161" d="M 229 -471 C 283 -443 319 -422 336 -408 C 353 -393 365 -370 372 -338 L 254 -338 L 299 -72 L 571 -72 L 530 -313 C 518 -375 504 -419 488 -445 C 471 -471 446 -496 414 -518 C 382 -540 338 -564 282 -588 L 229 -471 Z M 502 1225 L 104 1225 L 156 1518 L 1274 1518 L 1221 1225 L 825 1225 L 608 0 L 285 0 L 502 1225 Z" unicode="Ţ" />
<glyph horiz-adv-x="831" d="M 43 -471 C 97 -443 133 -422 150 -408 C 167 -393 179 -370 186 -338 L 68 -338 L 113 -72 L 385 -72 L 344 -313 C 332 -375 318 -419 302 -445 C 285 -471 260 -496 228 -518 C 196 -540 152 -564 96 -588 L 43 -471 Z M 96 1161 L 291 1161 L 385 1421 L 641 1477 L 585 1161 L 831 1161 L 782 891 L 538 891 L 451 391 C 447 370 445 352 445 337 C 445 311 453 293 471 283 C 489 273 518 268 559 268 L 674 268 L 627 0 C 571 -6 519 -10 473 -10 C 391 -10 324 -1 274 16 C 224 33 187 60 163 96 C 139 132 128 181 128 243 C 128 286 133 335 143 391 L 229 891 L 49 891 L 96 1161 Z" unicode="ţ" />
<glyph horiz-adv-x="1161" d="M 428 1971 L 667 1971 L 764 1809 L 915 1971 L 1161 1971 L 870 1596 L 585 1596 L 428 1971 Z M 502 1225 L 104 1225 L 156 1518 L 1274 1518 L 1221 1225 L 825 1225 L 608 0 L 285 0 L 502 1225 Z" unicode="Ť" />
<glyph horiz-adv-x="831" d="M 711 1386 C 765 1414 801 1436 818 1451 C 835 1465 847 1488 854 1520 L 735 1520 L 782 1786 L 1055 1786 L 1012 1546 C 1001 1486 987 1443 970 1416 C 953 1389 928 1364 896 1342 C 863 1320 818 1296 762 1272 L 711 1386 Z M 96 1161 L 291 1161 L 385 1421 L 641 1477 L 585 1161 L 831 1161 L 782 891 L 538 891 L 451 391 C 447 370 445 352 445 337 C 445 311 453 293 471 283 C 489 273 518 268 559 268 L 674 268 L 627 0 C 571 -6 519 -10 473 -10 C 391 -10 324 -1 274 16 C 224 33 187 60 163 96 C 139 132 128 181 128 243 C 128 286 133 335 143 391 L 229 891 L 49 891 L 96 1161 Z" unicode="ť" />
<glyph horiz-adv-x="1343" d="M 602 -23 C 418 -23 282 10 192 76 C 102 142 57 246 57 389 C 57 441 62 498 74 559 L 244 1518 L 565 1518 L 397 567 C 389 521 385 480 385 444 C 385 380 402 334 437 307 C 472 279 532 266 616 266 C 698 266 760 286 800 328 C 840 370 869 447 889 559 L 1059 1518 L 1370 1518 L 1194 508 C 1161 318 1098 182 1004 100 C 910 18 776 -23 602 -23 Z M 493 1852 L 1230 1852 L 1185 1596 L 448 1596 L 493 1852 Z" unicode="Ū" />
<glyph horiz-adv-x="1106" d="M 463 -16 C 311 -16 200 9 131 60 C 61 110 27 193 27 309 C 27 369 33 438 47 516 L 162 1161 L 471 1161 L 356 512 C 344 445 339 399 339 375 C 339 332 349 302 371 284 C 393 266 427 258 473 258 C 509 258 537 262 559 271 C 581 279 598 293 611 311 C 624 329 634 353 641 382 C 648 411 656 446 664 487 L 780 1161 L 1085 1161 L 963 455 C 941 328 911 232 874 167 C 836 102 786 55 723 27 C 659 -1 573 -16 463 -16 Z M 317 1526 L 1054 1526 L 1009 1270 L 272 1270 L 317 1526 Z" unicode="ū" />
<glyph horiz-adv-x="1343" d="M 847 1725 C 927 1725 968 1781 968 1893 C 968 1951 938 1981 880 1981 C 840 1981 809 1966 788 1936 C 767 1906 757 1866 757 1815 C 757 1755 787 1725 847 1725 Z M 837 1577 C 761 1577 703 1595 663 1632 C 623 1669 604 1723 604 1794 C 604 1900 629 1982 680 2041 C 731 2100 802 2130 893 2130 C 968 2130 1025 2110 1064 2072 C 1102 2034 1122 1979 1122 1907 C 1122 1806 1096 1726 1045 1666 C 994 1606 925 1577 837 1577 Z M 602 -23 C 418 -23 282 10 192 76 C 102 142 57 246 57 389 C 57 441 62 498 74 559 L 244 1518 L 565 1518 L 397 567 C 389 521 385 480 385 444 C 385 380 402 334 437 307 C 472 279 532 266 616 266 C 698 266 760 286 800 328 C 840 370 869 447 889 559 L 1059 1518 L 1370 1518 L 1194 508 C 1161 318 1098 182 1004 100 C 910 18 776 -23 602 -23 Z" unicode="Ů" />
<glyph horiz-adv-x="1106" d="M 671 1399 C 751 1399 792 1455 792 1567 C 792 1625 762 1655 704 1655 C 664 1655 633 1640 612 1610 C 591 1580 581 1540 581 1489 C 581 1429 611 1399 671 1399 Z M 661 1251 C 585 1251 527 1269 487 1306 C 447 1343 428 1397 428 1468 C 428 1574 453 1656 504 1715 C 555 1774 626 1804 717 1804 C 792 1804 849 1784 888 1746 C 926 1708 946 1653 946 1581 C 946 1480 920 1400 869 1340 C 818 1280 749 1251 661 1251 Z M 463 -16 C 311 -16 200 9 131 60 C 61 110 27 193 27 309 C 27 369 33 438 47 516 L 162 1161 L 471 1161 L 356 512 C 344 445 339 399 339 375 C 339 332 349 302 371 284 C 393 266 427 258 473 258 C 509 258 537 262 559 271 C 581 279 598 293 611 311 C 624 329 634 353 641 382 C 648 411 656 446 664 487 L 780 1161 L 1085 1161 L 963 455 C 941 328 911 232 874 167 C 836 102 786 55 723 27 C 659 -1 573 -16 463 -16 Z" unicode="ů" />
<glyph horiz-adv-x="1343" d="M 602 -23 C 418 -23 282 10 192 76 C 102 142 57 246 57 389 C 57 441 62 498 74 559 L 244 1518 L 565 1518 L 397 567 C 389 521 385 480 385 444 C 385 380 402 334 437 307 C 472 279 532 266 616 266 C 698 266 760 286 800 328 C 840 370 869 447 889 559 L 1059 1518 L 1370 1518 L 1194 508 C 1161 318 1098 182 1004 100 C 910 18 776 -23 602 -23 Z M 731 1971 L 1046 1971 L 694 1596 L 456 1596 L 731 1971 Z M 1153 1971 L 1468 1971 L 1116 1596 L 878 1596 L 1153 1971 Z" unicode="Ű" />
<glyph horiz-adv-x="1106" d="M 463 -16 C 311 -16 200 9 131 60 C 61 110 27 193 27 309 C 27 369 33 438 47 516 L 162 1161 L 471 1161 L 356 512 C 344 445 339 399 339 375 C 339 332 349 302 371 284 C 393 266 427 258 473 258 C 509 258 537 262 559 271 C 581 279 598 293 611 311 C 624 329 634 353 641 382 C 648 411 656 446 664 487 L 780 1161 L 1085 1161 L 963 455 C 941 328 911 232 874 167 C 836 102 786 55 723 27 C 659 -1 573 -16 463 -16 Z M 555 1645 L 870 1645 L 518 1270 L 280 1270 L 555 1645 Z M 977 1645 L 1292 1645 L 940 1270 L 702 1270 L 977 1645 Z" unicode="ű" />
<glyph horiz-adv-x="1343" d="M 535 -479 C 445 -479 377 -465 329 -439 C 281 -413 258 -368 258 -305 C 258 -252 272 -200 302 -148 C 331 -96 372 -50 424 -10 C 302 8 210 50 149 115 C 87 179 57 271 57 389 C 57 441 62 498 74 559 L 244 1518 L 565 1518 L 397 567 C 389 521 385 480 385 444 C 385 380 402 334 437 307 C 472 279 532 266 616 266 C 698 266 760 286 800 328 C 840 370 869 447 889 559 L 1059 1518 L 1370 1518 L 1194 508 C 1161 323 1100 189 1011 107 C 921 24 792 -19 623 -23 C 527 -106 479 -178 479 -240 C 479 -282 510 -303 573 -303 L 627 -303 L 594 -479 L 535 -479 Z" unicode="Ų" />
<glyph horiz-adv-x="1106" d="M 422 -479 C 332 -479 264 -465 216 -439 C 168 -413 145 -368 145 -305 C 145 -254 159 -203 187 -152 C 215 -101 257 -52 315 -6 C 215 8 142 40 96 90 C 49 140 26 211 26 305 C 26 365 33 436 47 516 L 162 1161 L 471 1161 L 356 512 C 344 445 339 399 339 375 C 339 332 349 302 371 284 C 393 266 427 258 473 258 C 509 258 537 262 559 271 C 581 279 598 293 611 311 C 624 329 634 353 641 382 C 648 411 656 446 664 487 L 780 1161 L 1085 1161 L 963 455 C 941 334 913 242 879 178 C 845 114 799 66 743 36 C 686 6 611 -10 518 -14 C 417 -102 367 -177 367 -240 C 367 -282 398 -303 461 -303 L 514 -303 L 481 -479 L 422 -479 Z" unicode="ų" />
<glyph horiz-adv-x="1257" d="M 135 1518 L 473 1518 L 647 872 L 1053 1518 L 1391 1518 L 744 520 L 653 0 L 334 0 L 426 522 L 135 1518 Z M 485 1870 L 759 1870 L 710 1596 L 438 1596 L 485 1870 Z M 886 1870 L 1161 1870 L 1112 1596 L 837 1596 L 886 1870 Z" unicode="Ÿ" />
<glyph horiz-adv-x="1130" d="M 815 1971 L 1157 1971 L 793 1596 L 529 1596 L 815 1971 Z M 750 1225 L 158 1225 L 209 1518 L 1196 1518 L 1149 1253 L 365 287 L 997 287 L 946 0 L -88 0 L -45 242 L 750 1225 Z" unicode="Ź" />
<glyph horiz-adv-x="891" d="M 640 1645 L 982 1645 L 618 1270 L 354 1270 L 640 1645 Z M 485 891 L 78 891 L 125 1161 L 922 1161 L 887 952 L 319 252 L 780 252 L 735 0 L -111 0 L -74 205 L 485 891 Z" unicode="ź" />
<glyph horiz-adv-x="1130" d="M 750 1225 L 158 1225 L 209 1518 L 1196 1518 L 1149 1253 L 365 287 L 997 287 L 946 0 L -88 0 L -45 242 L 750 1225 Z M 606 1876 L 918 1876 L 868 1596 L 555 1596 L 606 1876 Z" unicode="Ż" />
<glyph horiz-adv-x="891" d="M 485 891 L 78 891 L 125 1161 L 922 1161 L 887 952 L 319 252 L 780 252 L 735 0 L -111 0 L -74 205 L 485 891 Z M 431 1550 L 743 1550 L 693 1270 L 380 1270 L 431 1550 Z" unicode="ż" />
<glyph horiz-adv-x="1130" d="M 412 1971 L 651 1971 L 748 1809 L 899 1971 L 1145 1971 L 854 1596 L 569 1596 L 412 1971 Z M 750 1225 L 158 1225 L 209 1518 L 1196 1518 L 1149 1253 L 365 287 L 997 287 L 946 0 L -88 0 L -45 242 L 750 1225 Z" unicode="Ž" />
<glyph horiz-adv-x="891" d="M 237 1645 L 476 1645 L 573 1483 L 724 1645 L 970 1645 L 679 1270 L 394 1270 L 237 1645 Z M 485 891 L 78 891 L 125 1161 L 922 1161 L 887 952 L 319 252 L 780 252 L 735 0 L -111 0 L -74 205 L 485 891 Z" unicode="ž" />
<glyph horiz-adv-x="1038" d="M 164 942 L 350 942 L 389 1163 C 405 1261 427 1334 457 1381 C 486 1427 527 1462 579 1484 C 631 1506 699 1518 782 1518 C 840 1518 893 1516 940 1513 L 893 1245 L 813 1245 C 787 1245 767 1241 752 1234 C 736 1226 724 1216 716 1202 C 707 1188 698 1161 690 1120 L 658 942 L 938 942 L 891 674 L 611 674 L 436 -324 L 127 -324 L 303 674 L 117 674 L 164 942 Z" unicode="ƒ" />
<glyph horiz-adv-x="1169" d="" unicode="Ș" />
<glyph horiz-adv-x="905" d="" unicode="ș" />
<glyph horiz-adv-x="1161" d="M 229 -471 C 283 -443 319 -422 336 -408 C 353 -393 365 -370 372 -338 L 254 -338 L 299 -72 L 571 -72 L 530 -313 C 518 -375 504 -419 488 -445 C 471 -471 446 -496 414 -518 C 382 -540 338 -564 282 -588 L 229 -471 Z M 502 1225 L 104 1225 L 156 1518 L 1274 1518 L 1221 1225 L 825 1225 L 608 0 L 285 0 L 502 1225 Z" unicode="Ț" />
<glyph horiz-adv-x="831" d="M 43 -471 C 97 -443 133 -422 150 -408 C 167 -393 179 -370 186 -338 L 68 -338 L 113 -72 L 385 -72 L 344 -313 C 332 -375 318 -419 302 -445 C 285 -471 260 -496 228 -518 C 196 -540 152 -564 96 -588 L 43 -471 Z M 96 1161 L 291 1161 L 385 1421 L 641 1477 L 585 1161 L 831 1161 L 782 891 L 538 891 L 451 391 C 447 370 445 352 445 337 C 445 311 453 293 471 283 C 489 273 518 268 559 268 L 674 268 L 627 0 C 571 -6 519 -10 473 -10 C 391 -10 324 -1 274 16 C 224 33 187 60 163 96 C 139 132 128 181 128 243 C 128 286 133 335 143 391 L 229 891 L 49 891 L 96 1161 Z" unicode="ț" />
<glyph horiz-adv-x="997" d="M 512 1645 L 797 1645 L 954 1270 L 715 1270 L 618 1432 L 467 1270 L 221 1270 L 512 1645 Z" unicode="ˆ" />
<glyph horiz-adv-x="997" d="M 289 1645 L 528 1645 L 625 1483 L 776 1645 L 1022 1645 L 731 1270 L 446 1270 L 289 1645 Z" unicode="ˇ" />
<glyph horiz-adv-x="997" d="M 643 1257 C 551 1257 480 1267 428 1289 C 376 1311 339 1344 315 1390 C 291 1435 277 1512 274 1620 L 500 1653 C 500 1593 511 1551 533 1527 C 555 1503 593 1491 649 1491 C 695 1491 730 1502 754 1526 C 778 1549 797 1592 811 1655 L 1030 1622 C 1001 1497 956 1405 894 1346 C 832 1286 748 1257 643 1257 Z" unicode="˘" />
<glyph horiz-adv-x="997" d="M 483 1550 L 795 1550 L 745 1270 L 432 1270 L 483 1550 Z" unicode="˙" />
<glyph horiz-adv-x="997" d="M 618 1399 C 698 1399 739 1455 739 1567 C 739 1625 709 1655 651 1655 C 611 1655 580 1640 559 1610 C 538 1580 528 1540 528 1489 C 528 1429 558 1399 618 1399 Z M 608 1251 C 532 1251 474 1269 434 1306 C 394 1343 375 1397 375 1468 C 375 1574 400 1656 451 1715 C 502 1774 573 1804 664 1804 C 739 1804 796 1784 835 1746 C 873 1708 893 1653 893 1581 C 893 1480 867 1400 816 1340 C 765 1280 696 1251 608 1251 Z" unicode="˚" />
<glyph horiz-adv-x="997" d="M 365 -479 C 275 -479 207 -465 159 -439 C 111 -413 88 -368 88 -305 C 88 -257 99 -211 123 -166 C 147 -120 179 -79 219 -41 C 259 -3 300 25 342 45 L 539 45 C 466 -6 409 -57 369 -107 C 329 -157 309 -202 309 -240 C 309 -282 340 -303 403 -303 L 457 -303 L 424 -479 L 365 -479 Z" unicode="˛" />
<glyph horiz-adv-x="997" d="M 164 1382 C 254 1525 351 1597 457 1597 C 488 1597 517 1592 543 1583 C 569 1574 594 1564 617 1554 C 639 1543 660 1533 680 1524 C 700 1515 719 1511 737 1511 C 761 1511 783 1518 805 1534 C 826 1550 849 1574 874 1608 L 1061 1483 C 975 1338 882 1266 780 1266 C 748 1266 719 1270 692 1279 C 664 1288 638 1298 614 1309 C 590 1319 567 1329 545 1338 C 523 1347 503 1352 485 1352 C 463 1352 443 1345 423 1332 C 403 1318 380 1293 352 1257 L 164 1382 Z" unicode="˜" />
<glyph horiz-adv-x="997" d="M 502 1645 L 817 1645 L 465 1270 L 227 1270 L 502 1645 Z M 924 1645 L 1239 1645 L 887 1270 L 649 1270 L 924 1645 Z" unicode="˝" />
<glyph horiz-adv-x="997" d="M 264 1526 L 1001 1526 L 956 1270 L 219 1270 L 264 1526 Z" unicode="̄" />
<glyph horiz-adv-x="532" d="M -84 -471 C -29 -443 6 -422 23 -408 C 40 -393 52 -370 59 -338 L -59 -338 L -14 -72 L 258 -72 L 217 -313 C 205 -375 191 -419 175 -445 C 158 -471 133 -496 101 -518 C 69 -540 25 -564 -31 -588 L -84 -471 Z" unicode="̦" />
<glyph horiz-adv-x="1536" d="" unicode="Δ" />
<glyph horiz-adv-x="1664" d="" unicode="Ω" />
<glyph horiz-adv-x="1112" d="M 168 1161 L 479 1161 L 365 512 C 353 444 347 398 347 373 C 347 331 357 301 379 284 C 401 266 435 258 481 258 C 521 258 553 263 576 274 C 598 285 616 303 629 328 C 641 353 655 406 670 487 L 788 1161 L 1094 1161 L 971 455 C 949 328 919 232 882 167 C 844 102 794 55 731 27 C 667 -1 581 -16 471 -16 C 383 -16 320 3 281 41 L 215 -324 L -92 -324 L 168 1161 Z" unicode="μ" />
<glyph horiz-adv-x="1408" d="" unicode="π" />
<glyph horiz-adv-x="1251" d="M 72 823 L 1200 823 L 1151 541 L 20 541 L 72 823 Z" unicode="–" />
<glyph horiz-adv-x="1612" d="M 72 823 L 1563 823 L 1513 541 L 20 541 L 72 823 Z" unicode="—" />
<glyph horiz-adv-x="532" d="M 485 1520 L 543 1364 C 492 1339 456 1319 434 1304 C 412 1289 396 1274 386 1259 C 376 1243 368 1220 362 1190 L 520 1190 L 453 815 L 100 815 L 158 1137 C 172 1220 190 1282 212 1323 C 234 1364 267 1400 309 1430 C 351 1460 409 1490 485 1520 Z" unicode="‘" />
<glyph horiz-adv-x="532" d="M 135 969 C 187 995 224 1015 245 1030 C 266 1045 281 1060 291 1075 C 301 1090 308 1113 313 1143 L 158 1143 L 225 1518 L 578 1518 L 520 1198 C 504 1110 485 1046 463 1006 C 440 966 408 931 366 901 C 324 871 266 841 190 813 L 135 969 Z" unicode="’" />
<glyph horiz-adv-x="532" d="M -68 -174 C 4 -138 50 -111 70 -91 C 90 -71 105 -40 113 0 L -43 0 L 23 375 L 375 375 L 319 55 C 304 -27 285 -90 263 -133 C 240 -176 207 -213 164 -243 C 120 -273 62 -302 -10 -330 L -68 -174 Z" unicode="‚" />
<glyph horiz-adv-x="973" d="M 479 1520 L 532 1372 C 485 1348 451 1328 429 1313 C 407 1297 391 1282 382 1268 C 372 1254 364 1231 358 1200 L 512 1200 L 446 834 L 102 834 L 160 1153 C 174 1235 191 1295 213 1334 C 234 1372 265 1406 306 1435 C 346 1463 404 1492 479 1520 Z M 930 1520 L 985 1372 C 911 1334 865 1306 845 1286 C 825 1266 813 1237 807 1200 L 961 1200 L 895 834 L 553 834 L 610 1153 C 625 1237 643 1298 665 1336 C 686 1374 717 1407 757 1435 C 797 1463 854 1491 930 1520 Z" unicode="“" />
<glyph horiz-adv-x="973" d="M 135 979 C 201 1011 246 1038 268 1058 C 290 1078 304 1108 311 1149 L 160 1149 L 225 1518 L 567 1518 L 508 1198 C 495 1117 478 1057 458 1018 C 437 979 407 946 367 918 C 327 890 268 861 190 831 L 135 979 Z M 588 979 C 654 1011 697 1037 719 1057 C 741 1077 755 1108 762 1149 L 608 1149 L 674 1518 L 1018 1518 L 961 1198 C 947 1116 929 1055 908 1017 C 886 978 855 944 815 916 C 774 888 716 859 641 831 L 588 979 Z" unicode="”" />
<glyph horiz-adv-x="973" d="M -37 -164 C 9 -141 42 -122 64 -108 C 86 -93 101 -78 111 -63 C 121 -47 128 -24 133 6 L -18 6 L 41 375 L 383 375 L 330 55 C 316 -31 300 -93 280 -131 C 260 -168 230 -200 191 -227 C 152 -254 95 -282 20 -311 L -37 -164 Z M 414 -164 C 460 -141 493 -122 515 -108 C 537 -93 552 -78 562 -63 C 572 -47 579 -24 584 6 L 430 6 L 489 375 L 834 375 L 782 55 C 769 -27 752 -87 732 -125 C 712 -163 682 -196 644 -224 C 605 -252 547 -281 469 -311 L 414 -164 Z" unicode="„" />
<glyph horiz-adv-x="1049" d="M 385 836 L 90 836 L 141 1122 L 434 1122 L 516 1575 L 821 1575 L 741 1122 L 1038 1122 L 987 836 L 690 836 L 485 -324 L 180 -324 L 385 836 Z" unicode="†" />
<glyph horiz-adv-x="1049" d="M 262 137 L -33 137 L 18 424 L 311 424 L 385 838 L 90 838 L 141 1124 L 434 1124 L 516 1575 L 821 1575 L 741 1124 L 1038 1124 L 987 838 L 692 838 L 618 424 L 915 424 L 864 137 L 569 137 L 485 -324 L 180 -324 L 262 137 Z" unicode="‡" />
<glyph horiz-adv-x="692" d="M 164 860 L 561 860 L 479 385 L 82 385 L 164 860 Z" unicode="•" />
<glyph horiz-adv-x="1532" d="M 20 367 L 373 367 L 309 0 L -43 0 L 20 367 Z M 520 367 L 872 367 L 809 0 L 457 0 L 520 367 Z M 1022 367 L 1372 367 L 1307 0 L 956 0 L 1022 367 Z" unicode="…" />
<glyph horiz-adv-x="3009" d="M 455 528 C 329 528 236 556 175 612 C 114 668 84 757 84 877 C 84 993 101 1105 137 1214 C 172 1323 222 1403 288 1455 C 354 1506 441 1532 551 1532 C 675 1532 769 1503 831 1445 C 893 1387 924 1298 924 1176 C 924 1133 917 1071 905 991 C 877 833 829 716 759 641 C 689 565 587 528 455 528 Z M 455 758 C 503 758 538 772 562 802 C 585 832 605 886 621 966 C 637 1045 645 1109 645 1159 C 645 1204 636 1236 620 1256 C 603 1276 575 1286 537 1286 C 493 1286 460 1270 438 1238 C 416 1206 396 1147 380 1061 C 364 974 356 913 356 877 C 356 833 364 803 380 785 C 396 767 421 758 455 758 Z M 1587 -16 C 1461 -16 1368 12 1308 68 C 1247 124 1217 212 1217 334 C 1217 408 1227 491 1248 584 C 1268 677 1297 753 1335 813 C 1373 873 1420 917 1476 946 C 1532 974 1602 989 1686 989 C 1809 989 1901 959 1963 901 C 2025 843 2056 753 2056 631 C 2056 556 2045 473 2024 382 C 2003 290 1973 215 1935 156 C 1897 96 1850 53 1794 25 C 1738 -2 1669 -16 1587 -16 Z M 1589 213 C 1639 213 1676 229 1700 262 C 1724 295 1745 363 1763 465 C 1774 517 1780 567 1780 616 C 1780 662 1771 694 1754 713 C 1736 731 1709 741 1671 741 C 1627 741 1594 725 1572 694 C 1550 663 1531 605 1515 521 C 1499 437 1491 374 1491 334 C 1491 290 1498 259 1514 241 C 1530 222 1555 213 1589 213 Z M 2460 -16 C 2336 -16 2243 12 2181 68 C 2119 124 2089 212 2089 334 C 2089 410 2099 494 2121 586 C 2142 678 2172 754 2210 814 C 2248 874 2294 919 2350 947 C 2405 975 2474 989 2558 989 C 2682 989 2775 959 2837 901 C 2898 843 2929 753 2929 631 C 2929 563 2918 483 2898 390 C 2878 297 2849 220 2812 160 C 2774 100 2728 55 2672 27 C 2616 -1 2545 -16 2460 -16 Z M 2462 213 C 2509 213 2544 227 2568 257 C 2592 287 2612 341 2628 421 C 2644 501 2652 566 2652 616 C 2652 662 2643 694 2627 713 C 2610 731 2582 741 2544 741 C 2499 741 2466 725 2444 693 C 2422 661 2403 601 2387 514 C 2371 427 2363 367 2363 334 C 2363 290 2371 259 2387 241 C 2403 222 2428 213 2462 213 Z M 1411 1518 L 1696 1518 L 729 0 L 442 0 L 1411 1518 Z" unicode="‰" />
<glyph horiz-adv-x="842" d="M 98 580 L 457 1161 L 737 1161 L 401 580 L 532 0 L 252 0 L 98 580 Z" unicode="‹" />
<glyph horiz-adv-x="842" d="M 379 582 L 248 1161 L 528 1161 L 682 582 L 324 0 L 43 0 L 379 582 Z" unicode="›" />
<glyph horiz-adv-x="977" d="" unicode="⁄" />
<glyph horiz-adv-x="1223" d="M 37 705 L 225 705 L 242 811 L 55 811 L 94 1030 L 291 1030 C 328 1160 372 1261 422 1333 C 472 1405 532 1456 602 1488 C 672 1520 758 1536 860 1536 C 942 1536 1015 1527 1080 1509 C 1145 1491 1212 1460 1282 1415 L 1098 1163 C 1024 1212 940 1237 848 1237 C 785 1237 736 1221 700 1189 C 664 1157 635 1104 612 1030 L 950 1030 L 911 811 L 560 811 L 541 705 L 893 705 L 856 485 L 522 485 C 523 408 539 353 571 319 C 603 285 653 268 723 268 C 789 268 862 285 942 319 L 1055 78 C 938 14 810 -18 672 -18 C 509 -18 390 19 316 93 C 242 167 205 287 205 451 L 205 485 L 0 485 L 37 705 Z" unicode="€" />
<glyph horiz-adv-x="1876" d="M 973 1518 L 1233 1518 L 1309 911 L 1597 1518 L 1860 1518 L 1688 547 L 1466 547 L 1563 1090 L 1313 547 L 1167 547 L 1108 1090 L 1012 547 L 803 547 L 973 1518 Z M 403 1311 L 160 1311 L 197 1518 L 918 1518 L 879 1311 L 633 1311 L 500 547 L 270 547 L 403 1311 Z" unicode="™" />
<glyph horiz-adv-x="1664" d="" unicode="Ω" />
<glyph horiz-adv-x="1280" d="" unicode="∂" />
<glyph horiz-adv-x="1536" d="" unicode="∆" />
<glyph horiz-adv-x="1536" d="" unicode="∏" />
<glyph horiz-adv-x="1152" d="" unicode="∑" />
<glyph horiz-adv-x="1247" d="" unicode="−" />
<glyph horiz-adv-x="977" d="" unicode="∕" />
<glyph horiz-adv-x="532" d="M 123 944 L 475 944 L 410 569 L 57 569 L 123 944 Z" unicode="∙" />
<glyph horiz-adv-x="1196" d="" unicode="√" />
<glyph horiz-adv-x="1456" d="" unicode="∞" />
<glyph horiz-adv-x="1152" d="" unicode="∫" />
<glyph horiz-adv-x="1536" d="" unicode="≈" />
<glyph horiz-adv-x="1247" d="" unicode="≠" />
<glyph horiz-adv-x="1247" d="" unicode="≤" />
<glyph horiz-adv-x="1247" d="" unicode="≥" />
<glyph horiz-adv-x="997" d="" unicode="◊" />
<glyph horiz-adv-x="1704" d="" unicode="" />
<glyph horiz-adv-x="1374" d="M 831 891 L 546 891 L 332 -324 L 20 -324 L 235 891 L 49 891 L 96 1161 L 283 1161 L 307 1296 C 326 1409 369 1490 436 1539 C 503 1587 608 1612 750 1612 L 812 1612 L 856 1610 L 807 1341 L 731 1341 C 690 1341 661 1333 643 1317 C 625 1301 612 1269 604 1221 L 593 1161 L 879 1161 L 903 1296 C 923 1411 967 1492 1036 1540 C 1104 1588 1213 1612 1362 1612 C 1428 1612 1478 1610 1513 1608 L 1466 1341 L 1346 1341 C 1297 1341 1262 1333 1242 1317 C 1222 1301 1208 1269 1200 1221 L 1189 1161 L 1434 1161 L 1386 891 L 1141 891 L 926 -324 L 616 -324 L 831 891 Z" unicode="ﬀ" />
<glyph horiz-adv-x="1225" d="M 96 1161 L 283 1161 L 307 1296 C 326 1409 369 1490 436 1539 C 503 1587 608 1612 750 1612 L 812 1612 L 856 1610 L 807 1341 L 731 1341 C 690 1341 661 1333 643 1317 C 625 1301 612 1269 604 1221 L 593 1161 L 776 1161 L 729 891 L 546 891 L 332 -324 L 20 -324 L 235 891 L 49 891 L 96 1161 Z M 879 1161 L 1188 1161 L 983 0 L 674 0 L 879 1161 Z M 946 1546 L 1257 1546 L 1208 1266 L 895 1266 L 946 1546 Z" unicode="ﬁ" />
<glyph horiz-adv-x="1300" d="M 96 1161 L 283 1161 L 307 1296 C 326 1409 369 1490 436 1539 C 503 1587 608 1612 750 1612 L 812 1612 L 856 1610 L 807 1341 L 731 1341 C 690 1341 661 1333 643 1317 C 625 1301 612 1269 604 1221 L 593 1161 L 776 1161 L 729 891 L 546 891 L 332 -324 L 20 -324 L 235 891 L 49 891 L 96 1161 Z M 991 -4 C 895 -4 826 14 785 50 C 744 86 723 145 723 227 C 723 266 727 312 737 365 L 952 1575 L 1262 1575 L 1049 373 C 1044 347 1042 328 1042 316 C 1042 298 1049 285 1063 278 C 1077 271 1106 268 1151 268 L 1104 0 C 1092 -2 1054 -4 991 -4 Z" unicode="ﬂ" />
<glyph horiz-adv-x="1819" d="M 831 891 L 546 891 L 332 -324 L 20 -324 L 235 891 L 49 891 L 96 1161 L 283 1161 L 307 1296 C 326 1409 369 1490 436 1539 C 503 1587 608 1612 750 1612 L 812 1612 L 856 1610 L 807 1341 L 731 1341 C 690 1341 661 1333 643 1317 C 625 1301 612 1269 604 1221 L 593 1161 L 879 1161 L 903 1296 C 922 1409 965 1490 1032 1539 C 1099 1587 1203 1612 1343 1612 L 1408 1612 L 1452 1610 L 1403 1341 L 1327 1341 C 1286 1341 1257 1333 1239 1317 C 1221 1301 1208 1269 1200 1221 L 1189 1161 L 1372 1161 L 1325 891 L 1141 891 L 926 -324 L 616 -324 L 831 891 Z M 1473 1161 L 1784 1161 L 1579 0 L 1270 0 L 1473 1161 Z M 1540 1546 L 1853 1546 L 1802 1266 L 1491 1266 L 1540 1546 Z" unicode="ﬃ" />
<glyph horiz-adv-x="1896" d="M 831 891 L 546 891 L 332 -324 L 20 -324 L 235 891 L 49 891 L 96 1161 L 283 1161 L 307 1296 C 326 1409 369 1490 436 1539 C 503 1587 608 1612 750 1612 L 812 1612 L 856 1610 L 807 1341 L 731 1341 C 690 1341 661 1333 643 1317 C 625 1301 612 1269 604 1221 L 593 1161 L 879 1161 L 903 1296 C 922 1409 965 1490 1032 1539 C 1099 1587 1203 1612 1343 1612 L 1408 1612 L 1452 1610 L 1403 1341 L 1327 1341 C 1286 1341 1257 1333 1239 1317 C 1221 1301 1208 1269 1200 1221 L 1189 1161 L 1372 1161 L 1325 891 L 1141 891 L 926 -324 L 616 -324 L 831 891 Z M 1585 -4 C 1489 -4 1421 14 1380 51 C 1338 87 1318 147 1318 229 C 1318 267 1322 313 1331 365 L 1548 1575 L 1858 1575 L 1645 373 L 1637 314 C 1637 296 1644 284 1658 278 C 1672 271 1701 268 1745 268 L 1698 0 C 1687 -2 1649 -4 1585 -4 Z" unicode="ﬄ" />
</font>
</defs>
</svg>
